<svg xmlns="http://www.w3.org/2000/svg" height="1024" preserveAspectRatio="none" style="display: block;" version="1.1" viewBox="0 0 2048 2048" width="1024">
<path d="M 0 0 L 2048 0 L 2048 2048 L 0 2048 L 0 0 z" fill="rgb(255,255,255)" transform="translate(0,0)"></path>
<path d="M 1037.52 320.383 L 1040.19 320.212 C 1040.25 322.941 1019.63 335.546 1016.2 337.965 C 973.509 368.076 916.856 408.592 892.36 455.13 C 866.029 507.111 894.674 542.154 930.417 578.964 C 957.525 606.881 1019.54 652.951 1031.9 689.41 C 1047.2 734.573 977.879 742.34 1000.97 802.72 C 1024.68 864.731 1103.26 853.833 1128.24 800.934 C 1160.1 730.225 1125.88 660.67 1100.3 595.322 C 1109.41 603.07 1119.16 616.951 1126.56 627.012 C 1185.15 706.683 1240.71 833.06 1171.84 922.622 C 1150.6 950.247 1107.53 979.598 1072.3 983.628 C 1012.24 918.502 937.457 883.751 849.514 875.804 C 858.883 864.908 867.57 858.625 877.644 845.293 C 921.38 787.76 926.287 709.59 890.089 647.039 C 866.197 606.572 832.576 582.248 825.293 529.129 C 819.72 488.479 831.155 461.552 858.505 430.855 C 864.159 424.509 876.341 415.385 880.602 409.707 L 877.556 410.808 C 805.441 451.759 766.758 509.555 798.03 593.155 C 814.723 637.781 850.399 687.093 832.058 737.273 C 805.011 811.272 717.354 835.885 653.531 867.894 C 581.131 903.602 502.164 962.823 508.634 1052.71 C 509.712 1067.69 515.085 1092.04 521.915 1105.43 C 513.51 1134.32 506.294 1159.24 503.557 1189.49 C 356.251 1036.08 383.557 864.64 572.881 773.693 C 622.379 749.914 686.643 727.123 722.044 683.387 C 740.161 661.004 743.619 623.195 727.85 597.2 C 693.336 552.718 680.862 513.985 721.491 462.457 C 791.258 373.974 929.522 335.605 1037.52 320.383 z" fill="rgb(153,34,41)" transform="translate(0,0)"></path>
<path d="M 812.807 898.396 L 814.378 898.296 C 900.228 893.446 996.568 936.242 1054.16 998.481 C 1060.97 1005.84 1067.35 1014.4 1074.96 1020.85 C 1036.93 1031.81 994.811 1041.34 955.627 1052.27 C 875.078 1074.8 795.176 1099.57 716.015 1126.57 C 699.322 1131.58 681.521 1138.39 664.991 1144.39 C 634.314 1155.37 603.826 1166.88 573.542 1178.91 C 557.635 1185.17 540.333 1192.82 524.448 1198.25 C 535.413 1123.66 558.123 1065.85 606.282 1006.76 C 643.693 960.851 694.211 925.396 751.361 908.791 C 771.26 903.01 792.203 900.459 812.807 898.396 z" fill="rgb(55,52,53)" transform="translate(0,0)"></path>
<path d="M 582.29 1100.35 C 609.648 1020 678.382 954.159 759.68 929.452 C 791.019 919.928 791.669 943.849 779.362 947.744 C 698.534 973.329 622.864 1022.66 585.021 1100.99 L 582.29 1100.35 z" fill="rgb(255,255,255)" transform="translate(0,0)"></path>
<path d="M 582.29 1100.35 L 585.021 1100.99 C 583.423 1104.76 581.706 1109.64 579.13 1112.64 C 578.92 1109.11 581.088 1103.91 582.29 1100.35 z" fill="rgb(214,216,217)" transform="translate(0,0)"></path>
<path d="M 1539.58 1141.28 C 1575.35 1135.89 1612.85 1157.31 1632.08 1186.79 C 1651.73 1216.9 1661.09 1248.89 1654.09 1284.83 C 1648.24 1314.82 1623.52 1338.99 1594.96 1348.39 C 1570.8 1355.72 1546.02 1361.22 1521.62 1367.72 C 1509.76 1370.5 1498.1 1374.27 1486.21 1376.94 C 1464.72 1381.76 1441.51 1391.35 1419.33 1386.49 C 1402.41 1382.79 1394.44 1368.46 1386.46 1354.89 C 1325.88 1386.09 1267.13 1420.84 1206.42 1451.83 C 1196.82 1456.74 1187.22 1463.21 1177.69 1468.4 L 1074.39 1524.41 C 1057.46 1533.51 1040.47 1542.56 1023.51 1551.56 C 1017.92 1555.09 1004.72 1559.48 1006.34 1567.92 C 1007.65 1574.7 1001.75 1579.37 996.359 1581.93 C 995.075 1582.58 988.561 1580.42 987.828 1580.83 C 936.284 1609.22 885.312 1638.49 833.517 1666.44 C 826.43 1683.77 813.411 1680.36 802.966 1668.45 C 798.773 1669.88 786.717 1675 784.663 1678.65 C 786.374 1705.49 777.921 1725.31 748.655 1729.41 C 737.377 1731.08 725.914 1727.99 716.997 1720.89 C 708.648 1714.21 703.283 1704.5 702.077 1693.87 C 697.822 1653.46 741.368 1631.68 772.936 1658.11 C 779.663 1654.99 785.343 1651.07 791.557 1647.04 C 790.054 1643.01 786.825 1635.63 788.848 1631.78 C 794.628 1620.76 800.156 1624.56 808.008 1626.82 C 809.448 1626.57 961.883 1540.67 965.86 1537.8 C 970.826 1523.68 980.835 1522.09 990.093 1533.74 C 1004.66 1527.78 1022.86 1517.22 1037.08 1509.5 L 1112.48 1468.47 L 1371.3 1327.92 C 1353.9 1280.8 1377.39 1267.13 1409.64 1238.12 L 1458.95 1194.26 C 1484.83 1171.32 1504.23 1146.9 1539.58 1141.28 z" fill="rgb(55,52,53)" transform="translate(0,0)"></path>
<path d="M 1601.5 1289.09 L 1604.42 1289.34 C 1609.79 1293.6 1611.25 1303.18 1606.68 1308.5 C 1604.01 1311.6 1599.05 1313.48 1595.22 1314.7 C 1563.21 1324.87 1530.57 1333.14 1498.29 1342.38 C 1486.59 1345.66 1442.4 1358.7 1433.04 1359.14 C 1427.95 1351.55 1425.17 1346.77 1421.1 1338.63 C 1446.95 1333.16 1471.13 1325.95 1496.56 1318.86 C 1531.66 1309.36 1566.65 1299.44 1601.5 1289.09 z" fill="rgb(255,255,255)" transform="translate(0,0)"></path>
<path d="M 1575.96 1226.78 C 1585.21 1229.8 1588.31 1238.32 1590.2 1246.9 C 1570.01 1258.22 1543.96 1269.23 1522.84 1279.75 C 1488.81 1296.7 1455.29 1314.2 1421.38 1331.32 L 1419.88 1332.26 C 1416.02 1330.59 1410.79 1317.6 1408.57 1312.9 C 1450.91 1293.59 1492.83 1269.55 1534.6 1248.74 C 1547.7 1242.21 1563.88 1234.45 1575.96 1226.78 z" fill="rgb(255,255,255)" transform="translate(0,0)"></path>
<path d="M 1532.88 1173.73 C 1541.72 1172.73 1547.99 1182.79 1552.05 1189.32 C 1539.32 1197.64 1515.6 1217.53 1503.18 1227.61 C 1472.11 1252.84 1441.22 1278.29 1410.5 1303.96 C 1407.43 1306.61 1408.9 1306.32 1405.67 1306.81 C 1399.82 1302.86 1398.06 1296.83 1394.96 1290.2 C 1400.71 1282.23 1417.28 1269.63 1425.41 1262.92 L 1471.91 1224.3 C 1488.71 1210.25 1515.51 1185.59 1532.88 1173.73 z" fill="rgb(255,255,255)" transform="translate(0,0)"></path>
<path d="M 740.491 1658.22 C 756.945 1656.5 771.668 1668.48 773.324 1684.94 C 774.979 1701.4 762.936 1716.07 746.467 1717.65 C 730.1 1719.23 715.539 1707.27 713.893 1690.91 C 712.248 1674.55 724.138 1659.94 740.491 1658.22 z" fill="rgb(255,255,255)" transform="translate(0,0)"></path>
<path d="M 1250.76 1003.4 C 1253.87 1003.07 1256.28 1002.41 1259 1003.72 C 1255.67 1008.08 1139.39 1042.11 1123.14 1047.18 C 992.48 1087.9 863.895 1133.78 734.753 1178.95 C 716.442 1185.36 697.817 1190.84 679.409 1196.96 C 652.248 1206 625.201 1215.38 598.273 1225.09 C 597.553 1295.44 636.37 1351.45 696.296 1386.91 C 711.792 1396.08 732.157 1403.8 749.192 1409.83 C 840.879 1442.25 940.655 1431.85 1032.25 1404.85 C 1047.16 1400.45 1061.55 1394.46 1076.5 1390.35 L 1076.41 1391.06 C 1048.48 1406.7 999.211 1423.41 968.494 1433.21 C 946.097 1439.04 925.028 1444.3 902.075 1448.15 C 737.517 1475.8 514.421 1438.32 459.411 1254.08 C 464.598 1250.63 470.213 1247.99 475.778 1245.22 C 513.095 1226.68 552.163 1212.52 590.979 1197.81 C 805.813 1116.83 1026.34 1051.85 1250.76 1003.4 z" fill="rgb(55,52,53)" transform="translate(0,0)"></path>
<path d="M 1259.55 1019.99 C 1262.08 1020.09 1261.34 1019.81 1263.32 1021.11 C 1266.69 1027.23 1267.18 1039.34 1267.8 1046.54 C 1271.55 1090.11 1265.79 1130.11 1254.88 1172.26 C 1238.02 1161.74 1219.16 1152.17 1199.87 1147.31 C 1085.44 1118.47 933.821 1138.77 819.865 1161.62 C 805.674 1163.82 790.492 1166.95 776.302 1169.66 C 831.157 1151.03 882.605 1136.25 937.352 1118.9 C 1044.22 1084.22 1151.63 1051.25 1259.55 1019.99 z" fill="rgb(55,52,53)" transform="translate(0,0)"></path>
<path d="M 589.808 478.338 C 592.899 479.646 594.82 480.967 597.373 483.113 C 626.839 507.878 657.047 542.368 660.79 582.206 C 668.318 662.321 594.722 690.384 538.054 724.505 C 505.682 743.996 472.62 765.585 449.072 794.643 C 441.41 805.055 435.565 815.624 429.069 826.772 C 443.263 764.839 469.2 726.578 516.371 684.569 C 551.183 653.566 600.402 626.937 611.539 578.102 C 619.785 541.943 608.75 509.016 589.808 478.338 z" fill="rgb(153,34,41)" transform="translate(0,0)"></path>
<path d="M 640.568 1451.69 C 653.828 1452.86 677.26 1459.6 693.49 1461.7 C 689.346 1475.4 684.281 1488.88 679.672 1502.45 C 674.044 1519.02 672.451 1533.3 660.633 1546.83 C 640.307 1561.6 611.571 1550.35 614.533 1523.93 C 615.619 1514.24 622.691 1499.94 626.398 1490.49 C 631.484 1477.7 636.209 1464.76 640.568 1451.69 z" fill="rgb(55,52,53)" transform="translate(0,0)"></path>
<path d="M 1044.36 447.979 C 1044.5 452.165 1030.19 472.199 1030 480.624 C 1028.83 533.337 1083.04 527.66 1068.05 591.572 C 1064.9 583.892 1062.94 580.052 1058.81 572.808 C 1043.87 555.103 1018.3 549.506 1005.33 531.281 C 982.193 498.79 1019.94 463.951 1044.36 447.979 z" fill="rgb(153,34,41)" transform="translate(0,0)"></path>
<path d="M 1033.07 1210 C 1044.99 1209.81 1068.36 1206.7 1073.65 1221.57 C 1078.51 1235.23 1072.69 1245.24 1059.46 1250.4 C 1066.9 1261.58 1075.35 1274.87 1083.32 1285.43 L 1067.71 1285.48 C 1060.66 1274.56 1053.07 1264.68 1046.47 1253.31 C 1046.81 1263.57 1046.68 1275.02 1046.75 1285.37 L 1032.76 1285.27 C 1033.09 1260.21 1032.69 1235.13 1033.07 1210 z" fill="rgb(153,34,41)" transform="translate(0,0)"></path>
<path d="M 1047.14 1222.91 C 1059.21 1222.51 1064.26 1227.53 1058.52 1239.08 C 1053.76 1240.82 1051.82 1242.56 1047.76 1239.24 C 1046.15 1234.9 1046.95 1227.84 1047.14 1222.91 z" fill="rgb(255,255,255)" transform="translate(0,0)"></path>
<path d="M 1295.65 989.388 C 1311.37 987.037 1326.48 988.546 1339.15 998.628 C 1343.74 1010.44 1341.76 1019.08 1333.23 1028.33 C 1324.07 1038.26 1296.57 1055.31 1283.68 1055.63 C 1282.7 1052.72 1283.03 1049 1283.04 1045.75 L 1283 1033.72 C 1293.61 1029.88 1319.1 1022.56 1316.37 1008.04 C 1309.09 998.969 1286.79 1004.04 1277.07 1007.18 C 1272.5 1003.75 1268.46 999.649 1264.32 995.696 C 1275.11 992.302 1284.46 990.603 1295.65 989.388 z" fill="rgb(55,52,53)" transform="translate(0,0)"></path>
<path d="M 991.448 1208.75 C 996.805 1214.75 1020.7 1272.83 1027.52 1284.95 L 1013.02 1285.03 L 1006.21 1270.97 L 989.75 1270.99 L 976.59 1270.98 C 974.864 1275.98 973.458 1281.12 971.989 1286.21 L 955.877 1286.17 C 968.446 1260.77 979.004 1234.15 991.448 1208.75 z" fill="rgb(153,34,41)" transform="translate(0,0)"></path>
<path d="M 991.465 1236.65 C 994.293 1239.41 1000.93 1253.44 999.781 1257.68 L 996.25 1258.4 L 983.347 1258.16 L 991.465 1236.65 z" fill="rgb(255,255,255)" transform="translate(0,0)"></path>
<path d="M 443.277 1243.04 L 443.757 1243.43 C 445.192 1246.04 444.331 1252.95 444.16 1256.35 C 435.403 1260.72 399.969 1277.98 409.525 1290.45 C 418.522 1294.89 439.005 1291.03 448.619 1288.59 L 458.598 1308.68 C 454.996 1309.57 450.72 1310.21 447.023 1310.86 C 433.46 1312.98 418.638 1314.16 405.683 1310.38 C 383.872 1303.6 387.76 1282.72 400.917 1269.12 C 413.919 1255.68 426.171 1249.83 443.277 1243.04 z" fill="rgb(55,52,53)" transform="translate(0,0)"></path>
<path d="M 916.472 1210.11 C 931.838 1209.61 968.684 1207.96 957.251 1239.94 C 953.783 1249.64 939.114 1250.95 930.382 1253.33 L 929.891 1255.75 L 930.082 1286.33 L 916.215 1286.33 C 916.127 1263.31 915.224 1232.64 916.472 1210.11 z" fill="rgb(153,34,41)" transform="translate(0,0)"></path>
<path d="M 930.897 1222.54 C 943.814 1222.73 947.145 1225.26 942.721 1238.11 C 938.802 1240 936.466 1241.4 932.223 1239.89 C 929.677 1235.97 930.724 1227.59 930.897 1222.54 z" fill="rgb(255,255,255)" transform="translate(0,0)"></path>
<path d="M 761.971 1208.93 C 765.196 1208.82 767.88 1208.21 770.305 1210.03 C 773.689 1216.08 771.805 1230.35 771.79 1238.74 L 809.696 1238.94 C 809.752 1229.88 808.874 1220.04 809.9 1211.19 C 810.185 1208.73 816.118 1208.46 818.646 1210.18 C 820.653 1229.27 819.718 1263.49 818.713 1283.19 C 815.829 1285.11 815.398 1284.43 811.254 1284.58 L 810.473 1284.15 C 808.708 1281.29 809.58 1253.14 809.63 1247.74 L 772.046 1247.73 C 772.028 1259.21 772.082 1270.69 772.21 1282.17 C 769.737 1286.06 765.986 1286.26 762.631 1283.17 C 761.258 1274.67 761.855 1262.95 761.877 1254.02 L 761.971 1208.93 z" fill="rgb(0,0,0)" transform="translate(0,0)"></path>
<path d="M 750.952 1300.9 C 763.693 1300.83 780.105 1298.67 790.27 1308.04 C 798.133 1315.29 795.696 1327.07 788.192 1333.77 C 780.112 1340.98 772.442 1340.82 762.25 1340.46 C 761.711 1340.45 760.582 1340.83 759.992 1340.99 C 756.531 1350.09 763.888 1365.32 756.762 1372.77 C 748.352 1373.26 750.863 1352.11 750.877 1345.98 L 750.952 1300.9 z" fill="rgb(0,0,0)" transform="translate(0,0)"></path>
<path d="M 759.16 1308.97 C 771.271 1308.73 797.123 1310.2 781.976 1328.84 C 772.493 1333.6 769.628 1333.01 759.154 1332.83 L 759.16 1308.97 z" fill="rgb(255,255,255)" transform="translate(0,0)"></path>
<path d="M 1173.17 1210.18 C 1178.47 1209.7 1183.82 1209.58 1189.14 1209.38 C 1183.28 1219.42 1177.59 1229.56 1172.08 1239.8 C 1162.68 1257.45 1165.11 1264.41 1166.01 1284.52 L 1151.05 1284.68 C 1151.14 1273.16 1151.04 1261.65 1150.73 1250.14 C 1144.3 1241.72 1135.34 1220.13 1133.12 1209.91 C 1145.94 1209.34 1147.47 1211.76 1152.58 1223.97 C 1154.41 1228.34 1156.73 1233.28 1158.77 1237.63 C 1163.34 1228.46 1167.86 1218.9 1173.17 1210.18 z" fill="rgb(153,34,41)" transform="translate(0,0)"></path>
<path d="M 837.126 1208.94 C 845.239 1209.03 873.311 1207.31 878.293 1210.34 C 878.83 1214.16 879.133 1212.44 877.761 1215.73 C 872.41 1219.58 854.501 1217.88 846.699 1217.81 L 846.499 1238.35 C 851.744 1238.34 874.275 1237.72 877.594 1239.3 C 879.891 1255.05 855.735 1242.33 847.047 1248.53 L 846.787 1251.75 L 846.874 1276.37 C 855.223 1276.56 869.411 1274.87 876.374 1277.72 C 878.398 1280.54 877.784 1279.54 877.462 1283.92 C 873.174 1287.33 844.893 1285.88 837.344 1285.83 C 837.43 1260.2 837.357 1234.57 837.126 1208.94 z" fill="rgb(0,0,0)" transform="translate(0,0)"></path>
<path d="M 974.121 1300.44 C 977.215 1302.93 1003.01 1360.99 1007.67 1370.01 L 997.685 1370.57 C 995.279 1364.02 991.675 1356.04 988.987 1349.38 L 980.241 1349.22 L 961.452 1349.11 C 957.905 1356.24 956.604 1362.41 952.132 1369.22 C 949.32 1370.87 950.034 1370.3 945.912 1369.69 L 945.067 1368.38 C 946.622 1359.94 969.151 1312.33 974.121 1300.44 z" fill="rgb(0,0,0)" transform="translate(0,0)"></path>
<path d="M 974.384 1319.72 C 977.202 1322.71 984.907 1337.92 982.674 1341.66 L 978.25 1341.88 L 964.6 1341.84 C 967.995 1334.72 971.216 1326.98 974.384 1319.72 z" fill="rgb(255,255,255)" transform="translate(0,0)"></path>
<path d="M 1082.85 1209.23 C 1097.97 1209.53 1113.09 1209.69 1128.22 1209.72 L 1129.01 1222.77 L 1114.02 1222.25 C 1112.37 1226.98 1113.51 1275.55 1113.62 1284.26 L 1099.85 1284.03 L 1099.72 1222.04 L 1082.74 1222.08 L 1082.85 1209.23 z" fill="rgb(153,34,41)" transform="translate(0,0)"></path>
<path d="M 804.169 1301.2 C 811.035 1301.27 837.901 1299.99 842.252 1302 C 842.676 1305.85 842.92 1304.02 841.347 1307.68 C 835.869 1311.59 821.165 1309.84 813.322 1309.81 L 813.409 1330.31 C 820.797 1330.31 830.766 1330.02 837.899 1330.79 C 839.612 1332.86 839.425 1332.81 839.902 1335.5 C 835.265 1341.67 821.09 1336.04 814.205 1339.91 C 812.99 1340.6 813.298 1342.9 813.17 1344.75 L 813.148 1362.01 L 832.106 1361.77 C 835.895 1361.74 840.196 1361.62 842.972 1364.34 C 843.103 1368.51 843.75 1366.93 842.084 1369.9 C 834.705 1371.16 813.598 1370.33 804.676 1370.26 L 804.169 1301.2 z" fill="rgb(0,0,0)" transform="translate(0,0)"></path>
<path d="M 1106.36 1300.13 C 1115.12 1299.48 1128.49 1302.22 1131.16 1311.78 L 1129.54 1313.56 C 1128.37 1313.87 1126.95 1314.25 1125.29 1314.69 C 1120.53 1311.93 1115.78 1308.14 1110.04 1307.96 C 1107.48 1307.89 1104.71 1308.92 1102.88 1310.92 C 1101.46 1312.63 1100.05 1315.32 1100.51 1317.63 C 1101.71 1323.51 1107.96 1326.06 1112.85 1328.49 C 1121.91 1332.98 1133.84 1337.95 1135.56 1349.27 C 1136.34 1354.4 1133.67 1360 1130.72 1364.11 C 1126.3 1370.25 1119.24 1371.47 1112.18 1372.55 C 1104.84 1371.66 1087.14 1367.11 1090.88 1356.45 C 1097.94 1353.1 1114.39 1376.6 1126.87 1355.24 C 1128.41 1338.72 1095.35 1337.23 1091.99 1321 C 1089.55 1309.24 1095.54 1303.21 1106.36 1300.13 z" fill="rgb(0,0,0)" transform="translate(0,0)"></path>
<path d="M 887.024 1301.18 C 888.847 1301.12 890.673 1301.18 892.488 1301.35 C 898.318 1301.88 906.622 1302.65 910.382 1307.17 C 910.846 1310.57 911.315 1312.01 910.318 1315.33 C 906.412 1316.65 899.419 1307.03 886.14 1309.87 C 845.063 1318.66 858.886 1374.78 900.84 1360.68 C 904.948 1357.73 904.803 1356.82 909.076 1356.41 L 910.829 1358.05 C 911.955 1373.86 879.987 1373.57 867.944 1365.75 C 859.913 1360.5 854.403 1352.18 852.714 1342.73 C 848.604 1319.93 865.455 1303.93 887.024 1301.18 z" fill="rgb(0,0,0)" transform="translate(0,0)"></path>
<path d="M 715.18 1300.26 C 726.65 1299.79 728.344 1301.39 738.818 1306.29 L 732.156 1313.9 C 726.003 1309.9 711.948 1302.3 708.582 1318.22 C 707.677 1322.5 716.826 1327.6 720.671 1329.24 C 737.523 1336.4 749.033 1348.08 735.65 1365.54 C 731.605 1370.77 721.765 1371.08 715.11 1370.97 C 706.332 1369.07 703.387 1365.99 696.503 1360.43 C 698.662 1357.48 701.203 1354.55 703.565 1351.72 C 711.909 1362.67 722.992 1369.11 732.54 1356.04 C 741.292 1344.06 701.283 1334 699.15 1322.19 C 696.68 1308.51 704.494 1303.67 715.18 1300.26 z" fill="rgb(0,0,0)" transform="translate(0,0)"></path>
<path d="M 702.675 1209.02 C 710.382 1208.97 747.074 1208.08 751.816 1210 C 752.72 1213.04 752.336 1213.7 751.838 1216.84 C 747.628 1219.26 737.326 1218.67 731.951 1218.72 L 731.777 1265.5 C 731.847 1270.82 732.55 1280.77 730.554 1285.12 C 727.85 1285.93 725.088 1286.3 722.991 1284.26 C 721.698 1276.21 722.749 1230.31 722.812 1218.91 C 716.299 1218.78 709.462 1220.43 704.247 1218 C 701.794 1214.39 702.69 1214.37 702.675 1209.02 z" fill="rgb(0,0,0)" transform="translate(0,0)"></path>
<path d="M 1139.45 1300.79 C 1146.78 1300.73 1182.88 1299.4 1186.27 1302.72 C 1186.52 1306.06 1187.13 1306.27 1185.69 1308.53 C 1181.09 1310.04 1173.78 1309.49 1168.68 1309.43 C 1168.05 1322.33 1168.29 1337.29 1168.22 1350.34 C 1168.35 1356.78 1168.77 1363.23 1167.65 1369.55 C 1165.19 1371.37 1165.42 1370.72 1161.6 1370.63 C 1157.18 1365.73 1158.94 1318.7 1158.98 1309.3 C 1152.98 1309.19 1146.52 1310.68 1141.45 1308.54 C 1138.87 1305.6 1139.74 1305.79 1139.45 1300.79 z" fill="rgb(0,0,0)" transform="translate(0,0)"></path>
<path d="M 1018.99 1302.2 C 1021.71 1302.21 1023.41 1302.38 1026.1 1302.63 C 1028.48 1305.57 1027.14 1354.02 1027.08 1362.18 C 1033.52 1362.16 1051.05 1360.68 1055.11 1364.07 C 1055.88 1367.34 1055.66 1367.22 1054.71 1370.52 C 1042.42 1370.65 1030.13 1370.65 1017.85 1370.51 C 1019.71 1352.15 1018.5 1321.91 1018.99 1302.2 z" fill="rgb(0,0,0)" transform="translate(0,0)"></path>
<path d="M 1067.74 1302.07 C 1070.9 1301.86 1071.98 1301.93 1075.05 1302.13 C 1077.6 1305.86 1076.41 1362.22 1076.36 1371.09 C 1073.21 1371.11 1072.01 1370.98 1068.96 1370.62 C 1066.79 1367.72 1067.95 1310.98 1067.74 1302.07 z" fill="rgb(0,0,0)" transform="translate(0,0)"></path>
<path d="M 924.665 1302.51 L 932.126 1302.6 L 932.291 1370.97 C 927.924 1370.83 926.628 1371.44 923.619 1369.35 C 923.758 1359.55 923.397 1308.01 924.665 1302.51 z" fill="rgb(0,0,0)" transform="translate(0,0)"></path>
<path d="M 766.761 886.097 C 770.97 885.621 771.585 885.381 773.947 888.612 L 773.406 890.93 C 770.113 894.426 770.786 893.384 765.387 894.879 C 761.978 895.582 761.178 895.165 759.339 892.762 L 759.825 890.022 C 762.719 886.649 761.887 887.686 766.761 886.097 z" fill="rgb(55,52,53)" transform="translate(0,0)"></path>
<metadata><recraft-signature>{"signed_by": "recraft", "signature_b64": "lEyloy9tbC6JxOj0CPMbyKqTPwMqa63Z3OTu0aIDU69UB6GX9UoxMprkmq1x6f7v1p79Gdo7uCZZl5zu8Ey1Dg==", "signing_algo": "Ed25519", "generation_timestamp": 1772546383, "identifier": "c73f148b-3127-4b52-a1ed-ab84283339ed"}</recraft-signature></metadata></svg>