<svg xmlns="http://www.w3.org/2000/svg" height="1024" preserveAspectRatio="none" style="display: block;" version="1.1" viewBox="0 0 2048 2048" width="1024">
<path d="M 0 0 L 2048 0 L 2048 2048 L 0 2048 L 0 0 z" fill="rgb(250,249,248)" transform="translate(0,0)"></path>
<path d="M 813.553 569.496 L 982.899 569.155 C 984.051 662.133 948.65 742.493 856.749 778.687 C 818.276 793.839 777.552 788.024 736.971 788.836 L 736.896 1481.13 L 699.5 1481 L 528.17 1480.87 L 528.14 1478.46 L 527.864 997.615 L 527.812 880.335 C 527.692 846.495 525.862 805.932 532.472 773.544 C 542.562 725.838 565.999 681.98 600.052 647.079 C 640.625 606.179 691.924 579.35 749.292 571.513 C 767.626 569.008 794.396 569.609 813.553 569.496 z" fill="rgb(12,14,107)" transform="translate(0,0)"></path>
<path d="M 947.598 796.429 C 957.103 795.851 967.45 796.124 977.036 796.184 L 976.678 1480.98 L 798.5 1480.93 L 766.628 1480.96 L 766.812 1123.04 L 766.859 1024.5 C 766.879 999.279 765.435 972.432 770.079 947.641 C 787.203 856.218 856.358 801.74 947.598 796.429 z" fill="rgb(12,14,107)" transform="translate(0,0)"></path>
<path d="M 1007.42 569.397 C 1027.61 569.758 1050.07 568.58 1069.91 570.258 C 1204.29 581.626 1325.19 679.894 1357.88 811.744 C 1378.77 895.981 1366.03 955.828 1322.86 1029.01 C 1318.49 1036.62 1306.07 1056.67 1300.22 1062.28 C 1274.72 1086.77 1225.4 1055.65 1207.18 1037.81 C 1169.15 1000.58 1154.97 947.764 1156.98 896.573 C 1159.31 837.467 1129.79 789.72 1066.94 788.495 C 1047.44 788.13 1027.28 788.62 1007.5 788.892 C 1007.11 715.728 1007.08 642.562 1007.42 569.397 z" fill="rgb(12,14,107)" transform="translate(0,0)"></path>
<path d="M 1393.54 885.533 C 1401.55 889.926 1406.09 893.989 1415.73 898.553 C 1440 910.054 1462.59 907.433 1488.23 912.228 C 1535.36 921.043 1585.22 940.3 1623.1 969.837 C 1683.27 1015.93 1722.19 1084.44 1730.96 1159.72 C 1739.06 1225.07 1721.6 1308.96 1680.63 1361.46 C 1674.39 1362.98 1665.77 1363.38 1659.18 1363.9 C 1583.42 1366.13 1522.42 1309.08 1519.88 1234.38 C 1519.32 1218 1521.2 1199.53 1517.49 1183.81 C 1502.65 1120.96 1439.3 1120.97 1387.84 1109.87 C 1362.75 1104.15 1339.66 1094.86 1318.35 1081.73 C 1365.24 1019.26 1388.96 964.96 1393.54 885.533 z" fill="rgb(12,14,107)" transform="translate(0,0)"></path>
<path d="M 1422.61 563.431 C 1500.2 560.12 1584.94 596.06 1640.54 649.453 C 1706.72 713.012 1735.75 788.003 1737.53 878.264 C 1680.59 879.452 1620.93 878.532 1563.89 878.133 L 1522.7 878.255 C 1522.65 870.686 1522.37 863.145 1521.72 855.605 C 1515.76 787.23 1438.89 757.724 1383.97 794.589 C 1365.46 735.365 1344.16 692.877 1298.84 648.466 C 1286.35 636.232 1273.38 625.499 1261.11 613.725 C 1309.72 582.353 1365.23 566.776 1422.61 563.431 z" fill="rgb(12,14,107)" transform="translate(0,0)"></path>
<path d="M 1129.84 1199.32 L 1350.19 1199.9 C 1352.78 1217.52 1358.49 1235.18 1371.03 1248.05 C 1408.5 1286.49 1459.91 1285.07 1497.67 1251.07 C 1499.44 1282.93 1515.68 1319.22 1537.84 1341.93 C 1571.11 1376.05 1608.33 1388.93 1654.6 1390.51 C 1644.84 1402.15 1628.89 1414.29 1616.81 1423.9 C 1572.19 1456.19 1525.92 1475.32 1470.92 1482.02 C 1391.53 1491.8 1311.53 1469.35 1248.83 1419.68 C 1177.25 1363.05 1140.46 1288.75 1129.84 1199.32 z" fill="rgb(12,14,107)" transform="translate(0,0)"></path>
<path d="M 312.9 566.879 C 431.912 566.227 550.926 566.253 669.938 566.954 L 671.206 570.372 C 646.123 580.094 622.764 593.779 602.019 610.905 C 547.386 655.292 515.122 718.53 507.767 788.125 C 419.462 788.234 350.944 745.56 323.047 659.499 C 312.423 626.725 312.725 600.658 312.9 566.879 z" fill="rgb(12,14,107)" transform="translate(0,0)"></path>
<path d="M 1137.65 944.908 C 1138.59 946.086 1140.98 973.985 1142.2 979.142 C 1146.64 997.952 1154.61 1015.75 1165.7 1031.58 C 1190.99 1068.14 1224.61 1090.64 1268.44 1098.43 C 1233.51 1137.68 1177.33 1164.6 1127.23 1178.17 C 1087.88 1187.74 1044.91 1188.02 1005.02 1182.4 L 1005.12 973.97 C 1026.62 974.044 1048.28 973.95 1069.76 974.094 C 1096.4 974.273 1119.01 963.991 1137.65 944.908 z" fill="rgb(12,14,107)" transform="translate(0,0)"></path>
<path d="M 669.938 566.954 C 672.068 566.9 674.253 566.793 676.373 566.981 L 675.828 566.956 L 677.395 567.265 L 677.507 567.471 C 676.902 568.292 672.403 569.87 671.206 570.372 L 669.938 566.954 z" fill="rgb(40,40,82)" transform="translate(0,0)"></path>
<metadata><recraft-signature>{"signed_by": "recraft", "signature_b64": "IsyQ6HKPqYNeAXNPySl4QyxgtpQBmwvzDXwaPzKsXYhR9k5AcDF+F42MkrYArwSRRrZ1tsWM+u8jgK+sBIgsDA==", "signing_algo": "Ed25519", "generation_timestamp": 1772546135, "identifier": "afdcf537-869e-4c38-82b5-960631bf8447"}</recraft-signature></metadata></svg>