<svg xmlns="http://www.w3.org/2000/svg" height="1024" preserveAspectRatio="none" style="display: block;" version="1.1" viewBox="0 0 2048 2048" width="1024">
<defs>
	<linearGradient gradientUnits="userSpaceOnUse" id="Gradient1" x1="200.941" x2="202.167" y1="1185.12" y2="1173.89">
		<stop class="stop0" offset="0" stop-color="rgb(37,42,73)" stop-opacity="1"></stop>
		<stop class="stop1" offset="1" stop-color="rgb(41,58,76)" stop-opacity="1"></stop>
	</linearGradient>
	<linearGradient gradientUnits="userSpaceOnUse" id="Gradient2" x1="1819.22" x2="1826.46" y1="1100.91" y2="1098.55">
		<stop class="stop0" offset="0" stop-color="rgb(41,51,57)" stop-opacity="1"></stop>
		<stop class="stop1" offset="1" stop-color="rgb(19,38,78)" stop-opacity="1"></stop>
	</linearGradient>
</defs>
<path d="M 0 0 L 2048 0 L 2048 2048 L 0 2048 L 0 0 z" fill="rgb(36,51,78)" transform="translate(0,0)"></path>
<path d="M 1754.31 837.36 C 1774.89 834.452 1799.55 843.265 1816.46 854.519 C 1826.34 861.089 1830.21 867.873 1821.36 877.25 C 1826.82 889.813 1828.78 900.626 1830.99 914.03 C 1833.82 931.147 1853.64 951.255 1828.91 958.382 L 1829.14 967.654 C 1829.81 1000.35 1817.7 1004.73 1786.7 1004.03 C 1789.59 1018.58 1796.54 1022.47 1804.82 1034.69 C 1838.43 1084.35 1840.11 1102.03 1843.18 1160.03 C 1845.58 1153.68 1862.23 1113.18 1868.99 1112.8 C 1886.07 1111.85 1905.45 1115.68 1923.03 1116.6 C 1933.24 1117.13 1958.01 1117.46 1962.85 1126.19 C 1961.94 1134.07 1938.52 1181.74 1933.86 1191.78 C 1937.28 1194.24 1942.17 1197.3 1944.17 1200.81 C 1935.52 1214.47 1925.39 1231.16 1919.04 1245.83 C 1915.5 1247.61 1911.64 1249.17 1907.99 1250.75 C 1908.78 1254.05 1909.76 1259.82 1908.75 1263.22 C 1906.29 1271.54 1898.24 1291.3 1890.24 1294.96 C 1886.72 1296.57 1869.13 1291.22 1864.66 1290.02 C 1879.23 1356.39 1898.75 1423.13 1903.43 1491.23 C 1904.66 1509.09 1906.17 1557.46 1894.88 1571.53 C 1891.03 1576.33 1870.91 1575.19 1863.79 1575.19 C 1864.49 1509.66 1855 1455.5 1843.38 1391.08 C 1839.79 1401.2 1837.35 1409.18 1828.13 1415.59 C 1828.02 1429.04 1825.57 1452.68 1827.47 1464.78 C 1828.56 1471.72 1835.59 1491.61 1837.93 1500.17 C 1844.03 1521.61 1846.37 1543.41 1849.92 1565.23 C 1855.63 1600.33 1853.88 1633.87 1855.05 1669.14 C 1855.85 1688.2 1857.38 1707.23 1859.65 1726.17 C 1862.95 1755.42 1868.13 1784.43 1875.17 1813.01 C 1878.26 1825.9 1882.17 1839.21 1885.59 1852.07 C 1886.4 1855.11 1885.14 1855.88 1883.48 1858.25 C 1883.76 1861.61 1888.03 1864.14 1890.31 1866.61 C 1909.78 1887.67 1936.55 1884.68 1961.41 1892.09 C 1963.9 1892.83 1965 1897.98 1964.1 1900.91 C 1954.44 1913.69 1901.6 1917.88 1885.68 1916.65 C 1881.24 1916.31 1867.53 1910.58 1862.47 1908.55 C 1861.81 1912.32 1861.12 1916.09 1860.4 1919.86 C 1852.03 1920.02 1834.66 1921.75 1827.73 1916.94 C 1824.98 1915.03 1824.79 1911.43 1824.27 1908.15 L 1823.12 1892.12 C 1816.3 1888.5 1813.67 1882.58 1810.28 1875.89 C 1792.81 1841.38 1774.1 1806.63 1765.95 1768.5 C 1759.07 1736.35 1760.25 1704.25 1756.4 1671.9 C 1753.92 1651.11 1747.23 1630.04 1740.79 1610.27 L 1730.1 1609.33 C 1697.64 1644.28 1646.15 1714.97 1622.29 1755.73 C 1615.71 1766.96 1609.54 1778.43 1603.78 1790.1 C 1598.81 1800.39 1596.85 1810.93 1589.27 1819.3 C 1589.3 1847.39 1609.27 1846.4 1630.1 1853.52 C 1639.5 1856.73 1651.69 1862.67 1644.75 1874.46 C 1639.4 1881.49 1623.35 1881.31 1615.42 1881.44 C 1595.24 1881.77 1565.42 1882.91 1551.98 1864.96 C 1546.78 1858.03 1544.51 1842.71 1537.67 1838.65 C 1535.53 1839.57 1535.37 1839.79 1533.57 1841.26 C 1527.73 1839.04 1514.55 1822.22 1510.99 1816.58 C 1516.17 1806.38 1522.72 1798.04 1530.02 1789.32 C 1542.17 1735.35 1555.41 1688.28 1580.26 1638.42 C 1590.22 1618.42 1601.09 1600.65 1612.19 1581.35 C 1604.43 1578.28 1597.66 1575.6 1590.17 1571.98 C 1573.28 1497.07 1591.38 1365.12 1619.66 1294.54 C 1611.38 1274.36 1604.66 1241.67 1607.13 1217.84 C 1612.24 1168.71 1617.23 1086.46 1642.85 1044.98 C 1648.04 1036.58 1682.03 1011.84 1691.31 1003.08 L 1692.47 1001.97 C 1696.71 988.28 1702.84 973.305 1714.6 964.296 C 1701.8 947.994 1690.22 935.173 1687.19 913.601 C 1684.67 895.668 1689.47 878.868 1700.65 864.676 C 1714.84 846.654 1732.33 840.209 1754.31 837.36 z" fill="rgb(251,209,121)" transform="translate(0,0)"></path>
<path d="M 1698.98 1007.88 C 1702.69 1011.31 1707.56 1018.64 1710.98 1022.76 C 1736.35 1053.32 1752.62 1085.59 1768.94 1121.58 C 1786.42 1160.13 1803.62 1189.9 1807.67 1232.94 C 1819.42 1243.01 1820.05 1275.74 1820.35 1291.09 C 1821.77 1365.34 1818.44 1439.61 1814.79 1513.81 C 1813.59 1538.19 1814.5 1568.65 1809.37 1592.74 C 1801.41 1605.47 1757.3 1600.98 1744.72 1601.01 C 1687.83 1601.14 1649.67 1587.89 1598.39 1565.71 C 1585.14 1495.7 1599.61 1373.65 1623.77 1307.08 C 1627.23 1312.97 1630.15 1319.19 1633.32 1325.25 C 1651.84 1360.63 1677.2 1389.06 1710.6 1411.06 C 1720.11 1405.48 1731.94 1393.18 1739.94 1385.08 C 1737.34 1392.64 1735.08 1398.07 1731.83 1405.4 C 1728.13 1413.56 1714.94 1429.03 1720.3 1435.66 C 1722.34 1435.54 1722.72 1435.83 1724.52 1433.86 C 1748.51 1407.54 1753.48 1364.32 1755.9 1331.51 C 1749.94 1325 1740.66 1309.58 1735.34 1301.64 C 1725.97 1287.53 1715.5 1274.17 1704.03 1261.71 C 1705.62 1258.74 1707.12 1255.72 1708.52 1252.65 C 1713.46 1241.69 1718.86 1226.31 1720.63 1214.38 C 1724.84 1186.05 1721.74 1135.99 1711.93 1110.03 C 1707.8 1144.77 1717.34 1180.82 1711.22 1215.52 C 1708.19 1232.73 1699.8 1249.2 1692.13 1264.72 C 1694.06 1266.3 1695.98 1267.88 1697.82 1269.57 C 1707.35 1278.3 1746.36 1330.28 1746.47 1340.64 C 1746.47 1341.07 1746.44 1341.51 1746.44 1341.94 C 1746.39 1351.65 1743.93 1361.52 1742.15 1371.04 C 1731.72 1382.43 1722.77 1390.35 1711.08 1400.11 C 1671.69 1373.81 1639.84 1327.35 1625.22 1282.74 C 1620.09 1267.54 1617.18 1251.69 1616.58 1235.67 C 1614.75 1185.18 1628.38 1108.14 1645.04 1059.88 C 1653.82 1034.45 1686.72 1044.37 1704.77 1053.91 C 1693.75 1037.7 1687.36 1035.41 1668.35 1034.99 C 1679.19 1025.83 1688.65 1017.58 1698.98 1007.88 z" fill="rgb(36,51,78)" transform="translate(0,0)"></path>
<path d="M 1825.33 1492.74 C 1827.54 1494.91 1830.46 1507.56 1831.33 1511.22 C 1840.08 1547.77 1843.44 1585.23 1844.6 1622.72 C 1845.1 1638.74 1844.6 1654.8 1845.42 1670.85 C 1846.5 1691.74 1848.35 1712.59 1850.94 1733.36 C 1853.88 1755.58 1857.86 1779.13 1862.78 1800.97 C 1866.74 1818.56 1872.04 1835.94 1875.93 1853.62 C 1859.88 1866.69 1844.23 1877.08 1823.92 1881.96 L 1817.08 1869.22 C 1798.65 1835.58 1779.23 1793.79 1772.88 1756.13 C 1767.89 1726.56 1768.94 1694.08 1764.95 1664.27 C 1762.74 1647.76 1755.93 1627.26 1750.96 1611.03 C 1814.1 1612.04 1824.15 1614.69 1822.93 1546.17 C 1822.66 1530.96 1824.89 1509.07 1825.33 1492.74 z" fill="rgb(36,51,78)" transform="translate(0,0)"></path>
<path d="M 1621.63 1584.71 C 1647.7 1600.51 1689.31 1606.17 1719.39 1608.59 C 1676.6 1654.64 1629.03 1720.88 1600.25 1776.61 C 1593.58 1789.16 1590.13 1797.39 1585.37 1810.82 C 1582 1811.26 1578.62 1811.72 1575.25 1812.2 C 1560.53 1805.1 1550.13 1798.47 1539.24 1786.04 C 1542.49 1770.1 1548.09 1752.72 1552.61 1737.06 C 1569.03 1680.12 1590.15 1634.74 1621.63 1584.71 z" fill="rgb(36,51,78)" transform="translate(0,0)"></path>
<path d="M 1871.33 1120.56 C 1898.87 1123.88 1926.5 1126.38 1954.2 1128.04 C 1944.47 1147.24 1935.29 1166.71 1926.67 1186.43 C 1924.09 1186.05 1922.05 1185.47 1919.61 1186.24 C 1920.13 1191.23 1931.36 1199.1 1935.5 1201.7 C 1929.32 1207.7 1927.39 1215.22 1922.01 1218.82 C 1918.01 1219.86 1919.12 1218.74 1917.25 1221.27 L 1917.26 1222.34 C 1917.25 1226.46 1917.47 1231.25 1914.5 1234.24 L 1912.68 1233.97 C 1912.21 1233.35 1910.44 1231.06 1910.21 1230.38 C 1906.69 1219.91 1885.23 1192.63 1900.6 1184.56 C 1905.34 1184.71 1914.22 1187.95 1919.18 1189.54 C 1911.94 1182.36 1902.59 1170.99 1892.23 1182.15 C 1886.11 1188.73 1889.93 1200.38 1888.86 1202.66 C 1886.44 1203.3 1881.09 1204.33 1880.46 1206.95 C 1878.33 1215.89 1887.81 1230.52 1891.79 1238.33 C 1882.43 1244.72 1879.59 1249.16 1875.84 1259.64 L 1859.44 1258.88 C 1854.91 1238.36 1844.72 1199.81 1842.37 1180.92 C 1851.9 1159.53 1859.9 1141.02 1871.33 1120.56 z" fill="rgb(36,51,78)" transform="translate(0,0)"></path>
<path d="M 1917.25 1221.27 C 1917.07 1215.95 1916.87 1212.03 1915.55 1206.78 C 1914.1 1200.97 1910.19 1195.26 1910.09 1189.58 L 1912.48 1189.02 C 1921.21 1194.43 1915.62 1211.31 1922.01 1218.82 C 1918.01 1219.86 1919.12 1218.74 1917.25 1221.27 z" fill="rgb(251,209,121)" transform="translate(0,0)"></path>
<path d="M 1799.48 1057.5 C 1805.96 1064.25 1818.78 1124.91 1821.56 1137.09 L 1859.24 1308.99 C 1874 1377.98 1908.26 1493.01 1890.31 1561.55 L 1888.07 1564.1 C 1883.07 1566.25 1878.96 1566.05 1873.5 1566.35 C 1872.72 1547.56 1873.57 1530.51 1871.66 1511.45 C 1867.18 1466.47 1856.56 1422.06 1850.38 1377.49 C 1844.25 1333.23 1846.01 1286.62 1833.84 1243.09 C 1824.65 1209.14 1821.35 1175.15 1815.97 1140.48 C 1811.62 1112.52 1804.18 1085.21 1799.48 1057.5 z" fill="rgb(36,51,78)" transform="translate(0,0)"></path>
<path d="M 1774.56 875.88 C 1790.37 880.127 1795.3 881.648 1811.61 879.602 C 1820.45 892.499 1819.71 902.656 1823.5 916.972 C 1826.25 927.404 1830.97 936.358 1832.83 947.374 L 1820.94 952.351 C 1820.32 962.307 1823.88 982.535 1817.18 989.527 C 1806.71 1000.46 1773.99 976.444 1767.22 968.598 C 1767.09 961.071 1767.7 948.929 1764.73 942.463 C 1762.39 937.371 1758.5 936.779 1753.36 934.99 C 1752.22 930.701 1752.17 929.381 1749.64 925.894 L 1749.23 922.975 C 1751.79 922.944 1754.46 925.824 1756.8 927.894 C 1757.66 929.101 1762.99 933.944 1764.39 935.264 C 1778.47 917.624 1783.45 897.124 1774.56 875.88 z" fill="rgb(36,51,78)" transform="translate(0,0)"></path>
<path d="M 1755.9 848.385 C 1759.56 847.989 1763.23 847.856 1766.9 847.988 C 1776.95 848.293 1817.81 857.687 1816.71 869.669 C 1806.69 879.779 1777.95 867.87 1769.38 869.54 C 1764.61 878.942 1772.83 882.798 1773.36 889.607 C 1774.04 898.309 1769.03 915.803 1766.28 924.096 C 1761.19 906.57 1753.73 901.706 1735.61 906.089 C 1715.56 915.237 1723.87 941.828 1725.3 959.524 C 1713.29 947.453 1698.92 930.977 1697.3 913.421 C 1693.6 873.547 1720.62 852.74 1755.9 848.385 z" fill="rgb(36,51,78)" transform="translate(0,0)"></path>
<path d="M 1712.24 980.529 C 1729.61 987.899 1754.81 1033.13 1769.84 1046.33 C 1773.49 1059.26 1792.2 1134.01 1789.41 1142.12 L 1787.7 1139.71 C 1761.43 1080.12 1742.75 1048.78 1703.31 998.225 C 1705.99 990.238 1707.69 987.21 1712.24 980.529 z" fill="rgb(36,51,78)" transform="translate(0,0)"></path>
<path d="M 1521.31 1815.23 C 1525.58 1808.45 1531.14 1800.96 1535.81 1794.33 C 1537.73 1798.95 1538.14 1800.7 1541.28 1804.43 C 1544.89 1806.1 1543.06 1805.87 1546.99 1805.12 L 1549.6 1803.73 C 1552.43 1805.52 1551.38 1804.68 1553.15 1807.97 C 1561.39 1815.7 1569.86 1818.44 1580.65 1820.38 C 1581.56 1824.8 1583.63 1832.83 1583.91 1837.01 C 1585.54 1860.93 1630.73 1855.05 1637.27 1868.45 C 1632.73 1873.51 1598.49 1872.61 1590.97 1872.11 C 1564.11 1870.33 1556.72 1860.98 1549.52 1836.82 C 1548.22 1836.59 1546.63 1834.74 1545.41 1833.65 L 1544.4 1833.49 C 1541.13 1831.53 1540.96 1830.05 1539.6 1826.71 C 1532.78 1822.66 1534.64 1835.99 1521.31 1815.23 z" fill="rgb(36,51,78)" transform="translate(0,0)"></path>
<path d="M 1521.31 1815.23 C 1525.58 1808.45 1531.14 1800.96 1535.81 1794.33 C 1537.73 1798.95 1538.14 1800.7 1541.28 1804.43 C 1544.89 1806.1 1543.06 1805.87 1546.99 1805.12 C 1549.36 1813.74 1547.33 1824.97 1545.41 1833.65 L 1544.4 1833.49 C 1541.13 1831.53 1540.96 1830.05 1539.6 1826.71 C 1532.78 1822.66 1534.64 1835.99 1521.31 1815.23 z" fill="rgb(36,51,78)" transform="translate(0,0)"></path>
<path d="M 1546.99 1805.12 L 1549.6 1803.73 C 1552.43 1805.52 1551.38 1804.68 1553.15 1807.97 C 1553.15 1819.85 1551.83 1825.22 1549.52 1836.82 C 1548.22 1836.59 1546.63 1834.74 1545.41 1833.65 C 1547.33 1824.97 1549.36 1813.74 1546.99 1805.12 z" fill="rgb(251,209,121)" transform="translate(0,0)"></path>
<path d="M 1736.82 915.952 L 1737.41 916.581 C 1733.52 925.99 1733.43 941.752 1747.34 940.68 L 1749 940.535 C 1762.59 939.486 1760.34 958.07 1760.45 967.566 C 1741.56 982.445 1760.24 994.823 1774.67 1002.32 C 1777.23 1011.5 1780.34 1016.35 1784.75 1024.55 L 1783.73 1025.8 C 1767.23 1026.24 1765.1 1021.35 1754.09 1009.15 C 1750.91 1005.62 1747.73 1001.78 1744.58 998.208 C 1737.82 990.648 1730.91 983.228 1723.84 975.951 C 1740.92 955.371 1718.49 931.306 1736.82 915.952 z" fill="rgb(36,51,78)" transform="translate(0,0)"></path>
<path d="M 1852.13 1881.73 C 1860.71 1876.85 1869.89 1871.88 1877.98 1866.32 C 1902.17 1895.5 1920.25 1893.05 1955.71 1898.5 C 1945.66 1901.86 1936.92 1902.72 1926.65 1904.31 C 1906.96 1907.34 1888.16 1910.29 1868.88 1903.29 C 1864.88 1901.84 1860.93 1901.62 1858.34 1897.95 C 1858.03 1892.23 1854.75 1886.89 1852.13 1881.73 z" fill="rgb(36,51,78)" transform="translate(0,0)"></path>
<path d="M 1831.06 1280.68 C 1834.3 1291.71 1838.22 1355.65 1838.58 1371.32 C 1838.68 1375.73 1832.85 1394.1 1831.14 1399.38 C 1830.7 1400.12 1829.46 1401.61 1828.88 1402.35 C 1828.76 1402.08 1830.46 1288.75 1831.06 1280.68 z" fill="rgb(36,51,78)" transform="translate(0,0)"></path>
<path d="M 1848.33 1883.4 C 1850.8 1882.73 1850.01 1883.06 1852.13 1881.73 C 1854.75 1886.89 1858.03 1892.23 1858.34 1897.95 L 1856.91 1900.59 C 1855.89 1915.75 1845.57 1911.5 1833.26 1910.84 C 1832 1902.44 1832.02 1897.51 1832 1888.92 C 1837.61 1886.88 1842.58 1885.05 1848.33 1883.4 z" fill="rgb(36,51,78)" transform="translate(0,0)"></path>
<path d="M 1848.33 1883.4 C 1850.8 1882.73 1850.01 1883.06 1852.13 1881.73 C 1854.75 1886.89 1858.03 1892.23 1858.34 1897.95 L 1856.91 1900.59 C 1854.36 1893.65 1852.25 1889.53 1848.33 1883.4 z" fill="rgb(251,209,121)" transform="translate(0,0)"></path>
<path d="M 1898.59 1255.76 C 1905.97 1263.03 1891 1280.54 1885.67 1286.15 C 1879.34 1285.22 1871.57 1283.06 1865.23 1281.48 L 1863.37 1280.34 C 1861.31 1276.41 1861.08 1271.57 1860.48 1267.05 C 1870.99 1266.72 1878.6 1267.69 1889.03 1269.06 C 1892.1 1265.63 1895.88 1259.72 1898.59 1255.76 z" fill="rgb(36,51,78)" transform="translate(0,0)"></path>
<path d="M 1809.63 1059.66 C 1827.71 1077.4 1831.3 1114.9 1832.03 1138.39 C 1829.29 1133.73 1827.25 1123.46 1825.82 1117.7 C 1820.97 1098.18 1815.15 1078.99 1809.63 1059.66 z" fill="url(#Gradient2)" transform="translate(0,0)"></path>
<path d="M 1887.4 1208.63 C 1896.32 1212.28 1908.57 1235.69 1907.74 1243.62 C 1906.5 1243.74 1902.97 1244.12 1902.13 1243.64 C 1896.95 1240.69 1886.23 1213.64 1887.4 1208.63 z" fill="rgb(36,51,78)" transform="translate(0,0)"></path>
<path d="M 1760.18 974.343 C 1764.15 976.079 1792.04 993.516 1794.26 995.809 C 1781.12 996.508 1760.33 990.036 1760.18 974.343 z" fill="rgb(36,51,78)" transform="translate(0,0)"></path>
<path d="M 1744.52 917.78 L 1745.25 915.357 C 1751.34 915.261 1755.13 920.306 1758.09 925.058 C 1757.43 927.269 1757.92 926.354 1756.8 927.894 C 1754.46 925.824 1751.79 922.944 1749.23 922.975 L 1749.64 925.894 L 1744.19 925.529 C 1744.4 922.911 1744.45 920.4 1744.52 917.78 z" fill="rgb(209,173,94)" transform="translate(0,0)"></path>
<path d="M 1744.52 917.78 C 1744.45 920.4 1744.4 922.911 1744.19 925.529 C 1743.81 929.471 1744.6 930.269 1746.44 933.534 L 1745.27 934.049 C 1736.31 930.041 1739.01 923.471 1744.52 917.78 z" fill="rgb(36,51,78)" transform="translate(0,0)"></path>
<path d="M 1791.56 1034.45 C 1796.61 1036.92 1797.76 1042.37 1799.26 1047.43 C 1793.32 1045.04 1792.3 1040.22 1791.56 1034.45 z" fill="rgb(36,51,78)" transform="translate(0,0)"></path>
<path d="M 226.513 153.031 C 252.706 163.192 279.01 171.935 305.6 180.982 C 302.178 189.68 300.22 190.454 295.683 198.18 C 293.534 201.839 294.555 211.116 290.438 215.762 C 285.923 217.349 284.886 215.206 280.864 216.035 C 279.514 222.218 280.023 244.616 280.051 252.099 L 280.312 321.253 C 280.317 326.612 280.82 341.373 279.082 345.721 L 275.641 346.505 C 278.796 347.222 285.52 348.924 288.576 348.902 C 291.529 353.663 290.404 376.591 289.373 382.047 C 297.187 382.986 307.091 385.921 314.81 387.963 C 342.13 395.189 369.935 401.662 397.072 409.474 C 413.443 403.349 422.363 402.619 436.574 398.287 C 453.147 404.968 471.767 408.306 488.265 414.567 C 495.966 427.291 502.233 432.701 512.641 443.071 C 508.753 447.363 507.054 449.305 502.368 452.949 C 502.384 478.386 502.743 504.72 502.262 530.105 C 513.44 532.662 556.881 541.869 565.084 545.189 C 566.32 547.732 565.862 549.572 565.649 552.423 C 560.826 557.749 535.635 566.907 532.633 571.828 L 532.988 572.946 C 536.654 584.877 526.402 586.004 517.18 588.841 C 515.787 593.714 512.64 607.132 509.181 610.656 C 508.584 611.264 504.215 612.308 503.032 612.589 C 501.049 618.446 503.748 644.514 504.768 651.491 C 504.074 652.625 503.38 653.759 502.685 654.893 C 502.315 677.172 503.469 708.39 502.676 729.659 L 499.947 728.874 C 494.668 727.612 492.537 727.022 487.047 726.774 C 487.257 742.965 488.815 758.988 489.159 775.211 C 489.658 798.782 489.141 822.4 488.83 845.983 L 499.664 846.578 L 502.224 846.652 C 502.895 885.184 502.064 926.28 502.052 965.09 L 501.998 1213.01 C 507.431 1215.58 513.475 1217.15 513.962 1223.46 C 514.1 1225.25 517.945 1225.79 519.512 1226.24 C 523.602 1230.63 521.979 1296.47 521.962 1307.75 C 545.93 1304.49 572.915 1302.27 597.221 1299.61 L 803.915 1278.15 L 933.783 1264.44 C 952.442 1262.54 974.591 1259.19 992.864 1258.49 C 990.899 1258.23 948.694 1264.5 942.767 1265.23 L 816.105 1279.61 L 276.323 1336.8 L 149.324 1350.08 C 138.636 1351.21 80.9194 1358.66 75.9789 1356.13 C 78.7238 1353.9 81.7513 1354.07 85.4049 1353.66 C 84.9094 1317.93 85.5707 1281.68 85.3464 1245.85 C 80.6719 1245.82 71.669 1246.59 68.8809 1242.58 C 76.6458 1237.39 136.328 1242.73 146.061 1238.53 L 146.44 1237.14 C 139.5 1232.14 86.0605 1235.24 70.2613 1233.04 L 70.6177 1232.53 C 85.2032 1231.43 99.9968 1232.04 114.651 1231.87 C 124.316 1231.75 144.57 1229.49 150.08 1238.97 C 145.207 1245.57 97.0404 1240.3 88.5749 1243.1 L 87.8886 1245.44 L 89.0426 1247 C 92.9524 1248.28 152.939 1247.85 161.404 1247.97 C 162.894 1278.48 161.224 1314.03 161.75 1345.32 L 296.471 1331.08 C 329.34 1327.57 364.418 1323.25 397.174 1320.75 C 396.74 1290.31 396.745 1255.76 397.559 1225.47 C 405.261 1224.81 451.143 1223.97 453.991 1221.79 L 453.28 1219.88 C 448.002 1216.91 409.8 1220.76 402.221 1222.42 C 408.45 1216.43 413.727 1211.74 420.939 1207.01 C 421.696 1162.36 421.014 1115.59 421.015 1070.73 L 421.07 803.513 C 421.083 789.064 422.402 652.547 420.511 647.367 L 416.326 645.782 L 416.631 644.438 L 420.935 643.441 C 423.029 640.431 422.117 626.386 422.049 622.16 C 385.121 616.659 347.542 609.046 310.709 602.371 C 252.657 592.05 194.749 580.932 137.003 569.021 C 136.962 574.093 137.064 575.653 136.001 580.51 L 136.251 582.278 C 137.528 588.586 137.018 614.026 137.012 621.936 L 136.923 703.762 L 135.987 1218.46 C 135.966 1221.81 135.16 1224.49 137.014 1225.9 L 141.72 1226.6 L 142.003 1228.01 C 138.956 1228.91 136.203 1228.36 132.993 1228.08 C 124.822 1228.44 73.4474 1228.96 70.0498 1225.79 L 70.8758 1223.76 L 70.2417 1220.06 L 70.5637 1218.68 C 74.7744 1217.5 84.5061 1217.93 89.3949 1217.96 L 89.2099 536.272 C 106.784 539.572 125.16 543.909 142.755 546.471 C 149.183 542.379 153.387 538.195 158.527 532.713 C 148.7 529.585 91.6244 520.207 89.0121 516.565 L 89.9895 515.604 C 99.8693 516.726 158.247 527.349 161.211 533.482 C 158.671 547.517 136.666 543.662 137.067 565.443 C 212.575 582.495 290.049 593.954 365.96 609.152 C 384.179 612.8 403.415 616.402 421.827 618.649 L 424.998 618.976 C 425.986 619.121 427.144 619.027 428.178 619.007 C 430.633 614.12 428.902 583.346 428.196 576.593 C 434.82 575.012 442.48 572.468 449.094 570.443 C 448.223 562.679 450.29 547.149 444.968 542.64 C 439.638 541.033 435.925 543.444 430.947 545.774 C 395.368 538.287 93.6843 480.34 89.0003 474.408 L 89.2909 472.576 C 91.6493 471.887 92.1496 472.045 94.4811 472.539 L 274.435 511.282 C 303.1 516.973 331.798 522.498 360.528 527.856 C 381.812 532.031 402.867 536.444 424.027 541.196 C 431.955 542.976 436.371 537.838 448.411 540 C 480.805 545.819 513.35 553.223 545.515 560.156 C 550.504 557.262 560.401 554.513 561.774 549.277 C 560.328 547.584 558.406 546.365 556.211 545.887 C 520.776 538.175 485.593 528.469 450.211 520.663 L 170.653 461.192 C 158.073 458.434 94.536 446.457 87.9193 442.76 L 88.9778 441.685 C 94.0837 440.783 111.104 445.233 117.198 446.576 L 117.628 355.182 C 109.855 353.876 91.2558 351.456 85.3758 347.79 L 85.5261 346.769 C 94.648 346.791 120.879 353.532 124.271 352.57 C 129.57 344.592 119.064 337.613 116.258 330.709 C 115.426 328.663 115.187 320.774 115.08 318.226 C 108.153 316.015 86.2268 310.549 84.1159 303.692 C 88.6908 302.929 97.0211 307.709 100.179 308.925 C 115.025 314.64 121.118 314.464 119.568 331.656 C 119.111 336.73 139.668 342.123 145.997 343.97 L 146.058 214.93 C 141.021 216.005 136.969 217.708 133.395 213.384 C 132.572 201.323 131.815 201.629 122.434 195.849 C 121.207 195.093 116.553 185.004 115.483 182.763 C 148.041 172.41 192.667 162.128 226.513 153.031 z" fill="rgb(251,209,121)" transform="translate(0,0)"></path>
<path d="M 462.143 645.707 C 475.15 647.297 487.102 649.529 499.994 651.9 C 499.827 677.558 499.812 703.216 499.947 728.874 C 494.668 727.612 492.537 727.022 487.047 726.774 C 487.257 742.965 488.815 758.988 489.159 775.211 C 489.658 798.782 489.141 822.4 488.83 845.983 L 499.664 846.578 C 498.693 889.776 499.44 935.876 499.446 979.277 L 499.87 1205.36 C 487.416 1204.96 474.151 1205.07 461.629 1204.96 C 461.22 1186.38 461.147 1167.47 461.247 1148.9 C 462.153 981.333 459.832 813.217 462.143 645.707 z" fill="rgb(36,51,78)" transform="translate(0,0)"></path>
<path d="M 228.004 337.026 C 244.325 340.332 270.907 350.348 286.182 351.968 L 288.576 348.902 C 291.529 353.663 290.404 376.591 289.373 382.047 L 286.966 381.071 C 267.282 376.038 247.658 370.776 228.097 365.284 L 228.004 337.026 z" fill="rgb(36,51,78)" transform="translate(0,0)"></path>
<path d="M 288.576 348.902 C 291.529 353.663 290.404 376.591 289.373 382.047 L 286.966 381.071 C 286.978 374.446 287.58 357.341 286.182 351.968 L 288.576 348.902 z" fill="rgb(251,209,121)" transform="translate(0,0)"></path>
<path d="M 70.2417 1220.06 C 79.6191 1221.27 129.303 1218.84 133.086 1221.94 C 134.689 1225.69 134.505 1223.72 132.993 1228.08 C 124.822 1228.44 73.4474 1228.96 70.0498 1225.79 L 70.8758 1223.76 L 70.2417 1220.06 z" fill="rgb(37,50,68)" transform="translate(0,0)"></path>
<path d="M 133.086 1221.94 C 134.689 1225.69 134.505 1223.72 132.993 1228.08 C 124.822 1228.44 73.4474 1228.96 70.0498 1225.79 L 70.8758 1223.76 C 79.1807 1224.17 127.02 1225.38 131.959 1224.34 L 133.086 1221.94 z" fill="rgb(209,173,94)" transform="translate(0,0)"></path>
<path d="M 275.641 346.505 C 259.088 342.219 240.327 335.017 223.154 334.782 C 213.864 334.655 167.912 352.373 163.555 347.484 C 185.322 342.233 206.426 336.061 228.326 330.978 C 240.013 334.36 269.975 341.829 279.082 345.721 L 275.641 346.505 z" fill="rgb(37,50,68)" transform="translate(0,0)"></path>
<path d="M 136.251 582.278 C 126.949 581.449 105.639 577.572 96.6113 575.349 L 96.3509 574.416 L 94.9142 574.366 L 95.5735 574.933 C 98.5995 573.565 130.32 579.546 136.001 580.51 L 136.251 582.278 z" fill="rgb(103,93,59)" transform="translate(0,0)"></path>
<path d="M 92.0889 577.866 C 100.8 578.281 124.082 582.94 133.373 584.636 C 133.996 659.584 134.081 734.535 133.628 809.484 L 133.051 1216.73 C 130.715 1218.85 97.5108 1218 92.1189 1217.98 L 92.0889 577.866 z" fill="rgb(36,51,78)" transform="translate(0,0)"></path>
<path d="M 120.828 369.369 C 216.016 394.554 311.492 418.637 407.237 441.615 C 407.075 464.166 407.168 486.717 407.518 509.266 C 402.144 509.944 353.416 497.858 343.284 495.623 L 232.473 471.545 C 195.621 463.25 158.045 454.083 120.923 447.274 L 120.828 369.369 z" fill="rgb(36,51,78)" transform="translate(0,0)"></path>
<path d="M 438.358 645.446 C 444.875 644.786 451.593 645.435 458.057 646.159 L 458.088 1205.06 C 453.877 1204.69 449.394 1204.56 445.151 1204.36 L 424.673 1204.41 C 425.924 1145.48 424.237 1079.9 424.211 1020.18 L 424.783 646.113 L 438.358 645.446 z" fill="rgb(36,51,78)" transform="translate(0,0)"></path>
<path d="M 219.543 200.273 C 222.56 199.641 221.202 199.354 223.774 200.506 C 224.691 207.482 224.09 233.773 224.076 241.926 C 223.918 271.023 223.943 300.122 224.148 329.22 C 201.029 334.198 178.923 341.096 155.713 346.084 C 153.715 345.556 152.278 345.099 150.323 344.463 C 148.608 341.471 149.197 225.461 149.144 214.553 C 169.851 209.392 198.22 204.495 219.543 200.273 z" fill="rgb(36,51,78)" transform="translate(0,0)"></path>
<path d="M 129.105 341.852 C 139.838 346.408 168.213 351.736 182.466 356.085 C 258.286 379.22 337.601 395.056 413.167 418.631 C 412.962 423.761 412.812 425.812 413.464 430.822 L 414.669 431.627 C 416.269 429.331 415.703 429.049 415.808 425.702 C 418.069 422.94 436.023 415.6 438.086 415.901 C 453.364 418.128 506.481 425.832 507.634 445.697 C 506.872 446.305 503.139 449.148 502.321 448.961 C 479.715 443.793 456.069 437.434 433.695 431.646 C 424.897 433.901 419.165 435.807 410.597 438.932 C 340.877 422.251 271.324 404.877 201.949 386.813 C 191.097 384.062 128.738 368.973 121.5 365.291 C 120.001 359.472 127.863 350.652 129.105 341.852 z" fill="rgb(36,51,78)" transform="translate(0,0)"></path>
<path d="M 88.1039 1250.26 L 158.453 1250.89 C 158.785 1260.77 159.087 1342.29 156.991 1345.64 L 152.426 1346.3 C 131.332 1348.83 110.075 1350.7 88.852 1353.26 C 87.6349 1320.11 88.2319 1283.75 88.1039 1250.26 z" fill="rgb(36,51,78)" transform="translate(0,0)"></path>
<path d="M 227.437 199.71 C 243.872 204.386 260.264 209.211 276.612 214.183 C 278.188 253.048 276.718 301.326 276.631 340.848 C 260.166 337.102 244.349 331.413 227.518 328.045 C 226.951 285.54 227.528 242.304 227.437 199.71 z" fill="rgb(36,51,78)" transform="translate(0,0)"></path>
<path d="M 456.213 1225.99 C 475.282 1225.9 498.651 1228.02 519.013 1228.23 C 519.025 1237.63 520.315 1303.95 518.415 1307.69 L 514.67 1308.7 C 497.996 1309.34 474.224 1312.87 456.639 1314.38 L 456.213 1225.99 z" fill="rgb(36,51,78)" transform="translate(0,0)"></path>
<path d="M 436.945 435.937 C 457.585 441.394 478.267 446.69 498.99 451.824 L 499.035 529.029 C 480.166 523.463 456.649 518.615 437.143 514.26 L 436.945 435.937 z" fill="rgb(36,51,78)" transform="translate(0,0)"></path>
<path d="M 435.216 1226.42 C 439.186 1225.9 448.524 1225.91 452.95 1225.82 L 452.946 1314.78 C 442.163 1315.62 430.589 1316.98 419.763 1318.06 L 400.931 1320.34 L 400.918 1228.28 C 411.909 1228.12 424.157 1227.1 435.216 1226.42 z" fill="rgb(36,51,78)" transform="translate(0,0)"></path>
<path d="M 223.201 157.114 L 223.842 157.184 C 226.525 159.947 225.724 167.112 222.803 170.111 C 219.922 170.578 219.231 170.629 216.412 171.629 L 215.951 174.087 L 217.028 174.886 C 219.659 174.338 221.553 173.537 223.85 174.683 C 225.351 179.722 224.596 190.539 224.449 196.321 C 196.33 200.106 167.856 209.325 139.523 212.19 C 138.098 212.334 136.737 211.513 135.615 210.784 C 135.552 209.885 135.483 208.987 135.407 208.09 C 134.668 199.419 134.133 200.52 127.152 194.586 C 122.353 190.507 122.525 189.902 119.673 184.255 C 154.061 175.534 189.24 167.439 223.201 157.114 z" fill="rgb(36,51,78)" transform="translate(0,0)"></path>
<path d="M 451.019 543.491 C 481.558 548.796 512.797 557.61 543.867 562.9 C 539.288 564.69 527.436 567.062 526.224 571.382 L 528.008 571.852 C 530.9 574.871 531.588 575.871 530.565 579.675 C 527.197 582.884 522.539 583.995 518.015 585.595 C 495.757 580.948 474.165 574.72 451.654 570.413 C 451.013 561.94 451.125 552.083 451.019 543.491 z" fill="rgb(36,51,78)" transform="translate(0,0)"></path>
<path d="M 429.379 436.194 C 431.594 435.93 431.132 436.038 433.412 436.39 C 435.442 443.512 433.911 503.215 433.839 514.846 L 421.279 512.753 C 417.923 512.122 414.248 511.222 410.881 510.477 L 410.829 441.954 C 418.12 438.842 421.729 437.792 429.379 436.194 z" fill="rgb(36,51,78)" transform="translate(0,0)"></path>
<path d="M 227.828 173.521 C 250.84 179.552 272.268 187.187 294.87 193.308 C 290.638 199.423 290.818 201.776 289.731 209.018 C 289.573 210.303 289.062 210.905 288.419 212.17 C 282.71 213.801 237.004 199.1 227.711 196.365 L 227.828 173.521 z" fill="rgb(36,51,78)" transform="translate(0,0)"></path>
<path d="M 452.609 574.166 C 470.792 577.038 495.55 583.825 513.844 588.377 L 508.987 605.403 C 507.712 607.468 508.25 606.785 506.326 608.329 C 498.384 609.15 466.544 600.219 458.501 595.445 C 453.878 592.701 453.225 579.769 452.609 574.166 z" fill="rgb(36,51,78)" transform="translate(0,0)"></path>
<path d="M 437.177 402.684 C 437.632 402.675 450.016 406.225 450.569 406.518 C 457.2 410.037 489.026 414.146 488.78 423.118 C 483.734 425.312 463.808 418.968 456.474 417.394 C 448.297 414.923 441.535 415.983 435.292 410.097 C 434.719 411.534 434.27 412.911 433.868 414.399 C 429.075 416.993 423.493 418.208 418.071 418.376 C 411.918 415.024 408.6 413.661 402.055 411.122 C 412.311 407.908 426.817 402.728 437.177 402.684 z" fill="rgb(36,51,78)" transform="translate(0,0)"></path>
<path d="M 228.069 157.066 C 251.393 165.97 277.971 173.588 299.916 182.613 C 301.266 185.396 300.689 184.898 299.753 188.726 C 299.388 188.94 299.039 189.185 298.658 189.369 C 293.123 192.032 238.361 172.734 228.057 170.024 L 228.069 157.066 z" fill="rgb(36,51,78)" transform="translate(0,0)"></path>
<path d="M 221.131 338.228 C 222.623 338.029 222.48 338.222 224.074 338.652 C 225.649 343.202 224.98 359.203 224.931 364.658 L 187.952 354.613 C 183.163 353.255 176.624 351.89 171.664 350.711 C 188.024 346.055 204.521 341.892 221.131 338.228 z" fill="rgb(36,51,78)" transform="translate(0,0)"></path>
<path d="M 92.1022 553.969 C 105.476 555.927 120.612 559.084 133.981 561.667 L 133.754 577.302 C 122.588 576.899 103.132 573.707 92.1072 571.5 L 92.1022 553.969 z" fill="rgb(36,51,78)" transform="translate(0,0)"></path>
<path d="M 463.961 601.689 C 474.688 605.037 487.702 608.187 498.714 611.104 C 498.702 618.116 499.274 622.354 500.171 629.294 C 488.109 626.593 476.019 624.016 463.904 621.562 L 463.961 601.689 z" fill="rgb(36,51,78)" transform="translate(0,0)"></path>
<path d="M 424.845 643.099 C 425.006 636.403 423.528 629.024 425.666 623.413 C 428.276 621.884 427.636 622.458 431.626 623.499 C 439.577 622.169 449.966 623.045 458.061 623.7 C 458.166 629.881 458.119 636.917 458.444 643.015 C 450.025 642.464 443.312 641.903 434.825 642.477 C 432.977 642.964 427.028 643.017 424.845 643.099 z" fill="rgb(36,51,78)" transform="translate(0,0)"></path>
<path d="M 424.845 643.099 C 425.006 636.403 423.528 629.024 425.666 623.413 C 428.276 621.884 427.636 622.458 431.626 623.499 C 432.029 628.712 431.58 637.882 432.705 641.444 L 434.825 642.477 C 432.977 642.964 427.028 643.017 424.845 643.099 z" fill="rgb(37,50,68)" transform="translate(0,0)"></path>
<path d="M 463.925 624.504 C 473.75 625.766 490.367 630.143 499.994 632.713 L 500.041 649.376 C 489.113 646.399 475.896 644.682 464.619 643.431 C 464.051 637.103 464.041 630.855 463.925 624.504 z" fill="rgb(36,51,78)" transform="translate(0,0)"></path>
<path d="M 431.879 600.362 C 441.659 599.937 449.958 599.919 459.698 600.054 C 459.031 606.244 459.248 614.882 459.235 621.296 C 450.275 619.992 440.376 619.988 431.261 619.738 L 431.879 600.362 z" fill="rgb(36,51,78)" transform="translate(0,0)"></path>
<path d="M 92.0134 539.584 C 103.462 541.34 127.459 546.382 138.378 549.175 L 135.61 553.391 L 133.362 558.604 C 119.925 555.932 106.47 553.349 92.9986 550.854 C 91.4491 548.077 92.0134 543.188 92.0134 539.584 z" fill="rgb(36,51,78)" transform="translate(0,0)"></path>
<path d="M 448.21 574.26 C 450.404 575.662 452.552 592.083 453.655 596.83 L 436.75 597.122 C 434.462 597.137 435.142 597.159 432.888 596.517 C 430.948 591.768 431.805 584.198 431.943 578.71 C 437.852 576.814 442.178 575.669 448.21 574.26 z" fill="rgb(36,51,78)" transform="translate(0,0)"></path>
<path d="M 412.66 1214.37 C 426.836 1211.8 480.744 1214.48 497.39 1215 C 500.484 1215.1 505.473 1216.85 508.502 1218.06 L 507.78 1219.36 C 490.755 1216.33 461.045 1217.57 442.927 1216.19 C 435.747 1215.65 418.998 1218.15 412.679 1215.79 L 412.66 1214.37 z" fill="rgb(36,51,78)" transform="translate(0,0)"></path>
<path d="M 455.518 1220.46 C 458.626 1220.03 461.852 1219.77 466.605 1219.93 C 481.276 1220.41 497.045 1220.71 511.714 1222.41 C 512.342 1223.07 512.97 1223.73 513.598 1224.38 C 514.015 1224.29 510.944 1224.99 510.365 1225.01 C 493.356 1225.43 475.055 1224.45 458.132 1222.6 C 457.26 1221.89 456.389 1221.17 455.518 1220.46 z" fill="rgb(36,51,78)" transform="translate(0,0)"></path>
<path d="M 422.093 1207.4 C 430.957 1207.09 453.609 1204.86 459.193 1210.61 C 453.226 1211.53 426.322 1212.52 422.017 1209.89 L 422.093 1207.4 z" fill="rgb(36,51,78)" transform="translate(0,0)"></path>
<path d="M 460.976 1208.46 C 467.698 1207.04 496.409 1206.48 500.972 1211.56 C 493.686 1212.54 465.134 1212.83 460.976 1208.46 z" fill="rgb(36,51,78)" transform="translate(0,0)"></path>
<path d="M 1050.87 734.5 C 1110.77 730.15 1182.59 741.534 1208.99 803.438 C 1221.25 832.183 1224.2 866.654 1220.64 897.506 C 1216.5 936.731 1196.52 972.562 1165.32 996.694 C 1120.66 1031.68 1070.3 1033.17 1016.55 1026.61 C 1017.44 1074.25 1015.69 1122.33 1016.53 1170.02 C 1016.84 1187.74 1015.91 1212.93 1029.52 1226.54 C 1039.77 1236.79 1064.58 1234.3 1078.17 1233.86 L 1078.29 1247.25 C 1078.34 1250.03 1078.72 1251.81 1077.25 1254.12 C 1072.89 1254.97 1033.77 1254.68 1027.23 1254.71 C 987.037 1255.15 946.837 1255.32 906.637 1255.22 L 906.602 1233.98 C 919.901 1234.06 940.584 1235.68 950.413 1225.74 C 963.786 1212.21 962.619 1187.45 962.711 1170.04 C 962.822 1149.03 962.828 1128.29 962.842 1107.42 L 962.876 953.571 L 962.879 843.612 C 962.873 826.187 963.102 807.823 962.479 790.391 C 961.476 783.042 957.972 773.509 952.903 768.001 C 942.275 756.453 923.56 757.707 909.053 757.357 L 908.997 734.991 C 930.709 734.823 953.376 736.589 975.257 736.818 C 1000.83 737.085 1025.36 735.758 1050.87 734.5 z" fill="rgb(251,209,121)" transform="translate(0,0)"></path>
<path d="M 1060.98 758.433 C 1153.83 755.6 1178.49 845.92 1162.05 923.09 C 1155.79 952.484 1137.68 975.382 1112.08 990.755 C 1083.05 1006.64 1048.31 1005.26 1016.92 998.635 L 1016.33 863.353 C 1016.21 840.061 1014.21 784.99 1019.76 765.188 C 1033.95 760.148 1046.11 759.216 1060.98 758.433 z" fill="rgb(36,51,78)" transform="translate(0,0)"></path>
<path d="M 1418.96 730.579 C 1453.16 727.408 1495.6 736.257 1525 754.154 L 1528.06 853.855 L 1507.55 854.431 C 1502.84 835.478 1499.3 812.742 1492.53 795.112 C 1474.62 748.516 1404.26 746.933 1370.86 776.474 C 1350.54 794.441 1341.64 817.143 1339.37 842.981 C 1331.62 930.799 1403.95 944.633 1466.62 975.851 C 1485.74 985.845 1503.47 999.558 1517.28 1016.08 C 1567.21 1075.84 1551.52 1179.58 1491.98 1227.45 C 1455.42 1256.83 1408.39 1265.13 1362.76 1260.52 C 1332.52 1257.76 1291.59 1245.16 1268.32 1224.91 C 1267.27 1189.37 1268.55 1153.54 1269.84 1118.02 L 1293.32 1117.96 C 1296.8 1150.01 1297.67 1185.82 1323.85 1208.23 C 1365.29 1243.71 1439.78 1244.23 1475.82 1200.6 C 1495.61 1176.63 1501.33 1144.24 1498.72 1114.04 C 1492.29 1023.45 1393.93 1028.9 1339.28 982.07 C 1310.01 957.583 1296.32 923.347 1293.71 885.512 C 1287.67 797.797 1330.07 737.926 1418.96 730.579 z" fill="rgb(251,209,121)" transform="translate(0,0)"></path>
<path d="M 487.047 726.774 C 492.537 727.022 494.668 727.612 499.947 728.874 L 502.676 729.659 C 512.516 731.383 523.394 734.288 533.215 735.126 C 576.62 738.827 620.514 737.491 664 737.503 C 723.903 737.518 783.743 738.769 843.525 734.15 C 850.075 733.644 857.29 732.964 863.824 732.965 L 863.995 845.811 L 841.619 846.419 C 839.596 832.512 837.033 818.254 834.836 804.52 C 827.858 760.903 800.259 766.205 765.014 766.235 C 743.798 766.333 722.581 766.297 701.365 766.129 L 701.462 1059.21 L 701.052 1146.32 C 700.935 1168.64 697.141 1206.83 711.709 1225.94 C 718.679 1235.09 741.958 1234.24 753.019 1234.35 L 753.035 1255.13 C 697.345 1254.47 643.348 1255.25 588.05 1255 L 587.984 1235.01 C 609.25 1234.67 637.005 1235.69 644.697 1211 C 651.185 1190.17 649.244 1162.92 649.287 1141.04 L 649.368 1042.19 L 649.418 865.33 C 649.419 834.034 650.041 799.688 649.137 768.581 C 649.11 767.767 649.077 766.952 649.038 766.137 C 629.872 766.487 610.702 766.623 591.533 766.544 C 580.179 766.432 532.927 763.667 526.481 773.251 C 515.366 789.776 513.958 826.43 513.958 846.56 L 502.224 846.652 L 499.664 846.578 L 488.83 845.983 C 489.141 822.4 489.658 798.782 489.159 775.211 C 488.815 758.988 487.257 742.965 487.047 726.774 z" fill="rgb(251,209,121)" transform="translate(0,0)"></path>
<path d="M 147.993 930.088 C 160.746 931.106 245.427 937.443 250.477 941.733 C 250.986 947.303 247.198 948.004 247.107 949.896 C 246.196 968.649 246.409 993.281 246.347 1011.44 C 246.116 1037.79 246.132 1064.14 246.394 1090.49 C 246.367 1098.51 247.046 1166.36 246.191 1168.49 L 249.014 1171.07 C 252.275 1171.8 251.229 1171.14 253.546 1173.22 C 255.14 1177.62 254.201 1183.04 253.842 1187.9 C 221.886 1188.76 183.363 1185.83 149.84 1185.85 C 149.037 1183.72 147.225 1178.67 147.289 1176.49 C 147.966 1153.5 147.901 1130.5 147.852 1107.5 L 147.993 930.088 z" fill="rgb(251,209,121)" transform="translate(0,0)"></path>
<path d="M 155.438 937.141 C 167.523 939.046 235.057 943.576 241.265 947.108 L 243.944 949.197 L 242.857 953.818 C 243.351 972.26 243.098 991.256 243.067 1009.75 L 243.078 1011.02 L 242.729 1014.29 L 243.09 1016.5 C 218.96 1012.1 181.926 1012.69 155.085 1008.68 L 155.4 1007.18 C 154.148 988.281 155.232 957.077 155.438 937.141 z" fill="rgb(251,209,121)" transform="translate(0,0)"></path>
<path d="M 207.942 950.207 C 218.997 951.592 230.703 952.225 241.859 953.018 L 242.857 953.818 C 243.351 972.26 243.098 991.256 243.067 1009.75 L 243.078 1011.02 C 234.184 1010.78 216.056 1009.12 207.431 1007.76 C 208.128 988.961 207.886 969.093 207.942 950.207 z" fill="rgb(36,51,78)" transform="translate(0,0)"></path>
<path d="M 200.982 946.91 C 187.936 945.36 168.843 946.488 158.759 942.066 C 160.854 938.944 234.457 950.438 241.265 947.108 L 243.944 949.197 L 242.857 953.818 L 241.859 953.018 C 230.703 952.225 218.997 951.592 207.942 950.207 C 207.886 969.093 208.128 988.961 207.431 1007.76 C 216.056 1009.12 234.184 1010.78 243.078 1011.02 L 242.729 1014.29 L 243.09 1016.5 C 218.96 1012.1 181.926 1012.69 155.085 1008.68 L 155.4 1007.18 C 170.835 1007.85 185.468 1009.81 201.021 1010.28 C 200.859 989.156 200.846 968.033 200.982 946.91 z" fill="rgb(50,54,59)" transform="translate(0,0)"></path>
<path d="M 204.052 946.768 C 212.34 948.428 236.509 949.192 241.232 950.837 L 241.859 953.018 C 230.703 952.225 218.997 951.592 207.942 950.207 C 207.886 969.093 208.128 988.961 207.431 1007.76 C 216.056 1009.12 234.184 1010.78 243.078 1011.02 L 242.729 1014.29 C 232.631 1012.54 214.68 1011.66 203.832 1010.85 C 204.173 989.632 204.009 968.019 204.052 946.768 z" fill="rgb(251,209,121)" transform="translate(0,0)"></path>
<path d="M 158.102 946.821 C 171.086 947.62 184.596 948.955 197.602 950.068 L 197.868 1007.47 C 184.795 1006.73 171.221 1005.49 158.126 1004.46 C 158.331 985.381 158.118 965.934 158.102 946.821 z" fill="rgb(36,51,78)" transform="translate(0,0)"></path>
<path d="M 150.762 932.773 C 172.455 935.927 196.253 936.842 218.173 939.324 C 224.191 940.005 242.375 941.002 247.162 942.795 C 247.113 945.989 246.231 946.017 243.944 949.197 L 241.265 947.108 C 235.057 943.576 167.523 939.046 155.438 937.141 C 155.232 957.077 154.148 988.281 155.4 1007.18 L 155.085 1008.68 C 155.068 1023.51 154.185 1161.85 155.949 1165.26 L 155.972 1167.78 L 150.669 1169.38 L 149.691 1169.01 C 151.463 1156.67 150.367 1107.19 150.361 1092.89 L 150.762 932.773 z" fill="rgb(37,50,68)" transform="translate(0,0)"></path>
<path d="M 150.893 1177.93 C 163.216 1178.1 242.144 1181.22 247.118 1178.81 L 249.431 1178.31 C 251.17 1180.85 250.596 1181.52 250.815 1185.13 C 239.054 1185.1 154.515 1182.59 151.82 1181.17 L 150.893 1177.93 z" fill="url(#Gradient1)" transform="translate(0,0)"></path>
<path d="M 150.893 1177.93 L 151.655 1175.45 C 156.962 1173.61 235.109 1176.4 245.005 1177.18 C 245.622 1177.63 246.654 1178.29 247.118 1178.81 C 242.144 1181.22 163.216 1178.1 150.893 1177.93 z" fill="rgb(251,209,121)" transform="translate(0,0)"></path>
<path d="M 155.949 1165.26 C 176.221 1164.47 225.169 1166.87 246.191 1168.49 L 249.014 1171.07 C 222.141 1171.22 182.375 1169.64 155.972 1167.78 L 155.949 1165.26 z" fill="rgb(37,50,68)" transform="translate(0,0)"></path>
<path d="M 149.691 1169.01 L 150.669 1169.38 C 151.925 1171.35 151.428 1171.5 153.419 1171.73 C 160.6 1172.57 169.256 1172.51 176.474 1172.66 L 228.982 1173.58 C 234.381 1173.66 245.471 1173.34 250.232 1174.91 C 251.488 1178.45 250.996 1181.34 250.815 1185.13 C 250.596 1181.52 251.17 1180.85 249.431 1178.31 L 247.118 1178.81 C 246.654 1178.29 245.622 1177.63 245.005 1177.18 C 235.109 1176.4 156.962 1173.61 151.655 1175.45 L 150.893 1177.93 C 148.697 1174.42 149.189 1173.02 149.691 1169.01 z" fill="rgb(50,54,59)" transform="translate(0,0)"></path>
<path d="M 157.784 1090.47 C 171.478 1091.41 183.605 1092.02 197.318 1092.24 L 197.744 1162.86 C 188.749 1163.36 167.566 1161.54 157.902 1160.93 C 157.989 1137.45 157.95 1113.96 157.784 1090.47 z" fill="rgb(36,51,78)" transform="translate(0,0)"></path>
<path d="M 157.814 1012.13 C 169.376 1014 185.322 1014.81 197.194 1015.73 C 197.066 1038.91 197.115 1062.09 197.339 1085.26 C 184.21 1084.66 171.014 1083.5 157.781 1082.87 C 158.202 1059.67 157.859 1035.42 157.814 1012.13 z" fill="rgb(36,51,78)" transform="translate(0,0)"></path>
<path d="M 206.104 1092.42 C 218.373 1093.25 230.66 1093.81 242.956 1094.09 L 242.989 1164.3 C 230.957 1164.42 218.058 1164.03 205.96 1163.88 L 206.104 1092.42 z" fill="rgb(36,51,78)" transform="translate(0,0)"></path>
<path d="M 206.458 1015.99 C 215.133 1017.34 228.621 1017.85 237.704 1018.47 L 241.943 1019.13 C 244.163 1022.52 242.556 1078.21 243.273 1087.75 C 237.706 1088.21 213.267 1086.3 206.399 1085.87 C 207.206 1065.72 206.844 1036.29 206.458 1015.99 z" fill="rgb(36,51,78)" transform="translate(0,0)"></path>
<path d="M 200.551 1088.32 C 199.809 1078.59 198.919 1022.43 202.356 1016.23 C 204.813 1031.6 202.463 1070.66 203.166 1088.1 L 203.52 1090.3 C 202.56 1094.98 203.1 1103.98 202.916 1109.09 C 202.351 1124.69 204.371 1149.19 202.119 1163.9 C 198.766 1158.83 200.09 1101.72 200.027 1090 L 200.551 1088.32 z" fill="rgb(37,50,68)" transform="translate(0,0)"></path>
<path d="M 200.027 1090 C 191.252 1090.08 166.773 1088.98 158.859 1086.99 L 158.987 1086.44 C 169.917 1086.07 188.79 1087.75 200.551 1088.32 L 200.027 1090 z" fill="rgb(103,93,59)" transform="translate(0,0)"></path>
<path d="M 221.999 1089.41 C 228.571 1090.08 239.326 1089.08 244.044 1091.51 C 237.418 1092.51 227.898 1092.82 221.999 1089.41 z" fill="rgb(142,125,73)" transform="translate(0,0)"></path>
<path d="M 203.166 1088.1 C 206.939 1088.06 209.036 1087.55 212.301 1088.91 C 208.481 1090.02 207.554 1090.03 203.52 1090.3 L 203.166 1088.1 z" fill="rgb(142,125,73)" transform="translate(0,0)"></path>
<path d="M 291.134 944.673 C 302.556 945.75 383.597 952.199 387.267 955.312 C 389.379 966.976 388.198 1010.27 388.077 1025.24 L 387.002 1172.08 L 391.333 1173.89 C 393.502 1175.21 394.544 1175.18 394.768 1176.8 C 395.441 1181.66 395.406 1185.16 393.998 1189.75 C 389.35 1193.76 355.667 1191.28 348.097 1191.06 C 327.078 1190.54 306.057 1190.14 285.034 1189.85 C 284.843 1183.61 284.33 1179.09 285.861 1173.02 L 285.49 1175.06 L 287.14 1172.63 C 290.153 1181.44 286.479 1183.89 290.682 1186.84 C 292.994 1186.98 295.236 1187.13 297.556 1187.15 C 294.821 1186.48 292.927 1186.31 290.784 1184.51 C 290.025 1181.22 290.349 1177 290.433 1173.52 L 291.386 1173.05 C 291.535 1176.3 291.312 1179.02 292.785 1181.85 C 293.822 1178.28 293.746 1175.53 293.917 1171.84 L 293.483 1170.16 C 294.455 1125.7 292.143 1079.12 292.872 1034.31 C 290.192 1006.19 293.442 973.324 291.134 944.673 z" fill="rgb(251,209,121)" transform="translate(0,0)"></path>
<path d="M 294.763 1020.12 C 293.975 1012.2 293.553 952.389 295.191 948.602 L 297.645 948.798 L 295.586 950.642 L 295.885 952.805 C 296.955 959.348 295.794 1007.43 295.889 1017.98 C 304.531 1018.45 335.898 1019.05 342.312 1020.79 L 342.957 1022.73 C 343.152 1038.47 343.185 1054.2 343.055 1069.93 C 343.033 1075.42 342.667 1090.23 343.276 1094.85 L 343.299 1096.75 L 342.983 1170 C 357.696 1171.4 372.237 1171.02 387.002 1172.08 L 391.333 1173.89 C 393.502 1175.21 394.544 1175.18 394.768 1176.8 C 395.441 1181.66 395.406 1185.16 393.998 1189.75 C 389.35 1193.76 355.667 1191.28 348.097 1191.06 C 327.078 1190.54 306.057 1190.14 285.034 1189.85 C 284.843 1183.61 284.33 1179.09 285.861 1173.02 L 285.49 1175.06 L 287.14 1172.63 C 290.153 1181.44 286.479 1183.89 290.682 1186.84 C 292.994 1186.98 295.236 1187.13 297.556 1187.15 C 294.821 1186.48 292.927 1186.31 290.784 1184.51 C 290.025 1181.22 290.349 1177 290.433 1173.52 L 291.386 1173.05 C 291.535 1176.3 291.312 1179.02 292.785 1181.85 C 293.822 1178.28 293.746 1175.53 293.917 1171.84 L 293.483 1170.16 L 298.958 1168.88 L 298.283 1166.12 C 296.562 1162.41 297.312 1104.41 297.333 1096.04 L 297.701 1094.64 L 296.499 1091.7 L 297.09 1089.7 C 297.519 1073.94 297.348 1053.69 296.878 1038.02 C 296.196 1031.83 297.494 1025.3 294.763 1020.12 z" fill="rgb(50,54,59)" transform="translate(0,0)"></path>
<path d="M 297.333 1096.04 C 309.475 1097.43 324.712 1098.32 337.089 1098.91 L 336.856 1167.34 C 323.994 1167.09 311.136 1166.68 298.283 1166.12 C 296.562 1162.41 297.312 1104.41 297.333 1096.04 z" fill="rgb(36,51,78)" transform="translate(0,0)"></path>
<path d="M 297.15 1022.89 C 310.453 1024 323.628 1024.4 336.962 1024.9 L 337.048 1091.97 C 323.735 1091.11 310.415 1090.35 297.09 1089.7 C 297.519 1073.94 297.348 1053.69 296.878 1038.02 L 297.15 1022.89 z" fill="rgb(36,51,78)" transform="translate(0,0)"></path>
<path d="M 293.917 1171.84 C 325.136 1172.51 360.406 1174.75 391.333 1173.89 C 393.502 1175.21 394.544 1175.18 394.768 1176.8 C 395.441 1181.66 395.406 1185.16 393.998 1189.75 C 389.35 1193.76 355.667 1191.28 348.097 1191.06 C 327.078 1190.54 306.057 1190.14 285.034 1189.85 C 284.843 1183.61 284.33 1179.09 285.861 1173.02 L 285.49 1175.06 L 287.14 1172.63 C 290.153 1181.44 286.479 1183.89 290.682 1186.84 C 292.994 1186.98 295.236 1187.13 297.556 1187.15 C 294.821 1186.48 292.927 1186.31 290.784 1184.51 C 290.025 1181.22 290.349 1177 290.433 1173.52 L 291.386 1173.05 C 291.535 1176.3 291.312 1179.02 292.785 1181.85 C 293.822 1178.28 293.746 1175.53 293.917 1171.84 z" fill="rgb(251,209,121)" transform="translate(0,0)"></path>
<path d="M 297.556 1187.15 C 294.821 1186.48 292.927 1186.31 290.784 1184.51 C 290.025 1181.22 290.349 1177 290.433 1173.52 L 291.386 1173.05 C 291.535 1176.3 291.312 1179.02 292.785 1181.85 L 298.1 1182.39 C 312.909 1184.96 357.432 1183.97 374.404 1183.86 C 378.276 1183.98 385.035 1184.66 388.298 1183.27 C 389.152 1180.54 388.714 1179.42 388.325 1176.55 L 390.03 1175.53 L 391.752 1176.6 C 392.288 1180.87 392.277 1184.67 392.362 1188.95 C 365.178 1188.92 324.744 1188.56 297.556 1187.15 z" fill="rgb(36,51,78)" transform="translate(0,0)"></path>
<path d="M 297.837 1179.07 C 318.437 1178.4 336.374 1178.81 356.971 1179.65 C 363.087 1179.9 380.398 1180.68 386.109 1180.24 C 382.849 1184.58 380.919 1183.47 375.599 1183.09 L 374.404 1183.86 C 357.432 1183.97 312.909 1184.96 298.1 1182.39 C 298.498 1180.48 298.367 1181.16 297.837 1179.07 z" fill="rgb(209,173,94)" transform="translate(0,0)"></path>
<path d="M 297.837 1179.07 L 297.223 1175.97 C 298.965 1174.79 375.487 1177.14 384.45 1177.16 C 386.133 1178.91 385.585 1177.88 386.109 1180.24 C 380.398 1180.68 363.087 1179.9 356.971 1179.65 C 336.374 1178.81 318.437 1178.4 297.837 1179.07 z" fill="rgb(50,54,59)" transform="translate(0,0)"></path>
<path d="M 294.763 1020.12 C 309 1020.62 326.886 1022.23 340.727 1022 C 339.442 1032.5 340.062 1081.34 340.747 1094.37 C 325.988 1093.64 311.238 1092.75 296.499 1091.7 L 297.09 1089.7 C 310.415 1090.35 323.735 1091.11 337.048 1091.97 L 336.962 1024.9 C 323.628 1024.4 310.453 1024 297.15 1022.89 L 296.878 1038.02 C 296.196 1031.83 297.494 1025.3 294.763 1020.12 z" fill="rgb(251,209,121)" transform="translate(0,0)"></path>
<path d="M 297.701 1094.64 C 308.728 1092.63 327.434 1096.29 340.213 1095.96 C 340.131 1120.12 339.613 1145.92 340.106 1169.96 C 325.28 1170.01 313.747 1169.71 298.958 1168.88 L 298.283 1166.12 C 311.136 1166.68 323.994 1167.09 336.856 1167.34 L 337.089 1098.91 C 324.712 1098.32 309.475 1097.43 297.333 1096.04 L 297.701 1094.64 z" fill="rgb(251,209,121)" transform="translate(0,0)"></path>
<path d="M 346.073 1099.75 L 381.069 1101.03 L 382.832 1102.16 C 383.909 1119.94 382.905 1150.27 382.861 1168.97 C 370.64 1168.33 358.407 1167.96 346.169 1167.87 L 346.073 1099.75 z" fill="rgb(36,51,78)" transform="translate(0,0)"></path>
<path d="M 345.949 1025.86 C 351.686 1026.31 375.876 1028.95 379.05 1027.39 C 379.356 1026.22 379.619 1025.7 379.608 1024.54 L 380.881 1023.24 L 382.617 1024.52 C 384.092 1041.13 383.117 1075.42 383.092 1093.75 L 375.34 1093.92 C 366.465 1094.06 355.022 1093.25 346.108 1092.16 C 346.064 1070.2 346.242 1047.79 345.949 1025.86 z" fill="rgb(36,51,78)" transform="translate(0,0)"></path>
<path d="M 298.85 959.788 C 307.761 959.876 329.281 962.304 335.767 961.304 C 337.51 966.573 337.444 1010.48 336.677 1017.87 C 323.89 1016.81 311.092 1015.9 298.285 1015.13 L 298.85 959.788 z" fill="rgb(36,51,78)" transform="translate(0,0)"></path>
<path d="M 346.167 961.845 C 356.462 962.292 371.114 963.02 381.024 964.574 L 383.214 966.201 C 383.575 984.513 383.193 1003.61 383.082 1021.98 C 371.217 1020.56 358.081 1019.67 346.078 1018.64 C 346.222 999.71 346.252 980.777 346.167 961.845 z" fill="rgb(36,51,78)" transform="translate(0,0)"></path>
<path d="M 297.645 948.798 C 315.374 949.649 334.241 951.804 352.035 953.311 C 359.938 953.98 377.473 955.237 384.157 956.789 C 386.261 959.743 385.281 962.458 384.176 965.837 L 383.214 966.201 L 381.024 964.574 C 381.701 962.438 381.504 963.12 381.459 960.782 C 377.973 957.911 344.101 955.644 337.082 955.007 L 328.728 954.896 C 324.157 953.5 301.925 953.011 295.885 952.805 L 295.586 950.642 L 297.645 948.798 z" fill="rgb(37,50,68)" transform="translate(0,0)"></path>
<path d="M 328.728 954.896 L 337.082 955.007 C 337.815 956.426 338.24 957.263 338.871 958.745 L 339.557 958.919 C 341.202 973.936 338.507 1007.31 340.757 1018.74 L 336.677 1017.87 C 337.444 1010.48 337.51 966.573 335.767 961.304 L 335.809 960.448 L 336.591 959.176 C 332.42 954.177 335.911 960.827 328.728 954.896 z" fill="rgb(251,209,121)" transform="translate(0,0)"></path>
<path d="M 339.557 958.919 L 341.836 958.611 C 343.796 962.05 343.693 1013.14 342.306 1018.19 L 340.757 1018.74 C 338.507 1007.31 341.202 973.936 339.557 958.919 z" fill="rgb(37,50,68)" transform="translate(0,0)"></path>
<path d="M 375.34 1093.92 L 383.092 1093.75 C 383.024 1096.33 383.026 1099.65 382.832 1102.16 L 381.069 1101.03 C 381.595 1099.9 381.423 1100.6 381.162 1098.87 C 377.774 1097.64 349.483 1097.21 343.299 1096.75 L 343.276 1094.85 C 349.61 1095.35 355.954 1095.71 362.304 1095.93 C 365.035 1096.03 379.038 1096.57 380.589 1095.12 L 375.34 1093.92 z" fill="rgb(103,93,59)" transform="translate(0,0)"></path>
<path d="M 342.312 1020.79 C 348.691 1021.32 354.755 1021.5 360.857 1023.34 C 354.722 1024.13 349.149 1023.29 342.957 1022.73 L 342.312 1020.79 z" fill="rgb(103,93,59)" transform="translate(0,0)"></path>
<path d="M 149.074 606.127 C 180.999 610.867 215.247 617.63 247.135 623.401 C 245.831 694.358 247.64 766.385 246.558 837.351 C 249.132 840.671 248.286 839.621 253.315 840.938 L 253.924 842.98 C 252.47 846.861 252.276 847.978 249.77 851.152 C 243.386 851.409 223.017 848.589 215.956 847.752 L 150.512 839.998 C 150.142 839.47 149.772 838.943 149.402 838.416 C 148.582 783.734 148.949 653.243 149.074 606.127 z" fill="rgb(251,209,121)" transform="translate(0,0)"></path>
<path d="M 152.016 609.481 C 177.285 614.641 202.832 618.397 228.187 623.108 C 233.333 624.064 238.419 624.736 243.36 626.542 L 243.973 628.285 C 239.35 631.223 212.978 624.958 206.033 623.628 C 205.423 637.83 207.777 673.841 203.628 684.535 L 202.984 684.056 C 202.214 664.251 202.614 643.294 202.225 623.287 C 191.224 620.23 169.198 617.226 156.107 614.439 C 155.331 685.395 155.375 756.358 156.24 827.313 C 170.684 830.136 187.068 831.108 202.056 833.393 L 202.619 751.553 C 202.605 731.183 201.856 708.79 202.613 688.638 L 205.322 689.187 C 206.336 705.214 205.523 730.155 205.401 746.74 L 205.116 833.797 C 219.257 834.321 232.587 836.285 246.558 837.351 C 249.132 840.671 248.286 839.621 253.315 840.938 C 229.197 842.144 189.015 833.601 163.359 831.92 C 159.987 831.035 155.599 831.12 152.034 831.01 L 152.016 609.481 z" fill="rgb(37,50,68)" transform="translate(0,0)"></path>
<path d="M 209.038 627.41 C 220.445 629.416 231.828 631.549 243.186 633.809 C 243.18 651.514 243.807 674.005 242.836 691.334 L 241.708 691.435 C 230.891 688.798 220.032 687.219 209.045 685.447 L 209.038 627.41 z" fill="rgb(36,51,78)" transform="translate(0,0)"></path>
<path d="M 202.613 688.638 C 188.437 685.762 174.837 684.611 160.766 682.097 L 160.852 681.437 C 176.259 680.905 234.654 693.135 241.708 691.435 L 242.836 691.334 C 237.282 696.293 210.789 686.796 205.322 689.187 L 202.613 688.638 z" fill="rgb(103,93,59)" transform="translate(0,0)"></path>
<path d="M 159.687 754.59 C 172.855 756.233 185.987 758.147 199.075 760.332 L 199.051 829.236 C 187.19 828.5 171.845 826.16 159.771 824.605 L 159.687 754.59 z" fill="rgb(36,51,78)" transform="translate(0,0)"></path>
<path d="M 159.779 684.794 C 172.776 687 185.868 687.915 199.096 690.376 L 199.113 754.229 C 189.293 753.661 169.515 750.376 159.703 748.57 C 160.137 727.633 159.804 705.796 159.779 684.794 z" fill="rgb(36,51,78)" transform="translate(0,0)"></path>
<path d="M 159.718 618.511 C 172.756 621.388 185.917 623.682 199.16 625.386 C 198.831 644.498 199.059 664.278 199.026 683.444 C 185.901 681.341 172.75 679.411 159.574 677.655 C 159.903 658.152 159.7 638.063 159.718 618.511 z" fill="rgb(36,51,78)" transform="translate(0,0)"></path>
<path d="M 208.935 761.854 C 218.911 762.686 232.832 764.956 243.011 766.328 L 243.081 833.89 C 233.534 832.303 218.909 831.217 208.896 830.209 L 208.935 761.854 z" fill="rgb(36,51,78)" transform="translate(0,0)"></path>
<path d="M 209.129 691.886 C 217.058 692.029 234.408 695.008 243.088 696.324 L 243.095 760.171 L 209.028 755.582 C 209.178 734.35 209.211 713.118 209.129 691.886 z" fill="rgb(36,51,78)" transform="translate(0,0)"></path>
<path d="M 154.047 833.51 C 169.037 835.343 239.369 842.207 249.244 846.072 L 248.67 846.888 C 224.036 849.743 179.112 838.121 152.028 837.766 C 151.708 837.052 151.662 835.938 151.551 835.082 L 154.047 833.51 z" fill="rgb(37,50,68)" transform="translate(0,0)"></path>
<path d="M 292.859 633.871 L 385.675 651.7 C 388.123 653.737 387.809 652.936 387.925 656.19 C 388.685 677.553 385.209 851.094 387.888 856.914 L 390.42 858.204 L 390.51 859.42 C 389.683 861.616 388.842 863.805 387.988 865.99 C 377.482 866.445 301.105 857.044 291.947 854.254 C 289.479 850.824 290.006 852.635 289.802 848.81 C 294.913 841.047 293.226 830.994 293.256 821.688 L 293.232 776.883 L 292.859 633.871 z" fill="rgb(251,209,121)" transform="translate(0,0)"></path>
<path d="M 385.675 651.7 C 388.123 653.737 387.809 652.936 387.925 656.19 C 388.685 677.553 385.209 851.094 387.888 856.914 L 384.221 856.112 C 383.169 852.929 384.145 854.118 381.111 852.5 L 382.529 849.672 C 370.735 847.709 358.218 846.495 346.294 845.137 C 347.012 829.844 347.34 796.446 346.301 781.606 C 353.807 782.705 375.286 786.393 381.452 785.513 L 380.344 783.999 C 377.647 783.581 377.168 783.677 374.753 782.512 L 379.148 781.428 L 379.892 780.213 L 381.661 779.694 C 382.335 778.366 382.798 777.91 382.715 776.595 C 382.187 768.314 384.532 723.008 380.951 719.116 L 378.075 715.92 L 378.392 715.142 L 381.61 714.133 C 382.512 709.184 382.649 666.441 381.276 660.761 L 378.806 659.443 L 382.808 657.255 L 384.4 656.541 L 384.693 654.496 L 385.675 651.7 z" fill="rgb(36,51,78)" transform="translate(0,0)"></path>
<path d="M 385.675 651.7 C 388.123 653.737 387.809 652.936 387.925 656.19 C 388.685 677.553 385.209 851.094 387.888 856.914 L 384.221 856.112 C 383.169 852.929 384.145 854.118 381.111 852.5 L 382.529 849.672 C 383.998 842.893 382.928 795.107 382.413 785.02 C 382.296 782.728 381.499 782.98 379.148 781.428 L 379.892 780.213 L 381.661 779.694 C 382.335 778.366 382.798 777.91 382.715 776.595 C 382.187 768.314 384.532 723.008 380.951 719.116 L 378.075 715.92 L 378.392 715.142 L 381.61 714.133 C 382.512 709.184 382.649 666.441 381.276 660.761 L 378.806 659.443 L 382.808 657.255 L 384.4 656.541 L 384.693 654.496 L 385.675 651.7 z" fill="rgb(209,173,94)" transform="translate(0,0)"></path>
<path d="M 346.937 713.673 C 357.871 714.837 370.068 717.164 380.951 719.116 C 384.532 723.008 382.187 768.314 382.715 776.595 C 382.798 777.91 382.335 778.366 381.661 779.694 L 379.892 780.213 C 372.63 778.354 354.944 775.98 346.876 774.628 L 346.937 713.673 z" fill="rgb(36,51,78)" transform="translate(0,0)"></path>
<path d="M 292.859 633.871 L 385.675 651.7 L 384.693 654.496 C 379.778 653.017 374.741 652.122 369.693 651.235 C 345.067 646.907 320.595 641.61 295.922 637.564 C 295.995 705.942 297.169 777.716 296.003 845.797 C 322.372 847.508 357.328 852.726 384.221 856.112 L 387.888 856.914 L 390.42 858.204 L 390.51 859.42 C 389.683 861.616 388.842 863.805 387.988 865.99 C 377.482 866.445 301.105 857.044 291.947 854.254 C 289.479 850.824 290.006 852.635 289.802 848.81 C 294.913 841.047 293.226 830.994 293.256 821.688 L 293.232 776.883 L 292.859 633.871 z" fill="rgb(251,209,121)" transform="translate(0,0)"></path>
<path d="M 387.988 865.99 C 387.747 864.645 387.565 864.59 386.942 863.327 C 357.433 859.632 327.022 857.367 297.498 852.971 C 293.983 852.448 294.118 852.159 292.64 849.974 C 297.868 846.039 376.81 861.094 390.51 859.42 C 389.683 861.616 388.842 863.805 387.988 865.99 z" fill="rgb(37,50,68)" transform="translate(0,0)"></path>
<path d="M 347.641 654.692 C 358.004 656.44 368.393 658.024 378.806 659.443 L 381.276 660.761 C 382.649 666.441 382.512 709.184 381.61 714.133 C 374.355 711.299 355.545 708.704 347.123 707.362 C 347.637 690.037 347.528 672.071 347.641 654.692 z" fill="rgb(36,51,78)" transform="translate(0,0)"></path>
<path d="M 295.922 637.564 C 320.595 641.61 345.067 646.907 369.693 651.235 C 374.741 652.122 379.778 653.017 384.693 654.496 L 384.4 656.541 L 382.808 657.255 C 370.284 654.131 356.669 653.55 344.188 650.282 L 344.012 710.096 C 341.2 709.788 330.581 709.102 329.175 707.551 L 328.172 707.567 L 331.184 708.279 L 330.482 707.391 L 341.915 708.751 C 340.233 698.673 341.105 662.903 341.195 650.424 C 327.244 648.002 312.82 645.674 299.013 642.729 L 299.139 842.883 C 311.432 843.795 328.057 846.172 340.527 848.023 C 340.656 836.392 339.372 788.564 342.656 781.291 C 344.672 788.646 343.241 837.362 343.572 848.464 C 356.095 849.717 368.608 851.063 381.111 852.5 C 384.145 854.118 383.169 852.929 384.221 856.112 C 357.328 852.726 322.372 847.508 296.003 845.797 C 297.169 777.716 295.995 705.942 295.922 637.564 z" fill="rgb(37,50,68)" transform="translate(0,0)"></path>
<path d="M 378.075 715.92 C 370.382 715.823 357.616 713.421 350.338 710.913 L 350.714 710.55 C 359.738 711.38 369.424 713.45 378.392 715.142 L 378.075 715.92 z" fill="rgb(103,93,59)" transform="translate(0,0)"></path>
<path d="M 301.643 705.757 C 313.614 708.034 325.613 710.16 337.637 712.134 C 336.961 731.029 337.49 754.573 337.451 773.753 C 325.453 772.64 313.521 770.904 301.703 768.553 C 301.852 747.621 301.832 726.688 301.643 705.757 z" fill="rgb(36,51,78)" transform="translate(0,0)"></path>
<path d="M 301.692 775.849 C 311.328 776.299 325.914 779.403 337.003 780.327 C 336.623 800.926 336.941 822.807 336.94 843.489 C 325.266 842.168 313.601 840.781 301.944 839.327 C 301.979 818.168 301.895 797.008 301.692 775.849 z" fill="rgb(36,51,78)" transform="translate(0,0)"></path>
<path d="M 301.51 646.539 C 313.575 649.103 325.736 651.189 337.965 652.792 C 337.999 663.301 338.752 696.22 337.367 705.478 C 325.218 703.762 313.117 701.728 301.075 699.378 C 301.746 682.672 301.421 663.47 301.51 646.539 z" fill="rgb(36,51,78)" transform="translate(0,0)"></path>
<path d="M 340.572 776.489 L 340.673 775.379 C 341.84 761.27 338.964 721.247 342.939 712.254 C 344.785 720.715 343.676 765.348 344.009 777.084 C 346.336 777.497 351.976 778.101 353.391 779.323 C 348.169 779.149 346.07 778.838 340.923 777.844 L 340.572 776.489 z" fill="rgb(50,54,59)" transform="translate(0,0)"></path>
<path d="M 340.923 777.844 C 333.072 778.386 312.017 775.054 303.896 772.661 C 306.109 771.947 335.378 776.011 340.572 776.489 L 340.923 777.844 z" fill="rgb(103,93,59)" transform="translate(0,0)"></path>
<path d="M 354.107 779.317 C 359.309 778.825 361.728 779.087 366.396 781.16 C 361.355 781.893 358.851 781.027 354.107 779.317 z" fill="rgb(103,93,59)" transform="translate(0,0)"></path>
<path d="M 422.731 579.859 C 397.38 575.234 372.123 569.151 346.763 564.219 C 287.812 552.755 228.846 541.222 169.858 529.944 C 162.358 528.51 156.22 524.16 148.625 522.947 C 137.935 520.162 96.0588 513.555 89.075 509.652 L 89.1803 508.477 C 93.9778 507.072 105.879 510.909 111.362 512.126 L 163.358 523.236 C 164.127 524.22 164.896 525.203 165.665 526.187 C 178.718 528.296 191.722 530.563 204.7 533.102 L 350.585 561.646 C 372.013 566.004 393.467 570.155 414.617 575.666 C 417.508 576.419 421.271 575.059 423.947 573.998 L 424.617 574.526 L 423.723 579.836 L 422.731 579.859 z" fill="rgb(251,209,121)" transform="translate(0,0)"></path>
<path d="M 422.731 579.859 L 423.723 579.836 C 424.91 593.219 423.912 606.308 424.998 618.976 L 421.827 618.649 C 422.231 606.239 421.455 591.845 422.731 579.859 z" fill="rgb(179,151,96)" transform="translate(0,0)"></path>
<metadata><recraft-signature>{"signed_by": "recraft", "signature_b64": "AZbMEUkwvw5fdEptoPzY2T3P1CFBfn4YduUgmJZBM9BFpZgIpawabYoUfllXgaPqztK7TeByChgWcokaK5o0Dg==", "signing_algo": "Ed25519", "generation_timestamp": 1772546057, "identifier": "c8130b95-1a1a-4640-b00c-2bfc74c0cf60"}</recraft-signature></metadata></svg>