<svg xmlns="http://www.w3.org/2000/svg" height="1024" preserveAspectRatio="none" style="display: block;" version="1.1" viewBox="0 0 2048 2048" width="1024">
<path d="M 0 0 L 2048 0 L 2048 2048 L 0 2048 L 0 0 z" fill="rgb(255,255,255)" transform="translate(0,0)"></path>
<path d="M 673.818 1034.96 C 681.988 1017.72 690.18 999.685 695.252 981.92 C 719.507 896.962 713.646 798.623 664.617 723.32 C 657.753 712.777 648.764 703.838 641.287 693.782 C 626.541 671.424 622.457 635.114 634.673 610.778 C 668.557 543.278 761.07 522.54 829.93 522.876 C 871.572 523.271 912.935 529.739 952.71 542.076 C 991.068 554.274 1031.77 572.506 1068.91 588.857 C 1166.1 631.655 1272.86 688.011 1380.02 641.269 C 1421.88 623.011 1463.78 586.338 1465.18 538.003 L 1467.1 537.827 C 1470.07 593.717 1450.34 640.378 1416.83 684.928 C 1402.93 703.42 1386.8 717.276 1374.23 738.077 C 1321.7 824.944 1322.75 943.597 1368.88 1032.7 C 1335.49 1013.11 1285.93 997.712 1248.27 987.633 C 1106.8 949.778 956.509 946.895 814.336 982.925 C 765.745 995.239 718.298 1011.35 673.818 1034.96 z" fill="rgb(25,23,24)" transform="translate(0,0)"></path>
<path d="M 578.584 544.079 C 592.66 468.907 624.606 422.692 687.639 378.775 C 771.558 320.308 876.03 309.517 974.559 328.165 C 1020.82 336.921 1065.49 354.418 1110.05 369.628 C 1127.25 375.498 1145.11 386.131 1162.47 392.505 C 1218.22 412.967 1299.52 433.696 1353.4 399.704 C 1368.48 390.196 1374.68 377.319 1381.98 362.136 C 1398.57 374.82 1414.14 392.491 1416.59 413.779 C 1423.83 477.57 1360.25 508.486 1305.76 513.871 C 1206.11 523.72 1120.42 465.692 1030.6 429.491 C 889.859 372.764 709.331 385.384 605.963 507.5 C 599.836 514.739 585.382 534.642 582.345 543.394 L 578.584 544.079 z" fill="rgb(190,189,189)" transform="translate(0,0)"></path>
<path d="M 922.156 1151.78 C 951.08 1151.64 980.004 1151.74 1008.93 1152.08 C 1014.63 1152 1020.33 1151.97 1026.03 1151.99 C 1059.24 1151.25 1095.93 1155.81 1121.16 1179.78 C 1154.24 1211.19 1146.92 1272.84 1116.44 1303.49 C 1087.11 1333 1039.48 1330.03 1001.08 1330.47 C 1000.92 1363.18 996.728 1400.82 1025.95 1422.23 C 992.519 1421.54 950.17 1421.45 916.867 1422.67 C 926.373 1415.06 936.919 1401.24 938.117 1388.63 C 943.829 1328.51 939.613 1266.04 940.27 1205.55 C 940.512 1183.27 938.619 1167.17 922.156 1151.78 z" fill="rgb(25,23,24)" transform="translate(0,0)"></path>
<path d="M 1008.93 1152.08 C 1014.63 1152 1020.33 1151.97 1026.03 1151.99 C 1025.49 1152.92 1024.95 1153.85 1024.42 1154.78 C 1033.58 1156.69 1044.44 1161.5 1051.45 1167.91 C 1085.17 1198.72 1084.46 1277.87 1055.42 1311.34 C 1041.55 1327.32 1020.33 1327.08 1001.17 1328.04 C 1000.67 1284.63 1001.57 1241.02 1001.61 1197.6 C 1001.63 1181.26 1004.2 1169.77 1009.76 1154.56 L 1008.93 1152.08 z" fill="rgb(255,255,255)" transform="translate(0,0)"></path>
<path d="M 1008.93 1152.08 C 1014.63 1152 1020.33 1151.97 1026.03 1151.99 C 1025.49 1152.92 1024.95 1153.85 1024.42 1154.78 C 1018.87 1154.67 1015.5 1154.4 1009.76 1154.56 L 1008.93 1152.08 z" fill="rgb(50,45,46)" transform="translate(0,0)"></path>
<path d="M 511.734 1557 C 513.713 1559.02 512.95 1585.93 512.937 1590.61 C 515.041 1588.07 517.252 1585.62 519.562 1583.26 C 532.368 1570.41 550.831 1556.79 569.697 1557.76 C 619.331 1560.34 647.516 1613.23 645.005 1658.34 C 643.374 1687.64 634.183 1711.49 612.416 1731.14 C 596.746 1745.49 575.985 1752.97 554.767 1751.9 C 535.917 1750.8 525.199 1744.26 512.951 1730.45 C 512.677 1742.73 512.655 1755.02 514.144 1767.22 C 517.872 1788.31 523.07 1808.48 542.952 1819.96 C 503.935 1820.15 465.917 1820.66 426.813 1820.26 L 427.954 1819.5 C 434.042 1815.49 439.637 1811.28 443.776 1804.77 C 460.684 1777.2 453.636 1738.72 454.31 1707.05 C 453.504 1679.8 455.728 1651.94 451.613 1624.96 C 449.578 1611.63 443.33 1605.79 433.125 1598.82 C 460.584 1587.56 485.657 1571.13 511.734 1557 z" fill="rgb(25,23,24)" transform="translate(0,0)"></path>
<path d="M 532.703 1586.23 C 584.424 1586.61 595.092 1671 584.719 1708.06 C 580.545 1722.97 576.679 1731.3 564.654 1741.34 C 498.838 1775.23 512.463 1630.07 512.966 1598.97 C 519.56 1590.8 522.485 1588.25 532.703 1586.23 z" fill="rgb(255,255,255)" transform="translate(0,0)"></path>
<path d="M 995.819 223.412 C 1091.88 216.195 1238.98 253.064 1318.83 306.766 C 1316.59 309.076 1314.11 311.139 1311.42 312.92 C 1300.33 320.443 1283.66 325.504 1270.83 328.365 C 1206.51 342.716 1152.68 323.227 1092.38 304.779 C 1075.28 299.546 1056.88 295.598 1039.22 292.095 C 957.593 274.958 873.08 277.281 792.52 298.874 C 767.756 305.583 738.335 317.33 716.264 322.664 L 714.635 323.049 C 729.011 310.236 743.306 301.008 759.905 291.439 C 835.939 247.612 909.289 229.422 995.819 223.412 z" fill="rgb(190,189,189)" transform="translate(0,0)"></path>
<path d="M 311.383 1468.37 C 340.549 1464.8 370.243 1471.78 393.694 1491.25 C 425.326 1517.51 418.733 1575.83 368.786 1564.93 C 357.665 1562.51 349.639 1551.38 344.36 1541.67 C 351.038 1531.25 359.654 1522.7 361.704 1509.86 C 364.738 1488.75 348.881 1475.21 329.416 1473.02 C 305.643 1470.34 278.243 1484.85 278.048 1511.33 C 277.568 1576.6 371.191 1568.31 403.918 1611.16 C 420.214 1632.5 423.325 1651.61 421.728 1678.12 C 420.401 1703.59 408.731 1721.61 387.522 1735.53 C 362.126 1752.19 329.223 1755.02 299.651 1752.52 C 286.193 1750.82 276.15 1748.18 263.594 1742.95 C 235.679 1731.33 211.83 1695.18 227.054 1665.1 C 231.903 1655.48 240.463 1648.26 250.76 1645.09 C 270.989 1638.67 288.521 1645.16 306.103 1654.61 C 283.193 1662.22 271.741 1678.24 274.398 1703.11 C 275.777 1716.74 282.757 1729.18 293.668 1737.45 C 304.941 1745.85 319.081 1749.44 332.995 1747.43 C 372.485 1741.75 388.006 1699.61 359.778 1670.96 C 326.064 1635.63 249.444 1617.11 232.466 1568.68 C 210.504 1506.04 257.431 1475.26 311.383 1468.37 z" fill="rgb(25,23,24)" transform="translate(0,0)"></path>
<path d="M 1317.54 1508.91 C 1346.36 1497.46 1373.5 1480.92 1400.61 1466.08 C 1401.77 1516.13 1400.88 1566.4 1400.59 1616.47 C 1400.41 1646.77 1396.78 1689.57 1404.15 1718.41 C 1406.08 1725.93 1409.34 1735.83 1416.6 1739.74 C 1419.99 1741.56 1424.45 1741.68 1428.08 1740.6 C 1433.02 1739.12 1436.58 1735.39 1439.03 1731 C 1449.01 1713.15 1447.72 1642.19 1441.28 1622.02 C 1438.1 1612.07 1431.85 1607.04 1422.96 1602.39 C 1457.53 1588.05 1471.61 1576.23 1502.7 1559.33 C 1502.41 1590.89 1502.34 1622.46 1502.48 1654.02 C 1502.57 1686.27 1496.51 1726.44 1526.81 1746.57 C 1527.57 1747.18 1529.55 1748.51 1529.77 1749.59 C 1529.85 1749.98 1529.61 1750.39 1529.53 1750.4 C 1522.07 1751.24 1487.58 1750.89 1483.28 1750.69 L 1373.14 1751.06 C 1355.78 1751.06 1330.76 1751.76 1314.4 1750.42 C 1351.91 1721.05 1337.38 1673.33 1340.09 1630.87 C 1341.7 1605.61 1339.41 1576.93 1339.45 1551.43 C 1339.48 1533.93 1334.02 1517.35 1317.54 1508.91 z" fill="rgb(25,23,24)" transform="translate(0,0)"></path>
<path d="M 1526.81 1746.57 C 1527.57 1747.18 1529.55 1748.51 1529.77 1749.59 C 1529.85 1749.98 1529.61 1750.39 1529.53 1750.4 C 1522.07 1751.24 1487.58 1750.89 1483.28 1750.69 C 1487.97 1746.3 1518.42 1753.96 1526.81 1746.57 z" fill="rgb(50,45,46)" transform="translate(0,0)"></path>
<path d="M 506.392 1162.32 C 506.163 1201.23 506.233 1240.13 506.605 1279.04 L 507.424 1277.67 C 521.977 1253.48 565.778 1221.76 593.503 1241.87 C 645.64 1279.68 607.443 1389.33 659.22 1422.17 L 547.214 1422.41 C 572.567 1405.57 573.763 1375.7 572.112 1347.94 C 570.582 1322.23 564.565 1267.46 528.246 1270.46 C 516.392 1271.44 506.871 1288.11 506.168 1298.72 C 505.176 1307.44 504.628 1317.4 505.102 1326.21 C 506.808 1357.91 498.596 1399.39 528.885 1419.52 C 536.453 1425.2 513.66 1422.33 511.891 1422.15 C 506.647 1422.78 488.431 1422.35 482.312 1422.34 L 421.981 1422.29 C 435.778 1413.26 443.4 1402.36 446.183 1386.06 C 450.43 1361.17 448.081 1335.05 448.391 1309.77 C 448.015 1285.71 449.083 1261.54 447.466 1237.53 C 446.164 1218.2 442.947 1209.44 428.278 1196.89 C 459.095 1186.81 477.621 1176.86 506.392 1162.32 z" fill="rgb(25,23,24)" transform="translate(0,0)"></path>
<path d="M 528.885 1419.52 C 536.453 1425.2 513.66 1422.33 511.891 1422.15 C 518.808 1421.2 523.541 1423.14 528.885 1419.52 z" fill="rgb(50,45,46)" transform="translate(0,0)"></path>
<path d="M 1208.53 1557.38 C 1239.81 1554.7 1275.36 1569.49 1292.59 1596.48 C 1302.8 1612.46 1301.52 1630.44 1301.44 1648.59 L 1301.22 1697.5 C 1301.21 1706.11 1300.67 1717.78 1303.26 1725.86 C 1305.34 1732.35 1310.47 1733.73 1316.44 1736.55 C 1313.23 1744.76 1299.63 1749.85 1291.43 1751.2 C 1264.76 1755.6 1247.3 1752.28 1241.96 1722.18 C 1220.59 1761.05 1172.77 1767.54 1141.2 1734.94 C 1135.57 1729.12 1132.86 1720.09 1130.69 1712.33 C 1124.06 1652.99 1197.8 1639.67 1241.91 1624.18 C 1242.17 1607.78 1244.81 1581.59 1233.1 1568.99 C 1220.44 1555.38 1188.71 1557.85 1189.21 1581.4 C 1189.49 1594.69 1191.97 1596.99 1200.35 1605.49 C 1201.63 1616.39 1183.25 1630.66 1172.7 1632.46 C 1141.51 1637.8 1135.52 1601.76 1152.85 1582.51 C 1167.46 1566.28 1187.25 1559.41 1208.53 1557.38 z" fill="rgb(25,23,24)" transform="translate(0,0)"></path>
<path d="M 1240.76 1629.06 C 1242.63 1631.07 1241.94 1703.85 1241.72 1713.09 C 1231.25 1726.96 1215.89 1728.66 1203.06 1716.63 C 1191.22 1699.25 1189.66 1682.4 1197.6 1662.69 C 1204.96 1644.41 1223.44 1635.75 1240.76 1629.06 z" fill="rgb(255,255,255)" transform="translate(0,0)"></path>
<path d="M 1214.13 1235.4 C 1252.24 1232.1 1299.17 1253.96 1304.46 1295.7 C 1305.68 1305.36 1305.29 1315.64 1305.25 1325.39 L 1305 1370.08 C 1304.95 1378.2 1304.47 1388.55 1305.95 1396.39 C 1308.55 1410.09 1314.09 1407.63 1320.57 1412.17 C 1316 1418.3 1309.47 1422.08 1302.14 1423.78 C 1270.15 1431.2 1256.37 1426.07 1248.12 1394.49 C 1239.55 1408.96 1233.47 1418.68 1216.66 1425.41 C 1202.5 1431.07 1184.92 1430.55 1171.03 1424.2 C 1154.76 1416.77 1146.85 1406.23 1140.94 1390.04 C 1132.24 1343.38 1165.49 1328.73 1202.55 1314.31 C 1217.57 1308.47 1232.36 1304.56 1247.93 1300.46 C 1248.01 1286.66 1249.21 1258.33 1240.55 1248.64 C 1217.75 1223.15 1175.99 1247.99 1206.86 1281.82 C 1201.9 1293.34 1192.37 1305.83 1179.54 1307.66 C 1150.53 1311.79 1142.39 1279.07 1158.95 1260.05 C 1173.67 1243.14 1193.07 1237.44 1214.13 1235.4 z" fill="rgb(25,23,24)" transform="translate(0,0)"></path>
<path d="M 1245.58 1303.87 C 1246.04 1303.91 1247.57 1303.97 1247.58 1304.31 C 1247.93 1319.67 1248.56 1376.05 1247.45 1387.4 C 1235.15 1399.11 1225.11 1401.53 1210.79 1391.44 C 1188.8 1368.61 1199.42 1326.77 1226.37 1312.98 C 1233.45 1309.36 1238.23 1307.06 1245.58 1303.87 z" fill="rgb(255,255,255)" transform="translate(0,0)"></path>
<path d="M 743.893 1558.3 C 784.079 1553.67 829.125 1578.26 836.554 1620.13 C 836.714 1632.66 811.756 1645.33 803.706 1650.1 C 774.827 1667.2 756.2 1669.72 723.889 1669.43 C 737.54 1696.78 765.152 1715.64 796.552 1710.29 C 824.069 1705.6 827.026 1692.31 840.053 1673.81 L 840.624 1674.69 L 839.171 1680.26 C 835.24 1691.62 831.045 1704.49 824.493 1714.52 C 812.42 1733.01 793.39 1745.83 771.722 1750.08 C 748.375 1754.54 724.212 1749.52 704.574 1736.13 C 683.709 1722 668.021 1699.24 663.436 1674.32 C 658.625 1647.5 664.488 1619.86 679.773 1597.31 C 695.452 1574.59 717.247 1563.11 743.893 1558.3 z" fill="rgb(25,23,24)" transform="translate(0,0)"></path>
<path d="M 736.339 1563.05 C 768.159 1560.74 777.173 1596.57 778.11 1621.56 C 778.915 1643.05 775.058 1656.23 753.783 1663.45 C 742.319 1666.29 735.022 1666.01 723.102 1665.83 C 722.6 1664.99 721.745 1663.6 721.394 1662.69 C 710.655 1635.02 703.577 1578.2 736.339 1563.05 z" fill="rgb(255,255,255)" transform="translate(0,0)"></path>
<path d="M 737.325 1236.37 C 781.179 1232.59 815.971 1257.58 825.366 1300.58 C 816.333 1313.43 799.38 1323.52 785.689 1330.72 C 761.646 1343.36 740.198 1346.83 713.476 1345.65 C 720.585 1359.39 732.133 1373.68 746.011 1381.02 C 760.123 1388.41 776.632 1389.75 791.752 1384.73 C 812.004 1377.88 820.916 1362.45 829.723 1344.73 L 826.39 1358.13 C 814.246 1393.04 796.097 1422.13 755.884 1427.23 C 732.281 1430.08 708.505 1423.54 689.67 1409.03 C 668.924 1393.22 655.441 1369.7 652.274 1343.8 C 645.993 1288.9 682.278 1242.45 737.325 1236.37 z" fill="rgb(25,23,24)" transform="translate(0,0)"></path>
<path d="M 727.359 1240.97 C 757.893 1240.5 763.949 1270.56 766.175 1295 C 768.39 1319.32 765.449 1334.43 739.477 1340.78 C 727.75 1342.67 723.901 1343.03 711.967 1342.49 C 699.719 1314.34 691.692 1255.28 727.359 1240.97 z" fill="rgb(255,255,255)" transform="translate(0,0)"></path>
<path d="M 1784.85 1239.32 C 1775.95 1236.73 1783.68 1235.99 1787.8 1236.6 C 1803.54 1236.69 1834.89 1237.77 1849.59 1236.5 L 1850.77 1240.39 C 1822 1257.52 1813.03 1295.11 1801.91 1324.24 C 1789.16 1357.61 1777.77 1391.48 1765.78 1425.1 C 1761.68 1437.92 1754.34 1449.58 1749.01 1461.59 C 1736.3 1490.2 1709.95 1509.02 1677.98 1493.86 C 1667.52 1488.96 1659.6 1479.89 1656.16 1468.85 C 1652.84 1458.54 1652.63 1445.38 1657.99 1435.68 C 1661.82 1428.75 1668.37 1423.74 1676.07 1421.88 C 1692.64 1417.74 1708.97 1428.15 1722.44 1436.52 C 1718.07 1446.6 1701.83 1472.93 1718.14 1478.72 C 1739.77 1486.39 1756.06 1434.15 1761.01 1420.88 C 1749.92 1420.75 1738.46 1420.92 1727.34 1420.96 C 1712.39 1404.22 1712.32 1392.64 1704.93 1373.01 C 1689.67 1332.44 1675.43 1265.41 1643.09 1236.9 L 1757.39 1236.9 C 1728.76 1255.33 1738.46 1287.05 1748.76 1313.03 C 1757.25 1334.46 1766.35 1354.4 1776.98 1374.83 C 1790.67 1332.93 1828.67 1272.55 1784.85 1239.32 z" fill="rgb(25,23,24)" transform="translate(0,0)"></path>
<path d="M 1784.85 1239.32 C 1775.95 1236.73 1783.68 1235.99 1787.8 1236.6 C 1786.35 1237.7 1786.22 1237.92 1784.85 1239.32 z" fill="rgb(50,45,46)" transform="translate(0,0)"></path>
<path d="M 520.679 1072.99 C 530.68 1072.9 540.419 1075.19 548.132 1081.96 C 558.004 1090.63 562.292 1102.09 563.173 1114.91 C 563.832 1124.48 560.489 1137.49 553.274 1144.08 C 520.343 1174.19 435.687 1147.74 394.943 1143.44 C 365.149 1138.94 335.421 1134.78 305.249 1134.52 C 275.568 1134.28 220.613 1149.69 223.728 1188.58 C 224.401 1197.26 228.668 1205.27 235.5 1210.66 C 245.218 1218.36 259.832 1220.28 271.473 1214.9 C 275.422 1213.07 282.485 1204.97 287.192 1204.5 C 291.909 1211.2 288.912 1231.42 286.83 1239.21 L 286.426 1240.7 C 280.066 1257.85 267.933 1269.02 249.962 1270.81 C 186.194 1277.14 172.655 1202.51 210.253 1164.02 C 231.481 1142.29 243.522 1136.64 270.667 1125.46 C 346.411 1093.98 425.547 1114.87 503.89 1115.36 C 532.381 1115.54 546.563 1091.08 520.679 1072.99 z" fill="rgb(25,23,24)" transform="translate(0,0)"></path>
<path d="M 1595.52 1558.36 C 1622.66 1556.93 1644.21 1564.5 1668.96 1574.34 C 1665.83 1591.03 1663.2 1610.46 1660.55 1627.35 C 1648.67 1607.77 1636.49 1589.99 1621.51 1572.95 C 1593.3 1538.87 1557.28 1586.02 1588.23 1607.52 C 1620.91 1630.23 1684.69 1635.05 1686.06 1687.57 C 1686.79 1715.78 1662.86 1736.65 1638.3 1746.42 C 1623.96 1752.13 1613.31 1753.1 1597.73 1753.12 C 1568.76 1752.79 1529.3 1739.6 1531.84 1703.85 C 1532.98 1687.66 1550.02 1678.01 1565.06 1681.03 C 1575.98 1683.23 1584.49 1688.99 1591.07 1697.89 L 1582.86 1703.66 C 1570.67 1727.45 1580.55 1750.07 1609.41 1748.62 C 1625.02 1747.83 1637.3 1732.72 1633.41 1717.28 C 1624.82 1683.16 1575.37 1680.22 1551.3 1660.71 C 1540.4 1652.67 1531.48 1642.42 1529.76 1628.25 C 1524.93 1588.45 1559.71 1562.53 1595.52 1558.36 z" fill="rgb(25,23,24)" transform="translate(0,0)"></path>
<path d="M 1384.81 317.278 C 1449.61 335.367 1514.74 378.665 1548.11 438.246 C 1570.59 478.152 1576.13 525.404 1563.49 569.427 C 1548.03 623.6 1503.66 668.576 1457.02 698.13 C 1552.69 566.692 1518.44 417.382 1390.09 325.068 L 1382.26 319.488 L 1384.81 317.278 z" fill="rgb(25,23,24)" transform="translate(0,0)"></path>
<path d="M 396.368 1151.4 C 397.094 1151.42 396.627 1151.34 397.574 1152.16 C 395.548 1154.56 393.659 1157.07 391.918 1159.68 C 388.139 1165.37 385.292 1172.27 384.782 1179.07 C 382.591 1208.26 383.748 1239.59 383.744 1268.97 L 383.74 1332.58 C 383.753 1365.67 379.047 1402.5 410.486 1423.04 L 327.86 1422.77 L 296.116 1422.88 C 325.828 1402.81 319.396 1351.46 319.254 1319.54 L 319.007 1247.44 C 318.991 1224.63 316.303 1199.37 330.541 1180.52 C 346.232 1159.73 372.332 1154.94 396.368 1151.4 z" fill="rgb(25,23,24)" transform="translate(0,0)"></path>
<path d="M 673.565 316.132 L 674.298 316.23 C 674.293 316.248 640.47 342.222 637.497 344.845 C 532.86 437.168 496.834 587.423 594.86 699.174 C 581.299 691.14 572.047 684.545 559.908 674.792 C 466.474 600.566 452.549 485.408 535.911 396.2 C 576.406 352.864 617.24 332.081 673.565 316.132 z" fill="rgb(25,23,24)" transform="translate(0,0)"></path>
<path d="M 1333.46 1275.01 C 1361.22 1264.21 1385.97 1248.22 1412 1234.16 L 1412.19 1280.83 C 1426.35 1257.54 1448.41 1232.37 1479.69 1235.43 C 1493.68 1236.8 1501.4 1247.57 1509.16 1258.06 C 1503.73 1274.36 1499.32 1290.31 1493.54 1306.97 C 1470.96 1286.86 1439.27 1266.54 1413.19 1294.43 C 1410.79 1314.93 1411.69 1358.59 1413.81 1379.53 C 1415.43 1395.59 1424.44 1410.21 1437.89 1419.78 C 1438.76 1420.3 1440.4 1420.93 1440.72 1421.97 C 1440.08 1423.27 1402.93 1422.57 1398.85 1422.16 C 1384.67 1423.61 1339.94 1422.33 1323.86 1422.24 C 1357.27 1403.17 1355.25 1374.85 1355.13 1340.74 C 1355.04 1314.61 1356.9 1292.17 1333.46 1275.01 z" fill="rgb(25,23,24)" transform="translate(0,0)"></path>
<path d="M 1437.89 1419.78 C 1438.76 1420.3 1440.4 1420.93 1440.72 1421.97 C 1440.08 1423.27 1402.93 1422.57 1398.85 1422.16 C 1408.3 1420.88 1434.28 1423.33 1437.89 1419.78 z" fill="rgb(50,45,46)" transform="translate(0,0)"></path>
<path d="M 1019.52 1675.4 C 1011.39 1723.92 986.362 1753.05 934.669 1751.77 C 851.309 1749.7 819.864 1640.24 879.857 1587.64 C 913.314 1558.49 969.632 1545.83 1001.8 1583.79 C 1034.4 1622.26 987.581 1663.95 954.122 1616.91 C 956.846 1606.19 962.668 1594.21 958.862 1583.01 C 954.481 1569.39 933.529 1563.58 921.369 1568.84 C 894.68 1580.39 888.491 1615.74 893.009 1641.26 C 897.788 1667.91 916.142 1693.39 941.442 1704 C 975.134 1718.12 1003.86 1704 1017.33 1671.22 L 1019.52 1675.4 z" fill="rgb(25,23,24)" transform="translate(0,0)"></path>
<path d="M 1772.58 1511.68 C 1771.2 1525.97 1771.73 1548.99 1771.74 1563.88 L 1790.38 1564.13 C 1799.33 1563.6 1808.57 1564.39 1817.5 1563.75 C 1820.9 1563.51 1819.71 1567.71 1818.85 1567.77 C 1808.56 1568.44 1795.91 1568.41 1785.62 1567.98 C 1780.95 1568.22 1776.26 1568.42 1771.58 1568.57 L 1771.9 1640.27 C 1771.9 1662.55 1765.87 1719.74 1799.1 1719.48 C 1810.54 1719.39 1818.65 1711.92 1823.83 1702.25 L 1826.62 1703.06 C 1819.55 1730.51 1797.65 1752.21 1768.25 1752.85 C 1704.39 1754.26 1710.34 1695.47 1710.22 1651.05 L 1710.11 1569.98 C 1705.45 1570.06 1689.25 1571.2 1686.91 1568.19 C 1688.47 1566.62 1694.06 1566.12 1696.53 1565.88 C 1719.3 1563.62 1742.15 1553.15 1756.07 1534.55 C 1760.49 1528.64 1766.53 1519.71 1768.13 1512.97 L 1772.58 1511.68 z" fill="rgb(25,23,24)" transform="translate(0,0)"></path>
<path d="M 1790.38 1564.13 C 1799.33 1563.6 1808.57 1564.39 1817.5 1563.75 C 1820.9 1563.51 1819.71 1567.71 1818.85 1567.77 C 1808.56 1568.44 1795.91 1568.41 1785.62 1567.98 C 1782.19 1564.96 1773.23 1567.45 1772.49 1566.18 C 1773.02 1564.98 1785.74 1565.64 1790.38 1564.13 z" fill="rgb(25,23,24)" transform="translate(0,0)"></path>
<path d="M 1584.46 1186.92 L 1587.07 1188.95 L 1587.28 1237.6 C 1600.54 1237.54 1619.74 1238.03 1632.52 1237.11 L 1634.51 1238.09 L 1634.96 1240.31 C 1633.79 1241.87 1634.4 1241.73 1632.77 1241.87 C 1617.72 1243.16 1602.43 1241.65 1587.17 1242.49 L 1587 1316.37 C 1586.93 1339.55 1580.89 1394.18 1614.98 1393.76 C 1623.86 1393.66 1630.14 1388.36 1635.75 1382.15 L 1639.25 1383.06 L 1638.28 1385.17 C 1634.14 1394.33 1630.21 1400.84 1623.19 1408.27 C 1612.43 1419.82 1597.44 1426.52 1581.66 1426.83 C 1567.71 1427.16 1553.69 1423.3 1543.74 1413.15 C 1523.02 1391.99 1526.48 1358.04 1526.3 1330.97 C 1526.06 1302.35 1526.11 1273.74 1526.46 1245.12 C 1521.62 1245.15 1506.88 1246.75 1503.84 1244.35 C 1510.41 1235.46 1558.75 1246.97 1584.46 1186.92 z" fill="rgb(25,23,24)" transform="translate(0,0)"></path>
<path d="M 1106.7 1559.92 C 1108.04 1563.68 1107.34 1585.43 1107.32 1590.79 L 1107.17 1656.12 C 1107.13 1682.79 1104.37 1721.05 1123.89 1742.08 C 1125.88 1744.22 1132.96 1748.76 1135.7 1750.64 C 1100.86 1751.67 1062.93 1750.98 1027.75 1751.17 C 1025.25 1751.28 1025.36 1751.22 1022.86 1750.91 C 1022.96 1748.74 1028.4 1745.94 1030.82 1743.39 C 1034.77 1739.21 1036.97 1736.69 1039.85 1731.8 C 1043.52 1725.51 1046.1 1718.64 1047.46 1711.48 C 1050.69 1695.04 1050.87 1644.65 1046.68 1627.37 C 1043.9 1615.86 1038.26 1607.54 1027.77 1601.63 C 1058.46 1589.97 1078.44 1574.91 1106.7 1559.92 z" fill="rgb(25,23,24)" transform="translate(0,0)"></path>
<path d="M 1459.44 1477.87 C 1471.14 1475.22 1483.35 1479.12 1491.36 1488.05 C 1499.37 1496.98 1501.92 1509.54 1498.02 1520.89 C 1494.13 1532.23 1484.4 1540.58 1472.59 1542.71 C 1454.89 1545.89 1437.88 1534.35 1434.3 1516.72 C 1430.73 1499.09 1441.89 1481.83 1459.44 1477.87 z" fill="rgb(25,23,24)" transform="translate(0,0)"></path>
<path d="M 1064.99 1477.35 C 1076.66 1475.14 1088.61 1479.36 1096.29 1488.42 C 1103.97 1497.47 1106.19 1509.96 1102.1 1521.1 C 1098.02 1532.25 1088.26 1540.34 1076.54 1542.29 C 1058.72 1545.25 1041.83 1533.32 1038.67 1515.53 C 1035.5 1497.74 1047.24 1480.71 1064.99 1477.35 z" fill="rgb(25,23,24)" transform="translate(0,0)"></path>
<path d="M 1635.75 1382.15 C 1638.92 1377.6 1641.53 1373.11 1644.85 1368.66 C 1643 1373.43 1640.85 1378.25 1639.25 1383.06 L 1635.75 1382.15 z" fill="rgb(50,45,46)" transform="translate(0,0)"></path>
<path d="M 1017.33 1671.22 C 1018.31 1666.59 1019.22 1663.29 1021.03 1658.95 C 1020.57 1663.93 1020.22 1670.66 1019.52 1675.4 L 1017.33 1671.22 z" fill="rgb(50,45,46)" transform="translate(0,0)"></path>
<path d="M 1465.18 538.003 C 1464.91 535.183 1464.27 531.547 1465.92 529.322 C 1466.57 530.01 1466.48 530.142 1466.7 531.117 C 1466.9 533.461 1467.01 535.474 1467.1 537.827 L 1465.18 538.003 z" fill="rgb(106,106,110)" transform="translate(0,0)"></path>
<path d="M 1372.85 313.743 C 1376.83 314.934 1380.83 316.067 1384.81 317.278 L 1382.26 319.488 C 1379.28 318.018 1375.64 315.579 1372.85 313.743 z" fill="rgb(50,45,46)" transform="translate(0,0)"></path>
<path d="M 1584.46 1186.92 C 1584.81 1185.65 1585.45 1181.18 1586.51 1180.5 C 1587.34 1180.77 1587.07 1187.95 1587.07 1188.95 L 1584.46 1186.92 z" fill="rgb(50,45,46)" transform="translate(0,0)"></path>
<path d="M 1849.59 1236.5 C 1850.9 1236.54 1855.03 1236.4 1856.04 1237.24 L 1856.11 1237.44 C 1855.24 1238.5 1852.17 1239.7 1850.77 1240.39 L 1849.59 1236.5 z" fill="rgb(50,45,46)" transform="translate(0,0)"></path>
<path d="M 1823.83 1702.25 C 1824.3 1701.52 1826.68 1696.79 1828.22 1697.57 C 1828.92 1698.76 1827.1 1702.06 1826.62 1703.06 L 1823.83 1702.25 z" fill="rgb(50,45,46)" transform="translate(0,0)"></path>
<path d="M 1768.13 1512.97 C 1770.12 1508.3 1771.2 1504.07 1772.58 1511.68 L 1768.13 1512.97 z" fill="rgb(50,45,46)" transform="translate(0,0)"></path>
<path d="M 578.584 544.079 L 582.345 543.394 L 581.821 544.28 C 579.451 548.365 578.043 550.065 578.584 544.079 z" fill="rgb(206,205,205)" transform="translate(0,0)"></path>
<metadata><recraft-signature>{"signed_by": "recraft", "signature_b64": "IkiswhsJ9e7UWKJ6RZUqUbWWULmYUDr7hxzbtWGx+eNnard7ex1TFTsjcWFnHIhdBE0YFSO6v4AORs2y3iG6Cw==", "signing_algo": "Ed25519", "generation_timestamp": 1772546310, "identifier": "7df1410e-c528-4843-9547-204f31b964c0"}</recraft-signature></metadata></svg>