<svg xmlns="http://www.w3.org/2000/svg" height="1024" preserveAspectRatio="none" style="display: block;" version="1.1" viewBox="0 0 2048 2048" width="1024">
<defs>
	<linearGradient gradientUnits="userSpaceOnUse" id="Gradient1" x1="1242.47" x2="1225.07" y1="1116.56" y2="1031.09">
		<stop class="stop0" offset="0" stop-color="rgb(73,73,73)" stop-opacity="1"></stop>
		<stop class="stop1" offset="1" stop-color="rgb(101,100,100)" stop-opacity="1"></stop>
	</linearGradient>
	<linearGradient gradientUnits="userSpaceOnUse" id="Gradient2" x1="1356.08" x2="1360.83" y1="1129.82" y2="1321.36">
		<stop class="stop0" offset="0" stop-color="rgb(10,9,9)" stop-opacity="1"></stop>
		<stop class="stop1" offset="1" stop-color="rgb(67,66,66)" stop-opacity="1"></stop>
	</linearGradient>
</defs>
<path d="M 0 0 L 2048 0 L 2048 2048 L 0 2048 L 0 0 z" fill="rgb(255,255,255)" transform="translate(0,0)"></path>
<path d="M 402.064 658.661 C 391.631 659.844 366.486 666.191 366.862 649.155 C 367.003 642.757 367.469 613.977 362.05 611.015 C 341.596 599.833 361.424 591.365 364.32 574.34 C 369.539 543.656 342.435 518.306 369.383 491.798 C 420.929 442.211 558.627 541.644 500.828 600.916 C 523.006 632.184 544.207 664.31 513.468 699.611 C 520.115 712.384 525.62 725.72 529.919 739.462 C 537.108 762.086 561.019 859.933 555.856 877.855 C 554.833 881.408 552.477 883.702 549.664 885.966 C 541.902 892.212 532.254 896.558 523.673 901.624 C 512.958 907.949 502.508 914.77 491.953 921.358 C 515.461 953.359 532.379 976.868 551.325 1012.34 C 591.872 817.962 746.215 668.2 935.079 615.844 C 950.492 611.571 966.434 609.452 981.639 605.415 C 980.38 596.891 978.29 584.866 977.768 576.553 C 952.211 568.662 921.299 555.762 932.644 522.526 C 948.54 475.955 1052.4 466.131 1071 510.961 C 1074.61 519.816 1074.44 529.764 1070.53 538.491 C 1064.65 551.529 1052.34 560.05 1040.45 567.062 C 1042.78 577.109 1044.78 587.23 1046.45 597.407 C 1067.1 596.767 1087.78 596.089 1108.43 597.241 C 1238.21 603.42 1361.61 655.299 1456.82 743.701 C 1513.65 797.856 1557.61 864.07 1585.46 937.467 C 1591.21 952.262 1600.76 980.805 1603.66 996.329 C 1621.91 997.757 1635.89 1000.26 1653.43 1003.94 C 1682.09 1009.96 1704.16 1034.23 1671.02 1054.48 C 1622.55 1084.11 1540.64 1105.92 1484.61 1106.76 L 1485.99 1106.2 C 1516.08 1094.23 1651.23 1061.87 1664.65 1035.32 C 1665.85 1032.94 1665.93 1031.63 1665.2 1029.14 C 1611.72 989.022 1192.51 1027.14 1101.31 1036.8 C 1023.85 1045.33 946.533 1055.23 869.414 1066.49 C 834.465 1071.48 798.507 1077.85 763.64 1083.66 C 723.843 1089.96 684.148 1096.9 644.57 1104.45 C 637.696 1099.91 631.552 1095.79 624.293 1091.82 C 649.275 1085.03 684.45 1079.4 709.913 1075 C 754.128 1067.07 798.472 1059.87 842.925 1053.41 C 1082.38 1017.04 1342.44 990.419 1584.76 994.887 C 1551.81 866.805 1469.5 756.972 1355.82 689.387 C 1232.24 615.815 1084.33 594.823 945.159 631.104 C 809.864 665.673 694.002 752.893 623.362 873.349 C 598.597 915.694 579.959 961.441 570.213 1009.45 C 567.707 1021.79 563.173 1032.87 566.772 1044.98 C 572.188 1063.2 580.892 1080.32 581.124 1099.62 L 580.317 1101.01 C 576.548 1101.76 578.321 1101.96 574.811 1100.39 C 569.622 1094.03 567.573 1076.15 564.465 1066.45 C 561.225 1056.47 557.415 1046.68 553.053 1037.13 C 535.182 997.993 510.474 959.957 483.763 926.345 C 473.538 933.486 441.513 956.75 431.837 960.442 C 425.17 953.272 419.398 941.916 414.635 933.259 C 403.854 937.945 394.52 941.881 383.054 945.08 C 382.094 980.955 379.394 1017.49 379.114 1053.25 C 378.653 1112.27 386.275 1173.32 404.455 1229.54 C 412.975 1255.72 425.372 1279.01 435.121 1304.39 C 487.971 1306.61 530.128 1300.86 581.054 1285.22 C 566.99 1277.53 536.106 1258.22 527.585 1244.95 C 527.892 1241.42 527.261 1242.97 529.728 1240.21 C 531.955 1239.67 532.652 1238.95 534.671 1240.61 C 545.316 1249.34 553.928 1258.44 565.7 1265.98 C 572.488 1270.33 591.815 1278.94 595.79 1284.57 C 593.597 1292.65 577.49 1295.8 569.828 1297.89 C 589.472 1329.22 608.69 1360.97 629.479 1391.54 C 641.834 1409.7 657.497 1434.09 673.139 1449.42 C 679.291 1448.61 683.752 1447.36 689.094 1450.81 C 692.942 1453.29 702.558 1468.32 701.884 1472 C 698.965 1487.94 706.083 1501.33 709.045 1516.9 C 710.175 1522.84 714.464 1533.59 712.029 1539.51 C 711.461 1540.71 708.144 1541.56 706.668 1542 C 697.844 1539.64 689.981 1514.79 686.036 1506.29 C 674.211 1536.91 686.546 1551.33 649.498 1561.62 C 662.84 1562.57 699.97 1566.35 710.886 1565.97 L 707.961 1568.05 C 693.002 1566.98 657.686 1569.38 640.991 1569.74 C 598.736 1570.48 556.477 1571 514.216 1571.28 C 368.92 1572.35 223.617 1571.22 78.3552 1567.88 C 73.0623 1568.47 58.1622 1568.9 53.6807 1566.21 C 57.9596 1565.55 59.3819 1565.84 63.7819 1566.22 C 74.4334 1564.5 88.3748 1565.28 98.7709 1562.6 C 100.619 1562.72 97.5977 1557.4 97.9959 1556.95 C 106.63 1547.16 131.226 1536.59 140.891 1528.18 C 151.796 1520.61 158.663 1510.14 167.271 1500.62 C 188.932 1476.67 194.803 1459.08 204.814 1429.05 C 211.003 1410.34 217.327 1391.68 223.787 1373.07 C 235.798 1338.28 253.307 1292.74 263.071 1257.97 L 253.116 1251.35 L 315.922 1104.4 C 340.966 1046.57 358.773 1015.56 371.881 953.118 C 348.749 964.562 315.721 975.7 290.341 982.817 C 278.023 986.271 269.369 977.623 259.839 970.576 C 207.082 971.962 150.608 974.264 99.4751 959.1 C 87.1899 955.457 61.2794 947.071 67.1216 930.442 C 81.5361 918.026 110.087 915.826 129.102 913.76 C 139.452 890.039 155.46 882.58 180.035 893.108 C 182.286 884.114 186.504 876.448 194.591 871.364 C 201.118 867.293 209.012 866.028 216.485 867.855 C 230.469 871.276 238.068 882.232 243.997 894.3 C 252.506 898.239 260.712 903.155 264.12 912.508 C 264.95 914.851 265.715 917.216 266.416 919.6 C 278.573 921.498 297.448 925.386 308.463 930.843 L 310.21 929.513 C 308.031 925.892 306.66 923.695 304.978 919.854 C 314.389 909.516 323.35 901.785 336.863 897.286 L 337.114 896.154 C 349.566 837.048 300.41 814.084 314.854 763.327 C 318.987 748.802 332.438 732.084 339.517 718.37 C 346.638 704.575 349.398 682.156 363.168 674.21 C 373.458 668.271 390.664 662.746 402.064 658.661 z" fill="rgb(53,53,53)" transform="translate(0,0)"></path>
<path d="M 180.035 893.108 C 182.286 884.114 186.504 876.448 194.591 871.364 C 201.118 867.293 209.012 866.028 216.485 867.855 C 230.469 871.276 238.068 882.232 243.997 894.3 C 252.506 898.239 260.712 903.155 264.12 912.508 C 264.95 914.851 265.715 917.216 266.416 919.6 C 278.573 921.498 297.448 925.386 308.463 930.843 C 310.682 935.282 312.799 939.531 315.222 943.875 C 264.891 955.581 172.938 951.476 120.324 944.65 C 111.12 943.456 99.5441 941.15 90.6042 938.645 C 86.0689 937.374 79.8096 932.752 76.2739 932.859 C 71.946 932.71 71.2361 932.164 67.1216 930.442 C 81.5361 918.026 110.087 915.826 129.102 913.76 C 139.452 890.039 155.46 882.58 180.035 893.108 z" fill="rgb(53,53,53)" transform="translate(0,0)"></path>
<path d="M 160.644 898.211 C 161.329 898.171 162.016 898.146 162.703 898.135 C 170.528 898.037 177.816 900.909 183.225 906.626 C 187.94 911.601 190.41 918.291 190.06 925.137 C 189.577 933.161 186.897 935.956 181.234 940.933 L 164.395 940.986 C 148.649 939.794 123.306 941.677 138.816 914.934 C 143.815 906.315 150.664 900.399 160.644 898.211 z" fill="rgb(255,255,255)" transform="translate(0,0)"></path>
<path d="M 227.894 902.284 C 240.381 902.951 255.529 909.774 257.057 923.714 C 257.505 927.512 256.367 931.327 253.91 934.259 C 247.56 941.717 237.191 942.008 228.248 942.687 C 220.217 942.922 212.165 943.97 205.231 939.422 C 201.928 937.286 199.68 933.856 199.04 929.975 C 196.467 914.598 214.864 904.272 227.894 902.284 z" fill="rgb(255,255,255)" transform="translate(0,0)"></path>
<path d="M 205.082 877.108 C 214.694 876.425 230.93 878.889 232.759 890.635 C 228.551 897.043 219.856 891.825 206.881 900.738 L 205.766 901.519 C 201.865 905.19 199.697 907.978 196.34 912.09 C 192.657 905.223 190.699 902.43 186.013 896.143 C 191.601 885.975 194.288 881.985 205.082 877.108 z" fill="rgb(255,255,255)" transform="translate(0,0)"></path>
<path d="M 266.693 939.552 C 267.422 936.733 270.315 930.654 271.981 928.245 L 271.876 928.071 C 278.597 925.468 287.573 933.274 295.467 935.58 L 296.477 936.652 C 291.301 940.252 268.139 943.659 262.022 942.089 L 262.072 940.863 L 262.577 941.204 L 262.747 940.448 L 266.693 939.552 z" fill="rgb(94,94,94)" transform="translate(0,0)"></path>
<path d="M 295.467 935.58 L 296.477 936.652 C 291.301 940.252 268.139 943.659 262.022 942.089 L 262.072 940.863 L 262.577 941.204 L 262.747 940.448 L 266.693 939.552 C 277.688 938.751 285.853 936.357 295.467 935.58 z" fill="rgb(255,255,255)" transform="translate(0,0)"></path>
<path d="M 124.942 924.32 C 126.309 924.295 125.524 924.187 127.227 924.982 C 126.699 928.172 127.666 932.142 128.233 935.449 L 127.418 936.419 C 122.185 936.402 117.738 934.867 112.658 933.505 L 112.504 932.565 C 114.119 931.005 114.721 930.403 116.099 928.644 L 113.151 927.845 L 115.508 929.527 C 112.468 926.93 110.72 927.704 105.982 927.44 L 124.942 924.32 z" fill="rgb(255,255,255)" transform="translate(0,0)"></path>
<path d="M 76.2739 932.859 C 79.8096 932.752 86.0689 937.374 90.6042 938.645 C 99.5441 941.15 111.12 943.456 120.324 944.65 C 172.938 951.476 264.891 955.581 315.222 943.875 C 320.163 942.268 321.337 941.895 325.091 938.368 L 329.793 939.929 L 330.186 941.451 L 327.797 945.374 C 318.552 946.993 306.057 950.018 296.986 951.925 C 268.255 957.965 85.6567 958.426 75.6413 934.063 L 76.2739 932.859 z" fill="rgb(255,255,255)" transform="translate(0,0)"></path>
<path d="M 327.797 945.374 C 324.617 949.545 323.314 950.145 318.887 953.126 C 313.036 954.34 310.462 952.394 305.101 952.347 C 301.923 952.982 298.818 954.099 295.571 954.444 C 259.127 958.31 222.236 957.351 185.656 956.384 C 181.412 955.19 168.637 959.172 166.012 958.295 C 151.009 953.281 79.6474 949.721 73.6946 935.872 L 75.6413 934.063 C 85.6567 958.426 268.255 957.965 296.986 951.925 C 306.057 950.018 318.552 946.993 327.797 945.374 z" fill="rgb(94,94,94)" transform="translate(0,0)"></path>
<path d="M 310.21 929.513 C 322.875 929.685 318.015 931.331 325.091 938.368 C 321.337 941.895 320.163 942.268 315.222 943.875 C 312.799 939.531 310.682 935.282 308.463 930.843 L 310.21 929.513 z" fill="rgb(94,94,94)" transform="translate(0,0)"></path>
<path d="M 78.3552 1567.88 C 73.0623 1568.47 58.1622 1568.9 53.6807 1566.21 C 57.9596 1565.55 59.3819 1565.84 63.7819 1566.22 C 68.6203 1566.93 73.4807 1567.48 78.3552 1567.88 z" fill="rgb(206,205,207)" transform="translate(0,0)"></path>
<path d="M 411.077 1273.92 C 417.218 1283.34 423.504 1302.29 427.749 1313.44 C 451.455 1314.99 474.815 1313.74 498.416 1311.66 C 502.577 1315.99 506.948 1321.22 510.912 1325.92 C 548.852 1370.98 594.582 1412.5 625.243 1462.96 C 629.667 1470.24 630.502 1489.83 630.631 1498.33 C 631.046 1525.73 616.327 1542.58 597.715 1560.62 L 599.103 1560.59 C 540.645 1560.19 483.43 1557.87 424.5 1558.02 C 360.966 1557.58 297.429 1557.78 233.899 1558.61 C 234.459 1551.04 235.543 1528.57 237.165 1522.73 C 245.62 1492.31 250.035 1499.55 239.957 1470.35 C 243.017 1458.42 275.69 1399.47 283.326 1385.62 C 300.548 1354.39 315.941 1321.61 332.379 1290.18 C 345.01 1294.16 406.706 1313.29 417.371 1309.25 C 419.668 1302.88 411.975 1282.6 411.077 1273.92 z" fill="rgb(255,255,255)" transform="translate(0,0)"></path>
<path d="M 394.378 669.964 L 394.941 670.122 C 395.328 671.606 389.032 677.279 387.556 678.786 C 353.7 713.365 332.532 763.829 352.235 811.075 C 353.558 814.25 356.608 820.528 359.993 821.752 C 363.328 819.018 364.307 815.167 366.613 811.694 C 393.305 771.493 434.832 742.047 471.517 711.489 C 477.614 706.41 484.241 700.989 490.744 696.727 L 491.908 695.972 C 501.169 700.851 506.725 705.332 511.253 715.009 C 515.118 723.478 518.358 732.218 520.946 741.16 C 526.501 759.825 552.724 864.031 545.458 876.48 C 542.175 882.104 528.783 887.771 523.2 891.048 C 505.083 901.679 487.383 913.363 469.842 924.919 C 462.275 929.904 452.564 938.963 443.99 941.519 L 442.953 940.368 C 437.557 922.261 434.693 917.114 424.002 901.095 C 432.727 896.231 447.986 889.769 457.578 885.137 C 474.684 876.9 491.453 867.983 507.845 858.407 C 507.947 835.592 496.248 816.308 488.593 794.921 C 473.235 819.234 465.39 842.834 466.117 871.278 C 452.967 878.303 425.472 890.916 411.63 896.529 C 411.576 900.54 411.829 904.113 412.076 908.106 C 390.847 915.955 383.157 915.847 362.102 907.88 C 361.569 902.719 360.316 890.426 354.845 888.795 C 350.363 893.264 352.928 897.929 348.957 900.914 L 347.303 898.948 C 345.235 887.905 348.912 869.439 345.492 854.403 C 338.211 822.391 311.54 797.424 324.551 763.533 C 329.505 750.627 341.175 735 347.297 721.678 C 352.083 711.261 357.861 693.527 364.401 684.619 C 366.575 681.657 389.418 672.286 394.378 669.964 z" fill="rgb(255,255,255)" transform="translate(0,0)"></path>
<path d="M 371.47 992.721 C 372.202 996.07 369.557 1034.22 369.417 1041.28 C 368.967 1065.04 369.686 1088.81 371.572 1112.5 C 373.734 1139.51 377.929 1166.31 384.122 1192.69 C 385.411 1198.04 386.809 1203.44 388.359 1208.71 C 397.132 1238.57 402.211 1269.28 408.76 1299.77 C 381.449 1295.35 354.648 1288.22 328.755 1278.48 C 307.496 1270.71 284.83 1259.68 264.793 1249.19 C 269.814 1235.95 277.944 1219.18 283.644 1205.66 C 299.206 1168.37 314.967 1131.17 330.928 1094.06 C 342.046 1068.43 355.147 1042.93 363.449 1016.25 C 365.906 1008.35 368.639 1000.49 371.47 992.721 z" fill="rgb(255,255,255)" transform="translate(0,0)"></path>
<path d="M 271.85 1262.93 C 290.214 1272.61 303.694 1278.68 322.938 1286.7 C 296.491 1347.45 258.806 1405.46 230.594 1465.74 C 226.018 1475.52 196.73 1519.91 190.128 1526.71 C 175.717 1539.12 165.618 1538.18 148.052 1535.57 C 166.598 1517.46 185.455 1495.64 198.404 1472.9 C 204.064 1462.97 210.341 1443.53 214.12 1432.25 L 232.951 1375.44 C 245.334 1338.89 260.77 1299.31 271.85 1262.93 z" fill="rgb(255,255,255)" transform="translate(0,0)"></path>
<path d="M 560.243 1300.19 L 561.188 1300.36 C 564.873 1308.54 577.532 1328.26 582.71 1336.62 C 600.344 1365.4 618.913 1393.59 638.387 1421.15 C 646.941 1433.04 659.039 1452.61 672.177 1458.58 C 666.421 1495.12 662.839 1514.09 631.014 1535.35 L 636.412 1524.04 C 638.245 1517.47 639.069 1511.38 639.344 1504.57 C 639.884 1491.22 640.231 1475.1 635.28 1462.47 C 622.472 1429.78 537.892 1341.2 509.664 1310.63 C 527.97 1307.85 542.345 1304.64 560.243 1300.19 z" fill="rgb(255,255,255)" transform="translate(0,0)"></path>
<path d="M 390.296 536.327 C 405.599 535.574 416.516 536.792 429.428 545.353 C 427.61 571.675 422.899 578.622 448.212 593.582 C 455.415 628.251 444.879 633.842 413.246 645.309 C 408.112 646.94 402.938 648.441 397.728 649.809 C 391.097 651.596 383.505 654.117 377.358 650.572 C 368.484 639.272 385.658 620.022 361.99 600.43 C 386.952 568.405 353.16 540.912 390.296 536.327 z" fill="rgb(255,255,255)" transform="translate(0,0)"></path>
<path d="M 1008.16 498.382 C 1078.51 499.774 1065.19 551.158 999.945 560.105 C 925.378 562.42 937.959 502.427 1008.16 498.382 z" fill="rgb(255,255,255)" transform="translate(0,0)"></path>
<path d="M 448.807 637.033 C 449.527 637.883 449.35 648.116 450.206 651.748 C 451.754 658.316 452.933 661.008 456.176 667.108 C 417.258 708.274 390.549 738.676 365.907 790.098 L 364.312 792.75 L 363.078 792.744 C 361.931 785.985 364.716 776.483 365.818 769.737 C 371.401 735.557 389.796 705.8 404.843 675.217 C 408.496 667.793 409.64 662.851 410.444 654.776 C 426.385 649.712 435.052 646.328 448.807 637.033 z" fill="rgb(255,255,255)" transform="translate(0,0)"></path>
<path d="M 403.507 487.379 C 444.406 486.186 502.482 526.083 506.689 570.244 C 507.579 579.588 502.596 586.172 496.609 592.642 L 487.976 576.627 C 464.842 535.326 419.767 492.034 368.598 507.785 C 378.513 491.341 385.163 489.582 403.507 487.379 z" fill="rgb(255,255,255)" transform="translate(0,0)"></path>
<path d="M 336.212 906.236 C 350.839 908.068 366.329 921.723 381.327 922.413 C 394.737 923.03 409.677 917.162 422.181 912.553 C 430.794 926.41 432.848 935.651 434.274 951.543 C 426.855 942.341 422.71 933.605 419.585 922.353 C 406.898 928.961 399.867 930.889 386.182 934.842 C 375.562 938.516 331.605 967.153 320.678 961.203 C 328.381 949.465 383.991 925.985 331.425 912.81 C 327.383 914.393 321.944 917.346 317.946 919.364 C 324.323 911.198 326.173 908.003 336.212 906.236 z" fill="rgb(255,255,255)" transform="translate(0,0)"></path>
<path d="M 462.655 673.685 C 466.679 674.896 480.415 686.314 484.451 689.497 C 480.774 692.949 475.728 696.675 471.653 699.762 C 443.015 721.461 415.645 743.017 391.058 769.364 C 386.967 774.062 383.187 778.112 378.859 782.598 C 394.237 752.444 414.228 728.78 436.012 703.239 C 443.983 693.892 453.645 681.74 462.655 673.685 z" fill="rgb(255,255,255)" transform="translate(0,0)"></path>
<path d="M 400.671 670.888 L 401.245 671.566 C 402.232 677.149 390.292 693.705 386.72 698.882 C 364.557 731.002 358.867 752.336 354.587 789.93 C 350.177 778.747 354.59 756.168 357.671 744.974 C 365.262 717.39 379.982 690.8 400.671 670.888 z" fill="rgb(255,255,255)" transform="translate(0,0)"></path>
<path d="M 1021.49 575.391 L 1023.01 575.334 C 1025.01 577.721 1028.45 594.444 1029.56 598.828 C 1021.67 599.181 1011.95 599.794 1004.21 601.002 C 1003.55 601.027 1001.94 600.725 1001.21 600.615 C 997.484 595.401 996.762 584.39 995.977 577.918 C 1004.96 577.269 1012.58 576.617 1021.49 575.391 z" fill="rgb(255,255,255)" transform="translate(0,0)"></path>
<path d="M 487.195 818.643 C 492.712 824.682 497.557 844.226 499.459 852.164 C 494.774 855.497 487.916 859.167 482.783 862.09 L 474.765 866.465 C 476.008 845.459 479.421 838.187 487.195 818.643 z" fill="rgb(255,255,255)" transform="translate(0,0)"></path>
<path d="M 214.668 1532.84 C 216.836 1536.24 218.942 1553.89 219.743 1558.96 L 198.762 1559.4 C 196.881 1559.52 197.791 1559.7 196.047 1558.76 C 196.766 1552.74 210.342 1537.8 214.668 1532.84 z" fill="rgb(255,255,255)" transform="translate(0,0)"></path>
<path d="M 310.913 964.328 C 312.217 964.871 311.615 964.396 312.338 966.134 C 307.132 972.051 287.632 975.035 279.799 974.348 C 278.132 972.783 276.783 971.188 275.278 969.479 C 277.508 968.319 305.441 965.311 310.913 964.328 z" fill="rgb(255,255,255)" transform="translate(0,0)"></path>
<path d="M 1161.28 644.939 C 1291.35 667.746 1398.01 726.669 1474.87 836.013 C 1503.75 876.628 1525.97 921.584 1540.7 969.191 C 1290.27 976.592 1040.64 1001.03 793.532 1042.35 C 744.197 1050.75 694.776 1060.57 646.161 1072.39 C 628.289 1076.74 600.945 1081.6 584.221 1087.7 L 584.609 1086.18 C 588.067 1072.35 589.617 1055.3 592.168 1041.01 C 595.165 1024.23 598.828 1008.38 603.129 992.014 C 634.15 873.97 712.559 775.97 816.43 713.113 C 837.219 700.533 869.259 683.327 892.655 677.55 C 789.591 732.932 722.079 817.381 688.452 929.215 C 682.835 947.896 664.942 1026.49 671.829 1040.75 C 673.33 1043.87 675.911 1045.32 679.131 1046.16 C 693.258 1049.82 820.864 1024.63 847.068 1020.56 C 961.285 1002.64 1076.07 988.531 1191.22 978.262 C 1224.68 975.448 1264.11 971.051 1297.16 969.908 C 1287.61 831.28 1245.07 742.893 1122.41 670.333 C 1202.89 684.517 1264.03 717.314 1319.14 778.203 C 1370.72 835.192 1391.07 888.342 1405.37 962.161 C 1443.4 960.045 1485.02 957.396 1523.05 956.792 C 1513.98 933.901 1505.27 912.659 1493.54 890.927 C 1442.52 795.903 1360.76 721.01 1261.63 678.505 C 1229.18 664.633 1195.52 653.785 1161.08 646.1 L 1161.28 644.939 z" fill="rgb(94,94,94)" transform="translate(0,0)"></path>
<path d="M 1837.44 1158.81 C 1848.45 1141.05 1858.08 1124.54 1880.33 1119.13 C 1900.61 1114.2 1926.96 1121.51 1944.2 1132.46 C 1963.07 1144.54 1976.39 1163.6 1981.23 1185.48 C 1986.32 1208.61 1980.03 1229.38 1967.62 1248.91 C 1947.85 1280.01 1909.11 1297.1 1873.9 1303.72 C 1809.44 1315.84 1737.31 1314.13 1671.73 1313.61 L 1414.45 1309.27 L 1102.4 1304.11 L 924.369 1302.28 C 866.46 1302.12 808.554 1301.35 750.661 1299.97 C 746.511 1297.19 743.201 1302.46 735.525 1296.99 C 768.734 1294.38 813.086 1293.69 846.597 1292.94 C 901.892 1291.65 957.195 1290.7 1012.5 1290.08 C 1193.22 1288.48 1373.94 1288.11 1554.66 1288.97 L 1722.38 1289.39 C 1770.26 1289.57 1821.65 1291.08 1868.83 1283.21 C 1902.31 1277.16 1937.36 1264.97 1957.9 1236.28 C 1979.61 1205.97 1968.78 1158.37 1938.57 1137.97 C 1924.83 1128.7 1902.58 1122.72 1885.95 1126.03 C 1867.72 1129.66 1857.5 1146.72 1848.31 1161.42 C 1855.98 1161.72 1877.55 1161.54 1883.44 1164.55 C 1878.85 1168.46 1851.37 1167.74 1844.05 1167.77 C 1839.36 1178.7 1823.93 1207.53 1830.1 1217.89 C 1842.68 1227.9 1860.66 1206.84 1867.97 1198.46 L 1869.56 1198.69 L 1870.65 1200.75 C 1869.84 1209.74 1845.59 1226.54 1837.27 1226.33 C 1819.57 1225.88 1816.51 1220.07 1816.6 1204.54 C 1811.16 1208.57 1808.49 1211.2 1803.95 1216.25 C 1788.07 1233.92 1768.57 1235.33 1759.66 1211.03 C 1743.53 1226.63 1717.06 1235.45 1718.76 1203.54 C 1710.03 1213.35 1699.53 1224.85 1685.57 1225.27 C 1671.38 1225.7 1668.58 1215.09 1668.8 1203.7 C 1662.39 1210.47 1643.24 1233.1 1631.13 1221.51 C 1626.04 1216.64 1627.58 1206.55 1628.27 1199.97 C 1625.23 1203.6 1623.16 1206.12 1619.71 1209.44 C 1616.9 1210.12 1614.55 1212.68 1612.35 1214.71 C 1610.06 1214.75 1610.98 1215.14 1609.48 1213.83 C 1612.25 1211.24 1615.59 1208.94 1616.56 1205.21 C 1623.71 1196.88 1639.5 1177.63 1642.12 1167.75 L 1644.04 1165.79 C 1643.32 1172.5 1649.07 1166.28 1654.46 1169.01 C 1656.94 1177.81 1637.96 1196.95 1639.08 1214.79 C 1640.95 1217.74 1639.68 1216.77 1643.07 1217.78 C 1652.18 1216.27 1667.06 1199.9 1670.58 1191.1 C 1679.44 1168.9 1688.13 1137.37 1707.64 1121.79 C 1709.49 1120.58 1713.36 1119.56 1715.31 1120.66 C 1728 1127.81 1720.32 1145.87 1715.94 1154.41 C 1709.13 1166.91 1705.88 1171.82 1696.69 1182.39 C 1691.38 1187.31 1689.62 1188.68 1683.52 1192.56 C 1681.42 1200.91 1677.82 1211.69 1685.64 1217.88 C 1698.28 1222.07 1714.36 1199.95 1720.7 1191.04 C 1725.38 1184.47 1732.05 1164.49 1738.69 1162.49 C 1742.17 1162.81 1742.25 1163.16 1745.1 1165.05 C 1751.08 1175.95 1724.93 1199.47 1728.42 1213.45 C 1729.01 1215.79 1730.65 1217.73 1732.86 1218.71 C 1746.5 1224.75 1778.54 1178.71 1783.52 1167.72 C 1786.61 1168.2 1793.46 1168.16 1796.11 1168.98 C 1793.49 1180.65 1802.22 1192.73 1804.57 1207.76 C 1823.91 1192.63 1821.33 1187.25 1831.87 1166.84 C 1826.44 1165.51 1822.85 1165.46 1820.32 1160.08 C 1823.46 1153.47 1832.03 1157.23 1837.44 1158.81 z" fill="url(#Gradient2)" transform="translate(0,0)"></path>
<path d="M 1685.23 1187 C 1691.93 1165.75 1702.09 1144.9 1716.32 1127.67 C 1714.35 1136.38 1713.35 1141.27 1710 1149.43 L 1715.94 1154.41 C 1709.13 1166.91 1705.88 1171.82 1696.69 1182.39 L 1693.04 1179.64 L 1685.23 1187 z" fill="rgb(255,255,255)" transform="translate(0,0)"></path>
<path d="M 1710 1149.43 L 1715.94 1154.41 C 1709.13 1166.91 1705.88 1171.82 1696.69 1182.39 L 1693.04 1179.64 C 1700.84 1170.51 1705.34 1160.34 1710 1149.43 z" fill="rgb(15,15,15)" transform="translate(0,0)"></path>
<path d="M 1782.52 1182.72 C 1785.08 1188.58 1787.7 1200.29 1787.9 1206.77 C 1788.24 1217.85 1784.33 1222.1 1773.35 1220.88 C 1757.7 1206.06 1771.83 1195.05 1782.52 1182.72 z" fill="rgb(255,255,255)" transform="translate(0,0)"></path>
<path d="M 638.675 1116.78 C 673.972 1119.69 606.919 1176.95 602.335 1186.05 C 600.26 1190.16 597.816 1196.21 596.273 1200.74 C 612.187 1185.12 630.684 1166.28 652.515 1159.3 C 655.229 1160.6 657.482 1161.94 660.068 1163.44 C 660.425 1164.05 660.782 1164.67 661.14 1165.28 C 655.005 1172.9 624.453 1207.73 636.55 1216.71 C 652.44 1219.88 671.124 1185.94 681.18 1176.03 C 687.43 1169.35 693.781 1164.54 702.118 1160.75 C 714.067 1154.88 735.064 1160.63 725.972 1176.91 C 716.656 1193.58 699.479 1197.59 682.594 1200.74 C 675.5 1202.06 678.358 1218.17 688.774 1219.08 C 703.459 1220.67 716.585 1209.41 726.245 1199.61 C 729.539 1196.27 736.595 1184.55 740.772 1185.51 C 739.118 1199.28 707.285 1224.26 692.457 1223.77 C 676.477 1223.23 667.085 1222.71 666.613 1204.52 L 665.65 1203.81 C 650.16 1221.82 612.5 1239.81 626.743 1196.76 C 628.747 1190.7 635.607 1179.04 638.693 1172.61 C 619.189 1182.77 603.601 1201.14 590.882 1218.59 C 589.052 1221.1 587.684 1222.94 585.022 1223.27 C 574.765 1217.07 581.112 1205.75 584.508 1196.76 C 593.912 1172.84 599.615 1160.94 614.189 1140.03 C 603.227 1139.03 592.948 1139.18 581.316 1137.97 C 570.181 1159.5 545.464 1216.64 529.878 1230.89 C 523.436 1236.78 515.296 1240.5 506.441 1239.77 C 501.654 1239.38 495.43 1237.63 492.357 1233.64 C 489.942 1230.51 489.811 1226.31 490.535 1222.58 C 491.458 1217.82 493.218 1211.59 497.473 1208.73 C 499.793 1213.4 496.316 1222.42 498.01 1228.4 C 498.546 1230.29 499.808 1232.49 501.611 1233.38 C 503.823 1234.46 505.926 1234.34 508.211 1233.62 C 530.53 1226.67 557.483 1157.26 568.403 1134.89 C 556.242 1131.71 546.018 1129.22 532.58 1127.73 C 509.83 1125.2 474.474 1134.35 471.324 1161.36 C 470.894 1165.05 472.97 1170.1 475.854 1172.81 C 486.576 1182.89 494.887 1173.67 505.935 1173.03 L 506.52 1174.53 C 496.903 1194.26 449.842 1174.38 459.652 1148.92 C 476.862 1104.27 538.466 1120.57 572.46 1130.24 L 574.628 1127.37 C 576.963 1124.28 578.585 1121.36 582.853 1123.24 C 584.101 1126.12 583.401 1130.12 583.151 1133.42 C 586.695 1136 592.743 1134.75 596.797 1135.24 C 617.016 1137.68 623.287 1124.33 638.675 1116.78 z" fill="rgb(15,15,15)" transform="translate(0,0)"></path>
<path d="M 715.445 1164.9 C 716.618 1165.23 716.864 1165.63 717.933 1166.41 C 720.129 1179.52 696.077 1192.81 685.257 1195.93 L 682.973 1195.63 C 681.657 1184.19 705.409 1167.92 715.445 1164.9 z" fill="rgb(255,255,255)" transform="translate(0,0)"></path>
<path d="M 641.587 1124.74 L 642.016 1127.46 C 638.347 1138.23 618.189 1161.62 609.309 1169.95 C 611.872 1157.82 631.565 1133.3 641.587 1124.74 z" fill="rgb(255,255,255)" transform="translate(0,0)"></path>
<path d="M 1077.12 1139.61 C 1081.93 1140.07 1085.23 1141.2 1086.33 1146 C 1085.3 1150.86 1082.43 1154.13 1079.53 1158.27 C 1088.07 1157.9 1093.32 1156.9 1101.44 1159.24 L 1101.9 1160.53 C 1094.3 1165.35 1082.94 1165.2 1074.04 1165.51 C 1068.72 1173.24 1048.54 1208.25 1057.61 1215.8 C 1070.61 1217.85 1093.94 1198.22 1100.63 1187.38 C 1106.95 1177.15 1111.25 1153.11 1125.37 1162.66 C 1126.7 1163.56 1128.48 1166.03 1127.63 1167.69 C 1123.34 1176.08 1104.29 1201.85 1106.15 1211 L 1107.98 1211.57 C 1125.5 1205.56 1149.77 1174.55 1159.12 1158.66 C 1163.8 1160.37 1165.95 1161.77 1170.21 1164.24 C 1166.46 1173.02 1161.51 1182.56 1157 1191.05 C 1143.57 1216.29 1134.96 1243.59 1104.11 1250.32 C 1096.78 1248.26 1091.02 1245.94 1086 1239.86 C 1085.33 1236.68 1085.03 1238.06 1086.52 1235.51 L 1087.91 1235.23 C 1113.79 1261.85 1135.88 1207.73 1144.99 1189.79 C 1134.98 1199.68 1095.83 1241.45 1093.93 1203.25 C 1077.76 1214.67 1042.34 1239.94 1042.7 1200.9 C 1036.69 1206.7 1032.62 1210.06 1026 1215.2 C 1015.84 1222.42 1002.33 1224.34 997.633 1209.27 C 994.107 1197.97 1005.42 1181.77 1011.27 1171.59 C 1008.34 1170.2 1004.35 1168.7 1001.27 1167.44 C 990.935 1183.53 980.118 1200.4 965.368 1213.04 C 958.155 1219.22 944.217 1227.31 937.603 1214.94 C 934.336 1208.82 939.314 1198.72 941.805 1192.69 C 934.963 1199.66 904.095 1235.95 894.923 1215.68 C 883.887 1191.28 928.36 1143.51 953.895 1158 C 957.318 1159.94 960.139 1161.06 964.277 1160.74 C 966.133 1160.59 969.217 1163.37 970.945 1164.58 C 966.276 1172.27 943.274 1206.45 950.164 1215.41 C 966.152 1212.15 987.327 1182.11 994.087 1168.05 C 996.96 1162.07 996.19 1145.69 1005.49 1143.71 C 1008.91 1145.03 1007.72 1143.91 1009.34 1147 C 1009.06 1151.37 1005.93 1156.11 1003.75 1160.17 C 1017.85 1163.49 1022.83 1159.64 1032.43 1161.92 C 1035.22 1171.44 1006.15 1194.42 1008.38 1208.51 C 1010.76 1223.54 1025.33 1209.75 1029.77 1206.46 C 1045.25 1194.97 1051.49 1182.99 1059.16 1166.17 C 1053.86 1165.34 1050.7 1165.64 1047.55 1161.63 C 1048.35 1154.58 1059.26 1157.43 1063.97 1158.14 C 1068.04 1149.77 1069.54 1145.28 1077.12 1139.61 z" fill="rgb(15,15,15)" transform="translate(0,0)"></path>
<path d="M 943.561 1162.98 C 947.12 1163.07 946.891 1162.96 949.984 1164.68 C 951.133 1166.49 952.447 1168.23 951.516 1170.76 C 946.55 1184.26 922.952 1206.38 911.689 1213.12 C 907.814 1214.27 906.211 1213.88 903.664 1211.08 C 901.967 1194.63 929.254 1169.08 943.561 1162.98 z" fill="rgb(255,255,255)" transform="translate(0,0)"></path>
<path d="M 1389.62 1043.45 C 1419.38 1042.36 1526.76 1040.69 1548.45 1048.94 C 1550.78 1049.83 1552.01 1050.37 1552.95 1052.77 C 1543.96 1065.55 1479.13 1055.23 1462.83 1054.88 C 1414.88 1053.82 1367.56 1056.06 1319.71 1058.86 C 1233.27 1063.9 1147 1071.54 1061.02 1081.78 C 1029.27 1086.89 994.018 1090.67 962.122 1093.88 C 944.113 1095.7 918.37 1097.84 900.358 1097.49 C 1057.23 1062.73 1229.16 1048.86 1389.62 1043.45 z" fill="url(#Gradient1)" transform="translate(0,0)"></path>
<path d="M 1433.53 1196.26 C 1427.54 1213.14 1434.45 1227.92 1453.49 1218.25 C 1466.28 1211.55 1476.75 1201.2 1483.91 1187.8 C 1493.4 1170.08 1511.33 1148.44 1534.42 1159.15 C 1542.91 1163.09 1542.17 1180.6 1531.76 1181.57 C 1529.47 1175.85 1534.99 1169.1 1530.55 1164.48 C 1512.03 1157.11 1488.04 1204.12 1494.32 1214.19 C 1509.03 1237.77 1545.77 1197.69 1550.84 1181.69 C 1552.28 1177.13 1559.51 1163.23 1562.36 1161.91 C 1566.05 1162.38 1566.2 1162.2 1569.56 1164.09 C 1575.37 1177.37 1541.28 1212.45 1553.13 1219.12 C 1572.87 1218.69 1588.38 1183.32 1601.73 1170.85 C 1613.35 1160 1632.63 1146.31 1644.04 1165.79 L 1642.12 1167.75 C 1639.5 1177.63 1623.71 1196.88 1616.56 1205.21 C 1615.59 1208.94 1612.25 1211.24 1609.48 1213.83 C 1610.98 1215.14 1610.06 1214.75 1612.35 1214.71 C 1614.55 1212.68 1616.9 1210.12 1619.71 1209.44 C 1606.11 1225.82 1588.95 1234.19 1580.73 1208.05 C 1567.74 1221.13 1539.65 1240.22 1540.98 1206.65 C 1528.37 1217.8 1509.4 1234.3 1490.34 1223.42 C 1483.29 1219.39 1480.92 1211.77 1479.18 1204.2 C 1470.25 1213.44 1460 1223.96 1446.96 1226.52 C 1434.67 1228.93 1418.9 1222.25 1416.76 1208.89 C 1415.35 1200.04 1421.14 1189.54 1426.33 1182.42 C 1433.65 1172.38 1445.28 1160.64 1457.92 1158.23 C 1461.7 1157.64 1465.93 1158.86 1468.88 1161.4 C 1471.66 1163.79 1471.6 1166.79 1471.72 1170.11 C 1471.95 1176.25 1469.84 1182.86 1465.04 1187.07 C 1455.02 1195.85 1445.69 1196.31 1433.53 1196.26 z" fill="rgb(15,15,15)" transform="translate(0,0)"></path>
<path d="M 1616.56 1205.21 C 1611.55 1209.77 1600.9 1221.91 1594.88 1213.58 C 1592.22 1196.81 1615.51 1170.39 1630.96 1165.8 C 1636.04 1164.29 1637.91 1165.38 1642.12 1167.75 C 1639.5 1177.63 1623.71 1196.88 1616.56 1205.21 z" fill="rgb(255,255,255)" transform="translate(0,0)"></path>
<path d="M 1459.91 1164.64 C 1461.92 1164.76 1461.45 1164.8 1463.42 1165.58 C 1466.59 1176.44 1447.26 1188.51 1438.86 1192.21 C 1436.94 1192.37 1437.81 1192.61 1436.26 1191.53 C 1437.84 1181.88 1451.92 1169.58 1459.91 1164.64 z" fill="rgb(255,255,255)" transform="translate(0,0)"></path>
<path d="M 1307.63 1107.38 C 1324.67 1105.88 1357.04 1104.58 1345.79 1133.11 C 1343.36 1139.27 1335.03 1150.37 1328.9 1152.88 C 1325.78 1151.55 1327.01 1152.53 1325 1149.92 C 1325.86 1142.97 1346.24 1127.64 1336.03 1120.55 C 1319.68 1109.2 1235.32 1131.58 1236.81 1153.85 C 1244.33 1168.42 1304.41 1155.65 1321.35 1170.58 C 1352.08 1197.65 1314.5 1221.9 1289.21 1230.58 C 1278.14 1234.38 1268.52 1236.29 1256.23 1237.84 C 1247.17 1238.54 1242.68 1238.1 1233.78 1235.78 C 1211.56 1230 1205.72 1203.21 1228.07 1192.56 L 1229.02 1192.97 C 1224.62 1200.28 1215.91 1211.56 1225.29 1218.79 C 1236.66 1228.52 1250.26 1224.41 1262.16 1225.47 C 1276.56 1228.62 1330.29 1203.05 1324.53 1186.19 C 1315.87 1160.85 1225.22 1193.75 1222.76 1156.48 C 1220.66 1124.61 1283.11 1110.31 1307.63 1107.38 z" fill="rgb(15,15,15)" transform="translate(0,0)"></path>
<path d="M 876.744 1113.43 C 940.381 1113.01 930.562 1162.83 883.399 1181.71 C 869.318 1187.34 854.711 1189.24 839.517 1189.28 C 836.236 1194.68 822.577 1217.98 822.183 1226.47 C 822.073 1228.85 823.997 1226.05 824.703 1230.57 C 821.848 1232.44 821.971 1232.21 818.5 1232.16 C 816.139 1230.65 815.586 1230.8 814.73 1227.4 C 813.64 1223.08 815.8 1212.72 817.762 1208.54 C 829.991 1182.52 844.754 1157.13 859.083 1132.19 C 860.369 1129.95 866.254 1127.46 868.758 1127.56 C 872.912 1127.74 873.155 1128.14 875.705 1130.64 C 876.133 1134.67 875.769 1133.71 873.4 1138.05 C 860.184 1155.4 852.709 1165.99 842.418 1185.23 C 865.008 1182.76 913.075 1164.11 913.859 1138.73 C 914.75 1109.92 845.573 1129.55 832.913 1136.53 C 825.065 1140.86 815.684 1144.92 816.421 1155.39 C 816.623 1158.26 817.154 1156.81 816.01 1159.64 L 813.294 1159.59 C 811.178 1157.4 810.673 1156.62 810.278 1153.4 C 806.606 1123.43 855.407 1115.86 876.744 1113.43 z" fill="rgb(15,15,15)" transform="translate(0,0)"></path>
<path d="M 1369.5 1146.56 C 1373.79 1147.43 1375.78 1147.63 1377.68 1151.76 C 1376.82 1159.58 1366.43 1172.94 1361.65 1181.55 C 1374.77 1167.49 1405.53 1139.94 1412.07 1175.67 C 1416.59 1200.37 1367.83 1239.07 1348.97 1218.84 C 1371.74 1218.39 1380.97 1209.88 1393.09 1191.92 C 1396.47 1186.13 1403.44 1173.56 1399.81 1167.3 C 1389.49 1161.37 1372.75 1179.33 1365.87 1185.87 C 1352.6 1198.5 1343.44 1216.13 1341.54 1234.41 C 1341.18 1237.87 1342.89 1244.17 1342.93 1248.49 C 1334.79 1250.79 1331.1 1245.3 1330.5 1237.9 C 1329.31 1222.39 1336.26 1206.8 1342.72 1193.11 C 1350.53 1176.55 1358.32 1161.14 1369.5 1146.56 z" fill="rgb(15,15,15)" transform="translate(0,0)"></path>
<path d="M 1573.54 1131.05 C 1578.13 1132.61 1584.91 1137.7 1589.23 1140.65 L 1580.43 1148.79 C 1576.73 1151.47 1575.65 1151.76 1571.7 1151.21 C 1565.41 1145.3 1569.08 1136.94 1573.54 1131.05 z" fill="rgb(15,15,15)" transform="translate(0,0)"></path>
<path d="M 1748.21 1133.56 C 1755.66 1134.26 1761.02 1139.29 1767.41 1143.74 L 1760.88 1149.3 C 1757.1 1151.36 1756.47 1151.95 1752.33 1152.55 C 1743.88 1149.55 1745.46 1140.5 1748.21 1133.56 z" fill="rgb(15,15,15)" transform="translate(0,0)"></path>
<path d="M 750.661 1299.97 C 746.404 1300.45 740.311 1300.16 735.927 1300.18 C 702.682 1300.3 669.218 1301.33 635.989 1300.29 C 649.594 1299.03 668.455 1299.04 682.687 1298.46 C 697.192 1297.87 721.693 1296.07 735.525 1296.99 C 743.201 1302.46 746.511 1297.19 750.661 1299.97 z" fill="rgb(94,94,94)" transform="translate(0,0)"></path>
<path d="M 1783.52 1167.72 C 1785.59 1158.81 1792.14 1151.83 1801.83 1152.23 C 1804.69 1154.37 1803.61 1153 1804.74 1156.78 C 1804.06 1159.32 1798.31 1163.09 1796.11 1168.98 C 1793.46 1168.16 1786.61 1168.2 1783.52 1167.72 z" fill="rgb(15,15,15)" transform="translate(0,0)"></path>
<path d="M 710.886 1565.97 C 715.591 1565.85 720.265 1565.37 724.723 1566.63 C 721.804 1569.08 712.1 1568.19 707.961 1568.05 L 710.886 1565.97 z" fill="rgb(206,205,207)" transform="translate(0,0)"></path>
<path d="M 1161.08 646.1 C 1157.94 646.042 1152.58 645.522 1150.07 643.692 C 1153.56 642.341 1157.66 643.8 1161.28 644.939 L 1161.08 646.1 z" fill="rgb(206,205,207)" transform="translate(0,0)"></path>
<metadata><recraft-signature>{"signed_by": "recraft", "signature_b64": "lcR07CLLue1CjTEhHBi7ORlLO+i+juAtWrO+og7CDZoU+5n7YsnOKLAzJHn5N9W3j3wQxyD2BvlnUt3e7RM7Dw==", "signing_algo": "Ed25519", "generation_timestamp": 1772546322, "identifier": "449ef81c-c083-42a8-891d-b9f97d763b89"}</recraft-signature></metadata></svg>