<svg xmlns="http://www.w3.org/2000/svg" height="1024" preserveAspectRatio="none" style="display: block;" version="1.1" viewBox="0 0 2048 2048" width="1024">
<path d="M 0 0 L 2048 0 L 2048 2048 L 0 2048 L 0 0 z" fill="rgb(255,255,255)" transform="translate(0,0)"></path>
<path d="M 619.129 263.928 C 639.046 239.693 652.968 223.583 676.664 202.734 C 763.493 126.335 881.129 85.4485 995.076 74.2401 C 1102.05 63.4774 1209.91 82.774 1306.51 129.96 C 1339.05 145.599 1374.84 166.434 1402.58 189.509 C 1479.65 253.635 1525.51 317.5 1549.89 414.969 C 1566.81 415.975 1582.45 418.506 1593.83 432.42 C 1623.52 468.726 1601.61 502.451 1580.92 533.74 C 1576.4 538.96 1572.45 543.86 1568.19 549.294 C 1559.1 559.024 1546.36 572.012 1538.39 582.151 C 1528.6 642.324 1520.11 669.996 1488.34 722.759 C 1452.01 783.846 1406.12 838.709 1352.41 885.258 C 1336.73 898.947 1320.6 912.117 1304.05 924.749 C 1272.32 949.298 1275.42 945.619 1254.92 980.448 L 1225.83 1029.05 C 1356.65 1165.62 1515.45 1335.18 1511.98 1537.17 C 1510.7 1611.75 1492.89 1683.87 1452.29 1747.07 C 1448.37 1752.68 1445.32 1757.76 1441.8 1763.64 C 1439.62 1767.02 1437.41 1770.39 1435.18 1773.75 C 1433.63 1775.75 1432.13 1777.55 1430.79 1779.69 L 1427.26 1784.89 L 1423.35 1789.8 C 1413.11 1803.84 1397.06 1820.95 1384.52 1833.13 C 1277.08 1937.49 1126.45 1980.79 978.958 1977.28 C 839.306 1973.95 696.052 1921.04 598.337 1818.67 C 538.176 1755.64 490.592 1666.51 480.296 1579.33 C 478.122 1560.92 478.786 1540.33 479.243 1521.74 C 479.217 1521.13 478.981 1515.71 478.791 1515.55 C 461.843 1501.92 445.757 1487.17 429.904 1472.28 C 373.618 1419.38 324.805 1359.05 284.812 1292.96 C 255.227 1243.12 219.996 1173.7 204.719 1117.55 C 143.13 891.164 170.113 627.181 291.661 424.688 C 306.004 400.792 320.112 374.523 337.278 352.844 C 371.319 309.853 411.071 270.237 455.459 237.983 C 473.547 225.42 494.527 214.913 514.243 205.166 C 576.405 174.434 619.734 153.452 638.16 82.1146 C 622.828 91.5347 609.845 91.3309 592.382 103.72 C 562.531 124.899 553.881 146.044 547.118 180.693 C 545.679 137.232 562.209 93.6658 609.432 82.6112 C 621.76 79.7252 633.52 79.2867 644.949 73.3749 C 643.95 79.5975 642.851 85.8035 641.651 91.9904 C 629.972 151.07 591.406 168.809 543.045 192.921 C 532.9 197.98 512.885 211.478 502.833 218.229 C 538.378 211.824 573.806 204.19 601.953 233.746 C 611.753 244.038 613.579 251.614 619.129 263.928 z" fill="rgb(28,37,64)" transform="translate(0,0)"></path>
<path d="M 547.118 180.693 C 545.679 137.232 562.209 93.6658 609.432 82.6112 C 621.76 79.7252 633.52 79.2867 644.949 73.3749 C 643.95 79.5975 642.851 85.8035 641.651 91.9904 C 629.972 151.07 591.406 168.809 543.045 192.921 C 532.9 197.98 512.885 211.478 502.833 218.229 C 538.378 211.824 573.806 204.19 601.953 233.746 C 611.753 244.038 613.579 251.614 619.129 263.928 L 614.463 270.072 C 612.144 273.045 609.623 276.459 607.148 279.243 L 601.257 287.63 L 594.53 297.751 L 588.847 307.311 C 534.12 402.643 519.268 515.734 547.523 621.964 C 585.602 760.28 685.469 872.954 781.858 974.887 C 812.694 1007.5 850.158 1043.96 879.187 1077.8 C 697.284 1141.59 514.958 1296.78 481.678 1494.99 C 481.351 1499.76 480.467 1518.43 479.243 1521.74 C 479.217 1521.13 478.981 1515.71 478.791 1515.55 C 461.843 1501.92 445.757 1487.17 429.904 1472.28 C 373.618 1419.38 324.805 1359.05 284.812 1292.96 C 255.227 1243.12 219.996 1173.7 204.719 1117.55 C 143.13 891.164 170.113 627.181 291.661 424.688 C 306.004 400.792 320.112 374.523 337.278 352.844 C 371.319 309.853 411.071 270.237 455.459 237.983 C 473.547 225.42 494.527 214.913 514.243 205.166 C 576.405 174.434 619.734 153.452 638.16 82.1146 C 622.828 91.5347 609.845 91.3309 592.382 103.72 C 562.531 124.899 553.881 146.044 547.118 180.693 z" fill="rgb(255,255,255)" transform="translate(0,0)"></path>
<path d="M 547.118 180.693 C 545.679 137.232 562.209 93.6658 609.432 82.6112 C 621.76 79.7252 633.52 79.2867 644.949 73.3749 C 643.95 79.5975 642.851 85.8035 641.651 91.9904 C 629.972 151.07 591.406 168.809 543.045 192.921 C 532.9 197.98 512.885 211.478 502.833 218.229 C 538.378 211.824 573.806 204.19 601.953 233.746 C 611.753 244.038 613.579 251.614 619.129 263.928 L 614.463 270.072 C 591.672 243.327 569.433 222.361 533.128 220.364 C 504.744 218.803 497.252 219.351 474.094 235.374 C 463.785 242.573 453.857 250.302 444.348 258.529 C 378.19 315.085 342.885 359.242 301.242 435.1 C 239.989 545.548 202.922 667.757 192.499 793.621 C 188.964 839.607 186.867 884.845 189.464 930.998 C 197.807 1066.86 241.49 1198.18 316.188 1311.96 C 332.317 1336.3 350.956 1358.91 369.203 1381.65 C 402.535 1423.2 442.529 1458.97 481.678 1494.99 C 481.351 1499.76 480.467 1518.43 479.243 1521.74 C 479.217 1521.13 478.981 1515.71 478.791 1515.55 C 461.843 1501.92 445.757 1487.17 429.904 1472.28 C 373.618 1419.38 324.805 1359.05 284.812 1292.96 C 255.227 1243.12 219.996 1173.7 204.719 1117.55 C 143.13 891.164 170.113 627.181 291.661 424.688 C 306.004 400.792 320.112 374.523 337.278 352.844 C 371.319 309.853 411.071 270.237 455.459 237.983 C 473.547 225.42 494.527 214.913 514.243 205.166 C 576.405 174.434 619.734 153.452 638.16 82.1146 C 622.828 91.5347 609.845 91.3309 592.382 103.72 C 562.531 124.899 553.881 146.044 547.118 180.693 z" fill="rgb(169,177,189)" transform="translate(0,0)"></path>
<path d="M 478.808 257.856 C 530.394 258.76 549.467 289.983 594.53 297.751 L 588.847 307.311 C 550.516 302.854 541.426 292.135 509.318 272.835 C 501.976 268.422 488.046 263.679 479.575 260.841 L 478.808 257.856 z" fill="rgb(169,177,189)" transform="translate(0,0)"></path>
<path d="M 506.176 237.832 C 538.167 238.929 561.972 243.684 588.852 263.171 C 595.884 268.268 599.854 274.675 607.148 279.243 L 601.257 287.63 C 579.573 260.317 539.491 243.826 505.737 239.273 L 506.176 237.832 z" fill="rgb(169,177,189)" transform="translate(0,0)"></path>
<path d="M 505.737 239.273 C 502.628 239.223 500.495 239.549 497.88 237.957 L 499.045 236.991 C 502.85 236.793 502.727 236.851 506.176 237.832 L 505.737 239.273 z" fill="rgb(222,223,227)" transform="translate(0,0)"></path>
<path d="M 479.575 260.841 C 477.226 260.329 476.089 259.838 473.829 258.973 L 474.193 258.253 L 478.808 257.856 L 479.575 260.841 z" fill="rgb(169,177,189)" transform="translate(0,0)"></path>
<path d="M 324.799 806.769 C 328.671 810.89 335.633 844.008 337.429 851.725 C 363.273 962.783 287.334 990.586 238.622 1069.9 L 237.759 1071.32 L 231.047 1084.85 C 235.996 1065.49 243.393 1044.31 244.488 1024.2 C 245.135 1012.32 243.378 994.724 241.974 982.755 C 237.679 946.14 241.134 916.512 259.679 884.203 C 271.293 864.307 287.926 848.09 303.755 831.594 C 311.271 823.761 319.356 816.25 324.799 806.769 z" fill="rgb(169,177,189)" transform="translate(0,0)"></path>
<path d="M 319.636 830.743 C 321.031 832.157 320.969 832.851 321.489 835.054 C 346.495 940.8 288.929 978.743 242.338 1058.72 C 240.889 1060.93 241.394 1060.33 239.538 1062.06 C 239.095 1058.6 243.39 1045.7 244.499 1041.47 C 246.868 1032.56 248.437 1023.45 249.187 1014.26 C 250.851 994.887 248.709 973.786 250.655 953.686 C 254.399 914.993 275.203 887.938 298.347 858.433 C 305.124 849.793 312.272 838.588 319.636 830.743 z" fill="rgb(255,255,255)" transform="translate(0,0)"></path>
<path d="M 311.041 852.673 L 312.278 853.214 C 301.152 880.53 292.685 918.303 284.655 946.919 C 278.937 967.778 271.625 988.168 262.784 1007.91 C 260.186 1013.85 253.664 1029.15 250.098 1034.3 C 250.401 1030.81 260.749 1003.19 262.483 998.565 C 280.444 950.686 290.546 899.417 311.041 852.673 z" fill="rgb(169,177,189)" transform="translate(0,0)"></path>
<path d="M 311.041 852.673 L 312.1 849.399 L 313.52 848.68 C 313.77 851.697 313.886 850.185 312.278 853.214 L 311.041 852.673 z" fill="rgb(222,223,227)" transform="translate(0,0)"></path>
<path d="M 408.646 1137.73 C 410.042 1143.42 410.373 1149.36 411.599 1155.11 C 415.981 1175.62 422.038 1196.18 421.499 1217.35 C 419.879 1281.03 365.258 1294.32 366.186 1355.8 L 359.013 1340.5 C 345.827 1313.85 331.856 1282.41 331.385 1252.28 C 330.493 1195.22 372.854 1174.64 407.371 1139.05 L 408.646 1137.73 z" fill="rgb(169,177,189)" transform="translate(0,0)"></path>
<path d="M 402.755 1154.88 C 405.097 1157.39 396.407 1175.59 395.1 1179.3 C 381.966 1216.56 364.469 1253.22 359.476 1292.77 C 357.618 1307.49 357.947 1322.39 357.946 1337.2 L 353.382 1322.28 C 348.694 1305.71 343.474 1289.86 342.203 1272.54 C 338.217 1218.24 370.281 1192.33 402.755 1154.88 z" fill="rgb(255,255,255)" transform="translate(0,0)"></path>
<path d="M 403.476 1161.8 C 403.769 1162.19 404.13 1162.54 404.356 1162.97 C 406.802 1167.65 406.183 1181.25 406.537 1186.94 C 409.191 1229.47 400.237 1252.63 380.279 1289.23 C 372.91 1302.74 366.353 1315.63 362.764 1330.69 C 362.142 1330.88 361.466 1330.63 360.821 1330.55 C 360.682 1330.25 360.509 1329.96 360.404 1329.64 C 359.037 1325.52 360.206 1319.2 360.572 1314.82 C 363.576 1278.8 374.942 1246.75 386.265 1212.75 C 391.916 1195.79 397.09 1178.5 403.476 1161.8 z" fill="rgb(255,255,255)" transform="translate(0,0)"></path>
<path d="M 267.446 733.315 C 281.794 732.731 295.823 735.471 311.425 734.393 C 298.673 750.656 293.542 761.548 284.319 779.623 C 274.659 798.554 243.329 806.021 223.673 812.995 C 210.23 819.501 207.39 822.7 199.795 835.439 C 208.481 789.917 210.975 740.799 267.446 733.315 z" fill="rgb(169,177,189)" transform="translate(0,0)"></path>
<path d="M 274.529 741.359 C 282.05 740.812 289.624 740.408 297.036 742.018 L 297.556 743.054 C 286.449 760.855 270.832 786.233 251.342 794.617 C 238.705 800.052 228.518 803.906 216.831 811.647 C 210.437 815.571 207.288 821.29 202.93 827.469 C 214.009 780.272 219.871 748.566 274.529 741.359 z" fill="rgb(255,255,255)" transform="translate(0,0)"></path>
<path d="M 291.497 742.979 L 292.401 743.143 C 292.048 746.887 278.734 754.514 275.165 757.077 C 254.585 771.86 229.938 785.35 214.988 806.261 L 214.432 806.711 C 215.114 786.297 274.779 750.905 291.497 742.979 z" fill="rgb(169,177,189)" transform="translate(0,0)"></path>
<path d="M 420.31 355.305 C 458.502 351.246 478.952 368.774 515.932 372.496 C 493.594 390.215 477.091 416.469 449.605 429.306 C 414.677 445.619 381.275 440.716 344.453 436.923 C 338.654 436.326 322.123 436.723 318.095 435.329 C 365.798 430.753 383.433 437.44 432.741 421.099 C 446.332 415.695 492.251 388.003 497.857 377.483 C 493.977 376.564 497.502 377.268 494.727 376.995 C 480.947 375.639 470.603 371.376 455.869 369.857 C 407.65 364.886 376.972 382.399 341.086 412.258 C 335.417 416.975 330.95 422.25 325.45 426.694 C 326.121 424.445 327.222 422.764 328.73 420.933 C 354.666 389.431 377.963 361.507 420.31 355.305 z" fill="rgb(169,177,189)" transform="translate(0,0)"></path>
<path d="M 403.496 548.293 C 366.404 539.267 331.556 531.093 296.949 552.426 C 274.069 566.529 252.167 595.978 241.501 620.165 C 240.047 613.564 252.342 594.266 255.463 587.83 C 269.721 558.428 290.163 535.431 322.801 527.468 C 358.139 518.846 386.78 540.007 419.935 542.241 L 421.548 542.359 L 422.517 542.415 L 421.214 543.435 C 410.701 551.77 394.585 569.255 383.739 579.098 C 338.485 620.165 302.826 617.328 248.667 623.981 L 248.615 622.619 C 257.656 620.794 267.13 616.43 275.37 614.588 C 326.894 603.073 364.177 584.06 403.496 548.293 z" fill="rgb(169,177,189)" transform="translate(0,0)"></path>
<path d="M 475.502 1287.47 C 487.692 1342.84 491.816 1360.62 461.873 1412.75 C 456.626 1421.88 450.747 1434.88 450.117 1445.62 L 449.518 1445.99 C 450.56 1420.37 459.453 1404.83 466.394 1381.72 C 470.827 1366.96 474.304 1322.52 471.534 1306.94 L 470.481 1307.07 C 468.51 1310.73 465.006 1323.88 463.566 1328.7 C 456.524 1352.31 442.049 1391.72 441.961 1415.99 L 440.591 1419.99 C 439.233 1416.8 439.823 1408.78 439.855 1404.78 C 442.579 1371.01 454.803 1341.19 467.965 1310.37 C 443.008 1338.04 419.84 1356.99 422.729 1397.73 C 423.303 1405.81 424.708 1416.58 428.185 1423.88 L 430.871 1429.61 L 429.991 1429.51 C 418.281 1409.73 413.326 1384.14 418.881 1361.62 C 424.453 1339.03 442.802 1325.34 457.948 1309.27 C 463.93 1302.92 470.152 1294.56 475.502 1287.47 z" fill="rgb(169,177,189)" transform="translate(0,0)"></path>
<path d="M 262.218 1151.39 C 259.795 1092.52 292.501 1084.68 338.742 1062.73 C 329.924 1084.53 331.933 1086.04 328.365 1108.45 C 323.572 1138.55 291.339 1155.72 269.401 1176.83 L 268.537 1177.03 C 274.058 1164.11 297.214 1148.85 306.774 1133.97 C 319.66 1113.91 317.353 1097.86 324.366 1080.86 C 315.913 1083.51 306.958 1088.73 299.144 1093 C 274.816 1106.29 263.12 1129.38 263.885 1157.25 L 262.218 1151.39 z" fill="rgb(169,177,189)" transform="translate(0,0)"></path>
<path d="M 249.497 618.713 C 280.217 581.562 325.399 571.887 369.21 557.75 C 378.5 554.752 385.179 553.071 394.824 551.662 C 353.76 575.684 285.644 579.612 250.15 620.083 L 249.497 618.713 z" fill="rgb(169,177,189)" transform="translate(0,0)"></path>
<path d="M 486.516 380.422 L 487.714 380.354 C 473.418 391.277 377.957 412.61 356.916 414.275 C 355.913 413.889 356.336 414.225 355.75 413.152 C 367.032 408.645 391.383 402.903 404.199 399.624 C 430.879 392.798 459.445 384.643 486.516 380.422 z" fill="rgb(169,177,189)" transform="translate(0,0)"></path>
<path d="M 315.549 1088.87 L 316.036 1089.22 C 316.039 1092.47 276.163 1147.27 273.551 1156.42 C 273.129 1157.9 267.81 1168.15 266.55 1170.11 L 265.789 1169.65 C 272.123 1142.74 297.26 1108.65 315.549 1088.87 z" fill="rgb(169,177,189)" transform="translate(0,0)"></path>
<path d="M 439.855 1404.78 C 439.823 1408.78 439.233 1416.8 440.591 1419.99 L 441.961 1415.99 C 441.835 1425.78 443.143 1432.35 443.818 1441.99 C 439.056 1436.4 438.529 1412.69 439.855 1404.78 z" fill="rgb(222,223,227)" transform="translate(0,0)"></path>
<path d="M 249.497 618.713 L 250.15 620.083 L 248.615 622.619 L 248.667 623.981 C 243.334 627.343 238.123 634.037 235.039 639.569 L 232.277 640.255 C 238.643 631.13 241.889 626.914 249.497 618.713 z" fill="rgb(152,164,179)" transform="translate(0,0)"></path>
<path d="M 262.218 1151.39 L 263.885 1157.25 C 264.091 1159.86 264.023 1159.69 263.005 1162.14 C 261.458 1158.13 261.985 1155.81 262.218 1151.39 z" fill="rgb(222,223,227)" transform="translate(0,0)"></path>
<path d="M 235.039 639.569 C 232.402 642.591 233.262 642.602 230.166 643.169 L 230.33 641.489 L 232.277 640.255 L 235.039 639.569 z" fill="rgb(222,223,227)" transform="translate(0,0)"></path>
<path d="M 1034.12 184.989 C 1191.03 154.634 1345.55 272.106 1377.21 424.568 C 1378.6 431.282 1379.54 438.515 1380.55 445.323 C 1381.73 452.291 1382.87 462.473 1383.03 469.446 C 1385.59 498.819 1385 554.945 1377.87 583.2 C 1375.31 593.37 1347.59 641.379 1340.91 653.855 C 1308.86 714.638 1276.38 775.194 1243.47 835.517 L 1216.9 885.515 C 1214.83 889.329 1205.81 906.137 1203.77 908.078 C 1187.14 923.87 1155.27 942.505 1135.38 953.383 C 1119.11 933.04 1098.96 913.377 1081.51 893.83 C 978.683 778.674 847.22 669.909 816.16 510.891 C 803.285 444.978 813.892 365.104 851.888 309.454 C 854.294 305.905 856.75 302.391 859.257 298.913 L 860.092 297.636 C 897.76 240.991 960.077 200.276 1026.32 186.461 C 1026.95 186.182 1033.05 185.176 1034.12 184.989 z" fill="rgb(255,255,255)" transform="translate(0,0)"></path>
<path d="M 1034.12 184.989 C 1191.03 154.634 1345.55 272.106 1377.21 424.568 C 1378.6 431.282 1379.54 438.515 1380.55 445.323 L 1379.89 446.93 C 1378 447.565 1376.07 446.217 1374.1 444.912 C 1345.97 426.267 1314.41 404.526 1283.68 390.251 C 1177.71 341.031 1068.13 302.716 950.513 297.333 C 915.832 295.746 891.684 298.709 859.257 298.913 L 860.092 297.636 C 897.76 240.991 960.077 200.276 1026.32 186.461 C 1026.95 186.182 1033.05 185.176 1034.12 184.989 z" fill="rgb(255,255,255)" transform="translate(0,0)"></path>
<path d="M 1026.32 186.461 C 1026.95 186.182 1033.05 185.176 1034.12 184.989 C 1023.67 201.32 1006.51 204.438 991.935 214.887 C 972.931 228.512 954.733 244.188 936.693 259.121 L 934.722 257.516 C 959.361 232.891 984.839 212.8 1015.07 195.298 C 1018.45 193.336 1025.38 190.739 1027.62 187.938 L 1026.32 186.461 z" fill="rgb(169,177,189)" transform="translate(0,0)"></path>
<path d="M 936.693 259.121 C 933.161 262.281 931.238 263.902 927.339 266.57 L 926.572 265.485 L 925.676 267.002 C 926.968 263.742 931.877 260.035 934.722 257.516 L 936.693 259.121 z" fill="rgb(222,223,227)" transform="translate(0,0)"></path>
<path d="M 1266.53 290.942 C 1220.46 277.928 1192.49 243.204 1142 272.05 C 1131.93 277.804 1122.7 284.424 1113.98 292.228 C 1110.56 295.284 1107.55 299.42 1104.23 302.184 C 1104.63 296.498 1126.9 274.543 1132.09 269.992 C 1147.94 256.078 1165.95 248.148 1187.31 249.851 C 1214.4 252.011 1233.72 268.134 1256.09 281.362 C 1264.43 286.291 1272.83 289.747 1281.78 293.35 L 1280.23 294.005 C 1267.8 299.363 1257.06 306.659 1245.17 312.371 C 1219.32 324.813 1189.92 327.776 1162.11 320.741 C 1152.46 318.27 1144.53 314.579 1135.91 312.109 L 1135.85 310.809 C 1174.99 319.766 1200.34 322.424 1238.34 305.39 C 1246.53 301.723 1255.57 298.008 1263.17 293.162 C 1264.3 292.444 1265.42 291.704 1266.53 290.942 z" fill="rgb(169,177,189)" transform="translate(0,0)"></path>
<path d="M 1117.61 297.731 C 1159.95 277.801 1177.32 283.293 1222.93 288.824 C 1234.94 290.28 1250.46 290.371 1262.13 292.696 C 1249.06 294.603 1238.41 296.118 1225.02 295.475 C 1191.97 293.888 1149.02 282.297 1118.08 299.449 L 1117.61 297.731 z" fill="rgb(169,177,189)" transform="translate(0,0)"></path>
<path d="M 1031.52 190.92 C 1019.88 233.872 976.869 253.501 941.708 272.507 L 940.952 271.342 C 967.043 257.876 992.814 236.5 1012.79 214.888 C 1019.97 207.117 1025.11 198.329 1031.52 190.92 z" fill="rgb(169,177,189)" transform="translate(0,0)"></path>
<path d="M 957.354 273.42 C 1002.2 262.794 1024.58 241.968 1034.95 196.476 C 1035.36 194.676 1036.41 189.242 1037.68 188.537 C 1038.55 207.755 1027.53 236.735 1014.12 251.098 C 1000.21 265.985 978.816 274.489 958.764 275.427 C 957.465 274.77 958.085 275.303 957.354 273.42 z" fill="rgb(169,177,189)" transform="translate(0,0)"></path>
<path d="M 940.952 271.342 L 941.708 272.507 L 940.938 273.635 C 945.156 275.256 952.719 274.059 957.354 273.42 C 958.085 275.303 957.465 274.77 958.764 275.427 C 954.597 276.933 939.569 275.259 932.617 276.168 C 933.39 274.584 938.861 272.375 940.952 271.342 z" fill="rgb(191,194,203)" transform="translate(0,0)"></path>
<path d="M 1135.91 312.109 C 1133.3 311.48 1130.94 311.289 1129.13 309.448 C 1131.72 308.753 1133.29 309.781 1135.85 310.809 L 1135.91 312.109 z" fill="rgb(222,223,227)" transform="translate(0,0)"></path>
<path d="M 1117.61 297.731 L 1118.08 299.449 C 1115.64 300.781 1116.6 300.511 1113.77 300.7 L 1114.03 299.437 L 1117.61 297.731 z" fill="rgb(222,223,227)" transform="translate(0,0)"></path>
<path d="M 859.257 298.913 C 891.684 298.709 915.832 295.746 950.513 297.333 C 1068.13 302.716 1177.71 341.031 1283.68 390.251 C 1314.41 404.526 1345.97 426.267 1374.1 444.912 C 1376.07 446.217 1378 447.565 1379.89 446.93 L 1380.55 445.323 C 1381.73 452.291 1382.87 462.473 1383.03 469.446 C 1374.28 466.799 1351.8 449.148 1341.7 443.334 C 1320.34 431.04 1299.04 418.059 1277.03 406.809 C 1145.78 339.052 999.541 305.563 851.888 309.454 C 854.294 305.905 856.75 302.391 859.257 298.913 z" fill="rgb(169,177,189)" transform="translate(0,0)"></path>
<path d="M 1061.97 355.525 C 1080.78 361.884 1088.3 408.855 1096.03 425.04 C 1112.28 459.065 1139.52 476.246 1155.68 510.936 C 1157.76 476.591 1169.93 450.2 1154.9 413.613 C 1143.77 386.54 1118.68 372.334 1093.01 360.961 C 1087.98 358.735 1080.29 359.218 1074.38 356.817 L 1074.75 356.555 C 1081.85 355.184 1095.91 359.833 1103.5 361.878 C 1161.54 381.792 1185.38 414.074 1170.36 477.594 C 1165.23 499.296 1158.74 508.724 1158.73 531.991 C 1151.48 521.542 1148.32 511.102 1139.67 500.18 C 1126.11 483.071 1103.18 463.049 1093.89 443.922 C 1075.15 405.335 1092.75 392.012 1061.97 355.525 z" fill="rgb(169,177,189)" transform="translate(0,0)"></path>
<path d="M 1289.67 434.947 C 1302.99 486.676 1272.11 519.825 1306.34 574.298 C 1309.07 578.633 1312.99 588.97 1315.36 592.793 C 1316.71 596.637 1316.48 598.629 1314.34 602.16 C 1303.65 576.916 1289.28 569.187 1280.29 541.329 C 1267.9 502.912 1296.64 469.74 1287.55 436.162 L 1289.67 434.947 z" fill="rgb(169,177,189)" transform="translate(0,0)"></path>
<path d="M 1317.8 447.429 C 1336.67 467.41 1345.03 487.202 1345.16 514.886 C 1345.33 551.155 1324.46 568.49 1318.83 599.078 L 1316.4 593.233 C 1318.11 575.504 1330.47 552.312 1333.94 531.286 C 1339.06 500.315 1334.82 475.174 1316.87 449.146 L 1317.8 447.429 z" fill="rgb(169,177,189)" transform="translate(0,0)"></path>
<path d="M 1086.37 364.703 C 1098.29 367.199 1125.93 390.619 1134.18 401.002 C 1154.49 426.576 1158.75 448.8 1155.79 480.115 C 1155.41 479.98 1155.02 479.844 1154.63 479.709 C 1152.35 466.617 1148.81 444.593 1144.48 433.139 C 1132.66 401.898 1111.57 384.113 1086.37 364.703 z" fill="rgb(169,177,189)" transform="translate(0,0)"></path>
<path d="M 1308.53 448.681 C 1331.62 470.214 1317.81 546.221 1316.92 575.588 L 1316.59 576.009 C 1311.19 573.317 1317.32 492.072 1316.67 481.55 C 1315.85 468.275 1313.64 460.998 1308.53 448.681 z" fill="rgb(169,177,189)" transform="translate(0,0)"></path>
<path d="M 1315.36 592.793 L 1316.4 593.233 L 1318.83 599.078 C 1318.76 604.338 1317.82 609.568 1317.07 614.791 L 1314.34 602.16 C 1316.48 598.629 1316.71 596.637 1315.36 592.793 z" fill="rgb(222,223,227)" transform="translate(0,0)"></path>
<path d="M 1287.55 436.162 C 1286.1 431.492 1280.83 422.145 1278.34 416.991 L 1278.86 417.023 C 1283.79 424.08 1285.93 427.286 1289.67 434.947 L 1287.55 436.162 z" fill="rgb(169,177,189)" transform="translate(0,0)"></path>
<path d="M 1316.87 449.146 C 1312.88 444.583 1308.36 442.349 1305.07 436.526 C 1310.92 440.746 1312.78 442.276 1317.8 447.429 L 1316.87 449.146 z" fill="rgb(222,223,227)" transform="translate(0,0)"></path>
<path d="M 939.283 1093.27 C 866.85 1014.57 789.356 940.927 720.1 859.309 C 711.222 848.846 702.137 838.765 693.721 827.896 C 657.887 781.804 627.195 731.936 602.189 679.18 C 558.167 586.435 553.434 479.85 589.063 383.568 C 679.068 137.872 1007.02 50.79 1236.01 135.433 C 1353.44 178.841 1456.21 255.335 1503.77 374.788 C 1510.12 390.731 1514.22 406.89 1521.5 422.651 C 1515.44 425.574 1508.59 429.935 1502.72 433.466 C 1492.24 377.6 1455.38 319.421 1418.23 277.619 C 1370.02 223.375 1310.91 187.091 1243.85 160.567 C 1225.74 153.406 1199.95 141.816 1181.1 137.891 C 1205.35 150.869 1230.58 159.306 1256.65 174.39 C 1337.24 220.478 1396.34 296.568 1421.05 386.061 C 1429.9 419.243 1436.88 474.802 1431.14 509.738 C 1430.43 514.031 1417.99 534.724 1414.77 540.298 C 1415.3 525.21 1416.89 510.085 1416.59 495.018 C 1414.53 390.92 1384.09 312.559 1308.66 239.759 C 1249.79 182.188 1161.7 143.49 1078.84 145.171 C 911.264 148.572 772.049 292.652 779.16 461.579 C 785.013 600.628 856.819 694.501 946.15 793.566 C 972.437 823.02 999.048 852.183 1025.98 881.05 L 1107.11 966.99 C 1119.52 980.335 1136.12 1000.72 1148.79 1012.53 C 1145.26 1019.7 1141.81 1025.82 1137.84 1032.76 C 1124.96 1020.2 1109.52 1002.81 1096.99 989.47 C 1065.1 955.752 1033.51 921.744 1002.24 887.452 C 892.273 769.226 778.566 664.091 758.46 495.106 C 747.582 403.675 766.213 329.161 822.355 254.388 C 870.142 190.743 956.29 138.034 1035.82 128.652 L 1033.35 126.661 C 1007.52 128.094 972.613 130.551 947.312 134.973 C 917.327 140.483 887.87 148.557 859.265 159.104 C 750.115 198.692 660.41 268.132 615.483 378.235 C 593.324 432.543 585.144 477.118 588.18 535.496 C 597.461 713.968 739.068 851.936 855.631 972.71 C 912.466 1030.89 968.026 1090.31 1022.27 1150.92 C 1032.39 1162.32 1045.21 1174.96 1054.46 1185.94 L 1044.54 1206.21 C 1031.07 1191.74 1018.35 1177.13 1004.67 1162.6 C 991.414 1148.54 973.92 1130.99 961.77 1116.21 C 949.617 1118.11 931.12 1125.17 919.519 1130.16 C 730.491 1211.37 592.573 1376.29 629.589 1592.16 C 646.619 1689.24 687.122 1775.15 768.669 1834.36 C 910.387 1937.26 1108.14 1919.84 1212.15 1771.62 C 1274.23 1683.15 1283.38 1564.65 1239.76 1465.91 C 1208.54 1395.24 1143.42 1310.38 1087.87 1256.37 L 1099.28 1236.34 C 1186.99 1336.36 1274.93 1431.56 1286.73 1571.11 C 1295.75 1677.75 1257.4 1773.32 1176.78 1843.93 C 1124.06 1890.09 1059.06 1918.78 987.687 1919.17 L 987.065 1920.47 C 989.438 1920.92 991.703 1921.36 994.061 1921.91 L 996.005 1921.95 C 1120.63 1924.4 1253.82 1883.5 1344.64 1795.69 C 1414.4 1728.25 1455.72 1643 1457.37 1545.21 C 1457.99 1487.41 1446.41 1430.13 1423.39 1377.1 C 1415.9 1359.54 1407.19 1343.19 1397.68 1326.65 C 1343.44 1232.22 1270.41 1152.41 1195.18 1074.39 C 1199.27 1067.14 1202.88 1061.53 1207.51 1054.59 C 1216.08 1065.17 1224.89 1074.36 1234.19 1084.25 C 1319.89 1175.42 1409.76 1275.31 1454.2 1394.4 C 1490.7 1490.73 1487.62 1597.59 1445.62 1691.65 C 1399.14 1793.47 1307.28 1869.14 1203.44 1907.76 C 1058.34 1961.82 897.686 1955.9 756.962 1891.3 C 651.77 1844.3 569.854 1757.03 529.597 1649.08 C 501.233 1572.16 501.402 1492.38 535.424 1417.27 C 598.637 1277.71 723.812 1175.41 863.31 1117.72 C 889.128 1107.04 913.121 1102.91 938.138 1093.7 L 939.283 1093.27 z" fill="rgb(255,255,255)" transform="translate(0,0)"></path>
<path d="M 956.699 1919.2 C 967.028 1919.02 977.358 1919.01 987.687 1919.17 L 987.065 1920.47 C 989.438 1920.92 991.703 1921.36 994.061 1921.91 C 983.327 1922.19 966.979 1921.63 956.699 1919.2 z" fill="rgb(100,103,123)" transform="translate(0,0)"></path>
<path d="M 1033.35 126.661 C 1037 125.946 1051.97 124.897 1055.41 125.727 C 1048.3 127.277 1043.08 127.856 1035.82 128.652 L 1033.35 126.661 z" fill="rgb(77,82,99)" transform="translate(0,0)"></path>
<path d="M 873.749 1133.45 L 875.014 1134.97 C 873.922 1135.42 872.833 1135.89 871.748 1136.36 C 841.321 1149.53 779.267 1185.15 754.704 1207.1 C 707.176 1249.57 646.678 1324.54 623.982 1383.35 C 555.714 1560.25 632.184 1797.37 806.416 1882.69 C 823.2 1890.91 838.526 1896.55 855.728 1903.26 L 855.654 1903.69 C 834.918 1899.95 815.741 1892.45 796.133 1884.66 C 620.766 1814.98 475.57 1622.28 553.531 1429.7 C 608.818 1293.13 739.819 1189.44 873.749 1133.45 z" fill="rgb(28,37,64)" transform="translate(0,0)"></path>
<path d="M 699.558 1249.31 C 698.814 1252.44 698.043 1253.29 696.321 1255.94 C 627.582 1330.32 593.936 1410.33 591.692 1511.26 C 589.474 1609.62 619.644 1705.98 677.559 1785.52 C 691.51 1804.42 703.989 1817.78 720.182 1834.71 C 691.827 1819.2 654.279 1785.66 632.866 1761.72 C 573.453 1695.29 535.753 1614.48 540.746 1523.9 C 541.751 1502.05 545.378 1480.41 551.549 1459.43 C 568.303 1403.53 607.57 1344.43 646.116 1300.73 C 661.075 1283.77 682.757 1264.38 699.558 1249.31 z" fill="rgb(255,255,255)" transform="translate(0,0)"></path>
<path d="M 713.395 1236.55 L 714.959 1237.65 C 708.945 1243.35 702.113 1250.78 696.321 1255.94 C 698.043 1253.29 698.814 1252.44 699.558 1249.31 C 701.854 1246.37 710.155 1239.41 713.395 1236.55 z" fill="rgb(191,194,203)" transform="translate(0,0)"></path>
<path d="M 713.395 1236.55 C 716.37 1233.8 716.523 1232.72 719.86 1232 C 718.885 1234.8 717.251 1235.73 714.959 1237.65 L 713.395 1236.55 z" fill="rgb(77,82,99)" transform="translate(0,0)"></path>
<path d="M 873.749 1133.45 C 878.689 1131.36 883.856 1128.74 889.079 1128.12 L 889.107 1128.18 L 885.494 1128.84 L 886.51 1130.08 C 883.091 1131.54 878.384 1133.74 875.014 1134.97 L 873.749 1133.45 z" fill="rgb(152,164,179)" transform="translate(0,0)"></path>
<path d="M 951.401 1152.18 C 961.255 1160.58 969.88 1171.28 978.716 1180.78 C 994.869 1198.15 1012.46 1215.69 1026.62 1234.71 C 1013.72 1262.19 982.752 1321.15 961.073 1339.91 C 945.44 1353.44 922.363 1357.32 903.451 1364.7 C 844.98 1387.53 794.487 1433.33 761.91 1486.51 C 735.944 1528.9 715.426 1585.74 727.828 1635.89 C 733.141 1657.37 747.262 1675.36 766.261 1686.57 C 793.683 1702.74 828.735 1700.16 858.315 1692.25 C 881.85 1685.95 902.388 1675.05 922.291 1661.16 C 985.617 1616.98 1020.53 1549.65 1024.79 1472.93 C 1025.78 1455.13 1025.45 1437.03 1024.92 1419.22 C 1024.44 1402.96 1022.05 1385.13 1025.61 1369.19 C 1030.27 1348.33 1058.54 1303.88 1070.33 1283.38 C 1087.01 1297.87 1101.46 1316.58 1115.28 1333.72 C 1152.84 1380.3 1182.35 1420.3 1207.46 1474.75 C 1209.23 1478.83 1210.94 1482.92 1212.61 1487.04 C 1239.67 1554.41 1243.97 1634.04 1214.95 1701.49 C 1187.4 1765.54 1133.72 1822.58 1068.33 1848.4 C 996.151 1876.91 913.702 1872.04 842.943 1841.27 C 770.317 1809.05 713.376 1749.42 684.533 1675.38 C 647.921 1581.53 644.206 1475.02 685.3 1382.06 C 733.547 1272.92 842.923 1194.32 951.401 1152.18 z" fill="rgb(255,255,255)" transform="translate(0,0)"></path>
<path d="M 1054.9 1660.63 C 1056.13 1657.38 1055.89 1657.41 1058.49 1655.2 L 1060.8 1654.77 C 1068.96 1661.07 1062.7 1672.45 1059.43 1680.14 C 1063.42 1675.15 1065.36 1671.33 1071.74 1670.59 C 1075.59 1672.11 1074.2 1670.88 1076.27 1674.18 C 1076.22 1678.19 1076.78 1676.42 1074.58 1679.7 C 1071.24 1681.46 1071.02 1681.21 1067.34 1681.25 L 1066.79 1681.89 L 1072.87 1685.38 C 1076.99 1687.7 1079.59 1690.27 1082.37 1694.14 L 1081.14 1696.7 C 1068.87 1696 1068.29 1692.68 1058.45 1690.95 L 1058 1692.06 L 1055.3 1692.63 C 1054.45 1695.27 1054.62 1695.49 1054.65 1698.32 L 1053.21 1707.19 C 1052.08 1711.46 1053.14 1709.76 1050.31 1712.72 C 1047.24 1713.52 1048.69 1713.65 1045.8 1712.23 C 1044.9 1710.21 1044.88 1710.56 1044.54 1708.43 L 1042.23 1708.03 L 1040.41 1711.49 C 1037.34 1713.36 1038.93 1713.11 1035.52 1712.41 C 1032.58 1709.27 1033.14 1710.92 1032.39 1707.5 C 1034.06 1704.46 1034.65 1704.27 1034.85 1701.02 C 1031.48 1699.95 1031.43 1702.14 1025.98 1704.17 C 1022.72 1703.15 1020.85 1699.75 1020.31 1696.55 C 1022.24 1693.9 1024.76 1693.06 1027.75 1691.56 L 1026.93 1689.84 C 1021.31 1689.76 1017.48 1686.25 1018.69 1680.56 C 1024.91 1675.43 1033.2 1680.44 1038.54 1683.55 C 1038.45 1676.07 1017.76 1675.07 1019.91 1663.82 C 1022.74 1660.79 1021.13 1661.43 1024.43 1660.79 C 1031.97 1663.32 1043.28 1675.77 1049.43 1681.81 C 1046.29 1675.8 1038.04 1666.18 1043.42 1658.79 C 1049.18 1657.16 1051.11 1663.51 1052.62 1667.79 C 1052.88 1670.53 1053.35 1671.29 1054.33 1673.84 C 1055.36 1669.98 1054.97 1664.75 1054.9 1660.63 z" fill="rgb(28,37,64)" transform="translate(0,0)"></path>
<path d="M 1055.72 1684.37 C 1057.47 1684.31 1063.98 1682.42 1066.79 1681.89 L 1072.87 1685.38 C 1076.99 1687.7 1079.59 1690.27 1082.37 1694.14 L 1081.14 1696.7 C 1068.87 1696 1068.29 1692.68 1058.45 1690.95 L 1054.18 1689.1 L 1052.78 1687.73 C 1053.87 1686.23 1054.44 1685.72 1055.72 1684.37 z" fill="rgb(28,37,64)" transform="translate(0,0)"></path>
<path d="M 1026.93 1689.84 C 1032.99 1688.53 1037.61 1686.49 1042.95 1690.54 C 1039.54 1692.09 1033.34 1690.53 1027.75 1691.56 L 1026.93 1689.84 z" fill="rgb(169,177,189)" transform="translate(0,0)"></path>
<path d="M 1054.18 1689.1 L 1058.45 1690.95 L 1058 1692.06 L 1055.3 1692.63 C 1054.45 1695.27 1054.62 1695.49 1054.65 1698.32 L 1053.21 1707.19 C 1052.93 1702.02 1052.08 1693.61 1054.18 1689.1 z" fill="rgb(191,194,203)" transform="translate(0,0)"></path>
<path d="M 1055.72 1684.37 L 1054.96 1683.15 C 1058.74 1680.46 1062.98 1679.86 1067.34 1681.25 L 1066.79 1681.89 C 1063.98 1682.42 1057.47 1684.31 1055.72 1684.37 z" fill="rgb(222,223,227)" transform="translate(0,0)"></path>
<path d="M 1044.74 1692.97 C 1045.02 1698.36 1045.58 1703.16 1044.54 1708.43 L 1042.23 1708.03 C 1042.9 1701.92 1043.24 1698.99 1044.74 1692.97 z" fill="rgb(222,223,227)" transform="translate(0,0)"></path>
<path d="M 953.944 1690.7 L 951.638 1687.64 C 948.066 1682.99 947.596 1681.87 948.975 1675.9 C 951.419 1673.47 950.017 1674.01 953.173 1673.86 C 956.705 1675.51 956.537 1675.5 959.039 1678.19 L 960.453 1678.35 C 964.323 1676.07 962.383 1676.39 966.297 1676.61 C 968.934 1679.31 968.669 1681.26 969.133 1685.05 L 970.499 1689.61 L 970.015 1694.09 C 976.671 1690.9 981.28 1688.08 987.716 1693.27 L 988.154 1694.76 C 985.053 1697.91 981.125 1697.72 976.338 1698.42 C 977.876 1703.59 982.668 1701.64 980.428 1708.97 C 978.099 1712.31 977.585 1714.45 974.418 1715.61 C 971.338 1714.28 970.575 1712.47 968.684 1709.66 C 967.413 1711.12 967.253 1717.18 963.652 1720.13 C 960.646 1719.92 960.146 1719.01 958.342 1716.39 L 957.275 1715.42 C 953.764 1715.93 952.694 1716.01 950.017 1714.51 C 948.275 1709.42 950.212 1711.59 950.329 1705.59 C 946.355 1706.04 941.652 1707.79 940.118 1703.75 C 941.842 1698.8 940.555 1700.48 944.668 1697.29 L 944.991 1695.86 C 940.381 1693.77 938.128 1693.42 936.461 1688.51 L 937.434 1686.89 C 945.16 1684.8 946.653 1686.79 953.944 1690.7 z" fill="rgb(28,37,64)" transform="translate(0,0)"></path>
<path d="M 970.015 1694.09 C 976.671 1690.9 981.28 1688.08 987.716 1693.27 L 988.154 1694.76 C 985.053 1697.91 981.125 1697.72 976.338 1698.42 C 977.876 1703.59 982.668 1701.64 980.428 1708.97 C 978.099 1712.31 977.585 1714.45 974.418 1715.61 C 971.338 1714.28 970.575 1712.47 968.684 1709.66 C 967.413 1711.12 967.253 1717.18 963.652 1720.13 C 960.646 1719.92 960.146 1719.01 958.342 1716.39 L 957.275 1715.42 C 958.143 1711.54 957.899 1710.02 957.745 1705.97 C 956.376 1700.97 958.326 1700.21 961.567 1696.1 L 960.599 1693.33 L 961.72 1693.32 C 963.724 1696.36 962.402 1695.52 965.487 1696.39 C 967.862 1695.38 967.803 1695.46 970.015 1694.09 z" fill="rgb(28,37,64)" transform="translate(0,0)"></path>
<path d="M 970.015 1694.09 C 976.671 1690.9 981.28 1688.08 987.716 1693.27 L 988.154 1694.76 C 985.053 1697.91 981.125 1697.72 976.338 1698.42 C 977.876 1703.59 982.668 1701.64 980.428 1708.97 C 972.021 1708.2 968.488 1702.07 970.015 1694.09 z" fill="rgb(28,37,64)" transform="translate(0,0)"></path>
<path d="M 961.567 1696.1 L 962.735 1698.04 C 961.515 1699.92 960.764 1700.82 959.322 1702.55 C 959.447 1703.85 959.418 1704.59 959.796 1705.83 L 957.745 1705.97 C 956.376 1700.97 958.326 1700.21 961.567 1696.1 z" fill="rgb(100,103,123)" transform="translate(0,0)"></path>
<path d="M 957.745 1705.97 L 959.796 1705.83 C 961.225 1710.53 960.46 1711.58 958.342 1716.39 L 957.275 1715.42 C 958.143 1711.54 957.899 1710.02 957.745 1705.97 z" fill="rgb(222,223,227)" transform="translate(0,0)"></path>
<path d="M 960.453 1678.35 C 964.323 1676.07 962.383 1676.39 966.297 1676.61 C 968.934 1679.31 968.669 1681.26 969.133 1685.05 L 970.499 1689.61 L 970.015 1694.09 C 967.803 1695.46 967.862 1695.38 965.487 1696.39 C 962.402 1695.52 963.724 1696.36 961.72 1693.32 C 961.707 1688.06 961.075 1683.54 960.453 1678.35 z" fill="rgb(28,37,64)" transform="translate(0,0)"></path>
<path d="M 959.039 1678.19 L 960.453 1678.35 C 961.075 1683.54 961.707 1688.06 961.72 1693.32 L 960.599 1693.33 C 958.574 1686.39 958.869 1685.39 959.039 1678.19 z" fill="rgb(222,223,227)" transform="translate(0,0)"></path>
<path d="M 944.991 1695.86 C 948.311 1695.68 951.391 1694.98 953.928 1696.76 C 950.773 1698.64 948.442 1697.84 944.668 1697.29 L 944.991 1695.86 z" fill="rgb(191,194,203)" transform="translate(0,0)"></path>
<path d="M 1000.05 1732.37 C 1003.37 1729.35 1002.13 1729.63 1005.98 1728.92 C 1007.4 1729.69 1007.92 1729.76 1008.98 1730.86 C 1009.85 1739.29 1014.27 1737.97 1015.71 1744.1 C 1014.61 1747.4 1014.95 1746.36 1011.17 1748.7 C 1013.47 1750.52 1015.31 1751.42 1015.54 1754.3 C 1013.43 1756.5 1013.37 1756.24 1010.34 1756.96 C 1007.35 1756.04 1005.93 1753.96 1003.73 1751.62 L 1004.43 1752.81 C 1006.61 1756.62 1007.3 1757.31 1007.8 1761.48 L 1006.77 1763.46 C 1004.12 1764.22 1004.24 1764.4 1001.7 1763.48 C 998.322 1758.41 1001.7 1753.51 998.627 1752.55 C 998.15 1756.59 998.191 1761.36 995.534 1763.89 C 992.119 1763.13 993.397 1763.99 991.301 1761.7 C 991.78 1759.78 992.17 1758.07 992.559 1756.13 L 988.756 1756.88 C 986.647 1755.4 986.482 1755.58 985.662 1753.21 L 986.461 1750.97 C 983.748 1749.17 982.916 1748.72 979.968 1747.31 L 979.84 1745.47 C 983.289 1742.51 981.36 1743.25 985.771 1743.03 L 985.941 1742.09 C 984.154 1739.31 983.553 1739.03 983.744 1735.76 C 986.783 1733.47 986.447 1734.28 991.241 1734.26 C 992.554 1731.14 991.91 1731.89 994.02 1729.47 C 997.685 1730.32 995.931 1729.57 999.085 1732.61 L 1000.05 1732.37 z" fill="rgb(28,37,64)" transform="translate(0,0)"></path>
<path d="M 1000.05 1732.37 C 1003.37 1729.35 1002.13 1729.63 1005.98 1728.92 C 1007.4 1729.69 1007.92 1729.76 1008.98 1730.86 C 1008.71 1735.84 1008.94 1736.62 1006.58 1740.79 L 1005.07 1741.71 C 1002.4 1740.59 1003.45 1741.45 1001.81 1739.05 L 1000.05 1732.37 z" fill="rgb(28,37,64)" transform="translate(0,0)"></path>
<path d="M 985.941 1742.09 C 989.196 1741.94 992.486 1741.23 994.92 1742.99 C 991.939 1744.81 988.988 1743.89 985.771 1743.03 L 985.941 1742.09 z" fill="rgb(100,103,123)" transform="translate(0,0)"></path>
<path d="M 999.085 1732.61 L 1000.05 1732.37 L 1001.81 1739.05 L 1000.09 1739.54 C 998.24 1737.32 999.007 1736.44 999.085 1732.61 z" fill="rgb(152,164,179)" transform="translate(0,0)"></path>
<path d="M 885.419 1722.88 C 884.612 1716.55 882.547 1708.2 888.312 1703.71 C 896.333 1705.63 891.992 1720.32 890.633 1725.75 C 893.041 1723.68 893.833 1722.25 895.607 1719.68 L 901.011 1723.12 L 898.085 1725.77 C 903.254 1725.76 907.945 1725.76 911.91 1729.56 L 912.397 1732.06 C 908.768 1736.87 903.835 1733.89 898.151 1734.05 L 899.303 1734.89 C 902.185 1737 903.886 1737.72 905.004 1741.02 C 904.354 1744.35 905.137 1743.01 902.606 1745.21 C 892.911 1746.39 893.176 1738.16 888.483 1737.8 L 885.265 1737.07 L 885.874 1734.01 C 884.457 1729.99 882.053 1728.47 878.78 1725.55 C 874.88 1720.89 870.309 1717.19 873.162 1711 C 880.825 1708.86 883.06 1717.28 885.419 1722.88 z" fill="rgb(28,37,64)" transform="translate(0,0)"></path>
<path d="M 895.607 1719.68 L 901.011 1723.12 L 898.085 1725.77 C 894.59 1727.06 893.179 1728.33 890.214 1727.62 L 890.633 1725.75 C 893.041 1723.68 893.833 1722.25 895.607 1719.68 z" fill="rgb(28,37,64)" transform="translate(0,0)"></path>
<path d="M 827.97 1774.89 C 829.712 1779.23 832.749 1778.98 830.87 1784.66 C 827.72 1784.78 824.977 1782.43 821.817 1780.59 L 817.725 1783.17 L 815.078 1782.09 C 813.696 1779.07 814.433 1779.24 815.47 1775.07 C 808.251 1771.64 810.555 1767.08 812.8 1760.32 C 817.198 1758.42 815.905 1762.08 820.171 1760.92 L 821.388 1755.81 L 823.253 1754.82 C 829.967 1756.76 823.064 1756.15 827.865 1760.01 L 832.005 1757.5 L 833.705 1758.06 L 834.318 1762.14 C 837.939 1764.68 842.595 1764.36 842.489 1769.11 C 839.578 1770.71 839.175 1770.47 835.854 1771.1 L 835.836 1772.6 C 838.421 1774.87 838.339 1775.39 839.171 1778.55 C 834.62 1781.07 831.691 1777.34 827.97 1774.89 z" fill="rgb(28,37,64)" transform="translate(0,0)"></path>
<path d="M 827.97 1774.89 C 831.616 1771.58 831.317 1771.55 835.854 1771.1 L 835.836 1772.6 C 838.421 1774.87 838.339 1775.39 839.171 1778.55 C 834.62 1781.07 831.691 1777.34 827.97 1774.89 z" fill="rgb(28,37,64)" transform="translate(0,0)"></path>
<path d="M 925.548 1768.92 C 927.022 1768.97 928.707 1768.9 930.147 1769.19 C 932.725 1769.71 934.171 1771.59 935.658 1773.65 C 937.255 1775.86 937.5 1777.78 937.188 1780.45 C 935.836 1782.44 935.026 1783.98 932.814 1785.08 C 931.436 1785.48 929.933 1785.99 928.475 1786.01 C 925.465 1786.06 922.861 1784.88 920.599 1782.99 C 919.726 1781.44 918.985 1780.22 919.082 1778.36 C 919.316 1773.87 922.259 1771.48 925.548 1768.92 z" fill="rgb(28,37,64)" transform="translate(0,0)"></path>
<path d="M 785.65 1720.81 C 786.128 1720.81 786.606 1720.78 787.083 1720.79 C 790.368 1720.89 793.979 1721.78 796.165 1724.43 C 797.617 1726.19 797.93 1728.2 797.688 1730.41 C 797.182 1735.05 794.66 1736.65 791.184 1739.37 C 788.896 1738.96 786.387 1737.91 784.447 1736.6 C 782.307 1735.16 781.327 1733.62 780.961 1731.07 C 780.282 1726.33 782.71 1724.07 785.65 1720.81 z" fill="rgb(28,37,64)" transform="translate(0,0)"></path>
<path d="M 873.826 1734.83 C 869.45 1737.29 863.5 1739.23 861.79 1732.72 L 863.502 1731 C 867.391 1729.83 867.879 1730.04 872.088 1730.39 L 873.275 1730.49 C 868.992 1728.98 862.064 1726.94 859.293 1723.49 L 859.771 1721.01 C 865.438 1714.85 874.131 1722.71 878.481 1727 L 881.065 1730.64 C 878.647 1732.73 876.918 1732.26 873.826 1734.83 z" fill="rgb(28,37,64)" transform="translate(0,0)"></path>
<path d="M 878.78 1725.55 C 882.053 1728.47 884.457 1729.99 885.874 1734.01 L 885.265 1737.07 C 882.436 1740.38 882.408 1740.54 881.241 1744.83 L 880.242 1742.14 C 877.211 1746.18 874.77 1748.87 869.69 1745.69 L 869.049 1742.68 C 870.584 1738.08 870.865 1738.98 875.09 1735.23 L 873.826 1734.83 C 876.918 1732.26 878.647 1732.73 881.065 1730.64 L 878.481 1727 L 878.78 1725.55 z" fill="rgb(28,37,64)" transform="translate(0,0)"></path>
<path d="M 878.78 1725.55 C 882.053 1728.47 884.457 1729.99 885.874 1734.01 L 885.265 1737.07 C 882.436 1740.38 882.408 1740.54 881.241 1744.83 L 880.242 1742.14 C 881.736 1738.82 882.581 1737.67 882.39 1734 L 880.9 1733.14 C 878.097 1733.69 877.72 1734 875.09 1735.23 L 873.826 1734.83 C 876.918 1732.26 878.647 1732.73 881.065 1730.64 L 878.481 1727 L 878.78 1725.55 z" fill="rgb(100,103,123)" transform="translate(0,0)"></path>
<path d="M 1054.65 1698.32 C 1054.62 1695.49 1054.45 1695.27 1055.3 1692.63 L 1058 1692.06 C 1063.22 1695.83 1067 1697.48 1068.05 1703.89 C 1066.74 1707.16 1067.84 1706.06 1064.85 1707.49 C 1059.25 1706.84 1056.52 1703.48 1054.65 1698.32 z" fill="rgb(28,37,64)" transform="translate(0,0)"></path>
<path d="M 885.265 1737.07 L 888.483 1737.8 C 890.974 1743.82 892.986 1748.92 886.473 1753.34 C 882.944 1753.15 884.425 1753.82 881.947 1751.13 C 881.424 1748.26 881.191 1747.79 881.241 1744.83 C 882.408 1740.54 882.436 1740.38 885.265 1737.07 z" fill="rgb(28,37,64)" transform="translate(0,0)"></path>
<path d="M 895.607 1719.68 C 895.403 1713.25 897.225 1710.95 903.249 1709.9 C 906.954 1711.29 905.607 1710.13 907.611 1713.28 C 907.095 1718.41 906.089 1718.94 901.851 1722.44 L 901.011 1723.12 L 895.607 1719.68 z" fill="rgb(28,37,64)" transform="translate(0,0)"></path>
<path d="M 969.133 1685.05 C 972.144 1679.73 974.204 1676.79 980.341 1680.33 C 981.838 1683.78 981.684 1682.03 980.695 1685.76 C 977.259 1689.41 975.385 1689.35 970.499 1689.61 L 969.133 1685.05 z" fill="rgb(28,37,64)" transform="translate(0,0)"></path>
<path d="M 947.669 143.217 L 950.315 143.498 C 948.369 145.56 941.002 147.762 937.965 149.345 C 904.717 166.672 874.071 186.704 847.075 212.835 C 778.949 278.782 748.386 357.708 747.655 452.121 C 704.697 465.415 699.266 491.322 694.709 531.363 C 700.117 520.039 705.584 519.273 717.02 513.909 C 737.399 504.351 742.355 492.728 749.225 473.083 C 751.11 494.092 753.533 517.58 758.36 538.038 C 791.087 676.738 892.64 778.648 986.989 879.409 C 1035.11 930.799 1085.74 988.219 1135.56 1037.05 C 1133.04 1042.03 1129.97 1047.41 1127.14 1052.24 C 1107.5 1085.77 1089.58 1119.93 1071.51 1154.33 C 1066.75 1163.51 1062.39 1171.67 1057.16 1180.65 C 1028.44 1152.13 1001.88 1121.03 974.56 1091.16 C 950.747 1065.13 925.933 1039.99 901.757 1014.3 C 790.517 896.068 637.214 758.668 602.904 594.541 C 583.862 503.449 603.707 401.514 655.049 323.746 C 721.449 223.169 832.34 167.177 947.669 143.217 z" fill="rgb(255,255,255)" transform="translate(0,0)"></path>
<path d="M 838.804 745.582 C 846.577 750.497 859.916 768.399 864.197 776.971 C 874.84 798.283 872.325 811.83 865.71 832.955 C 879.91 841.674 967.178 881.883 970.867 890.005 C 970.057 893.137 969.869 895.899 967.436 897.729 C 960.696 898.455 942.689 885.321 935.721 880.88 C 920.872 871.272 905.789 862.031 890.486 853.165 L 864.47 838.335 C 827.053 849.145 802.967 856.15 774.593 822.546 C 799.477 811.116 819.166 805.631 844.317 822.396 C 850.493 826.513 857.667 832.154 864.221 835.332 C 861.601 830.201 841.718 815.377 837.044 802.311 C 829.236 780.482 830.981 766.293 838.804 745.582 z" fill="rgb(28,37,64)" transform="translate(0,0)"></path>
<path d="M 716.857 376.714 C 718.812 378.189 718.23 377.292 718.898 379.289 C 726.402 401.716 727.866 427.182 716.764 448.724 C 711.407 459.119 706.153 465.116 695.079 468.721 C 678.674 432.001 684.608 402.059 716.857 376.714 z" fill="rgb(28,37,64)" transform="translate(0,0)"></path>
<path d="M 653.763 653.773 C 666.396 655.869 677.978 654.899 691.011 659.049 C 715.012 666.691 727.607 685.188 738.655 706.53 C 724.942 699.285 703.313 706.861 686.822 698.677 C 669.971 690.314 659.957 670.543 653.763 653.773 z" fill="rgb(28,37,64)" transform="translate(0,0)"></path>
<path d="M 639.717 510.015 C 684.2 531.057 686.075 547.618 692.679 592.768 C 684.81 586.826 670.879 586.908 660.173 575.399 C 641.978 555.839 640.095 534.912 639.717 510.015 z" fill="rgb(28,37,64)" transform="translate(0,0)"></path>
<path d="M 651.775 435.586 C 678.905 458.977 690.158 481.299 689.884 517.584 C 689.847 522.602 690.374 527.503 689.333 532.474 L 688.305 531.213 C 682.698 524.376 673.943 517.336 667.482 511.108 C 644.828 489.27 642.573 464.77 651.775 435.586 z" fill="rgb(28,37,64)" transform="translate(0,0)"></path>
<path d="M 691.193 714.334 C 724.336 712.185 741.401 719.165 762.67 744.939 C 765.623 748.517 768.763 751.285 771.151 755.449 L 764.475 754.289 C 749.049 757.541 739.066 759.499 723.173 754.484 C 706.469 749.212 690.686 731.325 683.126 715.933 C 684.668 714.661 688.714 714.643 691.193 714.334 z" fill="rgb(28,37,64)" transform="translate(0,0)"></path>
<path d="M 638.499 585.181 C 653.706 588.869 672.637 594.541 684.567 604.815 C 698.057 616.432 701.969 636.431 712.065 650.344 C 696.492 645.844 679.177 645.391 665.824 635.721 C 647.941 622.771 642.42 605.685 638.499 585.181 z" fill="rgb(28,37,64)" transform="translate(0,0)"></path>
<path d="M 755.579 609.832 C 758.13 613.398 762.399 633.162 763.262 638.131 C 767.488 662.468 754.956 679.822 741.303 698.357 L 739.667 698.464 C 718.442 653.615 721.657 644.827 755.579 609.832 z" fill="rgb(28,37,64)" transform="translate(0,0)"></path>
<path d="M 744.177 505.822 L 745.448 506.165 C 747.009 510.368 745.622 517.932 745.506 522.419 C 744.975 543.295 736.312 559.957 718.353 571.051 C 711.417 575.335 704.533 577.425 699.851 584.131 L 699.04 583.829 C 695.22 540.605 706.652 524.518 744.177 505.822 z" fill="rgb(28,37,64)" transform="translate(0,0)"></path>
<path d="M 774.695 662.662 C 775.086 663.05 775.477 663.437 775.867 663.824 C 785.057 680.524 796.183 700.58 788.822 720.061 C 785.975 727.597 782.53 731.187 778.696 737.269 C 774.787 743.473 772.779 744.826 772.053 751.829 C 770.12 745.107 767.315 743.139 763.925 737.504 C 747.189 709.684 755.121 685.053 774.695 662.662 z" fill="rgb(28,37,64)" transform="translate(0,0)"></path>
<path d="M 750.575 767.395 C 753.767 767.1 756.968 766.923 760.173 766.866 C 782.573 766.626 794.253 781.118 809.282 795.811 C 801.42 799.513 794.586 801.19 786.153 802.856 C 759.019 807.155 738.278 792.948 723.581 771.391 C 733.1 769.696 740.955 768.469 750.575 767.395 z" fill="rgb(28,37,64)" transform="translate(0,0)"></path>
<path d="M 801.334 707.365 C 803.229 708.559 804.265 709.427 805.71 711.189 C 823.926 731.798 831.292 749.714 819.828 776.4 C 817.989 780.681 814.856 790.525 814.788 795.39 C 784.033 762.91 783.791 747.486 801.334 707.365 z" fill="rgb(28,37,64)" transform="translate(0,0)"></path>
<path d="M 747.473 557.782 C 750.193 560.375 749.039 573.023 749.234 577.48 C 750.177 599.059 741.108 614.475 726.304 629.249 C 722.706 632.84 717.827 639.359 715.66 643.957 L 714.807 642.731 C 697.15 599.672 715.672 582.781 747.473 557.782 z" fill="rgb(28,37,64)" transform="translate(0,0)"></path>
<path d="M 1191.69 1079.71 C 1201.68 1087.68 1230.92 1119.65 1240.69 1130.5 C 1316.56 1214.83 1398.52 1314.59 1432.1 1424.57 C 1459.58 1514.58 1455.07 1613.78 1409.29 1696.95 C 1353.38 1798.54 1262.19 1860.69 1152.61 1893.02 C 1134.49 1898.09 1116.18 1902.47 1097.73 1906.16 C 1108.48 1899.74 1120.48 1893.94 1131.63 1887.32 C 1153.37 1874.25 1173.62 1858.85 1192.01 1841.37 C 1254.1 1782.6 1292.09 1705.81 1295.61 1619.34 C 1302.09 1460.15 1206.63 1341.49 1101.48 1232.09 L 1191.69 1079.71 z" fill="rgb(255,255,255)" transform="translate(0,0)"></path>
<path d="M 1135.89 1196.28 C 1142.7 1198.24 1149.9 1202.72 1156.19 1206.1 C 1189.19 1223.79 1224.54 1246.67 1248.57 1275.74 C 1260.22 1273.57 1271.63 1269.78 1283.62 1270.09 C 1307.63 1270.69 1321.23 1288.42 1336.45 1304.3 C 1319.98 1302.12 1314.36 1307.11 1299.64 1308.79 C 1276.49 1311.44 1261.13 1289.5 1244.84 1276.65 C 1246.87 1280.33 1249.16 1283.9 1251.37 1287.48 C 1254.98 1292.21 1258.68 1296.95 1261.91 1301.94 C 1281.89 1332.79 1256.13 1352.2 1250.22 1380.83 L 1249.94 1382.23 C 1244.12 1370.73 1237.33 1358.86 1234.14 1346.29 C 1226.79 1317.35 1248.28 1307.8 1242.43 1273.73 C 1221.1 1251.98 1161.47 1220.94 1132.49 1207.36 C 1133.41 1203.6 1134.69 1199.95 1135.89 1196.28 z" fill="rgb(28,37,64)" transform="translate(0,0)"></path>
<path d="M 1366.83 1541.17 L 1368.74 1542.14 C 1370.52 1546.54 1376.05 1551.67 1379.86 1554.46 C 1408.53 1575.55 1404.92 1604.87 1399.1 1636.6 C 1393.72 1618.08 1387.95 1618.73 1376.03 1604.18 C 1369.29 1595.95 1366.84 1590.53 1362.07 1581.48 C 1356.14 1589.09 1364.23 1618.66 1363.06 1630.02 C 1360.19 1657.98 1339.66 1667.34 1324.83 1687.59 C 1325.6 1670.87 1320.57 1657.87 1323.09 1642.14 C 1326.83 1618.8 1351.14 1602.77 1359.49 1582.27 C 1363.24 1573.07 1365.47 1551.73 1366.83 1541.17 z" fill="rgb(28,37,64)" transform="translate(0,0)"></path>
<path d="M 1311.98 1352.47 C 1316.81 1357.17 1321.61 1361.9 1326.38 1366.66 C 1369.18 1371.48 1395.17 1375.83 1401.78 1425.53 C 1380.33 1413.47 1363.55 1416.64 1349.43 1408.59 L 1347.35 1407.84 C 1344.43 1401.72 1340.69 1397.79 1337.46 1392.22 C 1329.66 1378.75 1320.04 1365.54 1311.98 1352.47 z" fill="rgb(28,37,64)" transform="translate(0,0)"></path>
<path d="M 1353.24 1419.86 C 1357.38 1424.1 1365.08 1426.47 1370.77 1428.05 C 1406.31 1437.93 1411.72 1463.94 1415.82 1497.26 C 1400.81 1483.49 1386.51 1481.33 1371.54 1470.16 C 1361.74 1462.85 1354.19 1433.71 1351.34 1420.91 L 1353.24 1419.86 z" fill="rgb(28,37,64)" transform="translate(0,0)"></path>
<path d="M 1283.83 1312.52 C 1305.67 1323.44 1321.99 1314.44 1341.46 1322.02 C 1357.57 1328.3 1366.61 1345.36 1373.45 1360.13 C 1359.35 1356.5 1345.56 1359.75 1331.54 1357.91 C 1309.73 1355.03 1296.15 1328.77 1283.83 1312.52 z" fill="rgb(28,37,64)" transform="translate(0,0)"></path>
<path d="M 1365.18 1474.65 C 1377.33 1510.54 1415.95 1480.34 1413.89 1565.49 C 1412.35 1563.17 1408.91 1557.95 1406.92 1556.34 C 1394.21 1546.06 1375.97 1540.93 1369.76 1523.92 C 1369.33 1521.07 1369.46 1522.02 1367.82 1519.34 C 1366.07 1507.4 1365.68 1487.13 1365.18 1474.65 z" fill="rgb(28,37,64)" transform="translate(0,0)"></path>
<path d="M 1349.46 1544.87 C 1351.93 1547.77 1351.29 1554.27 1350.98 1557.86 C 1347.84 1593.54 1323.5 1600.26 1300.49 1620.54 L 1298.99 1621.87 L 1298.74 1621.62 C 1296.67 1616.57 1300.28 1594.73 1301.72 1588.75 C 1307.6 1564.34 1330.26 1556.68 1349.46 1544.87 z" fill="rgb(28,37,64)" transform="translate(0,0)"></path>
<path d="M 1337.71 1421.89 C 1338.72 1423.2 1338.99 1423.79 1339.48 1425.35 C 1341.62 1432.14 1342.25 1440.15 1343.14 1447.23 C 1348.63 1491.37 1321.66 1485.77 1306.87 1514.44 L 1306.29 1515.6 L 1305.57 1516.7 L 1304.41 1516.4 C 1302.52 1509.97 1303.36 1502.91 1303.35 1496.23 C 1303.24 1448.95 1330.93 1454.69 1337.71 1421.89 z" fill="rgb(28,37,64)" transform="translate(0,0)"></path>
<path d="M 1280.95 1317.73 C 1281.15 1318 1281.35 1318.26 1281.53 1318.54 C 1298.09 1345.76 1305.38 1362.86 1289.13 1392.72 C 1285.34 1399.68 1280.84 1406.61 1279.17 1414.43 C 1279.09 1414.8 1279.03 1415.16 1278.95 1415.53 L 1278.74 1415.97 C 1275.52 1413.18 1272.8 1403.43 1271.24 1399.3 C 1268.97 1393.27 1265.95 1386.86 1264.79 1380.52 C 1260.07 1354.51 1284.74 1345.78 1280.95 1317.73 z" fill="rgb(28,37,64)" transform="translate(0,0)"></path>
<path d="M 1350.56 1483.84 C 1353.16 1486.61 1352.9 1503.11 1352.79 1507.33 C 1351.89 1539.62 1325.66 1544.45 1306.27 1563.27 L 1305.21 1564.31 C 1304.34 1564.63 1304.88 1564.56 1303.62 1564.04 C 1306.78 1535.01 1307.81 1522.14 1331.79 1502.16 C 1338.28 1496.76 1344.61 1491.7 1349.75 1484.92 L 1350.56 1483.84 z" fill="rgb(28,37,64)" transform="translate(0,0)"></path>
<path d="M 1312.84 1373.8 C 1316.83 1378.02 1321.83 1387.12 1324.01 1392.54 C 1335.73 1421.83 1312.15 1435.53 1302.06 1459.04 L 1301.5 1460.36 L 1300.5 1463.72 L 1299.62 1463.9 C 1299.05 1462.87 1298.54 1461.98 1298.23 1460.82 C 1297.03 1456.37 1296.62 1451.54 1295.71 1447 C 1294.58 1441.37 1292.87 1435.84 1292.34 1430.1 C 1290.36 1408.99 1302.64 1391.13 1312.84 1373.8 z" fill="rgb(28,37,64)" transform="translate(0,0)"></path>
<path d="M 1367.82 1519.34 C 1369.46 1522.02 1369.33 1521.07 1369.76 1523.92 C 1368.9 1530.33 1368.87 1535.68 1368.74 1542.14 L 1366.83 1541.17 C 1366.94 1533.8 1366.89 1526.65 1367.82 1519.34 z" fill="rgb(77,82,99)" transform="translate(0,0)"></path>
<path d="M 1347.35 1407.84 L 1349.43 1408.59 C 1350.6 1411.93 1352.38 1416.56 1353.24 1419.86 L 1351.34 1420.91 C 1350.01 1417.52 1348.44 1411.51 1347.35 1407.84 z" fill="rgb(46,45,52)" transform="translate(0,0)"></path>
<path d="M 1010.78 1403.22 C 1012.49 1469.39 1003.75 1522.12 963.823 1577.04 C 940.411 1609.25 917.626 1628.43 882.434 1646.99 C 831 1674.12 730.538 1685.36 734.891 1599.96 C 736.975 1536.08 771.146 1477.36 815.185 1434.9 C 837.147 1413.77 862.165 1396.07 889.396 1382.39 C 921.771 1366.53 959.287 1363.83 979.473 1335.43 C 994.27 1314.62 1008.64 1288.23 1021.41 1265.92 C 1052.7 1210.45 1083.39 1154.64 1113.48 1098.51 C 1133.13 1062.69 1154.77 1025.81 1173.9 990.214 L 1263.92 823.808 C 1305.6 748.523 1349.77 674.272 1396.43 601.913 C 1405.58 587.719 1408.78 572.826 1415 557.444 C 1420.18 546.06 1428.52 536.227 1435.06 525.758 C 1445.8 508.406 1454.61 495.389 1468.02 479.747 C 1488.11 456.32 1498.12 444.594 1526.65 431.923 C 1570.94 412.252 1613.88 444.815 1594.13 491.806 C 1580.95 523.153 1542.41 553.829 1520.57 579.817 C 1493.52 610.558 1464.7 640.95 1438.74 672.353 C 1388.4 733.977 1341.35 798.222 1297.8 864.82 C 1274.15 901.212 1253.72 936.54 1231.43 973.279 C 1182 1056.05 1131.52 1138.18 1079.98 1219.65 L 1079.17 1219.91 C 1081.84 1208.11 1110.01 1163.63 1116.54 1151.31 C 1150.3 1087.67 1192.62 1026.33 1227.86 963.781 C 1308.28 821.057 1396 697.637 1504.55 575.194 L 1545.7 529.102 C 1553.27 520.633 1563.28 510.778 1569.58 501.523 C 1587.1 475.758 1589.27 457.879 1563.07 439.614 C 1574.29 456.164 1577.68 463.186 1565.5 481.655 C 1552.32 501.626 1536.27 518.858 1520.42 536.662 C 1499.17 560.222 1478.21 584.047 1457.56 608.132 C 1439.63 629.544 1422.46 651.576 1406.07 674.189 C 1288.31 833.386 1191.59 1008.65 1091.92 1179.52 C 1063.6 1228.07 1033.38 1277.88 1009.6 1329.02 C 997.138 1355.84 1004.11 1387.86 1000.69 1416.45 C 997.037 1493.65 970.79 1569.17 902.964 1612.9 C 869.123 1635.2 821.663 1652.82 780.384 1645.07 C 763.911 1641.98 755.527 1635.51 743.992 1623.82 C 752.251 1637.8 760.592 1646.07 776.899 1649.22 C 879.18 1668.99 977.537 1588.77 998.927 1490.53 C 1004.75 1463.79 1006.86 1445.82 1008.18 1419.64 C 1010.82 1412.84 1007.9 1408.27 1010.78 1403.22 z" fill="rgb(255,255,255)" transform="translate(0,0)"></path>
<path d="M 918.943 1395.34 C 931.054 1394.51 944.057 1394.58 955.385 1399.46 C 971.3 1406.32 978.495 1420.7 984.2 1435.96 C 981.972 1433.22 979.704 1430.51 977.397 1427.83 C 966.069 1414.78 953.636 1408.05 936.276 1406.96 C 893.567 1404.27 852.578 1429.61 821.619 1456.59 C 804.923 1472.33 791.691 1489.96 778.018 1508.26 C 783.515 1496.32 790.27 1485.01 798.168 1474.51 C 826.996 1435.82 870.071 1402.37 918.943 1395.34 z" fill="rgb(28,37,64)" transform="translate(0,0)"></path>
<path d="M 1300.35 195.872 C 1307.27 197.592 1331.82 213.976 1338.86 218.548 C 1409.41 264.365 1477.83 354.461 1495.48 437.263 C 1484.56 447.166 1474.23 458.34 1464.38 469.303 C 1456.26 479.4 1448.32 489.638 1440.57 500.014 C 1443.53 400.013 1415.16 304.11 1342.76 232.319 C 1329.09 218.764 1315.27 207.877 1300.35 195.872 z" fill="rgb(255,255,255)" transform="translate(0,0)"></path>
<path d="M 1487.61 641.794 C 1488 653.419 1475.64 679.408 1469.95 689.968 C 1433.66 757.279 1381.22 816.895 1325.11 868.174 L 1324.87 867.35 C 1326.01 864.175 1344.01 839.517 1347.69 834.15 C 1373.92 796.029 1400.91 758.437 1428.64 721.399 C 1449.49 693.563 1467.75 671.001 1487.61 641.794 z" fill="rgb(255,255,255)" transform="translate(0,0)"></path>
<path d="M 1008.18 1419.64 C 1008.3 1374.52 1001.14 1350.78 1025.06 1310.53 C 1031.42 1299.83 1036.6 1288.43 1044.38 1277.75 C 1034.04 1305.77 1011.99 1333.53 1010.04 1364.56 C 1009.32 1375.97 1010.94 1390.93 1010.78 1403.22 C 1007.9 1408.27 1010.82 1412.84 1008.18 1419.64 z" fill="rgb(222,223,227)" transform="translate(0,0)"></path>
<path d="M 1568.19 549.294 C 1572.45 543.86 1576.4 538.96 1580.92 533.74 C 1588.34 544.897 1601.25 555.723 1611.08 565.069 C 1680.57 631.162 1739.26 710.457 1784.58 794.848 C 1796.51 817.074 1803.83 842.498 1818.41 862.736 L 1816.3 862.589 C 1815.95 864.57 1821.57 878.516 1822.89 880.36 C 1832.02 893.12 1843.63 951.684 1853.05 959.194 L 1852.61 960.198 L 1850.29 958.277 C 1849.37 961.039 1858.08 993.887 1859.3 1000.35 C 1868.18 1048.25 1873.45 1096.76 1875.06 1145.45 C 1877.16 1228.05 1864.06 1314.44 1844.02 1394.96 C 1839.58 1412.82 1833.79 1430.96 1827.62 1448.34 C 1767.42 1617.88 1677.39 1803.69 1493.24 1863.41 C 1478.69 1868.13 1456.59 1886.88 1445.18 1897.23 C 1423.94 1914.89 1416.3 1952.17 1399.06 1969.92 C 1458.4 1955.83 1489.31 1938.69 1506.63 1877.02 C 1508.24 1871.32 1507.93 1865.2 1509.52 1859.21 C 1510.98 1884.97 1499.34 1925.73 1481.67 1945.61 C 1458.32 1971.89 1422.16 1976.25 1388.48 1974.42 C 1411.28 1954.34 1410.67 1915.41 1440.64 1890.8 C 1467.42 1868.81 1487.55 1864.32 1517.93 1850.41 C 1543.83 1838.56 1569.1 1821.49 1591.36 1803.85 C 1702.92 1715.42 1760.4 1593.94 1805.28 1462.32 C 1834.23 1377.41 1853.16 1307.68 1858.94 1217.1 C 1867.43 1092.39 1844.85 967.516 1793.21 853.676 C 1782.61 830.644 1769.02 806.954 1756.4 784.807 C 1724.79 728.96 1687.46 676.555 1645 628.438 C 1625.46 606.265 1604.31 584.953 1583.21 564.25 C 1579.6 560.705 1571.99 551.624 1568.19 549.294 z" fill="rgb(169,177,189)" transform="translate(0,0)"></path>
<path d="M 1800.75 691.682 C 1824.34 692.812 1839.46 697.894 1856.46 715.307 C 1874.25 733.537 1872.35 750.15 1889.75 767.232 C 1849.74 770.335 1820.11 773.204 1786.96 745.393 C 1780.75 740.181 1746.68 706.388 1744.78 701.443 C 1752.71 699.142 1800.59 705.267 1809.82 707.714 C 1817.6 709.782 1825.1 712.826 1832.13 716.772 C 1837.43 719.732 1842.66 723.311 1847.68 726.729 C 1834.67 711.738 1819.05 702.057 1799.23 699.065 C 1799.86 696.945 1799.81 696.689 1799.56 694.554 L 1799.33 692.702 L 1800.75 691.682 z" fill="rgb(169,177,189)" transform="translate(0,0)"></path>
<path d="M 1746.04 701.832 C 1756.98 701.187 1775.97 705.489 1788.59 706.583 C 1830.23 710.191 1852.7 729.927 1877.84 761.473 L 1877.91 762.364 C 1875.95 762.814 1855.95 759.497 1851.21 759.368 C 1803.88 758.075 1781.37 726.763 1746.04 701.832 z" fill="rgb(255,255,255)" transform="translate(0,0)"></path>
<path d="M 1788.51 713.958 C 1799.5 715.805 1854.12 742.881 1864.27 751.247 C 1861.65 750.577 1843.66 741.025 1839.91 738.879 C 1827.41 731.724 1798.23 722.769 1788.51 713.958 z" fill="rgb(169,177,189)" transform="translate(0,0)"></path>
<path d="M 1807.46 966.706 C 1813.1 993.21 1761.06 1054.43 1746.68 1078.15 C 1711.34 1136.45 1713.02 1169.55 1728.99 1233.73 C 1733.2 1226.64 1737.1 1218.71 1741.17 1211.95 C 1775.22 1155.34 1802.03 1100.46 1804.39 1033.04 C 1804.57 1027.77 1804.93 1001.79 1806 999.735 C 1806.29 1000.26 1807.59 1024.76 1807.95 1028.07 C 1808.57 1042.06 1810.7 1059.79 1809.79 1073.51 C 1806.65 1120.7 1787.76 1163.74 1761.01 1202.21 C 1750.7 1217.03 1737.88 1233.6 1729.28 1248.83 C 1727.87 1246.54 1726.58 1244.17 1725.43 1241.74 C 1695.81 1178.11 1698.89 1121.82 1741.94 1065.14 C 1766.45 1032.87 1792.9 1005.29 1807.46 966.706 z" fill="rgb(169,177,189)" transform="translate(0,0)"></path>
<path d="M 1636.95 908.229 C 1625.3 871.646 1624.08 829.453 1639.67 793.841 C 1650.46 769.171 1667.29 750.322 1683.53 729.389 C 1686.39 725.707 1692.85 713.401 1696.17 712.105 L 1697.48 713.518 C 1697.71 723.169 1667.93 772.402 1662.36 784.536 C 1655.36 799.802 1647.12 817.201 1645.17 834.137 C 1643.98 844.492 1636.13 895.247 1638.83 900.508 L 1640.52 898.527 L 1641.66 898.92 C 1646.13 897.013 1652.92 889.074 1656.65 885.359 C 1675.49 866.621 1693.14 845.801 1702.55 820.574 C 1712.38 794.224 1715.17 762.951 1702.82 736.887 C 1701.72 734.591 1701.35 734.235 1701.3 731.675 C 1704.66 734.996 1710.31 750.504 1712.18 755.269 C 1737.86 820.879 1693.56 878.47 1636.95 908.229 z" fill="rgb(169,177,189)" transform="translate(0,0)"></path>
<path d="M 126.556 775.114 C 89.5751 751.488 60.5398 740.482 49.978 692.123 C 44.4001 666.584 47.0406 634.435 54.547 609.406 C 69.4144 625.053 86.1131 633.542 104.004 644.416 C 135.626 663.635 161.702 693.195 159.033 732.368 C 157.9 748.997 157.762 771.929 154.195 788.234 C 153.106 746.007 162.574 708.841 127.141 675.765 C 106.676 656.662 79.8817 643.795 57.4165 626.483 C 55.8428 668.48 66.8153 705.14 95.8622 736.262 C 113.251 754.893 130.694 767.755 146.499 788.406 C 139.41 783.939 133.361 779.984 126.556 775.114 z" fill="rgb(169,177,189)" transform="translate(0,0)"></path>
<path d="M 1884.38 1294.29 C 1879.28 1343.34 1911.64 1369.96 1949.61 1393.64 C 1960.59 1400.48 1975.98 1408.94 1985.58 1417.3 C 1987.52 1418.98 1989.44 1420.69 1991.33 1422.42 L 1992.23 1421.31 C 1992.09 1416.86 1991.94 1418.96 1989.39 1415.06 C 1989.38 1415.06 1988.41 1408.45 1988.36 1408.08 C 1981.58 1359.51 1967.52 1325.83 1930.9 1292.16 C 1923.65 1285.49 1892.92 1260.21 1889.03 1255.32 L 1889.51 1255.17 C 1916.82 1271.34 1945.95 1281.85 1967.19 1306.26 C 2005.64 1350.47 1998.87 1383.45 1995.58 1435.47 C 1982.79 1418.49 1955.4 1408.15 1936.84 1397.59 C 1892.61 1372.45 1875.02 1343.68 1882.81 1292.7 L 1884.38 1294.29 z" fill="rgb(169,177,189)" transform="translate(0,0)"></path>
<path d="M 1531.46 1674.85 C 1557.42 1659.71 1563.09 1639.5 1588.05 1621.39 C 1625.22 1594.42 1671.46 1601.43 1714.46 1608.79 L 1714.58 1609.83 C 1710.39 1610.49 1704.9 1609.67 1700.55 1609.42 C 1623.16 1605.02 1599.51 1623.74 1545.5 1670.88 C 1573.2 1670.34 1594.83 1679.73 1617.55 1678.45 C 1653.42 1676.45 1690.87 1645.52 1713.09 1618.64 L 1714.27 1619.32 C 1704.28 1640.79 1683.82 1662.15 1664.48 1675.51 C 1616.23 1708.85 1579.77 1683.75 1531.46 1674.85 z" fill="rgb(169,177,189)" transform="translate(0,0)"></path>
<path d="M 1620.27 1494.86 C 1644.27 1492.15 1656.45 1475.74 1675.18 1462.79 C 1707.67 1440.33 1743.09 1430 1782.12 1427.61 C 1785.85 1427.38 1794.72 1423.33 1799.68 1422.27 L 1799.42 1423.68 C 1778.23 1430.92 1757.47 1434.42 1737 1442.87 C 1702.87 1456.96 1671.55 1478.19 1639.29 1496.65 C 1670.58 1499.21 1702.19 1515.48 1731.25 1506.38 C 1759.06 1497.66 1780.38 1468.01 1793.13 1443.41 L 1794.4 1445.35 C 1793.34 1447.24 1790.92 1454.01 1789.74 1456.62 C 1786.25 1464.45 1782.25 1472.05 1777.79 1479.37 C 1765.46 1499.46 1752.39 1514.01 1728.73 1519.86 C 1697.68 1527.53 1646.94 1511.23 1620.27 1494.86 z" fill="rgb(169,177,189)" transform="translate(0,0)"></path>
<path d="M 390.103 136.745 C 406.678 154.142 419.667 182.502 419.082 206.959 C 418.048 250.239 395.565 268.53 376.12 299.635 C 391.319 256.054 421.187 199.606 395.101 153.732 L 394.296 154.076 C 391.941 160.705 392.322 180.551 390.86 190.278 C 386.731 217.743 381.91 245.148 377.71 272.56 L 375.648 272.059 C 376.344 252.792 377.636 236.881 381.075 217.747 C 384.214 200.281 389.224 181.362 390.567 163.898 C 367.199 199.428 341.622 215.601 359.891 260.84 C 363.946 270.881 374.142 289.812 373.172 299.574 C 372.037 295.591 371.137 291.342 368.996 287.837 C 353.146 261.895 337.019 232.613 354.474 202.986 C 369.085 178.185 389.364 168.336 390.103 136.745 z" fill="rgb(169,177,189)" transform="translate(0,0)"></path>
<path d="M 1866.18 962.775 C 1873.17 964.736 1883.36 971.192 1890.32 974.456 C 1905.44 981.548 1924.69 988.387 1936.62 1000.57 C 1964.35 1028.91 1959.5 1064.31 1959.66 1099.76 C 1949.08 1085.71 1941.33 1084.29 1925.49 1076.68 C 1896.79 1062.9 1885.12 1041.04 1875.1 1011.75 C 1872.17 1003.51 1870.65 998.199 1868.58 989.676 C 1880.96 1015.81 1890.73 1041.86 1915.05 1058.73 C 1927.34 1067.26 1942.65 1077.13 1954.01 1086.34 C 1950.72 1074.02 1949.23 1061.89 1945.69 1049.53 C 1933.15 1005.75 1898.6 991.927 1866.18 962.775 z" fill="rgb(169,177,189)" transform="translate(0,0)"></path>
<path d="M 1937.91 833.367 C 1962.13 832.575 1978.64 840.755 2000.37 850.026 C 1988.71 856.564 1984.62 861.974 1975.34 871.273 C 1957.53 889.125 1939.77 903.25 1913.81 905.011 C 1879.68 907.327 1853.18 893.022 1828.03 871.305 C 1831.95 872.59 1839.22 879.605 1843.94 881.7 C 1870.79 893.622 1889.59 897.665 1918.33 893.304 C 1949.36 885.48 1964.89 871.694 1989.6 851.862 C 1971.5 843.99 1939.17 842.396 1920.36 847.911 C 1883.43 858.744 1862.53 872.984 1824.57 854.131 C 1830.06 855.133 1842.3 858.645 1846.42 858.87 C 1883.44 860.891 1901.22 836.818 1937.91 833.367 z" fill="rgb(169,177,189)" transform="translate(0,0)"></path>
<path d="M 49.689 1195.6 C 56.7083 1191.62 61.646 1188.37 67.2227 1182.24 C 108.136 1137.3 144.325 1127.94 195.603 1162.69 L 192.791 1163.07 C 176.681 1155.84 165.511 1151.45 147.612 1150.92 C 112.629 1149.87 91.3215 1176.67 63.5839 1192.36 C 64.0905 1193.07 64.597 1193.79 65.1035 1194.51 C 71.8575 1196.32 84.4503 1199.42 90.7299 1200.63 C 139.712 1210.05 150.914 1182.23 199.811 1187.39 C 203.692 1188.08 210.186 1188.97 213.646 1190.26 C 208.763 1190.12 192.845 1190 188.889 1189.3 C 170.839 1193.03 161.745 1201.21 144.616 1207.82 C 104.497 1223.31 83.1961 1201.46 49.689 1195.6 z" fill="rgb(169,177,189)" transform="translate(0,0)"></path>
<path d="M 199.811 1187.39 C 203.692 1188.08 210.186 1188.97 213.646 1190.26 C 208.763 1190.12 192.845 1190 188.889 1189.3 C 192.939 1187.92 195.371 1190.05 199.811 1187.39 z" fill="rgb(191,194,203)" transform="translate(0,0)"></path>
<path d="M 1589.25 597.205 C 1592.41 605.787 1594.93 618.423 1595.46 627.573 C 1603.11 674.888 1585.45 708.217 1574.7 750.28 C 1594.59 715.863 1621.04 686.659 1615.31 644.074 C 1613.18 628.209 1609.1 619.049 1599.2 606.715 L 1600.37 604.643 C 1604.85 611.785 1610.29 618.2 1614.44 625.456 C 1624.99 643.859 1625.69 664.341 1621.13 684.561 C 1614.5 713.96 1595.45 734.543 1573.12 753.602 C 1554.69 707.931 1551.55 676.626 1571.58 631.324 C 1574.81 624.002 1576.26 613.905 1579.55 607.458 C 1578.83 619.267 1572.76 634.25 1569.75 646.016 C 1560.87 680.725 1566.31 710.267 1575.15 744.221 C 1583.62 704.468 1596.69 667.687 1593.31 627.477 C 1592.58 615.931 1590.62 608.271 1589.25 597.205 z" fill="rgb(152,164,179)" transform="translate(0,0)"></path>
<path d="M 165.896 1284.63 C 203.349 1291.26 226.229 1278.57 261.5 1303.88 C 267.246 1308 297.582 1335.22 298.503 1340.9 C 275.409 1320.48 249.443 1300.64 218.085 1296.12 C 204.784 1294.21 191.568 1293.96 178.429 1290.7 C 176.809 1290.3 176.588 1290.25 174.853 1290.57 L 175.83 1292.28 C 181.869 1300.91 188.234 1309.31 194.911 1317.46 C 217.645 1345.06 255.782 1348.4 288.962 1351.56 L 289.113 1352.49 C 266.381 1353.97 242.82 1360.01 220.514 1352.38 C 191.427 1342.43 178.137 1310.22 165.896 1284.63 z" fill="rgb(169,177,189)" transform="translate(0,0)"></path>
<path d="M 1679.26 1754.76 C 1693.15 1778.43 1705.81 1804.5 1697.87 1832.77 C 1688.26 1866.97 1664.04 1875.27 1656.55 1915.1 C 1638.75 1885.31 1625.91 1868.26 1633.9 1831.8 C 1638.5 1810.83 1656.85 1780.27 1660.68 1762.49 L 1662.54 1764.48 C 1655.15 1807.67 1633.95 1842.26 1649.32 1885.83 C 1651.19 1891.13 1651.94 1894.81 1654.73 1899.88 C 1664.22 1873.04 1682.6 1855.48 1690.9 1830.31 C 1698.62 1806.86 1690.34 1778.17 1678.89 1757.09 L 1679.26 1754.76 z" fill="rgb(169,177,189)" transform="translate(0,0)"></path>
<path d="M 398.442 1505.18 C 419.851 1503.67 442.98 1507.45 461.609 1518.43 C 459.931 1519.01 436.901 1510.71 432.754 1510.03 C 411.951 1506.65 391.278 1514.6 374.834 1526.9 C 355.699 1541.22 341.022 1561.46 337.496 1585.36 C 340.517 1583.08 343.584 1580.64 347.038 1579.04 C 355.725 1575 365.893 1573.07 375.08 1570.31 C 386.129 1567 396.905 1563.08 407.693 1559.01 C 425.11 1552.71 441.422 1543.81 458.963 1537.65 C 455.115 1540.91 449.972 1543.3 445.764 1546.22 C 422.296 1562.48 401.09 1575.29 372.723 1581.57 C 358.578 1584.7 345.493 1585.54 331.641 1590.38 C 333.659 1572.32 336.08 1555.37 346.142 1539.81 C 358.238 1521.11 376.923 1509.76 398.442 1505.18 z" fill="rgb(169,177,189)" transform="translate(0,0)"></path>
<path d="M 1718.22 979.005 C 1734.32 957.342 1754.23 932.446 1765.09 908.878 C 1768.58 901.287 1771.46 893.43 1773.69 885.381 C 1775.46 879.135 1777.65 863.071 1780.69 858.968 C 1781.26 864.221 1778.77 870.809 1777.66 876.113 C 1768.48 920.118 1754 944.101 1721.72 974.867 C 1757.25 959.995 1781.63 935.985 1787.61 896.945 C 1787.72 896.619 1788.69 887.243 1788.92 885.674 C 1796.25 911.918 1786.29 938.921 1767.05 957.236 C 1750.19 973.293 1732.67 975.767 1712.06 983.931 C 1717.38 962.779 1716.13 941.684 1726.17 921.673 C 1736.05 901.972 1751.59 889.743 1767.37 875.137 L 1768.19 877.02 L 1767.39 878.238 C 1760.8 888.119 1752.39 895.192 1745.56 904.94 C 1728.68 929.013 1727.67 952.169 1718.22 979.005 z" fill="rgb(169,177,189)" transform="translate(0,0)"></path>
<path d="M 213.165 537.177 C 202.554 521.868 188.587 512.784 178.281 493.817 C 160.247 460.628 176.664 426.209 186.764 392.318 L 187.755 393.679 C 199.716 410.434 216.726 422.998 227.844 440.437 C 245.338 467.879 235.664 494.373 229.599 522.437 L 227.581 520.981 C 229.085 500.452 235.401 474.219 227.062 454.644 C 219.871 437.762 204.375 420.814 191.485 407.906 C 191.376 409.756 191.384 411.936 190.921 413.668 C 190.527 416.455 190.004 418.979 190.238 421.778 L 188.485 421.892 L 185.94 425.498 C 173.667 477.333 187.584 493.431 214.962 535.262 L 213.165 537.177 z" fill="rgb(169,177,189)" transform="translate(0,0)"></path>
<path d="M 185.94 425.498 C 187.079 420.57 187.262 410.894 189.498 407.634 L 191.485 407.906 C 191.376 409.756 191.384 411.936 190.921 413.668 C 190.527 416.455 190.004 418.979 190.238 421.778 L 188.485 421.892 L 185.94 425.498 z" fill="rgb(255,255,255)" transform="translate(0,0)"></path>
<path d="M 93.5502 949.328 C 113.778 967.768 125.444 967.786 144.067 983.083 C 167.674 1002.48 170.786 1038.34 172.383 1066.9 C 172.596 1067.01 164.328 1031.12 163.071 1027.03 C 152.816 993.678 121.014 981.713 97.454 958.945 C 96.5655 972.935 97.3442 980.561 101.832 993.837 C 98.5624 999.602 101.543 1010.72 105.468 1015.46 C 114.318 1034.68 130.543 1048.79 148.172 1059.78 C 155.554 1064.38 163.743 1068.96 170.059 1074.81 C 146.503 1061.66 126.115 1064.14 105.644 1036.68 C 85.8213 1010.09 89.1339 980.452 93.5502 949.328 z" fill="rgb(169,177,189)" transform="translate(0,0)"></path>
<path d="M 1838.77 1219.61 L 1839.33 1221.39 C 1795.36 1232.51 1768.12 1278.92 1741.16 1311.19 C 1747.04 1308.78 1748.68 1308.13 1754.1 1304.35 C 1790.09 1304.23 1818.6 1293.3 1836.62 1260.98 C 1839.1 1256.54 1841.52 1247.13 1843.39 1244.49 L 1843.52 1246.68 L 1843.73 1244.99 C 1839.99 1259.78 1841.61 1260.65 1833.9 1275.22 C 1821.37 1298.89 1798.96 1310.61 1772.88 1313.11 C 1755.75 1314.76 1746.46 1312.82 1729.35 1317.86 C 1739.49 1306.93 1747.49 1293.77 1753.93 1280.35 C 1772.31 1242.11 1800.3 1232.75 1838.77 1219.61 z" fill="rgb(169,177,189)" transform="translate(0,0)"></path>
<path d="M 1608.8 503.949 C 1639.74 461.446 1668.64 453.441 1719.03 459.561 C 1715.67 465.703 1712.29 476.05 1710.07 483.015 C 1697.22 523.351 1649.21 542.863 1609.15 533.529 C 1606.11 532.855 1602.99 531.803 1599.99 530.88 L 1621.14 531.099 C 1657.97 525.387 1676.16 516.932 1700.4 486.066 C 1707.05 477.601 1709.51 470.941 1714.69 462.245 L 1713.78 462.431 C 1704.61 464.219 1693.32 464.787 1683.88 466.349 C 1649.17 472.089 1634.6 482.369 1608.8 503.949 z" fill="rgb(169,177,189)" transform="translate(0,0)"></path>
<path d="M 1609.15 533.529 C 1606.11 532.855 1602.99 531.803 1599.99 530.88 L 1621.14 531.099 C 1617.52 531.936 1611.82 532.084 1609.15 533.529 z" fill="rgb(169,177,189)" transform="translate(0,0)"></path>
<path d="M 1859.12 1647.51 C 1857.26 1629.21 1854.55 1615.09 1848.11 1597.65 C 1837.91 1570.01 1817.72 1539.66 1821.87 1509.11 C 1847.14 1537.46 1875.54 1553.17 1874.46 1599.59 C 1874.02 1618.15 1866.55 1630.63 1864.36 1646.1 L 1861.01 1646.01 C 1871.42 1593.9 1860.14 1566.3 1831.31 1523.23 C 1827.96 1518.24 1825.43 1515.14 1821.4 1510.64 C 1822.99 1521.84 1826.13 1531.33 1829.46 1542.01 C 1840.52 1577.4 1865.05 1608.53 1859.12 1647.51 z" fill="rgb(169,177,189)" transform="translate(0,0)"></path>
<path d="M 1427.26 1784.89 C 1438.52 1788.37 1445.3 1797.22 1455.42 1804.06 C 1485.59 1824.47 1517.65 1822.73 1549.48 1806.83 C 1555.29 1803.93 1559.03 1801 1565.13 1798.22 L 1565.58 1798.85 C 1547.16 1814.47 1512.06 1832.12 1487 1829.65 C 1457.99 1826.79 1442.49 1809.02 1423.35 1789.8 L 1427.26 1784.89 z" fill="rgb(169,177,189)" transform="translate(0,0)"></path>
<path d="M 1452.29 1747.07 C 1480.74 1747 1508.76 1753.13 1532.92 1768.59 C 1548.51 1778.57 1555.83 1784.93 1573.2 1792.26 L 1571.88 1791.95 C 1558.75 1788.8 1551.25 1782.58 1539.47 1777.32 C 1509.19 1763.8 1474.39 1752.27 1441.8 1763.64 C 1445.32 1757.76 1448.37 1752.68 1452.29 1747.07 z" fill="rgb(169,177,189)" transform="translate(0,0)"></path>
<path d="M 65.8589 652.667 C 77.0857 673.259 88.1398 681.468 103.803 698.643 C 119.87 716.259 134.532 739.33 142.701 761.775 C 144.117 765.665 149.314 779.341 149.809 782.54 C 139.962 769.377 132.056 748.275 121.255 733.315 C 100.943 705.18 75.1844 686.215 62.4175 653.556 L 65.8589 652.667 z" fill="rgb(169,177,189)" transform="translate(0,0)"></path>
<path d="M 1808.08 1551.01 L 1810.82 1553.92 C 1810.66 1584.79 1823.49 1605.28 1843.77 1627.69 C 1848.36 1632.77 1856.01 1642.36 1861.01 1646.01 L 1864.36 1646.1 C 1864.3 1649.77 1864.29 1652.8 1864.46 1656.47 L 1863.44 1657.24 C 1862.06 1656.1 1861.03 1655.27 1859.74 1654.03 C 1826.22 1622.49 1801.41 1600.11 1808.08 1551.01 z" fill="rgb(169,177,189)" transform="translate(0,0)"></path>
<path d="M 1861.01 1646.01 L 1864.36 1646.1 C 1864.3 1649.77 1864.29 1652.8 1864.46 1656.47 L 1863.44 1657.24 C 1862.06 1656.1 1861.03 1655.27 1859.74 1654.03 C 1860.04 1650.89 1860.37 1649.11 1861.01 1646.01 z" fill="rgb(152,164,179)" transform="translate(0,0)"></path>
<path d="M 1883.67 1253.27 L 1884.55 1253.12 C 1887.08 1262.87 1891.95 1271.21 1897.21 1279.69 C 1921.9 1319.48 1963.28 1347.84 1980.78 1392.08 C 1982.86 1397.32 1985.06 1402.58 1985.9 1408.18 C 1977.45 1391.65 1968.88 1375.27 1957.41 1360.58 C 1931.22 1327.04 1906.64 1314.15 1889.73 1270.99 C 1887.45 1265.18 1884.09 1259.58 1883.67 1253.27 z" fill="rgb(169,177,189)" transform="translate(0,0)"></path>
<path d="M 1794.37 1012.74 C 1794.62 1014.13 1734.74 1217.23 1731.11 1222.62 C 1731.81 1217.96 1731.02 1213.7 1732.21 1209.1 C 1749.07 1143.51 1773.03 1076.86 1794.37 1012.74 z" fill="rgb(169,177,189)" transform="translate(0,0)"></path>
<path d="M 1665.27 1491.08 C 1679.56 1484.8 1694.07 1479 1708.75 1473.69 C 1743.27 1461.32 1761.63 1454.45 1791.35 1431.04 C 1764.76 1465.92 1733.67 1471.48 1693.82 1484.65 C 1686.29 1487.14 1674.06 1489.73 1667.35 1492.38 L 1665.27 1491.08 z" fill="rgb(169,177,189)" transform="translate(0,0)"></path>
<path d="M 1569.23 1660.17 C 1576.31 1656.51 1583.35 1652.9 1590.66 1649.61 C 1627.12 1633.19 1668.48 1629.17 1705.22 1613.74 C 1707.12 1612.94 1705.71 1613.16 1707.96 1613.23 C 1706.51 1615.27 1700.21 1617.84 1697.66 1619.01 C 1656.76 1637.69 1613.5 1644.23 1571.38 1661.42 L 1569.23 1660.17 z" fill="rgb(169,177,189)" transform="translate(0,0)"></path>
<path d="M 1435.18 1773.75 C 1462.62 1773.54 1501.5 1784.68 1528.51 1790.76 C 1532.07 1791.56 1553.51 1796.14 1555.45 1796.02 L 1556 1796.65 C 1544.84 1798.18 1498.9 1787.32 1484.48 1785.54 C 1466.92 1783.38 1448.98 1780.99 1430.79 1779.69 C 1432.13 1777.55 1433.63 1775.75 1435.18 1773.75 z" fill="rgb(169,177,189)" transform="translate(0,0)"></path>
<path d="M 1848.28 1213.65 C 1848.61 1214.98 1848.87 1215.37 1848.5 1216.74 C 1840.31 1246.92 1816.94 1262.41 1792.33 1278.65 C 1781.64 1285.7 1771.04 1292.97 1759.92 1299.34 C 1759.78 1297.35 1761.72 1295.62 1763.11 1294.28 C 1788.32 1269.82 1821.7 1259.56 1841.03 1228.23 C 1843.9 1223.58 1845.83 1218.52 1848.28 1213.65 z" fill="rgb(169,177,189)" transform="translate(0,0)"></path>
<path d="M 348.29 1565.29 C 355.302 1556.64 363.337 1548.88 372.218 1542.17 C 397.024 1523.8 419.005 1521.79 448.478 1526.04 L 446.836 1527.2 C 401.679 1525.89 382.866 1541.71 348.29 1565.29 z" fill="rgb(169,177,189)" transform="translate(0,0)"></path>
<path d="M 1669.34 1746.72 C 1677.85 1787.68 1667.66 1810.19 1660.54 1848.63 C 1658.15 1861.54 1657.31 1874.67 1656.64 1887.76 L 1656.07 1888.45 L 1655.22 1888.2 C 1654.72 1873.19 1654.5 1858.46 1657.19 1843.62 C 1660.38 1826.06 1666.25 1809.11 1668.69 1791.38 C 1670.7 1776.73 1668.58 1761.53 1669.34 1746.72 z" fill="rgb(152,164,179)" transform="translate(0,0)"></path>
<path d="M 99.8638 969.751 C 104.115 973.908 107.635 984.819 111.808 989.643 C 135.771 1017.35 155.358 1036.21 170.947 1070.52 C 166.688 1067.79 158.035 1050.28 153.648 1044.79 C 139.714 1027.35 122.128 1012.05 109.348 993.925 C 105.885 989.014 101.716 975.801 99.8638 969.751 z" fill="rgb(169,177,189)" transform="translate(0,0)"></path>
<path d="M 1502.67 1864.87 C 1502.68 1865.38 1502.79 1865.9 1502.7 1866.4 C 1500.36 1879.87 1462.08 1910.96 1450.67 1921.68 C 1437.65 1933.91 1425.01 1946.6 1412.05 1958.91 L 1411.81 1957.74 C 1425.17 1941.33 1439.57 1925.8 1454.94 1911.26 C 1471.52 1895.83 1489.53 1883.7 1502.67 1864.87 z" fill="rgb(169,177,189)" transform="translate(0,0)"></path>
<path d="M 154.767 1169.37 C 167.276 1168.27 179.096 1169.07 191.514 1170.79 C 195.923 1171.39 204.06 1175.16 207.915 1173.45 C 206.838 1172.36 206.018 1171.41 205.101 1170.16 C 209.203 1172.39 213.319 1174.82 217.692 1176.46 C 219.175 1177.02 219.984 1177.35 221.373 1178.21 C 213.013 1178.65 203.313 1174.54 194.926 1173.32 C 175.681 1170.52 156.277 1173.21 137.217 1175.99 C 115.952 1179.68 95.3603 1187.01 74.6757 1193.07 L 74.4767 1192.64 C 99.7409 1180.42 126.885 1172.56 154.767 1169.37 z" fill="rgb(169,177,189)" transform="translate(0,0)"></path>
<path d="M 1640.52 898.527 C 1664.93 850.471 1685.2 813.301 1692.1 758.261 C 1693.16 749.8 1695.74 736.353 1695.39 728.353 L 1696.58 727.231 C 1697.25 736.538 1695.46 743.934 1694.73 752.836 C 1691.37 793.514 1679.2 829.137 1661.04 865.361 C 1656.74 873.928 1644.32 892.271 1641.66 898.92 L 1640.52 898.527 z" fill="rgb(152,164,179)" transform="translate(0,0)"></path>
<path d="M 631.861 87.9718 C 632.259 88.4015 632.362 89.0311 632.58 89.5747 C 621.152 106.454 609.191 115.709 595.326 130.26 C 582.421 143.804 567.641 159.77 556.004 174.305 L 555.862 174.262 L 555.344 173.219 C 566.122 153.114 613.513 102.678 631.861 87.9718 z" fill="rgb(169,177,189)" transform="translate(0,0)"></path>
<path d="M 190.921 413.668 C 195.087 437.054 199.28 456.59 206.137 479.29 C 211.288 496.343 219.642 517.784 223.375 534.586 C 209.222 501.326 194.299 470.52 191.288 433.88 C 190.984 430.177 190.764 425.37 190.238 421.778 C 190.004 418.979 190.527 416.455 190.921 413.668 z" fill="rgb(169,177,189)" transform="translate(0,0)"></path>
<path d="M 1853.98 961.712 C 1859.71 963.397 1876.31 983.223 1881.48 988.635 C 1903.12 1011.32 1939.51 1038.24 1947.07 1069.52 C 1943.6 1067.63 1929.25 1042.86 1924.62 1037.83 C 1901.42 1012.64 1877.57 986.406 1853.98 961.712 z" fill="rgb(169,177,189)" transform="translate(0,0)"></path>
<path d="M 1865.9 876.297 C 1899.31 872.986 1931.22 859.652 1965.08 855.544 L 1965.53 857.592 C 1951.53 861.864 1891.47 877.674 1879.05 877.995 C 1875.48 877.703 1870.4 877.927 1866.73 877.999 L 1865.9 876.297 z" fill="rgb(169,177,189)" transform="translate(0,0)"></path>
<path d="M 1702.74 468.026 L 1703.54 468.725 C 1683.4 491.019 1645.98 504.011 1619.97 515.951 L 1619.33 515.048 C 1627.18 507.848 1666.62 489.154 1678.29 482.811 C 1687.45 477.83 1693.61 474.185 1702.74 468.026 z" fill="rgb(169,177,189)" transform="translate(0,0)"></path>
<path d="M 185.682 1300.22 L 187.007 1299.89 C 197.932 1304.77 208.579 1310.14 219.803 1314.34 C 250.592 1325.87 283.641 1334.6 309.978 1355.14 C 302.609 1353.21 296.24 1346.39 289.196 1343.17 C 265.411 1332.32 200.052 1315.24 185.682 1300.22 z" fill="rgb(169,177,189)" transform="translate(0,0)"></path>
<path d="M 101.832 993.837 C 110.882 1014.56 119.289 1025.83 135.744 1041.97 C 138.517 1044.69 148.264 1052.39 149.623 1054.73 C 141.796 1052.56 114.214 1025.31 108.122 1017.41 C 106.891 1015.82 106.469 1015.99 105.468 1015.46 C 101.543 1010.72 98.5624 999.602 101.832 993.837 z" fill="rgb(169,177,189)" transform="translate(0,0)"></path>
<path d="M 1776.52 694.992 C 1783.45 692.769 1793.52 691.119 1800.75 691.682 L 1799.33 692.702 L 1799.56 694.554 C 1799.81 696.689 1799.86 696.945 1799.23 699.065 C 1792.48 697.828 1786.16 697.824 1779.38 698.411 L 1776.52 694.992 z" fill="rgb(191,194,203)" transform="translate(0,0)"></path>
<path d="M 1808.08 1551.01 C 1809.7 1544.82 1812.01 1532.81 1816.17 1528.81 C 1814.72 1538.14 1812 1542.88 1810.82 1553.92 L 1808.08 1551.01 z" fill="rgb(191,194,203)" transform="translate(0,0)"></path>
<path d="M 1787.61 896.945 C 1785.74 883.687 1787.32 883.889 1783.05 867.919 L 1783.76 867.037 C 1785.74 871.487 1788.75 880.83 1788.92 885.674 C 1788.69 887.243 1787.72 896.619 1787.61 896.945 z" fill="rgb(191,194,203)" transform="translate(0,0)"></path>
<path d="M 1851.13 877.399 C 1856.04 876.914 1860.97 876.547 1865.9 876.297 L 1866.73 877.999 C 1870.4 877.927 1875.48 877.703 1879.05 877.995 C 1871.83 879.875 1858.4 879.485 1851.13 877.399 z" fill="rgb(191,194,203)" transform="translate(0,0)"></path>
<path d="M 58.6086 635.763 C 60.5156 641.456 63.334 647.188 65.8589 652.667 L 62.4175 653.556 C 60.3822 646.986 59.7224 642.541 58.6086 635.763 z" fill="rgb(169,177,189)" transform="translate(0,0)"></path>
<path d="M 1965.08 855.544 C 1968.72 854.613 1975.07 852.43 1978.27 853.679 C 1975.25 855.755 1969.27 856.961 1965.53 857.592 L 1965.08 855.544 z" fill="rgb(191,194,203)" transform="translate(0,0)"></path>
<path d="M 374.676 290.689 C 374.763 284.528 374.587 278.082 375.648 272.059 L 377.71 272.56 C 377.021 278.898 376.766 284.691 374.676 290.689 z" fill="rgb(191,194,203)" transform="translate(0,0)"></path>
<path d="M 1779.38 698.411 C 1775.56 698.552 1772.79 699.002 1769.22 697.693 C 1770.93 695.578 1773.13 695.785 1776.52 694.992 L 1779.38 698.411 z" fill="rgb(222,223,227)" transform="translate(0,0)"></path>
<path d="M 1882.81 1292.7 C 1882.96 1288.9 1882.72 1285.07 1884.42 1281.76 C 1885.89 1284.67 1885.05 1291.13 1884.38 1294.29 L 1882.81 1292.7 z" fill="rgb(191,194,203)" transform="translate(0,0)"></path>
<path d="M 1713.09 1618.64 C 1715.52 1613.86 1716.92 1610.97 1718.86 1605.89 C 1719.52 1611.25 1717.28 1614.83 1714.27 1619.32 L 1713.09 1618.64 z" fill="rgb(191,194,203)" transform="translate(0,0)"></path>
<path d="M 1582.92 588.484 C 1587 590.123 1589.44 594.059 1592.34 597.625 C 1586.27 596.009 1586.31 594.269 1582.92 588.484 z" fill="rgb(222,223,227)" transform="translate(0,0)"></path>
<path d="M 1793.13 1443.41 C 1794.1 1440.1 1794.84 1436.54 1796.86 1433.83 C 1797.47 1437.29 1795.55 1441.79 1794.4 1445.35 L 1793.13 1443.41 z" fill="rgb(222,223,227)" transform="translate(0,0)"></path>
<path d="M 1599.2 606.715 C 1596.93 604.005 1595.11 602.705 1595.13 599.805 C 1597.93 600.787 1598.58 602.232 1600.37 604.643 L 1599.2 606.715 z" fill="rgb(222,223,227)" transform="translate(0,0)"></path>
<path d="M 149.809 782.54 C 151.285 784.427 152.748 786.325 154.195 788.234 C 154.975 791.106 154.779 790.077 154.547 793.173 C 152.03 789.422 151.303 786.722 149.809 782.54 z" fill="rgb(169,177,189)" transform="translate(0,0)"></path>
<path d="M 1660.68 1762.49 C 1661.35 1759.81 1661.54 1756.68 1663.22 1755.3 C 1663.67 1759.4 1663.31 1760.34 1662.54 1764.48 L 1660.68 1762.49 z" fill="rgb(169,177,189)" transform="translate(0,0)"></path>
<path d="M 1571.38 1661.42 C 1567.86 1662.67 1567.07 1663.67 1564.07 1662.95 C 1565.78 1660.57 1565.76 1661.23 1569.23 1660.17 L 1571.38 1661.42 z" fill="rgb(222,223,227)" transform="translate(0,0)"></path>
<path d="M 195.603 1162.69 C 198.995 1164.58 198.158 1163.27 199.468 1166.08 C 196.012 1166.23 196.413 1165.58 192.791 1163.07 L 195.603 1162.69 z" fill="rgb(222,223,227)" transform="translate(0,0)"></path>
<path d="M 1667.35 1492.38 C 1664.12 1493.64 1663.83 1493.94 1660.29 1494.17 L 1660.24 1493.13 C 1661.27 1492.45 1663.97 1491.56 1665.27 1491.08 L 1667.35 1492.38 z" fill="rgb(222,223,227)" transform="translate(0,0)"></path>
<path d="M 229.599 522.437 C 229.103 524.455 228.597 525.759 227.911 527.741 L 226.95 527.924 C 226.518 524.53 226.797 524.238 227.581 520.981 L 229.599 522.437 z" fill="rgb(191,194,203)" transform="translate(0,0)"></path>
<path d="M 1678.89 1757.09 C 1676.75 1753.55 1676.09 1752.88 1675.28 1748.94 C 1677.64 1750.33 1677.76 1751.85 1679.26 1754.76 L 1678.89 1757.09 z" fill="rgb(191,194,203)" transform="translate(0,0)"></path>
<path d="M 1767.37 875.137 L 1770.51 871.066 L 1771.56 870.994 C 1770.56 874.321 1770.28 874.367 1768.19 877.02 L 1767.37 875.137 z" fill="rgb(191,194,203)" transform="translate(0,0)"></path>
<path d="M 1838.77 1219.61 L 1843.21 1217.66 L 1844.37 1218.23 C 1842.03 1220.26 1842.17 1220.21 1839.33 1221.39 L 1838.77 1219.61 z" fill="rgb(222,223,227)" transform="translate(0,0)"></path>
<path d="M 214.962 535.262 L 217.328 538.83 L 216.785 539.989 C 214.505 539.028 214.614 539.168 213.165 537.177 L 214.962 535.262 z" fill="rgb(222,223,227)" transform="translate(0,0)"></path>
<path d="M 448.478 1526.04 L 451.642 1526.11 L 452.536 1527.1 C 449.751 1528.18 449.816 1527.92 446.836 1527.2 L 448.478 1526.04 z" fill="rgb(222,223,227)" transform="translate(0,0)"></path>
<metadata><recraft-signature>{"signed_by": "recraft", "signature_b64": "FFP8+rLqP4+hd8Ui7WdB/j0Jimi/q3/6bzpCk+H5zalB7qPDCC0WwWdqqzBtDstsry0siZO7pkS1R/EzJoBQDg==", "signing_algo": "Ed25519", "generation_timestamp": 1772546556, "identifier": "ad1d8ea3-8ade-4a1e-ba68-6c28e78210b6"}</recraft-signature></metadata></svg>