<svg xmlns="http://www.w3.org/2000/svg" height="1024" preserveAspectRatio="none" style="display: block;" version="1.1" viewBox="0 0 2048 2048" width="1024">
<path d="M 0 0 L 2048 0 L 2048 2048 L 0 2048 L 0 0 z" fill="rgb(245,235,211)" transform="translate(0,0)"></path>
<path d="M 1003.51 185.833 C 1477.13 169.245 1874.31 540.182 1890.08 1013.83 C 1905.85 1487.47 1534.23 1884.01 1060.56 1898.97 C 588.036 1913.88 192.674 1543.36 176.941 1070.87 C 161.208 598.379 531.047 202.379 1003.51 185.833 z" fill="rgb(83,35,35)" transform="translate(0,0)"></path>
<path d="M 1020.67 200.239 C 1486.04 193.337 1868.8 565.166 1875.39 1030.54 C 1881.98 1495.91 1509.89 1878.43 1044.51 1884.7 C 579.579 1890.96 197.511 1519.31 190.93 1054.38 C 184.349 589.455 555.744 207.136 1020.67 200.239 z" fill="rgb(245,235,211)" transform="translate(0,0)"></path>
<path d="M 1020.27 218.801 C 1475.25 211.424 1850.1 574.196 1857.62 1029.17 C 1865.14 1484.14 1502.49 1859.1 1047.52 1866.77 C 592.344 1874.45 217.171 1511.59 209.645 1056.42 C 202.119 601.236 565.092 226.18 1020.27 218.801 z" fill="rgb(83,35,35)" transform="translate(0,0)"></path>
<path d="M 1013.05 233.542 C 1460.21 222.429 1831.66 576.025 1842.56 1023.19 C 1853.47 1470.35 1499.7 1841.63 1052.53 1852.33 C 605.656 1863.01 234.674 1509.53 223.777 1062.66 C 212.88 615.795 566.192 244.648 1013.05 233.542 z" fill="rgb(245,235,211)" transform="translate(0,0)"></path>
<path d="M 998.682 469.432 C 1034.37 466.007 1080.84 469.997 1116.28 475.791 C 1217.87 491.366 1313.36 534.149 1392.61 599.602 C 1514.69 700.541 1596.36 835.233 1611.43 994.442 C 1626.08 1149.17 1576.96 1317.63 1477.52 1437.58 C 1394.85 1536.39 1281.47 1604.67 1155.47 1631.53 C 1126.19 1637.7 1098.62 1640.2 1068.96 1643 C 1044.63 1643.88 1005.06 1639.91 979.9 1636.45 C 962.064 1633.98 917.58 1628.7 901.047 1624.32 C 847.933 1609.18 791.844 1589.12 744.423 1560.42 C 721.352 1546.45 691.346 1520.99 670.45 1503.59 C 632.186 1471.71 601.923 1430.11 563.065 1398.38 C 543.153 1382.12 525.261 1351.03 513.455 1328.03 C 476.076 1255.28 454.789 1175.35 451.039 1093.65 C 442.063 927.952 494.511 781.825 605.732 658.915 C 716.207 536.828 834.365 478.321 998.682 469.432 z" fill="rgb(83,35,35)" transform="translate(0,0)"></path>
<path d="M 1018.46 487.456 C 1220.25 480.381 1406.89 597.533 1513.03 764.072 C 1590.33 885.37 1612.78 1026.96 1583.58 1167.24 C 1548.66 1334.96 1466.43 1451.92 1325.26 1545.26 C 1343.33 1490.38 1365.3 1416.89 1378.78 1360.52 C 1392.96 1361.5 1409.74 1363.49 1423.86 1365.33 C 1415.72 1296.57 1403.38 1226.08 1396.03 1157.78 C 1395.11 1152.18 1394.36 1145.92 1393.73 1140.27 C 1390.3 1109.52 1384.47 1078.53 1381.56 1047.78 C 1372.42 1047.89 1362.32 1048.65 1353.13 1049.17 C 1355.05 1037.3 1369.47 1002.77 1366.99 993.352 C 1337.76 964.771 1337.89 1024.5 1331.21 1038.36 C 1330.67 1039.47 1327.04 1039.17 1325.69 1039.22 C 1322.93 1041.68 1320.5 1049.93 1319.06 1053.85 C 1249.55 1059.84 1180.09 1066.29 1110.66 1073.2 C 1114.74 1054.43 1117.83 1033.48 1121.11 1014.4 L 1139.16 906.979 C 1142.13 888.949 1144.94 871.621 1148.24 852.922 C 1150.96 837.495 1164.17 813.195 1162.29 797.935 C 1161.63 792.549 1147.26 785.429 1142.28 782.855 C 1147.1 766.737 1152.05 750.659 1157.13 734.623 C 1165.36 732.486 1181.18 729.807 1185.36 722.73 C 1185.44 714.554 1178.87 703.222 1174.42 696.248 C 1148.02 654.885 1125.21 607.98 1097.89 567.558 C 1074.63 573.54 1040.45 588.491 1017.76 597.012 C 1001.33 603.181 939.762 625.646 929.544 636.361 C 926.055 647.423 939.981 652.669 947.875 657.005 C 940.974 678.355 930.316 699.632 922.881 722.006 C 917.223 722.425 904.774 724.97 900.213 722.423 C 897.89 715.052 904.476 704.149 897.505 698.399 C 892.298 697.873 889.8 700.25 885.699 703.301 C 851.473 695.409 820.482 686.7 789.286 670.269 C 767.934 659.024 739.365 647.936 728.817 624.702 C 749.533 595.199 769.326 577.659 802.968 564.897 C 796.901 557.55 789.341 550.554 781.825 544.698 C 791.254 538.425 810.273 530.554 821.286 526.13 C 886.001 500.132 949.278 490.117 1018.46 487.456 z" fill="rgb(245,235,211)" transform="translate(0,0)"></path>
<path d="M 1531.87 906.371 L 1533.72 906.673 C 1531.81 909.38 1528.67 910.603 1525.65 912.337 C 1503.84 924.856 1497.52 929.197 1487.01 952.256 C 1472.06 937.513 1461.55 932.181 1440.86 928.347 C 1434.33 927.184 1424.34 926.719 1417.18 925.908 C 1442.56 919.429 1459.81 919.314 1483.31 930.542 C 1497.54 916.311 1511.92 909.035 1531.87 906.371 z" fill="rgb(83,35,35)" transform="translate(0,0)"></path>
<path d="M 1171.15 811.044 C 1184.99 812.211 1230.9 824.279 1246.36 827.829 C 1288.14 837.417 1330.68 848.05 1372.76 857.164 C 1378.36 858.376 1378.62 858.482 1381.25 862.836 C 1378.68 863.104 1377.13 863.043 1374.52 862.526 C 1321.39 851.957 1268.67 838.835 1216.02 826.084 C 1206.51 823.779 1176.27 818.178 1171.15 811.044 z" fill="rgb(80,21,16)" transform="translate(0,0)"></path>
<path d="M 1357.65 754.416 C 1360.73 753.895 1359.35 753.635 1361.97 755.031 L 1362.22 756.842 C 1359.23 760.058 1337.74 762.166 1332.11 763.112 C 1278.28 772.514 1224.31 781.129 1170.23 788.954 C 1167.87 789.067 1168.36 789.031 1166 788.594 L 1165.4 787.309 C 1165.98 786.786 1166.57 786.263 1167.16 785.74 C 1214.24 777.211 1316.59 759.635 1357.65 754.416 z" fill="rgb(80,21,16)" transform="translate(0,0)"></path>
<path d="M 1161.63 828.934 C 1162.82 829.302 1166.01 830.407 1166.91 831.107 C 1186.2 846.136 1306.11 939.406 1309.56 951.847 C 1309.59 951.846 1306.87 952.105 1306.38 951.699 C 1259.71 913.423 1213.08 874.582 1167.1 835.373 C 1164.26 832.945 1163.23 831.493 1161.63 828.934 z" fill="rgb(80,21,16)" transform="translate(0,0)"></path>
<path d="M 1565.96 954.478 L 1566.25 954.625 L 1566.46 955.635 C 1562.41 957.321 1558.43 959.173 1554.53 961.186 C 1536.72 970.473 1532.26 980.257 1526.67 998.189 C 1511.2 988.883 1502.18 986.392 1484.45 985.931 C 1480.14 986.534 1473.96 987.892 1469.55 988.733 C 1489.42 978.447 1499.32 979.716 1521.05 980.186 C 1529.38 964.066 1548.67 956.116 1565.96 954.478 z" fill="rgb(83,35,35)" transform="translate(0,0)"></path>
<path d="M 707.852 591.046 L 708.46 591.886 C 701.514 602.937 696.284 610.943 691.163 622.963 C 660.331 695.331 666.667 790.231 708.932 856.828 C 718.015 851.841 759.074 822.979 762.988 814.892 C 760.36 810.358 742.73 803.32 737.696 799.19 C 724.669 788.501 694.844 758.366 719.007 744.521 C 764.235 718.607 820.668 729.659 868.623 740.86 C 870.907 743.863 872.035 746.158 875.543 747.264 C 879.184 746.792 880.757 744.735 883.562 742.226 C 887.177 749.992 891.642 758.32 895.481 766.051 C 895.801 766.697 895.117 769.757 894.846 770.698 L 894.341 772.402 L 895.827 773.913 C 901.579 775.234 906.055 774.431 911.946 773.921 C 905.31 798.376 890.617 835.859 881.664 860.096 L 842.684 967.73 C 812.229 1050.47 782.777 1137.54 750.584 1219.25 C 731.917 1269.09 713.499 1323.19 693.439 1372.24 C 645.846 1339.68 584.914 1318.1 527.703 1311.7 C 518.32 1292.42 508.631 1273.32 501.489 1253.14 C 471.776 1169.18 461.91 1069.74 473.935 981.621 C 496.101 819.197 580.681 690.165 707.852 591.046 z" fill="rgb(245,235,211)" transform="translate(0,0)"></path>
<path d="M 1000.62 785.196 C 1036.45 793.933 1112.9 819.386 1141.4 842.37 C 1133.8 897.406 1121.54 953.443 1113.53 1008.59 C 1110.47 1029.67 1106.88 1052.93 1102.49 1073.74 C 1098 1074.27 1093.5 1074.74 1089 1075.17 C 1073.8 1090.29 1060.07 1108.55 1045.67 1124.24 C 1042.39 1127.82 1025.57 1138.47 1020.8 1141.9 L 951.922 1191.59 C 941.554 1199.14 924.235 1211.04 915.073 1219.28 C 915.977 1222.81 917.519 1227.04 918.694 1230.56 C 929.88 1233.58 942.605 1235.68 954.088 1237.85 C 942.086 1272.19 931.786 1308.24 920.786 1342.99 C 914.041 1365.54 906.854 1387.95 899.228 1410.22 C 868.9 1398.9 841.493 1392.79 809.486 1388.32 C 818.696 1356.84 829.449 1325.05 839.521 1293.74 L 890.619 1134.06 C 927.233 1018.46 962.779 900.042 1000.62 785.196 z" fill="rgb(245,235,211)" transform="translate(0,0)"></path>
<path d="M 945.921 774.616 C 961.654 776.67 977.243 779.709 992.595 783.717 C 986.808 803.978 979.691 824.43 973.233 844.542 L 946.414 930.095 L 844.01 1252.79 C 829.691 1297.82 814.997 1342.02 801.152 1387.27 L 791.558 1386.87 C 776.415 1385.15 759.367 1384.78 743.987 1384.18 C 753.862 1349.84 767.709 1311.13 779.021 1277.02 L 827.247 1129.87 C 865.859 1011.14 905.418 892.717 945.921 774.616 z" fill="rgb(245,235,211)" transform="translate(0,0)"></path>
<path d="M 582.594 1385.82 C 619.669 1395.68 654.262 1393.02 692.196 1392.6 C 738.752 1392.08 784.556 1391.58 830.543 1399.62 C 888.903 1409.81 938.348 1433.79 986.041 1468.28 C 1010.31 1485.87 1037.67 1506.49 1066.27 1516.3 C 1084.88 1522.68 1117.69 1521.73 1137.74 1522.87 C 1191.82 1525.94 1247.41 1538.27 1296.37 1561.69 C 1285.55 1567.35 1274.82 1572.82 1263.31 1576.93 C 1213.7 1559.1 1174.46 1549.13 1122.24 1542.51 C 1101.81 1537.2 1069.37 1539.38 1047.11 1535.03 C 994.783 1524.82 943.553 1507.16 894.318 1486.88 C 881.452 1481.59 862.814 1469.58 850.367 1462.38 C 895.149 1471.49 941.004 1477.16 984.802 1491.22 C 997.644 1495.34 1010.31 1500.93 1023.41 1504.07 C 955.036 1468.33 882.403 1434.84 805.326 1423.95 C 773.916 1419.52 743.307 1420.31 712.078 1417.05 C 680.323 1413.74 649.397 1414.51 617.618 1412.7 C 610.686 1406.32 591.286 1392.59 582.594 1385.82 z" fill="rgb(245,235,211)" transform="translate(0,0)"></path>
<path d="M 624.768 1420.95 C 640.099 1422.33 657.71 1421.78 673.321 1422.18 C 697.41 1422.79 719.143 1425.05 742.647 1429.86 C 810.573 1443.75 864.101 1477.46 919.544 1517.62 C 943.186 1534.74 967.569 1552.57 992.824 1567.54 C 1030.86 1590.09 1072.55 1602.35 1113.15 1618.26 L 1112.66 1619.07 C 1066.41 1623.99 1059.62 1622.86 1015.99 1604.99 C 974.125 1587.85 938.84 1568.26 901.316 1542.51 C 875.199 1524.58 849.819 1505.23 821.428 1491.12 C 769.82 1465.46 712.808 1453.91 655.344 1452.83 C 648.743 1444.38 632.673 1428.94 624.768 1420.95 z" fill="rgb(245,235,211)" transform="translate(0,0)"></path>
<path d="M 1095.49 581.096 C 1101.15 586.218 1167.4 703.319 1172.04 714.338 C 1155.33 700.519 1109.18 684.155 1088.07 676.683 C 1067.61 670.67 1048.05 663.99 1027.14 659.075 C 1009.01 654.813 991.761 652.212 973.334 649.426 C 987.266 640.69 1004.8 631.54 1019.42 623.374 C 1044.65 609.06 1070.01 594.967 1095.49 581.096 z" fill="rgb(245,235,211)" transform="translate(0,0)"></path>
<path d="M 1055.46 1352.16 C 1069.18 1354.88 1101.09 1367.92 1114.7 1373.23 L 1109.2 1390.5 L 1066.21 1379.18 C 1062.98 1380.51 1062.77 1380.11 1060.81 1382.62 C 1075.91 1385.24 1093.16 1390.06 1107.96 1394.01 C 1099.59 1428.8 1083.42 1475.82 1072.66 1511 C 1054.98 1505 1031.47 1492.56 1016.89 1480.77 C 1022.03 1470.38 1024.82 1454.81 1028.53 1443.66 C 1038.17 1414.67 1045.45 1380.47 1055.46 1352.16 z" fill="rgb(245,235,211)" transform="translate(0,0)"></path>
<path d="M 1052.93 1375.14 C 1057.04 1376.58 1061.98 1377.92 1066.21 1379.18 C 1062.98 1380.51 1062.77 1380.11 1060.81 1382.62 C 1058.06 1389.65 1056.04 1397.96 1054.18 1405.33 C 1047.43 1432.17 1039.4 1458.46 1031.35 1484.93 L 1022.68 1479.97 C 1032.98 1450.93 1044.29 1405.8 1052.93 1375.14 z" fill="rgb(83,35,35)" transform="translate(0,0)"></path>
<path d="M 1058.72 1357.43 C 1069.65 1362.03 1100.34 1371.55 1108.06 1376.71 C 1108.97 1379.46 1107.31 1382.83 1106.33 1385.84 C 1089.15 1380.92 1071.76 1376.63 1054.67 1371.38 L 1058.72 1357.43 z" fill="rgb(83,35,35)" transform="translate(0,0)"></path>
<path d="M 1055.79 677.5 C 1060.87 679.92 1077.24 684.95 1083.26 687.003 C 1097.67 691.856 1111.91 697.199 1125.96 703.022 C 1118.62 722.362 1110.23 743.281 1103.77 762.787 C 1103.2 764.285 1103.68 763.548 1102.03 764.768 C 1082.43 756.729 1057.53 747.26 1037.17 741.869 C 1044.2 720.659 1050.41 699.186 1055.79 677.5 z" fill="rgb(245,235,211)" transform="translate(0,0)"></path>
<path d="M 680.508 1484.02 C 695.341 1483.62 711.133 1487.47 725.317 1491.4 C 790.493 1509.47 840.53 1549.12 892.122 1591.09 C 851.565 1582.43 809.535 1557.31 772.564 1539.82 C 738.139 1523.53 708.242 1511.24 680.508 1484.02 z" fill="rgb(245,235,211)" transform="translate(0,0)"></path>
<path d="M 985.111 661.691 C 1000.01 664.35 1035.05 670.273 1048.23 675.773 C 1042.58 694.722 1036.97 713.795 1030.94 732.617 C 1029.71 736.443 1029.62 737.869 1026.77 739.233 C 1005.18 733.642 983.304 729.27 961.231 726.135 C 969.114 708.226 978.494 680.421 985.111 661.691 z" fill="rgb(245,235,211)" transform="translate(0,0)"></path>
<path d="M 1367.65 1062.69 C 1368.63 1063.18 1368.88 1063.62 1369.7 1064.45 C 1379.03 1135.6 1396.64 1274.22 1407.29 1351.44 C 1407.43 1352.47 1405.95 1352.72 1404.73 1353.21 L 1402.93 1352.37 C 1400.87 1346.06 1400.88 1339.09 1399.78 1332.53 C 1394.38 1300.15 1390.34 1267.36 1386.19 1234.77 C 1379.36 1181.11 1371.11 1127.32 1365.53 1073.54 C 1339.04 1094.46 1308.96 1121.11 1283.39 1143.24 C 1252.32 1170.03 1221.01 1196.55 1189.46 1222.79 C 1178.19 1231.89 1167.13 1243.71 1155.1 1251.32 C 1152.22 1253.14 1142.44 1251.78 1138.59 1251.27 C 1107.34 1247.09 1076.07 1241.4 1044.81 1237.34 L 969.301 1228.18 C 958.347 1226.77 940.867 1225.12 930.85 1221.69 L 931.237 1221.03 C 945.323 1220.66 970.9 1225.43 985.598 1226.9 C 1040.15 1232.35 1094.95 1242.64 1149.22 1248.61 C 1223.5 1188.51 1295.23 1124.98 1367.65 1062.69 z" fill="rgb(245,235,211)" transform="translate(0,0)"></path>
<path d="M 715.278 655.936 C 746.744 658.727 783.581 683.286 804.267 706.111 C 798.441 706.73 792.605 707.245 786.76 707.656 C 766.546 709.823 747.442 715.074 726.604 715.463 C 707.218 715.825 705.691 709.301 704.971 691.16 C 704.443 677.869 705.539 666.077 715.278 655.936 z" fill="rgb(245,235,211)" transform="translate(0,0)"></path>
<path d="M 533.013 1319.58 C 580.707 1327.92 627.612 1342.74 670.072 1366.48 C 676.94 1370.32 689.609 1378.36 694.372 1384.42 C 673.994 1387.68 635.129 1371.56 615.227 1364.66 C 592.312 1356.76 569.221 1349.38 545.971 1342.53 C 541.244 1334.8 537.306 1327.54 533.013 1319.58 z" fill="rgb(245,235,211)" transform="translate(0,0)"></path>
<path d="M 1059.72 1563.54 C 1109.81 1558.28 1178.88 1574.85 1226.1 1591.9 C 1222.17 1593.43 1218.21 1594.93 1214.24 1596.37 C 1209.13 1598.05 1193.06 1603.22 1188.86 1604.09 C 1171.62 1607.69 1063.74 1570.74 1059.72 1563.54 z" fill="rgb(245,235,211)" transform="translate(0,0)"></path>
<path d="M 957.122 1365.39 C 968.916 1367.63 980.682 1370.02 992.417 1372.56 C 986.722 1393.74 977.146 1420.76 970.098 1441.8 L 968.72 1444.17 C 964.671 1444.29 943.82 1430.86 938.946 1428.08 C 944.652 1407.08 950.712 1386.18 957.122 1365.39 z" fill="rgb(245,235,211)" transform="translate(0,0)"></path>
<path d="M 1092.08 1112.91 C 1098.18 1121.02 1105.11 1139.37 1111.75 1143.25 C 1111.93 1149.59 1103.04 1190.68 1100.3 1198 C 1096.79 1199.54 1096.39 1198.74 1091.89 1198.21 C 1084.1 1196.77 1076.88 1196.23 1068.98 1194.37 C 1075.06 1174.84 1084.05 1128.85 1092.08 1112.91 z" fill="rgb(245,235,211)" transform="translate(0,0)"></path>
<path d="M 1133.05 706.26 C 1140.35 710.373 1146.22 713.933 1152.52 719.46 C 1148.47 738.291 1139.92 758.856 1134.5 778.136 L 1132.57 778.559 C 1125.77 775.102 1118.11 771.695 1111.15 768.425 C 1117.19 747.905 1125.35 726.197 1133.05 706.26 z" fill="rgb(245,235,211)" transform="translate(0,0)"></path>
<path d="M 1266.19 1389.37 C 1272.68 1390.92 1288.73 1396.72 1295.73 1399.06 C 1291.49 1415.11 1285.69 1432.15 1280.54 1447.94 C 1270.73 1444.82 1260.98 1441.53 1251.28 1438.08 L 1266.19 1389.37 z" fill="rgb(245,235,211)" transform="translate(0,0)"></path>
<path d="M 1232.37 1377.19 C 1242.23 1380.54 1252.01 1384.13 1261.7 1387.98 C 1256.57 1402.15 1251.45 1421.05 1247.02 1435.78 C 1242.22 1436.02 1223.26 1428 1218.3 1425.85 C 1222.77 1409.64 1227.87 1393.53 1232.37 1377.19 z" fill="rgb(245,235,211)" transform="translate(0,0)"></path>
<path d="M 957.135 659.113 C 963.857 659.784 970.925 660.383 977.591 661.284 L 961.277 703.884 C 959.6 708.269 954.333 721.339 953.441 725.27 C 946.321 723.794 940.299 723.081 933.055 723.041 C 931.796 719.051 953.735 666.626 957.135 659.113 z" fill="rgb(245,235,211)" transform="translate(0,0)"></path>
<path d="M 955.899 1335.64 C 970.777 1339.27 986.667 1342.82 1000.96 1348.1 C 999.078 1355.24 996.321 1363.07 993.992 1370.16 C 984.051 1366.51 962.34 1360.5 951.731 1359.52 L 943.598 1384.99 C 939.827 1397.44 936.047 1411.71 931.334 1423.67 L 929.913 1423.96 L 928.887 1422.04 C 930.282 1416.37 932.248 1409.97 934.089 1404.44 C 941.595 1381.92 947.301 1357.68 955.899 1335.64 z" fill="rgb(245,235,211)" transform="translate(0,0)"></path>
<path d="M 959.02 1341.41 C 971.893 1344.17 983.107 1347.38 995.776 1351.01 C 994.476 1355.63 993.441 1359.33 991.707 1363.86 C 984.089 1362.4 960.213 1358.31 954.575 1355.61 C 954.54 1351.23 957.296 1345.7 959.02 1341.41 z" fill="rgb(83,35,35)" transform="translate(0,0)"></path>
<path d="M 1310.3 1224.7 C 1319.19 1227.94 1328 1231.4 1336.7 1235.1 C 1333.44 1249.79 1330.22 1262.31 1325.28 1276.61 L 1298.12 1266.53 C 1302.4 1252.65 1306.46 1238.71 1310.3 1224.7 z" fill="rgb(245,235,211)" transform="translate(0,0)"></path>
<path d="M 1278.9 1214.32 C 1287.18 1216.4 1296.46 1219.78 1304.64 1222.55 L 1293.19 1264.77 C 1284.83 1262.1 1275.71 1258.67 1267.36 1255.73 C 1270.41 1242.68 1275.19 1227.45 1278.9 1214.32 z" fill="rgb(245,235,211)" transform="translate(0,0)"></path>
<path d="M 1109.02 1278.01 C 1115.69 1279.38 1123.52 1280.78 1129.93 1282.75 C 1127.79 1290.18 1121.53 1313.25 1117.67 1318.7 L 1114.85 1320.22 L 1116.49 1321.46 C 1116.76 1325.2 1114.78 1328.76 1113.3 1332.31 C 1107.8 1330.71 1100.14 1329.21 1094.4 1327.93 L 1096.89 1316.77 C 1096.27 1315.87 1097.06 1312.85 1097.28 1311.54 L 1097.79 1313.05 C 1101.79 1303.43 1106.11 1288.24 1109.02 1278.01 z" fill="rgb(245,235,211)" transform="translate(0,0)"></path>
<path d="M 1096.89 1316.77 C 1102.2 1316.52 1108.73 1319.68 1114.85 1320.22 L 1116.49 1321.46 C 1116.76 1325.2 1114.78 1328.76 1113.3 1332.31 C 1107.8 1330.71 1100.14 1329.21 1094.4 1327.93 L 1096.89 1316.77 z" fill="rgb(245,235,211)" transform="translate(0,0)"></path>
<path d="M 1096.89 1316.77 C 1096.27 1315.87 1097.06 1312.85 1097.28 1311.54 L 1097.79 1313.05 C 1103.11 1314.48 1112.9 1316.83 1117.67 1318.7 L 1114.85 1320.22 C 1108.73 1319.68 1102.2 1316.52 1096.89 1316.77 z" fill="rgb(80,21,16)" transform="translate(0,0)"></path>
<path d="M 1009.77 742.494 C 1018.94 744.567 1029.9 747.685 1039.13 750.076 C 1036.39 760.96 1033.56 771.822 1030.64 782.659 C 1027.96 782.968 1005.38 776.466 1001.27 775.356 C 1003.83 764.333 1006.66 753.376 1009.77 742.494 z" fill="rgb(245,235,211)" transform="translate(0,0)"></path>
<path d="M 1046.33 752.436 L 1075.22 762.176 C 1071.3 771.023 1067.46 781.909 1063.98 791.072 C 1063.48 792.103 1063.25 791.933 1062.01 792.77 C 1055.22 791.438 1044.87 787.358 1038.08 784.918 L 1046.33 752.436 z" fill="rgb(245,235,211)" transform="translate(0,0)"></path>
<path d="M 976.502 734.977 L 1002.38 740.501 C 999.782 751.632 997.027 762.725 994.112 773.776 C 985.15 771.365 976.121 769.21 967.035 767.316 C 971.529 755.541 973.682 747.084 976.502 734.977 z" fill="rgb(245,235,211)" transform="translate(0,0)"></path>
<path d="M 1080.7 764.499 L 1106.31 774.124 L 1095 804.452 C 1092.1 805.122 1076.04 797.805 1070.82 796.258 L 1080.7 764.499 z" fill="rgb(245,235,211)" transform="translate(0,0)"></path>
<path d="M 1241.11 1346.51 C 1251.7 1349.95 1260.42 1352.99 1270.81 1357.08 L 1263.78 1380.47 C 1253.59 1377.32 1244.03 1373.88 1234 1370.29 C 1236.14 1361.96 1238.47 1354.68 1241.11 1346.51 z" fill="rgb(245,235,211)" transform="translate(0,0)"></path>
<path d="M 1274.6 1358.44 C 1283.74 1361.03 1295.98 1365.8 1305.7 1368.84 L 1298.01 1391.4 L 1297.73 1391.67 C 1295.6 1392.2 1271.97 1383.26 1268.27 1382.03 C 1270.63 1374.6 1272.64 1366.06 1274.6 1358.44 z" fill="rgb(245,235,211)" transform="translate(0,0)"></path>
<path d="M 933.055 723.041 C 940.299 723.081 946.321 723.794 953.441 725.27 L 951.319 729.299 C 948.478 735.958 940.891 758.86 936.61 761.74 C 933.886 756.954 937.269 742.53 938.366 736.632 C 933.735 747.013 932.545 751.333 930.599 762.462 L 917.881 761.873 C 920.509 753.571 926.291 734.901 930.204 727.67 C 932.88 726.173 931.654 727.107 933.055 723.041 z" fill="rgb(245,235,211)" transform="translate(0,0)"></path>
<path d="M 933.055 723.041 C 940.299 723.081 946.321 723.794 953.441 725.27 L 951.319 729.299 C 942.792 728.094 938.729 727.581 930.204 727.67 C 932.88 726.173 931.654 727.107 933.055 723.041 z" fill="rgb(80,21,16)" transform="translate(0,0)"></path>
<path d="M 997.019 1267.58 C 1003.24 1268.66 1009.73 1270.24 1015.92 1271.63 C 1012.41 1283.53 1008.22 1295.04 1004.08 1306.73 C 1001.45 1306.8 988.778 1303.4 985.614 1302.6 C 988.822 1291.43 993.322 1278.74 997.019 1267.58 z" fill="rgb(245,235,211)" transform="translate(0,0)"></path>
<path d="M 1113.35 777.285 C 1119.73 780.013 1126.26 783.282 1132.53 786.307 C 1128.77 797.256 1125.49 806.845 1120.96 817.557 C 1115.67 814.75 1106.98 811.108 1101.3 808.513 C 1105.54 798.19 1109.56 787.778 1113.35 777.285 z" fill="rgb(245,235,211)" transform="translate(0,0)"></path>
<path d="M 1316.5 1193.94 C 1327.32 1197.15 1335.55 1200.16 1346.03 1204.15 C 1344.61 1210.57 1342.61 1217.29 1340.83 1223.66 C 1336.76 1223.79 1317.46 1216.37 1312.5 1214.57 C 1313.22 1208.07 1315.09 1200.44 1316.5 1193.94 z" fill="rgb(245,235,211)" transform="translate(0,0)"></path>
<path d="M 1083.59 1118.63 C 1076.01 1145.32 1068.84 1172.11 1062.09 1199.02 C 1060.67 1201.77 1061.68 1200.73 1058.86 1202.18 L 1056.02 1201.6 L 1055.35 1200.33 C 1056.42 1193.36 1057.84 1186.45 1059.28 1179.56 C 1064.99 1152.3 1063.94 1139.85 1083.59 1118.63 z" fill="rgb(245,235,211)" transform="translate(0,0)"></path>
<path d="M 1139.9 790.339 C 1145.66 792.742 1149.47 796.392 1153.8 800.626 C 1152.06 808.643 1147.04 824.134 1144.27 831.728 C 1139.37 828.319 1133.44 824.754 1128.31 821.524 L 1139.9 790.339 z" fill="rgb(245,235,211)" transform="translate(0,0)"></path>
<path d="M 1147.11 1150.62 C 1153.58 1151.13 1160.93 1153.17 1167.36 1154.73 L 1129.38 1185.54 C 1124.84 1189.46 1119.83 1192.97 1114.97 1196.51 C 1125.13 1180.85 1135.13 1164.95 1147.11 1150.62 z" fill="rgb(245,235,211)" transform="translate(0,0)"></path>
<path d="M 1288.09 1183.32 C 1296.15 1185.99 1304.04 1189.1 1311.97 1192.14 C 1310.6 1199.17 1308.92 1206.42 1307.39 1213.44 C 1300.57 1210.63 1289.33 1207.16 1282.06 1204.65 C 1283.74 1197.86 1286.15 1190.12 1288.09 1183.32 z" fill="rgb(245,235,211)" transform="translate(0,0)"></path>
<path d="M 1088.42 1274.58 L 1104.1 1277.48 C 1101.41 1286.16 1095.55 1303.46 1094.16 1311.81 C 1089.71 1310.65 1085.28 1309.4 1080.87 1308.07 L 1079.53 1306.99 C 1080.74 1298.88 1085.89 1282.7 1088.42 1274.58 z" fill="rgb(245,235,211)" transform="translate(0,0)"></path>
<path d="M 1087.84 1088.66 C 1098.64 1097.53 1107.77 1124.21 1120.7 1132.53 C 1117.79 1133.24 1113.04 1132.06 1109.79 1131.55 C 1103.81 1121.23 1097.36 1111.19 1090.44 1101.48 C 1089.04 1099.55 1089.66 1100.13 1087.63 1098.94 C 1078.21 1104.28 1069.32 1124.84 1061.16 1129.81 L 1059.64 1129.4 L 1059.11 1127.63 C 1061.13 1118.8 1080.96 1096.87 1087.84 1088.66 z" fill="rgb(245,235,211)" transform="translate(0,0)"></path>
<path d="M 978.651 1263.82 L 991.365 1266.54 C 987.531 1278.54 983.91 1290.11 979.445 1301.9 L 968.04 1299.64 C 971.096 1288.12 975.211 1275.34 978.651 1263.82 z" fill="rgb(245,235,211)" transform="translate(0,0)"></path>
<path d="M 958.734 731.502 L 969.055 733.659 C 967.509 740.421 963.369 763.21 959.029 766.392 C 954.588 765.568 949.986 765.144 945.487 764.638 C 949.735 752.897 953.841 742.957 958.734 731.502 z" fill="rgb(245,235,211)" transform="translate(0,0)"></path>
<path d="M 1033.78 601.215 L 1034.2 601.385 L 1033.74 602.395 C 1015.1 611.036 968.434 638.631 951.438 639.207 L 950.548 637.837 L 950.977 636.519 C 976.582 624.686 1007.75 610.823 1033.78 601.215 z" fill="rgb(245,235,211)" transform="translate(0,0)"></path>
<path d="M 900.981 728.39 C 905.479 728.444 906.266 727.702 909.52 729.666 C 908.721 734.697 904.327 758.273 901.659 760.888 C 895.551 751.155 884.524 732.768 900.981 728.39 z" fill="rgb(245,235,211)" transform="translate(0,0)"></path>
<path d="M 1080.87 1308.07 C 1085.28 1309.4 1089.71 1310.65 1094.16 1311.81 C 1094.18 1315.02 1094.45 1314 1093.47 1316.9 L 1093.14 1315.16 C 1091.61 1318.19 1090.28 1324.08 1089.36 1327.57 L 1074.04 1324.35 L 1078.67 1311.13 L 1080.87 1308.07 z" fill="rgb(245,235,211)" transform="translate(0,0)"></path>
<path d="M 1080.87 1308.07 C 1085.28 1309.4 1089.71 1310.65 1094.16 1311.81 C 1094.18 1315.02 1094.45 1314 1093.47 1316.9 L 1093.14 1315.16 L 1078.67 1311.13 L 1080.87 1308.07 z" fill="rgb(80,21,16)" transform="translate(0,0)"></path>
<path d="M 1345.47 1017.02 C 1350.07 1018.33 1350.53 1017.67 1353.4 1020.59 C 1352.47 1027.87 1347.62 1042.14 1345.11 1049.44 C 1341.37 1050.21 1342.88 1050.64 1340.08 1049.3 C 1338.37 1043.25 1343.9 1024.74 1345.47 1017.02 z" fill="rgb(245,235,211)" transform="translate(0,0)"></path>
<path d="M 1111.11 1176.12 C 1109.61 1186.88 1107.43 1199.71 1104.49 1210.23 C 1094.49 1208.32 1066.61 1204.51 1058.86 1202.18 C 1061.68 1200.73 1060.67 1201.77 1062.09 1199.02 C 1069.96 1201.59 1092.03 1203.94 1102.39 1206.08 C 1104.91 1196.83 1107.81 1184.9 1111.11 1176.12 z" fill="rgb(245,235,211)" transform="translate(0,0)"></path>
<path d="M 1350.09 992.64 C 1362.15 992.758 1360.17 1006.29 1356.13 1012.74 C 1351.16 1010.03 1349.74 1009.67 1344.22 1008.18 C 1346.12 1001.61 1346.77 998.625 1350.09 992.64 z" fill="rgb(245,235,211)" transform="translate(0,0)"></path>
<path d="M 984.725 1305.99 C 990.919 1307.17 996.261 1308.86 1002.29 1310.66 L 998.393 1321.41 C 992.818 1319.49 986.987 1318.15 981.258 1316.73 C 982.291 1313.13 983.543 1309.55 984.725 1305.99 z" fill="rgb(245,235,211)" transform="translate(0,0)"></path>
<path d="M 1131.23 1134.17 C 1138.9 1133.88 1178.54 1146.01 1186.24 1149.85 C 1180.77 1152.24 1134.83 1138.74 1131.23 1134.17 z" fill="rgb(245,235,211)" transform="translate(0,0)"></path>
<path d="M 967.093 1301.41 C 970.495 1302.75 973.96 1303.73 976.475 1306.3 C 977.546 1309.31 976.08 1312.13 975.046 1315.39 L 963.878 1312.63 L 967.093 1301.41 z" fill="rgb(245,235,211)" transform="translate(0,0)"></path>
<path d="M 918.209 727.546 L 919.34 728.596 C 920.226 734.05 911.711 755.812 909.077 761.627 L 908.051 760.695 C 907.023 755.568 915.38 732.859 918.209 727.546 z" fill="rgb(245,235,211)" transform="translate(0,0)"></path>
<path d="M 977.838 286.427 C 988.644 285.772 1003.49 284.799 1013.69 288.277 C 1055.99 302.688 1053.07 348.407 1015.8 366.738 C 1027.5 385.923 1046.04 408.494 1059.74 426.698 C 1062.51 430.366 1063.23 430.164 1062.82 433.697 C 1058.53 437.389 1048.44 436.865 1042.59 437.024 C 1036.23 431.101 1029.74 421.676 1024.45 414.497 C 1012.29 398.047 1000.26 379.635 987.842 363.777 C 987.73 376.372 992.203 430.667 989.443 437.047 C 983.21 440.473 976.429 439.614 969.256 439.487 C 969.176 389.429 963.824 337.227 962.709 287.291 L 977.838 286.427 z" fill="rgb(83,35,35)" transform="translate(0,0)"></path>
<path d="M 984.989 303.122 C 987.68 303.041 990.373 303.03 993.065 303.087 C 1016.77 303.609 1023.57 313.134 1022.95 335.57 C 1020.13 340.524 1019.46 341.598 1015.59 345.741 C 1006.39 351.346 997.924 351.999 987.637 352.637 C 986.093 336.174 985.21 319.656 984.989 303.122 z" fill="rgb(245,235,211)" transform="translate(0,0)"></path>
<path d="M 854.867 301.856 C 864.463 305.073 890.582 342.308 898.837 352.943 L 940.731 407.455 C 944.188 411.889 962.303 432.592 962.67 436.676 C 958.998 441.512 948.963 442.14 942.804 443.149 C 933.925 433.725 923.165 418.896 914.288 408.317 L 901.253 410.671 C 886.074 413.196 868.143 417.479 852.615 420.533 C 848.82 437.089 846.208 452.952 843.387 469.675 C 836.04 472.582 830.069 473.536 822.346 474.36 C 823.576 456.087 832.96 418.96 836.047 398.856 C 840.51 369.788 846.253 339.304 850.991 310.129 C 851.578 306.511 852.623 304.635 854.867 301.856 z" fill="rgb(83,35,35)" transform="translate(0,0)"></path>
<path d="M 864.285 342.49 C 870.97 347.709 895.18 382.682 903.326 392.347 C 898.41 393.045 892.672 394.371 887.739 395.379 C 877.022 397.962 865.792 400.315 854.996 402.717 C 858.775 382.043 860.923 362.831 864.285 342.49 z" fill="rgb(245,235,211)" transform="translate(0,0)"></path>
<path d="M 753.775 338.335 C 778.612 335.315 796.556 354.628 798.242 378.103 C 800.53 409.955 780.768 422.172 754.106 429.246 C 761.259 450.617 771.95 472.737 779.675 495.666 L 771.738 500.41 C 768.336 501.984 766.48 503.29 762.779 502.909 C 757 498.338 731.492 426.933 726.357 414.6 C 719.987 399.302 707.744 372.186 702.541 356.5 C 714.365 349.928 740.82 340.334 753.775 338.335 z" fill="rgb(83,35,35)" transform="translate(0,0)"></path>
<path d="M 751.586 358.314 C 760.743 357.846 769.976 359.618 774.088 368.429 C 784.705 391.175 772.467 403.192 754.654 412.104 C 752.854 412.869 751.243 413.37 749.396 413.988 C 744.951 411.727 731.522 372.244 728.721 364.375 C 736.752 361.291 743.128 359.518 751.586 358.314 z" fill="rgb(245,235,211)" transform="translate(0,0)"></path>
<path d="M 466.939 527.486 C 467.878 527.91 469.108 528.433 469.972 528.992 C 503.178 550.448 536.65 571.479 570.204 592.384 C 575.195 595.493 580.455 598.721 585.114 602.144 C 587.683 604.032 592.515 607.341 593.314 610.393 C 591.523 616.515 586.708 620.046 582.001 624.372 C 565.048 616.392 544.45 601.615 526.095 592.018 C 510.465 611.006 492.122 638.09 477 654.8 C 488.341 663.457 522.599 689.417 530.295 697.746 C 526.606 703.603 523.214 708.523 517.633 712.707 C 491.702 693.699 466.084 674.267 440.79 654.419 C 428.118 644.554 409.121 630.554 398.901 619.194 C 402.395 613.97 405.423 610.901 409.695 606.312 C 424.525 614.256 448.634 633.055 463.012 643.74 C 477.063 624.599 497.668 600.589 513.23 582.314 C 501.915 574.844 462.662 549.959 454.635 542.521 C 457.986 537.493 462.902 532.152 466.939 527.486 z" fill="rgb(83,35,35)" transform="translate(0,0)"></path>
<path d="M 1495.74 434.481 C 1499.46 435.927 1505.95 442.273 1509.14 445.029 C 1521.17 455.674 1536.31 468.234 1539.55 484.97 C 1546.01 518.323 1517.95 542.523 1485.72 532.038 C 1473.25 527.981 1466.29 522.847 1455.96 515.45 L 1438.11 537.5 C 1430.74 546.649 1423.47 555.883 1416.3 565.2 C 1409.48 560.107 1405.59 557.076 1399.47 551.232 C 1430.61 518.508 1465.94 470.231 1495.74 434.481 z" fill="rgb(83,35,35)" transform="translate(0,0)"></path>
<path d="M 1499.85 461.946 C 1510.61 468.939 1520.76 477.872 1520.31 491.756 C 1519.74 509.406 1507.17 516.322 1491.14 515.686 C 1482.3 513.68 1474.67 507.619 1467.86 501.955 C 1475.69 490.608 1490.77 472.975 1499.85 461.946 z" fill="rgb(245,235,211)" transform="translate(0,0)"></path>
<path d="M 1604.28 815.596 C 1627.35 819.246 1650.01 824.58 1672.89 828.577 C 1704.88 834.167 1735.96 839.786 1767.75 846.492 C 1745.7 865.115 1718.81 883.917 1695.47 903.267 C 1677.38 918.436 1659.11 933.383 1640.66 948.103 C 1639.32 940.877 1638.47 936.857 1636.29 929.879 C 1646.91 920.757 1657.37 911.452 1667.66 901.967 C 1663.46 882.447 1659.08 862.968 1654.52 843.53 L 1609.61 834.509 L 1604.28 815.596 z" fill="rgb(83,35,35)" transform="translate(0,0)"></path>
<path d="M 1672.09 846.677 C 1686.06 848.333 1712.1 853.255 1725.82 856.265 L 1705.78 871.163 C 1698.36 876.951 1690.99 882.793 1683.65 888.687 C 1680.12 874.597 1676.27 860.59 1672.09 846.677 z" fill="rgb(245,235,211)" transform="translate(0,0)"></path>
<path d="M 1232.49 1648.86 L 1234.51 1649.76 C 1235.59 1654.14 1236.49 1658.37 1237.19 1662.83 C 1241.83 1692.41 1250.1 1721.33 1257.11 1750.41 C 1259.3 1759.5 1261.61 1768.57 1264.59 1777.44 C 1269.97 1778.91 1280.78 1779.74 1287.22 1780.77 C 1273.11 1784.17 1265.69 1786.35 1252.18 1791.35 L 1249.06 1776.17 C 1247.44 1779.32 1245.77 1782.45 1244.04 1785.54 C 1238.45 1795.36 1232.51 1798.07 1222.26 1800.85 C 1186.3 1804.33 1170.04 1749.06 1194.37 1726.67 C 1206.95 1715.09 1218.25 1714.76 1234.28 1715.17 C 1230.48 1699.07 1226.85 1678.82 1219.8 1663.61 C 1218.22 1660.22 1212.61 1659.86 1209.24 1659.54 C 1211.49 1657.66 1228.35 1650.73 1232.49 1648.86 z" fill="rgb(83,35,35)" transform="translate(0,0)"></path>
<path d="M 1216.72 1723.21 C 1222.57 1722.99 1229.94 1723.67 1235.93 1724.06 C 1239.28 1738.75 1243.52 1754.33 1247.25 1769.02 C 1246.06 1771.66 1244.8 1774.27 1243.47 1776.85 C 1239.7 1784.07 1236.47 1786.25 1228.97 1788.57 C 1193.57 1786.73 1183 1730.74 1216.72 1723.21 z" fill="rgb(245,235,211)" transform="translate(0,0)"></path>
<path d="M 781.935 1613.25 C 787.793 1613.05 805.971 1617.87 812.482 1619.41 C 799.011 1645.7 791.186 1662.91 779.908 1689.91 C 837.605 1689.02 834.671 1742.25 796.591 1765.58 C 773.509 1776.41 754.798 1766.96 737.373 1751.21 L 776.649 1661.5 C 782.317 1648.24 788.767 1634.88 793.716 1621.42 C 789.713 1618.33 784.584 1616.78 781.935 1613.25 z" fill="rgb(83,35,35)" transform="translate(0,0)"></path>
<path d="M 776.962 1697.13 C 816.935 1695.36 817.472 1741.96 786.008 1759.48 C 780.438 1761.2 769.546 1762.02 764.235 1759.27 C 746.218 1749.95 764.392 1724.44 769.376 1712.08 C 771.355 1707.17 774.656 1701.42 776.962 1697.13 z" fill="rgb(245,235,211)" transform="translate(0,0)"></path>
<path d="M 573.491 436.667 C 578.415 437.285 582.278 443.67 585.554 447.807 C 578.287 456.6 554.67 474.655 544.629 482.698 C 552.645 493.895 561.898 504.26 570.22 516.13 C 579.969 507.047 597.74 490.003 608.982 484.614 C 613.392 488.272 616.524 491.88 620.347 496.084 C 610.32 506.044 592.287 520.624 581.256 530.1 C 590.018 542.998 602.257 556.849 612.422 568.78 L 650.349 536.334 L 659.033 529.657 C 663.622 533.657 668.303 538.593 669.334 544.704 C 667.995 549.009 616.247 591.06 608.706 596.663 C 597.512 587.13 574.274 554.801 564.097 541.89 C 549.464 523.325 529.865 501.202 517.009 482.132 C 526.107 472.406 561.482 445.607 573.491 436.667 z" fill="rgb(83,35,35)" transform="translate(0,0)"></path>
<path d="M 1607.66 611.266 C 1623.53 609.061 1642.01 611.435 1656 619.386 C 1686.79 636.889 1709.83 671.89 1690.69 706.461 C 1686.18 703.953 1681.12 700.013 1676.87 696.924 C 1686.94 676.637 1674.79 651.703 1657.51 639.45 C 1644.04 629.936 1627.31 626.219 1611.07 629.132 C 1591.52 632.628 1578.87 643.225 1567.94 659.139 C 1550.08 695.223 1564.96 730.159 1598.99 749.07 C 1597.68 754.392 1595.74 760.311 1594.13 765.611 C 1567.33 753.377 1545.78 729.541 1540.42 700.023 C 1536.66 680.342 1541 659.979 1552.45 643.538 C 1566.23 623.885 1584.7 615.36 1607.66 611.266 z" fill="rgb(83,35,35)" transform="translate(0,0)"></path>
<path d="M 386.323 823.919 C 386.635 826.785 375.966 847.733 374.053 851.854 C 361.597 879.223 351.117 907.45 342.695 936.317 C 314.357 1035.6 308.193 1139.9 324.638 1241.84 C 330.646 1279.32 338.051 1306.89 345.967 1342.9 L 339.515 1328.25 C 328.797 1302.39 318.468 1264 312.614 1236.58 C 281.132 1094.7 307.671 946.125 386.323 823.919 z" fill="rgb(83,35,35)" transform="translate(0,0)"></path>
<path d="M 584.839 1478.66 C 589.786 1480.94 600.555 1494.42 601.989 1499.42 C 599.764 1500.39 595.414 1502.09 594.154 1503.98 C 575.259 1532.37 559.758 1566.61 544.181 1596.56 C 581.637 1585.86 616.098 1572.15 652.698 1559.03 C 655.842 1562.25 659.382 1566.62 662.369 1570.1 C 649.322 1579.15 597.242 1637.57 591.423 1655.79 C 589.819 1660.81 596.79 1668.74 600.069 1672.88 C 595.521 1670.3 569.21 1648.18 568.985 1644.99 C 572.954 1646.77 571.918 1647.07 575.089 1646.07 C 581.995 1634.77 590.278 1624.24 598.662 1614.01 C 610.143 1600.96 621.96 1588.21 634.099 1575.76 C 599.166 1588.2 569.585 1599.4 533.488 1607.69 L 527.159 1599.21 C 540.537 1571.79 553.905 1542.09 569.993 1516.41 C 556.969 1523.86 543.665 1530.82 530.109 1537.26 C 520.379 1541.89 510.323 1546.41 500.852 1551.58 C 497.39 1553.46 499.283 1555.42 498.266 1559.68 C 496.432 1557.96 485.378 1543.02 482.403 1539.4 L 492.509 1543.8 C 494.158 1543.25 495.791 1542.67 497.408 1542.03 C 515.155 1535.23 581.027 1503.57 588.165 1487.59 C 588.357 1483.92 586.688 1481.92 584.839 1478.66 z" fill="rgb(83,35,35)" transform="translate(0,0)"></path>
<path d="M 1681.89 1047.37 C 1685.57 1046.95 1687.28 1046.44 1690.81 1047.63 C 1693.23 1050.28 1693.15 1053.87 1693.59 1057.57 C 1688.5 1058.55 1683.16 1059.61 1678.28 1061.39 C 1661.85 1067.37 1652.68 1086.49 1660.37 1102.91 C 1662.95 1108.54 1667.75 1112.86 1673.62 1114.82 C 1703.71 1124.83 1727.52 1038.3 1769.67 1056.19 C 1802.64 1070.2 1812.89 1115.46 1779.39 1133.41 C 1775.91 1135.28 1772.85 1135.2 1769.52 1133.69 C 1764.81 1130.16 1760.03 1126.74 1755.17 1123.43 C 1767.36 1121.12 1778.77 1117.87 1782.85 1104.31 C 1784.54 1098.86 1783.93 1092.97 1781.16 1087.98 C 1776.53 1079.66 1769.63 1076.9 1761.24 1074.3 C 1727.06 1084.69 1707.62 1161.82 1660.64 1128.97 C 1649.56 1121.1 1642.23 1109 1640.39 1095.53 C 1636.38 1066.66 1655.03 1050.51 1681.89 1047.37 z" fill="rgb(83,35,35)" transform="translate(0,0)"></path>
<path d="M 1576.91 508.902 C 1586.72 517.41 1619.78 554.845 1624.41 565.82 C 1619.84 569.322 1616.29 571.285 1611.36 574.121 C 1602.24 561.948 1588 545.97 1577.14 535.637 C 1567.62 543.713 1558.53 552.481 1549.43 561.035 C 1558.64 571.402 1570.3 583.602 1578.52 594.354 C 1574.42 598.223 1569.12 601.784 1564.51 605.124 C 1554.78 592.897 1546.88 583.936 1535.8 573.144 L 1514.61 592.081 C 1508.57 597.598 1502.62 603.206 1496.75 608.901 C 1506.24 621.369 1519.8 636.244 1530.23 648.549 C 1524.76 654.065 1521.3 656.413 1514.65 659.851 C 1509.31 655.086 1501.2 645.062 1496.24 639.286 C 1487.26 628.784 1478.14 618.402 1468.89 608.14 C 1481.51 594.121 1500.77 578.24 1514.9 565.134 C 1535.04 546.463 1556.07 526.776 1576.91 508.902 z" fill="rgb(83,35,35)" transform="translate(0,0)"></path>
<path d="M 1415.2 1551.34 C 1424.49 1555.02 1479.91 1619.8 1502.9 1634.85 C 1512.56 1636.16 1515.07 1635.07 1524.42 1632.68 C 1517.27 1637.71 1500.49 1647.83 1492.77 1652.43 L 1491.28 1651.6 C 1491.66 1650.13 1492 1648.87 1492.46 1647.41 L 1492.82 1646.32 C 1471.58 1627.21 1446.34 1601.35 1426.71 1580.34 C 1432.26 1601.99 1438.05 1623.23 1444.53 1644.64 C 1448.96 1659.28 1453.07 1674.29 1453.4 1689.65 C 1438.4 1682.61 1423.42 1675.18 1408.96 1667.24 C 1401.62 1663.21 1360.45 1637.4 1356.61 1637.56 C 1362.37 1651.33 1391.04 1709.53 1400.89 1717.44 C 1405.8 1718.89 1413.19 1717.08 1418.52 1716.18 C 1406.14 1721.55 1395.73 1729.79 1386.73 1733.56 L 1386.46 1732.1 C 1389.23 1728.38 1391.85 1725.89 1389.13 1721.05 C 1369.14 1685.4 1352.42 1649.03 1336.1 1611.62 C 1351.07 1617.83 1367.04 1627.07 1381.24 1635.01 C 1401.69 1646.66 1422.29 1658.04 1443.03 1669.16 C 1431.46 1631.42 1419.74 1590.36 1415.2 1551.34 z" fill="rgb(83,35,35)" transform="translate(0,0)"></path>
<path d="M 1184.62 294.355 C 1192.43 295.055 1196.6 296.587 1203.98 299.009 L 1221 368.814 C 1235.46 356.069 1264.63 325.958 1277.99 316.474 C 1282.62 317.872 1291.69 319.747 1293.65 324.423 C 1291.21 330.182 1247.11 369.839 1239.61 376.834 C 1235.04 380.87 1230.83 385.076 1226.49 389.35 C 1222 405.977 1212.05 446.628 1206.08 460.981 C 1198.01 459.526 1194.29 458.231 1186.89 455.03 L 1205.63 384.234 C 1196.47 358.015 1190.6 328.232 1183.48 301.279 C 1182.62 298.013 1182.86 296.876 1184.62 294.355 z" fill="rgb(83,35,35)" transform="translate(0,0)"></path>
<path d="M 1411.69 383.102 C 1434.69 381.841 1452.57 391.597 1461.25 413.576 C 1454.86 417.289 1452.19 418.597 1445.32 421.309 C 1431.46 395.686 1406.27 389.144 1397.87 421.688 C 1402.38 444.502 1420.13 465.429 1420.88 489.132 C 1421.75 516.833 1399.36 527.081 1375.41 527.032 C 1357.45 522.925 1341.37 511.603 1333.24 494.344 C 1331.85 491.378 1332.97 488.633 1334.32 485.973 C 1338.37 482.855 1342.87 481.863 1347.8 480.279 C 1351.21 488.798 1356.15 500.017 1364.6 504.79 C 1370.6 508.177 1380.56 510.37 1387.31 508.192 C 1392.37 506.507 1396.5 502.794 1398.72 497.942 C 1406.12 481.726 1387.11 455.459 1381.91 439.22 C 1372.94 411.252 1383.07 391.816 1411.69 383.102 z" fill="rgb(83,35,35)" transform="translate(0,0)"></path>
<path d="M 382.644 646.762 C 389.428 648.611 390.598 649.619 395.646 654.643 C 391.574 666.054 378.635 685.851 371.814 697.319 C 406.563 714.76 444.98 730.108 479.848 747.877 C 483.946 749.965 487.445 751.579 488.649 755.649 C 487.317 761.923 483.568 765.674 479.422 770.384 C 468.17 766.964 445.868 755.693 434.662 750.336 L 361.85 714.664 C 353.917 728.083 344.774 744.065 335.114 756.188 C 329.754 752.095 327.796 750.033 323.17 745.195 C 329.251 732.889 343.433 710.6 350.793 698.174 C 358.789 684.674 373.675 658.178 382.644 646.762 z" fill="rgb(83,35,35)" transform="translate(0,0)"></path>
<path d="M 1067.49 281.385 C 1085.44 282.444 1105.41 285.047 1123.42 286.972 C 1136.41 288.362 1154.86 289.91 1167.08 292.578 C 1166.98 297.987 1166.14 304.049 1165.54 309.48 C 1152.18 307.703 1136.57 305.408 1123.28 304.774 C 1122.15 334.975 1118.37 369.996 1116.3 400.755 C 1115.36 413.083 1114.61 427.948 1112.55 439.898 C 1105.58 440.333 1098.39 441.778 1093.59 436.168 C 1092.78 429.258 1094.78 408.433 1095.37 400.283 C 1097.64 368.02 1100.61 335.811 1104.28 303.678 C 1094.2 302.23 1071.83 302.564 1064.95 294.635 C 1062.56 291.879 1063.56 283.859 1067.49 281.385 z" fill="rgb(83,35,35)" transform="translate(0,0)"></path>
<path d="M 1481.7 1482.33 C 1489.72 1483.33 1608.01 1535.17 1610.22 1538.08 C 1602.97 1547.53 1574.54 1533.76 1563.76 1530.11 C 1551.84 1541.16 1543.3 1550.24 1530.53 1560.78 L 1523.86 1566.4 C 1529.82 1582.77 1536.59 1598.83 1544.14 1614.53 C 1537.6 1619.99 1531.1 1625.49 1524.63 1631.05 L 1529.3 1618.71 C 1523.21 1583.53 1508.47 1550.41 1495.91 1517.04 C 1491.55 1505.43 1485.65 1494.38 1481.7 1482.33 z" fill="rgb(83,35,35)" transform="translate(0,0)"></path>
<path d="M 1498.77 1501.76 C 1509.88 1505.53 1546 1522.56 1557.18 1528.17 C 1551.92 1534.86 1548.61 1537.84 1542.31 1543.65 C 1535.27 1550.26 1529.02 1554.66 1520.98 1559.88 C 1513.76 1538.69 1507.79 1522.17 1498.77 1501.76 z" fill="rgb(245,235,211)" transform="translate(0,0)"></path>
<path d="M 1764.52 1170.94 C 1770.16 1172.29 1775.82 1173.57 1781.49 1174.79 C 1780.76 1183.37 1777.4 1197.57 1775.57 1206.47 C 1771.22 1228.11 1766.45 1249.66 1761.25 1271.11 L 1742.3 1265.31 C 1745.5 1254.3 1748.55 1239.6 1751.25 1228.21 C 1727.52 1222.89 1704.02 1218.44 1680.18 1213.7 C 1661.93 1209.67 1643.64 1205.79 1625.33 1202.06 L 1629.82 1184.48 C 1671.45 1192.85 1713.64 1202.82 1755.35 1211.69 C 1758.71 1200.21 1761.99 1182.88 1764.52 1170.94 z" fill="rgb(83,35,35)" transform="translate(0,0)"></path>
<path d="M 1784.72 943.371 C 1787.4 942.867 1787.69 942.504 1790.17 943.364 C 1793.23 947.215 1793.18 955.521 1793.62 960.752 C 1781.37 963.061 1761.49 964.619 1748.64 965.872 C 1719.66 968.444 1690.73 971.441 1661.83 974.863 C 1665.25 993.025 1667.76 1017.24 1670.01 1035.97 L 1658.26 1038.73 C 1654.53 1039.63 1654.83 1040.26 1652.33 1038.87 C 1647.67 1019.56 1645.66 981.77 1641.54 959.281 C 1688.58 953.856 1738.24 949.61 1784.72 943.371 z" fill="rgb(83,35,35)" transform="translate(0,0)"></path>
<path d="M 971.615 1673.42 C 975 1672.89 973.485 1672.53 976.368 1673.76 C 977.09 1679.89 967.96 1738.05 966.408 1746.85 C 980.468 1737.04 985.371 1736.38 1001.7 1737.1 C 1026.09 1751.69 1016.23 1777.77 1015.49 1801.07 C 1015.11 1812.96 1014.66 1808.23 1020.92 1817.15 L 1020.52 1818.98 C 1012.66 1818.85 1001.05 1818.19 993.278 1817.32 L 993.75 1816.12 C 999.549 1814.09 1002.77 1810.44 1002.97 1803.92 C 1003.47 1788.21 1008.2 1765.49 998.232 1752.28 C 986.912 1743.72 976.958 1745.87 965.558 1753.06 C 963.848 1771.68 961.122 1790.71 959.347 1809.67 C 964.019 1811.88 967.947 1814.14 972.427 1816.68 C 958.665 1814.67 945.181 1814.03 931.357 1811.73 L 944.554 1807.04 C 947.964 1794.84 960.958 1691.07 958.474 1683.72 C 957.065 1679.56 950.149 1677.14 946.518 1675.34 C 955.782 1675.14 962.366 1674.49 971.615 1673.42 z" fill="rgb(83,35,35)" transform="translate(0,0)"></path>
<path d="M 433.443 1372.49 C 451.341 1369.42 468.341 1381.44 471.405 1399.34 C 474.47 1417.24 462.438 1434.23 444.537 1437.29 C 426.649 1440.34 409.672 1428.32 406.61 1410.43 C 403.548 1392.55 415.559 1375.56 433.443 1372.49 z" fill="rgb(83,35,35)" transform="translate(0,0)"></path>
<path d="M 1627.67 1376.81 C 1644.78 1371.75 1662.74 1381.61 1667.67 1398.76 C 1672.6 1415.91 1662.63 1433.79 1645.44 1438.61 C 1628.43 1443.37 1610.75 1433.52 1605.87 1416.53 C 1600.98 1399.55 1610.72 1381.81 1627.67 1376.81 z" fill="rgb(83,35,35)" transform="translate(0,0)"></path>
<path d="M 1131.37 1732.2 C 1161.66 1728.96 1162.23 1751.24 1165.4 1774.23 C 1166.68 1783.49 1168.61 1792.39 1171.14 1801.38 C 1175.23 1802.91 1179.89 1804.25 1184.1 1805.58 C 1176.51 1809.01 1166.57 1811.62 1158.44 1814.03 C 1157.59 1809.38 1156.9 1804.52 1156.16 1799.84 C 1146.41 1813.68 1141.11 1818.62 1123.56 1815.76 C 1113.17 1812.39 1107.11 1802.21 1110.32 1791.74 C 1114.76 1777.29 1137.55 1768.11 1150.08 1761.48 C 1142.53 1723.51 1115.61 1752.98 1110.72 1752.52 C 1106.57 1741.95 1123.91 1734.8 1131.37 1732.2 z" fill="rgb(83,35,35)" transform="translate(0,0)"></path>
<path d="M 1147.47 1768.92 L 1149.02 1769.14 C 1151.47 1773.17 1154.09 1786.51 1153.47 1791.37 C 1151.7 1805.23 1144.1 1806.96 1132.07 1804.89 C 1108.99 1792.27 1135.98 1775.59 1147.47 1768.92 z" fill="rgb(245,235,211)" transform="translate(0,0)"></path>
<path d="M 1066.88 1738.25 C 1082.96 1738 1095.36 1751.37 1097.76 1765.98 C 1100.06 1780.02 1056.38 1778.84 1047.12 1779.15 C 1047.55 1781.14 1048.04 1783.12 1048.61 1785.09 C 1055.16 1808.91 1070.1 1815.91 1093.72 1808.23 C 1096.22 1806.42 1095.09 1806.5 1097.43 1806.54 L 1097.4 1808.84 C 1088.96 1823.12 1064.08 1826.33 1051.69 1817.75 C 1023.17 1797.97 1030.88 1745.4 1066.88 1738.25 z" fill="rgb(83,35,35)" transform="translate(0,0)"></path>
<path d="M 1063.15 1744.96 C 1078.96 1745.21 1079.85 1756.93 1082.27 1769.7 L 1066.76 1771.32 C 1060.28 1772.19 1052.58 1772.16 1045.95 1772.31 C 1048.99 1759.44 1050.65 1751.25 1063.15 1744.96 z" fill="rgb(245,235,211)" transform="translate(0,0)"></path>
<path d="M 903.952 1725.18 C 917.91 1724.42 929.124 1730.82 933.33 1743.9 C 938.552 1760.16 933.867 1770.16 915.792 1765.26 C 908.306 1763.22 892.295 1758.87 885.438 1760.36 C 878.685 1765.77 883.483 1776.63 886.597 1783.28 C 890.07 1790.69 899.486 1794.9 907.155 1796.94 C 912.407 1797.5 919.744 1796.97 925.176 1796.77 C 869.028 1840.4 841.73 1739.64 903.952 1725.18 z" fill="rgb(83,35,35)" transform="translate(0,0)"></path>
<path d="M 902.149 1732.03 C 901.685 1732.07 905.34 1731.76 904.99 1731.85 C 916.372 1729.19 928.263 1750.1 918.413 1757.36 C 916.057 1759.09 910.903 1757.58 907.774 1757.11 C 899.938 1755.44 892.161 1753.5 884.46 1751.3 C 889.223 1741.23 892.36 1737.19 902.149 1732.03 z" fill="rgb(245,235,211)" transform="translate(0,0)"></path>
<path d="M 435.588 861.764 C 435.924 866.165 427.121 897.697 425.48 904.053 C 416.204 939.969 409.405 975.507 403.423 1012.09 C 397.03 1050.76 392.613 1089.74 390.189 1128.86 C 389.418 1141.31 389.181 1179.54 387.693 1188.15 L 387.013 1185.82 C 365.584 1089.26 400.404 951.545 435.588 861.764 z" fill="rgb(83,35,35)" transform="translate(0,0)"></path>
<path d="M 1726.55 726.876 L 1728.88 727.069 C 1732.05 731.057 1734.7 737.198 1737 741.899 C 1692.49 762.065 1647.62 781.43 1602.41 799.985 L 1599.49 800.972 C 1594.94 798.228 1593.47 789.392 1591.96 783.966 C 1598.43 780.971 1605.59 778.439 1612.23 775.737 C 1650.71 760.075 1687.94 742.285 1726.55 726.876 z" fill="rgb(83,35,35)" transform="translate(0,0)"></path>
<path d="M 655.8 1626.15 C 669.937 1624.27 684.68 1627.56 687.83 1643.8 C 691.35 1661.94 651.745 1687.29 659.496 1702.81 C 663.775 1705.92 666.739 1706.79 671.62 1708.7 C 661.868 1709.35 642.017 1712.41 645.012 1698 C 645.479 1695.75 645.074 1694.53 643.825 1692.59 C 636.139 1688.42 619.88 1697.62 613.915 1679.01 C 612.435 1674.39 613.634 1668.74 616.319 1664.68 C 619.234 1660.35 623.768 1657.39 628.898 1656.45 C 639.022 1654.56 651.721 1659.69 661.224 1663.2 C 673.439 1650.63 682.475 1629.75 656.937 1628.26 L 655.8 1626.15 z" fill="rgb(83,35,35)" transform="translate(0,0)"></path>
<path d="M 638.298 1663.01 C 645.95 1663.64 650.456 1665.51 657.556 1668.14 C 654.013 1675.48 651.255 1679.29 645.671 1684.99 C 627.645 1691.11 619.895 1670.34 638.298 1663.01 z" fill="rgb(245,235,211)" transform="translate(0,0)"></path>
<path d="M 858.246 1647.24 C 863.492 1646.49 883.757 1647.02 890.153 1647.08 C 886.503 1658.25 880.441 1670.75 876.444 1682.14 C 864.689 1715.65 850.549 1750.95 841.171 1785.05 C 844.439 1787.95 847.435 1790.31 850.031 1793.82 L 849.243 1794.63 L 845.622 1793.81 C 835.423 1789.82 820.663 1786.95 809.55 1783.89 C 816.307 1783.21 826.04 1784.52 827.584 1777.82 C 831.314 1761.62 870.267 1665.09 868.985 1654.92 C 866.348 1651.14 862.399 1649.55 858.246 1647.24 z" fill="rgb(83,35,35)" transform="translate(0,0)"></path>
<path d="M 714.114 1657.2 C 719.334 1657.09 724.047 1655.82 727.06 1660.46 C 727.238 1664.4 725.215 1667.51 723.453 1671.11 L 739.705 1666.75 C 748.345 1668.61 753.031 1670.85 760.638 1674.98 C 755.256 1679.23 751.24 1683.04 746.251 1687.78 C 723.535 1657.88 713.027 1689.29 702.006 1709.5 C 699.699 1713.77 693.162 1724.3 694.376 1729.42 C 694.677 1730.69 698.039 1732.61 697.76 1735.26 C 693.645 1735.12 674.465 1725.2 672.207 1721.02 L 672.977 1719.72 C 675.146 1719.33 679.138 1718.8 680.259 1717.16 C 686.009 1708.72 708.85 1670.77 708.166 1662.85 C 705.937 1661.77 705.01 1661.48 702.681 1660.63 C 707.204 1658.76 709.302 1658.29 714.114 1657.2 z" fill="rgb(83,35,35)" transform="translate(0,0)"></path>
<path d="M 656.937 1628.26 C 652.603 1632.55 646.445 1641.86 641.919 1643.16 C 639.086 1641.92 640.212 1642.89 638.701 1639.85 C 638.558 1629.79 647.467 1627.39 655.8 1626.15 L 656.937 1628.26 z" fill="rgb(80,21,16)" transform="translate(0,0)"></path>
<path d="M 936.031 1902.95 C 957.342 1906.18 988.766 1907.29 1010.31 1907.98 C 1007.29 1927.47 1002.57 1936.89 987.425 1949.88 C 971.503 1960.05 948.391 1967.1 930.376 1960.99 C 914.639 1955.64 931.768 1911.63 936.031 1902.95 z" fill="rgb(83,35,35)" transform="translate(0,0)"></path>
<path d="M 1699.3 431.377 C 1720.12 430.73 1741.4 442.068 1754.31 458.227 C 1756.08 460.445 1758.22 466.548 1756.77 468.916 C 1749.79 480.335 1729.41 491.279 1718.16 496.879 C 1715.01 498.236 1714.9 498.375 1711.35 498.934 C 1707.34 497.045 1683.11 467.705 1677.63 462.116 C 1672.4 456.787 1665.39 449.791 1659.26 444.202 C 1673.22 436.924 1683.78 433.18 1699.3 431.377 z" fill="rgb(83,35,35)" transform="translate(0,0)"></path>
<path d="M 1768.66 540.353 C 1779.96 538.859 1791.46 540.566 1801.84 545.28 C 1820.38 553.836 1831.88 569.248 1838.8 587.954 C 1828.97 595.812 1822.15 598.938 1810.65 604.305 C 1801.94 607.987 1797.12 609.69 1788.02 612.173 C 1773.94 588.01 1761.62 567.914 1746.24 544.672 C 1754.3 542.788 1760.48 541.587 1768.66 540.353 z" fill="rgb(83,35,35)" transform="translate(0,0)"></path>
<path d="M 800.519 1877.61 C 824.764 1884.35 850.016 1888.57 874.322 1894.62 C 867.745 1910.45 861.188 1918.82 846.86 1928.37 C 841.71 1931.62 836.093 1934.06 830.205 1935.61 C 826.032 1936.72 821.648 1937.73 817.374 1937.9 C 787.261 1939.13 774.003 1934.72 786.909 1901.82 C 790.618 1892.37 794.51 1886.18 800.519 1877.61 z" fill="rgb(83,35,35)" transform="translate(0,0)"></path>
<path d="M 1598.67 336.226 C 1623.31 333.372 1645.17 343.178 1659.21 363.621 C 1648.51 381.304 1635.38 390.001 1618.29 401.194 L 1617.03 401.474 C 1612.35 399.187 1592.41 380.741 1586.14 375.796 C 1577.24 368.774 1567.81 361.564 1558.58 354.67 C 1571.8 344.207 1582.25 339.288 1598.67 336.226 z" fill="rgb(83,35,35)" transform="translate(0,0)"></path>
<path d="M 1890.84 920.538 C 1924.75 928.73 1948.82 946.066 1954.78 982.281 C 1955.84 988.714 1958.37 996.226 1954.43 1001.87 C 1934.78 1006.35 1920.06 1004.51 1900.1 1003.22 C 1897.22 972.771 1895.48 951.5 1890.84 920.538 z" fill="rgb(83,35,35)" transform="translate(0,0)"></path>
<path d="M 551.397 1762.72 C 572.766 1775.39 595.911 1789.86 617.346 1802.9 C 605.368 1814.14 599.324 1820.06 584.471 1826.65 C 567.537 1832.24 547.649 1832.57 531.866 1823.27 C 510.864 1810.88 542.337 1774.31 551.397 1762.72 z" fill="rgb(83,35,35)" transform="translate(0,0)"></path>
<path d="M 1136.31 1901.41 C 1139.31 1901.03 1140.72 1900.57 1143.56 1901.65 C 1143.86 1902.67 1144.24 1903.82 1144.22 1904.89 C 1143.81 1928.91 1130.41 1950.59 1107.1 1958.57 C 1095.03 1962.7 1085.33 1963.01 1072.75 1962.93 C 1058.86 1960.25 1067.47 1916.48 1070.17 1907.12 C 1089.87 1907 1116.3 1903.58 1136.31 1901.41 z" fill="rgb(83,35,35)" transform="translate(0,0)"></path>
<path d="M 447.141 1681.72 C 450.842 1683.43 461.131 1692.75 464.92 1695.84 C 479.585 1707.78 493.756 1721.72 509.835 1731.69 C 498.356 1738.79 489.773 1744.85 476.708 1748.53 C 459.762 1752.67 431.697 1748.51 418.989 1735.85 C 404.095 1721 436.594 1690.63 447.141 1681.72 z" fill="rgb(83,35,35)" transform="translate(0,0)"></path>
<path d="M 145.481 790.833 C 158.594 790.945 184.89 801.576 197.697 806.349 C 191.573 829.651 186.364 854.529 181.291 878.107 C 180.517 881.325 180.985 881.944 178.964 883.688 C 172.831 879.21 166.199 874.927 159.893 870.638 C 132.632 852.098 131.501 818.063 145.481 790.833 z" fill="rgb(83,35,35)" transform="translate(0,0)"></path>
<path d="M 1495.38 254.337 C 1508.65 252.894 1541.77 260.743 1544.18 275.813 C 1545.44 283.688 1518.71 313.582 1512.62 319.504 L 1503.41 314.2 C 1485.01 302.153 1465.87 291.261 1446.12 281.586 C 1462.02 266.163 1473.11 257.258 1495.38 254.337 z" fill="rgb(83,35,35)" transform="translate(0,0)"></path>
<path d="M 851.129 136.29 L 853.038 136.159 C 863.67 142.057 864.352 179.984 862.932 191.449 C 840.506 197.322 820.808 200.624 797.261 207.442 L 787.084 210.552 C 788.874 165.219 806.29 144.374 851.129 136.29 z" fill="rgb(83,35,35)" transform="translate(0,0)"></path>
<path d="M 1276.3 1873.08 C 1278.02 1873.42 1277.17 1873.1 1278.63 1875.1 C 1279.64 1883.41 1280.67 1890.58 1278.6 1898.9 C 1273.92 1917.61 1258.55 1933.13 1240.69 1939.83 C 1233.38 1942.58 1218.73 1945.5 1211.13 1943.67 C 1202.85 1923.7 1203.01 1913.09 1205.29 1891.64 C 1224.57 1888.73 1257.81 1878.85 1276.3 1873.08 z" fill="rgb(83,35,35)" transform="translate(0,0)"></path>
<path d="M 1797.28 1455.97 C 1807.48 1463.56 1817.07 1471.29 1820.63 1484.16 C 1826.72 1506.14 1819.54 1534.02 1808.92 1553.35 C 1803.03 1551.82 1798.24 1549.67 1792.64 1547.34 C 1779.99 1541.1 1767.96 1533.86 1757.99 1523.78 C 1771.67 1500.5 1784.37 1480.02 1797.28 1455.97 z" fill="rgb(83,35,35)" transform="translate(0,0)"></path>
<path d="M 672.612 1830.6 C 676.526 1831.85 687.277 1837.09 691.524 1838.97 C 708.234 1846.37 723.342 1853.72 740.921 1859.03 C 732.739 1871.68 722.176 1880.65 709.409 1888.36 C 702.194 1892.01 696.667 1894.05 688.876 1894.46 C 646.976 1896.66 638.16 1884.41 659.695 1847.22 C 663.514 1840.63 667.436 1836.22 672.612 1830.6 z" fill="rgb(83,35,35)" transform="translate(0,0)"></path>
<path d="M 989.788 122.42 C 991.805 122.255 993.497 122.335 995.511 122.366 C 1007.03 129.432 1000.96 165.792 998.223 176.879 C 976.332 177.144 954.474 178.691 932.764 181.514 L 917.32 183.406 C 927.009 140.062 946.073 125.198 989.788 122.42 z" fill="rgb(83,35,35)" transform="translate(0,0)"></path>
<path d="M 1814.39 663.449 C 1825.74 662.27 1840.15 662.459 1852.68 665.937 C 1871.49 671.161 1900.44 699.302 1895.82 720.835 C 1895.28 723.379 1889.92 725.753 1887.42 727.031 C 1876.52 732.109 1857.95 735.794 1846.13 737.868 C 1840.98 721.158 1831.73 701.694 1824.82 685.452 C 1821.95 678.7 1816.38 669.912 1814.39 663.449 z" fill="rgb(83,35,35)" transform="translate(0,0)"></path>
<path d="M 1404.33 1825.77 L 1405.05 1825.72 C 1410.63 1828.41 1410.06 1845.82 1410.1 1851.64 C 1410.36 1884.17 1386.14 1896.19 1360.17 1907.01 C 1356.66 1903.48 1355.09 1901.24 1352.16 1897.29 C 1342.43 1883.11 1338.89 1870.93 1335.81 1854.37 C 1362.9 1844.77 1378.68 1838.49 1404.33 1825.77 z" fill="rgb(83,35,35)" transform="translate(0,0)"></path>
<path d="M 1378.71 190.389 C 1393.88 189.397 1409.37 194.164 1419.26 206.104 C 1414.46 223.134 1404.46 239.224 1393.81 253.189 C 1387.4 251.08 1379.71 247.815 1373.32 245.29 C 1356.56 238.433 1339.75 231.738 1322.86 225.205 C 1323.55 224.282 1324.25 223.375 1324.98 222.486 C 1339.97 203.923 1354.68 192.897 1378.71 190.389 z" fill="rgb(83,35,35)" transform="translate(0,0)"></path>
<path d="M 355.894 1582.83 C 358.656 1585 372.099 1601.27 375.348 1605.1 C 386.145 1617.9 397.163 1630.5 408.399 1642.91 C 393.738 1650.38 386.182 1653.44 369.894 1654.34 C 346.035 1654.11 329.453 1644.67 316.913 1624.42 C 322.968 1605.41 339.715 1593.33 355.894 1582.83 z" fill="rgb(83,35,35)" transform="translate(0,0)"></path>
<path d="M 1244.14 147.243 C 1301.53 142.78 1287.8 170.87 1266.04 207.22 C 1258.84 204.789 1249.05 202.417 1241.56 200.378 C 1224.93 196.47 1208.31 193.469 1191.53 190.331 C 1193.3 187.294 1195.2 184.328 1197.2 181.44 C 1210 162.644 1221.44 151.606 1244.14 147.243 z" fill="rgb(83,35,35)" transform="translate(0,0)"></path>
<path d="M 276.325 1469.86 C 276.878 1469.88 277.437 1469.85 277.983 1469.93 C 281.26 1470.45 316.071 1528.44 321.342 1536.26 C 307.273 1541.68 296.315 1542.86 281.473 1541.91 C 256.364 1536.76 241.685 1522.63 233.418 1498.67 C 245.159 1484.44 259.815 1477.4 276.325 1469.86 z" fill="rgb(83,35,35)" transform="translate(0,0)"></path>
<path d="M 358.496 410.818 C 374.674 421.324 386.416 432.933 400.572 445.823 C 387.592 462.124 371.834 478.073 357.781 495.835 L 347.433 509.673 C 322.476 469.718 323.423 443.551 358.496 410.818 z" fill="rgb(83,35,35)" transform="translate(0,0)"></path>
<path d="M 1630.58 1672.68 C 1638.66 1677.96 1642.79 1703.91 1641.9 1713.64 C 1639.79 1736.62 1623.78 1752.39 1607.32 1766.62 C 1600.9 1762.73 1598.46 1760.63 1592.71 1755.72 C 1582.16 1745.96 1576.5 1737.91 1570.24 1725 C 1593.76 1705.95 1608.35 1693.61 1630.58 1672.68 z" fill="rgb(83,35,35)" transform="translate(0,0)"></path>
<path d="M 196.449 654.743 C 213.182 660.755 228.839 669.772 244.521 678.191 C 235.14 699.421 226.461 720.954 218.501 742.755 L 214.387 753.155 C 193.791 733.964 176.97 717.86 182.383 687.008 C 184.712 673.732 188.919 665.69 196.449 654.743 z" fill="rgb(83,35,35)" transform="translate(0,0)"></path>
<path d="M 268.915 526.685 C 282.814 531.582 302.068 545.387 314.296 554.402 C 299.764 573.94 289.117 592.88 277.688 614.222 L 270.33 628.632 C 259.987 614.219 247.855 595.936 247.678 577.738 C 247.504 559.846 256.442 539.339 268.915 526.685 z" fill="rgb(83,35,35)" transform="translate(0,0)"></path>
<path d="M 1113.58 125.361 C 1121.25 124.381 1132.76 125.543 1140.68 126.225 C 1145.99 145.34 1142.3 164.231 1132.61 181.2 C 1118.07 180.167 1103.08 178.439 1088.25 177.355 C 1078.29 176.604 1064.19 176.692 1053.91 176.464 C 1063.29 147.965 1083.7 129.019 1113.58 125.361 z" fill="rgb(83,35,35)" transform="translate(0,0)"></path>
<path d="M 119.371 934.255 C 134.776 934.288 155.951 936.833 171.305 938.407 C 168.077 967.206 167.292 991.992 164.843 1020.05 C 142.008 1014.82 119.775 995.565 115.093 972.177 C 112.687 960.162 112.525 944.804 119.371 934.255 z" fill="rgb(83,35,35)" transform="translate(0,0)"></path>
<path d="M 1900.68 1060.54 C 1941.01 1070.06 1955 1095.66 1954.05 1137.24 C 1953.98 1140.27 1953.06 1142.11 1950.82 1143.84 C 1932.5 1144.23 1914.18 1142.93 1896.1 1139.96 C 1899.79 1112.5 1900.22 1088.08 1900.68 1060.54 z" fill="rgb(83,35,35)" transform="translate(0,0)"></path>
<path d="M 1861.96 790.805 C 1871.17 790.669 1878.96 790.86 1889.1 794.119 C 1914.16 802.169 1939.49 830.231 1934.6 858.002 C 1934.23 860.057 1931.51 860.637 1929.73 861.25 C 1914.34 864.824 1898.63 866.652 1883 869.241 C 1876.29 838.986 1872.45 819.801 1861.96 790.805 z" fill="rgb(83,35,35)" transform="translate(0,0)"></path>
<path d="M 1852.09 1331.72 C 1856.85 1334.3 1861.52 1336.84 1865.84 1340.13 C 1892.68 1360.57 1888.22 1399.84 1876.1 1427.18 C 1871.07 1425.89 1868.42 1424.68 1863.74 1422.65 C 1849.98 1415.58 1837.5 1411.11 1823.06 1405.88 C 1834.27 1379.64 1842.71 1358.82 1852.09 1331.72 z" fill="rgb(83,35,35)" transform="translate(0,0)"></path>
<path d="M 181.786 1213.33 L 182.503 1213.42 C 184.834 1215.09 185.805 1222.82 186.55 1226.2 C 191.397 1248.18 196.801 1269.5 203.82 1290.89 C 188.217 1291.22 176.857 1290.15 162.878 1283.3 C 148.359 1274.67 124.967 1248.49 133.838 1228.83 C 137.55 1220.6 171.534 1215.39 181.786 1213.33 z" fill="rgb(83,35,35)" transform="translate(0,0)"></path>
<path d="M 164.316 1075.48 C 165.316 1075.4 164.587 1075.4 166.421 1076.07 C 169.961 1103.89 168.636 1130.63 175.44 1159.56 C 160.535 1156.59 152.725 1154.27 139.938 1146.21 C 122.643 1134.06 105.614 1102.02 118.619 1081.48 C 121.911 1076.28 156.181 1075.92 164.316 1075.48 z" fill="rgb(83,35,35)" transform="translate(0,0)"></path>
<path d="M 221.901 1343.34 C 222.782 1344.44 225.401 1352.43 226.072 1354.28 C 233.953 1375.98 243.453 1396.64 253.313 1417.5 C 236.809 1419.58 224.645 1419.74 208.927 1414.35 C 193.221 1407.52 181.012 1394.54 175.159 1378.45 C 171.037 1367.14 175.554 1361.22 185.916 1356.39 C 197.347 1351.07 209.933 1347.29 221.901 1343.34 z" fill="rgb(83,35,35)" transform="translate(0,0)"></path>
<path d="M 1523.03 1759.1 C 1526.89 1763.79 1528.38 1772.85 1530.04 1778.67 C 1538.38 1808.05 1514.46 1835.16 1489.63 1848.24 C 1486.2 1844.85 1483.31 1841.22 1480.22 1837.52 C 1471.35 1827.34 1463.93 1811.76 1460.28 1798.75 C 1482.75 1783.93 1500.46 1775.87 1523.03 1759.1 z" fill="rgb(83,35,35)" transform="translate(0,0)"></path>
<path d="M 715.589 176.94 L 718.266 177.503 C 727.966 189.595 731.471 213.419 730.884 228.82 C 711.685 237.108 691.645 244.11 671.355 252.987 L 660.402 257.862 C 656.146 208.884 670.884 192.292 715.589 176.94 z" fill="rgb(83,35,35)" transform="translate(0,0)"></path>
<path d="M 1885.34 1198.34 C 1912.99 1208.3 1925.24 1226.69 1927.1 1255.68 C 1927.55 1262.71 1927.47 1282.96 1923.04 1288.05 C 1919.63 1289.32 1917.41 1288.63 1913.79 1288.12 C 1899.49 1285.15 1884.01 1280.93 1869.74 1277.33 C 1875.94 1249.95 1879.95 1225.5 1885.34 1198.34 z" fill="rgb(83,35,35)" transform="translate(0,0)"></path>
<path d="M 585.084 237.849 C 595.36 241.593 605.629 274.993 609.153 284.66 C 590.468 295.008 572.173 306.048 554.308 317.756 L 540.371 327.367 C 537.092 280.798 535.216 257.803 585.084 237.849 z" fill="rgb(83,35,35)" transform="translate(0,0)"></path>
<path d="M 1726.44 1569.02 C 1737.82 1580.97 1744.02 1608.71 1738.91 1623.83 C 1734.67 1636.4 1724.84 1656.13 1715.8 1665.65 C 1708.96 1662.78 1703.59 1659.69 1697.11 1656.08 C 1687.51 1649.91 1678.18 1642.37 1671.9 1632.73 C 1675 1628.91 1678.52 1625.42 1681.86 1621.82 C 1697.54 1604.9 1711.58 1586.64 1726.44 1569.02 z" fill="rgb(83,35,35)" transform="translate(0,0)"></path>
<path d="M 462.867 316.748 C 472.941 316.77 491.862 351.343 495.357 360.554 C 478.81 371.928 465.497 383.612 450.293 396.716 L 436.101 409.14 C 421.224 367.205 422.419 342.479 462.867 316.748 z" fill="rgb(83,35,35)" transform="translate(0,0)"></path>
<metadata><recraft-signature>{"signed_by": "recraft", "signature_b64": "hfehqIi4H+FP/mZgDcI2uBJtvzTxdOibUm0dd8z7t2zq8SysNWkQ9zPJm1LAhrsIXyowTlu8iNPEXhMpsn9EAw==", "signing_algo": "Ed25519", "generation_timestamp": 1772546643, "identifier": "bf002bc7-212a-4483-96e0-8e6c2c01cee5"}</recraft-signature></metadata></svg>