<svg xmlns="http://www.w3.org/2000/svg" height="1024" preserveAspectRatio="none" style="display: block;" version="1.1" viewBox="0 0 2048 2048" width="1024">
<path d="M 0 0 L 2048 0 L 2048 2048 L 0 2048 L 0 0 z" fill="rgb(248,248,245)" transform="translate(0,0)"></path>
<path d="M 633.651 867.428 C 684.428 864.418 748.526 871.789 774.124 921.782 C 807.244 986.464 740.672 1044.84 679.936 1050.17 C 674.648 1050.63 649.644 1052.27 647.809 1053.83 C 639.795 1064.48 651.759 1092.58 655.184 1103.62 C 657.98 1112.63 669.783 1125.17 667.954 1133.33 C 662.989 1135.55 648.496 1137.2 643.348 1137 C 630.725 1136.52 542.529 1144.55 537.568 1141.8 C 537.449 1138.15 544.127 1134.73 547.226 1132.5 C 563.105 1121.09 569.302 1109.83 576.433 1092.39 C 577.965 1088.21 579.36 1083.98 580.617 1079.71 C 588.232 1054.36 605.993 949.5 594.492 929.757 C 592.877 926.986 590.408 925.066 587.286 924.325 C 579.005 922.358 564.03 928.209 556.983 932.601 C 552.322 935.507 548.534 939.637 547.383 945.137 C 546.563 949.055 546.636 953.472 548.944 956.845 C 558.753 961.888 566.468 949.371 577.053 957.376 C 592.024 967.355 586.183 996.352 575.755 1007.92 C 540.173 1047.4 482.478 1023.78 478.283 973.2 C 476.678 953.236 483.204 933.469 496.38 918.385 C 527.634 882.259 588.45 870.638 633.651 867.428 z" fill="rgb(44,23,21)" transform="translate(0,0)"></path>
<path d="M 664.611 918.052 C 696.716 916.075 711.44 946.219 706.061 974.484 C 702.022 995.712 693.066 1009.72 675.566 1022.14 C 667.969 1026.63 651.186 1035.32 643.875 1028.03 C 637.06 1008.9 655.152 944.338 658.883 922.654 C 659.054 921.66 663.519 918.771 664.611 918.052 z" fill="rgb(248,248,245)" transform="translate(0,0)"></path>
<path d="M 374.35 1178.4 C 396.884 1175.77 428.141 1178.57 446.921 1192.14 C 478.629 1215.05 475.177 1267.97 430.932 1273.07 C 409.883 1275.68 390.533 1263.81 387.829 1241.92 C 385.839 1225.81 395.576 1217.1 404.888 1205.3 L 403.556 1203.1 C 389.34 1195.02 364.839 1208.4 358.824 1221.63 C 343.09 1256.25 373.831 1272.43 398.861 1285.57 C 426.295 1300.44 462.408 1321.82 472.254 1353.56 C 485.129 1395.07 456.9 1432.29 416.644 1441.92 C 387.766 1448.83 344.007 1451.75 320.503 1429.66 C 312.589 1422.22 310.502 1412.56 299.855 1406.38 C 291.804 1406.53 287.305 1417.6 286.195 1424.5 C 284.766 1433.38 289.237 1441.86 294.501 1448.85 C 306.481 1460.71 319.02 1462.99 334.915 1463.22 C 319.259 1484.3 300.86 1490.47 275.315 1490.83 C 165.267 1492.4 188.255 1346.01 287.041 1351.16 C 326.613 1353.23 334.981 1364.55 361.064 1392.19 C 393.502 1426.57 410.994 1383.09 374.78 1362.11 C 350.351 1345.51 321.55 1331.44 297.471 1313.99 C 264.896 1290.39 259.624 1247.86 285.248 1216.78 C 306.958 1189.9 341.584 1181.65 374.35 1178.4 z" fill="rgb(44,23,21)" transform="translate(0,0)"></path>
<path d="M 1054.91 554.003 L 1057.24 555.432 C 1059.3 558.944 1059.72 562.817 1059.39 566.813 C 1056.57 600.597 1046.23 635.216 1043.47 668.932 C 1057.15 653.134 1070.07 629.806 1091.73 627.639 C 1153.41 621.465 1150.05 676.81 1142.12 718.555 C 1140.87 735.269 1134.17 766.372 1140.46 782.278 C 1152.57 812.955 1169.86 807.384 1183.27 785.544 C 1215.92 782.004 1227.85 823.793 1218.5 848.671 C 1202.94 890.089 1143.85 899.766 1110.21 875.718 C 1092.77 863.249 1084.2 844.34 1081.11 823.743 C 1080 786.409 1090.02 752.216 1089.82 715.436 C 1089.76 702.856 1079.3 689.01 1065.19 691.668 C 1024.45 699.533 1036.56 760.677 1045.58 788.2 C 1048.53 797.197 1060.55 815.692 1055.54 823.344 C 1049.79 827.191 984.46 829.107 972.816 830.379 C 967.2 830.992 950.834 832.164 946.454 828.252 C 947.515 819.4 963.632 801.968 968.048 792.502 C 987.225 751.396 997.081 699.312 994.758 654.073 C 993.844 636.287 989.459 618.607 984.903 602.484 C 999.829 588.94 1036.53 558.758 1054.91 554.003 z" fill="rgb(44,23,21)" transform="translate(0,0)"></path>
<path d="M 974.834 562.819 C 977.072 562.795 976.27 562.62 978.245 563.709 C 982.041 573.129 966.189 645.505 966.203 659.312 C 966.204 660.905 964.752 663.43 963.761 664.789 C 959.801 665.358 954.751 659.214 952.617 655.769 C 944.327 640.401 896.031 622.621 890.701 645.534 C 880.189 690.718 879.752 750.496 892.974 795.244 C 895.882 805.084 908.386 818.503 912.443 828.674 C 912.161 832.004 912.806 830.574 910.196 832.989 C 903.451 834.986 895.373 835.274 888.328 835.673 C 852.511 837.703 816.687 840.173 780.852 841.74 C 778.058 841.862 775.171 841.598 772.623 840.42 C 772.163 839.775 771.703 839.13 771.243 838.484 C 775.362 831.123 786.673 820.177 791.217 813.591 C 795.625 807.203 798.366 802.097 800.762 796.598 C 816.92 759.511 822.138 714.826 826.84 675.238 C 829.231 642.285 838.212 600.468 787.145 614.214 C 774.534 617.608 757.024 632.974 776.002 641.435 C 780.408 643.399 791.104 636.207 794.78 633.921 C 808.172 644.335 813.223 655.015 809.601 672.257 C 807.124 683.95 799.998 694.133 789.859 700.465 C 763.361 716.841 725.765 708.144 709.692 680.606 C 700.303 664.513 697.643 645.365 702.289 627.322 C 707.21 608.862 718.859 593.829 734.842 583.947 C 799.922 543.711 860.507 584.912 928.718 579.953 C 946.714 578.645 959.62 571.47 974.834 562.819 z" fill="rgb(44,23,21)" transform="translate(0,0)"></path>
<path d="M 552.906 1226.96 C 556.478 1227.55 556.407 1227.4 559.629 1229.46 C 565.403 1238.22 556.683 1261.86 555.371 1274.66 L 555.233 1276.09 C 564.686 1262.69 570.029 1247.9 584.831 1239.24 C 620.726 1218.24 659.227 1233.25 672.275 1272.26 C 687.92 1319.03 676.664 1389.31 632.226 1415.81 C 618.976 1423.62 603.132 1425.75 588.293 1421.7 C 565.157 1415.34 553.432 1397.82 542.147 1378.51 C 541.581 1388.71 541.581 1397.11 542.393 1407.24 C 544.491 1426.4 545.943 1440.59 551.747 1459.54 C 555.326 1471.22 566.215 1479.38 565.594 1485.81 C 554.008 1492.09 495.52 1489.73 479.301 1492.79 C 474.394 1493.72 453.854 1495.54 451.075 1491.05 C 452.413 1482.33 466.016 1471.93 470.401 1463.39 C 495.619 1414.27 507.449 1354.65 500.003 1299.7 C 497.926 1284.37 491.642 1279.59 480.144 1272.03 C 490.673 1266.32 499.83 1261.33 509.806 1254.6 C 524.109 1244.95 536.457 1232.44 552.906 1226.96 z" fill="rgb(44,23,21)" transform="translate(0,0)"></path>
<path d="M 582.465 1279 C 624.304 1279.72 616.484 1338.87 603.452 1363.83 C 599.179 1372.02 593.735 1374.29 585.467 1376.19 C 584.695 1376.05 583.922 1375.9 583.15 1375.76 L 581.425 1375.39 C 568.126 1372.65 554.309 1361.08 553.006 1347.01 C 550.732 1322.44 556.412 1288.61 582.465 1279 z" fill="rgb(248,248,245)" transform="translate(0,0)"></path>
<path d="M 1455.71 891.434 C 1462.83 891.146 1482.29 889.138 1486.8 893.904 C 1485.91 897.562 1474.95 906.482 1471.46 911.262 C 1428.76 969.748 1412.44 1037.05 1390.58 1104.33 C 1366.55 1118.76 1344.74 1135.5 1340.46 1164.87 C 1315.82 1182.21 1280.24 1182.39 1259.84 1158.14 C 1251.58 1148.43 1247.72 1135.73 1249.19 1123.06 C 1251.48 1102.87 1264.55 1089.7 1283.6 1083.67 C 1297.06 1079.41 1326.31 1085.46 1322.82 1105.01 C 1322.17 1108.74 1314.6 1108.71 1312.48 1110.53 C 1299.36 1121.8 1308.54 1135.21 1322.72 1137.7 L 1324.07 1137.92 C 1327.73 1137.45 1331.46 1136.9 1334.59 1134.79 C 1341.13 1130.38 1343.59 1121.73 1344.02 1114.27 C 1345.84 1082.42 1314.32 988.749 1300.93 956.604 C 1297.77 949.012 1294.25 941.739 1289.99 934.702 C 1286.66 929.205 1281.84 923.167 1279.55 917.195 C 1278.75 915.126 1278.96 913.233 1279.34 911.115 C 1282.39 906.098 1288.37 903.988 1293.81 902.959 C 1312.32 899.454 1370.68 891.189 1385.24 900.108 C 1385.81 908.61 1366.9 920.976 1363.75 933.059 C 1358.98 951.346 1372.78 976.047 1379.74 993.083 C 1382.31 999.388 1386.97 1009.5 1392.68 1011.6 C 1412.85 1007.38 1410.14 949.843 1404.86 934.886 C 1403.41 930.798 1393.77 904.002 1396.85 901.965 C 1411.58 892.227 1438.26 892.542 1455.71 891.434 z" fill="rgb(44,23,21)" transform="translate(0,0)"></path>
<path d="M 867.041 927.405 C 881.129 926.068 900.804 927.902 913.078 934.924 C 959.532 961.501 937.275 1006.61 942.174 1048.4 C 943.782 1062.11 952.359 1075.97 956.859 1088.49 C 957.579 1090.49 955.647 1093.62 954.287 1095.15 C 944.387 1105.55 926.293 1114.56 912.013 1116.22 C 888.641 1118.94 884.956 1101.56 882.928 1083.64 C 875.571 1095.78 869.25 1105.41 856.693 1112.95 C 843.942 1120.56 828.643 1122.65 814.318 1118.74 C 799.412 1114.62 790.368 1105.83 782.844 1092.99 C 780.19 1087.06 778.44 1080.95 777.785 1074.49 C 776.57 1062.51 779.509 1051.39 786.031 1041.34 C 813.129 999.589 880.211 1001.58 900.019 976.397 C 902.45 973.307 904.12 969.553 903.303 965.562 C 902.59 962.076 900.258 958.121 897.079 956.362 C 882.208 948.131 853.613 982.102 842.541 989.985 C 836.789 994.15 830.222 997.051 823.27 998.499 C 793.219 1004.52 787.614 971.498 804.622 952.635 C 820.797 934.696 844.162 929.686 867.041 927.405 z" fill="rgb(44,23,21)" transform="translate(0,0)"></path>
<path d="M 881.115 1010.16 C 895.399 1009.27 896.629 1014.11 894.211 1028.02 C 890.692 1048.25 883.035 1062.82 862.401 1068.65 C 842.978 1065.13 843.74 1043.83 851.499 1029.49 C 857.26 1018.85 869.529 1012.79 881.115 1010.16 z" fill="rgb(248,248,245)" transform="translate(0,0)"></path>
<path d="M 1233.73 1192.44 C 1255.48 1191.65 1276.39 1194.94 1292.44 1211.06 C 1319.71 1238.45 1303.42 1277.43 1307.72 1311.07 C 1309.88 1327.98 1314.46 1340.13 1323.91 1354.31 C 1316.57 1362.8 1309.45 1368.55 1299.14 1372.98 C 1266.42 1387.02 1249.96 1380.57 1248.91 1344.2 C 1240.83 1357.97 1233.82 1368.01 1220.11 1376.68 C 1192.63 1394.05 1163.4 1384.11 1147.66 1356.86 C 1117.42 1294.11 1206.91 1268.87 1247.48 1254.27 C 1277.24 1243.56 1271.12 1206.44 1240.82 1226.58 C 1222.31 1238.89 1207.08 1262.5 1183.2 1265.9 C 1155.24 1267.39 1154.77 1233.03 1170.56 1217.33 C 1188.5 1199.48 1210 1193.87 1233.73 1192.44 z" fill="rgb(44,23,21)" transform="translate(0,0)"></path>
<path d="M 1251.12 1276.24 C 1263.35 1274.83 1260.77 1286.73 1259.19 1296.01 C 1255.48 1317.73 1246.33 1335.01 1221.92 1333.8 C 1221.07 1333.28 1220.23 1332.75 1219.39 1332.22 C 1208.69 1325.26 1208.44 1305.09 1215.42 1295.63 C 1223.94 1284.08 1237.53 1278.74 1251.12 1276.24 z" fill="rgb(248,248,245)" transform="translate(0,0)"></path>
<path d="M 798.715 1219.42 C 814.941 1218.43 831.414 1222.07 844.017 1232.89 C 854.24 1241.68 858.099 1252.43 859.406 1264.93 C 866.346 1331.34 767.938 1320.55 759.888 1330.08 C 759.674 1337.13 772.59 1345.39 778.873 1346.37 C 804.489 1350.34 830.143 1341.59 850.143 1325.63 C 852.312 1323.9 854.168 1323.12 856.776 1323.6 C 864.97 1333.26 848.027 1365.59 842.218 1374.9 C 841.517 1375.93 840.783 1376.94 840.02 1377.92 C 812.921 1412.7 754.505 1422.23 719.241 1394.77 C 679.85 1364.11 684.009 1299.08 715.302 1263.91 C 738.045 1238.34 763.76 1222.56 798.715 1219.42 z" fill="rgb(44,23,21)" transform="translate(0,0)"></path>
<path d="M 792.649 1243.04 C 810.668 1243.63 805.816 1267.49 801.067 1278.53 C 795.857 1290.63 779.463 1300.72 767.144 1304.73 C 752.853 1308.31 753.445 1304.96 756.784 1291.48 C 762.005 1270.39 771.366 1250.94 792.649 1243.04 z" fill="rgb(248,248,245)" transform="translate(0,0)"></path>
<path d="M 1629.71 1165.39 C 1652.21 1161.15 1692.41 1166.97 1704.12 1188.85 C 1709.18 1197.84 1710.46 1205.13 1707.69 1215.04 C 1699.24 1245.25 1639.09 1250.72 1648.1 1210.68 C 1649.76 1203.34 1656.48 1196.96 1659.16 1190.25 L 1658.14 1188.74 C 1646.38 1184.91 1634.48 1190.74 1626.64 1199.87 C 1605.3 1222.66 1639.58 1238 1657.95 1245.02 C 1694.47 1258.98 1732.16 1283.41 1699.76 1326.3 C 1681.63 1350.3 1651.24 1353.73 1622.73 1356.9 C 1595.23 1357.61 1550.44 1354.65 1537.31 1323.64 C 1533.59 1313.99 1536.19 1302.48 1540.53 1293.64 C 1551.09 1272.1 1594.24 1264.83 1601.53 1293.06 C 1605.54 1308.61 1599.73 1314.02 1592.8 1326.18 C 1593.03 1332.93 1603.69 1334.73 1607.97 1333.55 C 1650.02 1322.56 1642.26 1294.84 1607.61 1279.07 C 1528.8 1243.19 1545.47 1174.85 1629.71 1165.39 z" fill="rgb(44,23,21)" transform="translate(0,0)"></path>
<path d="M 1266.84 621.389 C 1296.34 618.456 1325.31 632.855 1330.72 664.352 C 1340.04 718.571 1276.71 727.43 1237.63 729.843 C 1234.85 730.014 1232.63 731.356 1230.95 733.496 C 1230.79 736.145 1231.09 737.421 1232.76 739.568 C 1235.6 743.205 1240.49 746.104 1244.61 748.003 C 1276.59 762.733 1316.69 725.838 1324.68 727.353 C 1333.99 736.774 1317.31 768.153 1311.29 777.015 C 1290.76 803.28 1267.15 808.734 1235.11 808.843 C 1233.74 805.378 1232.33 801.962 1230.82 798.552 C 1220.46 775.079 1191.59 760.703 1167.24 772.345 C 1155.33 738.762 1159.57 696.808 1182.77 668.944 C 1203.78 643.701 1233.93 625.079 1266.84 621.389 z" fill="rgb(44,23,21)" transform="translate(0,0)"></path>
<path d="M 1263.65 646.003 C 1281.92 645.888 1276.61 669.161 1272.61 680.717 C 1267.58 695.258 1251.81 703.065 1238.2 708.424 C 1236.3 708.758 1226.71 710.583 1226.57 707.081 C 1226.16 696.819 1231.64 682.065 1236.06 673.003 C 1242.3 660.221 1250.03 650.558 1263.65 646.003 z" fill="rgb(248,248,245)" transform="translate(0,0)"></path>
<path d="M 972.711 1208.42 C 977.17 1208.17 982.75 1208.49 987.129 1209.14 C 1017.63 1214.89 1046.94 1225.92 1040.77 1263.42 C 1034.16 1303.6 973.239 1306.56 976.457 1263.53 C 977.06 1255.46 986.777 1246.1 989.65 1237.7 C 988.392 1236.18 988.421 1235.59 986.395 1235.01 C 936.319 1220.67 904.187 1317.47 958.026 1330.97 C 984.902 1337.7 1005.19 1327.21 1027.44 1313.88 C 1032.26 1311.33 1034.49 1309.73 1039.36 1312.97 C 1040.56 1314.91 1041.48 1316.5 1041.65 1318.84 C 1043.08 1338.45 1035.18 1353.77 1024.24 1369.19 C 997.369 1407.03 935.032 1411.76 899.303 1384.94 C 882.548 1371.3 872.577 1347 871.16 1326.05 C 866.985 1264.35 911.644 1213.4 972.711 1208.42 z" fill="rgb(44,23,21)" transform="translate(0,0)"></path>
<path d="M 1099.89 908.303 C 1111.47 908.455 1122.55 910.784 1131.54 918.557 C 1139.49 925.43 1143.67 935.193 1144 945.619 C 1144.39 958.225 1139.13 971.093 1130.42 980.144 C 1124.14 986.679 1116.25 991.404 1107.23 992.844 C 1080.3 997.142 1071.91 973.76 1057.87 975.109 C 1054.48 975.435 1052.25 977.574 1050.5 980.283 C 1036.6 1001.8 1035.59 1048.66 1046.01 1071.99 C 1049.48 1079.76 1058.07 1088.24 1059.17 1096.6 C 1059.41 1098.41 1058.93 1100.44 1057.61 1101.74 C 1050.59 1108.61 980.456 1109.18 966.082 1109.3 C 961.073 1109.36 958.956 1110.3 955.789 1106.3 C 955.362 1100.17 961.346 1094.67 965.067 1089.54 C 985.41 1061.49 998.086 1022.1 994.67 987.44 C 992.946 969.949 986.681 962.47 974.07 952.646 C 983.374 947.584 993.649 943.598 1003.08 938.628 C 1014.23 932.757 1038.96 904.704 1051.55 911.955 C 1056.56 920.293 1049.58 948.004 1047.69 959.615 C 1060.28 937.674 1071.88 912.237 1099.89 908.303 z" fill="rgb(44,23,21)" transform="translate(0,0)"></path>
<path d="M 1422.95 1100.79 C 1424.87 1101.04 1425.2 1101.27 1427.06 1101.89 C 1432.81 1109.23 1425.07 1144.58 1423.5 1154.86 C 1415.64 1206.25 1403.47 1254.48 1410.46 1306.89 C 1412.78 1324.31 1427.26 1350.16 1426.32 1362.59 C 1420.93 1369 1353.82 1370.65 1339.72 1371.92 L 1337.2 1371.99 C 1331.2 1372.17 1324.92 1373.31 1320.6 1369.23 C 1320.04 1365.44 1340.17 1332.87 1343.72 1325.5 C 1363.71 1283.98 1368.85 1214.32 1353.21 1171.19 C 1359.18 1145.32 1378.22 1132.2 1398.15 1116.64 C 1405.93 1110.57 1414.07 1105.12 1422.95 1100.79 z" fill="rgb(44,23,21)" transform="translate(0,0)"></path>
<path d="M 1807.48 1103.7 C 1821.2 1108.08 1812.81 1132.04 1813.96 1144.7 C 1815.9 1165.98 1841.06 1157.26 1842.9 1173.52 C 1844.06 1183.73 1814.48 1178.34 1810.24 1185.83 C 1798.78 1206.55 1801.44 1237.63 1798.89 1260.73 C 1797.35 1274.61 1799.83 1284.83 1808.75 1294.29 C 1821.16 1298.8 1829.93 1296.09 1840.94 1289.27 L 1842.44 1290.21 C 1845.51 1300.06 1822 1327.51 1813.88 1333.11 C 1809 1336.48 1800.11 1340.21 1794.52 1342.38 C 1783.21 1345.54 1765.52 1347.35 1755.07 1342.26 C 1718.92 1324.66 1733.63 1282.9 1739.2 1254.53 C 1741.71 1241.58 1743.63 1228.51 1744.94 1215.38 C 1745.58 1208.89 1746.86 1199.26 1744.09 1193.33 C 1740.09 1184.77 1730.99 1186.99 1722.67 1183.96 C 1715.35 1174.06 1737.27 1166.94 1744.14 1162.67 C 1762.72 1151.11 1779.75 1138.93 1791.37 1119.92 C 1795.72 1112.8 1800.02 1107.55 1807.48 1103.7 z" fill="rgb(44,23,21)" transform="translate(0,0)"></path>
<path d="M 1235.74 851.74 C 1236.48 852.251 1237.23 852.737 1237.88 853.367 C 1244.18 859.514 1239.77 882.403 1240.11 891.17 C 1241.1 916.57 1260.14 905.21 1269.21 916.38 C 1270.75 918.267 1270.99 919.979 1270.76 922.301 C 1269.52 935.12 1243.44 927.055 1235.5 935.145 C 1229.78 940.976 1220.44 1012.4 1221.46 1024.45 C 1221.97 1030.54 1224.58 1036.34 1229.45 1040.16 C 1242.74 1050.6 1255.4 1037.81 1268.53 1036.57 L 1270.2 1038.26 C 1269.93 1040.46 1269.66 1041.11 1268.72 1043.18 C 1258.26 1066.37 1241.46 1079.54 1218.38 1088.62 C 1206.22 1092.61 1191.62 1093.7 1179.38 1089.59 C 1118.37 1069.09 1186.63 966.749 1170.3 940.899 C 1166.27 934.526 1158.12 938.193 1152.02 936.07 C 1149.45 935.177 1148.69 933.687 1147.64 931.379 C 1148.8 921.993 1167.19 915.344 1175.58 910.746 C 1186.65 904.745 1197.03 897.545 1206.53 889.276 C 1220.21 877.306 1227.1 867.246 1235.74 851.74 z" fill="rgb(44,23,21)" transform="translate(0,0)"></path>
<path d="M 1517.8 1162.94 L 1521.53 1163.19 C 1528.76 1168.3 1525.56 1182.85 1524.74 1191.08 C 1520.44 1233.98 1504.95 1277.94 1518.74 1320.59 C 1522.2 1331.3 1528 1338.42 1532.06 1348.6 C 1533.53 1352.28 1533.44 1354.59 1531.8 1357.9 C 1522.77 1363 1456.71 1364.69 1442.24 1365.1 C 1441.52 1365.13 1440.8 1365.14 1440.07 1365.15 C 1435.44 1365.18 1434.5 1365.08 1431.58 1362.18 C 1431.25 1360.21 1431.22 1358.19 1432.36 1356.49 C 1442.36 1341.02 1454.03 1324.58 1459.19 1306.51 C 1466.53 1280.84 1468 1245.52 1459.34 1219.92 C 1458.34 1216.96 1449.56 1210.81 1447.04 1205.92 L 1447.76 1203.96 C 1451.18 1200.78 1470.41 1193.83 1478.12 1189 C 1491.95 1180.34 1503.31 1168.29 1517.8 1162.94 z" fill="rgb(44,23,21)" transform="translate(0,0)"></path>
<path d="M 1123.6 1194.85 C 1125.99 1195.11 1132.25 1196.05 1132.58 1199.31 C 1135 1225.43 1121.87 1251.67 1119.94 1278.3 C 1118.61 1296.54 1116.6 1311.92 1118.88 1330.5 C 1119.72 1337.72 1121.47 1344.8 1124.09 1351.58 C 1127.25 1359.64 1138.62 1377.32 1136.77 1384.13 C 1130.35 1390.43 1061.58 1391.49 1046.76 1392.95 C 1043.18 1393.08 1042.25 1393.33 1038.86 1391.98 C 1032.19 1383.88 1048.1 1368.83 1052.14 1360.56 C 1066.17 1331.88 1079.07 1297.13 1072.52 1264.8 C 1070.03 1252.49 1061.23 1245.02 1053.08 1236.3 C 1064.1 1230.79 1077.04 1225.85 1087.32 1219.04 C 1100.89 1210.06 1108.49 1201.79 1123.6 1194.85 z" fill="rgb(44,23,21)" transform="translate(0,0)"></path>
<path d="M 1109.37 1117.2 C 1160.74 1113.61 1156 1179.46 1112.36 1191.03 C 1092.8 1191.35 1076.69 1187.52 1073.29 1165.49 C 1069.29 1139.54 1085.15 1121.65 1109.37 1117.2 z" fill="rgb(44,23,21)" transform="translate(0,0)"></path>
<path d="M 1501.98 1082.24 C 1506.46 1081.89 1509.71 1081.86 1514.01 1082.63 C 1552.96 1089.67 1540.64 1147.64 1508.49 1154.83 C 1506.43 1155.29 1504.4 1155.82 1502.37 1156.27 C 1493.54 1156.29 1486.84 1156.27 1478.96 1151.21 C 1471.71 1146.47 1466.69 1139 1465.05 1130.5 C 1460.36 1105.42 1478.23 1086.61 1501.98 1082.24 z" fill="rgb(44,23,21)" transform="translate(0,0)"></path>
<metadata><recraft-signature>{"signed_by": "recraft", "signature_b64": "D+1Bt+L5/qzM+FpXzvzcMsh5ju5FYTzDtNKyPHtCKS94NV+l7JlwnOVoThKaEpJYm1hLXFIwWfgAbj0nsNexBA==", "signing_algo": "Ed25519", "generation_timestamp": 1772546250, "identifier": "b51fa158-b877-454a-907f-7611fa94b4e9"}</recraft-signature></metadata></svg>