<svg xmlns="http://www.w3.org/2000/svg" height="1024" preserveAspectRatio="none" style="display: block;" version="1.1" viewBox="0 0 2048 2048" width="1024">
<path d="M 0 0 L 2048 0 L 2048 2048 L 0 2048 L 0 0 z" fill="rgb(250,249,247)" transform="translate(0,0)"></path>
<path d="M 1020.03 396.965 C 1065.54 422.619 1113.71 452.5 1159.55 476.364 C 1163.58 467.719 1175.72 442.492 1186.82 443.269 C 1190.86 447.492 1189.16 486.338 1189.18 494.508 C 1203.77 504.116 1226.3 516.228 1242.09 525.397 C 1279.74 546.986 1317.25 568.818 1354.62 590.893 C 1372.93 601.535 1392.93 612.062 1410.66 623.349 C 1412.26 772.966 1410.67 924.967 1410.81 1074.82 C 1402.07 1079.46 1391.08 1086.48 1382.13 1091.66 C 1359.75 1104.53 1337.44 1117.51 1315.2 1130.62 L 1177.13 1210.31 C 1168.17 1215.79 1155.57 1223.63 1146.3 1228.38 C 1142.71 1230.4 1137.71 1233.46 1134.04 1234.96 C 1102.22 1252.97 1071.08 1272.37 1039.14 1290.22 C 1034.93 1292.57 1030.77 1295.21 1026.41 1297.27 C 993.956 1280.1 954.853 1256.9 922.749 1238.33 C 911.538 1232.85 894.033 1222.1 882.605 1215.5 C 876.116 1210.95 860.706 1203.07 852.839 1198.55 C 828.522 1184.47 804.113 1170.55 779.613 1156.79 C 732.721 1130.05 681.664 1097.95 634.87 1072.94 C 634.136 1056.41 634.577 1036.11 634.537 1019.31 L 634.444 918.968 L 634.725 619.736 C 644.943 612.912 661.393 604.682 672.574 598.21 L 753.034 551.295 L 1020.03 396.965 z" fill="rgb(19,30,32)" transform="translate(0,0)"></path>
<path d="M 1161.11 479.467 C 1168.26 482.947 1173.29 486.035 1180.09 490.24 C 1180.09 513.324 1178.5 539.704 1177.73 563.063 C 1175.98 611.928 1174.57 660.803 1173.48 709.687 C 1171.89 828.111 1171.95 946.551 1173.68 1064.97 L 1175.09 1153.25 C 1175.22 1166.15 1174.97 1199.8 1177.13 1210.31 C 1168.17 1215.79 1155.57 1223.63 1146.3 1228.38 C 1142.71 1230.4 1137.71 1233.46 1134.04 1234.96 L 1133.92 1233.64 C 1131.37 1235.15 1131.46 1235.39 1128.57 1235.48 C 1127.58 1231.29 1129.9 1196.64 1130.04 1187.06 C 1130.92 1127.62 1134 1063.19 1131.32 1003.95 C 1130.72 990.65 1092.59 998.487 1082.14 989.959 C 1078.4 986.9 1071.87 984.05 1070.28 975.347 C 1067.98 962.771 1068.76 945.87 1068.97 933.104 C 1070.97 809.107 1097.08 688.717 1129.55 569.651 C 1136.69 543.47 1147.98 502.567 1161.11 479.467 z" fill="rgb(204,162,79)" transform="translate(0,0)"></path>
<path d="M 1133.92 1233.64 C 1136.79 1229.56 1141.48 1227.91 1146.3 1228.38 C 1142.71 1230.4 1137.71 1233.46 1134.04 1234.96 L 1133.92 1233.64 z" fill="rgb(170,142,69)" transform="translate(0,0)"></path>
<path d="M 882.605 1215.5 L 887.566 999.318 L 888.383 942.986 C 888.577 931.619 889.46 917.947 888.056 906.816 C 886.068 891.053 868.766 879.465 857.433 870.368 C 840.235 856.562 829.007 838.406 829.832 815.781 C 831.672 764.447 835.785 712.801 839.484 661.539 C 842.75 616.291 845.554 570.962 849.553 525.768 C 849.859 522.306 850.41 519.323 852.212 516.385 C 856.191 515.579 854.438 515.254 857.723 516.871 C 860.217 521.572 858.918 532.34 858.946 538.183 C 859.048 551.921 859.262 565.658 859.587 579.392 C 860.906 629.082 861.82 678.782 862.33 728.487 C 862.485 746.452 861.711 774.137 864.2 792.096 C 865.073 798.399 877.37 803.452 882.487 799.425 C 884.957 797.481 889.073 794.498 889.737 790.295 C 891.762 772.69 891.595 753.978 891.944 736.187 C 893.261 669.044 896.108 601.965 897.699 534.831 C 897.841 528.858 897.589 520.457 899.901 515.078 L 903.484 514.301 C 908.576 522.164 907.86 539.692 908.244 549.56 L 910.259 595.245 C 912.728 641.141 914.836 687.056 916.582 732.986 C 917.189 750.968 916.649 774.668 919.37 792.449 C 921.094 803.718 946.817 802.135 945.916 787.852 C 946.526 769.711 946.281 751.8 946.35 733.722 L 947.09 597.895 C 947.109 588.416 946.373 518.579 948.047 515.973 C 951.095 515.333 950.871 515.332 953.862 516.21 C 956.764 519.378 958.818 554.382 959.499 561.834 C 962.707 596.419 965.593 631.032 968.157 665.67 C 970.843 699.783 973.316 733.912 975.575 768.056 C 978.282 809.275 986.807 841.317 951.813 869.776 C 938.423 880.666 918.903 892.537 919.204 910.595 C 918.699 936.074 919.796 961.934 920.078 987.437 C 920.228 1033.57 920.888 1079.7 922.057 1125.81 C 923.03 1159.8 924.433 1193.76 925.153 1227.74 C 925.228 1231.27 925.789 1236.26 922.749 1238.33 C 911.538 1232.85 894.033 1222.1 882.605 1215.5 z" fill="rgb(204,162,79)" transform="translate(0,0)"></path>
<path d="M 1203.16 619.182 C 1212.5 623.135 1231.46 634.343 1241.03 639.666 C 1263.98 652.238 1286.75 665.128 1309.35 678.332 C 1311.42 789.478 1310.14 905.215 1309.93 1016.62 L 1208.69 1074.77 C 1205.87 1076.41 1207.05 1076.16 1203.98 1076.23 C 1202.98 1069.64 1203.37 1056.95 1203.37 1049.74 L 1203.32 1003.5 C 1212.12 989.19 1222.68 975.618 1232.31 961.723 C 1255.37 928.463 1278.87 895.517 1302.82 862.895 L 1234.42 742.456 C 1230.41 735.361 1204.68 691.559 1204.11 686.292 C 1202.51 671.573 1203.24 636.3 1203.16 619.182 z" fill="rgb(204,162,79)" transform="translate(0,0)"></path>
<path d="M 819.393 630.963 L 820.682 631.954 C 808.456 715.463 777.899 786.915 742.47 862.335 L 857.849 1020.55 C 857.93 1033.05 859.862 1073.71 858.127 1083.41 L 856.577 1083.82 C 836.28 1072.97 816.258 1061.02 795.987 1050.14 C 775.856 1039.34 756.45 1029.13 736.607 1017.75 C 734.046 930.668 737.213 842.437 735.988 755.238 C 735.63 729.741 735.701 703.268 736.321 677.806 C 763.663 661.767 791.832 646.919 819.393 630.963 z" fill="rgb(204,162,79)" transform="translate(0,0)"></path>
<path d="M 1017.68 513.513 C 1038.68 523.501 1073.12 544.451 1094.46 556.479 C 1076.02 588.259 1047.64 628.621 1027.14 660.508 C 1016.56 675.975 1006.35 692.561 995.706 708.298 C 994.248 655.786 995.056 601.081 995.174 548.402 L 1017.68 513.513 z" fill="rgb(204,162,79)" transform="translate(0,0)"></path>
<path d="M 1023.27 1077.99 C 1030.81 1081.42 1044.28 1089.63 1051.89 1093.9 C 1072.06 1105.02 1092.01 1116.54 1111.72 1128.47 L 1025.03 1179.95 C 994.522 1164.24 965.561 1145.83 935.258 1130.52 C 964.201 1112.33 994.596 1097.32 1023.27 1077.99 z" fill="rgb(204,162,79)" transform="translate(0,0)"></path>
<path d="M 1218.74 1393.49 C 1238.57 1393.32 1270.35 1391.42 1288.99 1394.51 C 1329.16 1401.17 1335.7 1441.16 1288.78 1450.69 C 1321.57 1465.27 1309 1471.93 1328.07 1492.03 L 1310.25 1492.59 C 1307.52 1492.23 1301.92 1471.92 1295.92 1466.68 C 1278.75 1451.68 1241.09 1455.32 1219.96 1455.41 L 1220 1491.96 L 1205.94 1492.04 L 1206.08 1393.7 L 1218.74 1393.49 z" fill="rgb(19,30,32)" transform="translate(0,0)"></path>
<path d="M 1220.09 1405.05 C 1239.14 1405.01 1304.83 1397.69 1306.35 1422.51 C 1306.69 1428.02 1303.07 1432.51 1299.36 1436.13 C 1286.3 1444.84 1275.94 1442.93 1260.85 1443.3 C 1247.3 1443.62 1233.67 1443.46 1220.12 1443.37 C 1220.03 1430.59 1220.02 1417.82 1220.09 1405.05 z" fill="rgb(250,249,247)" transform="translate(0,0)"></path>
<path d="M 950.745 1393.49 C 971.897 1393.31 1005.33 1391.44 1025.11 1394.54 C 1073.65 1402.14 1063.62 1453.78 1013.88 1457.06 C 994.246 1457.46 973.758 1457.28 954.056 1457.34 L 953.644 1492 L 940.586 1492.34 L 939.999 1429.45 C 939.935 1420.5 939.354 1402.49 940.485 1394.63 C 943.35 1393.08 947.331 1393.49 950.745 1393.49 z" fill="rgb(19,30,32)" transform="translate(0,0)"></path>
<path d="M 954.103 1405.95 C 969.331 1405.94 984.379 1405.92 999.777 1405.87 C 1013.81 1405.83 1039.03 1403.09 1041.62 1422.57 C 1042.61 1430.09 1040.09 1433.66 1035.09 1438.67 L 1033.9 1439.33 C 1029.67 1441.73 1022.7 1444.6 1018 1444.76 C 997.44 1445.46 974.66 1444.98 954.135 1444.93 C 954.056 1431.94 954.045 1418.94 954.103 1405.95 z" fill="rgb(250,249,247)" transform="translate(0,0)"></path>
<path d="M 580.694 1539.34 C 600.999 1539.24 667.697 1534.71 683.624 1547.26 C 711.069 1568.88 693.123 1596.86 659.571 1601.59 C 646.108 1603.07 609.703 1602.14 594.335 1602.21 C 594.086 1614.11 594.206 1626.49 594.154 1638.43 L 580.886 1638.39 C 580.54 1605.38 580.476 1572.36 580.694 1539.34 z" fill="rgb(19,30,32)" transform="translate(0,0)"></path>
<path d="M 594.973 1551.18 C 613.686 1551.19 681.905 1543.27 682.004 1570.5 C 682.025 1576.29 678.588 1580.04 674.594 1583.69 C 662.288 1590.89 654.582 1591 640.501 1590.64 C 625.351 1590.26 610.051 1590.36 594.885 1590.24 C 594.8 1577.57 594.663 1563.8 594.973 1551.18 z" fill="rgb(250,249,247)" transform="translate(0,0)"></path>
<path d="M 1104.01 1393.96 L 1122.62 1393.76 C 1140.15 1423.27 1166.97 1462.05 1186.17 1491.88 L 1171.23 1491.95 C 1165.84 1485.82 1159.7 1475.8 1155.08 1468.75 L 1127.25 1468.69 L 1073.33 1468.45 C 1068.41 1476.08 1063.62 1483.79 1058.97 1491.59 L 1043.82 1491.88 C 1063.31 1460.13 1085.37 1425.85 1104.01 1393.96 z" fill="rgb(19,30,32)" transform="translate(0,0)"></path>
<path d="M 1112.61 1404.58 C 1117.76 1409.25 1141.94 1448.39 1146.58 1456.09 C 1136.18 1456.22 1125.78 1456.22 1115.39 1456.07 L 1081.07 1456.04 C 1089.74 1440.45 1102.89 1419.91 1112.61 1404.58 z" fill="rgb(250,249,247)" transform="translate(0,0)"></path>
<path d="M 1107.34 1539.44 L 1109.44 1539.41 C 1113.22 1541.4 1167.76 1625.53 1175.95 1638.14 L 1159.91 1638.01 C 1155.25 1632.6 1148.93 1622.14 1143.34 1615.12 C 1129.83 1614.9 1116.04 1614.99 1102.5 1614.94 L 1062.16 1614.99 C 1057.63 1622.62 1052.23 1630.41 1047.28 1637.83 L 1032.62 1637.73 C 1051.68 1605.7 1074.03 1571.87 1094.17 1540.14 L 1107.34 1539.44 z" fill="rgb(19,30,32)" transform="translate(0,0)"></path>
<path d="M 1101.3 1551.56 C 1107.75 1557.47 1130.47 1593.8 1136.03 1602.62 C 1125.52 1602.81 1115.01 1602.86 1104.5 1602.76 C 1092.52 1602.73 1081.42 1602.81 1069.46 1602.11 C 1080.66 1585.82 1090.78 1568.32 1101.3 1551.56 z" fill="rgb(250,249,247)" transform="translate(0,0)"></path>
<path d="M 1404.73 1538.42 C 1431.51 1535.85 1465.88 1539.92 1475.96 1568.99 C 1472.23 1569.15 1468.07 1569.65 1464.37 1569.12 C 1461.07 1568.64 1460.64 1566.86 1458.88 1564.26 C 1457.86 1562.74 1456.9 1561.09 1455.61 1559.77 C 1448.56 1552.56 1429.6 1551.34 1419.99 1551.12 C 1407.64 1550.84 1382.55 1550.77 1373.16 1560.48 C 1370.86 1562.85 1369.52 1566.24 1369.89 1569.57 C 1372.09 1589.9 1447.39 1572.45 1470.07 1591.05 C 1475.09 1595.17 1477.39 1600.74 1477.99 1607.1 C 1478.61 1613.59 1476.26 1619.18 1472.04 1624.04 C 1460.36 1637.47 1436.73 1639.78 1420.24 1640.86 C 1396.96 1641.09 1364.2 1638.4 1352.99 1612.41 C 1351.86 1609.78 1352.61 1608.4 1353.7 1606.06 C 1356.55 1604.22 1363.05 1604.13 1366.76 1603.8 C 1368.17 1608.77 1369.78 1613.42 1373.65 1617.05 C 1385.63 1628.28 1405.85 1628.1 1421.22 1627.5 C 1433.52 1627.02 1452.97 1625.52 1461.54 1615.51 C 1463.46 1613.27 1464.54 1610.29 1464.06 1607.31 C 1460.38 1584.72 1381.71 1600.55 1363.17 1584.77 C 1359.13 1581.34 1355.79 1574.3 1355.38 1569.05 C 1354.97 1563.85 1357.46 1558.98 1360.8 1555.16 C 1371.84 1542.55 1388.97 1539.75 1404.73 1538.42 z" fill="rgb(19,30,32)" transform="translate(0,0)"></path>
<path d="M 485.176 1538.4 C 511.677 1535.88 546.013 1540.2 555.343 1569.35 C 551.828 1569.68 547.56 1570.5 544.083 1569.99 C 540.418 1569.46 539.546 1563.49 537.068 1560.87 C 530.354 1553.77 515.421 1552.16 506.1 1551.44 C 492.459 1550.4 465.675 1549.43 454.756 1559.69 C 452.285 1562.01 450.91 1565.76 451.312 1569.14 C 453.741 1589.54 528.585 1571.8 551.291 1591.28 C 556.3 1595.57 557.983 1600.39 558.503 1606.84 C 559.038 1613.48 557.785 1618.63 553.179 1623.57 C 541.023 1636.59 520.332 1639.39 503.5 1640.24 C 475.683 1641.83 440.776 1638.21 434.771 1605.24 L 449.567 1604.92 C 453.334 1628.79 485.091 1627.62 503.82 1627.41 C 515.822 1627.27 533.418 1624.88 542.084 1615.85 C 543.913 1613.94 545.713 1609.84 545.159 1606.87 C 534.373 1581.61 466.118 1602.52 444.621 1585.4 C 440.653 1582.24 438.623 1577.23 438.138 1573.52 C 437.222 1566.5 438.144 1559.59 442.569 1554.25 C 452.251 1542.57 471.131 1539.88 485.176 1538.4 z" fill="rgb(19,30,32)" transform="translate(0,0)"></path>
<path d="M 730.745 1539.5 C 760.415 1539.29 790.087 1539.3 819.757 1539.53 L 821.012 1540.88 C 821.22 1545.28 821.364 1546.11 820.5 1550.34 C 815.878 1551.56 796.977 1551.12 791.215 1551.12 C 770.458 1550.91 749.699 1551.04 728.947 1551.5 L 728.913 1580.12 L 804.585 1580.02 L 804.66 1591.74 L 745.25 1591.75 L 729.31 1591.69 L 729.2 1626.05 L 823.011 1625.83 L 822.941 1638.18 C 787.3 1637.76 751.139 1638.05 715.459 1638.03 C 714.527 1606.55 715.311 1571.4 715.328 1539.64 L 730.745 1539.5 z" fill="rgb(19,30,32)" transform="translate(0,0)"></path>
<path d="M 747.151 1393.21 C 758.44 1393.25 850.314 1392.88 853.071 1394.54 C 853.467 1399.07 853.716 1400.05 852.897 1404.42 C 849.123 1405.82 771.603 1405.28 761.081 1405.32 L 761.081 1434.92 C 776.12 1434.99 822.815 1433.66 835.227 1435.71 C 837.801 1437.51 836.902 1436.31 837.695 1439.66 C 837.114 1442.29 835.601 1446.56 832.107 1446.53 C 817.508 1446.4 802.876 1446.25 788.25 1446.21 L 761.168 1446.16 L 761.155 1480.89 L 854.731 1480.97 L 854.571 1492.63 L 747.091 1492.44 L 747.151 1393.21 z" fill="rgb(19,30,32)" transform="translate(0,0)"></path>
<path d="M 902.037 1537.4 C 933.965 1534.76 962.449 1542.4 978.491 1571.9 C 973.403 1571.92 968.78 1571.61 963.724 1571.29 C 951.706 1554.33 942.983 1555.38 922.968 1550.82 C 884.985 1542.17 825.714 1573.08 865.63 1614.3 C 878.454 1627.54 906.781 1628.2 926.146 1626.61 C 944.054 1623.29 955.69 1620.01 966.803 1605.21 L 980.384 1605.06 C 970.105 1628.27 954.546 1633.75 928.839 1638.84 C 883.704 1647.77 811.28 1616.98 849.533 1561.08 C 859.704 1546.22 883.476 1539.27 902.037 1537.4 z" fill="rgb(19,30,32)" transform="translate(0,0)"></path>
<path d="M 590.588 1393.76 L 603.957 1393.87 L 603.961 1434.87 L 701.982 1435.01 L 701.968 1393.94 L 715.959 1393.93 L 716.03 1461.21 C 716.03 1467.4 716.369 1487.1 715.583 1491.7 L 713.249 1492.25 C 709.674 1492.36 705.464 1492.99 702.624 1491.2 C 701.482 1484.25 702.219 1455.5 702.26 1446.94 L 604.028 1446.98 L 604.128 1492.34 L 590.239 1492.2 C 590.151 1459.39 590.267 1426.57 590.588 1393.76 z" fill="rgb(19,30,32)" transform="translate(0,0)"></path>
<path d="M 1487.22 1539.31 C 1527.88 1539.2 1568.54 1539.37 1609.2 1539.83 L 1609.21 1552.64 C 1591.42 1552.15 1573.63 1552.04 1555.84 1552.32 L 1555.78 1584.5 L 1555.82 1637.45 C 1551.08 1637.53 1546.02 1637.38 1541.24 1637.32 L 1541.48 1552.04 L 1487.12 1551.9 L 1487.22 1539.31 z" fill="rgb(19,30,32)" transform="translate(0,0)"></path>
<path d="M 1359.74 1393.49 L 1418.03 1393.36 C 1426.19 1393.34 1443.33 1392.78 1450.72 1394.02 C 1452.31 1396.6 1452.38 1401.69 1451.48 1404.55 C 1448.41 1406.07 1406.22 1405.75 1398.98 1405.82 L 1399.04 1468 L 1399.03 1492.14 L 1384.3 1492.31 C 1385.79 1468.17 1384.56 1430.56 1384.52 1405.7 C 1366.08 1405.65 1347.63 1405.71 1329.19 1405.91 L 1329.41 1393.73 L 1359.74 1393.49 z" fill="rgb(19,30,32)" transform="translate(0,0)"></path>
<path d="M 448.981 1393.33 C 489.566 1392.84 530.729 1393.18 571.356 1393.17 L 571.407 1405.26 L 517.87 1405.34 L 517.952 1439.69 L 517.934 1492.04 L 503.858 1492.04 C 503.953 1463.15 503.786 1434.25 503.356 1405.37 C 493.146 1405.34 457.784 1406.04 449.735 1404.74 C 448.315 1401.12 448.844 1397.28 448.981 1393.33 z" fill="rgb(19,30,32)" transform="translate(0,0)"></path>
<path d="M 1581.1 1393.58 L 1599.32 1393.08 C 1591.61 1401.36 1579.18 1412.51 1570.71 1420.75 L 1538.11 1453.9 C 1537.9 1466.73 1538.07 1479.96 1538.09 1492.82 L 1523.61 1492.79 C 1523.68 1480.11 1523.61 1467.42 1523.42 1454.74 C 1511.3 1441.11 1498.28 1429.24 1485.28 1416.59 C 1480.69 1412.13 1467.77 1399.72 1464.31 1394.57 L 1466.24 1393.48 L 1481.21 1393.72 C 1497.83 1409.98 1514.57 1426.13 1531.43 1442.14 C 1545.16 1428.44 1567.06 1405.42 1581.1 1393.58 z" fill="rgb(19,30,32)" transform="translate(0,0)"></path>
<path d="M 1195.19 1539.71 C 1199.78 1539.72 1204.37 1539.71 1208.96 1539.67 L 1209.04 1626.06 L 1296.84 1626.21 C 1296.89 1630.19 1296.88 1634.18 1296.83 1638.16 L 1195.13 1638.09 L 1195.19 1539.71 z" fill="rgb(19,30,32)" transform="translate(0,0)"></path>
<path d="M 1315.25 1539.9 C 1320.1 1539.71 1324.95 1539.73 1329.8 1539.67 C 1329.16 1573.12 1329.65 1604.3 1329.87 1637.72 C 1326.36 1638.49 1319.17 1638.16 1315.38 1638.13 C 1315.32 1605.51 1314.92 1572.45 1315.25 1539.9 z" fill="rgb(19,30,32)" transform="translate(0,0)"></path>
<path d="M 1003.12 1539.34 L 1016.83 1539.21 L 1016.85 1637.83 C 1012.26 1637.86 1007.68 1637.85 1003.1 1637.79 C 1002.81 1607.6 1002.08 1569.03 1003.12 1539.34 z" fill="rgb(19,30,32)" transform="translate(0,0)"></path>
<metadata><recraft-signature>{"signed_by": "recraft", "signature_b64": "fFYaBIs+LTLf/mtvVJ4kAjkUZgHU+/a6Xna8QD7HUGrC0doFu8Y1mOTp47vTP4IEbW/jg+Lo8OIEYZfySyfoCw==", "signing_algo": "Ed25519", "generation_timestamp": 1772546630, "identifier": "041f9754-8f9e-4ebb-bb93-c64e9eb7d818"}</recraft-signature></metadata></svg>