<svg xmlns="http://www.w3.org/2000/svg" height="1024" preserveAspectRatio="none" style="display: block;" version="1.1" viewBox="0 0 2048 2048" width="1024">
<path d="M 0 0 L 2048 0 L 2048 2048 L 0 2048 L 0 0 z" fill="rgb(24,24,24)" transform="translate(0,0)"></path>
<path d="M 1018.98 700.464 C 1072.21 698.575 1108.13 706.812 1148.88 742.875 C 1188.68 702.214 1253.3 690.251 1306.4 708.347 C 1340.51 720.262 1368.51 745.181 1384.31 777.667 C 1367.71 797.662 1350.96 821.11 1334.43 841.721 C 1328.8 829.445 1323.37 818.376 1316.69 806.645 C 1281.91 745.52 1221.54 722.225 1155.75 749.216 C 1157.04 750.625 1158.3 752.05 1159.56 753.489 C 1184.91 782.648 1194.52 811.45 1191.81 849.59 L 1251.79 870.486 C 1290.76 883.993 1326.38 894.989 1353.92 928.027 C 1374.84 952.795 1384.88 984.955 1381.78 1017.23 C 1374.02 1097.25 1299.35 1149.17 1222.32 1140.21 C 1163.85 1133.4 1126.59 1100.2 1090.98 1056.38 C 1104.19 1042.4 1130.77 1011.24 1142.25 995.759 C 1152.34 1013.17 1167.54 1031.71 1181.27 1046.5 C 1212.66 1080.29 1258.17 1103.27 1305 1092.57 C 1323.96 1088.23 1344.58 1078.44 1355.28 1061.71 C 1361.07 978.294 1282.67 959.138 1219.62 934.688 C 1203.27 928.349 1187.51 920.765 1172.53 911.662 C 1138.72 967.443 1095.37 999.441 1027.76 989.72 C 1009.68 986.497 996.115 981.639 979.979 972.47 C 929.411 944.329 899.292 889.84 902.361 832.052 C 903.508 810.428 910.802 794.645 904.453 773.129 C 896.321 745.57 881.308 731.732 857.167 718.026 L 856.944 958.651 L 856.755 1023.83 C 856.641 1066.64 853.24 1093.89 883.92 1127.65 C 915.564 1096.07 909.473 1061.6 909.51 1020.46 C 909.273 982.772 909.481 945.078 910.134 907.391 C 924.129 931.472 962.615 974.022 984.384 992.026 C 983.834 1059.16 976.59 1084.31 1021.27 1137.27 C 995.444 1138.64 961.867 1137.74 935.411 1137.73 C 871.277 1137.36 807.141 1137.45 743.008 1138.02 C 748.144 1133.96 753.849 1129.56 758.444 1124.94 C 771.316 1112.03 779.998 1095.54 783.357 1077.63 C 786.001 1063.77 785.219 1044.69 785.176 1030.22 L 785.051 970.997 L 784.96 736.334 C 723.585 768.177 691.76 804.028 665.027 866.406 L 665.026 700.796 L 885.352 700.923 C 929.893 701.197 974.437 701.044 1018.98 700.464 z" fill="rgb(237,193,139)" transform="translate(0,0)"></path>
<path d="M 1027.54 725.725 C 1034.14 725.501 1047.99 734.205 1053.96 737.567 C 1087.81 756.64 1110.1 787.608 1121.58 824.359 C 1126.53 840.227 1129.16 855.118 1136.89 870.115 C 1145.44 886.72 1152.56 894.732 1166.04 907.183 C 1152.11 935.716 1134.37 952.354 1105.57 964.376 C 1006.85 993.244 960.135 906.61 973.077 820.036 C 979.606 776.366 992.685 752.835 1027.54 725.725 z" fill="rgb(24,24,24)" transform="translate(0,0)"></path>
<path d="M 1153.54 902.877 C 1153.7 902.824 1153.85 902.77 1154.01 902.716 C 1154.27 902.864 1154.11 902.735 1154.47 903.247 C 1154.26 903.288 1154.05 903.329 1153.84 903.37 C 1153.59 903.186 1153.71 903.327 1153.54 902.877 z" fill="rgb(36,24,15)" transform="translate(0,0)"></path>
<path d="M 846.641 715.105 L 848.94 715.33 C 852.333 720.672 850.489 806.857 850.415 819 L 850.002 982.564 C 849.962 994.328 849.989 1006.59 849.871 1018.3 C 849.381 1066.84 845.957 1090.75 876.58 1130.66 L 796.289 1130.8 C 785.563 1130.87 774.837 1130.76 764.115 1130.49 C 794.993 1093.38 792.151 1071.61 792.016 1025.5 L 791.93 962.546 C 792.248 885.972 792.168 809.396 791.69 732.823 C 811.45 725.007 826.204 720.338 846.641 715.105 z" fill="rgb(24,24,24)" transform="translate(0,0)"></path>
<path d="M 1089.66 978.63 C 1068.54 984.645 1051.73 987.44 1029.56 983.57 C 909.426 962.607 862.555 802.214 965.457 729.024 C 985.94 714.455 996.566 718.64 1019.66 722.869 C 971.087 762.177 959.661 810.637 965.716 871.473 C 972.382 938.454 1019.19 985.394 1088.63 976.498 L 1089.66 978.63 z" fill="rgb(24,24,24)" transform="translate(0,0)"></path>
<path d="M 1191.52 856.589 C 1213.57 864.201 1235.54 872.045 1257.42 880.121 C 1275.66 886.824 1291.42 892.095 1308.81 901.116 C 1363.15 929.299 1388.9 988.259 1367.93 1046.78 C 1367.29 1048.54 1366.63 1050.29 1365.94 1052.02 C 1365.52 1052.76 1364 1056.86 1362.8 1056.44 C 1362.14 1055.55 1362.5 1051.31 1362.5 1049.96 C 1358.15 947.597 1241.41 949.558 1175.94 904.66 C 1184.57 885.446 1187.52 877.784 1191.52 856.589 z" fill="rgb(24,24,24)" transform="translate(0,0)"></path>
<path d="M 1362.5 1049.96 L 1365.94 1052.02 C 1365.52 1052.76 1364 1056.86 1362.8 1056.44 C 1362.14 1055.55 1362.5 1051.31 1362.5 1049.96 z" fill="rgb(36,24,15)" transform="translate(0,0)"></path>
<path d="M 916.249 931.569 C 921.035 934.612 945.995 964.185 952.161 970.695 C 960.257 979.241 968.59 987.524 977.567 995.952 C 979.927 1051.36 967.83 1082.17 1006.35 1130.67 L 978.927 1130.74 C 951.741 1130.81 917.525 1129.25 891.313 1130.9 C 903.682 1115.48 915.626 1098.01 915.699 1077.56 C 915.872 1029.82 918.376 979.185 916.249 931.569 z" fill="rgb(24,24,24)" transform="translate(0,0)"></path>
<path d="M 1141.9 1008.67 C 1144 1010 1157.41 1029.39 1160.04 1032.73 C 1207.81 1093.39 1278.67 1126.94 1349.22 1080.54 C 1338.13 1096.11 1325.55 1106.27 1309.51 1116.24 C 1285.11 1129.34 1261.12 1135.1 1233.42 1133.85 C 1171.82 1131.08 1139.79 1100.41 1100.44 1057.71 C 1108.28 1045.58 1131.57 1019.87 1141.9 1008.67 z" fill="rgb(24,24,24)" transform="translate(0,0)"></path>
<path d="M 1007.96 710.24 C 1048.26 701.978 1090.2 709.886 1124.73 732.26 C 1165.24 758.482 1190.54 802.99 1184.83 851.755 C 1183.04 867.054 1177.72 886.969 1170.29 900.555 C 1138.71 874.686 1137.86 851.8 1125.89 815.347 C 1114.17 779.63 1086.24 745.809 1052.72 728.653 C 1041.47 722.901 1020.56 714.443 1007.75 714.916 L 1007.96 710.24 z" fill="rgb(24,24,24)" transform="translate(0,0)"></path>
<path d="M 1170.08 733.925 C 1230.02 689.519 1324.37 700.983 1367.09 762.171 C 1370.23 766.667 1373.16 771.156 1376.01 775.83 C 1362.58 793.268 1348.85 810.72 1336.3 828.783 C 1314.34 786.299 1294.79 753.448 1246.06 736.599 C 1227.02 730.016 1192.36 729.049 1173.62 735.94 C 1171.42 736.306 1165.87 737.977 1169.08 734.598 L 1170.08 733.925 z" fill="rgb(24,24,24)" transform="translate(0,0)"></path>
<path d="M 1170.08 733.925 C 1171.48 734.55 1172.31 735.125 1173.62 735.94 C 1171.42 736.306 1165.87 737.977 1169.08 734.598 L 1170.08 733.925 z" fill="rgb(36,24,15)" transform="translate(0,0)"></path>
<path d="M 814.898 708.133 C 817.398 708.03 829.606 707.411 831.018 708.367 L 831.084 708.511 C 830.027 709.701 827.745 710.185 826.196 710.632 C 756.021 737 710.871 768.705 672.093 833.613 C 671.884 791.751 671.908 749.888 672.166 708.026 C 718.193 707.729 769.146 707.103 814.898 708.133 z" fill="rgb(24,24,24)" transform="translate(0,0)"></path>
<path d="M 814.898 708.133 C 817.398 708.03 829.606 707.411 831.018 708.367 L 831.084 708.511 C 830.027 709.701 827.745 710.185 826.196 710.632 C 821.737 707.879 820.905 709.601 814.898 708.133 z" fill="rgb(36,24,15)" transform="translate(0,0)"></path>
<path d="M 977.567 707.854 C 979.567 707.607 990.829 706.084 991.663 707.847 C 991.351 708.419 990.74 708.476 990.146 708.639 C 951.359 725.494 932.873 742.929 913.45 780.788 C 910.134 751.712 887.05 726.257 862.424 712.343 L 864.964 708.047 L 977.567 707.854 z" fill="rgb(24,24,24)" transform="translate(0,0)"></path>
<path d="M 977.567 707.854 C 979.567 707.607 990.829 706.084 991.663 707.847 C 991.351 708.419 990.74 708.476 990.146 708.639 C 985.717 707.993 982.084 708.179 977.567 707.854 z" fill="rgb(119,88,58)" transform="translate(0,0)"></path>
<path d="M 1088.63 976.498 C 1091.1 975.615 1093.95 974.888 1096.5 974.236 L 1097.58 974.989 L 1097.66 974.141 C 1101.56 974.993 1089.98 978.503 1089.66 978.63 L 1088.63 976.498 z" fill="rgb(119,88,58)" transform="translate(0,0)"></path>
<path d="M 862.424 712.343 C 854.879 707.517 856.244 708.061 864.964 708.047 L 862.424 712.343 z" fill="rgb(36,24,15)" transform="translate(0,0)"></path>
<path d="M 1007.75 714.916 C 1001.25 712.926 1002.79 712.941 1007.96 710.24 L 1007.75 714.916 z" fill="rgb(36,24,15)" transform="translate(0,0)"></path>
<path d="M 1078.06 1193.25 C 1101.33 1192.36 1144.74 1192.51 1167.75 1193.69 L 1167.15 1270.02 L 1122.62 1270 L 1031 1269.86 C 1030.54 1232.06 1034.44 1203.23 1078.06 1193.25 z" fill="rgb(237,193,139)" transform="translate(0,0)"></path>
<path d="M 885.932 1193.01 L 964.036 1192.89 C 980.599 1192.99 997.84 1196.64 1009.57 1209.26 C 1026.46 1227.43 1024.47 1248.8 1024.07 1271.32 C 998.706 1271.41 973.302 1271.5 947.965 1271.5 C 929.813 1271.51 913.93 1268.41 900.804 1254.41 C 883.623 1236.09 885.626 1215.79 885.932 1193.01 z" fill="rgb(237,193,139)" transform="translate(0,0)"></path>
<path d="M 1030.98 1277 C 1058.74 1276.97 1086.53 1276.8 1114.28 1276.81 C 1130.76 1276.81 1142.84 1281.19 1154.43 1293.2 C 1172.44 1311.89 1169.42 1331.01 1169.08 1354.8 L 1092.68 1354.96 C 1074.71 1354.85 1059.08 1352.55 1045.98 1338.67 C 1028.85 1320.54 1030.74 1299.73 1030.98 1277 z" fill="rgb(237,193,139)" transform="translate(0,0)"></path>
<metadata><recraft-signature>{"signed_by": "recraft", "signature_b64": "5skRQxWEyrCrXIhr7w75kbylitOQlS06qTDIcalhzv5CTJahe1KaVvoncaV3Fwn+KaVh6NHANVH7X9YvpFgsDQ==", "signing_algo": "Ed25519", "generation_timestamp": 1772546105, "identifier": "0d2dc347-4856-4ecb-9b69-84abe84940e2"}</recraft-signature></metadata></svg>