<svg xmlns="http://www.w3.org/2000/svg" height="1024" preserveAspectRatio="none" style="display: block;" version="1.1" viewBox="0 0 2048 2048" width="1024">
<path d="M 0 0 L 2048 0 L 2048 2048 L 0 2048 L 0 0 z" fill="rgb(255,255,255)" transform="translate(0,0)"></path>
<path d="M 1397.38 268.319 C 1400.89 253.551 1403.1 236.026 1408.12 222.062 C 1443.06 124.905 1550.12 80.8027 1647.83 104.072 C 1777.64 134.989 1893.25 292.77 1862.09 427.043 C 1838.62 528.172 1730.6 600.803 1628.56 574.754 C 1593.04 566.215 1567.17 549.326 1537.43 529.986 C 1563.87 562.66 1586.16 597.471 1609.56 632.138 C 1654.58 698.821 1694.41 767.333 1720.11 843.986 C 1727.66 866.515 1736.95 888.295 1744.29 910.896 C 1754.61 942.671 1762.97 975.125 1776.92 1005.55 C 1790.79 1033.38 1821.63 1065.02 1840.25 1090.83 C 1903.81 1178.11 1945.83 1281.74 1934.32 1391.14 C 1922.61 1502.45 1856.25 1602.16 1769.6 1670.52 C 1662.92 1754.68 1513.21 1795.03 1382.62 1747.8 C 1411.59 1772.54 1435.93 1793.42 1438.49 1834.89 C 1444.8 1937.32 1318.69 1953.69 1264.5 1884.11 C 1239.36 1852.36 1245.41 1792.88 1292.28 1791.81 C 1302.8 1791.54 1312.94 1795.71 1320.22 1803.29 C 1328.17 1811.62 1332.43 1822.8 1332.05 1834.31 C 1331.61 1845.26 1327.81 1857.16 1314.94 1856.67 C 1303.93 1849.02 1329.81 1824.34 1296.07 1809.38 C 1288.69 1809.67 1280.09 1810.69 1275.45 1816.93 C 1257.65 1840.88 1271.08 1868.46 1290.52 1884.83 C 1325.36 1914.16 1378.02 1919.58 1409.38 1882.86 C 1420.93 1869.01 1425.08 1849.36 1422.78 1831.62 C 1418.39 1800.02 1397.29 1777.17 1372.97 1758.64 C 1327.74 1724.19 1274.46 1691.94 1265.76 1630.53 C 1264.1 1618.75 1264.6 1607.39 1265.18 1595.57 C 1246.71 1621.91 1231.32 1650.23 1213.6 1676.94 C 1196.26 1703.09 1174.84 1729.73 1155.01 1754.19 C 1142.65 1769.43 1124.61 1786.68 1110.51 1800.52 C 1099.74 1811.09 1088.15 1820.58 1077.89 1831.97 C 1070.3 1840.39 1065.21 1851.77 1058.3 1859.87 C 1023.96 1900.18 968.933 1952.88 915.907 1962.86 C 905.742 1964.78 887.177 1966.52 878.328 1960.82 C 866.449 1941.99 937.676 1893.04 953.705 1882.93 C 970.323 1872.52 987.086 1862.34 1003.99 1852.4 C 946.513 1869.73 896.088 1878.93 839.533 1849.07 C 821.691 1839.65 772.841 1802.48 818.707 1793.02 C 866.762 1783.1 925.555 1811.96 970.661 1827.22 C 983.774 1831.8 999.543 1840.41 1012.24 1843.83 C 1030.68 1837.77 1045.87 1826.39 1060.25 1813.56 C 1026.56 1825.77 998.877 1822.4 966.601 1806.7 C 941.78 1794.63 910.514 1775.57 899.041 1748.99 C 895.18 1740.04 896.825 1726.51 907.772 1724.63 C 934.616 1720.02 961.95 1741.54 984.405 1753.73 C 1000.17 1763.25 1052.26 1797.73 1064 1811.28 C 1088.32 1793.25 1121.18 1759.25 1140.39 1735.7 C 1111.16 1747.16 1093.65 1743.94 1062.87 1733.53 C 1040.77 1726.06 1002.89 1686.98 1040.63 1673.69 C 1063.19 1665.74 1104.79 1680.2 1124.47 1691.03 C 1141.65 1700.54 1147.53 1706.63 1148.5 1725.62 C 1165.89 1705.93 1183.38 1680.74 1197.56 1658.68 C 1210.99 1637.44 1226.36 1616.13 1239.02 1594.5 C 1279.81 1524.83 1325.25 1464.73 1399.55 1428.14 C 1452.42 1402.1 1485.86 1396.45 1543.55 1404.06 C 1519.42 1336.41 1509.88 1259.21 1504.9 1188.14 C 1504.1 1176.78 1502.7 1174.04 1506.19 1162.99 C 1493.25 1163.59 1490.55 1162.26 1482.6 1152.41 C 1481.92 1135.63 1481.3 1132.65 1490.94 1119.01 C 1444 1120.73 1419.99 1098.03 1395.37 1061.09 C 1393.66 1057.76 1390.43 1027.35 1391.3 1021.71 C 1389.4 1018.08 1388.1 1014.64 1386.57 1010.84 C 1418.48 989.247 1457.7 954.727 1481.66 924.358 C 1510.45 887.857 1540.86 849.27 1568.6 812.057 C 1576.43 806.001 1606.72 759.83 1611.3 749.441 C 1615.45 740.019 1618.86 731.774 1621.71 721.598 C 1620.2 717.28 1617.69 712.504 1615.86 708.023 L 1614.37 707.414 L 1614.68 699.329 C 1613.21 693.692 1610.8 679.489 1608.59 675.372 C 1598.23 656.014 1567.97 609.269 1554.57 594.858 C 1542.97 648.17 1514.57 680.166 1459.39 688.974 C 1496.2 670.578 1524.1 654.68 1539.26 612.661 C 1543.44 601.067 1545.41 585.091 1539.15 574.144 C 1525.95 551.047 1506.87 531.544 1491.51 509.24 C 1457.56 459.936 1427.81 404.539 1409.35 347.478 C 1402.79 327.197 1401.76 309.856 1397.43 290.622 L 1396.78 291.761 C 1391.97 300.342 1391.66 308.746 1384.77 310.931 C 1375.44 307.974 1376.37 296.81 1379.34 289.297 C 1382.83 280.485 1390.35 274.319 1397.38 268.319 z" fill="rgb(255,255,255)" transform="translate(0,0)"></path>
<path d="M 1397.38 268.319 C 1400.89 253.551 1403.1 236.026 1408.12 222.062 C 1443.06 124.905 1550.12 80.8027 1647.83 104.072 C 1777.64 134.989 1893.25 292.77 1862.09 427.043 C 1838.62 528.172 1730.6 600.803 1628.56 574.754 C 1593.04 566.215 1567.17 549.326 1537.43 529.986 C 1563.87 562.66 1586.16 597.471 1609.56 632.138 C 1654.58 698.821 1694.41 767.333 1720.11 843.986 C 1727.66 866.515 1736.95 888.295 1744.29 910.896 C 1754.61 942.671 1762.97 975.125 1776.92 1005.55 C 1790.79 1033.38 1821.63 1065.02 1840.25 1090.83 C 1903.81 1178.11 1945.83 1281.74 1934.32 1391.14 C 1922.61 1502.45 1856.25 1602.16 1769.6 1670.52 C 1662.92 1754.68 1513.21 1795.03 1382.62 1747.8 C 1411.59 1772.54 1435.93 1793.42 1438.49 1834.89 C 1444.8 1937.32 1318.69 1953.69 1264.5 1884.11 C 1239.36 1852.36 1245.41 1792.88 1292.28 1791.81 C 1302.8 1791.54 1312.94 1795.71 1320.22 1803.29 C 1328.17 1811.62 1332.43 1822.8 1332.05 1834.31 C 1331.61 1845.26 1327.81 1857.16 1314.94 1856.67 C 1303.93 1849.02 1329.81 1824.34 1296.07 1809.38 C 1288.69 1809.67 1280.09 1810.69 1275.45 1816.93 C 1257.65 1840.88 1271.08 1868.46 1290.52 1884.83 C 1325.36 1914.16 1378.02 1919.58 1409.38 1882.86 C 1420.93 1869.01 1425.08 1849.36 1422.78 1831.62 C 1418.39 1800.02 1397.29 1777.17 1372.97 1758.64 C 1327.74 1724.19 1274.46 1691.94 1265.76 1630.53 C 1264.1 1618.75 1264.6 1607.39 1265.18 1595.57 C 1246.71 1621.91 1231.32 1650.23 1213.6 1676.94 C 1196.26 1703.09 1174.84 1729.73 1155.01 1754.19 C 1142.65 1769.43 1124.61 1786.68 1110.51 1800.52 C 1099.74 1811.09 1088.15 1820.58 1077.89 1831.97 C 1070.3 1840.39 1065.21 1851.77 1058.3 1859.87 C 1023.96 1900.18 968.933 1952.88 915.907 1962.86 C 905.742 1964.78 887.177 1966.52 878.328 1960.82 C 866.449 1941.99 937.676 1893.04 953.705 1882.93 C 970.323 1872.52 987.086 1862.34 1003.99 1852.4 C 946.513 1869.73 896.088 1878.93 839.533 1849.07 C 821.691 1839.65 772.841 1802.48 818.707 1793.02 C 866.762 1783.1 925.555 1811.96 970.661 1827.22 C 983.774 1831.8 999.543 1840.41 1012.24 1843.83 C 1030.68 1837.77 1045.87 1826.39 1060.25 1813.56 C 1026.56 1825.77 998.877 1822.4 966.601 1806.7 C 941.78 1794.63 910.514 1775.57 899.041 1748.99 C 895.18 1740.04 896.825 1726.51 907.772 1724.63 C 934.616 1720.02 961.95 1741.54 984.405 1753.73 C 1000.17 1763.25 1052.26 1797.73 1064 1811.28 C 1088.32 1793.25 1121.18 1759.25 1140.39 1735.7 C 1111.16 1747.16 1093.65 1743.94 1062.87 1733.53 C 1040.77 1726.06 1002.89 1686.98 1040.63 1673.69 C 1063.19 1665.74 1104.79 1680.2 1124.47 1691.03 C 1141.65 1700.54 1147.53 1706.63 1148.5 1725.62 C 1165.89 1705.93 1183.38 1680.74 1197.56 1658.68 C 1210.99 1637.44 1226.36 1616.13 1239.02 1594.5 C 1279.81 1524.83 1325.25 1464.73 1399.55 1428.14 C 1452.42 1402.1 1485.86 1396.45 1543.55 1404.06 C 1548.09 1415.43 1548.73 1417.73 1550.47 1429.93 C 1540 1430.16 1524.54 1424.33 1512.74 1423.5 C 1431.95 1417.81 1350.5 1475.92 1304.82 1538.93 C 1296.84 1551.79 1291.76 1565.87 1287.81 1580.38 C 1263.61 1669.62 1353.08 1722.6 1427.88 1738.98 C 1628.33 1782.89 1846.77 1636.13 1902.95 1443.18 C 1934.59 1334.49 1901.03 1228.2 1843.27 1134.95 C 1855.12 1168.86 1863.85 1201.97 1865.09 1238.05 C 1866.36 1275.01 1858.16 1353 1831.7 1379.88 C 1828.4 1383.23 1821.52 1388.57 1816.55 1387.94 C 1812.4 1387.41 1808.7 1384.15 1806.58 1380.7 C 1791.12 1355.41 1809.18 1248.92 1815.35 1217.86 C 1821.52 1186.79 1829.86 1156.07 1836.63 1125.1 C 1824.83 1105.67 1796.12 1067.74 1780.07 1051.53 C 1788.72 1085.86 1793.4 1122.8 1789.84 1158.14 C 1785.99 1196.46 1764.21 1260.73 1733.2 1285.29 C 1727.12 1290.1 1719.28 1295.03 1711.24 1293.78 C 1706.09 1292.98 1700.92 1290.06 1697.9 1285.77 C 1682.81 1264.31 1736.93 1140.57 1745.8 1113.5 C 1754.65 1086.48 1761.78 1060.63 1766.18 1032.48 C 1746.57 1003.83 1736.18 955.81 1726.09 921.624 C 1718.78 896.415 1710.12 871.618 1700.14 847.342 C 1702.61 866.435 1700.12 900.187 1697.48 919.148 C 1692.06 958.014 1659.35 1023.03 1627.32 1045.61 C 1621.36 1043.73 1617.42 1042.13 1611.69 1039.72 C 1615.82 1034.37 1622.87 1028.72 1627.83 1023.47 C 1682.96 964.977 1701.5 871.687 1676.69 795.869 C 1673.85 787.187 1654.18 741.982 1647.22 738.669 C 1644.11 742.483 1645 752.84 1645.21 758.071 C 1648.48 838.834 1614.07 905.839 1538.58 940.563 C 1579.22 899.995 1615.72 865.789 1629.12 806.845 C 1632.78 790.769 1644.29 700.874 1621.18 696.131 C 1618.99 697.244 1616.92 698.309 1614.68 699.329 C 1613.21 693.692 1610.8 679.489 1608.59 675.372 C 1598.23 656.014 1567.97 609.269 1554.57 594.858 C 1542.97 648.17 1514.57 680.166 1459.39 688.974 C 1496.2 670.578 1524.1 654.68 1539.26 612.661 C 1543.44 601.067 1545.41 585.091 1539.15 574.144 C 1525.95 551.047 1506.87 531.544 1491.51 509.24 C 1457.56 459.936 1427.81 404.539 1409.35 347.478 C 1402.79 327.197 1401.76 309.856 1397.43 290.622 L 1396.78 291.761 C 1391.97 300.342 1391.66 308.746 1384.77 310.931 C 1375.44 307.974 1376.37 296.81 1379.34 289.297 C 1382.83 280.485 1390.35 274.319 1397.38 268.319 z" fill="rgb(226,212,187)" transform="translate(0,0)"></path>
<path d="M 1585.06 120.427 C 1628.73 117.649 1679.34 132.859 1714.81 157.705 C 1810.98 225.816 1893.54 368.74 1814.28 479.051 C 1730.33 595.899 1599.39 578.426 1507.8 481.505 C 1463.09 434.197 1431.71 360.354 1422.44 295.025 C 1419.86 276.82 1417.72 272.947 1438.14 271.687 C 1444.91 302.14 1452.38 317.416 1478.42 337.613 C 1501.91 355.831 1538.25 369.222 1568.2 365.087 C 1576.59 363.484 1586.29 361.725 1591.13 353.929 C 1611.6 320.996 1570.68 286.06 1546.55 271.003 C 1525.93 257.183 1488.03 246.047 1463.36 246.634 C 1450.64 246.936 1436.72 249.37 1424.15 251.651 C 1427.57 231.003 1433.71 213.989 1447.07 197.464 C 1466.97 173.265 1495.79 158.112 1527.01 155.433 C 1572.63 151.121 1623.22 166.396 1658.37 195.753 C 1690.02 222.183 1706.1 262.569 1709.48 302.956 C 1710.57 315.961 1711.41 335.342 1705.22 347.173 C 1681.4 392.763 1557.49 380.678 1535.82 408.264 C 1533.81 410.834 1532.58 414.186 1533.01 417.476 C 1534.04 425.392 1541.13 433.313 1547.46 437.677 C 1565.32 450 1590.06 452.352 1610.92 448.508 C 1646.71 441.911 1681.91 419.551 1702.4 389.371 C 1725.93 354.724 1728.23 315.426 1720.21 275.198 C 1711.76 232.815 1693.06 195.037 1656.22 170.586 C 1610.97 140.556 1553.03 131.501 1500.27 142.103 C 1528 130.025 1554.89 122.606 1585.06 120.427 z" fill="rgb(255,255,255)" transform="translate(0,0)"></path>
<path d="M 1457.99 265.395 C 1460.64 265.307 1463.29 265.374 1465.93 265.596 C 1499.99 268.122 1542.97 285.587 1565.18 312.435 C 1571.3 319.828 1577.5 329.292 1576.88 340.073 C 1576.73 342.706 1573.69 344.115 1571.6 345.482 C 1533.9 355.812 1481.37 324.536 1464.11 291.45 C 1461.18 285.832 1455.49 272.549 1456.28 266.627 L 1457.99 265.395 z" fill="rgb(255,255,255)" transform="translate(0,0)"></path>
<path d="M 1477.33 996.353 C 1486.23 1003.53 1500.63 1011.06 1512.68 1010.66 C 1520.63 1008.17 1521.48 991.276 1529.72 989.686 C 1536.18 988.44 1559.81 991.311 1565.4 994.81 C 1589.61 1009.99 1597.61 1008.11 1585.17 1032.99 L 1585.75 1032.26 L 1585.32 1033.3 C 1583.95 1036.67 1583.43 1037.32 1583.97 1040.95 C 1592.08 1055.38 1618.81 1047.75 1624.37 1054.84 C 1623.01 1058.69 1618.75 1060.3 1615.02 1062.11 C 1600.08 1069.35 1590.74 1065.8 1576.11 1061.99 C 1585.42 1087.45 1624.58 1154.72 1614.18 1178.2 C 1612.43 1182.18 1609.74 1184.34 1606.16 1186.61 L 1605.35 1185.28 C 1597.14 1171.52 1600 1162.21 1595.26 1149.63 L 1594.28 1149.43 C 1589.39 1159.81 1574.7 1173.86 1566.22 1182.42 C 1569.14 1190.48 1569.69 1190.59 1568.56 1199.2 C 1619.67 1216.88 1650.6 1276.19 1663.21 1325.37 C 1667.24 1341.12 1670.25 1357.2 1673.3 1373.17 C 1669.38 1375.32 1657.72 1380.01 1656.37 1381.13 L 1656.67 1382.38 C 1657.4 1385.65 1658.11 1387.09 1656.92 1390.17 C 1642.14 1403.44 1628.28 1397.66 1616.35 1384.57 C 1599.92 1389.02 1590.2 1391.7 1572.85 1392.42 C 1572.61 1355.7 1583.34 1299.69 1562.58 1265.51 C 1567.8 1321.42 1561.83 1371.19 1576.32 1426.16 C 1585.9 1462.54 1585.7 1506.84 1580.02 1543.93 C 1573.3 1544.01 1548.15 1545 1543.45 1542.7 C 1543.81 1539.23 1560.97 1531.74 1565.66 1528.17 C 1565.61 1524.6 1566.29 1516.54 1566.03 1514.37 C 1562.71 1486.77 1556.56 1456.97 1550.47 1429.93 C 1548.73 1417.73 1548.09 1415.43 1543.55 1404.06 C 1519.42 1336.41 1509.88 1259.21 1504.9 1188.14 C 1504.1 1176.78 1502.7 1174.04 1506.19 1162.99 C 1493.25 1163.59 1490.55 1162.26 1482.6 1152.41 C 1481.92 1135.63 1481.3 1132.65 1490.94 1119.01 C 1444 1120.73 1419.99 1098.03 1395.37 1061.09 C 1393.66 1057.76 1390.43 1027.35 1391.3 1021.71 C 1409.17 1039.87 1436.86 1069.9 1459.75 1080.78 C 1468.65 1085.01 1487.94 1086.84 1497.91 1086.92 C 1507.32 1086.95 1516.73 1086.74 1526.13 1086.29 C 1517.09 1101.29 1502.67 1122.59 1503.22 1140.77 L 1504.01 1142.26 L 1505.28 1142.03 L 1505.86 1140.6 C 1509.86 1130.75 1514.97 1123.49 1519.65 1114.28 C 1524.52 1104.69 1527.93 1095.23 1533.46 1085.69 C 1526.64 1082.93 1521.96 1082.06 1519.22 1074.98 C 1516.65 1068.33 1515.03 1061.04 1513.32 1054.14 C 1514.02 1053.56 1514.71 1052.98 1515.4 1052.4 C 1512.56 1049.59 1512.5 1049.82 1508.74 1049.01 C 1491.45 1032.96 1481.05 1019.93 1477.33 996.353 z" fill="rgb(31,31,31)" transform="translate(0,0)"></path>
<path d="M 1562.41 1151.53 C 1563.52 1151.78 1564.54 1152.22 1565.6 1152.63 C 1565.48 1155.85 1562.69 1157.79 1560.55 1160.12 C 1560.9 1161.2 1561.87 1163.72 1561.69 1164.76 C 1560.32 1172.46 1552.56 1181.82 1550.21 1190.16 C 1548.4 1196.6 1548.59 1203.02 1548.69 1209.62 L 1548.49 1210.42 C 1546.43 1208.53 1545.75 1205.21 1545.39 1202.45 C 1543.52 1188.11 1553.94 1162.91 1562.41 1151.53 z" fill="rgb(255,255,255)" transform="translate(0,0)"></path>
<path d="M 1621.18 696.131 C 1622.19 707.439 1623.79 710.204 1621.71 721.598 C 1620.2 717.28 1617.69 712.504 1615.86 708.023 L 1614.37 707.414 L 1614.68 699.329 C 1616.92 698.309 1618.99 697.244 1621.18 696.131 z" fill="rgb(184,173,146)" transform="translate(0,0)"></path>
<path d="M 1694.18 1545.79 C 1695.49 1545.83 1697.21 1545.76 1698.52 1546.08 C 1701.32 1546.77 1702.59 1547.82 1704.31 1550.05 C 1708.37 1562.83 1688.23 1610.72 1682.15 1623.01 C 1662.7 1662.38 1631.19 1694.84 1588.96 1708.82 C 1560.26 1718.32 1527.09 1719.87 1499.53 1705.86 C 1481.63 1696.77 1469.84 1683.31 1463.67 1664.25 C 1462.84 1661.12 1462.18 1657.74 1461.92 1654.5 C 1461.55 1649.81 1461.47 1644.05 1464.69 1640.29 C 1467.14 1641.49 1475.51 1664.25 1478.73 1668.65 C 1485.34 1677.7 1495.65 1686.04 1505.61 1691.12 C 1528.72 1702.9 1559.35 1702.09 1583.55 1694.24 C 1629.24 1679.44 1662.15 1636.29 1678.21 1592.61 C 1683.62 1577.89 1686.36 1560.41 1693.67 1546.69 C 1693.84 1546.39 1694.01 1546.09 1694.18 1545.79 z" fill="rgb(226,212,187)" transform="translate(0,0)"></path>
<path d="M 1479.43 1475.29 C 1489.72 1473.82 1506.93 1474 1516.39 1478.88 C 1518.65 1480.05 1519.32 1480.94 1520.18 1483.26 C 1519.09 1486.5 1518.02 1487.88 1514.62 1488.84 C 1506.73 1491.08 1495.87 1490.01 1487.52 1490.49 C 1465.89 1491.73 1441.43 1503.22 1424.82 1516.83 C 1398.71 1538.23 1380.4 1568.27 1377.31 1602.29 C 1374.23 1636.26 1388.87 1668.97 1410.15 1694.63 L 1426.98 1711.44 C 1416.68 1709.23 1407.74 1705.73 1399.23 1699.5 C 1378.61 1684.42 1367.33 1657.7 1363.58 1633.09 C 1357.91 1595.82 1367.26 1560.87 1389.48 1530.7 C 1410.9 1501.01 1443.27 1481.07 1479.43 1475.29 z" fill="rgb(226,212,187)" transform="translate(0,0)"></path>
<path d="M 1586.86 1405.67 C 1595.71 1405.02 1603.73 1404.54 1612.51 1403.01 C 1627.04 1417.66 1694.71 1484.71 1693.8 1500.67 C 1690.07 1503.89 1688.6 1503.03 1684.84 1507.37 C 1683.99 1510.58 1683.69 1512.4 1683.21 1515.7 C 1678.65 1520.28 1674.24 1524.74 1667.85 1526.58 L 1666.44 1525.73 C 1666.72 1522.54 1667.2 1522.27 1668.87 1519.57 C 1672.48 1513.8 1671.97 1505.13 1671.24 1498.63 C 1669.43 1492.52 1662.98 1490.19 1658.31 1485.05 C 1635.98 1460.46 1601.5 1435.52 1586.86 1405.67 z" fill="rgb(31,31,31)" transform="translate(0,0)"></path>
<path d="M 1668.87 1519.57 C 1663.68 1518.81 1656.51 1518.81 1651.94 1515.53 C 1644.27 1510.03 1627.16 1473.1 1633.15 1466.39 C 1645.19 1467.78 1644.7 1500.19 1660.64 1505.3 C 1663.55 1506.23 1667.12 1508.19 1670.46 1507.01 C 1671.16 1503.87 1671.13 1501.8 1671.24 1498.63 C 1671.97 1505.13 1672.48 1513.8 1668.87 1519.57 z" fill="rgb(226,212,187)" transform="translate(0,0)"></path>
<path d="M 1144.63 86.4358 C 1181.32 86.0988 1169.93 103.427 1151.79 121.902 C 1134.36 139.813 1115.13 155.889 1094.41 169.879 C 1081.12 178.97 1062.8 190.032 1050.59 199.938 L 1049.49 200.831 C 1083.51 184.287 1119.49 176.899 1157.64 183.191 C 1189.04 188.368 1227.35 202.19 1248.44 227.956 C 1257.67 239.229 1246.06 248.534 1234.61 250.924 C 1184.84 261.312 1134.82 242.309 1087.47 229.102 C 1067.79 223.62 1048.34 219.665 1029.09 213.563 C 1017.58 220.421 1006.23 227.539 995.039 234.912 C 1052.95 222.878 1129.1 254.733 1156.13 310.214 C 1160.23 318.637 1154.93 331.129 1145.13 332.972 C 1136.52 334.593 1126.87 331.738 1118.72 328.56 C 1071.85 307.316 1033.92 268.316 993.149 237.646 C 992.817 237.444 992.486 237.243 992.155 237.041 C 955.301 260.915 934.53 283.083 904.994 314.52 C 940.248 307.528 968.885 308.089 1000.57 327.641 C 1025.12 342.787 1046.33 376.624 1001.31 380.495 C 960.414 384.012 921.362 354.334 891.52 329.227 C 884.33 341.08 870.645 358.848 862.327 371.034 C 846.589 394.131 831.626 417.747 817.464 441.843 C 779.519 454.606 785.222 476.043 768.924 508.558 C 754.916 536.503 714.752 574.629 685.409 583.881 C 679.812 582.473 674.611 581.437 668.957 580.32 C 677.471 574.477 685.656 568.169 693.474 561.424 C 727.324 532.566 759.049 495.602 763.157 449.457 C 766.074 418.701 755.073 385.27 730.522 365.367 C 525.755 199.369 205.86 372.162 145.536 604.198 C 139.929 625.766 136.347 655.407 135.196 677.066 C 132.034 750.245 149.553 822.834 185.747 886.514 C 190.304 894.358 194.565 904.788 200.402 911.257 L 201.059 910.884 C 183.048 869.83 180.362 814.505 184.837 770.543 C 187.776 741.668 196.885 691.377 221.582 672.341 C 226.899 667.815 238.021 665.109 244.752 665.859 C 254.173 666.91 252.238 687.756 252.325 694.745 C 252.851 736.751 243.554 776.031 234.195 816.664 C 225.91 852.119 217.151 887.462 207.919 922.683 C 224.318 946.33 242.216 967.375 257.627 991.316 C 253.707 979.021 252.28 964.168 251.255 951.369 C 246.588 893.11 258.75 839.216 277.765 784.433 C 294.821 735.291 324.842 692.176 372.566 667.809 C 363.481 694.591 353.183 709.586 349.48 740.852 C 345.669 751.6 350.235 780.836 346.38 789.768 C 336.143 813.493 324.961 842.665 316.401 866.6 C 303.034 903.852 291.733 941.815 282.551 980.313 C 279.768 992.249 277.871 1004.49 275.318 1016.54 C 281.173 1030.61 288.658 1042.7 294.363 1058.13 C 311.515 1104.51 325.201 1147.29 345.124 1192.91 C 346.375 1163.43 348.101 1140.99 356.983 1112.43 C 386.519 1017.45 471.522 947.019 573.636 979.551 C 577.169 980.676 578.992 981.281 580.622 984.571 C 575.685 989.324 522.68 986.358 507.623 988.535 C 491.342 990.757 475.638 996.08 461.362 1004.22 C 387.721 1045.74 346.761 1149.56 362.321 1231.75 C 364.411 1242.79 387.653 1287.06 394.106 1298.27 C 395.659 1226.16 414.663 1145.62 490.797 1119.36 C 481.463 1129.94 469.55 1140.15 459.923 1151.07 C 434.253 1180.19 417.62 1221.38 410.415 1259.25 C 407.262 1275.83 402.85 1300.89 406.258 1317.31 C 407.31 1322.38 414.305 1333.4 417.365 1337.93 C 418.656 1331.55 420.296 1325.24 421.867 1318.92 C 424.432 1311.43 427.422 1304.1 430.824 1296.95 C 451.295 1253.65 488.475 1220.52 533.84 1205.15 C 539.171 1203.33 546.151 1200.94 551.217 1203.45 C 551.695 1204.71 552.6 1205.52 550.761 1207.12 C 535.991 1219.98 516.646 1230.35 501.4 1243.09 C 464.597 1273.86 443.56 1313.3 429.32 1358.35 L 428.942 1359.57 C 446.867 1393.82 477.069 1428.34 498.138 1460.22 C 503.172 1409.56 531.224 1375.5 581.911 1365.31 C 568.709 1374.98 555.598 1378.68 542.421 1390.97 C 522.395 1409.64 507.465 1443.44 506.844 1470.61 C 521.078 1491.34 537.443 1511.6 552.252 1532.25 C 591.043 1586.35 629.255 1645.55 644.496 1711.17 C 648.433 1728.12 649.281 1739.96 651.022 1756.73 C 651.73 1748.67 651.577 1735.59 660.208 1732.04 C 672.694 1734.37 667.536 1755.17 664.04 1762.91 C 660.507 1770.72 657.327 1774.1 651.592 1780.06 C 643.277 1822.24 637.454 1851.3 606.435 1883.03 C 514.849 1976.71 378.617 1965.65 286.878 1878.48 C 228.387 1822.91 177.907 1743.35 176.07 1661.83 C 175.257 1614.41 193.225 1568.58 226.055 1534.35 C 267.157 1491.31 309.748 1471.74 369.764 1469.95 C 419.633 1468.47 485.612 1496.49 521.37 1531.07 C 518.588 1524.97 507.936 1513.56 503.047 1507.45 C 494.856 1497.24 486.859 1486.87 479.061 1476.35 C 449.816 1437.45 422.661 1397.03 397.711 1355.24 C 362.947 1296.64 329.364 1221.5 305.838 1157.56 C 290.31 1115.36 283.045 1083.94 262.287 1042.46 C 251.507 1021.06 239.013 1000.57 224.928 981.182 C 212.426 964.063 198.831 947.747 186.772 930.25 C 167.355 902.051 151.525 871.545 139.646 839.435 C 102.156 740.367 103.65 637.01 146.389 539.411 C 225.105 359.658 476.966 215.433 667.53 302.093 C 632.459 273.759 594.096 231.074 608.123 182.184 C 613.417 163.106 626.241 147 643.649 137.567 C 670.064 122.936 701.258 119.559 730.193 128.198 C 755.098 135.521 776.508 149.484 789.054 172.801 C 802.746 198.018 802.836 236.748 773.438 251.281 C 740.05 267.788 708.472 232.593 721.4 199.919 C 723.411 194.836 728.115 189.111 733.349 187.15 C 735.856 186.211 736.984 187.052 739.012 188.139 C 742.285 194.164 739.511 201.654 738.14 208.186 C 729.585 246.575 781.257 246.036 780.365 209.391 C 778.281 168.834 735.341 141.889 697.507 142 C 649.565 142.304 603.55 178.409 626.798 229.867 C 657.235 297.237 741.068 319.982 772.446 385.77 C 782.693 407.253 783.125 426.408 783.523 449.635 C 821.071 386.885 859.301 329.936 909.352 276.058 C 927.425 256.603 947.86 240.354 965.634 221.685 C 975.293 211.538 986.867 193.058 997.625 180.954 C 1034.18 139.826 1087.71 90.5217 1144.63 86.4358 z" fill="rgb(226,212,187)" transform="translate(0,0)"></path>
<path d="M 361.782 1486.42 C 365.211 1486.14 368.625 1486.11 372.063 1486.15 C 440.587 1486.98 504.799 1530.45 551.294 1578.19 C 591.097 1619.07 627.004 1708.11 626.242 1764.95 C 606.692 1778.05 580.018 1782.71 556.999 1778.62 C 526.963 1773.27 496.906 1755.13 479.531 1729.92 C 477.257 1726.63 473.349 1722.14 474.231 1717.91 C 474.926 1714.57 477.341 1711.68 480.186 1709.89 C 501.145 1696.7 553.108 1718.4 570.833 1732.13 C 579.122 1738.55 591.02 1759.38 599.477 1761.24 C 601.878 1760.64 603.728 1760.21 605.186 1758 C 607.564 1754.39 607.728 1750.21 606.494 1746.15 C 601.343 1729.25 583.581 1714.45 568.579 1706.38 C 542.873 1692.56 507.278 1680.22 478.091 1689.52 C 469.742 1692.18 462.017 1697.52 458.155 1705.6 C 454.407 1713.43 455.367 1722.05 458.465 1729.92 C 469.358 1757.63 500.603 1778.37 526.596 1790.07 C 564.512 1807.13 589.353 1802.89 626.248 1788.85 C 622.881 1805.94 618.512 1822.48 610.11 1837.85 C 595.542 1864.49 571.468 1882.36 542.412 1890.68 C 498.775 1903.16 451.405 1891.84 412.615 1870.04 C 377.351 1850.23 354.124 1820.15 343.345 1781.35 C 340.459 1766.44 338.583 1750.73 339.128 1735.54 C 339.599 1722.44 341.128 1704.29 349.035 1693.36 C 353.432 1687.27 361.252 1683.39 367.989 1680.4 C 379.582 1675.25 392.095 1671.41 404.489 1668.7 C 436.319 1661.73 486.367 1659.71 510.476 1636.25 C 513.791 1633.02 517.318 1628.58 516.806 1623.64 C 516.374 1619.47 513.515 1616.09 510.454 1613.47 C 496.004 1601.08 470.043 1599.41 451.941 1600.81 C 416.557 1603.57 379.469 1622.39 356.419 1649.41 C 331.165 1679.02 321.434 1714.14 324.548 1752.63 C 327.992 1795.22 344.44 1838.69 377.726 1866.77 C 416.271 1899.28 469.145 1919.42 519.788 1915.12 C 503.245 1920.53 484.821 1924.9 467.457 1926.29 C 408.538 1931 352.587 1906.72 308.489 1869.06 C 252.592 1821.33 204.948 1744.17 199.228 1670.49 C 195.651 1624.4 211.189 1582.63 241.311 1547.83 C 272.261 1512.07 314.63 1489.83 361.782 1486.42 z" fill="rgb(255,255,255)" transform="translate(0,0)"></path>
<path d="M 805.321 651.309 C 813.384 652.235 823.081 654.76 831.156 656.738 C 957.382 687.562 1095.09 698.622 1216.4 643.203 C 1283.95 610.523 1344.06 548.491 1327.24 467.49 C 1318.69 426.334 1287.21 386.162 1243.68 379.212 C 1222.4 375.815 1192.58 395.866 1201.13 420.063 C 1202.66 424.375 1202.62 425.52 1206.78 427.813 C 1207.68 427.578 1208.59 427.342 1209.49 427.107 C 1215.25 411.968 1224.35 394.243 1239.54 414.251 C 1243.96 419.327 1243.64 427.452 1242.81 433.59 C 1242.05 439.251 1237.75 442.682 1233.68 446.227 C 1227.8 451.747 1213.7 452.903 1206.42 450.063 C 1168.11 435.133 1174.22 388.572 1204.5 369.788 C 1248.29 342.631 1306.56 368.463 1332.74 407.431 C 1354.84 440.306 1356.89 479.428 1349.17 517.02 C 1337.46 569.775 1299.33 614.058 1255.04 643.14 C 1238.01 654.322 1218.61 662.572 1199.69 670.043 C 1074.88 720.38 923.416 701.192 794.957 673.002 C 783.137 702.206 772.212 733.531 761.557 763.263 C 738.892 825.742 718.005 888.852 698.922 952.516 C 684.351 999.581 671.464 1047.15 660.287 1095.14 C 655.075 1117.09 648.354 1143.75 645.064 1165.94 C 636.966 1222.49 629.093 1281.59 643.011 1337.88 C 648.097 1358.44 659.73 1391.24 687.275 1383.08 C 707.064 1377.22 719.941 1357.96 730.756 1341.66 C 757.557 1301.26 776.714 1256.41 796.703 1212.4 L 857.812 1079.75 C 876.085 1040.94 894.786 1003.36 915.075 965.551 C 920.216 955.972 923.011 935.97 926.488 924.896 C 937.092 891.114 946.63 846.779 964.343 816.438 C 977.965 814.14 995.397 817.437 1001.18 831.199 C 1006.61 844.142 1001.8 864.918 999.083 878.107 C 986.782 937.735 968.919 996.04 953.337 1054.88 C 989.214 985.269 1017.16 912.013 1082.97 862.863 C 1106.43 845.343 1152.3 834.288 1168.78 864.918 C 1188.41 901.426 1171.27 976.6 1163.16 1016.12 C 1175.51 1012.15 1190.73 1002.77 1201.91 995.78 C 1233.1 976.294 1266.58 943.238 1278.72 907.68 C 1270.3 879.406 1265.77 852.949 1270.25 823.051 C 1278.81 766.433 1326.08 729.146 1383.36 738.263 C 1416.16 743.484 1419.9 774.681 1413.44 801.363 C 1403.83 841.054 1373.15 876.102 1339.01 897.099 C 1344.28 911.145 1352.86 928.94 1359.26 942.81 C 1367.91 961.548 1374.48 977.545 1381.98 996.877 C 1468.37 936.089 1494.58 882.621 1558.35 802.123 C 1576.53 773.029 1606.79 745.024 1614.37 707.414 L 1615.86 708.023 C 1617.69 712.504 1620.2 717.28 1621.71 721.598 C 1618.86 731.774 1615.45 740.019 1611.3 749.441 C 1606.72 759.83 1576.43 806.001 1568.6 812.057 C 1540.86 849.27 1510.45 887.857 1481.66 924.358 C 1457.7 954.727 1418.48 989.247 1386.57 1010.84 C 1388.1 1014.64 1389.4 1018.08 1391.3 1021.71 C 1390.43 1027.35 1393.66 1057.76 1395.37 1061.09 C 1394.03 1064.36 1394.33 1081.06 1393.96 1086.12 C 1393.43 1092.99 1392.5 1099.82 1391.19 1106.59 C 1382.92 1148.14 1358.96 1177.5 1324.4 1201.91 C 1268.72 1241.25 1178.63 1232.12 1199.48 1142.85 C 1214.27 1079.52 1270.11 1053.76 1321.74 1022.88 C 1311.01 990.532 1297.43 959.37 1283.97 928.021 C 1254.86 982.665 1213.79 1009.52 1158.58 1033.45 C 1156.14 1043.22 1153.6 1052.96 1150.97 1062.68 C 1135.5 1118.34 1095.99 1186.01 1044.72 1215.59 C 1030.54 1223.78 1007.09 1231.81 990.877 1226.8 C 983.487 1224.59 977.34 1219.42 973.897 1212.52 C 968.299 1201.2 969.864 1183.74 973.748 1172.02 C 989.614 1124.18 1047.22 1072.38 1090.34 1050.1 C 1106.65 1009.19 1113.52 945.051 1115.7 900.672 C 1116.03 893.95 1117.4 873.613 1108.18 873.14 C 1100.5 872.746 1092.82 877.658 1086.8 882.226 C 1047.24 914.337 1019.09 959.845 995.602 1004.47 C 985.838 1023.26 974.876 1043.75 966.469 1062.58 C 912.451 1183.61 883.388 1322.84 864.005 1453.78 C 859.925 1480.96 857.069 1508.32 855.445 1535.76 C 854.493 1550.5 862.034 1574.15 839.666 1569.69 C 835.603 1568.88 831.353 1564.55 829.679 1560.99 C 815.749 1531.43 815.93 1496.83 816.207 1464.74 C 818.924 1345.88 846.261 1227.85 875.349 1113.09 C 882.693 1084.11 891.447 1056.39 898.856 1027.64 C 887.775 1047.91 879.012 1069.91 868.638 1090.93 C 827.033 1175.23 794.652 1265.58 746.356 1346.38 C 736.292 1361.43 714.408 1391.74 695.732 1396.7 C 608.612 1419.84 599.453 1282.52 599.197 1230.5 C 598.413 1071.24 648.865 911.76 703.35 764.157 L 727.036 700.58 C 731.382 689.094 736.494 674.538 741.661 663.626 C 647.973 651.697 523.992 649.883 442.988 707.91 C 393.225 743.558 395.782 816.291 464.669 824.6 C 477.987 826.207 498.464 823.646 500.059 806.612 C 495.029 808.314 485.114 810.994 481.944 806.13 C 469.303 786.731 497.226 767.347 512.432 789.74 C 523.035 805.354 517.045 824.414 501.88 834.93 C 486.575 845.542 467.016 846.203 449.36 842.871 C 398.487 833.623 374.82 788.877 385.503 739.897 C 394.092 700.522 419.154 669.237 452.985 647.839 C 472.518 635.485 493.455 626.927 515.43 619.991 C 597.888 590.758 670.269 617.964 750.936 636.008 C 766.716 599.585 783 563.531 796.596 526.081 C 802.128 513.491 804.617 493.37 812.463 482.475 C 816.775 476.487 832.942 503.425 834.496 506.503 C 839.298 515.831 841.8 526.172 841.792 536.663 C 841.537 564.916 815.159 621.322 805.321 651.309 z" fill="rgb(107,104,95)" transform="translate(0,0)"></path>
<path d="M 1614.37 707.414 L 1615.86 708.023 C 1617.69 712.504 1620.2 717.28 1621.71 721.598 C 1618.86 731.774 1615.45 740.019 1611.3 749.441 C 1606.72 759.83 1576.43 806.001 1568.6 812.057 C 1568.43 807.725 1576.81 798.768 1579.59 794.779 C 1592.82 775.74 1611.75 752.206 1617.41 729.578 L 1611.69 723.689 C 1604.87 737.737 1571.09 795.914 1558.35 802.123 C 1576.53 773.029 1606.79 745.024 1614.37 707.414 z" fill="rgb(163,155,134)" transform="translate(0,0)"></path>
<path d="M 1325.05 1038.41 C 1325.9 1039.42 1326.35 1040.23 1326.66 1041.52 C 1328.24 1047.88 1328.74 1054.82 1329.49 1061.32 C 1333.52 1095.92 1330.61 1131.2 1311.85 1161.4 C 1299.93 1180.58 1281.97 1197.32 1259.42 1202.35 C 1246.82 1205.17 1235.14 1204.79 1223.98 1197.65 C 1219.81 1193.68 1216.19 1189.99 1213.62 1184.73 C 1206.51 1170.16 1209.45 1152.62 1214.87 1138 C 1229.64 1098.13 1262.11 1073.45 1297.84 1053.1 C 1306.77 1048.01 1315.69 1042.67 1325.05 1038.41 z" fill="rgb(255,255,255)" transform="translate(0,0)"></path>
<path d="M 1372.63 754.168 C 1376.07 753.813 1379.51 753.589 1382.96 753.811 C 1388.37 754.157 1393.58 756.101 1397 760.455 C 1403.2 768.329 1403.62 781.41 1402.51 791.054 C 1398.81 823.428 1374.68 854.036 1349.8 873.532 C 1344.96 876.855 1339.9 879.818 1334.87 882.836 C 1331.47 875.18 1329.29 866.693 1327.55 858.515 C 1321.83 831.548 1323.73 800.213 1339.23 776.624 C 1347.48 764.059 1358.1 757.216 1372.63 754.168 z" fill="rgb(255,255,255)" transform="translate(0,0)"></path>
<path d="M 1082.91 1073.06 C 1083.62 1073.8 1083.66 1073.68 1083.57 1075.34 C 1083.24 1081.97 1077.54 1092.29 1074.88 1098.73 C 1061.08 1132.28 1037.69 1185.77 1005.63 1204.36 C 999.73 1207.78 995.174 1208.78 988.593 1206.99 C 988.259 1206.55 987.914 1206.12 987.59 1205.67 C 983.7 1200.3 984.056 1191.36 985.263 1185.15 C 993.444 1143.05 1048.39 1095.73 1082.91 1073.06 z" fill="rgb(255,255,255)" transform="translate(0,0)"></path>
<path d="M 179.584 1111.25 C 192.917 1109.81 205.448 1111.4 217.941 1116.4 C 300.681 1149.52 297.038 1269.44 326.942 1338.94 C 337.396 1345.2 347.278 1352.36 356.475 1360.36 C 361.359 1364.59 379.276 1379.24 379.667 1384.92 C 377.051 1386.4 375.471 1386.87 372.49 1386.1 C 355.996 1381.8 329.293 1354.64 310.603 1346.26 C 293.082 1338.41 273.185 1333.68 254.085 1332.36 C 213.654 1329.57 172.563 1340.72 141.888 1367.86 C 107.88 1397.95 91.1377 1443.59 92.815 1488.5 C 93.1749 1498.14 97.3717 1517.27 96.587 1524.7 C 96.3645 1526.81 96.2859 1526.91 94.5933 1528.3 C 92.2533 1527.85 91.0086 1527.16 89.4307 1525.31 C 79.3449 1513.43 80.9805 1465.26 83.0037 1450.4 C 88.516 1409.91 108.589 1373.6 141.461 1349.07 C 179.624 1320.6 226.031 1312.54 272.5 1319.32 C 285.797 1321.76 298.367 1325.48 311.039 1330.15 C 305.424 1317.86 300.075 1305.52 296.062 1292.59 C 281.757 1246.49 275.242 1191.2 240.258 1155.15 C 226.933 1141.42 209.264 1130.74 189.631 1130.79 C 167.222 1130.84 147.567 1142.19 132.455 1158.1 C 115.378 1176.09 104.874 1199.95 105.558 1224.95 C 105.957 1239.55 110.087 1255.24 121.258 1265.36 C 127.673 1271.17 135.991 1274.15 144.653 1273.32 C 155.492 1272.28 167.387 1266.06 173.919 1257.28 C 178.806 1250.71 181.251 1242.07 179.629 1233.95 C 178.441 1228 174.894 1222.49 169.702 1219.28 C 165.359 1216.59 159.986 1215.57 155.001 1216.85 C 147.595 1218.76 143.532 1224.09 139.893 1230.39 C 140.604 1234.07 142.137 1239.22 141.263 1242.86 C 140.597 1245.64 139.651 1246.8 137.383 1248.43 C 134.691 1248.94 133.15 1249.11 130.644 1247.77 C 127.041 1245.83 124.373 1241.55 123.132 1237.77 C 120.742 1230.48 122.146 1222.29 125.648 1215.61 C 130.583 1206.2 139.73 1199.08 149.923 1196.24 C 160.416 1193.3 171.648 1194.62 181.167 1199.93 C 191.2 1205.62 197.797 1215.49 200.539 1226.57 C 203.98 1240.47 201.34 1254.99 193.903 1267.15 C 185.905 1280.22 169.722 1289.49 154.98 1292.58 C 140.497 1295.62 125.119 1293.51 112.76 1285.02 C 98.0069 1274.89 89.9175 1257.96 86.6288 1240.78 C 81.0359 1211.58 89.4853 1182.52 106.182 1158.41 C 123.997 1132.69 148.963 1116.89 179.584 1111.25 z" fill="rgb(226,212,187)" transform="translate(0,0)"></path>
<path d="M 1944.97 513.652 C 1947.92 514.697 1949.9 518.265 1951.42 520.84 C 1968.08 549.078 1968.6 587.5 1961 618.506 C 1951.83 657.443 1927.31 691.022 1893.02 711.624 C 1842.63 741.711 1790.19 732.66 1736.6 719.135 C 1744.17 737.189 1750.42 756.478 1755.58 775.369 C 1764.85 809.327 1771.74 845.449 1791.52 875.318 C 1803.7 893.713 1821.14 909.072 1843.28 913.456 C 1863.69 917.498 1884.32 912.343 1901.43 900.751 C 1922.17 886.785 1936.43 865.083 1941.02 840.51 C 1943.92 825.352 1943.64 805.377 1934.26 792.41 C 1928.42 784.46 1919.64 779.18 1909.88 777.753 C 1899.6 776.243 1888.35 778.974 1880.27 785.608 C 1870.27 793.823 1868.46 804.155 1867.19 816.265 C 1870.53 823.336 1873.6 827.54 1881.29 830.101 C 1886.3 831.772 1892.01 831.76 1896.74 829.208 C 1904.93 824.783 1904.6 818.06 1907.11 809.96 C 1908.16 806.558 1909.33 805.028 1912.45 803.368 C 1916.17 803.563 1919.21 805.663 1921.62 808.36 C 1930.61 818.45 1920.06 837.717 1911.72 844.124 C 1882.58 866.51 1839.38 840.018 1847.41 803.256 C 1851.33 785.316 1858.99 773.496 1874.04 762.869 C 1911.75 740.94 1954.52 766.82 1961.87 807.037 C 1968.47 843.164 1953.05 883.698 1926.58 908.096 C 1897.34 935.045 1851.92 944.384 1816.56 923.995 C 1764.48 894.245 1750.12 824.682 1737.08 771.01 C 1727.45 731.371 1722.64 709.633 1688.7 684.691 C 1680.45 678.626 1671.29 669.187 1662.81 662.606 C 1655.92 657.259 1649.5 652.689 1642.35 647.687 C 1674.42 657.435 1697.2 676.735 1723.48 695.076 C 1755.64 715.207 1792.65 718.549 1829.44 715.762 C 1910.59 709.615 1967.82 629.531 1954.1 550.795 C 1952.1 539.329 1945.75 524.633 1944.97 513.652 z" fill="rgb(226,212,187)" transform="translate(0,0)"></path>
<path d="M 487.558 331.358 C 493.52 330.858 499.507 330.735 505.485 330.991 C 536.112 332.401 588.233 354.31 594.3 392.128 C 594.972 396.32 587.044 400.441 583.016 396.08 C 579.742 392.534 577.796 388.376 574.886 384.376 C 563.745 369 547.94 357.628 529.819 351.952 C 500.305 342.52 464.107 348.986 436.981 362.966 C 404.133 379.711 379.388 408.949 368.305 444.114 C 357.091 479.635 358.538 517.316 375.843 550.616 C 395.307 581.057 418.463 595.99 453.253 604.964 C 446.517 609.643 442.011 612.431 434.851 616.445 C 418.99 609.959 408.455 604.977 394.746 594.473 C 332.697 546.932 331.838 450.872 377.726 392.026 C 405.787 356.041 442.586 336.876 487.558 331.358 z" fill="rgb(226,212,187)" transform="translate(0,0)"></path>
<path d="M 1807.24 967.06 C 1810.91 966.88 1814.57 966.697 1818.17 967.536 C 1847.51 974.353 1883.64 1003.59 1899.37 1028.95 C 1905.45 1038.76 1911.49 1051.89 1908.33 1063.58 C 1906.17 1071.53 1900.92 1076.36 1893.93 1080.21 C 1886.09 1082.73 1879.14 1082.68 1871.31 1080.07 C 1844.63 1071.18 1810.79 1028.08 1799.04 1002.91 C 1795.25 994.787 1792.67 984.833 1796.2 976.154 C 1798.42 970.702 1802.15 969.298 1807.24 967.06 z" fill="rgb(226,212,187)" transform="translate(0,0)"></path>
<path d="M 157.31 974.22 C 171.926 972.704 183.99 976.69 195.949 984.865 C 218.908 1000.56 243.743 1035.12 248.297 1062.86 C 249.272 1068.79 249.073 1075.64 245.246 1080.61 C 241.538 1085.43 237.324 1085.83 231.634 1086.36 C 227.79 1086.12 224.138 1085.35 220.48 1084.13 C 191.378 1074.46 156.999 1045.72 143.571 1018 C 139.389 1009.37 136.552 998.809 140.186 989.496 C 143.424 981.2 149.604 977.546 157.31 974.22 z" fill="rgb(226,212,187)" transform="translate(0,0)"></path>
<path d="M 1140.06 1544.4 C 1141.35 1544.27 1142.65 1544.18 1143.95 1544.12 C 1177.37 1542.62 1219.52 1554.04 1244.51 1577.02 C 1231.31 1589.24 1217.6 1596.24 1200.45 1601.46 C 1199.3 1601.74 1198.17 1602.01 1197.01 1602.24 C 1172.49 1607.19 1133.85 1608.19 1112.35 1593.2 C 1105.42 1588.37 1099.43 1581.09 1098.27 1572.48 C 1097.65 1567.84 1099.03 1563.21 1101.93 1559.55 C 1110.55 1548.68 1127.04 1545.59 1140.06 1544.4 z" fill="rgb(226,212,187)" transform="translate(0,0)"></path>
<path d="M 628.448 339.801 C 633.533 340.422 643.151 345.854 647.294 349.014 C 696.662 386.669 703.469 466.885 666.878 515.534 C 643.885 546.106 601.885 566.262 564.874 571.59 C 526.646 577.094 492.383 573.208 461.165 549.611 C 453.773 542.78 451.885 540.078 447.132 531.72 C 480.303 549.124 505.372 561.155 544.588 558.058 C 583.443 554.99 624.954 541.122 651.056 509.884 C 684.687 469.638 681.851 416.23 654.937 372.945 C 649.469 364.151 635.973 350.935 628.706 342.921 C 628.62 341.881 628.534 340.841 628.448 339.801 z" fill="rgb(226,212,187)" transform="translate(0,0)"></path>
<path d="M 1226.23 1437.18 C 1235.19 1436.59 1243.61 1437.14 1252.46 1438.74 C 1271.39 1442.16 1308.97 1453.35 1320 1470.48 C 1321.42 1472.68 1322.23 1475.28 1321.3 1477.86 C 1318.71 1485.04 1305.08 1489.01 1298.45 1491.23 C 1274.53 1498.12 1242.78 1496.18 1220.65 1484.3 C 1212.21 1479.77 1204.39 1472.75 1201.84 1463.2 C 1200.6 1458.53 1200.87 1453.94 1203.49 1449.8 C 1208.56 1441.77 1217.51 1438.99 1226.23 1437.18 z" fill="rgb(226,212,187)" transform="translate(0,0)"></path>
<path d="M 851.932 441.389 C 876.088 439.193 914.192 444.582 934.748 457.528 C 967.835 478.366 942.351 492.262 918.223 496.847 C 901.666 498.83 879.211 498.328 863.551 492.126 C 846.754 470.024 845.461 460.457 819.441 444.528 C 829.882 443.867 841.44 442.45 851.932 441.389 z" fill="rgb(226,212,187)" transform="translate(0,0)"></path>
<path d="M 686.98 1554.24 C 691.328 1553.96 696.268 1553.37 700.373 1555.01 L 700.783 1556.44 C 694.769 1560.9 686.673 1562.16 680.396 1566.68 C 667.248 1576.16 657.979 1592.01 655.585 1607.95 C 647.631 1660.92 692.471 1705.75 733.41 1731.54 C 741.324 1736.53 766.108 1748.34 770.036 1754.72 C 770.241 1755.05 770.358 1755.43 770.519 1755.78 C 750.962 1755.5 730.426 1746.74 713.808 1736.94 C 680.799 1717.47 651.823 1683.37 642.366 1645.78 C 636.857 1623.88 638.985 1598.31 651.103 1578.84 C 659.303 1565.67 671.944 1557.47 686.98 1554.24 z" fill="rgb(226,212,187)" transform="translate(0,0)"></path>
<path d="M 931.428 108.075 C 968.052 106.024 926.309 192.6 888.468 204.196 C 866.147 205.525 873.424 180.241 878.616 167.575 C 888.024 144.627 908.214 118.012 931.428 108.075 z" fill="rgb(226,212,187)" transform="translate(0,0)"></path>
<path d="M 1160.32 1849.27 C 1162.33 1849.55 1164.6 1849.77 1166.43 1850.69 C 1169.26 1852.1 1171.59 1855.17 1172.52 1858.15 C 1175.32 1867.15 1169.77 1879.32 1165.83 1887.41 C 1155.77 1908.08 1135.95 1935.61 1113.38 1943.4 C 1111.09 1943.43 1108.79 1943.5 1106.72 1942.33 C 1103.77 1940.65 1101.84 1937.55 1101.08 1934.31 C 1097.51 1919.14 1109.24 1895.95 1117.5 1883.77 C 1127.24 1869.41 1142.59 1852.63 1160.32 1849.27 z" fill="rgb(226,212,187)" transform="translate(0,0)"></path>
<path d="M 723.685 1616.9 C 727.072 1616.93 730.144 1617.04 733.265 1618.5 C 751.5 1627.03 775.02 1676.67 781.464 1694.99 C 782.943 1699.2 785.265 1704.88 783.201 1709.13 C 780.819 1710.52 778.44 1709.96 775.823 1709.71 C 755.478 1699.68 736.877 1684.33 724.927 1664.84 C 719.187 1655.48 711.27 1640.24 714.309 1629.05 C 715.847 1623.39 718.742 1619.9 723.685 1616.9 z" fill="rgb(226,212,187)" transform="translate(0,0)"></path>
<path d="M 1341.46 111.407 C 1349.28 112.102 1354.64 117.1 1358.65 123.585 C 1385.81 167.459 1368.81 222.769 1325.87 248.834 C 1321.07 250.732 1316.51 250.725 1312.78 246.821 C 1312.35 244.87 1311.8 243.185 1313.2 241.205 C 1321.39 229.699 1332.93 220.749 1340.79 208.85 C 1356.05 185.802 1359.39 157.038 1346.65 132.071 C 1343.01 124.945 1338.95 119.141 1341.46 111.407 z" fill="rgb(226,212,187)" transform="translate(0,0)"></path>
<path d="M 727.128 1805.21 C 731.43 1804.7 735.521 1804.46 739.774 1805.52 C 742.308 1806.15 743.634 1806.51 744.958 1808.79 C 743.083 1814.89 728.89 1820.64 723.577 1825.08 C 718.967 1829.01 714.85 1833.48 711.317 1838.4 C 697.011 1858.1 690.5 1883.57 700.956 1906.47 C 704.568 1914.37 710.439 1923.41 711.577 1932.02 C 711.616 1932.31 711.636 1932.6 711.666 1932.89 C 711.19 1933.16 710.73 1933.47 710.237 1933.71 C 707.329 1935.15 705.156 1934.74 702.248 1933.62 C 693.883 1930.38 689.225 1921.89 685.802 1914.07 C 676.633 1893.12 677.198 1869.55 685.759 1848.49 C 694.006 1828.2 706.934 1813.82 727.128 1805.21 z" fill="rgb(226,212,187)" transform="translate(0,0)"></path>
<path d="M 827.724 273.061 C 834.613 272.554 841.002 277.042 839.63 284.174 C 835.381 306.254 813.535 329.45 797.205 342.825 C 793.985 344.037 793.862 344.349 790.376 343.872 C 775.736 333.692 801.61 292.597 810.985 283.511 C 817.282 277.408 819.205 275.326 827.724 273.061 z" fill="rgb(226,212,187)" transform="translate(0,0)"></path>
<path d="M 1278.21 294.332 C 1297.63 292.322 1332.04 304.036 1347.46 315.977 C 1367.99 331.866 1389.39 354.408 1393.69 380.859 C 1392.75 380.65 1391.8 380.441 1390.86 380.233 C 1383.59 372.445 1374.5 362.5 1366.98 355.249 C 1345.84 334.606 1321.27 317.796 1294.37 305.571 C 1288.01 302.706 1280.55 300.314 1278.21 294.332 z" fill="rgb(226,212,187)" transform="translate(0,0)"></path>
<path d="M 1254.92 1705.77 C 1255.66 1705.8 1256.89 1705.82 1257.58 1706.04 C 1259.53 1706.66 1260.62 1708.08 1261.13 1710.03 C 1263.76 1719.9 1246.51 1744.75 1240.52 1753.34 C 1233.54 1763.34 1223.51 1775.61 1210.97 1777.81 C 1208.01 1776.9 1205.79 1775.91 1204.16 1773.1 C 1202.19 1769.7 1202.42 1765.93 1203.49 1762.27 C 1209.6 1741.31 1235.98 1715.86 1254.92 1705.77 z" fill="rgb(226,212,187)" transform="translate(0,0)"></path>
<path d="M 740.837 573.073 C 741.735 573.679 741.15 573.198 742.116 574.95 C 741.097 581.583 738.33 587.079 734.996 592.816 C 727.546 591.706 720.145 590.127 712.752 588.687 C 709.83 588.227 707.063 587.497 704.216 586.704 C 708.951 581.876 732.991 575.728 740.837 573.073 z" fill="rgb(226,212,187)" transform="translate(0,0)"></path>
<path d="M 864.743 576.95 C 864.9 577.192 865.089 577.415 865.212 577.675 C 866.785 581.01 865.852 588.618 864.905 592.043 C 863.81 596.001 862.048 596.75 858.699 598.651 L 857.741 597.325 C 859.87 590.435 862.16 583.684 864.743 576.95 z" fill="rgb(226,212,187)" transform="translate(0,0)"></path>
<metadata><recraft-signature>{"signed_by": "recraft", "signature_b64": "5BHpDZY0wPcz2CseuQDJCksWCOZSlmoEjW1JkhqqFY6dUO0OAsev74sQbE6MJj3QcyGRt4W1vvKmw8eYhZt9Bg==", "signing_algo": "Ed25519", "generation_timestamp": 1772546118, "identifier": "bb1a9a3c-c332-426f-922d-bd671fda9b3e"}</recraft-signature></metadata></svg>