<svg xmlns="http://www.w3.org/2000/svg" height="1024" preserveAspectRatio="none" style="display: block;" version="1.1" viewBox="0 0 2048 2048" width="1024">
<path d="M 0 0 L 2048 0 L 2048 2048 L 0 2048 L 0 0 z" fill="rgb(255,255,255)" transform="translate(0,0)"></path>
<path d="M 233.599 1021 C 237.371 1020.97 240.91 1020.57 244.652 1020.21 C 254.975 1030.07 255.281 1046.4 261.487 1047.82 C 291.299 1054.61 346.811 1037.46 372.696 1028.68 C 392.81 1038.13 408.848 1018.22 415.189 1050.17 C 412.079 1056.28 411.041 1057.95 406.339 1062.93 C 425.875 1078.84 466.182 1130.73 475.7 1154.24 C 480.721 1158.01 487.282 1160.99 492.367 1165.19 C 520.125 1188.13 557.504 1217 567.154 1253.14 C 568.305 1257.45 567.215 1274.77 567.104 1279.83 C 571.566 1283.91 572.659 1284.92 576.11 1290.19 C 573.541 1310.99 576.399 1315.53 570.424 1340.27 C 564.783 1345.67 560.967 1347.08 553.899 1349.68 C 545.631 1386.99 537.223 1420.63 527.87 1457.54 C 531.248 1458.98 534.606 1460.47 537.944 1462 C 540.09 1465.09 542.447 1470.31 544.853 1472.89 C 561.758 1491.05 587.022 1492.62 610.276 1493.03 C 614.36 1500.37 620.362 1512.56 618.216 1520.78 C 610.34 1532.14 554.151 1533.47 539.465 1531.51 C 529.637 1530.2 512.022 1523.99 502.716 1519.97 L 497.352 1528.72 C 487.181 1528.84 458.696 1531.1 452.268 1525.08 C 444.699 1517.99 450.165 1486.59 456.421 1478.58 C 462.76 1470.46 469.173 1460.11 471.875 1450.55 C 475.779 1436.74 485.805 1364.05 476.839 1357.52 C 472.648 1359.5 459.925 1374.7 454.752 1378.82 C 434.099 1395.26 410.274 1416.84 387.498 1429.81 C 375.132 1436.96 316.767 1470.35 305.471 1464.05 C 305.625 1457.7 316.504 1435.24 319.063 1426.65 C 324.842 1407.24 326.699 1395.98 328.201 1376.26 C 301.867 1389.82 291.294 1406.13 266.575 1419.92 C 259.546 1423.83 256.197 1423.44 249.202 1420.86 C 226.52 1440.69 194.109 1460.77 169.171 1479.84 C 187.71 1507.41 200.804 1514.41 233.662 1515.03 C 243.368 1527.01 241.901 1530.35 241.289 1546.26 C 216.121 1546.71 192.028 1553.94 166.727 1550.09 C 152.087 1547.86 143.71 1540.83 132.856 1531.82 C 130.45 1535.5 127.985 1539.13 125.462 1542.73 C 114.449 1543.98 83.8326 1543.77 76.406 1537.27 C 66.2042 1528.34 80.5939 1488.68 87.2047 1479.22 C 92.7857 1471.88 98.791 1473.18 105.465 1465.62 C 134.59 1432.62 161.694 1398.01 189.677 1364.17 C 188.353 1360.65 185.48 1353.9 187.901 1350.72 C 198.319 1337.05 209.801 1323.94 220.785 1310.69 C 222.939 1308.1 229.149 1309.04 232.251 1309.27 C 239.151 1304.74 254.025 1275.84 257.374 1267.53 C 245.783 1238.5 232.693 1166.55 230.579 1133.63 C 230.347 1119.91 236.398 1104.74 234.878 1091.24 C 231.731 1063.27 193.409 1035.79 233.599 1021 z" fill="rgb(18,32,62)" transform="translate(0,0)"></path>
<path d="M 346.5 1116.65 C 352.456 1122.57 356.886 1153.51 357.706 1162.04 C 364.041 1227.98 366.227 1278.75 326.61 1336.03 C 315.547 1352.02 305.457 1363.63 293.77 1378.61 C 284.917 1372.59 279.669 1368.8 271.403 1361.85 C 254.985 1347.04 250.297 1342.23 237.865 1324.46 C 243.384 1316.55 248.167 1307.56 253.948 1299.79 C 294.493 1245.28 328.628 1182.83 346.5 1116.65 z" fill="rgb(223,183,68)" transform="translate(0,0)"></path>
<path d="M 344.879 1087.24 L 345.31 1087.72 C 345.473 1090.11 344.785 1092.13 344.119 1094.38 C 336.355 1120.58 286.867 1245.31 270.115 1253.1 C 268.273 1253.96 269.029 1253.83 267.105 1253.2 C 264.335 1248.23 262.912 1241.48 261.388 1235.86 C 252.277 1209.73 243.739 1160.08 243.307 1132.21 C 243.21 1125.9 245.872 1116.81 247.843 1110.78 C 262.105 1109.47 272.633 1113.03 286.159 1103.23 C 286.384 1102.75 287.799 1099.52 288.064 1099.49 C 301.187 1097.91 314.349 1095.89 327.077 1092.28 C 333.057 1090.59 338.953 1088.95 344.879 1087.24 z" fill="rgb(223,183,68)" transform="translate(0,0)"></path>
<path d="M 198.397 1374.62 C 200.615 1376.84 207.129 1385.49 209.552 1388.42 C 219.015 1399.87 225.712 1405.23 237.734 1413.66 L 237.414 1413.94 C 217.595 1431.32 186.981 1448.8 165.764 1465.88 C 149.879 1478.66 161.832 1478.14 145.145 1487.6 C 141.179 1489.94 137.046 1491.49 132.794 1493.28 C 122.036 1488.89 118.174 1486.01 110.532 1477.59 C 123.55 1465.59 130.999 1455.4 142.317 1442.38 C 161.356 1420.47 179.341 1396.26 198.397 1374.62 z" fill="rgb(255,255,255)" transform="translate(0,0)"></path>
<path d="M 539.715 1353.14 L 541.237 1353.43 C 543.04 1363.04 517.519 1445.21 515.484 1465.22 C 510.104 1471.01 506.262 1474.36 499.922 1478.9 C 493.428 1476.72 490.51 1475.52 484.373 1472.48 C 483.587 1471.25 482.759 1471.23 481.03 1470.36 C 478.646 1463.93 481.079 1458.98 482.918 1452.51 C 491.784 1421.32 492.052 1390.71 490.947 1358.41 C 508.1 1358.25 523.288 1358.74 539.715 1353.14 z" fill="rgb(255,255,255)" transform="translate(0,0)"></path>
<path d="M 389.446 1116.44 C 393.156 1118.26 394.745 1120.96 397.338 1124.25 C 392.493 1139.49 392.168 1153.6 387.903 1168.89 C 385.78 1176.49 377.6 1186.24 377.295 1194.33 C 379.814 1197.76 382.64 1197.15 387.501 1198.99 C 417.171 1210.24 472.698 1237.24 486.806 1265.2 C 485.542 1281.18 485.834 1291.05 483.614 1307.76 C 515.204 1310.8 533.993 1304.13 562.78 1294.13 C 562.909 1295.92 563.029 1297.71 563.139 1299.51 C 563.619 1306.22 564.593 1307.63 559.277 1312.09 C 530.877 1329.68 502.721 1327.77 471.185 1325.98 C 471.086 1321.12 470.648 1313.57 471.427 1308.89 C 471.682 1307.36 472.588 1307.53 474.61 1306.64 C 476.832 1301.76 475.99 1275.61 475.935 1268.89 C 454.662 1237.45 403.515 1216.84 369.427 1202.56 C 369.095 1195.09 368.397 1187.97 367.691 1180.52 C 386.874 1166.78 387.41 1137.82 389.446 1116.44 z" fill="rgb(255,255,255)" transform="translate(0,0)"></path>
<path d="M 528.967 1472.96 C 530.69 1473.95 536.406 1480.82 537.917 1482.85 C 546.957 1495.02 563.937 1499.6 578.182 1502.95 C 584.023 1504.32 597.06 1503.02 602.998 1505.78 C 605.625 1507 605.242 1510.62 605.665 1513.97 C 575.668 1521.52 552.509 1524.03 523.236 1514.47 C 515.599 1512.34 505.576 1508.11 497.503 1505.38 C 495.2 1509.03 492.845 1512.28 490.34 1515.77 C 478.976 1516.33 471.505 1515.85 460.313 1514.13 C 461.282 1500.15 462.156 1489.15 472.13 1478.4 C 479.894 1483.34 488.778 1486.53 497.855 1492.22 C 507.665 1488.2 519.909 1479.1 528.967 1472.96 z" fill="rgb(223,183,68)" transform="translate(0,0)"></path>
<path d="M 98.7561 1486.34 C 102.266 1488.04 125.551 1505.37 129.062 1508.26 C 139.696 1504.58 154.594 1498.81 163.76 1492.51 C 185.44 1520.92 191.936 1524.3 227.553 1527.53 C 230.513 1529.56 229.464 1528.29 230.974 1531.37 L 229.91 1533.01 C 225.966 1535.25 222.593 1535.25 218.051 1535.82 C 200.25 1538.64 172.327 1541.46 156.495 1532.55 C 149.079 1528.73 142.228 1523.9 134.834 1520.02 C 123.717 1514.19 121.181 1523.91 117.664 1531.81 C 105.295 1530.87 97.6349 1530.18 85.7286 1526.95 C 86.9315 1511.11 90.1331 1499.62 98.7561 1486.34 z" fill="rgb(223,183,68)" transform="translate(0,0)"></path>
<path d="M 396.202 1070.11 C 403.373 1071.4 448.057 1128.88 454.994 1138.43 C 445.215 1135.66 437.243 1131.59 428.13 1127.28 C 414.633 1120.19 403.175 1114.16 390.353 1105.9 C 379.487 1098.91 367.218 1088.83 355.956 1083.5 C 370.135 1078.67 381.606 1074.25 396.202 1070.11 z" fill="rgb(223,183,68)" transform="translate(0,0)"></path>
<path d="M 223.83 1326.09 C 246.897 1358.83 257.564 1370.63 291.939 1389.39 C 288.643 1391.87 282.395 1395.42 278.687 1397.67 C 259.738 1406.86 222.344 1354.59 213.269 1340.16 C 217.056 1334.21 219.274 1331.49 223.83 1326.09 z" fill="rgb(255,255,255)" transform="translate(0,0)"></path>
<path d="M 559.486 1317.97 C 560.336 1318.02 559.771 1317.9 560.893 1318.97 C 560.443 1323.34 560.084 1327.71 559.816 1332.09 C 535.252 1347.17 503.98 1349.74 476.101 1344.59 C 473.485 1338.29 473.306 1337.15 472.331 1330.48 C 506.263 1333.81 528.179 1334.77 559.486 1317.97 z" fill="rgb(255,255,255)" transform="translate(0,0)"></path>
<path d="M 209.706 1344.91 C 229.882 1373.63 238.099 1384.09 267.342 1404.33 L 259.6 1410.53 C 233.394 1402.12 213.656 1377.83 200.971 1354.55 C 204.114 1351.56 206.864 1348.2 209.706 1344.91 z" fill="rgb(255,255,255)" transform="translate(0,0)"></path>
<path d="M 234.315 1032.69 C 238.028 1033.21 239.568 1034.02 241.495 1037.23 C 248.774 1049.53 253.176 1063.37 259.676 1076.15 C 262.072 1080.86 270.581 1093.11 269.623 1097.54 L 266.251 1098.11 C 261.461 1098.34 253.316 1097.05 251.166 1093.9 C 245.511 1085.61 228.409 1044.5 228.207 1037.28 C 230.327 1034.03 230.345 1034.78 234.315 1032.69 z" fill="rgb(223,183,68)" transform="translate(0,0)"></path>
<path d="M 370.197 1042.04 C 373.3 1042.24 372.081 1041.59 374.212 1043.37 L 373.988 1045.21 C 356.568 1057.55 292.776 1068.06 271.254 1066.28 C 269.805 1064.46 267.723 1063.17 265.826 1061.87 C 267.313 1059.29 278.988 1060.04 282.637 1059.86 C 315.571 1058.2 339.247 1051.98 370.197 1042.04 z" fill="rgb(223,183,68)" transform="translate(0,0)"></path>
<path d="M 387.031 1039.02 C 399.839 1038.44 406.688 1044.58 399.775 1057.4 C 397.101 1059.18 397.045 1058.86 393.736 1058.79 C 388.869 1055.55 389.501 1045.81 387.031 1039.02 z" fill="rgb(223,183,68)" transform="translate(0,0)"></path>
<path d="M 302.85 579.261 C 312.813 547.26 323.573 519.49 354.339 502.018 C 392.565 480.31 423.589 514.094 438.435 546.093 C 451.928 575.176 449.889 582.063 477.604 601.144 C 484.509 600.448 488.635 600.367 495.502 602.14 C 523.123 609.272 539.048 600.749 545.385 634.842 C 578.068 648.098 582.422 662.512 549.682 680.803 C 543.387 680.152 536.042 679.353 529.938 677.743 C 513.442 701.547 520.735 708.21 513.697 730.486 C 507.646 749.638 485.184 806.887 469.78 816.931 C 452.977 817.475 388.716 809.184 372.194 804.497 C 376.647 814.639 380.341 825.098 383.246 835.787 L 371.678 836.438 C 367.227 823.884 353.042 787.145 342.415 780.736 C 338.606 780.421 340.343 780.062 336.995 781.765 C 336.375 789.166 369.003 823.911 361.416 836.924 C 358.672 837.799 355.878 836.213 354.815 833.657 C 347.611 816.351 340.996 799.817 328.563 785.434 C 320.498 788.504 312.222 789.268 306.14 792.755 C 305.14 806.334 306.871 822.893 309.165 836.475 C 298.54 836.799 287.908 836.863 277.28 836.668 C 273.279 830.191 265.571 816.132 259.528 812.722 C 247.353 813.6 235.869 819.84 224.015 823.431 C 214.069 826.445 204.304 827.84 194.674 830.458 C 211.557 830.89 233.464 829.422 248.805 837.341 L 248.959 838.732 C 240.596 841.376 193.1 836.251 184.575 831.937 C 182.124 828.157 181.631 826.711 179.922 822.459 C 203.233 816.128 218.035 812.991 241.035 804.16 C 237.745 793.364 232.103 771.835 242.748 763.823 L 244.346 763.881 C 251.366 771.754 238.12 799.327 260.645 802.921 C 263.991 802.701 262.396 802.95 265.685 800.605 C 267.171 801.091 268.533 801.386 270.07 801.624 C 274.342 800.887 274.915 801.509 277.717 799.14 C 264.953 774.936 260.276 764.039 261.286 737.237 C 231.84 732.891 183.425 720.982 161.969 738.581 C 123.6 770.054 148.769 799.301 161.135 833.052 C 160.7 833.737 160.265 834.423 159.83 835.109 C 156.197 836.363 154.878 836.043 151.093 835.844 C 146.596 833.357 144.307 821.951 141.965 817.588 C 121.422 779.325 125.614 746.482 164.491 722.553 L 162.777 711.115 C 155.134 707.429 136.888 698.843 132.941 690.563 C 129.574 683.498 140.059 671.758 136.705 661.501 C 132.711 649.287 114.533 651.389 123.277 633.203 C 126.029 627.479 134.84 614.684 139.173 610.086 C 125.315 576.771 98.844 560.605 63.5332 556.888 C 56.2313 556.12 45.5408 559.178 41.9923 551.241 C 42.8053 546.615 46.5269 544.025 50.2997 541.445 C 74.5119 524.89 106.069 519.949 134.521 525.793 C 160.355 531.099 191.178 546.264 211.758 562.295 C 221.055 557.39 246.327 547.123 256.3 549.636 C 262.208 554.136 267.802 565.94 272.737 572.826 C 285.061 574.077 291.64 573.737 302.85 579.261 z" fill="rgb(18,32,62)" transform="translate(0,0)"></path>
<path d="M 475.24 645.86 C 482.758 649.306 490.554 651.523 499.265 655.684 C 502.427 660.147 502.658 663.258 506.472 667.275 L 509.595 667.213 C 512.068 664.406 511.533 661.962 511.956 657.628 C 514.936 656.096 518.188 655.299 521.267 656.941 C 526.075 665.632 513.173 683.42 506.998 689.976 C 507.054 692.795 507.021 695.614 506.9 698.431 C 506.556 706.778 505.513 718.834 503.408 726.417 C 500.539 736.752 471.166 802.73 466.129 804.651 C 456.914 808.164 384.278 795.15 369.902 792.362 C 365.895 791.585 365.268 790.366 363.762 787.63 C 362.392 768.937 379.218 765.312 392.258 759.653 C 400.086 756.256 406.519 752.415 414.825 749.206 C 425.007 753.41 435.362 757.181 445.863 760.51 C 454.805 745.459 456.067 742.539 461.414 725.75 C 470.332 717.963 485.349 712.646 490.983 700.558 C 492.722 696.828 494.335 690.405 493.015 686.367 C 460.06 722.456 333.856 771.794 284.883 788.961 C 279.845 771.514 278.105 753.03 278.019 734.931 C 297.114 730.346 317.021 725.743 335.718 719.869 C 383.065 704.995 430.678 693.491 477.49 676.918 C 473.67 665.429 467.26 656.097 475.24 645.86 z" fill="rgb(255,255,255)" transform="translate(0,0)"></path>
<path d="M 371.796 509.201 C 385.202 508.379 395.845 510.412 404.886 521.755 C 420.056 540.789 431.145 566.313 437.951 589.612 C 439.339 594.364 434.969 605.916 438.002 612.617 L 439.993 613.036 C 442.441 610.562 443.266 606.51 444.79 602.778 L 446.13 603.012 C 449.937 621.067 468.683 615.2 476.726 621.23 L 476.366 622.952 C 467.288 628.719 445.515 614.42 436.829 615.704 C 435.993 615.827 424.964 628.254 423.062 630.365 C 419.488 634.332 415.244 637.019 410.626 640.087 C 397.934 649.063 382.183 658.009 368.347 663.625 C 303.934 689.434 305.007 586.799 324.909 552.328 C 337.878 529.865 346.022 517.882 371.796 509.201 z" fill="rgb(255,255,255)" transform="translate(0,0)"></path>
<path d="M 406.531 566.462 C 410.12 566.046 417.138 567.725 420.076 569.814 C 433.889 579.632 433.303 604.784 423.806 617.245 C 418.05 624.796 410.805 627.299 402.024 628.467 C 371.669 628.753 369.03 594.094 385.282 575.311 C 391.509 568.114 397.51 567.006 406.531 566.462 z" fill="rgb(18,32,62)" transform="translate(0,0)"></path>
<path d="M 391.931 522.67 C 396.816 523.169 400.806 524.798 400 530.24 C 397.418 533.369 388.902 535.945 384.39 538.314 C 368.27 546.779 357.424 566.871 352.432 583.728 L 351.542 586.363 L 350.761 586.454 C 351.797 558.245 368.537 536.661 391.931 522.67 z" fill="rgb(18,32,62)" transform="translate(0,0)"></path>
<path d="M 349.05 608.415 C 353.466 612.044 355.652 625.257 359.887 631.566 C 364.654 638.671 379.578 645.299 379.434 652.96 C 359.739 662.918 348.957 622.674 349.05 608.415 z" fill="rgb(18,32,62)" transform="translate(0,0)"></path>
<path d="M 294.977 588.313 L 296.43 588.074 C 303.272 590.808 302.172 596.504 302.087 603.095 C 301.83 622.81 302.883 644.048 314.494 660.939 C 342.778 702.086 400.102 666.825 428.982 645.127 C 439.108 637.51 449.034 647.241 459.502 649.397 C 460.248 655.621 461.13 661.828 462.147 668.013 C 453.232 674.004 424.395 681.116 412.544 684.596 C 406.569 685.775 393.149 690.092 386.786 691.951 L 337.709 706.346 C 321.065 711.391 307.045 716.246 289.799 719.257 C 295.321 711.93 301.786 707.42 307.308 700.419 C 313.125 693.045 298.875 683.924 306.044 676.017 C 310.057 671.591 303.415 664.058 302.008 658.17 L 304.3 654.764 C 299.505 651.145 298.796 649.864 295.998 644.534 C 296.665 643.03 297.285 641.505 297.855 639.962 C 303.585 624.201 275.964 613.073 266.375 592.186 C 276.861 591.588 284.658 590.245 294.977 588.313 z" fill="rgb(255,255,255)" transform="translate(0,0)"></path>
<path d="M 218.5 645.439 C 224.779 649.353 231.513 661.548 243.709 664.1 C 261.062 667.731 274.684 658.44 288.864 650.302 C 291.64 651.727 290.603 650.692 291.978 653.612 C 291.637 657.018 288.925 660.571 287.039 663.608 L 287.609 665.46 C 291.188 665.975 289.034 663.325 293.648 662.28 L 301.469 667.676 C 286.396 674.367 295.805 680.368 298.676 692.382 L 298.986 693.731 C 292.996 699.689 287.433 705.965 281.46 711.898 C 279.819 713.529 280.176 712.837 276.771 712.663 C 262.858 710.72 222.707 706.151 208.588 701.601 C 202.589 699.668 202.939 688.069 211.03 680.789 L 212.013 679.918 L 210.92 679.164 C 206.459 678.808 203.836 679.889 199.563 681.087 C 192.217 678.158 182.874 671.856 182.756 663.948 C 182.361 637.619 205.288 654.005 213.114 660.594 C 214.669 654.106 215.139 651.349 218.5 645.439 z" fill="rgb(255,255,255)" transform="translate(0,0)"></path>
<path d="M 96.4026 537.189 C 134.118 531.75 168.61 551 199.803 568.494 C 184.027 576.629 177.781 580.429 163.908 590.78 C 159.391 594.041 153.627 599.04 149.217 602.662 C 145.048 595.797 142.719 589.953 137.565 583.125 C 117.951 557.141 97.6904 549.999 67.2375 545.172 C 76.8238 542.039 86.557 539.375 96.4026 537.189 z" fill="rgb(223,183,68)" transform="translate(0,0)"></path>
<path d="M 249.29 562.142 C 254.086 563.713 257.387 570.408 260.201 574.893 C 223.781 585.651 187.762 606.053 165.387 637.848 C 161.24 643.741 157.106 656.514 153.877 658.305 C 150.76 657.457 151.32 657.018 148.81 653.772 C 146.218 650.142 138.169 645.62 133.335 641.336 C 137.565 631.605 146.123 622.748 153.492 615.216 C 181.572 586.517 211.468 572.901 249.29 562.142 z" fill="rgb(223,183,68)" transform="translate(0,0)"></path>
<path d="M 263.825 613.072 C 270.694 613.612 281.282 625.464 284.117 631.71 C 285.168 634.023 277.019 639.888 274.906 641.431 C 268.69 645.97 264.587 648.915 256.731 649.799 C 252.704 649.308 246.745 647.992 244.082 644.842 C 243.213 641.575 242.865 640.554 241.568 637.431 C 238.669 636.012 238.085 635.951 235.781 633.63 C 233.518 623.738 256.157 615.482 263.825 613.072 z" fill="rgb(255,255,255)" transform="translate(0,0)"></path>
<path d="M 257.116 624.136 C 263.965 623.339 278.875 625.356 274.523 634.754 C 272.469 639.189 267.25 645.326 262.12 644.639 C 262.189 638.388 266.865 639.273 267.658 628.617 C 250.252 632.191 260.391 640.954 254.31 645.802 C 248.86 645.55 245.737 640.959 245.23 635.908 C 247.425 629.543 251.52 627.532 257.116 624.136 z" fill="rgb(18,32,62)" transform="translate(0,0)"></path>
<path d="M 250.196 723.207 C 231.693 722.9 213.901 717.946 195.542 719.143 C 189.201 719.556 183.031 720.518 179.252 714.437 L 179.992 712.378 C 187.212 707.189 202.944 710.278 211.221 712.213 C 227.933 716.122 243.9 719.143 260.916 721.328 C 266.814 721.931 271.03 722.454 276.904 723.543 C 271.79 723.766 254.16 724.775 250.196 723.207 z" fill="rgb(255,255,255)" transform="translate(0,0)"></path>
<path d="M 260.916 721.328 C 266.814 721.931 271.03 722.454 276.904 723.543 C 271.79 723.766 254.16 724.775 250.196 723.207 C 254.775 721.986 256.511 724.129 260.916 721.328 z" fill="rgb(238,237,238)" transform="translate(0,0)"></path>
<path d="M 485.112 612.314 C 494.239 614.274 504.154 616.883 513.384 618.46 C 518.975 619.416 508.246 650.31 497.433 638.571 L 498.937 636.291 C 501.738 632.622 506.521 626.663 502.958 622.771 C 495.472 621.718 495.563 634.759 488.027 637.053 C 484.814 635.977 486.288 636.587 483.643 633.417 C 488.125 624.899 490.573 622.161 485.758 613.459 L 485.112 612.314 z" fill="rgb(255,255,255)" transform="translate(0,0)"></path>
<path d="M 541.626 645.889 C 548.397 647.086 558.449 650.482 559.171 658.477 C 556.631 666.745 554.551 662.268 550.522 666.093 C 546.655 669.168 541.057 670.614 536.618 667.923 C 530.291 660.553 536.075 651.588 541.626 645.889 z" fill="rgb(255,255,255)" transform="translate(0,0)"></path>
<path d="M 522.409 620.568 C 537.509 623.864 530.447 634.495 525.018 643.536 L 520.353 643.622 L 519.157 642.322 C 518.77 635.733 520.735 626.961 522.409 620.568 z" fill="rgb(255,255,255)" transform="translate(0,0)"></path>
<path d="M 445.049 733.231 C 446.647 736.802 441.907 742.465 438.711 743.985 C 435.769 745.385 434.039 743.993 431.254 743.017 C 430.415 742.621 429.372 741.823 428.569 741.271 C 430.534 738.966 441.456 734.795 445.049 733.231 z" fill="rgb(255,255,255)" transform="translate(0,0)"></path>
<path d="M 529.542 772.336 L 2001.8 772.976 L 2001.83 799.061 L 1984.87 798.993 L 1072.73 799.615 L 705.5 799.236 C 641.639 798.926 577.776 799.111 513.918 799.79 C 518.449 790.27 523.671 781.094 529.542 772.336 z" fill="rgb(223,183,68)" transform="translate(0,0)"></path>
<path d="M 457.097 1076.04 L 2006.31 1076.19 L 2006.26 1099.62 L 480.114 1099.77 C 472.402 1091.9 464.729 1083.98 457.097 1076.04 z" fill="rgb(223,183,68)" transform="translate(0,0)"></path>
<path d="M 984.538 864.019 L 1019.98 863.775 C 1011.43 887.739 983.834 926.699 977.727 950.209 C 976.76 953.932 977.207 998.874 977.218 1006.66 C 966.222 1006.49 955.006 1006.55 943.989 1006.51 L 944.042 990.634 C 944.118 983.757 944.802 952.03 943.345 948.546 C 933.997 926.2 915.36 886.729 903.676 866.803 C 903.733 876.7 904.109 884.949 902.672 894.768 L 871.204 894.897 C 870.409 931.689 871.127 969.727 870.677 1006.77 L 838.377 1006.79 L 838 895.462 C 827.031 895.331 816.06 895.334 805.09 895.471 L 804.944 863.985 L 938.495 863.827 C 946.218 878.666 954.229 896.514 961.661 911.843 C 969.055 898.082 977.075 878.84 984.538 864.019 z" fill="rgb(18,32,62)" transform="translate(0,0)"></path>
<path d="M 699.739 863.903 C 742.184 863.631 802.638 853.827 798.785 917.567 C 797.7 935.519 790.1 943.219 777.428 954.389 C 785.479 970.918 797.394 989.492 806.224 1006.75 L 780.25 1006.87 C 776.658 1006.93 773.431 1006.88 769.84 1006.78 C 761.73 1001.16 749.832 958.49 736.378 957.947 C 732.6 961.708 733.238 998.437 732.857 1007.18 L 700.267 1007.17 C 701.449 961.838 699.912 909.827 699.739 863.903 z" fill="rgb(18,32,62)" transform="translate(0,0)"></path>
<path d="M 733.135 893.107 C 756.495 892.5 767.584 893.757 766.853 919.781 C 765.228 922.354 763.3 924.929 761.521 927.414 C 753.526 933.292 743.08 932.088 733.298 932.063 L 733.135 893.107 z" fill="rgb(255,255,255)" transform="translate(0,0)"></path>
<path d="M 186.126 862.839 C 196.408 862.436 207.871 862.739 218.24 862.791 L 218.358 914.14 C 238.574 914.686 260.146 914.231 280.458 914.144 L 280.921 862.978 L 313.157 862.974 L 313.429 959.074 C 313.363 971.681 313.819 992.942 312.721 1005.08 C 310.779 1007.04 311.972 1006.26 308.25 1006.4 L 280.691 1006.39 C 279.795 987.944 280.317 965.774 280.281 947.052 L 218.046 946.893 L 218.001 1006.34 L 186.071 1006.44 L 186.126 862.839 z" fill="rgb(18,32,62)" transform="translate(0,0)"></path>
<path d="M 1156.99 863.981 C 1178.06 863.902 1223.03 860.67 1237.97 873.146 C 1270.18 900.038 1260.73 954.741 1216.21 962.814 C 1206.68 964.026 1198.73 963.917 1189.18 963.959 L 1189.05 1006.13 L 1156.98 1006.21 L 1156.99 863.981 z" fill="rgb(18,32,62)" transform="translate(0,0)"></path>
<path d="M 1188.91 894.989 C 1198.7 894.607 1207.9 893.905 1216.49 899.605 C 1227.96 907.216 1226.29 918.239 1219.12 928.221 C 1217.3 929.834 1213.78 932.305 1211.71 933.847 C 1204.42 934.133 1196.4 933.797 1189.05 933.636 L 1188.91 894.989 z" fill="rgb(255,255,255)" transform="translate(0,0)"></path>
<path d="M 481.885 863.818 C 506.813 863.713 541.543 860.106 562.952 875.113 C 572.238 882.043 578.675 893.267 579.862 904.769 C 583.449 939.525 567.17 958.694 533.253 962.507 C 528.805 962.902 519.823 962.508 514.979 962.413 L 515.013 1007.32 C 504.313 1007.61 492.957 1007.38 482.205 1007.34 L 481.885 863.818 z" fill="rgb(18,32,62)" transform="translate(0,0)"></path>
<path d="M 514.683 895.048 C 535.182 894.263 543.135 892.549 548.404 914.334 C 546.734 920.029 546.305 921.364 543.408 926.501 C 534.993 934.668 525.73 932.398 514.683 932.035 L 514.683 895.048 z" fill="rgb(255,255,255)" transform="translate(0,0)"></path>
<path d="M 340.981 862.987 L 431.021 862.998 L 431.065 894.05 L 373.143 893.916 L 373.119 920.019 L 415.192 919.972 L 414.903 950.618 L 373.199 950.562 L 373.022 964.848 C 372.939 968.164 373.029 969.317 373.383 972.64 C 376.224 975.391 423.553 974.119 431.035 974.087 C 430.816 984.481 430.986 995.616 430.984 1006.06 L 341.81 1006.24 L 340.981 862.987 z" fill="rgb(18,32,62)" transform="translate(0,0)"></path>
<path d="M 1268.21 864.066 L 1355.37 863.968 C 1355.44 874.44 1355.34 884.913 1355.09 895.382 C 1337.95 896.078 1318.01 895.685 1300.66 895.772 L 1300.38 920.046 L 1344.85 920.038 C 1344 929.306 1344.15 939.553 1344.07 948.931 L 1301.02 948.901 L 1301 963.5 L 1301.01 975.041 L 1356.85 975.111 C 1356.9 985.382 1356.77 995.652 1356.47 1005.92 C 1327.44 1006.34 1297.74 1006.08 1268.66 1006.14 C 1267.84 991.136 1268.23 972.632 1268.17 957.425 L 1268.21 864.066 z" fill="rgb(18,32,62)" transform="translate(0,0)"></path>
<path d="M 623.468 862.825 C 627.844 862.553 634.062 861.751 636.202 866.313 C 642.563 879.079 646.398 893.514 652.281 906.396 C 667.333 939.357 679.415 973.919 694.162 1006.9 C 683.023 1007.14 671.789 1007.16 660.641 1007.27 C 657.584 1000.69 654.59 994.074 651.658 987.435 L 629.954 987.36 L 604.989 987.261 C 603.067 993.221 598.267 1001.28 595.127 1006.98 C 583.821 1007.05 572.515 1007.03 561.209 1006.91 C 565.799 994.25 575.288 974.226 580.827 961.462 C 595.355 928.72 609.569 895.839 623.468 862.825 z" fill="rgb(18,32,62)" transform="translate(0,0)"></path>
<path d="M 627.363 921.719 C 629.687 924.631 639.503 952.537 641.558 957.954 L 629.02 958.087 L 612.964 957.936 C 617.649 945.818 622.449 933.745 627.363 921.719 z" fill="rgb(255,255,255)" transform="translate(0,0)"></path>
<path d="M 1590.58 859.58 C 1592.84 861.496 1594.94 863.506 1596.24 866.206 C 1618.13 911.787 1636.16 962.026 1659.9 1006.66 C 1647.42 1006.88 1634.6 1006.53 1622.09 1006.34 C 1618.13 997.456 1616.25 992.409 1613.53 983.104 L 1590.75 983.07 L 1565.75 983.265 C 1563.42 990.779 1560.34 999.095 1557.75 1006.61 C 1546.9 1007.15 1533.29 1006.76 1522.19 1006.7 C 1536.24 976.369 1549.97 945.886 1563.36 915.255 C 1568.34 903.907 1582.78 866.695 1590.58 859.58 z" fill="rgb(18,32,62)" transform="translate(0,0)"></path>
<path d="M 1588.96 919.584 C 1592.87 926.692 1600.75 948.082 1603.6 956.087 L 1590.85 956.292 L 1575.85 956.202 C 1580.74 943.302 1585.24 932.942 1588.96 919.584 z" fill="rgb(255,255,255)" transform="translate(0,0)"></path>
<path d="M 1100.31 861.43 C 1111.55 860.867 1129.36 868.476 1139.09 873.399 C 1135.89 882.956 1132.85 892.669 1128.78 901.878 C 1116.48 895.288 1112.44 894.256 1098.63 891.237 C 1072.92 903.439 1093.48 914.8 1109.34 920.533 C 1168.36 941.877 1151.13 1011.13 1088.8 1008.93 C 1071.45 1005.84 1064.8 1004.94 1049.48 995.616 C 1052.92 986.05 1056.12 976.58 1060.55 967.417 C 1074.19 974.643 1093.43 984.895 1107.34 974.226 C 1111.01 971.41 1111.75 970.628 1112.39 966.171 C 1109.98 958.052 1099.42 953.24 1092.2 949.917 C 1083.93 946.273 1076.72 943.172 1069.28 937.928 C 1043.39 919.671 1049.66 878.359 1077.73 866.004 C 1086.11 862.316 1091.39 862.037 1100.31 861.43 z" fill="rgb(18,32,62)" transform="translate(0,0)"></path>
<path d="M 1844.82 861.252 C 1866.45 859.427 1876.2 863.44 1893.99 874.45 C 1891.42 883.773 1886.24 893.853 1881.94 902.626 C 1874.15 896.304 1866.26 889.082 1855.92 890.668 C 1823.32 895.667 1838.67 917.16 1861.94 921.695 C 1878.23 924.869 1894.99 939.377 1896.73 956.418 C 1900.13 989.531 1879.69 1006.23 1848.62 1008.49 C 1828.93 1007.74 1814.85 1004.13 1799.95 990.727 C 1805.1 982.101 1809.66 974.903 1815.47 966.756 C 1824.64 973.066 1855.39 989.626 1865.11 970.056 C 1867.01 966.231 1862.71 958.088 1860.42 954.467 C 1840.61 943.268 1813.25 944.524 1807.56 917.618 C 1801.38 888.441 1817.36 867.827 1844.82 861.252 z" fill="rgb(18,32,62)" transform="translate(0,0)"></path>
<path d="M 1426.07 862.386 C 1444.52 861.541 1458.06 868.741 1472.93 878.563 C 1467.24 887.288 1461.16 895.386 1454.98 903.755 C 1442.76 897.344 1429.9 891.256 1416.1 897.643 C 1395.38 906.881 1391.21 940.524 1401.08 958.92 C 1415.22 985.274 1436.6 977.158 1457.07 966.821 C 1459.89 971.775 1463.96 976.703 1467.47 981.275 C 1469.61 984.258 1472.1 988.883 1474 992.16 C 1463.51 1000.86 1450.72 1006.31 1437.18 1007.83 C 1344.13 1017.98 1335.14 869.56 1426.07 862.386 z" fill="rgb(18,32,62)" transform="translate(0,0)"></path>
<path d="M 61.1008 862.01 C 96.8242 861.967 132.547 862.191 168.267 862.682 L 168.171 893.963 C 155.523 894.003 142.876 894.191 130.232 894.525 L 130.095 970.25 L 130.052 1006.32 L 98.0672 1006.35 L 98.011 894.908 C 85.8262 894.103 73.3072 894.301 61.075 894.292 L 61.1008 862.01 z" fill="rgb(18,32,62)" transform="translate(0,0)"></path>
<path d="M 1927.96 864.492 C 1951.34 864.247 1974.73 864.143 1998.12 864.179 L 1997.91 894.375 C 1986.74 894.263 1975.56 894.344 1964.39 894.616 C 1963.39 928.02 1964.39 967.171 1964.26 1001.25 C 1964.29 1003.54 1964.39 1003.41 1963.12 1005.3 C 1956.31 1007.25 1940.79 1006.55 1932.98 1006.45 L 1932.42 894.599 C 1922.16 894.116 1909.29 894.339 1898.86 894.271 C 1899.43 884.347 1899.9 874.691 1901.05 864.802 L 1927.96 864.492 z" fill="rgb(18,32,62)" transform="translate(0,0)"></path>
<path d="M 1665.39 863.041 L 1696.03 863.064 L 1696 975.521 C 1713.48 975.897 1731.54 975.448 1749.07 975.227 L 1749.03 1006.66 L 1664.92 1006.75 C 1665.56 958.993 1665.29 910.838 1665.39 863.041 z" fill="rgb(18,32,62)" transform="translate(0,0)"></path>
<path d="M 1483.54 864.807 C 1494.17 864.562 1505.68 864.765 1516.38 864.776 C 1516.04 911.765 1516.93 959.645 1516.94 1006.8 L 1483.26 1006.65 C 1483.7 959.453 1482.54 911.97 1483.54 864.807 z" fill="rgb(18,32,62)" transform="translate(0,0)"></path>
<path d="M 1758.79 863.154 L 1789.68 863.151 C 1788.99 910.249 1789.84 959.346 1789.92 1006.66 L 1758.88 1006.83 L 1758.79 863.154 z" fill="rgb(18,32,62)" transform="translate(0,0)"></path>
<path d="M 49.1162 1076.19 C 100.698 1075.31 154.166 1076.02 205.889 1076.08 L 206.142 1099.86 L 48.976 1099.4 L 49.1162 1076.19 z" fill="rgb(223,183,68)" transform="translate(0,0)"></path>
<path d="M 49.5619 774.835 L 110.025 774.872 C 110.062 782.728 110.362 792.21 109.614 799.897 L 49.4107 799.93 L 49.5619 774.835 z" fill="rgb(223,183,68)" transform="translate(0,0)"></path>
<path d="M 260.645 802.921 L 260.562 802.062 C 257.142 798.129 252.682 786.106 256.94 782.044 C 257.477 782.355 267.326 797.988 270.07 801.624 C 268.533 801.386 267.171 801.091 265.685 800.605 C 262.396 802.95 263.991 802.701 260.645 802.921 z" fill="rgb(26,41,66)" transform="translate(0,0)"></path>
<metadata><recraft-signature>{"signed_by": "recraft", "signature_b64": "JZwSp/Df4nptZU7kGxuVqB34MX32TBt2KnzN/zPVtPJRH80Aw0Py+5Zoe8ohGclcHLJzZw1bwGEPXxbEZaw+Cw==", "signing_algo": "Ed25519", "generation_timestamp": 1772546233, "identifier": "826b9692-b09d-4c0f-945d-986a92c98109"}</recraft-signature></metadata></svg>