<svg xmlns="http://www.w3.org/2000/svg" height="1024" preserveAspectRatio="none" style="display: block;" version="1.1" viewBox="0 0 2048 2048" width="1024">
<path d="M 0 0 L 2048 0 L 2048 2048 L 0 2048 L 0 0 z" fill="rgb(252,251,250)" transform="translate(0,0)"></path>
<path d="M 393.785 694.768 C 352.578 693.817 305.802 700.655 274.036 729.261 C 266.795 735.781 256.117 749.399 266.163 757.664 C 268.823 759.852 269.978 761.047 273.475 761.69 C 290.31 756.805 294.775 746.385 315.544 756.857 C 345.953 772.189 339.876 821.395 306.914 828.577 C 278.48 834.915 253.634 817.156 247.927 789.144 C 244.413 772.268 247.822 754.687 257.389 740.347 C 300.608 675.301 408.362 684.445 474.985 697.361 C 521.803 706.438 574.063 705.385 617.116 682.765 C 626.653 677.712 641.633 667.513 647.59 658.671 C 658.775 641.551 659.78 615.911 684.274 611.531 C 730.498 603.264 746.024 658.109 720.026 688.464 C 681.444 733.513 621.669 727.814 569.428 718.898 C 553.718 757 548.959 777.617 544.52 818.261 L 548.195 818.194 C 554.232 809.458 560.071 802.587 568.692 796.282 C 583.914 785.252 602.891 780.717 621.455 783.674 C 686.227 793.912 664.631 894.83 676.404 939.217 C 681.473 958.324 687.096 965.551 698.468 981.026 L 631.781 981.098 C 624.252 981.129 594.561 981.708 588.984 980.129 C 589.463 976.795 604.638 964.158 607.671 958.912 C 627.807 923.965 631.623 880.723 612.62 844.443 C 596.999 814.619 561.191 809.197 542.697 839.514 C 540.54 871.466 547.983 922.303 561.23 950.76 C 565.828 960.638 573.581 971.381 579.643 980.709 C 569.107 981.436 480.187 981.697 476.54 979.448 C 477.178 976.861 482.239 969.302 483.953 966.763 C 511.441 926.062 511.652 872.936 510.168 825.512 C 509.561 806.132 507.531 781.701 500.375 763.656 C 498.176 758.11 488.911 749.226 484.567 744.813 C 500.796 732.413 524.886 722.874 544.983 718.921 L 546.762 716.721 C 515.663 711.568 478.591 702.657 446.959 700.59 C 415.193 759.21 415.506 869.706 432.638 934.433 C 435.965 947.002 444.441 967.292 456.348 973.437 C 459.789 975.213 460.452 975.062 461.691 977.823 C 460.675 979.319 460.1 980.877 457.992 980.894 C 424.423 981.168 390.879 982.309 357.323 982.747 C 353.425 982.798 344.628 982.396 341.36 980.728 C 338.991 977.326 339.294 979.053 339.593 975.572 C 342.876 970.356 345.167 968.859 348.895 964.388 C 354.792 957.313 359.154 948.857 362.649 940.399 C 390.51 872.984 352.411 756.577 393.785 694.768 z" fill="rgb(179,36,39)" transform="translate(0,0)"></path>
<path d="M 544.52 818.261 L 548.195 818.194 C 545.935 822.231 543.778 825.301 544.52 818.261 z" fill="rgb(236,208,205)" transform="translate(0,0)"></path>
<path d="M 546.762 716.721 C 547.988 716.94 550.312 717.136 551.132 718.161 L 551.157 718.369 C 550.767 718.809 549.636 718.892 549.081 718.907 C 547.715 718.933 546.349 718.938 544.983 718.921 L 546.762 716.721 z" fill="rgb(223,152,154)" transform="translate(0,0)"></path>
<path d="M 495.448 745.759 C 515.716 733.269 538.044 724.381 562.003 722.338 C 543.796 763.889 539.969 800.842 537.318 844.873 C 536.91 851.649 520.727 879.051 516.682 887.526 C 516.528 888.285 516.552 889.339 515.714 889.703 C 514.128 888.824 515.491 880.394 515.73 878.729 C 517.301 848.068 516.655 818.4 512.837 787.882 C 510.541 769.529 506.858 760.053 495.448 745.759 z" fill="rgb(224,207,189)" transform="translate(0,0)"></path>
<path d="M 515.73 878.729 C 516.029 881.663 516.346 884.596 516.682 887.526 C 516.528 888.285 516.552 889.339 515.714 889.703 C 514.128 888.824 515.491 880.394 515.73 878.729 z" fill="rgb(223,152,154)" transform="translate(0,0)"></path>
<path d="M 1314.74 1033.3 C 1345.37 1030.5 1377.73 1023.23 1404.68 1007.87 C 1413.92 1002.6 1421.62 996.01 1430.2 990.657 C 1422.96 1007.22 1414.79 1028.21 1411.68 1046.75 C 1400.57 1112.89 1392.39 1195.92 1413.98 1260.38 C 1433.78 1319.5 1464.27 1244.48 1466.35 1218.12 C 1469.92 1172.84 1464.49 1138.36 1428.67 1107.38 C 1464.8 1104.04 1495.65 1086.23 1525.27 1066.77 C 1509.1 1124.58 1493.8 1205.65 1525.32 1259.9 C 1531.68 1270.85 1539.1 1280.43 1547.05 1290.24 L 1360.76 1289.73 L 1309.99 1289.21 C 1278.29 1289.14 1254.29 1296.84 1252.14 1256.5 C 1251.84 1251.87 1253.2 1250.43 1250.67 1246.88 C 1247.61 1254.38 1245.3 1260.05 1240.34 1266.59 C 1222.45 1290.18 1186.6 1296.83 1159.66 1286.74 C 1132.01 1276.39 1121.83 1237.19 1132.42 1211.55 C 1144.31 1183.04 1181.95 1175.81 1208.04 1166.06 C 1221.83 1161.44 1236.32 1156.85 1242.94 1142.42 C 1249.33 1128.69 1247.65 1113.07 1243.03 1099.29 C 1237.53 1082.85 1217.65 1077.94 1203.16 1084.68 C 1186.03 1092.65 1193.36 1100.84 1202.91 1109.59 C 1216.51 1122.06 1216.64 1144.38 1199.34 1154.25 C 1191.45 1158.71 1182.12 1159.89 1173.37 1157.53 C 1156.38 1152.85 1143.61 1134.46 1149.69 1117.01 C 1162.92 1079.05 1219.83 1070.1 1253.15 1081.99 C 1271.29 1088.37 1286.02 1101.89 1293.94 1119.42 C 1312.17 1159.37 1294.22 1238.23 1320.57 1282.16 C 1347.28 1265.12 1355.43 1208.55 1357.05 1179.6 C 1360.37 1120.1 1362.16 1075.4 1314.74 1033.3 z" fill="rgb(179,36,39)" transform="translate(0,0)"></path>
<path d="M 1250.67 1246.88 C 1251.74 1242.28 1254.2 1237.85 1256.34 1233.68 C 1254.56 1241.83 1253.58 1248.42 1252.14 1256.5 C 1251.84 1251.87 1253.2 1250.43 1250.67 1246.88 z" fill="rgb(236,208,205)" transform="translate(0,0)"></path>
<path d="M 1411.71 1017.91 C 1412.16 1020.36 1402.61 1065.25 1401.72 1072.96 C 1394.28 1137.35 1397.63 1210.92 1346.95 1259.36 C 1349.61 1251.58 1351.63 1244.1 1353.81 1236.19 C 1363.08 1203.99 1364.14 1172.22 1363.48 1139.14 C 1362.66 1097.97 1362.04 1083.64 1337.81 1051.15 C 1371.6 1066.07 1388.57 1036.48 1410.65 1018.75 L 1411.71 1017.91 z" fill="rgb(224,207,189)" transform="translate(0,0)"></path>
<path d="M 1263.13 1097.62 C 1277.35 1135.34 1262.15 1198.88 1248.2 1235.99 C 1236.14 1268.07 1203.15 1254.69 1194.15 1229.47 C 1190.33 1218.48 1191.18 1206.41 1196.5 1196.06 C 1213.26 1162.8 1255.2 1164.31 1263.11 1126.39 C 1264.65 1119.01 1264 1106.6 1261.63 1099.48 L 1263.13 1097.62 z" fill="rgb(252,251,250)" transform="translate(0,0)"></path>
<path d="M 1513.75 1084.8 C 1513.7 1088.33 1508.17 1112.99 1507.32 1118.5 C 1501.38 1157.24 1498.79 1181.7 1504.74 1220.59 C 1504.39 1220.64 1504.05 1220.69 1503.7 1220.74 L 1501.99 1221.03 C 1487.14 1223.43 1477.35 1230.56 1467.46 1241.26 C 1469.66 1232.51 1470.55 1227.17 1471.55 1218.24 C 1471.84 1216.84 1472.31 1211.17 1472.4 1209.52 C 1474.53 1169.81 1469.26 1145.58 1443.74 1115.7 C 1478.05 1121.1 1492.13 1108.26 1513.75 1084.8 z" fill="rgb(224,207,189)" transform="translate(0,0)"></path>
<path d="M 1261.63 1099.48 C 1261.22 1098.3 1258.75 1092.85 1259.72 1091.88 L 1259.99 1091.9 C 1259.84 1092.34 1259.87 1092.13 1259.89 1092.54 L 1260.86 1092.79 C 1261.81 1094.32 1262.45 1095.96 1263.13 1097.62 L 1261.63 1099.48 z" fill="rgb(223,152,154)" transform="translate(0,0)"></path>
<path d="M 396.262 1101.46 C 421.353 1093.59 459.36 1075.48 483.418 1063.56 C 483.012 1076.28 478.962 1108.17 476.674 1120.64 C 487.076 1106.14 499.071 1090.05 515.106 1081.35 C 531.002 1072.61 549.754 1070.66 567.108 1075.94 C 616.77 1091 638.325 1154.85 621.691 1200.49 C 610.772 1230.45 585.042 1274.3 556.297 1289.31 C 542.357 1288.5 528.463 1288.06 514.557 1286.83 C 516.429 1285.01 518.242 1283.13 519.993 1281.19 C 547.64 1250.75 563.475 1208.8 562.921 1166.65 C 562.414 1128.09 525.489 1085.41 490.402 1123.03 C 471.997 1142.76 474.976 1173.71 477.207 1199.09 C 482.048 1254.17 500.022 1309.63 544.982 1345.14 C 605.119 1394.93 696.814 1412.19 773.275 1405.92 C 857.887 1398.97 939.839 1360.78 994.381 1294.48 L 996.518 1296.52 C 978.062 1324.91 954.652 1349.75 927.406 1369.85 C 830.675 1442.63 698.2 1463.55 583.087 1427.31 C 526.807 1409.25 471.997 1369.33 410.245 1389.69 C 399.352 1393.28 395.727 1394.47 387.19 1402.64 C 384.79 1404.93 384.746 1404.66 382.02 1404.29 C 380.908 1402.84 379.181 1401.33 381.015 1399.46 C 391.14 1388.8 400.615 1375.71 406.512 1362.12 C 422.004 1326.41 431.409 1285.97 433.797 1247.18 C 436.309 1206.39 434.997 1162.27 414.864 1125.83 C 409.899 1116.84 402.943 1109.1 396.262 1101.46 z" fill="rgb(179,36,39)" transform="translate(0,0)"></path>
<path d="M 471.087 1097.38 C 476.77 1085.84 475.008 1094.37 473.885 1101.53 C 472.456 1113.71 472.788 1129.38 471.988 1142 C 470.855 1166.22 469.322 1190.59 468.9 1214.83 C 467.877 1273.66 469.117 1327.1 412.081 1361.2 C 444.722 1299.06 453.151 1178.18 416.492 1117.49 C 442.234 1127.9 458.066 1121.28 471.087 1097.38 z" fill="rgb(224,207,189)" transform="translate(0,0)"></path>
<path d="M 471.087 1097.38 C 476.77 1085.84 475.008 1094.37 473.885 1101.53 L 471.087 1097.38 z" fill="rgb(236,208,205)" transform="translate(0,0)"></path>
<path d="M 474.016 1240.63 L 476.515 1236.99 C 484.542 1271.98 495.68 1300.43 519.623 1327.85 C 611.5 1433.11 809.301 1434.44 920.584 1363.29 L 921.397 1365.28 C 859.005 1406.71 797.581 1426.6 721.884 1424.32 C 644.698 1421.99 567.111 1396.25 513.283 1338.66 C 497.964 1322.27 476.962 1291.79 472.985 1268.9 C 472.382 1265.43 473.785 1245.66 474.016 1240.63 z" fill="rgb(224,207,189)" transform="translate(0,0)"></path>
<path d="M 920.584 1363.29 C 921.825 1362.3 951.922 1341.11 951.244 1341.15 L 951.722 1341.39 C 951.909 1344.22 925.078 1363.25 921.397 1365.28 L 920.584 1363.29 z" fill="rgb(223,152,154)" transform="translate(0,0)"></path>
<path d="M 474.016 1240.63 C 473.998 1239.07 473.597 1229.49 474.598 1228.79 C 476.212 1230.19 476.268 1234.88 476.515 1236.99 L 474.016 1240.63 z" fill="rgb(236,208,205)" transform="translate(0,0)"></path>
<path d="M 1188.93 754.986 C 1234.6 679.924 1304.25 634.201 1388.75 612.295 C 1483.69 587.679 1581.5 603.669 1665.59 654.89 C 1687.61 668.489 1707.87 684.747 1725.92 703.297 C 1756.53 734.927 1771.74 769.504 1816.56 774.338 C 1788.22 795.185 1782.92 808.381 1767.96 839.638 C 1736.9 904.528 1712.05 972.271 1680.1 1036.63 C 1671.61 1053.73 1654.12 1066.13 1634.41 1062.86 C 1623.92 1061.11 1614.56 1055.26 1608.4 1046.6 C 1583.54 1011.6 1634.98 969.326 1656.1 1006.24 C 1659.17 1011.6 1664.02 1020.56 1671.38 1015.68 C 1682.45 1008.84 1691.26 992.464 1686.71 979.413 C 1678 954.378 1666.12 925.407 1654.93 901.476 C 1643.01 875.985 1619.25 805.509 1598.73 788.376 C 1591.82 787.567 1586.91 787.222 1579.95 787.008 C 1576.31 787.37 1572.49 787.286 1568.8 787.33 C 1567.73 785.55 1567.57 785.64 1568.75 783.894 C 1576.95 783.597 1587.29 783.725 1595.58 784.02 C 1606.55 782.37 1695.26 781.974 1701.08 785.251 C 1699.81 790.182 1692.53 794.14 1690.58 799.803 C 1679.88 830.948 1710.92 895.98 1723.1 926.226 C 1733.41 903.639 1743.55 880.975 1753.51 858.236 C 1744.38 834.249 1732.61 802.519 1718.46 781.581 C 1671.99 712.831 1587.34 667.683 1507.45 651.397 C 1419.01 633.367 1331.23 643.894 1255.12 693.76 C 1254.19 695.147 1245.56 701.293 1243.85 702.096 C 1220.01 721.364 1208.84 732.573 1190.12 757.266 L 1188.93 754.986 z" fill="rgb(179,36,39)" transform="translate(0,0)"></path>
<path d="M 1270.08 678.07 C 1344.42 629.582 1429.54 616.137 1515.48 634.837 C 1580.59 649.005 1619.84 676.379 1668.48 718.948 L 1666.85 720.176 C 1564.47 634.841 1388.64 608.611 1272.09 679.192 L 1270.08 678.07 z" fill="rgb(224,207,189)" transform="translate(0,0)"></path>
<path d="M 1243.85 702.096 C 1243.16 698.362 1244.44 700.708 1246.33 698.388 C 1245.46 695.711 1244.95 696.62 1248.44 693.729 C 1252.95 689.994 1257.49 686.326 1262.74 683.102 L 1263.41 684.428 C 1259.97 688.046 1252.75 689.441 1255.12 693.76 C 1254.19 695.147 1245.56 701.293 1243.85 702.096 z" fill="rgb(201,85,86)" transform="translate(0,0)"></path>
<path d="M 1568.75 783.894 C 1576.95 783.597 1587.29 783.725 1595.58 784.02 C 1587.02 786.133 1585.16 783.083 1579.95 787.008 C 1576.31 787.37 1572.49 787.286 1568.8 787.33 C 1567.73 785.55 1567.57 785.64 1568.75 783.894 z" fill="rgb(195,31,25)" transform="translate(0,0)"></path>
<path d="M 1262.74 683.102 C 1265.2 681.43 1267.59 679.705 1270.08 678.07 L 1272.09 679.192 C 1269.19 681.126 1266.56 682.924 1263.41 684.428 L 1262.74 683.102 z" fill="rgb(223,152,154)" transform="translate(0,0)"></path>
<path d="M 1668.48 718.948 C 1670.77 721.215 1673.08 723.462 1675.4 725.691 L 1674.8 727.352 C 1672.07 724.562 1669.71 722.737 1666.85 720.176 L 1668.48 718.948 z" fill="rgb(223,152,154)" transform="translate(0,0)"></path>
<path d="M 1675.4 725.691 C 1681.3 730.253 1681.57 733.302 1674.8 727.352 L 1675.4 725.691 z" fill="rgb(201,85,86)" transform="translate(0,0)"></path>
<path d="M 1333.01 816.702 C 1343.57 809.716 1362.88 801.68 1374.67 795.938 C 1386.91 789.978 1397.4 784.302 1409.4 777.68 C 1406.79 800.637 1403.72 825.292 1401.64 848.081 L 1403.88 848.773 C 1404.61 846.689 1405.41 844.627 1406.26 842.586 C 1415.72 819.872 1430.08 797.852 1453.79 788.277 C 1472.54 780.705 1494.39 783.158 1501.01 805.002 C 1507.64 826.87 1496.38 847.244 1486.92 866.209 C 1484.36 862.129 1481.23 856.784 1478.33 853.076 C 1454.53 822.606 1403.75 855.942 1401.81 886.946 C 1399.47 924.231 1411.53 953.892 1434.42 982.308 C 1408.26 982.944 1380.61 981.497 1354.15 981.755 C 1331.79 981.358 1309.24 983.149 1286.96 981.088 C 1261.78 978.758 1262.79 956.882 1265.61 937.926 C 1253.49 958.575 1236.56 978.996 1211.57 983.746 C 1183.58 989.068 1153.32 969.772 1148.99 940.895 C 1142.46 893.843 1195.23 881.412 1228.31 867.631 C 1251.04 858.165 1277.35 847.623 1271.34 817.113 C 1270.22 811.125 1266.68 805.864 1261.56 802.572 C 1256.25 799.233 1249.84 798.141 1243.73 799.534 C 1218.34 805.126 1235.86 857.104 1200.85 861.061 C 1185.7 862.774 1172.62 858.697 1170.95 841.809 C 1167.7 808.976 1223.52 795.52 1247.83 793.548 C 1312.05 790.163 1315.52 839.078 1314.01 889.498 C 1313.77 897.55 1317.68 973.87 1337.94 972.834 C 1367.61 954.84 1370.7 897.421 1364.43 867.117 C 1359.57 843.641 1352.44 830.285 1333.01 816.702 z" fill="rgb(179,36,39)" transform="translate(0,0)"></path>
<path d="M 1403.88 848.773 C 1403.38 850.399 1402.94 853.464 1401.45 854.579 L 1401.33 854.481 C 1400.54 852.28 1400.85 850.239 1401.64 848.081 L 1403.88 848.773 z" fill="rgb(236,208,205)" transform="translate(0,0)"></path>
<path d="M 1280.86 851.916 C 1284.17 852.787 1282.38 857.179 1281.69 860.994 C 1278.01 881.075 1276.87 908.647 1266.4 926.361 C 1256.71 942.761 1237.28 957.772 1218.43 945.468 C 1208.06 934.21 1207.47 920.765 1212.38 906.613 C 1222.95 876.192 1254.18 864.664 1280.86 851.916 z" fill="rgb(252,251,250)" transform="translate(0,0)"></path>
<path d="M 1397.8 806.34 L 1398.78 805.119 C 1399.38 804.352 1399.72 803.52 1400.51 802.897 C 1401.37 803.277 1401.11 808.612 1401.14 809.624 C 1396.62 839.587 1395.63 883.408 1398.38 913.701 C 1384.12 919.313 1380.43 920.652 1369.93 931.896 C 1374.59 897.757 1371.57 863.594 1357.6 831.965 C 1375.19 833.849 1393.7 824.267 1397.8 806.34 z" fill="rgb(224,207,189)" transform="translate(0,0)"></path>
<path d="M 1397.8 806.34 L 1398.78 805.119 C 1399.38 804.352 1399.72 803.52 1400.51 802.897 C 1401.37 803.277 1401.11 808.612 1401.14 809.624 L 1397.8 806.34 z" fill="rgb(236,208,205)" transform="translate(0,0)"></path>
<path d="M 1284.37 804.567 C 1308.05 820.43 1308.3 850.154 1308.67 875.31 L 1309.16 912.826 C 1306.2 911.884 1302.53 910.397 1299.55 909.296 C 1290.06 907.702 1288.32 908.289 1279.44 911.027 C 1283.77 877.625 1295.88 836.943 1284.37 804.567 z" fill="rgb(224,207,189)" transform="translate(0,0)"></path>
<path d="M 1054.53 715.433 C 1085.19 713.433 1117.07 711.316 1140.91 734.007 C 1186.08 777.012 1175.42 852.241 1115.64 874.599 C 1093.41 882.912 1047.2 879.299 1021.78 879.706 C 1023.03 907.73 1030.58 937.254 1046.48 960.64 C 1050.97 967.229 1057.76 972.26 1062.24 979.564 C 1061.33 980.297 1060.7 980.87 1059.61 981.408 C 1056.67 982.856 948.955 983.039 944.705 981.963 C 944.614 981.091 944.225 980.198 944.433 979.346 C 945.127 976.512 962.266 963.716 965.49 959.084 C 969.56 953.239 971.731 946.055 973.645 939.257 C 983.804 903.174 985.989 784.715 971.381 750.061 C 963.751 731.961 950.081 729.015 946.818 722.052 C 946.122 720.566 946.736 719.983 947.234 718.558 C 953.47 717.775 971.818 717.874 979.038 717.684 C 1004.21 717.108 1029.37 716.358 1054.53 715.433 z" fill="rgb(179,36,39)" transform="translate(0,0)"></path>
<path d="M 1074.51 721.758 C 1076.06 721.958 1078.24 723.066 1079.33 724.22 C 1107.78 754.311 1110.35 822.653 1085.28 855.515 C 1075.8 867.94 1064.49 872.307 1050.63 873.841 C 1040.3 873.96 1032.21 873.888 1021.8 873.249 C 1020.93 823.022 1026.99 750.188 1074.51 721.758 z" fill="rgb(252,251,250)" transform="translate(0,0)"></path>
<path d="M 1780.44 1019.29 L 1782.53 1020.68 C 1784 1030.38 1782.88 1067.11 1782.67 1078.53 C 1790.76 1079.09 1831.5 1078.01 1833.48 1079.2 L 1833.69 1081.02 L 1832.05 1082.91 C 1827.18 1083.92 1791.03 1084.05 1783.78 1084.17 C 1780.37 1128.25 1778.08 1173.96 1783.69 1217.89 C 1787.55 1248.15 1812.67 1261.92 1832.85 1234.53 C 1837 1228.9 1837.34 1221.71 1840.82 1215.45 L 1841.72 1215.9 C 1841.77 1216.71 1841.81 1217.52 1841.83 1218.33 C 1842.25 1237.48 1834.13 1258.48 1820.81 1271.87 C 1799.35 1293.21 1760.02 1298.39 1737.76 1275.25 C 1722.18 1259.06 1725 1245.22 1725.75 1225.04 C 1726.04 1217.35 1726.16 1209.31 1726.33 1201.58 C 1726.8 1162.6 1727.61 1123.64 1728.74 1084.68 C 1724.37 1084.13 1718.68 1083.98 1714.19 1083.74 C 1705.74 1097.04 1686.34 1140.15 1677.73 1147.2 C 1673.42 1145.03 1667.61 1124.56 1663.77 1118.6 C 1658.81 1109.85 1653.34 1104.03 1646.19 1096.98 C 1630.2 1081.23 1600.01 1079.49 1584.84 1097.05 C 1581.73 1100.49 1578.38 1108.89 1579.94 1113.71 C 1588.09 1138.95 1628.37 1144.58 1649.67 1155.31 C 1662.14 1161.59 1667.8 1163.63 1678.44 1171.27 C 1682.88 1174.92 1686.76 1179.21 1689.94 1184 C 1699.67 1198.7 1705.58 1219.94 1701.65 1237.4 C 1698.03 1253.53 1686.35 1266.74 1672.61 1275.35 C 1649.27 1289.99 1617.5 1293.24 1590.99 1287.03 C 1572.55 1282.71 1554.57 1272.44 1544.45 1256.02 C 1538.03 1245.62 1534.74 1232.94 1537.9 1220.88 C 1540.33 1211.59 1546.48 1204.18 1554.91 1199.67 C 1564.99 1194.27 1577.68 1193.36 1588.53 1196.87 C 1595.57 1199.15 1602.35 1204.5 1605.38 1211.36 C 1621.58 1248.14 1585.24 1248.35 1580.57 1262.43 C 1579.92 1264.36 1580.13 1266.52 1581.08 1268.34 C 1585.24 1276.36 1597.04 1281.1 1605.33 1283.37 C 1619.08 1287.13 1636.89 1285.26 1648.95 1277.82 C 1657.19 1272.74 1660.05 1264.42 1661.94 1255.41 C 1672.92 1203.17 1586.3 1203.47 1560.17 1162.18 C 1552.51 1150.07 1550.19 1134.52 1553.58 1120.6 C 1556.12 1110.38 1561.71 1101.19 1569.59 1094.22 C 1606.35 1061.6 1657.51 1091.7 1699.41 1082.55 C 1701 1082.2 1714.98 1078.5 1715.72 1078.63 C 1752.03 1084.62 1773.53 1050.1 1780.44 1019.29 z" fill="rgb(179,36,39)" transform="translate(0,0)"></path>
<path d="M 1778.82 1067.97 C 1780.11 1070.79 1776.76 1111.58 1776.52 1118.35 C 1775.9 1135.44 1775.78 1153.75 1774.74 1170.97 C 1774.2 1174.52 1772.84 1189.35 1770.83 1191.67 C 1760 1204.19 1743.33 1211.18 1731.81 1223.76 C 1730.93 1216.07 1732.47 1188.2 1732.68 1178.95 C 1733.23 1148.41 1733.46 1117.87 1733.37 1087.32 C 1738.38 1086.63 1743.38 1085.82 1748.35 1084.88 C 1761.75 1082.23 1770.99 1079.71 1778.82 1067.97 z" fill="rgb(224,207,189)" transform="translate(0,0)"></path>
<path d="M 293.264 999.438 C 340.575 998.098 367.846 1021.22 411.668 997.465 C 409.232 1005.15 368.832 1087.04 366.463 1088.78 C 361.006 1086.14 359.464 1073.54 357.888 1067.6 C 354.958 1056.84 350.458 1046.57 344.534 1037.12 C 333.377 1019.42 319.122 1008.59 298.762 1004.18 C 274.978 999.024 251.157 1011.38 247.743 1036.39 C 240.623 1088.55 312.828 1100.4 347.096 1120.26 C 365.537 1130.94 381.42 1138.47 393.673 1156.58 C 420.434 1194.51 407.742 1248.52 369.196 1273.3 C 340.726 1291.6 303.8 1294.91 271.151 1288.75 C 253.809 1284.39 240.384 1278.53 227.13 1265.73 C 205.168 1245.04 196.111 1205.45 219.417 1182.48 C 234.795 1167.32 265.353 1163.4 280.386 1181.21 C 287.895 1190.11 292.984 1200.55 291.94 1212.14 C 290.363 1229.65 279.063 1237.59 266.075 1246.81 C 257.739 1253.28 263.37 1269.14 270.552 1274.99 C 284.188 1287.22 297.978 1286.32 314.737 1286.19 C 341.265 1285.99 374.058 1267.09 370.806 1236.61 C 366.649 1197.65 313.625 1181.64 284.923 1165.07 C 268.961 1155.85 253.156 1147.32 239.397 1134.71 C 204.692 1106.91 195.434 1061.67 225.952 1026.72 C 243.185 1006.98 267.186 1000.84 293.264 999.438 z" fill="rgb(179,36,39)" transform="translate(0,0)"></path>
<path d="M 248.75 1016.01 L 249.438 1016.95 C 244.791 1026.98 241.517 1032.52 240.974 1044.03 C 239.087 1083.97 276.805 1097.84 255.614 1140.11 C 250.384 1136.98 247.456 1134.57 242.765 1130.82 C 239.793 1128.58 236.381 1124.88 233.84 1122.12 C 199.958 1085.31 209.589 1042.29 248.75 1016.01 z" fill="rgb(224,207,189)" transform="translate(0,0)"></path>
<path d="M 737.63 1079.38 C 779.263 1075.34 810.784 1101.07 818.544 1141.42 C 814.527 1145.41 808.874 1149.45 803.873 1152.16 C 767.585 1171.8 729.985 1182.34 689.026 1175.34 C 700.47 1207.68 718.82 1235.15 755.345 1241.14 C 774.209 1244.23 794.922 1239.82 807.418 1224.39 C 811.709 1219.1 814.849 1211.01 820.512 1206.88 L 821.694 1207.54 C 822.097 1212.62 820.057 1217.26 818.45 1222.23 C 815.6 1232.72 810.812 1242.58 804.334 1251.3 C 789.816 1271.02 767.915 1283.99 743.65 1287.24 C 717.076 1290.92 692.619 1282.49 672.01 1267.18 C 611.209 1222 623.026 1132.59 686.558 1096.05 C 704.57 1085.69 716.927 1081.94 737.63 1079.38 z" fill="rgb(179,36,39)" transform="translate(0,0)"></path>
<path d="M 727.12 1086.26 C 749.631 1089.01 757.921 1112.14 755.242 1132.51 C 752.079 1156.55 739 1168.49 715.239 1171.72 C 704.995 1172.55 698.583 1171.54 688.83 1169.76 L 687.892 1169.6 C 686.806 1161.31 685.958 1150.26 687.34 1142.01 L 687.697 1139.99 C 691.334 1118.87 704.424 1091.57 727.12 1086.26 z" fill="rgb(252,251,250)" transform="translate(0,0)"></path>
<path d="M 701.963 1093.87 C 702.93 1094 702.331 1093.84 703.605 1094.75 C 699.988 1100.82 696.239 1103.49 691.985 1111.5 C 681.552 1131.12 679.194 1156.65 685.358 1177.85 C 663.473 1183.23 653.088 1194.04 642.222 1212.95 C 634.297 1202.28 638.113 1171.41 642.388 1159.15 C 653.729 1126.62 671.725 1109.1 701.963 1093.87 z" fill="rgb(224,207,189)" transform="translate(0,0)"></path>
<path d="M 793.571 788.399 C 829.141 785.723 862.893 808.189 868.843 844.134 C 867.868 856.107 837.558 867.011 830.147 870.129 C 800.665 882.531 778.859 884.626 747.963 882.825 C 767.463 926.866 811.726 967.285 860.539 926.282 C 868.012 920.005 872.944 909.652 879.258 902.012 L 880.02 901.104 C 879.299 909.719 878.487 912.004 876.099 920.441 C 863.294 957.571 838.539 979.411 798.584 984.816 C 773.978 988.144 751.09 981.692 731.76 965.941 C 711.239 949.465 698.234 925.406 695.691 899.212 C 690.102 843.848 740.62 793.413 793.571 788.399 z" fill="rgb(179,36,39)" transform="translate(0,0)"></path>
<path d="M 783.439 796.266 C 787.012 796.526 794.3 797.024 797.067 799.517 C 813.343 814.183 814.669 846.742 800.846 863.413 C 792.683 873.258 783.076 876.393 771.266 877.496 C 763.001 877.719 754.7 877.155 746.489 876.227 C 742.159 847.251 750.232 804.216 783.439 796.266 z" fill="rgb(252,251,250)" transform="translate(0,0)"></path>
<path d="M 758.821 803.128 L 759.134 803.335 C 758.702 805.049 758.952 804.944 757.867 806.162 C 740.033 826.208 735.212 852.67 741.81 878.991 C 720.449 883.416 713.677 886.267 702.527 905.597 L 701.651 906.449 C 699.35 901.801 701.713 876.851 703.332 870.666 C 711.947 837.751 731.599 820.189 758.821 803.128 z" fill="rgb(224,207,189)" transform="translate(0,0)"></path>
<path d="M 940.602 1077.38 C 970.593 1075.06 1018.28 1091.3 1015.5 1129.74 C 1014.23 1147.22 993.043 1158.89 976.331 1154.22 C 951.085 1147.18 953.473 1116.52 942.521 1097.81 C 936.458 1086.9 922.925 1084.93 913.274 1092.73 C 877.009 1122.03 873.781 1175.61 901.237 1212.25 C 912.704 1227.69 929.866 1237.92 948.906 1240.64 C 969.201 1243.37 982.918 1238.05 998.657 1225.95 C 1001.77 1222.83 1015.84 1204.82 1016.64 1204.45 C 1017.69 1205.33 1018.17 1205.3 1018.04 1206.81 C 1014.46 1248.8 982.844 1284.36 940.531 1289.74 C 912.394 1293.31 888.605 1283.12 866.595 1266.57 C 844.161 1249.64 830.611 1221.34 830.321 1193.24 C 829.71 1134.08 884.726 1083.85 940.602 1077.38 z" fill="rgb(179,36,39)" transform="translate(0,0)"></path>
<path d="M 900.726 1094.1 C 900.191 1097.25 890.72 1110.1 888.188 1115.02 C 875.868 1138.94 874.115 1158.05 881.231 1183.24 C 860.09 1187.36 848.142 1191.57 839.101 1212.76 L 837.767 1211.57 C 823.665 1164.98 860.635 1114.66 900.726 1094.1 z" fill="rgb(224,207,189)" transform="translate(0,0)"></path>
<path d="M 1569.02 724.899 C 1570.31 734.686 1569.15 772.816 1568.75 783.894 C 1567.57 785.64 1567.73 785.55 1568.8 787.33 C 1569.09 793.905 1568.81 801.053 1568.81 807.669 C 1568.82 838.199 1568.59 868.746 1568.35 899.274 C 1568.27 909.56 1567.4 919.562 1570.81 929.428 C 1579.14 946.846 1581.49 949.142 1598.04 944.945 C 1616.2 940.343 1624.02 907.44 1628.02 905.212 L 1629.73 906.1 C 1629.77 906.402 1629.8 906.705 1629.84 907.008 C 1627.1 927.995 1620.74 952.121 1605.76 967.856 C 1585.51 989.131 1546.68 990.44 1525.81 969.234 C 1505.76 948.858 1518.06 925.335 1517.95 901.108 C 1517.79 862.688 1518.42 824.397 1518.94 786.003 C 1513.65 785.95 1508.06 786.512 1503.13 784.994 L 1502.61 783.552 C 1507.12 777.061 1520.26 783.04 1532.85 775.985 C 1555.54 763.268 1561.5 747.282 1569.02 724.899 z" fill="rgb(179,36,39)" transform="translate(0,0)"></path>
<path d="M 1562.61 767.918 C 1562.82 767.345 1562.86 767.067 1563.25 766.648 C 1563.41 766.621 1563.5 766.59 1563.51 766.718 C 1564.25 776.036 1563.91 810.543 1563.16 817.383 C 1563.16 829.714 1564.29 864.778 1559.15 873.397 C 1554.68 880.888 1531.71 897.354 1522.89 908.997 C 1522.93 870.54 1523.55 823.468 1525.79 785.004 C 1542.94 783.882 1548.53 785.271 1560.52 773.021 C 1561.18 771.123 1561.8 769.748 1562.61 767.918 z" fill="rgb(224,207,189)" transform="translate(0,0)"></path>
<path d="M 1562.61 767.918 C 1562.82 767.345 1562.86 767.067 1563.25 766.648 C 1563.41 766.621 1563.5 766.59 1563.51 766.718 C 1564.25 776.036 1563.91 810.543 1563.16 817.383 C 1562.42 806.436 1562.9 790.987 1562.85 779.592 C 1562.07 777.193 1561.45 775.363 1560.52 773.021 C 1561.18 771.123 1561.8 769.748 1562.61 767.918 z" fill="rgb(208,123,114)" transform="translate(0,0)"></path>
<path d="M 1562.61 767.918 C 1562.99 772.516 1562.95 775.009 1562.85 779.592 C 1562.07 777.193 1561.45 775.363 1560.52 773.021 C 1561.18 771.123 1561.8 769.748 1562.61 767.918 z" fill="rgb(236,208,205)" transform="translate(0,0)"></path>
<path d="M 1116.77 1068.76 L 1118.07 1069.22 C 1119.29 1071.33 1116.82 1076.97 1115.9 1080.2 C 1111.11 1096.77 1107.64 1113.69 1105.52 1130.81 C 1098.04 1194.74 1103.01 1239.01 1143.8 1290.58 C 1104.01 1290.62 1062.4 1291.27 1022.75 1290.23 C 1020.21 1290.27 1020.2 1290.43 1017.89 1289.5 L 1018.5 1287.85 C 1067.47 1251.18 1073.07 1178.08 1043.76 1127.28 C 1038.1 1117.46 1031.72 1111.12 1023.65 1103.26 C 1065.86 1093.66 1078.13 1093.42 1116.77 1068.76 z" fill="rgb(179,36,39)" transform="translate(0,0)"></path>
<path d="M 1107.13 1084.78 L 1107.97 1085.11 C 1108.71 1087.8 1104.58 1103.69 1103.73 1107.6 C 1101.03 1120.62 1099.1 1133.8 1097.95 1147.05 C 1095.93 1169.69 1095.85 1192.89 1100.83 1215.12 C 1083.71 1220.23 1076.66 1223.03 1062.15 1233.2 L 1065.41 1219.23 C 1065.95 1216.83 1066.42 1214.41 1066.8 1211.98 C 1072.13 1177.08 1063.3 1143.37 1042.56 1115.04 C 1077.5 1115.7 1082.91 1102.24 1107.13 1084.78 z" fill="rgb(224,207,189)" transform="translate(0,0)"></path>
<path d="M 1477.13 994.322 C 1496.02 991.727 1513.44 1004.94 1516.03 1023.84 C 1518.61 1042.73 1505.38 1060.14 1486.49 1062.72 C 1467.61 1065.29 1450.21 1052.08 1447.63 1033.2 C 1445.05 1014.32 1458.25 996.915 1477.13 994.322 z" fill="rgb(179,36,39)" transform="translate(0,0)"></path>
<path d="M 1073.22 994.4 C 1091.9 991.685 1109.26 1004.56 1112.1 1023.22 C 1114.93 1041.88 1102.17 1059.33 1083.53 1062.28 C 1064.71 1065.26 1047.07 1052.36 1044.21 1033.53 C 1041.35 1014.7 1054.37 997.139 1073.22 994.4 z" fill="rgb(179,36,39)" transform="translate(0,0)"></path>
<path d="M 994.381 1294.48 C 997.8 1289.88 1000.57 1286.96 1004.34 1282.82 C 1001.53 1288.27 1000.22 1291.21 996.518 1296.52 L 994.381 1294.48 z" fill="rgb(201,85,86)" transform="translate(0,0)"></path>
<path d="M 1188.93 754.986 L 1190.12 757.266 C 1186.54 762.184 1183.47 766.633 1179.23 771.066 C 1182.26 765.918 1185.61 759.853 1188.93 754.986 z" fill="rgb(208,123,114)" transform="translate(0,0)"></path>
<metadata><recraft-signature>{"signed_by": "recraft", "signature_b64": "BA19IDATp9/rp51e7i9PYRFLnGkhcoF6Tct1lGT7PCU0TMHDzMi9FoLHHUZdKhrOhgbGW6R/uebiRQwbPDGGDA==", "signing_algo": "Ed25519", "generation_timestamp": 1772546220, "identifier": "d387d867-c686-4899-94e8-bd67794241b0"}</recraft-signature></metadata></svg>