<svg xmlns="http://www.w3.org/2000/svg" height="1024" preserveAspectRatio="none" style="display: block;" version="1.1" viewBox="0 0 2048 2048" width="1024">
<path d="M 0 0 L 2048 0 L 2048 965.914 L 2048 975.678 L 2048 2048 L 0 2048 L 0 0 z" fill="rgb(36,31,31)" transform="translate(0,0)"></path>
<path d="M 0 0 L 2048 0 L 2048 965.914 C 2040.66 950.998 2033.38 943.517 2026.18 931.009 C 2023.59 926.499 2017.87 898.809 2016.04 892.099 C 2002.84 843.653 1988.77 807.088 1949.61 773.482 C 1954.61 758.884 1960.93 743.294 1965.94 729.341 C 1970.37 717.016 1983.4 691.688 1976.04 680.203 C 1959.24 653.994 1905.23 637.27 1877.02 633.512 L 1876.96 303.33 C 1876.96 288.669 1878.47 181.421 1875.67 173.518 C 1873.1 171.419 1871.37 171.025 1867.89 170.948 C 1840.33 170.339 1812.03 170.629 1784.48 170.632 L 1625.9 170.27 L 634.069 170.141 L 322.814 170.234 L 227.015 170.374 C 212.164 170.404 187.048 169.132 173.167 171.451 C 170.116 181.096 171.109 247.417 171.092 262.409 L 170.943 444.708 C 137.074 445.847 32.3245 454.468 6.73352 477.613 C 4.43479 485.718 1.35162 493.863 5.95056 501.44 C 12.0337 511.463 19.4799 521.043 26.4238 530.516 C 34.9021 542.165 43.2443 553.913 51.4488 565.757 C 90.8733 621.751 132.915 678.885 171.115 735.362 C 172.985 772.842 172.204 815.26 172.229 853.134 L 172.289 1040.19 L 171.98 1612.04 L 172.006 1785.14 C 172.011 1810.99 170.781 1850.13 172.352 1875.16 C 203.058 1877.02 250.066 1875.5 282.235 1875.5 L 495.12 1875.47 L 1156.14 1875.39 L 1359.5 1875.43 L 1425.06 1875.8 C 1453.6 1875.98 1463.86 1872.94 1488.47 1889.59 C 1502.16 1898.86 1523.07 1906.36 1538.3 1912.8 C 1568.21 1924.52 1599.4 1933.61 1630.83 1940.32 C 1703.12 1953.61 1811.1 1960.23 1871.4 1912.08 C 1882.56 1903.17 1892.01 1886.17 1892.65 1872.18 C 1893.47 1854.13 1886.7 1840.94 1877.12 1826.52 L 1877.92 1592.02 L 1877.85 1520.52 C 1877.84 1512.21 1877.35 1484.21 1878.64 1477.99 C 1882.8 1457.87 1893.02 1430.47 1899.58 1410.5 C 1916.82 1357.31 1934.52 1304.28 1952.69 1251.41 C 1975.16 1184.53 1996.58 1116.74 2020.1 1050.29 C 2026.07 1033.43 2040.63 990.256 2048 975.678 L 2048 2048 L 0 2048 L 0 0 z" fill="rgb(254,254,254)" transform="translate(0,0)"></path>
<path d="M 544.629 229.977 L 1505.12 229.936 C 1515.27 267.264 1530.74 302.937 1551.06 335.86 C 1543.2 342.177 1535.25 348.381 1527.21 354.471 C 1537.52 352.179 1547.19 349.902 1557.69 348.509 C 1564.32 356.61 1571.86 368.185 1578.4 376.902 C 1590.37 392.657 1603.11 407.808 1616.58 422.299 C 1611.2 429.385 1606.5 437.045 1601.72 444.553 C 1608.93 439.497 1617.35 434.284 1624.8 429.434 C 1651.05 453.613 1666.62 465.721 1695.49 486.16 C 1693.15 494.446 1691 505.897 1689.12 514.515 C 1695.97 507.867 1701.58 501.119 1707.42 493.606 C 1748.13 517.644 1772.46 528.504 1816.44 544.867 C 1816.8 574.276 1816.6 604.131 1816.63 633.565 C 1810.09 636.858 1801.72 640.627 1800.14 648.601 C 1797.89 660.006 1797.71 672.081 1796.85 683.7 C 1795.36 703.929 1794.27 724.2 1791.94 744.362 C 1737.67 761.175 1706.29 792.429 1675.33 838.838 C 1658.79 844.909 1639.85 853.529 1625.14 863.184 C 1623.09 899.787 1616.77 943.68 1613.14 981.146 L 1586.83 1254.78 C 1578.17 1352.23 1568.85 1449.61 1558.88 1546.92 L 1549.56 1638.3 C 1547.52 1658.08 1545.72 1679.32 1542.65 1698.82 C 1497.98 1699.74 1417.33 1717.04 1398.12 1764.01 C 1390.71 1782.13 1395.91 1799 1403.21 1815.9 C 1315.58 1816.91 1226.28 1816.09 1138.5 1816.07 L 543.854 1816.06 C 529.393 1776.44 514.656 1746.86 493.695 1710.61 C 498.008 1707.77 506.815 1703.36 507.344 1698.17 C 502.773 1695.51 492.888 1699.63 487.982 1701.17 C 469.93 1673.15 451.697 1651.2 429.884 1626.29 C 435.566 1618.27 439.343 1613.91 443.463 1605 C 435.403 1609.09 429.953 1613.98 423.037 1619.64 C 398.424 1595.24 381.114 1582.44 353.685 1561.82 C 355.9 1557.46 359.436 1552.54 357.509 1547.8 L 355.419 1547.69 C 351.216 1549.87 348.94 1553.34 345.847 1557.04 C 300.914 1531.03 282.446 1522.24 232.944 1505.29 L 232.916 1388.32 C 280.238 1387.89 328.051 1389.54 375.489 1388.68 C 395.206 1388.33 417.526 1389.98 437.156 1387.91 C 440.17 1387.6 439.655 1387.48 440.999 1385.56 L 440.388 1384.17 C 426.956 1377.99 410.153 1372.08 396.143 1366.73 L 326.434 1339.88 C 325.434 1295.04 326.198 1247.09 326.133 1202.04 C 325.769 1107.45 326.048 1012.86 326.97 918.275 L 542.187 618.024 C 563.307 589.045 584.282 559.96 605.112 530.77 C 612.231 520.921 619.89 511.431 626.826 501.456 C 628.664 498.814 630.861 495.659 631.36 492.402 C 632.05 487.895 628.896 482.148 625.929 478.99 C 597.342 448.554 459.576 444.499 416.795 442.438 C 420.515 437.355 422.559 435.198 426.896 430.709 L 436.282 439.735 C 442.123 432.392 446.539 434.318 455.157 435.032 C 447.595 430.442 442.012 426.745 435.156 421.261 C 459.474 391.057 471.157 379.117 493.27 345.405 C 504.753 349.134 516.115 353.319 527.743 357.073 C 518.316 347.899 510.81 340.965 500.091 333.405 C 522.019 291.957 529.465 273.965 544.629 229.977 z" fill="rgb(254,254,254)" transform="translate(0,0)"></path>
<path d="M 945.073 866.033 C 962.678 866.148 980.284 866.274 997.89 866.328 C 1009.69 866.364 1021.5 865.994 1033.16 868.174 C 1143.82 888.857 1182.33 1027.86 1085.22 1093.72 C 1097.92 1109.79 1118.42 1128.8 1131.99 1145 C 1136.87 1150.83 1144.11 1157.27 1148.14 1163.57 L 1146.25 1164.42 C 1130.77 1163.86 1115.28 1163.93 1099.81 1164.6 C 1083.54 1146.54 1066.93 1125.97 1050.04 1108.7 C 1024.45 1110.5 1013.58 1111.29 987.115 1111.16 L 986.936 1166.56 L 945.644 1166.22 L 945.073 866.033 z" fill="rgb(36,31,31)" transform="translate(0,0)"></path>
<path d="M 987.124 904.208 C 999.385 904.144 1012.17 903.955 1024.33 905.411 C 1096.14 914.01 1125.1 998.768 1075.6 1050.73 C 1045.7 1076.12 1024.35 1074.8 987.355 1073.6 C 985.746 1019.44 986.85 958.779 987.124 904.208 z" fill="rgb(254,254,254)" transform="translate(0,0)"></path>
<path d="M 488.718 865.979 C 518.489 866.108 571.898 862.822 598.497 871.847 C 703.162 907.361 719.526 1043.91 616.336 1096.37 C 583.569 1110.66 564.739 1109 529.978 1108.93 L 529.909 1165.48 L 488.854 1165.43 L 488.718 865.979 z" fill="rgb(36,31,31)" transform="translate(0,0)"></path>
<path d="M 529.759 903.006 C 560.843 902.432 595.539 903.502 618.708 927.064 C 653.706 962.655 654.397 1011.59 620.14 1047.34 C 590.736 1071.88 567.343 1074.86 529.897 1072.17 L 529.759 903.006 z" fill="rgb(254,254,254)" transform="translate(0,0)"></path>
<path d="M 790.41 860.721 C 791.863 862.372 898.352 1139.73 907.913 1165.71 C 893.374 1166.23 875.593 1165.64 860.787 1165.57 C 857.156 1153.36 853.683 1143.24 849.299 1131.27 C 831.202 1130.57 811.007 1130.88 792.75 1130.76 L 731.412 1130.63 C 726.658 1142.08 722.228 1153.65 718.125 1165.35 L 673.89 1165.32 C 699.738 1100.54 724.909 1035.49 749.4 970.192 C 763.341 933.383 777.255 897.951 790.41 860.721 z" fill="rgb(36,31,31)" transform="translate(0,0)"></path>
<path d="M 790.709 969.67 C 794.59 973.433 833.339 1084.62 838.03 1098.01 L 792.696 1098.46 L 743.656 1098.22 C 758.986 1055.1 776.215 1013.1 790.709 969.67 z" fill="rgb(254,254,254)" transform="translate(0,0)"></path>
<path d="M 1346.32 865.688 C 1361.19 865.577 1376.28 865.773 1391.17 865.835 C 1396.34 881.578 1412.3 915.253 1419.65 931.085 C 1430.75 955.006 1443.84 986.204 1456.05 1009.1 C 1463.1 996.2 1470.02 979.995 1476.26 966.506 C 1491.6 933.367 1505.48 899.767 1521.12 866.732 C 1533.57 865.63 1551.17 865.949 1563.62 866.805 C 1551.49 898.021 1529.33 942.642 1515.06 973.849 L 1491.51 1024.88 C 1474.3 1062.28 1476.72 1062.01 1476.69 1102.36 L 1476.4 1166.09 L 1434.79 1165.98 L 1434.79 1098.4 C 1434.79 1091.46 1435.17 1064.07 1433.56 1058.72 C 1429.45 1045.09 1418.16 1022.85 1411.9 1009.1 L 1374.8 927.666 C 1365.19 906.977 1355.2 886.716 1346.32 865.688 z" fill="rgb(36,31,31)" transform="translate(0,0)"></path>
<path d="M 1011.86 287.398 C 1095.46 281.898 1175.36 333.911 1246.69 370.987 C 1302.45 399.971 1345.99 420.813 1411.13 408.021 C 1285.12 460.137 1160.37 327.432 1033.38 315.242 C 1009.14 314.106 991.263 317.493 967.964 323.687 C 872.49 349.07 741.926 459.577 640.353 408.87 C 707.565 420.531 741.124 403 798.963 372.357 C 867.114 336.252 933.471 294.609 1011.86 287.398 z" fill="rgb(174,156,95)" transform="translate(0,0)"></path>
<path d="M 1163.93 865.764 L 1323.27 866.415 C 1323.46 878.933 1323.37 891.721 1323.41 904.263 C 1304.71 903.941 1286 903.996 1267.3 904.429 L 1266.94 1109.5 L 1266.93 1165.83 L 1225.26 1165.63 L 1224.94 904.273 C 1204.78 903.923 1184.17 904.094 1163.97 904.05 L 1163.93 865.764 z" fill="rgb(36,31,31)" transform="translate(0,0)"></path>
<path d="M 672.19 1638.54 C 752.688 1620.2 834.992 1664.95 905.314 1698.83 C 979.147 1734.4 1024.66 1751.46 1104.21 1716.4 C 1196.92 1675.55 1290.09 1609 1396.1 1642.96 C 1336.74 1637.47 1305.82 1647.84 1253.04 1673.25 C 1233.71 1682.54 1214.53 1692.12 1195.5 1702.01 C 1139 1731.73 1094.01 1758.71 1027.76 1761.3 C 914.041 1765.76 784.553 1636.08 680.224 1640.36 C 676.216 1640.04 675.783 1640.13 672.19 1638.54 z" fill="rgb(174,156,95)" transform="translate(0,0)"></path>
<path d="M 589.925 1232.99 C 594.862 1232.91 600.099 1232.73 605.03 1232.96 C 698.064 1237.2 738.907 1363.95 642.045 1401.17 C 626.152 1405.41 618.253 1405.11 602.049 1405.12 C 602.03 1422.4 602.138 1439.69 602.371 1456.97 L 589.522 1457.3 L 589.925 1232.99 z" fill="rgb(36,31,31)" transform="translate(0,0)"></path>
<path d="M 602.953 1246.03 C 653.2 1249.06 693.108 1288.15 683.087 1341.44 C 680.686 1354.2 673.594 1364.04 664.634 1373.27 C 644.758 1390.82 628.015 1393.85 602.401 1392.25 C 602.177 1343.51 602.361 1294.77 602.953 1246.03 z" fill="rgb(254,254,254)" transform="translate(0,0)"></path>
<path d="M 1108.35 1232.6 C 1113.98 1237.65 1174.08 1430.72 1182.97 1456.84 L 1168.75 1456.99 C 1164.98 1444.46 1159.43 1424.73 1154.3 1413.17 L 1113.25 1413.15 C 1096.53 1413.12 1079.8 1413.22 1063.08 1413.47 C 1058.3 1427.89 1053.61 1442.35 1049.03 1456.85 L 1036.36 1456.95 C 1048.29 1417.01 1060.8 1377.26 1073.9 1337.69 C 1085.11 1303.1 1096.45 1266.81 1108.35 1232.6 z" fill="rgb(36,31,31)" transform="translate(0,0)"></path>
<path d="M 1108.32 1273.51 C 1112.63 1276.78 1146.42 1387.01 1150.69 1400.52 L 1111.09 1400.57 L 1067.01 1400.29 C 1078.03 1361.37 1095.45 1312.89 1108.32 1273.51 z" fill="rgb(254,254,254)" transform="translate(0,0)"></path>
<path d="M 1102.32 551.385 L 1115.34 551.756 L 1115.86 793.912 L 1100.65 793.969 L 1100.63 737.019 L 975.901 736.845 L 976.021 793.851 L 961.066 793.9 L 961.044 690.5 L 961.199 551.926 L 975.67 551.85 C 975.44 609.226 975.527 666.604 975.929 723.98 C 1017.53 724.125 1059.12 724.011 1100.72 723.637 C 1100.74 673.913 1100.64 624.187 1100.64 574.465 C 1100.65 569.761 1099.73 554.58 1102.32 551.385 z" fill="rgb(36,31,31)" transform="translate(0,0)"></path>
<path d="M 1277.89 551.494 L 1278.51 551.944 C 1279.79 555.116 1279.23 561.583 1279.16 565.299 C 1244.72 565.667 1210.29 565.823 1175.85 565.766 L 1175.64 723.154 L 1272.95 723.574 L 1272.97 736.771 C 1240.61 736.412 1208.25 736.31 1175.89 736.465 L 1175.93 780.035 L 1210.5 779.951 L 1282.32 779.761 L 1282.13 793.942 L 1160.87 793.83 L 1161.09 551.682 C 1200.03 551.869 1238.96 551.806 1277.89 551.494 z" fill="rgb(36,31,31)" transform="translate(0,0)"></path>
<path d="M 717.007 1236.2 C 749.599 1236.01 782.192 1236.06 814.783 1236.37 L 814.92 1248.95 L 729.979 1248.71 L 729.9 1387.95 L 805.065 1387.74 L 805.046 1400.33 C 785.673 1400.07 765.905 1400.25 746.5 1400.23 L 729.892 1400.32 L 729.892 1443.15 C 758.289 1443.49 786.545 1444.01 814.942 1443.17 L 814.752 1456.02 C 781.924 1455.95 749.095 1456.04 716.268 1456.29 L 717.007 1236.2 z" fill="rgb(36,31,31)" transform="translate(0,0)"></path>
<path d="M 1391.66 1240.18 C 1413.4 1238 1428.61 1245.84 1437.26 1265.91 L 1425.53 1268.85 C 1423.38 1265.48 1420.97 1261.92 1417.93 1259.3 C 1412.01 1254.25 1404.25 1251.91 1396.53 1252.86 C 1388.71 1253.8 1381.66 1258 1377.12 1264.43 C 1372.52 1271 1371.56 1278.62 1372.95 1286.45 C 1377.21 1310.31 1409.25 1320.89 1427.42 1333.54 C 1445.62 1346.21 1459.94 1362.63 1464.24 1385.04 C 1467.28 1400.88 1463.09 1419.21 1453.71 1432.25 C 1444.85 1444.51 1431.49 1452.77 1416.55 1455.21 C 1396.76 1458.5 1383.85 1452.57 1368.4 1441.83 C 1352.61 1428.48 1346.91 1415.53 1342.66 1395.72 C 1346.59 1393.95 1350.31 1393.02 1354.44 1391.83 C 1355.32 1395.67 1356.19 1399.68 1357.35 1403.44 C 1365.65 1430.13 1393.86 1450.51 1422.18 1440.65 C 1433.16 1436.8 1442.15 1428.74 1447.15 1418.24 C 1451.8 1408.48 1453.18 1396.26 1451.01 1385.75 C 1442.4 1336.03 1376.66 1336.15 1361.49 1293.57 C 1352.96 1269.61 1368.39 1247.25 1391.66 1240.18 z" fill="rgb(36,31,31)" transform="translate(0,0)"></path>
<path d="M 919.93 1234.4 C 941.028 1233.94 960.252 1238.69 977.045 1251.83 C 974.206 1255.47 972.01 1257.89 968.831 1261.26 C 925.639 1234.67 880.925 1246.18 854.476 1289.45 C 839.33 1314.79 834.778 1345.08 841.808 1373.75 C 849.278 1404.55 872.209 1432.93 903.305 1442.07 C 918.447 1446.53 931.765 1445.04 946.803 1441.34 C 957.61 1437.23 960.816 1434.68 969.758 1427.47 L 979.64 1436.25 C 949.204 1465.59 897.615 1462.53 865.444 1435.72 C 795.434 1377.37 822.093 1241.68 919.93 1234.4 z" fill="rgb(36,31,31)" transform="translate(0,0)"></path>
<path d="M 510.029 1236.23 C 523.29 1236.39 531.841 1241.18 540.847 1250.53 L 532.379 1259.14 C 527.111 1254.49 522.611 1249.89 515.052 1248.9 C 499.033 1246.19 483.395 1266 482.936 1280.53 C 482.128 1306.08 515.605 1315.35 533.118 1324.83 C 540.949 1329 548.061 1334.4 554.182 1340.82 C 580.528 1368.55 583.541 1413.67 554.308 1440.28 C 541.396 1452 524.258 1457.93 506.865 1456.7 C 488.886 1455.59 476.893 1448.77 465.116 1435.6 C 455.299 1421.57 453.583 1416.09 450.173 1399.13 L 462.258 1398.95 C 466.198 1414.78 470.979 1427.8 485.646 1437.37 C 496.277 1444.23 509.224 1446.5 521.557 1443.68 C 534.961 1440.71 546.59 1432.43 553.797 1420.74 C 561.887 1407.58 563.695 1391.21 559.979 1376.41 C 551.522 1342.73 521.741 1334.11 494.679 1319.56 C 456.53 1299.06 466.993 1243.48 510.029 1236.23 z" fill="rgb(36,31,31)" transform="translate(0,0)"></path>
<path d="M 788.418 551.916 L 923.601 551.96 C 923.945 556.345 924.013 561.38 924.184 565.828 C 904.097 566.266 882.234 565.909 862.025 565.929 L 861.953 731.5 L 862.016 793.208 L 847.631 793.433 L 848.131 565.916 L 788.319 565.898 L 788.418 551.916 z" fill="rgb(36,31,31)" transform="translate(0,0)"></path>
<path d="M 1469.89 1236.26 C 1503.84 1235.59 1539.52 1236.11 1573.62 1236.06 L 1573.12 1249.17 C 1558.34 1249.49 1542.84 1249.29 1528 1249.32 C 1527.3 1302.86 1527.94 1357.85 1527.94 1411.5 L 1527.85 1456.82 C 1523.45 1456.89 1519.13 1456.7 1514.74 1456.55 L 1514.64 1249.85 C 1499.97 1249.88 1484.59 1249.34 1469.87 1249.03 C 1469.6 1244.77 1469.79 1240.53 1469.89 1236.26 z" fill="rgb(36,31,31)" transform="translate(0,0)"></path>
<path d="M 1201.95 1236.15 L 1215.03 1236.01 L 1214.88 1443.31 C 1240.19 1443.68 1265.51 1443.73 1290.82 1443.47 L 1290.6 1456.01 L 1201.96 1456.77 L 1201.95 1236.15 z" fill="rgb(36,31,31)" transform="translate(0,0)"></path>
<path d="M 555.088 687.201 C 631.022 680.598 707.464 676.021 783.153 668.75 L 783.376 699.027 C 708.07 697.113 631.161 692.202 555.903 689.936 L 555.088 687.201 z" fill="rgb(174,156,95)" transform="translate(0,0)"></path>
<path d="M 1318.85 672.362 C 1386.06 675.336 1463.81 681.013 1530.94 687.432 C 1527.06 688.104 1522.25 688.331 1518.24 688.651 L 1318.06 698.954 C 1318.01 690.083 1318.27 681.214 1318.85 672.362 z" fill="rgb(174,156,95)" transform="translate(0,0)"></path>
<path d="M 1311.26 1236.38 C 1314.66 1236.42 1319.12 1235.91 1321.63 1237.81 C 1323.82 1252.86 1322.63 1452.9 1321.77 1455.02 C 1321.53 1455.62 1321.03 1456.08 1320.66 1456.61 L 1309.07 1456.34 L 1309.02 1309.17 C 1309.03 1293.67 1307.93 1251.46 1309.37 1237.62 L 1311.26 1236.38 z" fill="rgb(36,31,31)" transform="translate(0,0)"></path>
<path d="M 1001.02 1236.28 L 1013.96 1236.3 L 1013.99 1373.82 C 1013.95 1400.6 1014.31 1429.93 1013.32 1456.51 C 1009.29 1456.54 1004.84 1456.28 1000.77 1456.14 L 1001.02 1236.28 z" fill="rgb(36,31,31)" transform="translate(0,0)"></path>
<path d="M 532.996 689.578 C 540.63 688.006 547.365 687.659 555.088 687.201 L 555.903 689.936 C 548.232 690.052 540.66 689.794 532.996 689.578 z" fill="rgb(188,168,128)" transform="translate(0,0)"></path>
<path d="M 658.461 1642.69 C 663.665 1640.82 666.913 1639.89 672.19 1638.54 C 675.783 1640.13 676.216 1640.04 680.224 1640.36 C 672.961 1641.05 665.706 1641.83 658.461 1642.69 z" fill="rgb(188,168,128)" transform="translate(0,0)"></path>
<path d="M 54.2941 529.568 C 77.8 533.731 95.3965 539.205 120.745 541.849 C 173.355 547.336 226.114 550.689 278.997 551.101 C 376.285 551.859 479.382 550.799 574.867 532.152 C 564.333 550.414 538.847 583.825 525.847 601.991 C 494.552 646.158 462.785 689.988 430.551 733.474 C 391.702 784.827 353.312 846.969 312.953 896.134 L 147.692 662.149 C 127.758 634.437 108.009 606.591 88.4468 578.614 C 77.5545 563.228 64.1826 545.25 54.2941 529.568 z" fill="rgb(254,254,254)" transform="translate(0,0)"></path>
<path d="M 516.838 568.532 L 528.363 574.897 C 522.406 585.956 512.432 599.329 505.007 609.705 C 493.279 626.094 481.469 642.425 469.576 658.696 C 433.05 708.906 396.85 759.352 360.978 810.031 L 348.169 801.303 L 516.838 568.532 z" fill="rgb(36,31,31)" transform="translate(0,0)"></path>
<path d="M 114.991 569.952 C 118.432 573.317 126.744 585.727 130.109 590.488 L 161.253 634.563 L 278.26 800.619 C 275.107 803.243 270.854 806.151 267.47 808.608 L 266.931 808.687 C 264 807.534 255.393 793.423 253.143 790.08 C 244.879 777.898 236.462 765.82 227.895 753.85 L 159.265 657.029 C 140.917 631.207 121.118 604.143 104.127 577.543 L 114.991 569.952 z" fill="rgb(36,31,31)" transform="translate(0,0)"></path>
<path d="M 1631.65 940.382 C 1635.56 942.206 1645.95 950.435 1650.52 953.715 C 1661.92 961.897 1674.54 971.036 1686.96 977.512 C 1772.03 1021.87 1915 1062.05 2008.84 1033.27 C 2006.56 1039.09 2004.33 1046.7 2002.38 1052.78 C 1984.77 1058.21 1958.83 1060.47 1940.1 1061.18 L 1788.58 1549.7 L 1735.15 1716.45 C 1725.85 1745.9 1715.92 1775.81 1708.07 1805.62 L 1692.97 1805.58 C 1698.5 1780.67 1713.65 1740.05 1721.76 1714.2 L 1788.84 1504.83 C 1836.23 1357.86 1878.86 1208.44 1926.43 1061.4 C 1888.92 1060.8 1856.66 1055.2 1820.63 1046.18 C 1835.4 1078.67 1853.11 1111 1868.27 1144.28 C 1841.51 1170.62 1806.54 1199.51 1778.07 1223.87 C 1791.17 1259.76 1816.51 1303.69 1827.46 1338.6 C 1818.33 1344.47 1805.5 1357.36 1796.73 1365.02 C 1776.1 1383.12 1755.29 1401.02 1734.3 1418.7 C 1748.44 1452.11 1764.11 1486.27 1777.49 1519.7 C 1754.92 1542.59 1726.07 1566.53 1702.05 1590.37 L 1691.5 1600.94 C 1695.81 1616.03 1703.32 1632.27 1709.05 1647.07 C 1714.17 1660.3 1719.08 1673.93 1724.65 1686.93 C 1714.29 1705.59 1681.36 1735.72 1666.74 1752.78 C 1658.75 1762.12 1648.14 1774.17 1639.29 1782.86 C 1637.85 1784.27 1638.26 1783.93 1636.06 1783.67 C 1634.38 1778.24 1646.01 1758.46 1649.21 1752.57 L 1632.78 1700.94 C 1628.68 1688.02 1624.65 1673.7 1618.61 1661.68 C 1641.18 1641.97 1662.12 1617.53 1684.7 1597.18 C 1681.24 1586.02 1674.87 1571.2 1670.5 1559.89 C 1661.49 1536.73 1652.62 1513.5 1643.9 1490.23 C 1668.51 1469.16 1702.78 1437.13 1725.29 1414.2 C 1708.89 1377.8 1692.06 1341.59 1674.79 1305.59 C 1682.88 1297.2 1696.67 1285.27 1705.61 1277.18 C 1726.24 1258.7 1746.75 1240.09 1767.13 1221.35 C 1752.24 1185.44 1734.21 1149.6 1718.3 1114.06 C 1742.35 1090.72 1777.7 1065.92 1803.65 1042.74 C 1788.49 1037.56 1772.44 1033.55 1756.91 1028.24 C 1737.23 1021.52 1721.35 1014.15 1702.41 1005.84 L 1627.41 1533.05 C 1622.1 1571.43 1616.54 1609.78 1610.75 1648.09 C 1604.39 1688.42 1595.9 1737.46 1591.65 1777.9 L 1580.63 1771.06 C 1581.39 1760.4 1583.93 1745.55 1585.48 1734.76 L 1597.93 1653.26 L 1628.14 1438.69 L 1672.3 1124.51 C 1678.35 1082.95 1683.64 1040.53 1690.93 999.262 C 1663.84 983.6 1651.92 976.621 1628.74 955.113 C 1629.9 950.342 1630.75 945.228 1631.65 940.382 z" fill="rgb(254,254,254)" transform="translate(0,0)"></path>
<path d="M 1768.09 1234.64 C 1771.41 1235.98 1810.43 1325.49 1815.22 1336.35 C 1804.31 1342.96 1791.06 1355.19 1781.13 1363.74 C 1765.86 1376.67 1750.79 1389.84 1735.92 1403.24 L 1734.91 1403.75 C 1731.67 1401.95 1694.64 1319.22 1689.7 1307.51 C 1714.6 1285.65 1744.51 1257.79 1768.09 1234.64 z" fill="rgb(174,156,95)" transform="translate(0,0)"></path>
<path d="M 1809.01 1052.7 C 1813.44 1054.81 1848.31 1129.9 1856.07 1140.41 C 1848.83 1145.94 1841.53 1152.39 1834.91 1158.65 C 1816.91 1175.65 1798.12 1191.06 1779.18 1206.9 L 1775.83 1209.37 C 1769.91 1203.22 1737.28 1127.69 1733.08 1117.35 L 1809.01 1052.7 z" fill="rgb(174,156,95)" transform="translate(0,0)"></path>
<path d="M 1725.83 1430.66 C 1729.02 1432.75 1760.3 1507.61 1763.97 1516.65 C 1741.08 1538.34 1716.29 1559.66 1694.1 1581.36 L 1693.15 1581.86 C 1691.85 1580.73 1660.43 1499.8 1657.91 1493.25 C 1677.6 1473.6 1704.96 1449.99 1725.83 1430.66 z" fill="rgb(174,156,95)" transform="translate(0,0)"></path>
<path d="M 1683.8 1611.91 C 1687.27 1616.59 1709.77 1676.79 1713.58 1686.69 C 1698.45 1705.34 1677.04 1726.47 1660.26 1744.37 L 1659.26 1745.33 C 1656.24 1743.81 1653.67 1728.8 1652.37 1724.68 C 1646.07 1704.36 1639.46 1684.15 1632.56 1664.03 C 1649.13 1647.6 1668.22 1629.01 1683.8 1611.91 z" fill="rgb(174,156,95)" transform="translate(0,0)"></path>
<path d="M 186.99 185.747 C 249.988 184.378 317.839 185.672 381.329 185.664 L 774.784 185.782 L 1861.68 185.903 C 1863.1 333.157 1861.87 483.592 1861.43 631.028 C 1850.59 630.328 1842.95 630.603 1832.19 631.021 L 1832.71 429.826 L 1832.79 214.477 C 1766.45 213.828 1700.11 213.698 1633.77 214.086 L 1330.89 214.073 L 216.631 213.834 C 215.41 289.213 216.289 367.115 216.001 442.687 C 206.377 442.839 196.757 443.197 187.148 443.759 L 186.99 185.747 z" fill="rgb(254,254,254)" transform="translate(0,0)"></path>
<path d="M 188.009 1388.92 C 198.27 1389.15 206.172 1389.06 216.405 1388.64 L 216.557 1831.16 C 256.316 1832.47 302.722 1831.35 342.916 1831.34 L 596.243 1831.16 L 1413.95 1831.14 C 1419.48 1837.26 1425.19 1843.22 1431.06 1849 C 1434.36 1852.23 1440.6 1857.16 1442.92 1860.54 C 1393.65 1861.42 1342.28 1860.8 1292.89 1860.85 L 999.966 1860.85 L 187.867 1860.22 L 188.009 1388.92 z" fill="rgb(254,254,254)" transform="translate(0,0)"></path>
<path d="M 1789.01 778.177 C 1791.87 779.716 1799.71 790.483 1803.53 794.461 C 1809.48 800.696 1816.22 806.111 1823.6 810.564 C 1849.36 826.047 1887.35 831.7 1915.76 820.036 C 1927.77 815.108 1936.51 802.723 1948.69 811.576 C 1981.44 835.377 1995.32 877.64 2003.49 915.612 C 2006.39 929.091 2007.64 942.957 2010.71 956.387 L 2011.01 957.671 C 1977.66 971.038 1945.54 974.648 1909.95 972.117 C 1837.89 968.084 1719.58 930.567 1668.59 877.999 C 1669.23 876.798 1669.89 875.611 1670.58 874.437 C 1677.56 862.442 1690.08 845.555 1698.77 835.005 C 1727.62 799.967 1746.22 789.507 1789.01 778.177 z" fill="rgb(254,254,254)" transform="translate(0,0)"></path>
<path d="M 233.209 825.483 C 238.085 828.765 297.276 912.431 304.002 923.013 L 303.729 1339.97 C 298.076 1341.48 291.261 1343.96 285.593 1345.86 C 272.804 1351.38 246.61 1360 232.991 1364.58 L 233.209 825.483 z" fill="rgb(254,254,254)" transform="translate(0,0)"></path>
<path d="M 1531.54 1718.37 L 1541.28 1717.48 C 1541.11 1724.18 1540.29 1731.79 1539.72 1738.55 C 1525.21 1742.97 1504.73 1748.73 1495.62 1761.78 C 1491.56 1767.69 1490.07 1775 1491.5 1782.03 C 1495.37 1801.88 1518.77 1821.75 1535.16 1832.23 C 1596.24 1871.29 1683.46 1888.49 1754.73 1874.53 C 1770.46 1870.98 1796.99 1863.95 1805.23 1848.4 C 1821.29 1818.09 1786.03 1797.69 1765.99 1785.43 C 1768.36 1778.88 1770.64 1774.12 1774.28 1768.22 C 1804.54 1786.71 1840.75 1807.05 1860.56 1836.9 C 1869.37 1852.26 1874.56 1868.7 1862.95 1884.29 C 1849.25 1902.69 1817.39 1914.66 1795.48 1917.68 C 1686.43 1932.72 1563.39 1904.6 1470.42 1846.15 C 1452.93 1834.45 1423.34 1808.63 1420.89 1786.15 C 1415.73 1738.77 1499.57 1722.52 1531.54 1718.37 z" fill="rgb(254,254,254)" transform="translate(0,0)"></path>
<path d="M 295.89 468.492 C 359.935 468.074 426.098 468.653 489.803 475.234 C 512.485 477.578 579.613 483.512 599.187 493.985 L 599.317 494.938 C 569.575 516.924 379.093 525.006 333.34 525.02 C 259.67 525.092 89.5608 523.003 25.5489 492.987 C 45.3471 485.154 78.0462 481.722 99.673 479.306 C 164.839 472.209 230.338 468.599 295.89 468.492 z" fill="rgb(254,254,254)" transform="translate(0,0)"></path>
<path d="M 1536.52 1747.06 C 1537.41 1747.21 1538.3 1747.36 1539.19 1747.51 C 1545.43 1754.52 1555.15 1764.43 1561.97 1770.09 C 1567.17 1774.41 1570.11 1777.14 1574.21 1779.56 C 1625.53 1809.88 1711.17 1834.87 1762.5 1792.24 C 1794.98 1809.5 1825.65 1838.68 1775.88 1861.32 C 1714.61 1884.04 1626.72 1869.57 1568.18 1842.15 C 1543.93 1830.53 1509.88 1811.31 1499.49 1784.99 C 1490.51 1762.27 1520.03 1751.58 1536.52 1747.06 z" fill="rgb(254,254,254)" transform="translate(0,0)"></path>
<path d="M 187.897 759.572 C 192.372 762.978 212.133 793.717 216.696 800.654 C 217.808 845.414 216.792 894.263 216.694 939.343 L 216.666 1186.13 L 216.744 1314.12 C 216.787 1330.16 217.591 1352.39 216.153 1368.55 C 216.016 1370.1 214.861 1370.13 212.994 1371.07 L 188.396 1378.83 L 187.897 759.572 z" fill="rgb(254,254,254)" transform="translate(0,0)"></path>
<path d="M 1851.62 696.456 C 1883.55 703.531 1915.24 716.144 1950.34 709.603 C 1940.28 740.784 1928.77 772.849 1918.07 803.851 C 1909.53 827.865 1848.41 814.352 1831.46 804.056 C 1839.56 766.941 1844.56 733.217 1851.62 696.456 z" fill="rgb(254,254,254)" transform="translate(0,0)"></path>
<path d="M 1637.7 901.832 C 1654.97 916.718 1672.76 930.976 1693.14 941.34 C 1786.76 988.934 1917.54 1026.46 2020.61 995.866 C 2018.57 1002.43 2016.38 1008.96 2014.05 1015.43 C 2011.32 1021.92 1970.76 1026.85 1963.02 1027.26 C 1851.55 1033.2 1719.84 995.743 1634.62 922.915 L 1637.7 901.832 z" fill="rgb(254,254,254)" transform="translate(0,0)"></path>
<path d="M 1641.53 877.4 C 1649.13 877.245 1653.37 876.977 1660.87 878.298 C 1677.81 892.814 1695.36 907.155 1714.77 918.317 C 1778.93 955.219 1873.34 981.657 1947.42 977.267 C 1959.43 976.596 1971.35 974.791 1983.02 971.876 C 2000.2 967.472 2027.66 948.286 2024.62 979.743 C 2015.5 984.47 1996.78 990.272 1986.14 991.759 C 1885.24 1005.85 1757.41 970.068 1673.24 914.086 C 1665.47 908.918 1642.8 890.16 1639.69 879.956 C 1639.36 878.86 1640.44 878.387 1641.53 877.4 z" fill="rgb(254,254,254)" transform="translate(0,0)"></path>
<path d="M 1861.13 1523.62 C 1863.91 1530.44 1861.93 1784.17 1861.89 1807.34 C 1856.17 1801.56 1850.9 1797.19 1844.66 1791.94 C 1839.96 1788.12 1835.91 1784.12 1831.55 1779.94 C 1830.25 1750.19 1831.86 1707.01 1832.08 1676.2 C 1832.17 1661.23 1832.34 1646.26 1832.58 1631.3 C 1832.68 1625.62 1832.49 1611.93 1833.56 1607.08 C 1836.89 1592 1844.21 1575.55 1849.26 1560.66 C 1853.45 1548.27 1856.87 1535.72 1861.13 1523.62 z" fill="rgb(254,254,254)" transform="translate(0,0)"></path>
<path d="M 1805.08 300.636 L 1816.64 306.775 C 1816.02 358.648 1817.59 411.262 1816.32 463.03 C 1802.78 457.227 1789.35 449.646 1776.39 442.584 C 1766.1 437.53 1754.89 430.585 1745.29 424.38 C 1759.82 386.994 1787.9 339.924 1805.08 300.636 z" fill="rgb(254,254,254)" transform="translate(0,0)"></path>
<path d="M 232.946 1585.48 C 256.68 1594.99 283.338 1611.32 304.842 1624.71 L 263.209 1702.45 C 259.952 1708.59 243.26 1742.24 239.225 1743.56 C 237.062 1742.83 235.455 1742.46 233.814 1740.79 C 231.164 1738.09 232.356 1602.68 232.946 1585.48 z" fill="rgb(254,254,254)" transform="translate(0,0)"></path>
<path d="M 1591.79 230.12 C 1641.15 229.25 1693.64 229.962 1743.14 230.341 L 1747.39 239.245 C 1733.55 244.984 1718.9 252.18 1705.25 258.589 C 1677.69 271.371 1650.22 285.617 1622.63 298.672 C 1610.62 278.028 1598.03 253.258 1591.79 230.12 z" fill="rgb(254,254,254)" transform="translate(0,0)"></path>
<path d="M 243.112 297.822 C 244.906 298.659 296.322 407.414 303.273 422.038 C 295.665 425.889 290.174 428.35 282.247 431.497 C 260.203 439.275 256.445 440.964 232.927 442.012 C 232.047 397.489 232.981 349.695 233.286 305.004 L 243.112 297.822 z" fill="rgb(254,254,254)" transform="translate(0,0)"></path>
<path d="M 374.523 1685.71 C 382.273 1690.83 408.967 1726.75 415.054 1735.1 C 405.144 1742.46 389.028 1749.68 377.57 1755.5 L 318.008 1785.93 C 311.311 1789.36 303.625 1792.53 296.659 1795.56 L 282.983 1777.73 C 309.439 1748.41 345.912 1714.39 374.523 1685.71 z" fill="rgb(254,254,254)" transform="translate(0,0)"></path>
<path d="M 302.708 230.183 L 455.915 230.116 C 449.337 246.447 442.344 262.608 434.944 278.584 C 431.606 285.138 428.154 291.633 424.59 298.067 C 383.844 277.351 341.38 259.142 300.93 238.245 C 300.135 234.907 301.233 234.143 302.708 230.183 z" fill="rgb(254,254,254)" transform="translate(0,0)"></path>
<path d="M 1755.04 252.935 C 1757.73 254.435 1764.84 263.353 1767.34 266.281 C 1736.3 295.809 1701.32 332.595 1671.53 363.512 L 1659.19 349.297 C 1648.8 337.479 1639.27 324.936 1630.66 311.763 C 1636.24 308.868 1642.34 306.169 1648.04 303.453 C 1683.67 286.476 1718.65 268.251 1755.04 252.935 z" fill="rgb(254,254,254)" transform="translate(0,0)"></path>
<path d="M 1776.88 278.947 C 1781.47 282.157 1787.5 287.451 1791.94 291.136 C 1786.48 305.346 1776.09 325.064 1769.14 339.097 C 1756.79 364.312 1744.2 389.408 1731.36 414.382 C 1725.64 410.648 1718.74 405.305 1713.12 401.185 C 1702.34 392.943 1691.98 384.166 1682.08 374.884 C 1702.77 352.24 1725.4 330.65 1746.66 308.484 C 1756.3 298.437 1766.47 288.119 1776.88 278.947 z" fill="rgb(254,254,254)" transform="translate(0,0)"></path>
<path d="M 269.784 278.788 C 278.032 283.327 357.004 363.556 367.386 374.626 C 359.095 383.116 350.364 391.167 341.23 398.744 C 333.908 404.731 326.057 410.043 317.775 414.613 C 302.191 380.68 284.369 347.504 268.462 313.696 C 264.584 305.454 260.017 297.239 257.208 288.567 C 261.29 285.573 265.749 281.937 269.784 278.788 z" fill="rgb(254,254,254)" transform="translate(0,0)"></path>
<path d="M 293.695 251.771 C 330.368 272.444 378.752 292.32 417.145 311.656 C 409.018 324.474 400.078 336.758 390.381 348.433 C 386.617 353.287 381.735 358.658 377.657 363.358 C 372.4 355.502 347.093 331.505 339.379 323.864 C 320.413 305.081 300.966 284.58 281.331 266.675 C 285.978 261.494 289.43 257.28 293.695 251.771 z" fill="rgb(254,254,254)" transform="translate(0,0)"></path>
<path d="M 316.449 1633.49 C 332.817 1645.76 348.729 1660.6 364.181 1674.18 C 338.376 1700.54 312.757 1725.35 286.666 1751.27 C 281.309 1756.85 276.954 1761.26 271.202 1766.4 C 266.101 1761.65 259.482 1756.85 253.86 1752.55 C 275.705 1713.41 295.569 1673.15 316.449 1633.49 z" fill="rgb(254,254,254)" transform="translate(0,0)"></path>
<path d="M 421.57 1749.77 L 422.746 1749.75 C 430.4 1755.17 453.381 1805.39 458.161 1815.96 L 340.142 1816.09 C 331.752 1816.06 309.546 1818.57 304.495 1812.64 C 304.724 1812.02 304.953 1811.39 305.182 1810.77 C 333.729 1795.11 395.059 1763.4 421.57 1749.77 z" fill="rgb(254,254,254)" transform="translate(0,0)"></path>
<path d="M 1521.1 230.105 C 1538.16 229.527 1557.25 229.94 1574.46 229.939 C 1588.32 260.887 1592.13 273.978 1609.35 305.023 L 1593.89 313.5 C 1584.49 318.698 1574.25 324.664 1564.32 328.536 C 1544.91 295.04 1532.64 267.475 1521.1 230.105 z" fill="rgb(254,254,254)" transform="translate(0,0)"></path>
<path d="M 473.107 229.968 L 526.919 230.057 C 516.531 265.716 504.568 289.633 488.307 322.579 L 486.643 324.494 C 481.017 325.883 445.978 307.983 439.201 304.777 C 453.318 278.183 461.882 257.689 473.107 229.968 z" fill="rgb(254,254,254)" transform="translate(0,0)"></path>
<path d="M 1737.17 437.407 C 1764.48 453.792 1788.42 465.493 1816.64 479.756 L 1816.38 528.041 L 1801.69 522.952 C 1773.29 512.8 1740.78 496.838 1715.84 479.895 C 1722.69 465.603 1729.8 451.438 1737.17 437.407 z" fill="rgb(254,254,254)" transform="translate(0,0)"></path>
<path d="M 232.715 1522.38 C 269.013 1533.09 303.523 1549.13 335.118 1569.96 C 331.025 1577.85 324.797 1588.09 320.283 1595.98 L 311.833 1610.92 C 282.487 1592.31 266.19 1581.31 232.337 1568.64 C 232.223 1553.22 232.349 1537.8 232.715 1522.38 z" fill="rgb(254,254,254)" transform="translate(0,0)"></path>
<path d="M 478.889 1719.81 C 487.643 1721.43 523.063 1806.3 527.059 1815.95 L 487.5 1816.05 L 474.394 1816.07 C 463.71 1789.3 452.066 1767.34 438.336 1742.18 C 447.166 1736.3 468.357 1725.68 478.889 1719.81 z" fill="rgb(254,254,254)" transform="translate(0,0)"></path>
<path d="M 430.724 318.409 C 446.273 325.109 462.343 332.944 477.735 340.163 C 461.412 364.119 450.101 379.268 431.646 401.585 L 424.949 409.489 C 413.113 398.15 400.59 386.953 389.549 374.938 C 405.109 357.091 417.835 338.181 430.724 318.409 z" fill="rgb(254,254,254)" transform="translate(0,0)"></path>
<path d="M 1616.59 318.889 C 1619.85 321.162 1637.77 345.951 1641.7 350.932 C 1647.75 358.667 1654.22 366.055 1661.1 373.061 C 1656.19 378.254 1630.07 407.652 1625.65 407.947 L 1622.79 405.359 C 1603.81 385.921 1587.02 364.463 1572.72 341.37 C 1585.79 335.862 1602.49 325.551 1616.59 318.889 z" fill="rgb(254,254,254)" transform="translate(0,0)"></path>
<path d="M 418.89 1638.7 C 432.455 1648.44 462.601 1691.49 472.641 1707.12 C 464.842 1711.99 445.943 1719.85 435.95 1725.1 L 429.211 1728.75 C 416.826 1709.63 400.079 1691.11 385.007 1673.86 C 395.795 1662.21 407.806 1650.2 418.89 1638.7 z" fill="rgb(254,254,254)" transform="translate(0,0)"></path>
<path d="M 1836.18 653.243 C 1867.91 650.681 1906.44 660.37 1935.36 673.231 C 1942.18 676.266 1951.51 682.013 1953.87 689.81 C 1954.74 692.704 1953.96 693.143 1952.66 695.336 C 1948.64 697.947 1946.99 697.924 1942.14 698.887 C 1905.93 700.384 1872.67 693.652 1840.12 677.256 C 1833.51 673.927 1825.28 669.687 1822.22 662.684 C 1822.35 654.621 1829.68 654.552 1836.18 653.243 z" fill="rgb(254,254,254)" transform="translate(0,0)"></path>
<path d="M 1671.78 384.722 C 1689.58 400.908 1705.72 412.751 1724.03 427.809 C 1718.76 441.902 1709.85 458.542 1702.62 471.83 L 1695.91 467.768 C 1676.43 455.088 1653.82 436.098 1637.31 419.784 C 1649.01 408.383 1659.58 396.32 1671.78 384.722 z" fill="rgb(254,254,254)" transform="translate(0,0)"></path>
<path d="M 346.999 1576.83 C 363.691 1586.85 396.898 1614.21 409.055 1628.6 C 400.548 1635.04 389.604 1647.55 382.076 1655.68 L 374.626 1663.93 C 357.018 1646.6 343.823 1635.83 324.343 1620.21 C 332.059 1605.83 339.611 1591.37 346.999 1576.83 z" fill="rgb(254,254,254)" transform="translate(0,0)"></path>
<path d="M 378.151 386.921 C 382.441 389.772 408.322 415.065 414.637 420.82 L 395.398 441.042 L 362.5 440.688 L 329.949 440.186 L 324.493 428.29 C 347.223 415.826 359.822 404.232 378.151 386.921 z" fill="rgb(254,254,254)" transform="translate(0,0)"></path>
<path d="M 232.53 1756.95 C 253.895 1765.69 279.795 1794.51 288.241 1815.85 C 270.194 1816.4 250.483 1815.99 232.315 1815.97 C 231.742 1798.32 231.992 1774.6 232.53 1756.95 z" fill="rgb(254,254,254)" transform="translate(0,0)"></path>
<path d="M 1760.81 230.34 C 1778.62 229.518 1799.08 229.999 1817.09 230.01 L 1817.02 291.731 C 1799.59 280.299 1767.16 250.609 1760.81 230.34 z" fill="rgb(254,254,254)" transform="translate(0,0)"></path>
<path d="M 1818.81 679.287 L 1839.58 692.066 C 1837.89 716.939 1827.99 763.508 1823.72 790.649 C 1823.29 793.505 1823.45 793.809 1822.11 796.302 L 1819.93 796.72 C 1816.14 795.253 1811.92 790.243 1808.89 787.142 C 1808.98 777.05 1811.86 755.177 1812.94 744.285 L 1818.81 679.287 z" fill="rgb(254,254,254)" transform="translate(0,0)"></path>
<path d="M 1814.27 1655.7 C 1815.41 1661.12 1814.51 1688.68 1814.41 1695.46 L 1813.66 1769.48 C 1807.85 1766.37 1801.24 1762.27 1795.48 1758.88 C 1790.88 1756.15 1786.26 1753.01 1781.77 1750.08 C 1787.68 1731.78 1794.48 1713.21 1800.73 1694.97 C 1805 1682.48 1809.37 1667.6 1814.27 1655.7 z" fill="rgb(254,254,254)" transform="translate(0,0)"></path>
<path d="M 233.058 230.218 C 250.999 230.115 268.94 230.2 286.879 230.473 C 281.751 241.71 271.679 254.41 263.66 263.659 C 251.972 274.647 246.606 278.793 233 287.287 L 233.058 230.218 z" fill="rgb(254,254,254)" transform="translate(0,0)"></path>
<metadata><recraft-signature>{"signed_by": "recraft", "signature_b64": "JaNtB8DaiaqzhEXYSf7unPeNHVxifM3m46ocmxgjD3lkyijvbHrsFmDBF4KUNvqMdz1ncOn/J0gJj+4UgcHmCw==", "signing_algo": "Ed25519", "generation_timestamp": 1772546439, "identifier": "271894a0-187c-492a-945b-6e0674fe9854"}</recraft-signature></metadata></svg>