<svg xmlns="http://www.w3.org/2000/svg" height="1024" preserveAspectRatio="none" style="display: block;" version="1.1" viewBox="0 0 2048 2048" width="1024">
<defs>
	<linearGradient gradientUnits="userSpaceOnUse" id="Gradient1" x1="1245.75" x2="1240.45" y1="1579.93" y2="1576.22">
		<stop class="stop0" offset="0" stop-color="rgb(84,109,91)" stop-opacity="1"></stop>
		<stop class="stop1" offset="1" stop-color="rgb(128,143,131)" stop-opacity="1"></stop>
	</linearGradient>
	<linearGradient gradientUnits="userSpaceOnUse" id="Gradient2" x1="1277.2" x2="1279" y1="1516.9" y2="1520.5">
		<stop class="stop0" offset="0" stop-color="rgb(82,109,91)" stop-opacity="1"></stop>
		<stop class="stop1" offset="1" stop-color="rgb(130,145,131)" stop-opacity="1"></stop>
	</linearGradient>
</defs>
<path d="M 0 0 L 2048 0 L 2048 2048 L 0 2048 L 0 0 z" fill="rgb(255,255,255)" transform="translate(0,0)"></path>
<path d="M 1927.96 890.995 L 1113.1 891.156 C 1018.62 891.774 924.127 891.407 829.648 890.054 C 804.136 889.963 778.623 890.121 753.114 890.527 C 742.293 890.666 731.153 891.005 720.377 891.101 C 714.944 891.15 706.081 887.137 706.469 880.799 C 706.93 874.996 714.609 872.608 719.447 872.622 C 750.361 872.711 781.275 873.366 812.193 873.548 L 970.136 872.989 L 1756.79 873.47 L 1884.42 873.425 C 1901.07 873.352 1917.85 873.135 1934.5 873.089 C 1942.32 873.068 1951.39 871.163 1955.28 879.371 C 1953.64 888.115 1943.55 898.908 1937.97 905.942 C 1910.66 940.426 1881.24 973.853 1854.89 1009.07 C 1877.53 1036.19 1899.9 1063.53 1922.01 1091.08 C 1928.51 1099.23 1956 1131.07 1955.41 1139.84 C 1952.98 1142.7 1950.21 1144.44 1946.36 1144.36 C 1933.57 1144.08 1920.72 1143.73 1907.92 1143.73 L 1811.05 1143.98 L 1471.88 1143.61 L 943.593 1144.05 L 778.981 1144.26 C 740.04 1144.45 698.062 1145.33 659.265 1144.28 C 690.876 1174.31 721.782 1203.63 756.326 1230.74 C 781.634 1250.6 810.508 1276.79 845.273 1275.91 C 863.388 1274.91 873.921 1270.42 887.903 1258.43 C 907.514 1241.61 894.304 1201.4 913.637 1191.25 C 919.875 1187.98 923.895 1205.05 923.73 1210.48 C 922.968 1235.48 903.233 1250.92 887.328 1267.49 C 882.449 1272.58 874.11 1276.64 868.422 1280.48 C 889.252 1275.48 903.272 1270.98 918.83 1255.25 C 924.048 1249.98 939.111 1228.99 945.063 1231.55 L 946.365 1234.67 L 947.356 1233.85 C 948.099 1223.08 932.792 1208.55 946.943 1197.55 C 953.548 1192.42 958.741 1194.31 963.392 1200.5 C 978.38 1220.44 969.789 1248.82 950.464 1262.41 C 936.815 1272 922.691 1273.35 906.97 1277.18 C 881.328 1285.5 875.974 1288.75 848.804 1290.58 C 891.449 1302.62 931.23 1309.4 975.52 1303.38 C 986.087 1301.94 996.909 1300.72 1006.28 1295.38 C 1015.7 1290.44 1029.5 1272.97 1022.85 1262.18 C 1018.08 1254.47 1009.06 1247.7 1011.65 1236.92 C 1013.75 1227.98 1017.02 1222.52 1026.95 1223.92 C 1027.85 1222.44 1028.26 1221.91 1029.51 1220.62 C 1054.42 1215.77 1058.8 1245.29 1038.61 1260.22 C 1033.99 1274.15 1034.91 1280.06 1025.05 1291.75 C 1037.99 1287.01 1047.59 1283.37 1059.56 1276.4 C 1082.04 1235.31 1056.98 1236.37 1059.16 1224.99 L 1061.44 1222.93 C 1059.47 1206.97 1057.61 1200.14 1076.47 1199.35 C 1077.83 1198 1079.18 1196.79 1080.76 1195.7 C 1085.88 1196.09 1090.03 1200.05 1094.08 1203.25 C 1095.08 1212.9 1094.61 1225.88 1089.21 1234.19 L 1084.8 1236.57 C 1084.51 1240.77 1085.02 1243.42 1082.95 1246.58 L 1079.63 1247.82 C 1076.31 1257.53 1076.47 1264.28 1072.53 1274.85 C 1081.88 1265.8 1085.87 1261.36 1097.23 1254.66 C 1101.1 1244 1106.93 1231.22 1109.49 1220.37 C 1113.52 1203.29 1114.23 1214.82 1121.44 1204.53 C 1127.45 1201.94 1127.56 1203.25 1131.51 1197.93 L 1132.39 1196.72 C 1157.11 1187.21 1161.47 1216.62 1154.99 1233.43 C 1153.21 1238.06 1147.53 1241.27 1143.55 1243.86 C 1142.83 1247.94 1143.35 1249.96 1139.95 1252.09 C 1133.08 1256.4 1123.4 1259.78 1116.8 1263.87 C 1107.15 1269.86 1097.3 1278.64 1088.09 1285.77 C 1099.04 1286.4 1109.96 1287.55 1120.8 1289.21 C 1155.59 1252.78 1183.86 1304.62 1140.35 1317.64 C 1123.06 1312.32 1118.49 1318.47 1114.43 1300.61 C 1105.39 1298.03 1080.52 1293.67 1072.34 1296.82 C 1040.24 1309.16 1012.56 1319.83 977.238 1322.98 C 1000.26 1326.44 1047.07 1332.98 1069.96 1330.92 C 1072.2 1325.45 1071.61 1321.61 1079.7 1319.95 C 1086.75 1322.19 1085.28 1323.07 1091.04 1317.89 C 1095.18 1317.04 1095.23 1317.95 1098.32 1321.26 C 1102.32 1322.02 1110.84 1322.91 1113.76 1326.3 C 1120.44 1334.06 1107.17 1360.16 1097.36 1349.31 C 1092.73 1351.53 1092.68 1353.26 1087.89 1353.36 C 1085.47 1352.36 1084.23 1351.73 1081.93 1350.47 C 1070.98 1355.07 1070.43 1344.63 1065.63 1341.36 C 1063.52 1339.92 1038.1 1339.76 1034.57 1339.66 C 1047.75 1346.51 1056.13 1353.14 1066.13 1364.03 C 1079.36 1364.93 1095.83 1369.56 1093.43 1386.37 C 1092.62 1392.3 1089.35 1397.61 1084.42 1401 C 1080.01 1403.97 1074.57 1404.99 1069.38 1403.84 C 1054 1400.37 1050.83 1379.8 1050.34 1366.63 C 1041.23 1352.11 1017.05 1341.03 1000.85 1337.92 C 973.541 1332.67 943.679 1326.94 916.134 1323.54 C 930.127 1332.31 937.611 1340.3 950.251 1349.71 C 955.19 1353.4 967.665 1359.01 974.041 1363.25 C 1006.75 1385.01 1019.88 1412.38 1028.38 1450.09 C 1029.9 1456.87 1031.7 1462.83 1029.45 1469.46 C 1028.34 1470.61 1026.63 1472.74 1024.73 1471.95 C 990.585 1457.85 953.85 1431.38 935.045 1399.03 C 930.852 1391.81 923.589 1376.43 931.48 1371.64 C 954.221 1371.63 994.824 1433.59 1011.54 1449.31 L 1011.89 1448.09 C 989.165 1408.6 951.137 1370.57 919.23 1337.79 C 910.527 1328.85 892.866 1319.35 880.931 1316.28 C 869.331 1313.39 857.551 1310.31 846.202 1306.56 C 802.188 1292 767.09 1265.54 731.952 1236.33 C 719.529 1226 707.018 1213.93 694.319 1204.17 C 700.92 1213.03 709.057 1220.87 716.512 1229.01 C 752.029 1267.08 786.202 1307.46 824.715 1342.56 C 859.98 1374.7 896.479 1412.5 935.163 1440.58 C 975.687 1470 1024.49 1504.62 1068.71 1528.09 C 1090.51 1525.28 1137.25 1518.3 1155.68 1508.04 C 1163.68 1503.5 1170.65 1497.36 1176.16 1490 C 1187.17 1475.59 1192.24 1460.17 1190.84 1442.02 C 1184.96 1432.7 1183.87 1430.33 1181.89 1419.47 L 1180.76 1418.59 C 1170.38 1410.3 1166.74 1400.37 1175.28 1389.23 C 1189.43 1370.78 1229.39 1382.14 1220.06 1407.03 C 1220.5 1409.75 1221.59 1410.4 1223.51 1412.47 C 1224.34 1415.72 1224.19 1415.52 1223.05 1418.73 C 1217.87 1423.13 1217.64 1419.08 1215.89 1422.53 L 1217.23 1425.52 C 1216 1428.46 1212.85 1428.86 1212.04 1430.63 C 1210.44 1434.09 1216.54 1435.55 1207.13 1442.65 C 1202.3 1446.29 1198.03 1470.02 1194.9 1477.05 C 1191.34 1485.07 1186.54 1491.96 1181.18 1498.87 C 1205.34 1485.48 1230 1472.09 1250.52 1453.26 C 1253.92 1440.4 1259.74 1412.78 1252.81 1400.2 C 1249.24 1394.3 1244.2 1388.88 1241.51 1382.52 C 1238.35 1375.06 1231.65 1365.21 1235.72 1356.82 C 1246.61 1334.39 1274.13 1339.39 1281.63 1361.58 C 1282.46 1364.06 1282.09 1365.6 1281.28 1367.98 C 1278.3 1370.13 1279.36 1369.48 1274.71 1369.14 C 1277.58 1371.76 1279.03 1372.55 1279.94 1376.31 L 1279.3 1378.64 C 1275.99 1380.07 1275.57 1380.12 1271.51 1378.5 L 1269.97 1377.86 C 1272.64 1381.89 1274.9 1383.2 1275.6 1387.46 C 1274.74 1390.68 1273.31 1391.16 1270.68 1393.22 L 1267.44 1395.78 C 1267.98 1413.4 1268.4 1428.02 1263.97 1445.35 C 1275.74 1429.78 1297.47 1408.43 1304.73 1392.17 C 1309.44 1381.61 1297.22 1366.27 1314.03 1358.4 C 1317.07 1353.07 1320.03 1346.82 1325.56 1343.98 L 1330.39 1344.23 C 1332.61 1340.18 1331.35 1338.44 1335.19 1335.42 L 1337.49 1334.86 C 1339.98 1336.4 1340.1 1337.08 1341.66 1339.55 L 1342.48 1339.14 L 1342.76 1338.17 C 1344.46 1332.48 1345.3 1330.1 1351.51 1331.05 C 1354.29 1333.36 1354.67 1335.58 1355.91 1339 C 1360.11 1340.26 1375.14 1330.43 1375.24 1346.23 C 1374.1 1348.31 1369.9 1354.52 1370.92 1356.37 C 1375.17 1364.08 1378.79 1369.63 1369.4 1375.12 L 1367.79 1378.37 C 1373.07 1386.05 1370.76 1387.83 1365.14 1394.86 C 1355 1395.48 1356.15 1396.01 1351.73 1405.08 L 1337.42 1404.15 C 1328.06 1418.74 1325.24 1411.14 1320.98 1416.1 C 1306.04 1433.53 1291.21 1453.12 1272.95 1467 C 1292.13 1461.96 1300.2 1460.73 1320.08 1459.26 C 1327.46 1451.44 1331.5 1446.57 1342.55 1444.71 L 1343.5 1445.71 L 1343.25 1447.68 C 1345.4 1447.54 1346.85 1446.78 1348.52 1445.44 C 1355.89 1439.51 1368.73 1444.62 1372.98 1452.36 C 1376.46 1458.71 1377.16 1466.48 1374.99 1473.48 C 1372.97 1480.14 1368.28 1485.67 1362.04 1488.76 C 1342.18 1498.69 1339.69 1485.62 1326.33 1480.48 L 1324.3 1483.64 C 1321.47 1484.17 1316.86 1481.79 1315.11 1480.3 C 1306.01 1472.52 1308.55 1472.09 1296.72 1472.87 C 1263.91 1475.04 1245.72 1488.85 1218.64 1505.41 C 1210.47 1510.41 1192.7 1518.28 1183.27 1522.29 C 1193.33 1521.53 1257.59 1520.54 1265.23 1522.56 C 1268.49 1520.42 1272.63 1517.35 1276.22 1516.18 L 1278.03 1516.64 C 1281.8 1513.14 1279.68 1514.23 1284.51 1513.03 C 1288.12 1514.01 1289.32 1514.23 1290.22 1518.29 C 1290.44 1518.06 1290.66 1517.83 1290.88 1517.61 C 1294.51 1513.98 1298.96 1511.43 1304.25 1511.48 C 1308.76 1511.53 1312.57 1514.37 1315.42 1517.64 C 1320.34 1523.29 1323.41 1530.75 1322.62 1538.3 C 1321.98 1544.52 1318.95 1551.5 1313.85 1555.34 C 1308.91 1559.06 1302.71 1559.54 1296.8 1558.44 C 1289.38 1557.06 1270.78 1538.72 1263.27 1533.19 C 1247.78 1531.7 1229.28 1531.26 1213.52 1530.85 C 1216.29 1532.41 1247.13 1554.22 1242.95 1554.38 C 1253.22 1553.98 1264.15 1550.09 1273.12 1561.21 C 1290.95 1579.44 1275.63 1604.94 1251.12 1598.64 C 1244.04 1596.82 1228.62 1583.13 1232.74 1574.58 L 1235.89 1575.09 C 1237.31 1572.66 1236.87 1574.01 1236.42 1570.75 C 1231.28 1566.87 1232.01 1561.79 1228.46 1556.61 C 1207.66 1526.27 1169.2 1532.57 1138.5 1539.97 C 1125.89 1543.01 1113.44 1545.07 1100.98 1547.05 C 1137.3 1565.99 1174.17 1583.85 1211.54 1600.62 C 1261.58 1623.37 1300.86 1641.26 1357.62 1623.12 C 1372.23 1618.45 1382.43 1611.77 1389.03 1597.71 C 1408.03 1562.54 1385.87 1558.61 1391.47 1529.81 C 1425.24 1501.8 1446.26 1540.35 1416.65 1561.64 C 1415.47 1560.05 1416.07 1560.23 1416.22 1557.26 C 1412.17 1557.67 1410.85 1562.72 1410.15 1566.2 C 1407 1581.92 1401.64 1594 1394.98 1608.44 C 1410.89 1601.04 1425.57 1595.63 1439.21 1584.67 C 1443.77 1572.21 1449.79 1547.29 1444.94 1535.09 L 1443.45 1534.59 C 1440.86 1536.36 1440.48 1537.36 1438.15 1537.06 C 1436.41 1532.81 1438.72 1513.4 1443.04 1511.02 L 1445.18 1513.64 L 1446.44 1512.71 C 1446.68 1511.14 1446.85 1509.83 1447.02 1508.23 C 1463.24 1496.83 1495.44 1518.55 1457.55 1542.31 C 1456.62 1557.76 1456.07 1565.45 1450.48 1580.33 C 1462.77 1572.04 1489.04 1552.08 1487.02 1535.5 C 1488.54 1531.8 1492.02 1529.31 1495.08 1526.58 C 1494.87 1522.78 1494.25 1519.33 1495.84 1515.93 C 1499.36 1513.61 1503.57 1513.35 1507.15 1515.8 C 1516.22 1510.06 1517.33 1498.13 1533 1501.38 C 1539.8 1502.79 1546.65 1509.2 1550.55 1514.84 C 1551.7 1520.58 1547.54 1519.38 1548.91 1527.13 C 1544.11 1532.23 1546.38 1526.48 1542.27 1531.12 C 1543.1 1536.45 1544.61 1542.67 1543.26 1547.72 C 1540.61 1550.76 1542.16 1550.03 1538.92 1550.83 L 1537.39 1549.83 C 1535.71 1548.75 1535.41 1548.55 1533.45 1547.96 L 1532.33 1548.59 L 1532.62 1549.59 C 1533.38 1552.21 1534.01 1553.35 1533.26 1555.94 C 1531.02 1558.87 1530.7 1559.62 1527.39 1561.44 C 1524.55 1560.46 1523.88 1559.9 1521.36 1558.33 C 1509.38 1562.27 1518.41 1570.32 1505.04 1568.06 C 1495.85 1566.5 1474.78 1585.86 1460.3 1591.57 C 1467.76 1592.39 1474.63 1593.25 1482.18 1592.86 C 1489.7 1592.47 1496.32 1589.19 1502.74 1593.43 C 1505.38 1591.65 1507.73 1589.24 1510.59 1590.1 C 1514.94 1591.42 1519.03 1594.55 1522.78 1596.99 C 1523.85 1597.69 1529.13 1594.27 1530.32 1596.42 C 1531.61 1598.77 1532.37 1604.15 1532.51 1604.33 C 1535.29 1608.01 1535.15 1605.61 1535.48 1610.14 C 1532.27 1617.57 1520.51 1623.4 1513.09 1626.15 C 1512.34 1625.85 1499.18 1620.07 1500.47 1620.29 L 1499.42 1621.76 C 1496.22 1623.3 1497.84 1623.14 1494.39 1622.22 C 1491.31 1619.51 1491.54 1619.54 1490.34 1615.5 L 1487.89 1612.74 C 1486.63 1601.96 1478.25 1605.35 1469.29 1603.79 C 1444.96 1599.55 1429.29 1611.23 1407.88 1619.78 C 1413.08 1619.83 1417.43 1619.88 1422.65 1620.6 C 1430.2 1621.62 1442.89 1627.19 1449.76 1625.32 C 1451.8 1622.87 1451.61 1622.77 1454.46 1621.49 L 1456.36 1624.45 L 1457.17 1624.41 L 1458.32 1622.22 L 1460.1 1621.81 L 1464.27 1624.45 C 1472.65 1616.54 1469.25 1624.85 1477.59 1624.25 C 1482.27 1623.78 1485.24 1634.14 1485.46 1637.79 C 1486.04 1647.27 1478.9 1659.44 1468.5 1659.72 C 1464.81 1659.81 1454.93 1657.16 1452.21 1654.62 C 1453.35 1653.91 1454.1 1653.71 1455.37 1653.35 L 1454.39 1651.92 L 1451.01 1653.51 L 1449.51 1652.94 C 1442.93 1638.03 1439.77 1634.6 1423.67 1632.25 C 1414.31 1630.97 1398.99 1629.32 1389.66 1631.74 C 1357.82 1640.03 1335.22 1642.77 1302.21 1642.08 C 1349.03 1655.96 1390.55 1671.74 1439.39 1680.52 C 1480.77 1687.95 1507.58 1682.51 1542.61 1658.82 C 1557.16 1648.93 1570.58 1637.47 1582.63 1624.65 C 1612.44 1593.01 1618.05 1572.76 1626.46 1529.99 C 1625 1529.03 1623.56 1528.02 1622.16 1526.98 C 1618.29 1524.07 1613.76 1515.7 1613.24 1511.47 C 1610.8 1507.61 1617.6 1504.01 1617.66 1505.49 C 1617.26 1495.53 1622.86 1500.83 1627.19 1493.65 L 1629.77 1493.35 C 1631.14 1495.08 1631.46 1495.55 1633.11 1496.98 C 1636.37 1497.03 1638.91 1496.57 1641.36 1498.5 C 1641.45 1500.32 1641.33 1502.08 1641.14 1503.9 L 1644.16 1505.18 C 1648.08 1513.61 1640.82 1523.11 1634.97 1528.71 C 1631.63 1545.57 1627.67 1562.29 1623.1 1578.86 C 1638.06 1555.23 1650.03 1534.5 1662.16 1509.21 C 1657.74 1499.32 1649.67 1474.04 1663.31 1468.09 C 1664.71 1468.78 1666.1 1469.49 1667.48 1470.21 C 1667.42 1465.79 1667.17 1465.11 1668.95 1461.24 C 1672.41 1458.68 1670.52 1459.41 1674.88 1459.04 C 1677.78 1460.34 1678.28 1462.29 1679.84 1465.24 L 1680.5 1466.5 C 1684.29 1463.27 1683.91 1463.2 1688.48 1464.11 C 1691.42 1466.6 1690.56 1465.12 1691.57 1468.45 C 1690.32 1471.38 1689.97 1471.84 1689.51 1475.05 L 1690.63 1476.23 C 1693.43 1476.56 1694.52 1476.35 1696.72 1478.04 C 1696.58 1483.37 1693.27 1481.28 1692.47 1486.6 L 1695.79 1486.49 L 1696.99 1488 C 1696.71 1491.74 1696.74 1490.58 1693.13 1494.01 C 1693.2 1495.53 1693.24 1497.06 1693.26 1498.58 C 1688.12 1505.16 1679.27 1510.78 1671.1 1512.63 C 1661.95 1535.29 1651.3 1551.23 1638.15 1571.51 C 1651.57 1561.86 1659.85 1555.97 1674.08 1548.18 C 1676.41 1539.62 1681.12 1531.51 1688.72 1526.18 C 1699.2 1518.84 1702.65 1534.39 1712.33 1535.47 C 1714.08 1538.38 1713.76 1536.86 1713.42 1540.16 C 1711.78 1541.25 1710.86 1541.91 1709.34 1543.14 C 1711.34 1544.83 1710.89 1544.16 1711.89 1546.37 C 1710.84 1550.27 1708.68 1552.36 1705.82 1554.73 C 1699.04 1563.49 1686.19 1556.41 1681.9 1557.43 C 1652.2 1564.46 1621.64 1595.81 1604.02 1617.7 C 1616.51 1615.77 1633.18 1612.16 1645.13 1608.27 C 1645.86 1606.34 1648.22 1599.94 1648.75 1599.49 C 1660.5 1589.51 1670.68 1581.99 1679.47 1599.94 C 1678.69 1598.33 1684.24 1604.39 1683.6 1603.7 C 1684.03 1611.09 1682.2 1604.09 1680.63 1610.81 C 1682.98 1612.07 1682.28 1611.18 1683.54 1613.14 C 1673.42 1627.3 1659.27 1624.87 1645.78 1617.73 C 1638.88 1620.61 1602.14 1627.99 1593.41 1629.64 C 1564.76 1660.67 1538.55 1680.24 1497.23 1692.44 C 1544.09 1699.44 1622.59 1705.64 1664.32 1681.11 C 1684.61 1669.18 1692.26 1649.53 1697.6 1627.67 C 1678.64 1608.62 1695.97 1612.78 1691.08 1597.96 C 1692.75 1595.42 1691.63 1596.31 1694.67 1595.33 C 1696.09 1596.74 1696.14 1598.93 1696.7 1601.27 C 1700.47 1598.3 1698.39 1593.78 1702.9 1590.5 C 1706.68 1590.47 1705.63 1590.68 1709.41 1594.02 C 1710.48 1591.72 1709.91 1592.42 1711.98 1590.85 C 1717.12 1591.87 1721.93 1597.99 1723.26 1602.82 L 1720.97 1605.74 C 1721.34 1606.23 1721.71 1606.72 1722.09 1607.21 C 1733.16 1618.68 1718.08 1626.51 1708.12 1632.64 C 1698.06 1652.58 1698.2 1661.14 1682.52 1680.03 C 1698.79 1673.65 1724.29 1663.92 1733.51 1647.6 C 1736.8 1641.77 1733.13 1626.01 1735.61 1619.07 C 1738.6 1617.25 1737.89 1618.15 1739.82 1615.53 C 1738.79 1609.99 1738.41 1610.04 1742.83 1606.55 C 1744.68 1606.66 1746.44 1606.93 1748.25 1607.3 C 1751.37 1604.31 1750.18 1606.09 1751.38 1601.43 C 1753.76 1599.3 1755.05 1599.26 1758.14 1598.59 L 1759.82 1598.24 C 1763.67 1597.4 1766 1596.35 1769.73 1597.57 C 1773.53 1601.08 1773 1602.25 1774.83 1607.56 C 1778.15 1608.62 1779.38 1608.68 1781.62 1611.36 C 1783.56 1619.81 1779.89 1615.93 1778.43 1620.24 C 1781.2 1621.33 1781.85 1621.37 1784.1 1623.36 C 1783.47 1626.55 1782.46 1626.62 1779.76 1629.43 C 1780.66 1632.6 1781.43 1634.09 1780.62 1637.28 C 1778.15 1639.96 1779.7 1639.13 1775.57 1639.33 C 1772.82 1643.41 1777.38 1639.3 1776.85 1645.68 C 1773.48 1649.47 1756.34 1656.63 1750.96 1654.86 C 1750.53 1654.72 1746.23 1653.2 1745.84 1653.44 C 1738.09 1658.32 1732.72 1666.69 1724.63 1671.28 C 1690.49 1691.81 1646.2 1702.53 1606.97 1707.18 C 1610.36 1707.69 1613.76 1708.11 1617.18 1708.43 C 1670.54 1713.26 1740.66 1708.21 1791.81 1698.64 C 1812.86 1694.71 1840.23 1647.08 1847.65 1630.05 C 1849.38 1626.09 1854.87 1631.37 1857.78 1631.69 L 1861.88 1628.15 C 1868.28 1626.86 1878 1632.56 1880.09 1638.5 C 1879.27 1639.86 1878.51 1641.1 1877.63 1642.42 L 1877 1643.36 C 1880.07 1642.2 1878.67 1642.08 1881.36 1643.28 C 1883.23 1648.84 1883.28 1656 1878.42 1659.84 C 1874.68 1660.72 1874.33 1660.53 1870.61 1659.45 L 1870.09 1660.45 C 1871.38 1663.34 1871.8 1663.79 1872.06 1666.97 C 1869.88 1670.13 1871.25 1669.06 1868.04 1670.57 C 1862.49 1668.61 1860.63 1669.82 1855.89 1672.9 C 1852.36 1672.26 1845.54 1666.88 1842.22 1664.55 C 1828.86 1679.24 1828.8 1683.44 1811.12 1697.34 C 1831.56 1692.53 1853.53 1690.23 1873.06 1682.09 C 1885.44 1676.93 1883.9 1667.79 1899.52 1667.08 C 1905.85 1663.43 1901.52 1657.6 1912.6 1655.86 C 1916.61 1657.36 1915.52 1657.23 1918.49 1661.51 L 1919.99 1661.49 C 1922 1657.04 1922.11 1654.84 1927.05 1653.93 C 1932.42 1655.5 1931.1 1658.79 1935.39 1660.86 C 1937.92 1659.89 1937.82 1659.86 1940.51 1659.71 C 1947.14 1664.33 1959.54 1665.72 1961.63 1672.37 C 1960.09 1678.17 1956.91 1686.06 1952.87 1690.57 C 1949.81 1690.88 1949.84 1690.73 1947.12 1692.04 C 1944.17 1706 1936.26 1696.22 1930.83 1697.69 C 1931.52 1701.24 1931.62 1701.3 1931.34 1705.1 C 1929.09 1707.93 1930.52 1706.81 1926.47 1707.91 C 1920.82 1706.9 1921.35 1703.46 1916.9 1702.56 C 1916.22 1704.57 1915.49 1706.56 1914.71 1708.54 C 1909.61 1711.81 1880.37 1704.57 1871.36 1705.15 C 1854.54 1706.23 1839.6 1710.67 1822.7 1712.65 C 1835.05 1718.05 1854.36 1723.42 1867.25 1726.02 C 1873.16 1721.93 1887.59 1714.4 1895.21 1716.86 C 1896.79 1717.38 1896.71 1719.28 1897.2 1721.07 C 1901.05 1721.07 1902.02 1720.72 1905.83 1719.81 C 1907.79 1721.54 1909.24 1724.54 1910.68 1726.93 C 1914.69 1728.44 1911.78 1724.89 1918.68 1726.1 L 1919.83 1727.87 C 1919.61 1732.42 1916.57 1735.29 1916.89 1737.99 C 1919.91 1738.31 1918.87 1737.94 1921.49 1739.32 L 1916.88 1752.85 C 1913.53 1755.09 1914.14 1754.65 1909.09 1754.52 L 1907.7 1754.48 C 1906.53 1757.8 1906.33 1759.6 1903.5 1761.63 C 1895.61 1762.12 1898.52 1759.6 1891.32 1753.25 C 1890.68 1754.71 1890.11 1755.92 1889.42 1757.34 C 1880.18 1758.88 1869.96 1742.46 1865.5 1735.82 C 1857.68 1733.47 1849.92 1731.14 1842.31 1728.46 C 1836.4 1726.37 1820.58 1718.97 1815.44 1718.68 C 1796.78 1717.64 1773.55 1722.15 1754.58 1723.36 C 1718.1 1725.7 1682.43 1727.87 1645.97 1727.25 C 1674.03 1734.75 1696.58 1742.49 1721.39 1757.38 C 1735.6 1765.91 1765.64 1761.84 1781.14 1756.62 C 1780.76 1743.07 1784.33 1738.92 1798.15 1738.32 L 1799.55 1738.27 C 1801.62 1734.95 1801.63 1734.96 1804.52 1732.29 C 1808.02 1731.38 1806.49 1731.08 1809.35 1732.26 C 1809.93 1734.77 1809.97 1734.45 1810.83 1736.64 C 1811.9 1739.34 1816.56 1733.25 1820.11 1735.5 C 1823.51 1737.66 1822.87 1736.68 1824.09 1739.9 L 1822.59 1742.39 C 1823.66 1743.04 1826.28 1743.74 1827.6 1744.16 C 1829.83 1746.31 1829.69 1746.14 1830.63 1749.1 C 1828.11 1750.87 1828.55 1749.99 1827.38 1752.4 C 1830.32 1756.06 1830.17 1755.25 1828.63 1759.57 C 1826.91 1760.65 1825.17 1761.51 1823.31 1762.3 C 1822.98 1765.5 1822.86 1765.69 1821.81 1768.76 C 1818.46 1771.48 1820.29 1770.74 1816.26 1771.35 C 1812.99 1769.82 1812.52 1769.08 1809.17 1769.15 L 1808.72 1771.88 C 1801.82 1776.45 1792.68 1769.79 1787.42 1765.06 C 1770.91 1769.56 1765.7 1771.27 1748.66 1772.34 C 1785.21 1793.2 1778.54 1793.53 1820.9 1792.97 C 1822.5 1790.37 1825.83 1784.65 1828.76 1783.83 C 1831.5 1782.81 1848.43 1781.63 1850.24 1782.95 C 1855.46 1786.75 1860.34 1785.16 1864.35 1786.69 C 1866.51 1791.17 1867.68 1794.47 1869.31 1799.1 C 1868.19 1806.14 1868.54 1798.46 1864.83 1804.89 C 1865.64 1807.51 1864.93 1806.49 1867.2 1807.89 L 1867.01 1808.9 L 1866.94 1807.78 C 1865.03 1810.92 1861.22 1811.76 1857.25 1813.54 C 1855.81 1817.73 1855.49 1818.18 1851.41 1818.48 C 1836.77 1810.55 1830.95 1818.72 1819.37 1803.05 C 1808.75 1803.17 1798.13 1803.03 1787.51 1802.65 C 1799.92 1811.17 1805.7 1815.89 1816.22 1826.63 C 1826.05 1826.61 1826.98 1827.29 1835.4 1831.79 C 1836.87 1834.78 1836.33 1834.49 1838.72 1836.57 C 1846.47 1834.68 1853.33 1836.49 1855.35 1844.91 C 1858.27 1846.96 1855.32 1843.05 1861.53 1843.1 C 1864.56 1845.06 1864.5 1844.82 1866.17 1847.97 C 1865.9 1852.32 1866 1850.94 1863.12 1855.04 L 1863.86 1855.68 C 1867.98 1852.99 1872.68 1850.5 1876.36 1855.57 C 1876.47 1860.65 1873.63 1861.91 1872.57 1866.7 C 1876.57 1867.13 1876.53 1866.5 1879.31 1868.52 C 1880.03 1872.12 1879.85 1872 1877.63 1875.83 L 1876.74 1877.34 C 1879.36 1881.15 1880.69 1882.5 1879.28 1887.06 C 1870.47 1895.99 1870.24 1889.13 1861.62 1891.9 C 1860.94 1892.12 1858.87 1893.11 1856.8 1893.66 C 1853.46 1891.92 1852.95 1889.42 1850.94 1885.62 C 1846.62 1887.3 1846.1 1888.4 1842.08 1887.89 C 1838.13 1884.16 1840.57 1884.63 1837.84 1878.62 C 1834.76 1879.37 1831.86 1879.35 1829.61 1876.86 C 1821.69 1868.05 1809.36 1847.91 1809 1836.22 C 1793.9 1825.51 1777.95 1812.82 1762.49 1801.66 C 1767.22 1812.25 1769.86 1821.44 1772.22 1832.75 C 1777.48 1835.91 1787.7 1842.69 1789.92 1848.61 C 1791.45 1852.67 1787.19 1854.38 1787.8 1859.2 C 1789.62 1860.95 1791.12 1862.48 1792.83 1864.3 C 1793.68 1868.51 1793.89 1866.55 1792.37 1870.42 C 1789.65 1873.03 1789.24 1872.98 1785.49 1874.18 L 1784.46 1874.5 C 1783.13 1877.97 1782.59 1880.37 1779.93 1882.96 C 1772.17 1884.94 1775.27 1881.46 1770.58 1879.46 C 1769.21 1881.64 1769.87 1881.03 1767.5 1882.23 C 1764.37 1881.4 1764.51 1881.59 1762.42 1879.16 C 1762.01 1876.61 1762.13 1875.73 1760.82 1873.56 C 1757.58 1872.76 1755.44 1872.63 1753.17 1870.25 C 1752.14 1867.41 1751.59 1867.08 1752.4 1864.31 C 1754.16 1863.86 1754.48 1863.75 1756.31 1863.09 C 1754.42 1858.51 1755.23 1864.89 1751.33 1861.43 L 1752.94 1856.61 C 1748.58 1845.79 1754.75 1843 1762.02 1835.5 C 1756.75 1806.16 1749.8 1789.41 1721.62 1775 C 1728.72 1791.92 1728.14 1801.44 1728.84 1819.58 C 1729.97 1820.28 1731.09 1820.99 1732.21 1821.7 C 1736.23 1824.3 1739.41 1825.85 1740.45 1830.62 C 1736.35 1842.36 1741.1 1836.81 1740.93 1845.68 C 1738.86 1847.37 1736.81 1849.08 1734.78 1850.82 C 1734.88 1854.34 1735.08 1854.47 1733.78 1857.88 C 1730.74 1860.68 1732.4 1860.04 1728.99 1860.78 C 1727.2 1858.81 1727.98 1859.36 1725.65 1858.15 C 1725.1 1860.81 1725.3 1860.83 1723.56 1862.84 C 1720.2 1863.46 1720.45 1863.49 1717.23 1862.37 C 1715.3 1859.34 1715.81 1861.04 1716.35 1856.91 L 1715.5 1856.39 L 1711.21 1859.08 L 1709.83 1858.67 C 1706.12 1853.85 1708.25 1853.12 1705.78 1849.03 L 1702.68 1849.15 C 1700.95 1847.11 1701.5 1848.27 1701.49 1845.4 C 1709.75 1833.81 1696.17 1832.14 1717.42 1817.35 C 1720.13 1798.18 1716.93 1784.73 1707.75 1767.84 C 1670.84 1749.49 1621.47 1733.59 1580.95 1724.7 C 1569.55 1722.2 1551.43 1720.41 1539.22 1718.73 C 1514.45 1715.29 1489.7 1711.71 1464.97 1708.01 C 1432.24 1702.84 1399.6 1695.09 1367.14 1688.22 C 1389.03 1700.76 1410.31 1714.33 1430.92 1728.88 C 1444.31 1738.27 1466.26 1757.34 1481.89 1759.51 C 1501.29 1762.2 1526.71 1767.15 1545.42 1761.32 C 1551.24 1759.51 1551.98 1742.4 1565.38 1747.27 L 1568.74 1748.51 L 1570.56 1749.19 C 1574.81 1746.41 1575.85 1745.31 1580.85 1746.23 C 1582.92 1748.97 1582.35 1747.4 1582.05 1751.29 L 1582.74 1751.61 C 1587.28 1749.8 1587.91 1748.8 1591.51 1752.19 C 1590.78 1754.64 1589.68 1756.05 1588.32 1758.19 L 1588.87 1759.29 C 1594.33 1759.11 1596.59 1758.14 1599.93 1762.57 C 1600.5 1766.64 1600.98 1765.87 1599.66 1769.2 C 1597.02 1770.9 1596.74 1771.07 1594.51 1773.25 C 1596.14 1777.9 1597.72 1779.55 1593.79 1782.81 C 1590.74 1782.9 1591.09 1782.56 1588.4 1783.54 C 1589.66 1786.58 1589.89 1786.49 1589.62 1789.7 C 1587.48 1792.79 1587.38 1792.64 1584.27 1794.46 C 1579.48 1794.56 1578.12 1792.62 1573.02 1790.23 C 1560.59 1793.94 1554.91 1783.01 1547.14 1774.27 C 1525.69 1773.85 1516.59 1776.11 1493.61 1773 C 1502.52 1779.68 1511.54 1786.67 1519.69 1793.78 C 1523.21 1796.85 1543.24 1815.02 1545.69 1815.83 C 1561.73 1821.16 1595.76 1833.86 1611.18 1835.28 C 1612.47 1834.32 1613.79 1833.38 1615.12 1832.47 C 1623.88 1826.52 1639.01 1826.17 1645.6 1835.88 L 1644.14 1838.39 L 1646.37 1839.76 C 1648.52 1839.87 1648.28 1839.97 1650.39 1840.62 L 1651.02 1842.81 C 1649.68 1845.12 1649.42 1845.14 1649.16 1847.73 C 1651.76 1849.19 1652.84 1849.38 1654.14 1851.99 C 1653.73 1855.89 1647.82 1868.51 1642.66 1867.8 C 1641.71 1865.56 1642.1 1866.16 1640.62 1864.22 C 1639.84 1868.73 1640.03 1869.31 1637.1 1871.56 C 1633.35 1871.7 1629.82 1868.7 1626.99 1866.46 C 1625.44 1867.98 1625.47 1867.94 1623.55 1868.97 C 1612.08 1866.12 1607.82 1850.23 1604.43 1848.64 C 1591.64 1842.65 1571.95 1836.39 1558.28 1831.21 C 1574.12 1846.16 1589.23 1860.63 1603.83 1876.86 C 1608.69 1882.27 1610.75 1890.5 1614.64 1893.42 C 1617.83 1890.97 1616.2 1891.43 1619.53 1890.94 C 1622.67 1893.26 1621.94 1893.35 1623.75 1897.53 C 1626.96 1900.02 1627.9 1898.56 1633.54 1899.04 C 1640.12 1902.85 1642.03 1907.64 1645.71 1914.23 C 1650.68 1914.82 1650.32 1914.55 1653.19 1917.27 C 1653.95 1921.13 1654.3 1919.47 1652.89 1922.53 L 1648.57 1924 C 1650.13 1929.4 1654.58 1928.13 1655.98 1933.55 C 1655.74 1935.76 1655.56 1936.29 1653.98 1937.88 C 1645.27 1946.61 1662.26 1945.23 1650.75 1956.94 L 1651.56 1961.14 C 1650.45 1964.4 1650.65 1964.25 1648.01 1966.42 C 1643.49 1966.55 1643.34 1965.2 1638.5 1962.66 C 1631.9 1968.09 1627.27 1963.17 1627.37 1955.66 L 1627.4 1954.36 C 1625.46 1955.09 1624.08 1956 1622.37 1957.17 L 1619.74 1956.45 C 1616.57 1953.4 1616.93 1954.61 1616.09 1950.92 C 1617.18 1948.65 1617.98 1947.46 1619.56 1945.48 L 1619.12 1945.16 C 1612.1 1945.12 1608.63 1942.67 1607.5 1935.59 C 1602.47 1904.21 1593.84 1895.89 1573.36 1871.43 C 1578.51 1888.88 1578.55 1900.03 1579.21 1917.94 C 1584 1921 1592.29 1925.61 1590.96 1932.3 C 1589.5 1939.6 1585.61 1951.8 1579.77 1956.74 C 1575.45 1957.21 1577.54 1957.59 1573.45 1954.83 C 1562.03 1958.31 1559.75 1958.44 1556.84 1945.47 L 1556.52 1944.04 C 1555.27 1944.17 1554.53 1944.2 1553.28 1944.23 C 1546.6 1936.16 1555.69 1923.49 1560.52 1916.25 L 1568.14 1912.7 C 1568.81 1909.57 1569.34 1906.42 1569.74 1903.25 C 1572.42 1881.4 1567 1868.67 1553.84 1852.07 C 1553.61 1867.16 1551.98 1875.15 1549.2 1889.9 C 1552.75 1894.16 1557.31 1899.47 1556.5 1905.29 C 1549.86 1915.1 1555.17 1908.39 1554.83 1916.32 C 1552.07 1919.65 1547.43 1925.93 1543.27 1926.66 C 1541.63 1925.13 1541.21 1924.72 1539.34 1923.51 C 1537.64 1926.01 1537.84 1926.04 1535.24 1927.49 C 1532.57 1927.54 1532.6 1927.76 1530.44 1926.29 L 1530.55 1921.49 C 1528.39 1923.39 1528.34 1923.92 1525.6 1924.22 C 1520.42 1919.71 1519.93 1907.4 1522.51 1901.27 C 1526.04 1892.84 1529.88 1890.18 1537.03 1885.55 C 1554.29 1849.95 1538.85 1835.61 1513.73 1813.28 C 1501.87 1802.72 1489.02 1791.32 1477.51 1780.43 C 1485.74 1798.99 1483.14 1803.32 1487.97 1821.67 C 1488.53 1823.79 1498.04 1837.6 1500.44 1841.84 C 1500.53 1848.03 1498.99 1861.44 1493.56 1864.85 C 1490.86 1863.48 1491.92 1863.57 1489.17 1863.57 C 1488.59 1865.67 1488.2 1866.86 1487.42 1868.9 C 1484.35 1870 1485.93 1869.8 1482.49 1869.21 C 1480.46 1866.36 1481.34 1867.01 1478.63 1865.15 C 1476.48 1867.06 1475.89 1867.57 1473.48 1869.11 L 1471.56 1868.46 C 1470.72 1866.49 1469.93 1864.49 1469.17 1862.49 C 1467.04 1862.76 1466.9 1862.72 1464.74 1862.49 C 1447.76 1846.53 1466.59 1830.88 1477.22 1820.14 C 1476.31 1803.06 1468 1774.26 1454.22 1763.75 C 1366.53 1696.89 1264.84 1654.03 1165.39 1608.3 C 1139.89 1596.58 1115.77 1585.26 1092.44 1571.47 C 1102.5 1582.46 1112.02 1593.92 1120.97 1605.83 C 1140.21 1631.76 1159.56 1663.05 1185.73 1683.09 C 1201.53 1695.18 1228.11 1691.22 1247.77 1693.68 C 1288.88 1698.84 1321.29 1716.05 1352.26 1742.77 C 1355.45 1745.53 1359.41 1749.23 1359.68 1753.38 C 1352.71 1761.59 1324.23 1760.51 1314.13 1760.5 C 1274.75 1760.47 1244.38 1737.94 1216.57 1712.38 C 1207.75 1704.27 1204.28 1698.06 1192.51 1692.93 L 1191.2 1692.37 C 1215.54 1717.89 1239.87 1743.31 1261.61 1771.13 C 1269.12 1780.74 1276.07 1790.68 1284.6 1799.42 C 1322.67 1807.85 1359.33 1794.24 1394.03 1821.4 C 1401.24 1827.04 1433.56 1844.18 1427.31 1853.78 C 1423.17 1856.18 1420.95 1856.62 1416.22 1857.14 C 1358.89 1863.45 1329.84 1838.21 1288.4 1805.2 C 1312.54 1831.68 1324.84 1861.53 1360.17 1873.96 C 1404.72 1889.64 1436.37 1931.46 1448.46 1975.94 C 1457.31 2008.5 1448.52 2004.26 1424.6 1990.01 C 1376.08 1964.01 1340.09 1927.5 1331.16 1871.53 C 1312.79 1855.23 1288.69 1816.55 1270.95 1797.1 C 1271.07 1797.39 1271.18 1797.68 1271.3 1797.97 L 1271.92 1799.4 C 1276.27 1809.76 1282.91 1818.4 1288.91 1827.84 C 1315.62 1869.87 1319.48 1927.11 1291.24 1969.58 C 1273.27 1946.64 1248.51 1879.79 1256.66 1852.86 C 1275.62 1790.24 1264.9 1793.1 1222.44 1745 L 1145 1657.69 C 1152.03 1672.48 1158.1 1686.78 1162.61 1702.59 C 1167.34 1719.14 1177.65 1733.76 1185.59 1749.05 C 1208.69 1793.53 1208.91 1847.84 1193.81 1894.9 C 1191.7 1901.45 1184.74 1922.78 1178.99 1925.8 C 1174.19 1923.62 1166.56 1909.42 1164.09 1904.6 C 1142.54 1862.56 1128.25 1809.63 1137.7 1762.47 C 1141.08 1745.64 1148.03 1726.53 1153.25 1709.78 C 1141.51 1663.76 1097.26 1605.93 1064.65 1572.12 C 1055.23 1562.97 1044.83 1547.36 1034.18 1540.14 C 977.237 1501.54 917.694 1469.08 867.489 1421.12 C 850.476 1404.87 833.729 1388.22 816.825 1371.69 C 826.393 1388.38 836.999 1405.03 846.699 1421.88 C 860.835 1446.99 874.468 1472.37 887.588 1498.02 C 906.589 1504.25 929.243 1510.18 947.801 1517.09 C 981.704 1529.71 1016.65 1565.27 1040.63 1592.05 C 1043.38 1595.12 1045.86 1598.31 1045.49 1602.38 C 1031.29 1618.25 966.076 1585.54 950.467 1577.55 C 958.437 1585.21 971.568 1596.61 980.791 1602.05 C 1017.55 1623.62 1058.22 1642.5 1076.8 1683.77 C 1087.7 1707.96 1090.23 1741.71 1087.98 1768.21 C 1087.81 1770.12 1085.94 1770.62 1084.55 1771.16 C 1079.33 1770.11 1069.35 1761.95 1064.95 1758.47 C 1032.56 1732.8 1005.84 1705.12 988.609 1666.96 C 980.841 1654.65 978.081 1622.74 970.276 1612.89 C 950.908 1588.46 924.243 1565.13 905.182 1540.16 C 913.161 1560.7 921.231 1582.06 928.222 1602.95 C 930.476 1609.69 931.045 1620.95 933.411 1626.98 C 943.551 1652.84 956.263 1676.85 962.963 1703.97 C 974.922 1752.37 971.631 1799.27 945.083 1842.18 C 941.048 1848.7 927.765 1869.71 920.924 1871.38 C 914.953 1867.14 909.594 1843.08 907.297 1835.31 C 893.128 1787.34 887.853 1739.31 905.272 1691.31 C 910.357 1677.3 919.42 1661.65 920.517 1647.07 C 921.731 1630.93 915.188 1611.7 911.605 1595.4 C 909.894 1628.77 901.762 1645.02 877 1669.2 C 869.648 1676.38 851.962 1687.77 841.498 1687.27 C 838.894 1684 839.75 1673.21 839.736 1668.54 C 839.658 1641.98 845.686 1617.2 857.116 1593.24 C 871.403 1563.31 881.647 1557.28 883.245 1523.86 C 864.769 1488.99 841.897 1451.12 821.738 1417.1 C 803.803 1386.84 781.065 1347.23 758.057 1321.43 C 784.753 1382.05 819.936 1434.29 816.382 1504.7 C 814.349 1544.97 787.44 1595.8 757.375 1621.83 C 725.09 1577.36 723.732 1483.61 741.677 1433.16 C 745.506 1422.4 761.943 1377.19 760.808 1369.82 C 751.889 1311.95 702.676 1255.81 668.011 1209.96 C 658.858 1198.19 647.951 1183.79 639.451 1174.54 C 643.982 1183.43 650.129 1192.66 654.199 1201.53 C 675.595 1248.16 691.765 1290.68 684.463 1343.08 C 679.101 1381.56 654.285 1418.14 623.784 1440.75 C 609.519 1395.32 604.544 1329.32 616.157 1283.42 C 620.563 1266 630.003 1249.46 633.517 1232.28 C 635.807 1221.15 635.526 1209.65 632.695 1198.65 C 623.08 1160.6 577.105 1102.63 554.392 1067.77 C 578.182 1155.9 589.854 1284.51 589.724 1377.63 C 587.752 1540.87 567.437 1729.76 449.306 1853.5 C 417.893 1886.41 355.17 1922.46 315.668 1882.64 C 335.194 1887.8 347.875 1889.56 367.375 1881.67 C 427.473 1857.34 474.928 1790.12 499.781 1731.48 C 568.32 1569.76 570.733 1376.43 551.701 1204.14 C 550.173 1190.31 542.866 1129.12 539.217 1119.72 C 538.314 1142.52 532.532 1169.68 526.686 1191.64 C 484.113 1351.54 356.243 1464.54 258.599 1591.09 C 227.162 1631.84 167.737 1714.2 224.083 1758.54 C 227.684 1761.38 234.026 1763.46 238.592 1766.99 L 238.277 1768.18 C 225.279 1771.16 205.597 1763.92 196.845 1754.72 C 147.939 1703.34 205.482 1618.53 237.913 1575.45 C 282.478 1516.26 329.581 1466.16 375.87 1409.72 C 409.299 1368.96 439.216 1325.63 463.57 1279.77 C 501.034 1209.8 519.047 1131.07 515.729 1051.77 C 519.493 1047.3 545.622 1025.38 551.113 1020.64 C 577.109 1055.64 613.249 1096.66 643.096 1128.37 L 1532.61 1127.66 L 1783.33 1127.65 C 1828.91 1127.54 1884.13 1125.88 1928.93 1127.95 C 1914.49 1109.46 1840.56 1022.84 1835.83 1009.45 C 1837.32 998.649 1916.43 904.132 1927.96 890.995 z" fill="rgb(91,113,99)" transform="translate(0,0)"></path>
<path d="M 1269.97 1377.86 C 1271.38 1373.88 1271.65 1371.79 1274.71 1369.14 C 1277.58 1371.76 1279.03 1372.55 1279.94 1376.31 L 1279.3 1378.64 C 1275.99 1380.07 1275.57 1380.12 1271.51 1378.5 L 1269.97 1377.86 z" fill="rgb(97,122,101)" transform="translate(0,0)"></path>
<path d="M 1278.03 1516.64 C 1281.8 1513.14 1279.68 1514.23 1284.51 1513.03 C 1288.12 1514.01 1289.32 1514.23 1290.22 1518.29 C 1283.54 1521.16 1282.65 1518 1275.79 1520.46 L 1274.21 1519.5 C 1276.69 1518.38 1276.43 1518.84 1278.03 1516.64 z" fill="url(#Gradient2)" transform="translate(0,0)"></path>
<path d="M 1490.34 1615.5 C 1494.25 1614.17 1492.44 1614.08 1495.93 1615.07 C 1497.69 1617.31 1498.4 1618.26 1500.47 1620.29 L 1499.42 1621.76 C 1496.22 1623.3 1497.84 1623.14 1494.39 1622.22 C 1491.31 1619.51 1491.54 1619.54 1490.34 1615.5 z" fill="rgb(97,122,101)" transform="translate(0,0)"></path>
<path d="M 767.19 1367.8 C 776.137 1376.26 783.313 1426.5 785.135 1440.56 C 789.134 1471.41 784.716 1506.72 779.505 1537.33 C 778.009 1540.53 778.898 1540.35 776.788 1541.19 C 776.366 1513.46 780.403 1486.75 779.018 1457.9 C 777.726 1431 765.975 1392.45 767.19 1367.8 z" fill="rgb(255,255,255)" transform="translate(0,0)"></path>
<path d="M 927.139 1647.32 C 940.613 1685.89 930.384 1779.03 925.347 1821.06 L 922.988 1821.86 C 923.947 1790.39 925.302 1761.16 925.263 1729.63 C 925.237 1708.1 923.263 1666.57 927.139 1647.32 z" fill="rgb(255,255,255)" transform="translate(0,0)"></path>
<path d="M 640.697 1208.63 C 641.783 1209.52 642.548 1210.28 643.089 1211.61 C 663.148 1261.13 665.464 1320.87 648.437 1370.66 L 646.51 1372.55 L 645.641 1371.45 C 656.96 1314.61 653.724 1264.74 640.697 1208.63 z" fill="rgb(255,255,255)" transform="translate(0,0)"></path>
<path d="M 979.319 1608.86 C 1014.32 1630.85 1057.86 1701.46 1072.83 1740.5 C 1065.33 1735.09 1031.79 1672.45 1019.22 1659.85 C 1014.04 1654.67 981.471 1613.45 979.319 1608.86 z" fill="rgb(255,255,255)" transform="translate(0,0)"></path>
<path d="M 1158.48 1724.74 C 1169.6 1736.08 1176.59 1863.55 1177.46 1885.74 L 1176.64 1886.68 C 1173.42 1880.84 1158.13 1740 1158.48 1724.74 z" fill="rgb(255,255,255)" transform="translate(0,0)"></path>
<path d="M 1210.58 1702.79 C 1217.55 1703.58 1226.64 1707.43 1233.15 1710.17 C 1262.94 1722.68 1293.23 1733.18 1324.21 1742.32 C 1329.69 1743.94 1336.18 1745.88 1341.05 1748.79 C 1309.19 1748.17 1236.8 1721.81 1210.58 1702.79 z" fill="rgb(255,255,255)" transform="translate(0,0)"></path>
<path d="M 892.66 1507.84 C 903.201 1511.6 1001.77 1578.07 1009.45 1586.15 C 990.93 1580.75 905.384 1523.11 892.66 1507.84 z" fill="rgb(255,255,255)" transform="translate(0,0)"></path>
<path d="M 1344.22 1875.95 C 1362.92 1883.42 1422.79 1953.16 1433.06 1973.45 C 1429.59 1971.34 1404.12 1942.87 1400.33 1937.89 C 1388.45 1922.27 1351.7 1891.14 1344.22 1875.95 z" fill="rgb(255,255,255)" transform="translate(0,0)"></path>
<path d="M 1274.64 1814.93 C 1287.4 1835.09 1293.59 1875.13 1293.1 1898.96 C 1294.24 1909.3 1294.31 1916.83 1293.26 1927.14 L 1292.54 1928.01 L 1293.01 1925.79 L 1292.03 1926.44 C 1291.82 1924.16 1291.32 1920.13 1291.27 1917.99 C 1289.99 1902.69 1287.71 1884.24 1284.99 1869.18 C 1281.8 1851.53 1275.9 1832.93 1274.64 1814.93 z" fill="rgb(255,255,255)" transform="translate(0,0)"></path>
<path d="M 886.819 1542.5 C 889.457 1548.07 887.939 1561.66 887.378 1568.02 C 884.973 1595.29 878.772 1617.94 864.99 1641.7 C 863.875 1638.6 866.594 1631.84 867.815 1628.68 C 876.508 1606.18 879.929 1582.17 883.503 1558.44 C 884.316 1553.04 884.897 1547.75 886.819 1542.5 z" fill="rgb(255,255,255)" transform="translate(0,0)"></path>
<path d="M 1305.48 1812 C 1333.82 1821.71 1361.8 1831.67 1390.65 1840.05 C 1396.33 1841.7 1402.16 1843.68 1407.67 1845.81 C 1390.53 1847.27 1317.66 1824.51 1305.48 1812 z" fill="rgb(255,255,255)" transform="translate(0,0)"></path>
<path d="M 1142.27 1217.2 L 1147.05 1220.15 L 1147.52 1222.23 L 1145.21 1225.63 C 1141.87 1225.92 1143.28 1226.37 1140.77 1224.52 C 1140.06 1221.69 1141.17 1219.98 1142.27 1217.2 z" fill="rgb(128,142,134)" transform="translate(0,0)"></path>
<path d="M 1241.66 1573.34 C 1244.58 1575.25 1244.57 1576.26 1245.49 1579.45 C 1244.27 1583.67 1245.21 1582.16 1240.62 1584.96 L 1239.58 1584.4 L 1239.29 1582.85 C 1241.21 1581.77 1240.68 1582.15 1242.38 1580.6 C 1243.6 1576.94 1243.11 1577.88 1241.66 1573.34 z" fill="url(#Gradient1)" transform="translate(0,0)"></path>
<path d="M 1352.87 1371 C 1356.5 1370.66 1356.63 1370.45 1360.23 1371.55 C 1358.54 1373.55 1357.6 1373.08 1354.31 1373.75 C 1352.36 1375.16 1353.21 1375.15 1351.5 1375.01 L 1352.87 1371 z" fill="rgb(97,122,101)" transform="translate(0,0)"></path>
<path d="M 922.988 1821.86 L 925.347 1821.06 C 925.219 1824.07 925.431 1824.78 924.125 1827.51 L 923.173 1826.78 L 922.988 1821.86 z" fill="rgb(201,204,204)" transform="translate(0,0)"></path>
<path d="M 656.994 820.134 L 796.692 712.944 L 844.166 676.544 C 860.513 664.155 887.021 646.053 898.894 630.392 C 909.058 616.984 915.74 587.391 921.678 570.882 C 929.022 550.464 935.931 529.355 944.633 509.341 C 993.418 394.295 1059.76 287.513 1141.28 192.806 C 1165.12 165.603 1182.13 145.553 1212.9 125.23 C 1290.62 73.8804 1391.57 98.5279 1447.85 169.511 C 1455.72 179.436 1460.57 191.488 1467.98 201.656 C 1477.53 212.482 1489.15 219.939 1499.57 232.575 C 1532.65 272.684 1543.41 319.288 1536.87 369.98 C 1530.82 416.883 1510.87 453.766 1472.55 481.545 C 1359.12 563.786 1183.71 631.768 1047.01 652.973 C 1029.94 655.649 1012.78 657.735 995.567 659.228 C 973.68 661.049 942.675 659.423 922.905 666.842 C 917.637 668.818 898.292 684.33 892.639 688.778 L 840.965 729.829 L 739.77 809.738 C 721.462 824.19 701.16 839.589 683.464 854.487 C 688.088 868.996 693.866 885.357 685.863 899.893 C 677.139 915.736 573.044 1000.74 551.113 1020.64 C 545.622 1025.38 519.493 1047.3 515.729 1051.77 C 508.651 1057.08 500.811 1064.75 493.948 1070.68 C 446.846 1111.4 399.296 1151.63 352.415 1192.6 C 333.757 1208.9 313.668 1217.42 288.666 1214.93 C 269.412 1213.09 251.735 1203.5 239.697 1188.36 C 227.112 1172.38 221.501 1152.01 224.134 1131.84 C 229.424 1088.43 262.366 1075.58 293.99 1051.94 C 300.092 1047.38 306.493 1043.09 312.705 1038.67 L 409.469 968.862 C 427.93 955.425 448.186 941.273 465.99 927.147 C 469.627 925.232 486.388 911.934 490.241 908.799 L 567.925 851.29 C 575.983 845.301 584.363 839.169 592.385 833.168 C 614.752 816.439 628.646 805.845 656.994 820.134 z" fill="rgb(86,86,86)" transform="translate(0,0)"></path>
<path d="M 1449.6 226.613 C 1455.09 228.694 1452.49 244.814 1452 249.815 C 1444.22 331.089 1383.11 385.661 1321.94 431.27 C 1247.17 487.617 1166.89 536.18 1082.74 577.148 C 1037.27 599.283 991.398 621.877 944.304 640.466 L 943.407 640.575 L 943.27 639.825 C 964.432 620.901 1010.28 592.913 1035.46 574.754 C 1101.08 527.036 1165.77 478.04 1229.47 427.794 C 1293.61 376.339 1355.84 325.093 1412.31 265.207 C 1424.12 252.684 1436.3 237.362 1449.6 226.613 z" fill="rgb(255,255,255)" transform="translate(0,0)"></path>
<path d="M 1383.43 200.41 C 1404.22 198.023 1427.24 198.735 1443.6 212.937 C 1429.25 222.473 1410.62 227.706 1396.16 236.483 C 1269.48 313.387 1157.97 413.58 1049.14 513.429 C 1020.77 539.454 993.142 566.307 964.673 592.208 C 953.558 602.119 941.185 612.73 928.452 620.272 C 936.515 610.325 945.168 597.031 952.658 586.369 C 963.181 571.507 973.942 556.814 984.937 542.297 C 990.982 534.258 997.334 526.801 1003.73 518.914 C 1074.08 432.137 1149.65 348.819 1233.11 274.448 C 1251.19 258.338 1274.64 239.228 1295.48 227.443 C 1322.42 211.99 1352.47 202.754 1383.43 200.41 z" fill="rgb(255,255,255)" transform="translate(0,0)"></path>
<path d="M 1474.24 234.571 C 1474.48 234.724 1474.73 234.877 1474.98 235.03 C 1528.78 280.535 1532.61 376.928 1495.41 432.442 C 1473.75 464.764 1433.72 487.18 1403.51 504.87 C 1296.95 567.27 1181.36 607.094 1061.3 632.804 C 1052.64 634.38 1045.4 635.582 1036.67 636.573 C 1061.92 628.171 1088.08 621.23 1113.46 612.927 C 1140.22 603.97 1166.53 593.712 1192.3 582.187 C 1267.75 548.723 1392.2 488.53 1447.97 428.658 C 1462.67 412.799 1474.23 394.293 1482.03 374.123 C 1500.98 324.238 1495.63 282.015 1474.24 234.571 z" fill="rgb(255,255,255)" transform="translate(0,0)"></path>
<path d="M 1039.58 616.572 C 1134.71 577.443 1227.25 521.381 1310.77 461.858 C 1377.28 414.448 1454.81 352.647 1467.09 266.605 C 1480.49 310.464 1479.13 343.825 1457.02 385.466 C 1450.97 396.929 1443.36 407.496 1434.4 416.868 C 1377.59 476.068 1230.2 548.674 1153.58 578.793 C 1128.23 588.522 1102.66 597.652 1076.88 606.177 C 1067.07 609.519 1050.37 614.607 1041.34 618.371 L 1039.58 616.572 z" fill="rgb(255,255,255)" transform="translate(0,0)"></path>
<path d="M 1299.52 115.425 C 1355.55 113.34 1400.6 142.249 1436.15 183.077 C 1427.42 177.46 1416.24 170.199 1406.86 165.945 C 1371.5 149.919 1329.43 144.526 1291.46 152.499 C 1270.8 156.908 1251.12 165.082 1233.41 176.613 C 1217 187.519 1197.52 206.75 1183.25 220.674 C 1119.35 283.326 1062.63 352.897 1014.13 428.102 C 992.313 464.911 971.406 500.113 950.366 537.547 C 953.789 525.701 969.483 493.149 975.541 480.672 C 1023.1 382.719 1082.13 288.074 1153.47 205.632 C 1195.44 157.137 1231.78 119.899 1299.52 115.425 z" fill="rgb(255,255,255)" transform="translate(0,0)"></path>
<path d="M 979.274 519.505 C 1033.8 424.01 1095.37 336.91 1172.12 258.043 C 1205.02 224.231 1238.98 184.74 1286.12 172.671 C 1326.67 162.291 1362.23 167.243 1400.5 181.851 C 1365.47 182.958 1332.2 189.32 1300.29 204.404 C 1239.2 233.276 1151.62 324.67 1103.14 376.322 C 1072.76 408.504 1043.59 441.803 1015.69 476.152 C 1004.4 489.981 991.081 505.598 981.084 520.168 L 979.274 519.505 z" fill="rgb(255,255,255)" transform="translate(0,0)"></path>
<path d="M 1387.64 263.048 L 1388.16 263.87 C 1355.41 298.943 1306.57 341.229 1270.3 371.531 C 1195.23 434.262 1115.09 493.022 1036.2 550.957 L 1035.8 550.675 C 1036.37 548.207 1048.5 538.276 1051.07 535.891 C 1158.16 436.764 1264.9 342.441 1387.64 263.048 z" fill="rgb(255,255,255)" transform="translate(0,0)"></path>
<path d="M 290.658 1113.76 C 306.095 1111.13 320.756 1121.47 323.469 1136.89 C 326.183 1152.31 315.929 1167.03 300.522 1169.83 C 284.995 1172.65 270.138 1162.3 267.404 1146.75 C 264.669 1131.21 275.101 1116.41 290.658 1113.76 z" fill="rgb(255,255,255)" transform="translate(0,0)"></path>
<path d="M 971.508 532.374 C 974.045 527.807 976.157 523.725 979.274 519.505 L 981.084 520.168 C 978.406 525.209 975.808 528.674 971.508 532.374 z" fill="rgb(201,204,204)" transform="translate(0,0)"></path>
<path d="M 1039.58 616.572 L 1041.34 618.371 C 1036.78 620.09 1035.64 620.735 1030.9 621.153 C 1032.43 619.108 1036.81 617.765 1039.58 616.572 z" fill="rgb(201,204,204)" transform="translate(0,0)"></path>
<path d="M 519.91 83.1481 C 524.855 77.0165 528.378 72.7275 536.723 72.3812 C 543.69 75.4602 544.543 81.0932 541.316 87.5425 C 544.184 87.235 545.801 86.7417 548.381 87.9835 C 551.013 93.3294 550.952 97.4891 546.671 101.627 C 543.847 102.216 542.657 102.508 539.829 103.445 L 539.444 104.867 C 543.257 106.764 544.161 106.979 547.062 109.941 C 547.915 113.218 547.943 112.977 546.845 116.174 C 543.204 120.642 539.805 118.89 536.546 122.561 C 538.906 124.736 538.894 124.262 540.187 126.992 C 539.027 130.587 536.4 132.877 533.81 135.676 L 517.414 136.912 C 522.891 138.38 526.825 136.294 529.446 142.566 C 526.08 148.561 515.426 149.401 509.019 150.288 C 503.332 151.076 497.98 149.195 492.519 147.628 C 485.26 159.308 478.117 171.06 471.093 182.883 C 486.842 171.705 501.416 162.666 521.008 158.464 C 523.581 157.912 531.646 157.709 533.959 159.543 C 533.358 161.753 531.78 163.403 529.708 164.379 C 493.738 181.334 463.364 205.364 441.018 238.705 C 431.742 252.546 424.278 268.335 415.741 283.081 C 449.138 253.255 466.024 244.662 504.894 223.824 C 516.844 201.804 529.743 180.313 543.554 159.41 C 542.947 157.53 542.296 155.665 541.603 153.815 C 540.396 146.64 539.265 144.475 543.125 138.715 C 544.969 139.585 546.63 140.712 548.454 140.655 C 547.122 136.01 545.136 136.037 545.776 132.809 C 549.691 130.292 560.04 123.614 564.171 123.413 C 569.62 126.173 569.196 126.331 570.624 132.243 C 572.209 133.868 575.614 132.702 577.722 132.235 C 581.842 135.528 587.233 152.766 581.797 157.379 C 578.549 161.481 574.088 161.839 572.511 167.332 C 570.815 173.239 557.677 169.619 555.291 171.284 C 545.445 178.154 535.066 199.238 529.34 209.389 C 535.847 206.69 577.088 191.452 578.516 190.346 L 578.755 188.99 C 580.672 178.659 587.029 174.845 595.155 182.448 C 598.389 174.59 596.433 169.29 608.363 168.487 C 611.485 169.896 611.59 170.227 614.042 172.489 L 615.49 172.537 C 620.832 166.38 627.992 163.078 634.894 169.494 L 635.16 171.342 C 635.508 173.659 635.692 174.205 636.566 176.454 C 642.297 171.41 648.014 169.72 653.801 175.852 C 655.174 179.079 654.497 181.41 654.083 184.94 C 656.088 186.35 668.724 185.014 663.834 198.166 C 658.646 204.152 651.666 202.99 644.64 202.18 C 653.026 228.121 633.502 214.78 628.372 219.461 L 627.811 224.031 C 624.856 225.556 620.372 225.537 616.803 225.885 C 614.185 223.224 612.603 220.988 609.08 220 C 604.169 222.896 608.104 228.736 599.461 227.081 C 596.639 226.541 588.746 217.343 586.452 214.896 C 585.211 219.217 586.15 218.415 583.203 220.605 C 578.349 220.888 575.866 218.595 571.879 215.771 C 557.717 219.695 543.497 226.597 529.505 231.406 C 538.855 234.515 545.016 236.744 553.835 241.187 C 563.479 233.2 567.308 235.32 579.468 235.676 C 587.999 235.926 600.289 242.675 598.671 252.524 L 596.517 254.262 L 596.46 255.47 C 596.116 261.576 595.941 263.29 591.885 267.675 C 588.365 268.091 585.796 266.666 582.407 265.38 C 584.132 267.603 584.393 267.563 586.799 269.129 C 587.836 274.069 584.591 276.883 579.913 277.528 C 575.876 276.478 575.611 276.259 572.007 274.029 C 569.993 275.858 569.76 277.048 568.657 279.564 C 565.532 281.211 566.136 281.098 562.632 280.122 C 543.751 274.862 549.796 252.343 533.845 245.408 C 512.834 236.273 489.796 253.253 473.01 264.506 C 433.933 290.699 402.943 325.372 382.447 367.865 C 408.746 352.031 417.577 345.11 448.2 338.439 C 451.341 335.415 459.519 326.909 463.184 326.071 C 463.344 328.412 463.239 328.525 462.767 330.855 C 466.898 327.003 462.984 322.569 472.907 322.761 C 491.139 323.211 505.927 341.693 488.582 355.558 C 483.876 359.11 476.958 359.47 471.985 362.272 C 463.702 366.94 452.461 354.472 446.387 353.855 C 429.596 352.148 378.391 383.314 373.26 397.326 C 360.417 432.398 351.344 474.919 350.347 511.848 C 370.049 486.75 385.934 472.01 409.659 451.202 C 416.749 444.983 419.371 415.047 420.309 405.55 C 416.322 402.125 415.248 401.615 412.964 397.081 L 412.838 389.985 C 416.453 385.166 414.838 386.108 421.797 384.603 C 423.75 381.778 421.271 379.095 423.559 374.551 C 427.305 371.773 428.849 373.941 434.243 371.883 C 460.478 361.871 476.332 388.572 448.893 401.891 C 444.246 404.146 438.99 406.651 433.931 408.217 C 431.444 419.95 429.586 429.346 428.412 441.442 C 435.099 436.405 450.339 427.038 458.398 425.125 C 480.581 419.857 463.298 403.477 485.085 408.287 C 487.076 406.385 489.621 376.259 504.432 386.545 C 505.711 389.746 505.159 391.244 504.665 394.655 L 505.397 395.242 C 511.901 388.918 516.658 374.773 526.831 385.681 C 527.927 392.022 521.74 392.736 525.374 395.801 C 531.444 393.633 534.485 379.615 544.62 383.932 C 548.684 390.225 545.063 391.554 545.594 396.913 C 548.917 395.285 550.637 387.805 556.116 390.74 C 565.687 395.866 559.943 403.178 555.578 407.805 C 556.567 409.725 556.198 409.16 557.635 410.727 C 556.61 414.116 556.771 413.919 554.226 416.363 C 549.695 418.084 547.363 417.214 542.397 416.225 C 546.404 421.358 545.17 425.955 539.872 430.621 C 538.603 431.738 529.62 431.088 527.276 430.747 C 526.504 428.478 526.47 428.477 526.322 426.098 L 523.947 426.767 L 523.159 428.436 C 525.405 432.346 527.238 434.066 526.795 437.997 C 524.356 440.617 523.014 440.676 519.59 441.677 C 516.335 441.09 516.103 440.589 513.467 438.638 C 511.593 439.79 510.542 440.571 508.79 441.911 C 503.871 441.915 503.874 441.293 500.329 437.483 C 498.708 441.711 499.004 443.092 495.043 444.869 C 483.706 443.567 485.799 437.174 481.477 436.05 C 468.957 432.793 438.995 453.094 428.965 459.217 C 435.353 462.583 459.937 479.418 464.36 476.182 C 486.925 459.676 492.996 448.1 512.117 479.721 C 513.861 482.608 511.581 485.485 509.863 487.558 L 509.97 489.086 C 510.21 492.917 510.97 497.276 507.629 499.943 C 502.985 503.651 498.495 506.945 492.364 505.475 L 490.364 502.414 C 487.633 506.656 488.691 510.131 483.398 511.658 C 477.731 513.293 476.105 507.459 472.363 506.103 C 470.679 510.374 472.01 508.81 468.706 511.326 C 463.455 511.679 463.931 511.301 461.537 506.527 L 458.583 507.171 C 452.318 502.874 452.779 495.45 452.737 488.509 C 441.165 477.477 430.749 473.862 415.326 470.987 C 323.854 561.834 348.347 607.455 384.333 716.225 C 389.74 685.114 392.634 672.938 406.693 644.376 L 405.983 643.397 C 400.439 635.598 403.028 629.908 403.358 620.777 C 403.538 615.797 408.606 617.125 411.86 613.728 C 409.505 602.215 431.223 585.024 442.004 591.411 C 445.546 593.51 453.614 590.587 455.856 599.344 C 461.093 609.367 451.795 614.136 451.051 618.487 C 449.575 627.128 450.867 629.035 442.545 635.201 C 438.84 635.781 437.204 635.288 435.225 637.429 C 434.09 651.793 422.713 644.171 420.127 646.628 C 409.571 656.661 404.731 683.146 401.661 696.639 C 413.768 684.733 426.551 676.917 439.784 666.614 C 445.519 662.15 449.566 652.849 455.793 649.139 C 463.168 644.746 469.094 649.917 477.683 646.09 C 496.344 648.303 489.705 674.672 484.469 678.607 C 481.225 679.132 480.628 679.057 477.442 678.973 C 472.138 682.389 465.348 687.891 459.342 687.433 C 449.154 686.794 439.291 684.898 429.205 683.37 C 426.777 683.002 418.636 688.708 416.397 690.3 C 398.601 702.955 396.57 733.224 399.376 753.004 C 400.782 762.913 411.536 783.467 416.496 793.419 C 425.45 811.548 434.743 829.508 444.37 847.289 C 450.559 858.454 457.883 870.097 463.768 881.139 C 466.17 848.968 485.398 807.602 508.685 785.432 C 576.212 721.143 669.631 662.848 678.971 560.567 C 686.331 479.957 616.759 382.787 690.207 314.547 L 685.713 321.314 C 649.543 375.906 676.413 448.308 691.518 503.657 C 716.82 596.369 666.754 678.986 599.52 738.057 C 546.311 786.273 480.968 825.943 490.241 908.799 C 486.388 911.934 469.627 925.232 465.99 927.147 C 424.611 895.666 335.33 923.759 287.132 931.054 C 237.342 938.591 176.252 923.553 167.014 866.441 C 159.649 820.913 208.897 784.045 250.047 782.481 C 310.81 777.896 363.596 805.054 409.74 842.881 C 406.315 835.662 402.233 828.698 398.677 821.524 C 390.789 805.611 384.716 789.328 371.872 776.6 C 346.345 751.307 262.473 680.682 227.927 676.614 C 213.677 674.936 206.3 682.211 193.52 684.763 C 189.925 685.481 185.785 685.227 182.123 685.23 C 178.725 687.195 176.094 688.179 174.202 691.531 L 173.856 695.55 C 173.61 698.404 172.573 705.335 166.892 705.283 C 163.878 705.255 163.398 712.473 160.991 713.976 C 157.094 716.409 154.919 715.244 150.751 717.3 C 149.816 719.253 149.919 719.1 148.808 720.775 C 143.262 720.401 130.026 709.887 125.729 705.873 C 124.716 699.977 121.654 683.917 124.395 679.072 C 128.427 677.011 129.023 678.924 132.741 677.977 C 132.542 676.111 132.514 675.04 132.51 673.16 C 134.649 670.75 134.674 670.322 137.765 669.277 C 140.412 670.775 140.347 670.714 143.328 671.391 C 155.529 666.304 159.273 669.754 170.802 675.16 C 185.514 667.034 192.738 665.122 209.414 662.981 C 194.629 656.815 180.053 650.158 165.711 643.022 C 154.23 646.829 160.064 648.645 154.357 651.915 C 150.498 652.516 148.932 651.156 145.616 649.418 C 142.993 651.631 141.188 653.015 138.384 654.99 C 134.253 655 132.768 653.054 129.005 650.338 C 126.55 651.602 124.827 652.693 122.525 654.155 C 119.3 654.438 119.476 654.593 116.65 653.094 C 115.516 650.828 114.884 649.713 113.511 647.584 C 111.649 649.24 112.357 648.787 110.046 649.871 C 106.057 647.379 106.995 643.228 102.733 640.562 C 98.5118 641.096 96.356 641.834 92.5842 640.289 C 86.6031 634.023 91.6486 630.056 95.9105 625.416 C 92.6289 624.752 92.6061 624.805 89.6397 623.315 C 88.496 620.869 88.6467 620.473 86.4754 619.038 C 84.1475 619.115 83.6427 619.176 81.4581 619.757 L 79.6598 620.246 C 75.0633 619.156 71.1517 615.733 73.1909 610.738 C 76.3913 602.9 69.0102 601.28 73.7134 592.448 C 83.9094 585.331 86.8534 594.135 92.2329 594.352 L 92.9538 592.768 C 91.2258 588.615 90.6399 587.751 92.4359 583.854 C 99.9509 578.94 105.487 584.408 108.858 590.861 L 109.366 591.856 C 107.992 580.379 110.212 569.081 123.957 578.718 L 124.914 579.399 C 132.735 575.816 134.723 581.18 137.729 587.32 L 139.155 587.07 C 151.002 579.167 148.093 592.157 156.433 594.209 C 166.207 596.614 162.551 611.629 166.438 618.018 L 169.524 616.659 C 173.637 617.625 180.848 623.839 185.671 626.095 C 217.603 641.034 255.036 657.074 284.434 676.56 C 266.922 649.094 250.409 616.302 237.905 586.157 C 232.386 572.853 229.148 555.845 223.185 542.791 C 218.543 533.857 208.747 537.472 200.875 535.183 C 196.185 533.819 196.149 530.075 193.312 526.477 C 180.578 525.77 185.25 522.768 183.562 515.576 C 177.264 513.663 171.79 509.597 175.452 502.357 C 178.391 499.524 179.518 499.579 183.512 498.667 C 179.629 495.616 176.087 493.579 175.216 488.949 C 176.832 486.409 178.356 486.29 181.28 485.276 L 182.416 484.893 L 182.939 483.645 C 179.491 481.877 178.659 481.405 175.534 479.151 C 173.707 475.872 173.145 475.362 173.32 471.552 C 177.4 465.284 181.161 466.159 187.274 468.852 C 186.183 465.044 183.99 459.068 184.541 455.433 L 187.943 453.914 C 190.274 450.151 178.841 444.537 189.85 438.196 C 193.957 438.662 192.766 438.604 196.553 441.469 C 196.242 436.323 195.286 436.702 197.162 432.592 C 205.374 426.832 223.744 433.487 225.235 443.416 C 224.206 447.942 221.902 447.347 220.01 451.382 C 223.494 452.123 228.927 451.098 232.744 450.668 C 234.012 453.824 235.049 456.843 236.162 460.057 L 237.208 460.267 C 241.748 453.972 245.645 453.1 251.349 459.099 C 252.426 461.959 251.452 463.633 250.53 466.697 L 250.125 468.01 C 252.782 470.223 253.358 470.4 255.067 473.455 C 255.013 478.187 252.067 480.237 250.613 484.8 C 254.369 487.139 254.75 485.74 256.352 489.687 C 255.538 496.75 248.422 501.25 242.724 506.331 C 249.382 503.589 254.874 496.854 261.168 502.449 C 263.934 510.676 256.553 513.965 250.536 518.524 C 253.012 519.8 252.998 519.59 254.236 522.038 C 252.404 533.436 242.566 528.263 238.163 534.118 C 239.064 543.124 263.38 605.062 269.167 615.445 C 269.067 606.162 269.039 596.879 269.083 587.596 L 268.55 586.942 C 264.12 581.328 262.006 579.767 261.699 572.25 C 261.214 562.969 262.783 549.307 271.689 544.174 C 280.639 539.014 287.665 546.55 296.389 548.476 C 298.224 551.504 297.665 552.981 297.763 556.934 C 299.774 558.25 299.737 558.185 301.266 560.027 C 301.46 565.483 298.762 565.149 298.163 569.99 C 300.916 573.569 301.966 573.792 301.636 577.304 L 299.211 578.565 C 293.554 592.485 287.908 590.782 276.817 597.511 C 267.746 621.644 291.679 658.663 302.983 678.476 C 316.795 702.683 341.925 714.581 362.28 733.3 C 348.016 698.907 332.109 644.93 324.299 608.746 C 314.214 562.019 309.561 510.586 296.65 464.021 C 291.264 444.596 278.789 416.503 271.514 397.397 C 265.48 381.551 252.23 352.887 242.673 339.297 C 229.241 333.311 211.702 329.504 197.209 326.824 C 189.48 339.153 185.794 335.882 172.633 335.709 C 168.312 338.941 162.851 342.026 157.803 338.064 C 156.71 335.895 156.368 335.208 154.962 333.249 C 137.619 337.63 141.082 304.349 150.476 297.773 C 154.53 294.936 151.41 295.852 157.019 295.739 C 159.214 292.995 159.723 292.069 162.746 290.131 C 172.125 288.457 171.087 294.744 177.946 296.633 C 180.036 295.182 179.854 295.164 182.374 295.071 C 190.597 298.562 194.509 311.38 197.026 312.059 C 207.933 315.001 220.371 316.617 231.674 319.276 C 225.358 306.897 211.845 284.324 199.458 275.759 C 199.687 275.918 195.644 278.295 192.506 277.95 C 186.598 269.665 185.894 279.327 178.731 276.313 C 178.206 271.287 181.084 271.818 180.061 267.869 L 178.507 268.533 C 177.032 271.501 176.53 273.257 173.806 275.133 C 170.668 275.5 170.856 275.352 167.964 273.943 C 164.987 269.796 168.114 267.812 165.736 263.378 C 161.287 262.279 148.318 269.587 144.636 252.077 C 143.979 248.953 151.31 246.109 153.96 243.492 L 153.112 241.23 C 147.384 236.98 146.286 241.941 139.277 241.333 C 133.306 240.815 130.352 236.816 130.522 231.28 C 132.545 228.596 134.126 228.473 137.365 227.412 L 138.591 227.022 L 138.868 225.555 C 135.826 223.148 133.594 225.281 127.555 224.039 C 125.057 222.102 125.265 222.162 123.898 219.262 C 124.308 215.629 124.306 216.649 127.035 213.302 C 126.952 204.454 128.192 196.797 138.92 197.897 C 145.021 198.523 146.898 202.781 150.13 207.275 L 151.091 207.391 C 149.528 203.62 147.452 200.845 150.14 197.527 C 159.732 194.83 166.98 202.47 172.071 209.527 L 171.497 212.971 L 172.497 213.745 C 174.345 207.553 175.474 199.652 183.018 198.6 C 190.638 201.058 191.637 211.346 195.89 215.175 C 199.491 218.417 203.919 221.702 207.517 225.368 C 216.169 234.183 214.257 230.778 214.457 241.856 C 218.965 248.778 219.614 248.536 215.701 255.262 C 223.358 267.185 236.303 279.459 245.809 293.979 C 264.791 322.974 279.112 357.613 295.904 386.449 L 296.563 387.564 C 292.167 354.145 291.889 325.652 288.692 292.883 C 285.225 288.73 280.733 283.288 277.996 278.689 C 269.718 264.781 261.088 265.626 247.192 261.176 C 244.852 258.581 239.966 253.247 238.17 249.987 C 237.048 247.948 239.733 249.642 238.11 245.69 L 235.059 246.935 C 229.816 244.508 231.178 239.206 232.591 234.677 C 233.532 231.66 229.002 231.738 226.934 227.213 L 229.957 224.526 C 228.422 210.465 237.645 197.603 250.03 207.306 C 252.741 206.593 252.249 206.555 254.367 204.649 L 256.685 205.141 C 259.774 208.552 260.264 208.915 262.199 212.979 L 259.188 216.958 L 259.758 217.649 C 261.555 215.648 261.452 215.331 263.966 214.669 C 266.531 216.151 266.39 216.491 267.98 219.1 C 268.605 223.541 266.818 225.425 264.613 229.212 C 266.172 232.478 266.623 233.112 269.187 235.667 C 269.714 240.064 267.647 245.328 266.344 249.778 C 275.634 259.491 282.434 266.221 289.835 277.409 C 291.341 262.341 291.537 241.022 292.173 225.539 C 271.497 216.61 277.507 202.974 271.897 195.358 C 266.36 187.841 273.737 188.58 274.23 182.906 C 269.21 179.675 267.636 179.665 267.758 173.575 C 269.811 169.742 271.883 168.391 275.219 165.453 C 272.717 163.54 272.113 163.438 270.848 160.547 C 271.349 157.675 272.218 156.239 274.423 154.36 C 281.757 148.112 285.824 159.521 292.382 153.307 L 292.236 151.207 C 286.502 146.205 283.749 141.413 291.112 136.073 C 293.689 135.637 295.382 135.379 297.856 136.449 C 304.548 139.344 300.604 131.654 306.638 126.394 C 316.787 124.334 317.255 131.826 320.373 137.21 C 321.934 139.907 326.958 140.44 329.929 145.44 C 330.624 154.568 323.758 153.779 321.805 159.937 C 325.556 163.063 335.225 159.193 337.721 167.288 C 340.663 176.829 332.399 180.318 329.252 188.059 C 332.571 189.384 333.48 189.465 335.689 192.331 C 338.696 205.13 326.565 199.993 324.731 207.645 C 326.562 209.996 326.961 210.375 328.31 213.12 C 327.261 215.736 327.217 215.514 324.78 217.032 C 321.991 217.053 321.781 216.938 319.147 217.703 C 318.06 221.792 317.955 223.895 315.147 226.823 C 312.9 227.565 312.653 227.526 310.366 227.225 L 308.423 226.95 C 304.478 232.734 307.891 280.427 309.134 289.841 C 314.134 275.678 315.657 265.726 331.586 262.195 C 334.415 256.653 338.102 249.385 341.133 243.995 C 341.373 243.568 334.915 232.489 337.04 224.803 C 339.24 222.463 340.238 221.188 342.15 218.685 C 341.678 216.584 341.194 214.486 340.698 212.39 C 342.181 208.879 340.984 209.989 343.944 208.503 C 346.21 209.09 346.588 209.37 348.881 209.44 C 349.662 206.685 349.506 206.709 351.236 204.485 C 361.538 200.105 380.349 196.344 379.701 213.24 C 383.752 215.386 384.465 215.167 383.99 219.38 C 381.904 222.364 381.509 222.67 378.34 224.479 C 380.458 226.415 380.441 226.418 381.985 228.843 C 381.716 233.034 382.483 231.36 380.319 234.308 C 377.632 234.27 378.327 234.006 375.933 234.818 C 375.444 237.942 375.147 239.417 374.335 242.466 C 368.772 247.984 356.835 250.113 349.18 250.033 L 347.326 250.006 C 345.056 253.563 340.883 259.871 342.198 264.223 C 358.374 274.225 346.129 293.444 332.506 298.828 C 328.072 300.58 322.797 301.05 318.06 301.697 C 314.086 306.484 313.303 308.11 310.486 313.511 C 312.437 353.298 314.6 391.155 321.7 430.489 C 323.396 439.885 325.401 455.389 328.696 464.07 C 339.348 390.477 358.428 334.471 394.53 268.694 C 405.098 249.439 417.362 233.661 427.918 215.072 C 434.112 204.163 431.638 163.326 427.07 150.498 C 425.34 145.638 418.225 139.786 416.062 133.408 C 417.478 131.213 417.228 132.15 417.432 129.664 C 413.474 125.937 411.541 122.734 415.166 117.618 L 418.663 117.306 C 419.889 109.029 418.195 103.802 428.825 100.73 C 431.899 101.42 432.16 101.463 435.305 101.5 C 437.36 99.4494 437.181 99.5098 439.854 98.427 C 449.727 98.9836 458.157 112.659 458.704 121.605 C 457.293 124.743 456.906 124.109 453.154 126.25 L 452.829 127.451 C 454.359 127.477 455.89 127.493 457.42 127.5 L 457.519 129.358 C 454.475 136.089 447.193 144.439 441.772 149.45 L 440.71 150.422 C 442.59 162.553 443.054 176.104 443.082 188.381 C 453.449 169.107 461.701 159.21 475.359 142.415 C 474.274 134.018 473.692 128.321 471.321 120.249 C 473.161 115.185 473.275 111.704 478.471 110.029 C 483.043 113.219 479.606 114.332 483.221 117.377 C 484.759 111.193 478.317 100.453 484.219 88.5827 C 491.12 84.0039 496.886 90.8863 501.634 95.6077 C 499.85 89.4189 497.926 83.866 503.597 79.0396 C 509.63 73.9048 516.172 78.1918 519.91 83.1481 z" fill="rgb(91,113,99)" transform="translate(0,0)"></path>
<path d="M 543.125 138.715 C 546.094 144.817 548.35 149.574 541.603 153.815 C 540.396 146.64 539.265 144.475 543.125 138.715 z" fill="rgb(97,122,101)" transform="translate(0,0)"></path>
<path d="M 412.838 389.985 L 414.201 393.532 L 422.049 396.27 C 419.703 397.591 415.707 396.47 412.964 397.081 L 412.838 389.985 z" fill="rgb(97,122,101)" transform="translate(0,0)"></path>
<path d="M 137.729 587.32 L 139.155 587.07 C 141.601 589.93 143.683 593.396 143.672 597.279 C 140.923 595.501 139.212 590.526 137.729 587.32 z" fill="rgb(128,142,134)" transform="translate(0,0)"></path>
<path d="M 252.538 807.366 L 253.528 807.268 C 318.892 801.417 377.647 848.966 424.802 888.084 C 398.904 884.887 377.906 888.217 352.78 892.984 C 334.058 897.157 313.07 901.962 294.309 905.019 C 267.016 908.948 235.829 911.63 212.318 894.269 C 191.125 878.62 186.012 852.441 203.165 831.558 C 216.438 815.399 232.29 809.981 252.538 807.366 z" fill="rgb(255,255,255)" transform="translate(0,0)"></path>
<path d="M 1277.17 1005.17 C 1287.3 1005.03 1292.4 1008.7 1295.27 1018.87 C 1302 1042.8 1284.36 1085.68 1254.53 1080.33 C 1251.31 1079.76 1245.25 1076.86 1242.06 1075.41 C 1239.91 1082.6 1238.11 1090.75 1236.32 1098.11 C 1240.3 1098.27 1247.11 1097.72 1249.2 1101.4 C 1244.89 1104.98 1219.26 1105.56 1214.09 1103.85 C 1214.75 1101.51 1214.76 1101.65 1216.28 1099.72 C 1217.7 1099.39 1223.78 1098.63 1224.03 1097.99 C 1228.56 1086.29 1244.99 1025.96 1244.23 1017.52 C 1241.22 1016.22 1236.16 1017.72 1232.36 1018.34 C 1231.94 1014.94 1231.54 1016.44 1232.77 1013.57 C 1236.93 1011.06 1253.95 1003.74 1256.97 1008.94 C 1256.8 1014.35 1253.41 1024.46 1251.75 1030.1 C 1259.26 1018.05 1263.62 1010.94 1277.17 1005.17 z" fill="rgb(2,2,2)" transform="translate(0,0)"></path>
<path d="M 1273.41 1012.76 C 1281.17 1012.91 1283.25 1016.04 1284.43 1023.77 C 1287.01 1040.71 1275.84 1073.54 1256.54 1075.85 C 1251.98 1074.15 1248.6 1072.18 1244.34 1069.88 C 1245.74 1048.62 1254.86 1024.65 1273.41 1012.76 z" fill="rgb(255,255,255)" transform="translate(0,0)"></path>
<path d="M 770.004 977.281 C 783.815 976.346 800.065 976.492 813.748 977.738 C 843.292 980.429 847.057 1011.95 827.962 1030.24 C 814.911 1042.73 801.113 1043.25 784.291 1042.8 L 779.506 1065.23 C 777.933 1076.7 787.364 1070.01 791.9 1075.05 L 791.323 1077.65 C 785.586 1079.97 758.116 1080.09 752.484 1077.19 L 752.551 1075.7 C 757.118 1072.34 760.145 1072.11 765.662 1070.84 C 768.628 1063.05 784.418 990.572 783.387 985.269 C 780.534 982.847 777.845 983.629 773.03 982.808 C 769.808 980.265 771 981.904 770.004 977.281 z" fill="rgb(2,2,2)" transform="translate(0,0)"></path>
<path d="M 797.368 983.299 C 832.97 983.136 834.997 1013.84 812.275 1033.26 C 802.798 1038.18 797.185 1037.18 786.615 1036.89 C 787.84 1023.54 794.215 997.167 797.368 983.299 z" fill="rgb(255,255,255)" transform="translate(0,0)"></path>
<path d="M 1526.42 1000.78 C 1531.09 1005.07 1511.65 1062.03 1513.25 1072.39 L 1514.5 1073.22 C 1519.91 1071.68 1520.71 1065.77 1525.25 1064.63 C 1527.26 1071.53 1514.06 1085.52 1504.65 1081.63 C 1500.8 1076.61 1502.7 1068.42 1503.36 1061.94 L 1496.01 1071.37 C 1483.26 1084.28 1466.67 1088.7 1463.74 1065.53 C 1461.22 1045.58 1473.35 1022.07 1489.72 1011.01 C 1502.11 1002.63 1505.73 1007.35 1519.03 1006.12 C 1521.92 1003.73 1523.25 1002.78 1526.42 1000.78 z" fill="rgb(2,2,2)" transform="translate(0,0)"></path>
<path d="M 1507.52 1010.15 C 1510.8 1010.47 1512.4 1010.23 1514.76 1012.46 C 1516.16 1017.79 1506.87 1047.81 1504.85 1055.67 C 1496.28 1063.95 1493.87 1069.07 1482.67 1073.74 C 1467.12 1065.74 1476.41 1042.75 1482.89 1031.01 C 1488.54 1020.78 1495.98 1013.24 1507.52 1010.15 z" fill="rgb(255,255,255)" transform="translate(0,0)"></path>
<path d="M 880.627 1006.16 C 890.478 1004.96 890.095 1006.42 899.047 1010.86 C 902.151 1008.46 904.106 1006.37 907.703 1006.43 C 908.026 1006.85 908.349 1007.27 908.672 1007.7 C 905.426 1026.56 895.668 1053.09 894.298 1071.31 L 894.179 1072.99 C 899.392 1069.66 903.331 1066.03 908.798 1062.8 L 908.945 1064.22 C 905.894 1070.4 894.957 1085.56 887.055 1079.77 C 884.67 1075.24 884.788 1074.9 884.54 1069.65 C 885.042 1064.01 886.615 1056.6 887.673 1050.89 C 881.356 1061.6 866.355 1085.27 852.108 1079.34 C 836.978 1073.05 842.97 1045.18 848.934 1034.03 C 856.969 1019.01 864.931 1011.53 880.627 1006.16 z" fill="rgb(2,2,2)" transform="translate(0,0)"></path>
<path d="M 882.433 1010.02 C 892.891 1010.58 895.745 1017.8 893.138 1027.13 C 888.824 1042.57 879.928 1060.7 866.157 1069.65 C 863.831 1070.37 862.854 1070.4 860.413 1070.68 C 849.265 1065.4 856.327 1044.02 859.922 1034.99 C 864.393 1023.74 870.905 1014.84 882.433 1010.02 z" fill="rgb(255,255,255)" transform="translate(0,0)"></path>
<path d="M 1341.31 1005.23 C 1359.64 1005.11 1367.03 1015.34 1355.8 1031.52 C 1347.08 1044.1 1332.18 1046.91 1318.04 1049.36 C 1317.45 1066.66 1320 1080.47 1339.68 1070.73 C 1343.86 1068.66 1349.34 1063.71 1353.11 1063.44 C 1351.86 1076.25 1328.57 1086.47 1317.95 1080.6 C 1301.21 1071.35 1306.41 1044.12 1313.95 1030.04 C 1320.62 1017.56 1327.6 1009.69 1341.31 1005.23 z" fill="rgb(2,2,2)" transform="translate(0,0)"></path>
<path d="M 1339.33 1011.03 C 1344.29 1010.52 1347.57 1010.04 1351 1014.35 C 1353.79 1026.23 1339.81 1036.37 1330.65 1041.2 C 1326.83 1042.63 1322.67 1043.94 1318.78 1045.25 C 1322.94 1030.52 1326.19 1020.22 1339.33 1011.03 z" fill="rgb(255,255,255)" transform="translate(0,0)"></path>
<path d="M 1194.4 977.233 C 1205.16 976.307 1214.6 977.159 1225.29 978.179 C 1224.89 982.63 1223.61 1001.75 1221.32 1004.63 C 1217.03 1001.13 1215.66 987.285 1208.22 983.014 C 1193.52 974.571 1174.48 994.396 1183.21 1009.49 C 1190.25 1023.37 1211.98 1029.87 1214.53 1046.59 C 1217.62 1066.87 1207.27 1077.98 1188.93 1081.12 C 1175.67 1081.42 1170.22 1080.76 1157.14 1078.17 C 1157.61 1069.14 1157.76 1062.03 1161.93 1054.03 L 1162.94 1054.23 C 1167.57 1068.84 1169.62 1082.39 1190.39 1075.09 C 1196.05 1073.1 1200.71 1069.68 1202.8 1063.7 C 1210.14 1042.76 1176.43 1031.52 1171.59 1013.43 C 1165.52 993.243 1175.99 983.396 1194.4 977.233 z" fill="rgb(2,2,2)" transform="translate(0,0)"></path>
<path d="M 1089.42 1001.74 C 1116 1006.09 1085.34 1052.37 1076.89 1061.5 C 1067.8 1071.3 1036.91 1120.66 1020 1104.07 C 1018.9 1100.85 1018.94 1101.09 1019.77 1097.77 C 1025.67 1092.45 1030.29 1097.65 1035.27 1096.55 C 1043.03 1094.09 1049.56 1088.23 1054.26 1081.9 C 1058.71 1075.89 1058.68 1074.97 1057.39 1068.07 C 1054.21 1053.29 1050.33 1033.6 1044.2 1019.44 C 1042.77 1016.14 1038.03 1015.1 1034.67 1014.18 L 1033.33 1013.82 L 1033.24 1012.7 C 1058.63 984.433 1064.51 1051.84 1066.53 1066 C 1076.77 1051.37 1086.47 1039.51 1091.18 1022.17 L 1090.71 1020.36 C 1088.77 1012.48 1086.44 1013.25 1083.36 1006.69 C 1084.79 1003.39 1085.41 1003.98 1089.42 1001.74 z" fill="rgb(2,2,2)" transform="translate(0,0)"></path>
<path d="M 192.59 551.702 L 194.467 551.018 C 204.754 554.38 218.173 580.707 217.055 591.395 C 210.946 599.057 220.613 600.324 214.481 608.04 C 208.536 609.941 202.272 607.088 196.329 605.099 C 185.231 598.608 192.806 598.17 189.914 593.78 C 187.322 589.847 167.657 584.194 174.288 573.221 C 174.132 569.407 173.131 569.698 169.714 565.967 C 179.414 555.283 178.53 554.379 192.59 551.702 z" fill="rgb(91,113,99)" transform="translate(0,0)"></path>
<path d="M 1563.67 970.448 C 1567.61 970.082 1566.22 969.424 1568.56 971.268 C 1570.71 980.624 1549.27 1054.49 1547.89 1070.23 C 1547.75 1071.75 1548.02 1071.27 1549.65 1073.14 C 1555.59 1072.09 1555.36 1066.12 1560.11 1065.77 L 1560.97 1067.39 C 1559.21 1072.74 1554.4 1077.02 1550.03 1080.35 C 1545.14 1081.98 1543.48 1082.62 1538.78 1080.14 C 1533.1 1071.4 1541.73 1055.9 1542.87 1046.61 C 1544.53 1033.09 1558.55 988.636 1556.64 978.614 C 1553.11 975.829 1550.21 978.262 1544.53 976.419 L 1543.86 974.503 L 1544.83 972.736 C 1550.36 970.831 1557.66 970.823 1563.67 970.448 z" fill="rgb(2,2,2)" transform="translate(0,0)"></path>
<path d="M 1006.11 987.826 C 1010.91 987.877 1010.77 987.017 1013.3 989.439 C 1014 994.58 1011.21 1001.39 1009.68 1006.99 C 1018.17 1006.8 1021.96 1005.98 1029.59 1009.51 L 1029.82 1010.89 C 1024.21 1014.82 1015.17 1013.68 1008.32 1013.46 C 1005.61 1024.07 994.934 1061.17 996.521 1070.2 C 1001.84 1075.06 1009.07 1064.41 1014.41 1065.54 L 1014.7 1067.65 C 1008.34 1074.61 992.334 1087.97 986.749 1076.2 C 981.456 1065.04 995.037 1024.51 998.195 1013 C 993.951 1013.16 989.197 1014.19 986.201 1011.03 L 987.163 1009.34 C 991.878 1006.34 994.591 1006.54 1000.15 1005.96 L 1006.11 987.826 z" fill="rgb(2,2,2)" transform="translate(0,0)"></path>
<path d="M 969.598 1004.82 C 977.558 1004.76 983.378 1011.01 979.961 1018.94 C 973.799 1023.43 970.59 1018.3 967.026 1013.5 C 945.168 1029.69 938.711 1054.47 932.708 1078.92 C 929.058 1079.07 924.381 1079.68 921.131 1078.38 C 922.121 1071.05 926.111 1058.72 928.292 1051.21 C 930.043 1043.8 936.026 1022.66 934.275 1016.38 C 930.395 1016.95 930.252 1019.87 925.538 1022.08 C 927.239 1011.97 937.658 1000.69 946.003 1009.83 C 947.802 1017.17 941.332 1032.49 939.123 1042.18 C 946.827 1025.73 953.549 1014.11 969.598 1004.82 z" fill="rgb(2,2,2)" transform="translate(0,0)"></path>
<path d="M 1401.49 1006.15 C 1406.95 1005.41 1412.76 1005.16 1417.41 1008.59 C 1424 1013.44 1420.09 1025.7 1415.56 1030.64 C 1412.19 1031.63 1413.75 1031.73 1410.75 1030.88 C 1408.26 1025.14 1412.9 1020.02 1411.12 1013.01 C 1410.03 1011.91 1409.67 1011.03 1408.08 1010.86 C 1386.16 1008.42 1368.05 1054.67 1382.44 1069.55 C 1386.43 1073.68 1391.52 1073.85 1397.02 1073.64 C 1403.37 1071.2 1409.17 1065.84 1416.14 1062.09 C 1411.79 1070.14 1405.1 1078.59 1396.75 1081 C 1365.9 1089.89 1360.4 1051.27 1372.02 1031.3 C 1380.66 1016.46 1387.05 1010.96 1401.49 1006.15 z" fill="rgb(2,2,2)" transform="translate(0,0)"></path>
<path d="M 1636.43 1005.3 C 1655.08 1004.37 1661.14 1013.68 1652.88 1030.51 L 1651.75 1030.79 C 1648.84 1024 1652.72 1017.18 1647.18 1011.22 C 1642.79 1009.3 1640.22 1010.01 1635.93 1011.32 C 1620.47 1015.68 1629.04 1030.93 1636.54 1038.45 C 1652.25 1054.19 1659.91 1073.42 1633.02 1082.62 C 1610.44 1084.15 1596.05 1065.07 1610.61 1061.54 C 1615.69 1068.42 1625.21 1089.13 1639.62 1070.22 C 1643.82 1064.72 1635.75 1052.7 1631.2 1048.1 C 1616.06 1032.79 1608.69 1011.55 1636.43 1005.3 z" fill="rgb(2,2,2)" transform="translate(0,0)"></path>
<path d="M 1694.19 987.249 C 1697.18 988.242 1696.13 987.291 1697.8 989.612 C 1697.87 995.388 1693.85 1005.35 1691.84 1011.11 C 1696.53 1010.88 1701.88 1009.61 1704.81 1013.72 L 1703.78 1015.52 C 1699.76 1018.1 1695.66 1017.55 1690.69 1017.67 C 1687.12 1031.65 1683.46 1045.79 1680.12 1059.83 C 1678.97 1064.66 1678.29 1068 1680.93 1071.98 C 1687.81 1072.84 1690.14 1067.74 1696.96 1064.19 C 1697.81 1065.64 1697.67 1064.85 1697.23 1066.59 L 1696.16 1065.46 L 1696.85 1067.53 L 1694.81 1070.59 C 1694.1 1071.32 1693.38 1072.06 1692.65 1072.78 C 1688.83 1076.55 1672.22 1087.76 1669.54 1078.73 C 1664.52 1061.86 1678.53 1036.31 1679.98 1018.53 C 1676.15 1014.74 1674.72 1018.12 1671.45 1014.77 C 1673.78 1011.54 1679.83 1011.48 1682.21 1008.86 C 1688.07 1002.45 1689.35 995.034 1694.19 987.249 z" fill="rgb(2,2,2)" transform="translate(0,0)"></path>
<path d="M 1592.27 1007.2 C 1595.63 1006.87 1596.12 1006.57 1599.37 1007.61 C 1602.62 1017.77 1583.45 1065.15 1586.55 1071.24 C 1590.07 1071.21 1594.47 1067.5 1598.1 1065.38 L 1598.3 1067.28 C 1595.76 1073.03 1594.41 1074.2 1590.28 1078.65 C 1585.86 1081.85 1582.31 1083.53 1577.68 1080.22 C 1571.63 1068.6 1586.85 1034.78 1587.78 1016.68 C 1585.07 1014.2 1582.69 1017.22 1576.66 1015.35 L 1576.58 1013.69 C 1580.34 1009.29 1586.66 1008.41 1592.27 1007.2 z" fill="rgb(2,2,2)" transform="translate(0,0)"></path>
<path d="M 1448.6 1007.2 C 1452 1006.75 1450.48 1006.37 1453.38 1007.64 C 1454.1 1012.17 1439.9 1065.27 1438.67 1076.78 C 1443.98 1072.45 1449.82 1066.95 1455.07 1062.35 C 1450.68 1071.39 1449.41 1073.49 1441.95 1080.13 C 1436.9 1082.15 1435.52 1083.18 1430.67 1080.39 C 1421.43 1066.96 1448.18 1020.71 1438.62 1015.02 C 1435.86 1015.43 1433.63 1016.18 1431.25 1014.97 L 1431.48 1013.15 C 1434.69 1009.7 1443.75 1008.24 1448.6 1007.2 z" fill="rgb(2,2,2)" transform="translate(0,0)"></path>
<path d="M 783.196 907.425 C 787.981 907.056 791.997 906.474 796.74 907.197 L 797.606 908.642 C 794.86 916.167 794.554 917.639 794.961 925.719 L 795.069 927.633 L 819.028 927.6 C 819.217 921.715 819.589 917.569 818.553 911.724 C 816.429 910.61 814.293 909.52 812.145 908.451 L 813.388 907.634 L 812.348 908.6 C 815.027 906.443 825 907.053 828.426 907.785 L 828.587 909.387 L 825.68 911.012 C 822.513 918.127 822.683 940.775 825.562 948.808 C 825.161 947.69 829.04 950.301 829.57 950.873 L 828.036 952.254 C 822.669 952.276 817.366 952.447 812.035 951.881 L 812.418 950.656 L 818.786 947.452 C 819.384 944.475 819.021 934.361 818.967 930.73 L 795.034 930.712 C 794.779 938.533 792.339 947.203 799.892 950.713 L 800.238 952.102 C 796.078 953.219 788.083 953.411 783.84 952.12 L 783.309 951.004 C 785.471 950.015 787.649 949.063 789.844 948.149 C 790.998 941.444 790.592 919.758 789.471 912.583 C 789.08 910.082 786.751 913.394 783.196 907.425 z" fill="rgb(2,2,2)" transform="translate(0,0)"></path>
<path d="M 836.111 907.484 C 843.221 907.218 864.195 905.009 868.476 909.995 C 868.893 913.094 869.246 913.497 867.935 916.341 L 865.973 916.478 C 864.987 914.773 864.427 913.008 863.855 911.129 C 860.698 909.791 850.044 910.586 845.926 910.722 L 845.968 928.089 C 851.299 927.982 853.954 929.626 857.599 928.085 L 859.338 923.016 L 860.76 922.429 C 861.636 925.148 862.118 931.882 860.498 934.368 L 859.278 933.714 C 852.504 930.212 853.99 930.581 846.057 931.281 C 845.877 936.811 846.078 943.401 846.104 949.019 C 852.291 949.184 859.441 950.173 864.676 947.392 C 866.701 943.966 866.65 943.164 870.399 942.748 L 871.201 944.079 C 871.056 948.929 871.919 947.001 869.185 950.327 C 860.826 954.118 845.71 952.226 836.608 951.002 L 836.372 949.957 C 841.096 948.278 841.345 947.614 841.397 942.274 C 841.495 932.299 842.158 921.332 839.83 911.609 C 839.829 911.604 836.43 907.838 836.111 907.484 z" fill="rgb(2,2,2)" transform="translate(0,0)"></path>
<path d="M 740.462 906.013 C 750.355 906.534 771.992 905.825 779.617 907.527 L 780.812 909.64 C 780.908 913.241 781.097 913.254 779.551 916.677 C 777.121 916.429 772.279 905.073 763.538 911.067 C 762.484 917.897 763.076 939.128 763.146 947.083 L 763.955 949.108 L 768.563 950.456 L 768.8 951.799 C 764.936 953.156 755.161 954.031 752.288 950.826 L 752.944 949.338 C 754.375 949.001 755.812 948.689 757.255 948.404 C 758.85 944.289 758.049 915.74 757.994 909.887 C 748.228 909.794 749.928 909.404 741.971 915.239 C 740.379 912.907 740.629 909.054 740.462 906.013 z" fill="rgb(2,2,2)" transform="translate(0,0)"></path>
<path d="M 1599.08 973.875 C 1609.99 975.312 1613.07 985.7 1600.61 989.909 C 1596.27 988.833 1595.99 988.88 1592.77 985.979 C 1589.85 979.036 1593.32 977.088 1599.08 973.875 z" fill="rgb(2,2,2)" transform="translate(0,0)"></path>
<path d="M 1449.45 974.821 C 1455.7 974.594 1461.34 974.185 1462.31 981.85 C 1461.05 985.457 1460.36 985.708 1457.44 988.069 C 1446.2 990.038 1442.55 983.882 1449.45 974.821 z" fill="rgb(2,2,2)" transform="translate(0,0)"></path>
<metadata><recraft-signature>{"signed_by": "recraft", "signature_b64": "J/7/Bxbw/o7qmbIm0UUE2dXV4tLge6fkhCr8LkRj3t/w9XHp+Qzfx00iKu63j2L1uNF9xVdivN8zSV9hF3oxCA==", "signing_algo": "Ed25519", "generation_timestamp": 1772546410, "identifier": "47b67066-10c4-4b78-9655-4e686cdb4159"}</recraft-signature></metadata></svg>