<svg xmlns="http://www.w3.org/2000/svg" height="1024" preserveAspectRatio="none" style="display: block;" version="1.1" viewBox="0 0 2048 2048" width="1024">
<defs>
	<linearGradient gradientUnits="userSpaceOnUse" id="Gradient1" x1="933.504" x2="894.905" y1="727.421" y2="798.553">
		<stop class="stop0" offset="0" stop-color="rgb(8,7,20)" stop-opacity="1"></stop>
		<stop class="stop1" offset="1" stop-color="rgb(19,23,48)" stop-opacity="1"></stop>
	</linearGradient>
	<linearGradient gradientUnits="userSpaceOnUse" id="Gradient2" x1="1480.49" x2="1549.36" y1="917.006" y2="921.171">
		<stop class="stop0" offset="0" stop-color="rgb(3,5,25)" stop-opacity="1"></stop>
		<stop class="stop1" offset="1" stop-color="rgb(30,36,61)" stop-opacity="1"></stop>
	</linearGradient>
	<linearGradient gradientUnits="userSpaceOnUse" id="Gradient3" x1="765.904" x2="760.953" y1="877.899" y2="960.596">
		<stop class="stop0" offset="0" stop-color="rgb(6,7,20)" stop-opacity="1"></stop>
		<stop class="stop1" offset="1" stop-color="rgb(18,23,49)" stop-opacity="1"></stop>
	</linearGradient>
	<linearGradient gradientUnits="userSpaceOnUse" id="Gradient4" x1="1105.82" x2="1047.52" y1="887.855" y2="954.319">
		<stop class="stop0" offset="0" stop-color="rgb(0,0,4)" stop-opacity="1"></stop>
		<stop class="stop1" offset="1" stop-color="rgb(8,13,45)" stop-opacity="1"></stop>
	</linearGradient>
	<linearGradient gradientUnits="userSpaceOnUse" id="Gradient5" x1="970.475" x2="909.23" y1="879.8" y2="950.541">
		<stop class="stop0" offset="0" stop-color="rgb(0,0,7)" stop-opacity="1"></stop>
		<stop class="stop1" offset="1" stop-color="rgb(22,25,56)" stop-opacity="1"></stop>
	</linearGradient>
</defs>
<path d="M 0 0 L 2048 0 L 2048 2048 L 0 2048 L 0 0 z" fill="rgb(255,255,255)" transform="translate(0,0)"></path>
<path d="M 944.961 129.911 C 966.353 142.62 1002.97 171.775 1023.47 187.488 C 1050.62 169.185 1075.73 147.756 1103.59 129.839 C 1123.03 149.43 1153.12 179.252 1170.13 199.913 C 1194.84 186.095 1232.11 169.936 1258.13 158.248 C 1271.77 177.283 1298.59 218.162 1309.82 238.27 C 1340.61 227.904 1371.82 218.786 1403.35 210.939 C 1415.39 241.607 1428.12 272 1441.53 302.096 C 1473.31 297.501 1506.94 294.192 1539.02 290.243 C 1544.91 320.229 1554.53 355.496 1561.49 386.207 C 1589.34 388.872 1629.41 389.165 1658.42 390.752 C 1659.27 423.572 1661.32 456.349 1664.56 489.019 C 1694.12 494.168 1730.88 503.308 1760.25 510.661 C 1755.68 539.928 1753.6 578.377 1749.69 609.103 C 1765.57 612.014 1823.84 636.931 1840.43 644.198 C 1831.05 675.335 1820.96 706.354 1811.88 737.564 C 1830.45 745.884 1875.77 778.308 1894.07 791.144 C 1888.19 806.713 1857.91 863.137 1848.36 878.21 C 1855.04 882.487 1867.97 894.646 1874.29 900.216 C 1891 914.928 1907.28 929.928 1923.16 945.539 C 1914.54 957.951 1902.88 972.191 1893.55 984.374 C 1883.34 997.705 1871.57 1013.34 1860.56 1025.79 C 1879.92 1047.73 1905.11 1080.73 1921.89 1104.14 C 1904.06 1123.62 1867.43 1154.94 1845.66 1171.25 C 1860.88 1190.13 1882.45 1235.47 1894.35 1259.07 C 1870.31 1276.08 1834.1 1296.8 1808.05 1310.39 C 1819.07 1340.55 1828.38 1373.2 1837.65 1404.01 C 1809.94 1418.79 1771.79 1431.36 1742.31 1443.19 C 1748.9 1474.11 1754.09 1507.59 1759.79 1539.01 C 1729.5 1547.28 1692.29 1554.34 1660.19 1562.46 C 1659.85 1594.65 1659.22 1626.82 1658.29 1659 C 1628.98 1658.62 1591.99 1662.46 1560.88 1662.76 C 1553.97 1695.56 1545.55 1728.79 1538.06 1761.54 C 1530.33 1759.76 1522.47 1758.59 1514.63 1757.42 C 1490.3 1753.78 1466 1749.31 1441.54 1746.65 C 1435.25 1770.92 1414.41 1817.42 1403.63 1840.66 C 1376.6 1831.12 1337.62 1819.69 1313.02 1809.09 C 1295.66 1837.06 1276.13 1865.09 1258.17 1892.97 C 1249.06 1889.06 1236.55 1882.24 1227.49 1877.65 L 1171.31 1849.15 C 1153.79 1868.87 1133.58 1889.44 1115.29 1908.71 C 1111.57 1912.8 1107.63 1916.64 1103.72 1920.54 C 1077.17 1900.9 1050.43 1881.52 1023.48 1862.42 C 1001.1 1881.22 969.202 1904.21 945.458 1920.9 C 923.95 1900.35 899.067 1872.49 878.642 1850.42 C 857.1 1861.92 834.931 1872.23 813.071 1883.1 C 805.603 1886.81 798.153 1890.52 790.336 1893.45 C 771.187 1865.68 752.909 1837.32 735.526 1808.41 C 708.575 1819.41 671.372 1831.32 644.01 1839.53 C 633.353 1815.91 612.014 1769.61 603.618 1745.32 C 572.516 1751.28 541.147 1755.75 509.618 1758.71 C 500.295 1726.64 492.094 1694.26 485.032 1661.63 C 474.6 1660.78 460.431 1661.1 449.492 1660.81 C 430.236 1660.14 410.992 1659.17 391.766 1657.92 C 388.391 1629.86 385.178 1588.23 384.517 1560.18 C 356.465 1554.12 318.184 1543.86 290.653 1534.97 C 291.386 1507.96 296.273 1467.5 300.849 1441.11 C 270.298 1428.52 240.042 1415.23 210.108 1401.24 C 216.587 1380.57 230.17 1328.1 238.506 1310.89 C 214.027 1298.11 179.724 1272.78 153.722 1257.76 C 164.567 1234.56 176.911 1211.89 188.015 1188.79 C 191.029 1182.52 194.674 1174.94 198.78 1169.47 C 177.03 1153.67 145.975 1122.7 125.561 1103.33 C 137.347 1087.01 173.43 1038.53 185.931 1025.8 C 181.407 1021.1 177.623 1016.17 173.921 1010.8 C 158.701 988.73 141.118 967.848 126.179 945.661 C 141.963 928.646 177.77 898.963 196.93 881.849 C 183.59 857.372 166.736 818.487 154.282 792.251 C 179.702 775.145 209.026 758.835 235.517 741.782 C 228.058 710.296 217.692 675.889 209.004 644.388 C 232.152 634.066 275.005 617.93 298.845 609.773 C 295.567 576.263 292.282 543.421 290.838 509.742 C 318.968 502.875 356.691 493.356 384.806 488.491 C 386.537 455.879 389.045 423.313 392.328 390.821 C 416.709 387.835 461.201 387.503 487.183 386.551 C 495.092 353.902 503.192 321.3 511.483 288.746 C 541.981 293.476 575.283 296.329 606.141 300.238 C 618.026 268.795 630.845 239.955 644.288 209.124 C 674.97 218.169 707.736 227.523 737.664 238.629 C 741.23 231.233 750.068 217.642 754.64 210.28 C 766.289 191.392 778.253 172.701 790.528 154.213 C 817.682 168.023 852.646 184.276 878.096 198.536 C 898.791 176.136 922.416 150.495 944.961 129.911 z" fill="rgb(37,47,79)" transform="translate(0,0)"></path>
<path d="M 1007.51 192.529 C 1220.79 188.719 1427.34 267.187 1584.29 411.643 C 1745.84 557.514 1843.72 760.943 1856.9 978.21 C 1867.11 1200.12 1789.02 1417.04 1639.69 1581.51 C 1520.43 1714.89 1360.98 1805.81 1185.46 1840.52 C 1132.83 1850.82 1092.83 1854.11 1040.29 1856.75 C 819.558 1860.36 606.537 1775.61 448.623 1621.34 C 346.737 1523.49 270.881 1401.76 227.931 1267.19 C 132.765 974.793 218.009 664.126 429.31 444.723 C 581.08 287.459 789.001 196.77 1007.51 192.529 z" fill="rgb(255,255,255)" transform="translate(0,0)"></path>
<path d="M 212.183 906.65 C 277.266 458.156 693.535 147.292 1142.05 212.238 C 1590.56 277.184 1901.55 693.358 1836.74 1141.89 C 1771.93 1590.42 1355.86 1901.54 907.302 1836.87 C 458.75 1772.2 147.504 1356.21 212.04 907.641 C 212.087 907.311 212.135 906.98 212.183 906.65 z" fill="rgb(37,47,79)" transform="translate(0,0)"></path>
<path d="M 212.183 906.65 C 277.266 458.156 693.535 147.292 1142.05 212.238 C 1590.56 277.184 1901.55 693.358 1836.74 1141.89 C 1771.93 1590.42 1355.86 1901.54 907.302 1836.87 C 458.75 1772.2 147.504 1356.21 212.04 907.641 C 211.553 916.173 241.779 954.304 242.24 960.019 C 239.499 967.097 239.6 1069.73 243.243 1077.82 C 230.817 1097.28 220.345 1111.91 208.724 1132.32 C 220.78 1132.17 233.431 1131.83 245.437 1131.97 L 258.268 1131.87 C 260.43 1147.86 266.88 1176.32 270.679 1192.02 C 295.984 1297.07 342.274 1395.91 406.764 1482.61 C 528.371 1645.62 709.02 1754.48 909.962 1785.84 C 1111.9 1815.82 1317.47 1764.09 1481.17 1642.1 C 1615.67 1540.81 1714.61 1399.5 1763.77 1238.47 C 1773.41 1207.57 1784.97 1163.17 1789.66 1131.08 L 1803.22 1131.09 C 1814.19 1131.08 1826.99 1131.84 1838.22 1132.07 C 1829.1 1115.6 1819.54 1100.9 1809.41 1085.05 C 1810.26 1078.66 1810.28 1063.66 1810.46 1056.77 C 1811.34 1021.81 1810.44 986.83 1807.77 951.963 C 1815.9 939.951 1823.66 929.098 1831.45 916.835 C 1829.52 912.507 1828.74 909.91 1827.35 905.336 C 1819.72 905.21 1811.75 905.382 1804.09 905.437 L 1788.99 905.468 C 1761.45 778.14 1723.04 681.823 1646.86 574.902 C 1527.44 409.355 1347.43 297.704 1146.06 264.27 C 947.049 231.736 743.268 279.72 579.679 397.635 C 411.16 518.886 296.657 701.157 260.572 905.603 C 249.931 906.814 224.337 906.075 211.678 906.429 L 212.183 906.65 z" fill="rgb(182,155,83)" transform="translate(0,0)"></path>
<path d="M 1789.66 1131.08 L 1803.22 1131.09 C 1801.82 1140 1799.99 1148.77 1798.26 1157.62 C 1716.51 1576.57 1325.81 1864.1 898.987 1796.14 C 695.902 1762.12 514.254 1649.82 393.051 1483.36 C 338.363 1407.82 298.615 1329.88 271.237 1240.14 C 259.679 1202.26 254.101 1169.73 245.437 1131.97 L 258.268 1131.87 C 260.43 1147.86 266.88 1176.32 270.679 1192.02 C 295.984 1297.07 342.274 1395.91 406.764 1482.61 C 528.371 1645.62 709.02 1754.48 909.962 1785.84 C 1111.9 1815.82 1317.47 1764.09 1481.17 1642.1 C 1615.67 1540.81 1714.61 1399.5 1763.77 1238.47 C 1773.41 1207.57 1784.97 1163.17 1789.66 1131.08 z" fill="rgb(255,255,255)" transform="translate(0,0)"></path>
<path d="M 246.983 905.157 C 250.837 888.203 254.194 870.522 258.359 853.808 C 266.99 820.206 277.465 787.106 289.736 754.656 C 351.746 593.618 463.496 456.55 608.744 363.376 C 783.887 251.268 996.998 214.957 1199.38 262.743 C 1356.56 299.601 1498.54 384.027 1605.99 504.516 C 1639.47 542.896 1669.71 583.992 1696.39 627.379 C 1734.85 688.843 1765.91 764.933 1786.33 834.284 C 1792.94 856.737 1798.25 882.428 1804.09 905.437 L 1788.99 905.468 C 1761.45 778.14 1723.04 681.823 1646.86 574.902 C 1527.44 409.355 1347.43 297.704 1146.06 264.27 C 947.049 231.736 743.268 279.72 579.679 397.635 C 411.16 518.886 296.657 701.157 260.572 905.603 C 255.785 905.309 251.821 905.08 246.983 905.157 z" fill="rgb(255,255,255)" transform="translate(0,0)"></path>
<path d="M 1807.77 951.963 C 1810.44 986.83 1811.34 1021.81 1810.46 1056.77 C 1810.28 1063.66 1810.26 1078.66 1809.41 1085.05 L 1796.53 1067.51 C 1797.23 1035.34 1796.67 1003.15 1794.85 971.027 L 1807.77 951.963 z" fill="rgb(255,255,255)" transform="translate(0,0)"></path>
<path d="M 243.243 1077.82 C 239.6 1069.73 239.499 967.097 242.24 960.019 C 246.051 965.327 249.767 970.617 253.867 975.707 C 253.489 1003.16 251.86 1034.99 253.955 1061.93 C 250.691 1066.74 246.173 1072.98 243.243 1077.82 z" fill="rgb(255,255,255)" transform="translate(0,0)"></path>
<path d="M 229.292 918.882 C 285.79 918.166 342.294 917.941 398.796 918.206 C 399.231 962.331 397.995 1007.23 399.089 1051.27 C 422.701 1069.08 448.634 1084.25 473.014 1100.99 C 482.209 1107.3 491.244 1113.69 500.723 1119.58 L 500.838 1046.83 C 538.599 1045.25 582.485 1046.23 620.808 1046.26 L 811.447 1046.05 L 1421.71 1046.24 C 1458.32 1045.15 1509.7 1045.29 1546.19 1046.81 L 1549.03 1047.19 C 1550.47 1049.72 1550.13 1048.68 1550.21 1051.66 C 1551.18 1057.97 1551 1059.89 1550.59 1066.04 C 1550.83 1073.33 1550.97 1079.98 1550.85 1087.27 L 1550.5 1090.18 C 1555.24 1098.75 1559.43 1105.74 1562.53 1115.13 C 1568.38 1109.93 1574.99 1105.59 1581.59 1101.4 C 1603.58 1087.45 1625.92 1074.04 1647.55 1059.52 C 1649.94 1014.51 1647.83 963.888 1648.29 918.374 L 1812.42 918.745 C 1803.38 936.966 1787.42 957.762 1775.63 974.765 C 1765.65 989.164 1755.97 1004.67 1746.01 1018.81 L 1789.7 1081.7 C 1798.06 1093.75 1807.5 1105.97 1814.7 1118.61 L 1654.16 1119.25 C 1626.35 1119.31 1590.82 1120.5 1563.78 1119.34 L 1569.71 1131.81 C 1605.13 1130.19 1641.07 1131.38 1676.54 1131.18 C 1684.08 1131.14 1691.87 1131.16 1699.41 1131.46 C 1691.2 1168.84 1683.1 1204.14 1670.66 1240.35 C 1622.1 1381.65 1520.61 1514.5 1394.29 1595.41 C 1241.37 1694.42 1055.28 1728.35 877.261 1689.69 C 737.986 1658.53 611.864 1584.8 516.4 1478.71 C 490.071 1449.25 464.877 1414.37 443.716 1381.13 C 395.554 1305.27 363.327 1220.41 348.994 1131.71 C 373.144 1131.1 398.297 1131.4 422.504 1131.5 C 439.583 1131.57 459.353 1131.12 476.263 1131.96 L 482.068 1132.11 C 484.559 1132.12 487.049 1132.11 489.539 1132.09 C 495.306 1132.09 501.973 1131.44 504.088 1125.14 C 499.445 1118.17 475.199 1120.74 466.938 1120.75 L 409.335 1120.64 L 232.776 1119.64 C 249.487 1088.99 280.796 1050.06 299.5 1019.52 C 280.579 988.497 250.272 950.452 229.292 918.882 z" fill="rgb(255,255,255)" transform="translate(0,0)"></path>
<path d="M 952.569 1348.71 C 946.203 1350.89 939.775 1353.22 933.26 1354.9 C 910.539 1360.76 888.707 1355.17 868.814 1343.46 C 830.057 1320.65 788.993 1270.32 777.706 1226.49 C 772.731 1207.17 772.238 1187.05 783.081 1169.61 C 785.664 1165.46 789.622 1160.12 794.857 1159.39 C 814.137 1156.69 961.518 1311.15 983.687 1332.98 C 1010.42 1359.3 1036.97 1385.78 1065.71 1409.94 C 1103.6 1397.97 1090.22 1418.32 1098.7 1426.3 C 1128.41 1454.27 1161.69 1479.08 1191.74 1506.94 L 1193.34 1508.65 C 1199.62 1514.69 1204.58 1518.87 1211.38 1524.37 L 1212.38 1525.48 C 1214.03 1526.78 1215.67 1527.99 1217.21 1529.42 C 1227.01 1541.36 1245.08 1550.71 1251.99 1564.36 C 1254.79 1569.89 1254.85 1576.02 1252.83 1581.82 C 1248.36 1594.66 1234.7 1608.33 1222.5 1614.23 C 1216.21 1617.27 1208.43 1618.77 1201.94 1615.42 C 1191.36 1609.95 1098.43 1508.52 1085.24 1494.24 C 1080.44 1489.05 1067.45 1472.62 1062.51 1470.05 C 1059.33 1468.4 1055.57 1469.29 1052.49 1467.71 C 1045.57 1464.16 1041.63 1452.48 1038.95 1445.63 L 1042.53 1436.62 C 1035.64 1428.55 1025.6 1418.43 1019.72 1410.04 C 1012.27 1419.68 1004.91 1429.38 997.639 1439.14 C 1000.2 1443.07 1001.74 1446.28 1003.84 1450.44 C 1002.29 1456.98 1001.34 1463.47 996.843 1468.46 C 993.59 1470 993.058 1468.71 989.669 1468.31 C 989.699 1468.32 987.225 1468.36 986.998 1468.59 C 976.185 1479.49 962.914 1493.75 952.765 1504.72 L 886.527 1575.46 C 874.634 1588.28 862.254 1602.82 849.44 1613.32 C 826.356 1632.22 783.508 1583.9 793.231 1562.44 C 797.302 1553.46 824.938 1532.81 833.755 1525.21 L 936.911 1437.82 C 954.019 1423.19 943.371 1400.85 976.792 1416.49 C 986.619 1407.81 991.274 1399.85 1003.11 1390.89 C 990.97 1375.03 972.641 1353.24 952.569 1348.71 z" fill="rgb(37,47,79)" transform="translate(0,0)"></path>
<path d="M 793.546 1177.77 C 794.312 1187.32 790.009 1196.38 793.422 1208.55 C 806.655 1255.74 847.219 1301.29 889.346 1324.64 C 895.65 1328.15 902.187 1331.23 908.911 1333.86 C 912.764 1335.34 928.64 1339.41 929.756 1341.23 L 927.251 1342.11 C 903.325 1342.76 891.276 1338.25 870.441 1326.11 C 833.957 1304.85 763.857 1222.52 793.546 1177.77 z" fill="rgb(255,255,255)" transform="translate(0,0)"></path>
<path d="M 831.169 1556.12 C 839.718 1555.18 846.773 1557 850.715 1565.43 C 852.635 1569.56 852.798 1574.3 851.168 1578.55 C 848.749 1584.76 845.765 1586.3 840.047 1588.86 C 814.816 1589.67 810.956 1566.64 831.169 1556.12 z" fill="rgb(255,255,255)" transform="translate(0,0)"></path>
<path d="M 1207.45 1555.67 C 1216.52 1554.46 1224.9 1560.73 1226.27 1569.78 C 1227.64 1578.83 1221.5 1587.31 1212.48 1588.83 C 1206.51 1589.84 1200.45 1587.55 1196.64 1582.83 C 1192.83 1578.12 1191.86 1571.72 1194.11 1566.09 C 1196.35 1560.46 1201.45 1556.48 1207.45 1555.67 z" fill="rgb(255,255,255)" transform="translate(0,0)"></path>
<path d="M 1472.78 1181.27 C 1494.75 1170.7 1529.34 1156.7 1535.05 1130.56 C 1539.1 1112.01 1532.78 1089.57 1521.24 1074.68 C 1517.04 1069.28 1511.6 1063.63 1508.16 1057.96 L 1508.84 1056.42 L 1513.32 1058.01 L 1519.73 1060.67 L 1517.45 1062.63 C 1518.25 1064.49 1518.83 1064.97 1520.19 1066.43 C 1535.76 1082.89 1540.64 1105.2 1552.12 1123.95 C 1557 1131.94 1572.86 1138.37 1569.95 1149.25 C 1561.49 1180.85 1510.22 1182.16 1488.41 1190.89 C 1491.46 1196.7 1494.37 1205.42 1496.87 1210.83 C 1526.23 1274.15 1522.84 1313.48 1442.17 1307.61 C 1435.19 1307.1 1426.66 1305.93 1419.06 1304.28 L 1416.29 1302.61 L 1418.18 1302.53 C 1457.23 1301.29 1512.44 1316.15 1507.44 1253.55 C 1506.28 1239.11 1491.64 1196.45 1481.47 1188.2 L 1480.27 1188.56 C 1481.26 1192.84 1482.81 1197.45 1484.22 1201.6 C 1502.18 1254.53 1478.64 1284.34 1428.3 1294.76 C 1422.82 1295.85 1417.32 1296.86 1411.81 1297.79 C 1416.52 1321.78 1413.18 1353.23 1399.35 1373.64 C 1392.79 1383.52 1382.48 1390.31 1370.81 1392.44 C 1355.84 1395.25 1335.61 1391.24 1320.22 1390.79 C 1318.15 1429.24 1302.19 1475.35 1255.26 1471.77 C 1240.91 1470.68 1227.83 1466.81 1214.06 1463.01 C 1209.86 1479.62 1203.4 1494.69 1193.34 1508.65 L 1191.74 1506.94 C 1202.19 1494.79 1207.35 1472.33 1211.18 1457.17 C 1279.06 1485 1315.51 1458.67 1315.98 1386.45 C 1345.76 1392.1 1386.78 1395.49 1401.85 1362.64 C 1412.01 1340.47 1411.5 1318.64 1407.58 1295.18 C 1421.56 1293.14 1437.95 1290.96 1450.93 1285.31 C 1499.58 1264.14 1490.45 1220.45 1472.78 1181.27 z" fill="rgb(182,155,83)" transform="translate(0,0)"></path>
<path d="M 1478.14 1182.92 C 1499.6 1172.21 1530.35 1159.9 1539 1135.7 C 1541.25 1129.4 1540.97 1115.42 1541.99 1114.38 C 1543.02 1116.43 1544.02 1118.5 1545 1120.58 L 1545.69 1121.94 C 1556.92 1143.72 1575.48 1150.27 1542.88 1169.44 C 1530.43 1176.75 1494.77 1182.55 1488.41 1190.89 C 1484.17 1186.61 1483.34 1185.96 1478.14 1182.92 z" fill="rgb(255,255,255)" transform="translate(0,0)"></path>
<path d="M 1420.48 1314.62 C 1430.02 1340.65 1444.42 1403.23 1406.64 1413.85 C 1379.69 1421.42 1344.61 1409.24 1321.2 1395.98 L 1319.6 1395.05 C 1329.72 1397.46 1339.39 1401.81 1348.95 1404.85 C 1365.31 1410.06 1392.56 1413.71 1408.16 1405.22 C 1431.91 1392.3 1426.53 1336.91 1419.51 1316.45 L 1420.48 1314.62 z" fill="rgb(182,155,83)" transform="translate(0,0)"></path>
<path d="M 1546.19 1046.81 L 1549.03 1047.19 C 1550.47 1049.72 1550.13 1048.68 1550.21 1051.66 C 1551.18 1057.97 1551 1059.89 1550.59 1066.04 C 1550.83 1073.33 1550.97 1079.98 1550.85 1087.27 L 1550.5 1090.18 C 1541.54 1079.45 1531.4 1066.22 1517.45 1062.63 L 1519.73 1060.67 L 1513.32 1058.01 C 1523.85 1054.85 1536.56 1051.67 1546.19 1046.81 z" fill="rgb(255,255,255)" transform="translate(0,0)"></path>
<path d="M 1546.19 1046.81 L 1549.03 1047.19 C 1550.47 1049.72 1550.13 1048.68 1550.21 1051.66 C 1550.23 1055 1550.83 1060.12 1549.07 1062.63 C 1541.65 1064.12 1527.23 1062.21 1519.73 1060.67 L 1513.32 1058.01 C 1523.85 1054.85 1536.56 1051.67 1546.19 1046.81 z" fill="rgb(255,255,255)" transform="translate(0,0)"></path>
<path d="M 1550.21 1051.66 C 1551.18 1057.97 1551 1059.89 1550.59 1066.04 C 1543.89 1066.17 1537.19 1066.19 1530.49 1066.12 C 1537.99 1072.31 1544.79 1079.65 1550.85 1087.27 L 1550.5 1090.18 C 1541.54 1079.45 1531.4 1066.22 1517.45 1062.63 L 1519.73 1060.67 C 1527.23 1062.21 1541.65 1064.12 1549.07 1062.63 C 1550.83 1060.12 1550.23 1055 1550.21 1051.66 z" fill="rgb(182,155,83)" transform="translate(0,0)"></path>
<path d="M 476.263 1131.96 L 482.068 1132.11 C 479.01 1148.65 486.293 1164.88 499.77 1174.63 C 518.535 1188.22 542.546 1188.1 564.442 1184.8 C 542.685 1194.73 505.084 1188.94 488.286 1171.28 C 476.279 1158.66 476.024 1147.94 476.263 1131.96 z" fill="rgb(182,155,83)" transform="translate(0,0)"></path>
<path d="M 1421.71 1046.24 C 1458.32 1045.15 1509.7 1045.29 1546.19 1046.81 C 1536.56 1051.67 1523.85 1054.85 1513.32 1058.01 L 1508.84 1056.42 C 1518.09 1052.99 1527.5 1050.95 1537.11 1046.97 C 1500.49 1046.67 1457.69 1047.82 1421.71 1046.24 z" fill="rgb(182,155,83)" transform="translate(0,0)"></path>
<path d="M 1211.38 1524.37 C 1213.53 1521.72 1213.63 1503.46 1214.07 1498.09 C 1215.48 1502.78 1215.52 1504.78 1215.97 1509.75 L 1214.55 1509.16 C 1213.59 1514.72 1214.76 1522.33 1212.38 1525.48 L 1211.38 1524.37 z" fill="rgb(218,211,197)" transform="translate(0,0)"></path>
<path d="M 1212.38 1525.48 C 1214.76 1522.33 1213.59 1514.72 1214.55 1509.16 L 1215.97 1509.75 C 1216.17 1516.71 1216.57 1522.47 1217.21 1529.42 C 1215.67 1527.99 1214.03 1526.78 1212.38 1525.48 z" fill="rgb(137,110,52)" transform="translate(0,0)"></path>
<path d="M 1416.29 1302.61 L 1419.06 1304.28 C 1418.1 1308.33 1419.92 1310.72 1420.48 1314.62 L 1419.51 1316.45 C 1417.92 1311.19 1416.76 1308.14 1416.29 1302.61 z" fill="rgb(201,186,146)" transform="translate(0,0)"></path>
<path d="M 1164.52 1150.37 C 1241.54 1141.83 1290.08 1197.22 1265.32 1274 C 1256.94 1299.98 1223.56 1311.1 1200.68 1322.17 C 1172.3 1335.91 1141.8 1349.25 1112.02 1360.99 C 1095.01 1367.41 1076.74 1377.34 1059.03 1380.97 C 1052.25 1382.36 1047.03 1381.84 1041.23 1377.95 C 1034.15 1373.21 1026.4 1365.01 1025.08 1356.23 C 1022.55 1339.49 1106.24 1190.5 1121.17 1171.59 C 1132.15 1157.69 1147.52 1152.26 1164.52 1150.37 z" fill="rgb(19,26,51)" transform="translate(0,0)"></path>
<path d="M 1212.79 1176.24 C 1223.02 1175.14 1225.46 1176.06 1234.97 1179.12 C 1203.42 1202.03 1182.01 1225.7 1154.47 1253.25 C 1120.03 1287.72 1086.02 1323.4 1051.02 1357.22 C 1045.6 1362.01 1040.42 1366.55 1034.82 1371.1 L 1035.43 1370.17 C 1047.87 1351.33 1070.49 1325.36 1084.86 1306.96 C 1111.97 1272.23 1169 1185.36 1212.79 1176.24 z" fill="rgb(255,255,255)" transform="translate(0,0)"></path>
<path d="M 1247.53 1194.8 C 1253.1 1208.42 1255.5 1221.48 1250.04 1235.75 C 1245.19 1248.41 1232.37 1262.6 1221.69 1270.76 C 1179.61 1302.86 1131.3 1326.5 1085.5 1352.78 C 1074.09 1359.33 1062.25 1366.17 1050.28 1371.55 L 1047.35 1372.19 L 1046.52 1371.45 C 1050.51 1367.28 1091.44 1341.52 1100.83 1334.79 C 1140.22 1306.54 1230.99 1237.66 1247.53 1194.8 z" fill="rgb(255,255,255)" transform="translate(0,0)"></path>
<path d="M 1052.68 1359.33 C 1108.82 1313.31 1156.56 1258.02 1210.23 1209.2 C 1216.72 1203.3 1231.27 1188.75 1239.39 1187.27 L 1240.66 1188.18 C 1240.94 1225.22 1088.93 1338.51 1052.51 1362.75 L 1052.68 1359.33 z" fill="rgb(255,255,255)" transform="translate(0,0)"></path>
<path d="M 1196.92 1164.36 C 1205.3 1163.23 1211.46 1165.86 1219.37 1168.51 C 1170.83 1170.04 1115.35 1254.91 1088.44 1291.67 C 1076.02 1308.46 1063.48 1325.16 1050.83 1341.76 C 1046.97 1347.05 1043.66 1351.35 1039.48 1356.38 C 1049.42 1333.74 1067.56 1307.39 1080.95 1285.62 C 1097.92 1258.04 1115.97 1228.95 1134.57 1202.49 C 1149.65 1181.04 1170.82 1168.15 1196.92 1164.36 z" fill="rgb(255,255,255)" transform="translate(0,0)"></path>
<path d="M 1044.04 1380.35 C 1095.69 1350.48 1151.59 1327.14 1201.49 1293.74 C 1238.13 1269.21 1256.24 1258.45 1260.79 1212.93 C 1263.27 1226.66 1264.57 1235.6 1263.07 1249.44 C 1259.01 1286.76 1241.04 1295.1 1211.03 1309.82 C 1195.54 1317.54 1179.93 1325.03 1164.21 1332.27 L 1162.47 1330.5 C 1185.35 1317.48 1236.95 1292.98 1247.38 1271.03 C 1206.75 1300.28 1091.18 1369.65 1044.04 1380.35 z" fill="rgb(255,255,255)" transform="translate(0,0)"></path>
<path d="M 1168.16 1156.43 C 1175.4 1156.24 1182.63 1157.03 1189.66 1158.75 C 1182.67 1160.98 1175.33 1163.27 1168.49 1165.92 C 1136.21 1178.45 1118.16 1214.43 1100.46 1241.84 C 1077.23 1277.82 1056.56 1312.4 1039.3 1351.46 C 1038.2 1355.34 1037.34 1359.92 1034.84 1362.93 L 1033.62 1362.47 C 1030.88 1356.22 1034.43 1345.94 1037.52 1340.05 C 1061.7 1293.93 1087.65 1248.12 1113.49 1202.91 C 1127.47 1178.47 1137.3 1159.53 1168.16 1156.43 z" fill="rgb(255,255,255)" transform="translate(0,0)"></path>
<path d="M 1162.47 1330.5 L 1164.21 1332.27 C 1157.42 1335.74 1150.6 1339.17 1143.76 1342.55 C 1150.36 1337.14 1155.05 1334.68 1162.47 1330.5 z" fill="rgb(210,211,216)" transform="translate(0,0)"></path>
<path d="M 1052.68 1359.33 L 1052.51 1362.75 C 1050.19 1364.41 1046.13 1367.44 1043.52 1367.6 C 1045.45 1364.07 1049.35 1361.78 1052.68 1359.33 z" fill="rgb(210,211,216)" transform="translate(0,0)"></path>
<path d="M 518.794 1052.46 C 528.895 1052.92 541.069 1057.49 550.335 1061.55 C 532.455 1072.64 516.884 1083 511.093 1105.17 C 507.418 1119.24 511.081 1135.99 518.949 1148.27 C 533.634 1171.18 555.706 1174.19 580.489 1179.12 C 552.875 1215.02 537.65 1243.06 578.727 1278.74 C 597.941 1295.43 622.379 1291.27 645.399 1287.98 C 643.484 1293.82 638.794 1306.89 635.958 1312.02 C 617.664 1345.16 639.181 1379.83 671.746 1391.25 C 689.739 1397.56 712.898 1389.46 728.597 1380.66 C 725.937 1401.87 721.453 1424.27 735.503 1442.32 C 745.788 1455.53 761.394 1464.7 778.007 1466.52 C 804.206 1469.4 816.061 1459.85 836.113 1446.57 C 836.325 1460.95 836.704 1473.35 840.418 1487.53 C 841.75 1492.61 846.947 1504.54 847.193 1508.47 L 845.638 1508.45 C 836.99 1498.46 835.106 1475.03 832.499 1462.23 L 832.234 1460.77 C 833.233 1457.27 833.78 1457.64 832.713 1454.91 C 828.513 1455.47 818.514 1461.9 814.114 1464.16 C 775.838 1483.86 720.633 1457.23 721.974 1411.28 C 722.13 1405.94 722.777 1400.31 722.55 1394.99 L 721.661 1394.69 C 720.016 1398.07 710.984 1402.14 706.488 1404.87 L 704.751 1403.54 C 716.754 1397.32 718.621 1396.12 727.497 1386.03 C 687.963 1405.53 652.358 1400.67 629.754 1359.07 C 617.988 1337.42 630.985 1312.13 640.326 1291.65 C 628.554 1293.75 616.972 1296.3 605.02 1294.07 C 579.718 1289.34 554.585 1266.46 550.25 1240.69 C 546.426 1217.96 562.623 1198.95 574.463 1181.99 C 550.57 1176.06 528.962 1173.04 514.959 1149.36 C 506.848 1135.33 504.533 1118.68 508.507 1102.97 C 513.03 1085.48 527.341 1070.65 542.785 1061.99 L 543.898 1061.38 C 535.619 1058.34 527.183 1055.12 518.794 1052.46 z" fill="rgb(182,155,83)" transform="translate(0,0)"></path>
<path d="M 1327.63 1432.3 C 1327.44 1428.11 1324.2 1402.94 1324.69 1402.08 C 1327.75 1410.73 1328.31 1413.73 1329.7 1422.88 C 1333.47 1452.12 1328.34 1498.66 1291.22 1500.15 C 1266.3 1501.15 1233.65 1482.07 1213.86 1468.37 C 1240.27 1477.53 1268.52 1503.82 1298.9 1491.29 C 1320.33 1482.45 1326.59 1452.92 1327.63 1432.3 z" fill="rgb(182,155,83)" transform="translate(0,0)"></path>
<path d="M 616.099 1327.22 L 617.198 1329.16 C 605.471 1360.56 607.688 1398.8 644.481 1412.14 C 662.482 1418.66 688.601 1413.23 704.751 1403.54 L 706.488 1404.87 C 684.319 1417.15 656.917 1425.37 632.71 1414.13 C 599 1398.48 601.891 1355.06 616.099 1327.22 z" fill="rgb(182,155,83)" transform="translate(0,0)"></path>
<path d="M 820.058 1471.3 C 811.025 1478.63 803.107 1484.5 792.867 1489.7 C 765.357 1503.67 725.888 1501.37 711.82 1469.63 C 704.671 1453.51 708.095 1422.77 714.484 1407.03 C 715.226 1409.42 713.284 1417.52 712.921 1420.36 C 710.582 1438.62 710.257 1456.39 721.064 1472.13 C 728.368 1482.79 739.674 1490.05 752.412 1492.25 C 780.138 1497.13 799.301 1484.37 819.928 1469.55 L 820.058 1471.3 z" fill="rgb(182,155,83)" transform="translate(0,0)"></path>
<path d="M 544.409 1211.96 C 544.571 1215.77 535.97 1227.52 534.567 1232.28 C 527.71 1255.57 529.635 1281.53 550.441 1297.3 C 575.369 1316.19 597.85 1306.8 624.709 1303.52 L 621.774 1305.26 C 599.791 1314.25 563.22 1315.63 544.068 1300.14 C 513.594 1275.49 524.005 1237.72 544.409 1211.96 z" fill="rgb(182,155,83)" transform="translate(0,0)"></path>
<path d="M 1071.18 1096.08 C 1099.47 1093.82 1092.2 1133.88 1063.85 1140.97 C 1065.63 1134.3 1079.75 1131.54 1078.42 1123.7 C 1075.62 1122.93 1072 1122.61 1069.66 1121.81 C 1053.83 1116.4 1061.41 1102.12 1071.18 1096.08 z" fill="rgb(0,0,3)" transform="translate(0,0)"></path>
<path d="M 1071.61 1098.45 C 1082.64 1100.01 1084.67 1111.78 1079.19 1120 C 1067.63 1115.66 1065.19 1108.92 1071.61 1098.45 z" fill="rgb(255,255,255)" transform="translate(0,0)"></path>
<path d="M 1153.3 1095.95 C 1182.31 1092.94 1171.51 1132.97 1152.73 1138.29 C 1149.54 1139.19 1148.68 1140.29 1145.84 1138.81 C 1147.94 1137.51 1150.01 1136.17 1152.05 1134.78 C 1155.7 1132.26 1161.9 1127.17 1162.68 1122.7 C 1158.54 1118.52 1138.15 1121.97 1142.73 1104.59 C 1143.85 1100.36 1149.64 1097.9 1153.3 1095.95 z" fill="rgb(0,0,3)" transform="translate(0,0)"></path>
<path d="M 1153.5 1097.44 C 1163.78 1099.23 1164.92 1111.28 1158.74 1118.37 C 1148.16 1113.99 1145.62 1106.34 1153.5 1097.44 z" fill="rgb(255,255,255)" transform="translate(0,0)"></path>
<path d="M 866.767 1097.3 C 874.253 1097.68 891.859 1096.14 896.628 1099.56 L 896.494 1103.18 L 895.1 1104.41 C 889.201 1104.46 888.185 1100.49 882.143 1099.81 L 880.28 1101.5 C 878.316 1106.53 878.913 1110.86 879.046 1116.32 C 883.636 1116.4 890.99 1115.12 893.817 1116.92 C 893.85 1119.95 893.365 1119.95 891.484 1122.5 C 886.946 1120.04 885.161 1118.69 880.343 1119.98 C 878.429 1122.47 878.994 1125.38 878.846 1129.08 C 878.995 1132.29 878.718 1133.41 880.79 1135.84 C 888.408 1139.53 888.721 1135.4 897.746 1133.48 C 898.786 1136.26 897.581 1137.57 896.425 1141.2 C 891.128 1141.07 870.779 1141.21 867.421 1139.51 C 875.85 1133.19 871.576 1117.92 872.414 1108.03 C 872.886 1102.47 870.557 1100.46 866.767 1097.3 z" fill="rgb(0,0,3)" transform="translate(0,0)"></path>
<path d="M 921.685 1097.27 C 925.734 1097.06 931.061 1096.27 934.555 1097.86 C 936.496 1101.26 935.713 1101.67 935.59 1106.34 C 931.403 1106.8 931.646 1100.19 922.81 1100.37 C 919.086 1102.73 920.388 1101.21 918.423 1104.79 C 919.19 1115.44 957.821 1130.38 925.99 1141.1 C 921.689 1141.06 916.236 1140.64 912.693 1138.12 C 911.139 1135.24 911.246 1134.66 910.721 1131.47 C 914.501 1130.14 922.765 1142.99 930.916 1133.59 C 930.882 1123.91 894.416 1109.63 921.685 1097.27 z" fill="rgb(0,0,3)" transform="translate(0,0)"></path>
<path d="M 987.051 1096.83 L 987.634 1097.26 C 987.83 1100.93 988.341 1100.51 986.959 1103.39 C 982.149 1101.79 977.904 1099.23 973.459 1102.09 C 972.13 1109.68 972.174 1128.46 974.011 1136.34 C 974.567 1138.72 974.793 1138.12 977.343 1139.53 C 975.552 1141.42 964.627 1141.25 962.309 1139.17 C 964.305 1137.58 964.624 1137.1 965.762 1134.81 C 965.767 1127.68 966.928 1107.86 964.924 1102.22 C 961.178 1100.39 958.271 1100.36 954.604 1102.38 C 953.282 1105.58 954.121 1104.65 951.73 1106.76 C 949.804 1103.97 949.816 1100.86 950.684 1097.63 C 956.191 1096.55 976.785 1097.59 985.417 1096.96 L 987.051 1096.83 z" fill="rgb(0,0,3)" transform="translate(0,0)"></path>
<path d="M 1101.26 1096.14 L 1131.4 1096.19 C 1125.65 1113.88 1120.55 1115.48 1115.73 1138.58 C 1113.7 1140.53 1111.73 1140.05 1108.19 1140.47 C 1112.72 1125.26 1116.99 1116.79 1123.79 1102.45 C 1117.97 1101.89 1110.58 1101.9 1104.63 1101.76 C 1102.66 1104.09 1102.28 1105.19 1099.7 1106.31 C 1100.38 1102.72 1100.81 1099.76 1101.26 1096.14 z" fill="rgb(0,0,3)" transform="translate(0,0)"></path>
<path d="M 1042.67 1094.99 C 1045.2 1099.72 1042.13 1127.82 1043.19 1136.38 C 1046 1137.86 1045.57 1137.27 1047.61 1139.43 C 1043.87 1141.61 1036.51 1140.72 1032.29 1140.03 C 1038.81 1134.81 1036.39 1112.74 1035.87 1104.51 C 1032.99 1102.34 1034.26 1104.26 1028.56 1104.57 C 1030.73 1100.82 1038.56 1097.18 1042.67 1094.99 z" fill="rgb(0,0,3)" transform="translate(0,0)"></path>
<path d="M 994.253 1134.56 C 995.949 1132.92 998.642 1132.93 1000.33 1134.58 C 1002.01 1136.23 1002.07 1138.92 1000.47 1140.65 C 999.389 1141.81 997.767 1142.29 996.23 1141.91 C 994.694 1141.53 993.486 1140.35 993.075 1138.82 C 992.664 1137.29 993.115 1135.66 994.253 1134.56 z" fill="rgb(0,0,3)" transform="translate(0,0)"></path>
<path d="M 829.575 1493.74 C 829.8 1500.72 832.934 1517.34 832.296 1520.45 L 830.916 1520.54 L 829.497 1519.05 C 827.763 1510.37 828.753 1502.47 829.575 1493.74 z" fill="rgb(201,186,146)" transform="translate(0,0)"></path>
<path d="M 819.928 1469.55 C 822.612 1465.72 828.042 1462.78 832.234 1460.77 L 832.499 1462.23 L 820.058 1471.3 L 819.928 1469.55 z" fill="rgb(218,211,197)" transform="translate(0,0)"></path>
<path d="M 616.099 1327.22 C 618.693 1322.23 618.754 1320.98 622.752 1317.38 C 621.927 1321.75 619.457 1325.24 617.198 1329.16 L 616.099 1327.22 z" fill="rgb(201,186,146)" transform="translate(0,0)"></path>
<path d="M 1002.44 344.573 C 1133.69 336.844 1280.74 381.59 1390.35 452.747 C 1549.13 556.897 1659.97 719.928 1698.41 905.888 L 1648.36 905.998 C 1647.23 869.336 1648.11 825.741 1648.39 788.839 L 1326.37 790.092 L 1203.29 790.201 C 1185.55 790.208 1167.6 790.254 1149.84 789.886 C 1146.78 789.823 1144.86 790.882 1142.68 792.895 C 1141.59 796.427 1141.44 794.769 1143.07 798.041 C 1145.57 799.784 1147.63 799.768 1150.69 799.75 C 1190.66 799.504 1230.67 799.36 1270.64 799.318 L 1513.98 799.795 C 1553.85 799.956 1596.03 799.568 1635.72 800.908 C 1637.1 824.959 1636.48 855.525 1636.6 880.126 C 1636.97 932.266 1636.78 984.409 1636.03 1036.55 L 1098.5 1035.13 L 410.385 1036.24 C 409.696 1002.97 410.194 967.747 410.169 934.377 C 409.982 889.892 410.108 845.406 410.549 800.923 C 450.06 799.785 495.302 800.753 535.102 800.725 L 842.898 801.152 C 846.609 801.137 851.304 801.443 853.681 799.037 C 853.786 794.631 854.429 795.366 852.51 792.161 C 846.99 789.135 814.282 790.652 805.428 790.659 L 703.116 790.762 L 399 790.635 L 398.768 905.839 L 349.995 905.565 C 376.443 775.565 438.615 655.515 529.526 558.9 C 652.815 428.005 822.738 350.995 1002.44 344.573 z" fill="rgb(255,255,255)" transform="translate(0,0)"></path>
<path d="M 1024.64 454.578 C 1036.51 480.121 1047.12 506.228 1056.44 532.805 C 1079.94 534.854 1109.23 538.455 1132.02 539.196 C 1103.74 547.295 1038.09 552.514 1024.02 575.419 C 1035.01 580.419 1051.87 571.464 1063.45 567.942 C 1091.74 559.34 1119.29 548.927 1146.81 538.185 C 1124.47 556.003 1093.67 578.906 1073.18 598.1 C 1080.9 624.826 1092.05 654.848 1098.71 680.467 C 1081.26 646.849 1069.12 598.809 1031.05 580.77 C 1028.74 579.672 1028.2 580.251 1026.29 581.05 L 1025.66 583.2 C 1026.59 588.459 1032.28 597.574 1036.05 601.456 C 1059.93 626.038 1079.71 663.661 1103.18 687.218 C 1077.33 672.573 1048.95 652.416 1022.79 636.533 C 998.679 651.705 967.271 673.341 942.975 686.668 C 945.459 684.2 947.883 681.672 950.243 679.085 C 965.942 661.784 980.324 641.697 994.849 623.29 C 1001.41 614.979 1020.23 593.867 1019.74 583.76 C 1017.84 580.545 1019.17 581.499 1015.79 580.567 C 1000.89 583.928 973.885 635.444 964.938 650.46 C 959.03 660.571 952.702 670.431 945.971 680.013 C 953.356 653.087 962.887 626.371 969.116 599.515 C 960.664 590.409 947.394 580.594 937.995 572.162 C 925.464 560.921 912.924 549.617 900.313 538.47 C 912.595 543.382 1007.32 579.327 1012.9 578.959 C 1015.46 578.79 1016.38 578.166 1018.08 576.339 C 1018.48 572.572 1018.47 573.884 1015.99 569.939 C 1002.01 554.141 942.025 542.524 920.038 538.965 C 943.037 537.038 966.009 534.812 988.95 532.287 C 995.682 517.719 1011.46 474.581 1018.71 464.177 C 1016.57 487.127 1007.14 550.34 1017.29 568.824 C 1019.47 571.818 1019.45 573.071 1022.09 573.527 L 1022.54 573.211 C 1030.33 550.843 1026.74 480.614 1024.64 454.578 z" fill="rgb(19,26,51)" transform="translate(0,0)"></path>
<path d="M 1026.53 441.55 C 1044 445.653 1061.9 469.18 1071.87 482.876 C 1097.62 474.388 1137.15 459.602 1163.83 469.517 C 1185.44 477.547 1195.44 499.721 1204.25 519.26 C 1265.56 512.814 1301.56 510.694 1316.34 580.985 C 1341.03 585.835 1376.23 591.044 1393.78 609.553 C 1410.7 627.391 1408.58 647.028 1407.82 669.107 C 1453.21 688.181 1496.44 715.374 1473.09 771.095 C 1477.29 773.329 1486.4 777.928 1488.04 782.336 C 1484.6 782.672 1484.68 782.016 1480.99 780.409 C 1470.98 777.424 1462.65 775.804 1452.49 773.871 C 1455.21 758.354 1463.39 723.622 1457.66 710.48 C 1450.66 694.389 1406.39 677.857 1389.48 671.751 C 1386.09 654.405 1386.47 615.168 1376.3 604.715 C 1364.41 592.497 1317.44 587.234 1299.74 586.817 C 1295.83 577.893 1292.22 568.837 1288.93 559.665 C 1276.62 524.442 1276.26 513.903 1233.11 519.127 C 1218.5 520.895 1206.88 520.943 1191.96 525.801 C 1179.63 512.399 1157.2 479.661 1143.31 471.941 C 1125.54 462.063 1080.28 484.089 1060.32 490.665 C 1059.66 490.259 1059 489.843 1058.35 489.419 C 1044.66 480.448 1029.77 456.72 1026.53 441.55 z" fill="rgb(182,155,83)" transform="translate(0,0)"></path>
<path d="M 664.968 884.628 C 661.782 883.808 657.281 883.108 655.143 880.944 L 655.649 879.279 C 660.792 877.72 670.725 878.53 676.509 878.428 C 690.527 878.182 714.776 877.879 717.778 895.977 C 720.076 909.827 712.59 915.805 702.559 923.012 C 716.347 941.745 721.763 952.926 743.318 962.013 C 734.599 961.975 725.509 962.156 716.877 961.174 C 707.537 952.475 690.856 922.829 679.762 926.476 C 677.755 932.806 678.836 949.225 679.047 956.695 C 682.46 957.604 685.766 957.92 687.87 960.491 C 684.371 963.002 669.158 962.134 663.823 962.059 L 663.016 958.23 C 667.418 952.258 665.342 895.517 664.968 884.628 z" fill="rgb(19,26,51)" transform="translate(0,0)"></path>
<path d="M 681.441 883.381 C 702.929 883.563 713.576 901.293 699.307 917.979 C 672.265 930.339 677.111 901.796 679.504 884.661 L 681.441 883.381 z" fill="rgb(255,255,255)" transform="translate(0,0)"></path>
<path d="M 1014.83 454.877 C 1015.39 456.2 1015.61 458.979 1015.82 460.543 C 1013.46 467.587 994.145 484.409 987.893 490.336 C 985.788 489.185 983.675 488.05 981.553 486.93 C 962.733 477.021 933.59 466.12 912.374 472.976 C 892.393 479.433 870.29 508.305 861.398 526.596 C 851.948 522.242 841.986 519.101 831.749 517.245 C 782.01 508.736 754.902 540.145 747.348 586.088 C 683.992 578.729 649.915 612.274 658.489 675.525 C 610.293 678.209 569.29 711.474 585.151 765.329 C 586.405 769.586 591.575 775.853 593.626 780.879 L 592.192 781.758 C 587.284 779.24 582.471 769.157 579.78 764.145 C 574.464 766.57 570.52 769.066 565.571 772.08 C 561.413 775.19 549.117 786.222 543.904 781.501 C 547.035 775.454 570.275 763.774 577.775 759.758 C 577.356 757.421 576.997 755.074 576.698 752.719 C 569.884 700.821 606.444 676.62 653.143 671.46 C 652.837 668.019 652.631 664.569 652.526 661.115 C 651.691 626.208 662.213 594.588 699.031 584.332 C 714.473 580.031 727.849 580.807 743.691 580.846 C 763.174 511.525 790.404 494.913 859.918 521.984 C 874.26 506.278 885.62 479.29 909.408 470.281 C 934.194 460.894 966.846 475.659 989.09 485.312 C 999.121 474.239 1005.86 466.681 1014.83 454.877 z" fill="rgb(182,155,83)" transform="translate(0,0)"></path>
<path d="M 496.136 854.44 C 501.092 853.807 508.947 853.768 513.957 853.856 C 526.569 854.076 543.052 851.993 554.914 856.866 C 579.712 867.052 571.303 903.155 549.067 911.023 C 545.009 912.46 534.756 914.258 531.178 912.485 C 532.39 905.64 545.795 908.116 551.447 899.159 C 556.408 892.1 554.827 884.633 554.308 876.779 C 553.563 865.498 530.403 851.216 524.135 864.119 C 524.013 875.307 522.18 947.442 525.814 953.132 C 528.978 958.087 535.606 955.794 538.801 960.079 L 537.901 961.337 C 529.981 962.441 498.93 961.867 491.223 960.503 C 496.591 958.526 503.916 958.536 506.981 954.202 C 509.301 945.792 510.665 867.369 507.577 860.987 C 504.385 857.761 501.409 857.846 496.805 856.421 L 496.136 854.44 z" fill="rgb(19,26,51)" transform="translate(0,0)"></path>
<path d="M 608.084 874.666 C 619.626 894.566 636.034 943.887 648.576 958.018 C 644.957 962.194 642.022 960.51 636.694 961.09 C 634.178 961.212 627.563 961.26 625.647 959.923 C 627.34 958.844 627.218 958.895 628.693 957.568 C 627.982 951.27 622.548 939.61 619.904 933.706 L 591.439 933.275 C 590.55 935.601 589.679 937.934 588.829 940.274 C 586.795 945.87 584.289 950.501 586.78 955.817 C 589.631 956.973 590.25 956.914 592.156 959.328 L 591.778 960.78 C 585.885 962.276 566.281 961.769 558.966 961.793 C 563.262 959.405 567.935 957.887 572.563 956.178 C 581.53 940.187 589.741 914.989 597.575 897.759 C 601.277 889.616 603.063 882.625 608.084 874.666 z" fill="rgb(19,26,51)" transform="translate(0,0)"></path>
<path d="M 605.156 898.63 C 607.814 902.826 615.29 921.885 616.515 926.854 C 613.924 928.304 611.638 927.8 608.314 927.821 L 594.016 927.532 L 605.156 898.63 z" fill="rgb(255,255,255)" transform="translate(0,0)"></path>
<path d="M 1270.68 878.331 C 1278.62 881.464 1299.71 945.466 1308.11 955.265 C 1309.38 956.748 1317.56 961.053 1319.69 962.193 C 1311.56 961.952 1301.95 962.602 1294.44 961.967 C 1292.29 960.509 1291.98 960.676 1291.58 956.946 C 1290.57 947.513 1287.36 941.302 1283.35 932.869 L 1271.14 932.778 L 1256.42 932.769 C 1253.01 941.344 1250.9 947.21 1248.36 956.058 C 1254.02 958.554 1255.4 959.239 1260.55 962.781 C 1248.94 962.235 1239.62 961.987 1227.97 962.216 C 1231.27 960.5 1236.57 958.028 1238.36 954.85 C 1251.36 931.744 1261.05 902.876 1270.68 878.331 z" fill="rgb(19,26,51)" transform="translate(0,0)"></path>
<path d="M 1269.43 899.637 C 1272.62 902.923 1279.07 920.223 1280.57 925.082 C 1278.88 926.665 1277.29 926.119 1274.25 926.27 L 1259.39 926.128 C 1262.62 916.877 1265.43 908.625 1269.43 899.637 z" fill="rgb(255,255,255)" transform="translate(0,0)"></path>
<path d="M 994.388 879.543 C 1008.18 878.863 1028.08 877.002 1035.84 891.93 C 1046.39 912.226 1025.3 934.495 1004.85 927.554 L 1004.14 926.007 C 1021.87 921.058 1032.78 907.728 1019.08 889.314 C 1014.97 883.794 1006.55 884.184 999.999 884.264 L 999.954 899.5 C 999.966 909.233 998.536 949.67 1000.64 955.319 C 1005.28 958.738 1010.99 959.665 1016.93 961.884 C 1009.73 962.466 986.056 962.592 979.096 961.766 L 978.955 960.261 C 982.737 958.613 983.292 958.793 984.842 954.794 C 988.119 946.342 988.058 890.504 985.64 885.247 C 981.752 882.184 981.992 883.961 976.289 882.414 L 976.32 880.616 C 978.897 879.7 990.87 879.641 994.388 879.543 z" fill="rgb(19,26,51)" transform="translate(0,0)"></path>
<path d="M 938.872 867.154 C 947.181 866.694 953.483 867.236 961.723 868.05 C 961.889 874.006 962.623 885.572 960.682 890.838 C 957.374 890.087 955.334 876.694 950.609 873.806 C 946.08 870.126 933.007 872.751 930.109 878.105 C 916.969 902.378 962.964 910.736 964.871 933.646 C 966.513 953.361 956.154 962.096 939.375 964.63 C 935.32 964.678 920.647 964.643 918.579 960.957 C 916.276 956.851 917.764 943.943 918.88 939.299 L 920.16 939.033 C 923.828 944.15 921.142 955.709 927.272 956.751 C 964.115 963.01 956.92 932.888 933.079 919.733 C 919.381 912.175 911.112 891.262 919.58 878.67 C 924.49 871.368 930.67 869.316 938.872 867.154 z" fill="url(#Gradient5)" transform="translate(0,0)"></path>
<path d="M 1088.46 879.508 L 1101.21 879.097 C 1100.71 883.819 1099.97 893.931 1098.5 897.984 C 1089.58 881.024 1089.69 885.229 1070.83 885.444 C 1070.66 895.781 1070.76 906.492 1070.74 916.859 C 1083 917.23 1087.54 918.582 1096.97 910.989 C 1097.04 918.771 1096.81 926.552 1096.28 934.317 L 1094.45 930.276 C 1089.99 920.601 1079.83 923.244 1070.54 923.552 C 1070.51 928.456 1070.29 933.519 1069.98 938.404 C 1068.88 955.506 1073.48 955.712 1087.72 955.443 C 1100.83 954.931 1097.43 954.793 1104.86 944.425 L 1105.9 944.627 C 1108.44 969.604 1083.09 961.488 1067.33 961.851 C 1062.53 961.961 1054.86 962.52 1050.52 961.504 L 1052.97 958.96 C 1053.59 958.315 1056.4 955.375 1056.56 954.931 C 1059.75 946.123 1059.09 891.138 1058.22 886.095 C 1055.73 883.256 1052.97 882.968 1049.03 881.53 L 1049.08 880.433 C 1056.24 879.229 1079.99 879.55 1088.46 879.508 z" fill="url(#Gradient4)" transform="translate(0,0)"></path>
<path d="M 730.117 877.881 C 740.117 881.281 791.639 880.637 803.082 877.835 C 803.434 885.557 803.246 893.274 803.143 901.003 C 794.576 882.938 792.502 885.561 773.023 886.014 C 772.983 906.053 773.066 934.321 774.143 954.044 C 777.622 956.736 785.582 959.175 790.005 960.686 C 784.566 961.482 752.772 962.887 749.964 960.45 C 751.368 957.692 752.548 958.081 756.356 956.546 C 760.552 951.674 759.063 937.369 759.073 930.28 L 759.058 885.886 C 751.714 885.729 744.127 885.805 736.76 885.781 C 734.256 889.607 730.197 898.67 728.075 903.183 C 727.85 893.382 728.484 887.417 730.117 877.881 z" fill="url(#Gradient3)" transform="translate(0,0)"></path>
<path d="M 1019.72 746.422 C 1024.26 746.284 1038.22 745.289 1041.54 747.523 C 1040.36 748.233 1036.16 750.582 1036.12 751.831 C 1035.56 769.401 1035.25 788.016 1036.49 805.642 C 1036.66 808.029 1042.44 811.269 1044.42 812.396 C 1040.11 813.371 1022.43 814.296 1019.36 811.783 C 1021.09 810.597 1022.21 809.771 1023.83 808.444 C 1027.42 801.212 1026.01 788.571 1025.72 780.063 C 1014.77 779.132 998.922 779.612 987.513 779.678 C 987.351 787.536 986.841 796.97 987.864 804.689 C 988.483 809.357 990.114 809.683 993.429 811.816 L 995.102 812.107 C 992.107 813.553 974.047 814.338 971.287 811.897 C 972.959 811.074 976.427 809.478 976.628 807.853 C 977.465 801.099 977.958 754.465 976.334 750.696 L 971.039 749.016 L 970.455 747.599 C 974.882 745.95 987.242 746.657 992.397 746.966 L 992.763 747.946 C 984.416 752.813 987.172 766.043 987.434 774.815 L 1025.48 774.677 C 1025.55 770.148 1026.39 753.811 1024.07 750.586 C 1021.2 749.969 1020.43 750.225 1018.39 748.489 L 1019.72 746.422 z" fill="rgb(19,26,51)" transform="translate(0,0)"></path>
<path d="M 1160.98 878.4 C 1170.22 878.635 1176.72 879.236 1185.92 880.339 C 1185.82 888.663 1185.48 895.071 1184.76 903.373 C 1179.4 887.076 1169.99 880.282 1152.62 884.579 C 1109.78 895.18 1122.6 968.385 1174.73 954.503 C 1180.53 951.036 1181.86 947.497 1185.27 941.743 C 1184.74 948.073 1184.25 954.407 1183.8 960.743 C 1179.99 961.804 1176.09 962.527 1172.16 962.903 C 1156.87 964.501 1139.1 963.187 1126.82 952.867 C 1110.13 938.809 1108.76 910.041 1123.28 893.929 C 1134.03 882.009 1145.91 879.435 1160.98 878.4 z" fill="rgb(19,26,51)" transform="translate(0,0)"></path>
<path d="M 1482.49 878.777 C 1505.05 880.105 1530.53 879.449 1553.29 879.301 C 1553.23 886.855 1553.09 894.408 1552.87 901.959 C 1545.7 884.796 1543.36 886.402 1525.04 886.427 C 1525.02 902.575 1524.06 941.136 1525.85 955.166 C 1529.33 957.305 1536.65 959.318 1540.81 960.61 C 1535.51 961.594 1507.16 962.674 1503.38 960.482 C 1505.3 957.229 1509.57 958.679 1510.04 956.826 C 1513.4 943.37 1512.13 898.483 1511.43 886.017 L 1488.63 885.979 C 1485.96 891.502 1483.84 896.93 1480.96 902.721 C 1480.75 894.851 1481.74 886.649 1482.49 878.777 z" fill="url(#Gradient2)" transform="translate(0,0)"></path>
<path d="M 1186.32 594.68 C 1188.28 597.253 1195.36 610.918 1197.31 614.518 C 1205.18 615.133 1210.46 615.783 1218.24 617.111 C 1212.97 622.832 1207.69 627.83 1202.07 633.205 C 1203.59 640.117 1204.88 647.078 1205.92 654.078 C 1200.11 650.867 1194.05 647.9 1188.1 644.907 C 1183.78 644.877 1170.55 652.179 1166.32 654.36 C 1167.5 647.126 1168.81 639.913 1170.25 632.726 C 1164.92 627.568 1159.97 622.28 1154.88 616.89 L 1175.83 613.975 C 1179.46 606.458 1181.95 601.759 1186.32 594.68 z" fill="rgb(37,47,79)" transform="translate(0,0)"></path>
<path d="M 845.019 594.566 C 847.558 598.211 853.488 609.982 855.934 614.49 C 863.376 614.996 870.81 615.622 878.232 616.366 L 860.513 632.989 C 862.167 639.981 863.642 647.314 865.163 654.362 C 860.026 652.318 851.651 647.578 846.485 644.843 C 844.417 644.322 830.105 651.5 825.42 653.27 C 826.828 645.944 828.071 638.422 829.37 631.062 C 822.06 625.455 819.634 623.286 813.251 616.571 L 834.884 614.163 C 838.075 607.697 841.686 600.999 845.019 594.566 z" fill="rgb(37,47,79)" transform="translate(0,0)"></path>
<path d="M 1451.13 878.266 C 1458.82 877.981 1464.45 878.37 1472.16 878.896 C 1471.76 886.421 1471.11 893.379 1470.35 900.881 C 1468.54 896.297 1466.76 891.702 1465.01 887.095 C 1453.04 880.139 1439.16 883.388 1439.58 895.979 C 1439.97 908.229 1476.42 919.009 1475.94 936.41 C 1475.44 954.799 1462.9 962.064 1447.56 963.292 C 1439.14 963.262 1436.98 963.001 1429.23 960.215 C 1428.63 954.595 1427.24 945.043 1428.87 939.956 L 1430.48 939.386 C 1434.53 944.053 1435.95 952.221 1440.32 955.956 C 1445.08 960.154 1460.01 955.598 1462.41 950.354 C 1472.74 927.768 1433.08 924.571 1429.38 905.728 C 1428.03 898.847 1429.49 892.044 1432.99 886.769 C 1437.09 880.578 1444.61 879.265 1451.13 878.266 z" fill="rgb(19,26,51)" transform="translate(0,0)"></path>
<path d="M 847.966 918.69 C 851.705 912.459 866.906 889.203 865.464 883.145 L 862.202 880.03 L 862.817 878.905 C 868.988 877.989 882.024 878.489 888.688 878.865 C 871.04 888.615 861.036 906.181 853.592 924.666 C 850.717 931.804 852.117 948.346 853.609 956.083 C 849.119 959.433 846.109 957.464 840.092 958.58 L 838.321 955.988 C 842.46 923.992 832.527 915.458 815.521 889.53 C 812.3 884.621 808.79 882.344 803.782 879.278 C 813.632 879.101 823.484 879.074 833.334 879.197 C 831.963 881.709 832.54 880.819 830.151 882.731 C 827.965 891.237 843.332 910.397 847.966 918.69 z" fill="rgb(19,26,51)" transform="translate(0,0)"></path>
<path d="M 1319.22 879.39 C 1324.01 878.886 1347.05 878.222 1350.38 880.585 C 1346.42 882.149 1345.8 882.271 1342.51 884.823 C 1339.24 889.896 1342.07 934.203 1341.53 943.336 C 1340.62 958.719 1352.29 956.74 1363.27 954.716 C 1369.89 953.498 1371.05 948.718 1374.27 943.188 L 1375.57 943.353 L 1375.34 946.238 C 1375.02 953.287 1374.84 955.108 1373.13 961.981 C 1366.07 961.966 1321.33 962.617 1319.35 960.971 L 1319.77 959.218 C 1323.13 958.003 1323.55 957.97 1326.64 955.95 C 1330.6 949.774 1328.69 896.357 1327.78 885.835 C 1327.58 883.418 1322.39 883.648 1319.22 879.39 z" fill="rgb(19,26,51)" transform="translate(0,0)"></path>
<path d="M 954.181 735.509 C 956.038 736.87 955.372 751.28 953.849 753.501 C 952.683 750.719 951.953 748.874 950.416 746.228 C 944.005 741.772 934.441 743.044 926.268 743.142 C 926.363 761.408 926.137 786.981 927.076 805.858 C 927.203 808.423 932.862 810.391 935.694 811.642 L 935.379 812.734 C 930.715 813.224 912.271 813.669 908.135 812.339 L 908.907 811.168 C 912.548 809.665 913.895 809.516 915.986 806.188 C 916.948 786.59 916.208 763.037 916.078 743.155 C 909.104 743.025 902.387 743.419 895.426 743.753 C 892.362 748.197 890.389 753.119 888.144 758.051 C 888.488 751.535 888.438 742.469 891.136 736.727 C 902.985 737.375 944.312 738.754 954.181 735.509 z" fill="url(#Gradient1)" transform="translate(0,0)"></path>
<path d="M 1195.45 879.395 C 1207.41 879.556 1219.38 879.534 1231.34 879.329 C 1227.46 881.071 1223.02 882.776 1219.05 884.407 C 1217.88 903.477 1219.13 922.879 1218.32 941.99 C 1218.06 948.047 1218.41 952.184 1221.98 957.204 C 1224.37 958.276 1224.56 958.149 1226.3 960.023 L 1224.94 962.18 C 1213.33 961.874 1200.65 962.158 1188.96 962.221 C 1193.1 960.84 1203.66 959.246 1204.22 954.345 C 1206.72 932.574 1205.87 908.084 1204.33 886.351 C 1204.11 883.275 1196.15 882.224 1194.1 881.056 L 1195.45 879.395 z" fill="rgb(19,26,51)" transform="translate(0,0)"></path>
<path d="M 1384.57 879.363 C 1390.91 878.708 1409.17 878.337 1414.87 879.447 L 1415.1 880.241 C 1411.71 881.255 1411.7 881.099 1408.84 883.475 C 1407.86 885.296 1406.49 888.178 1406.66 890.684 C 1408.03 911.695 1405.77 932.937 1407.48 953.848 C 1407.75 957.084 1412.95 959.263 1415.49 960.41 L 1415.56 962.501 C 1409.9 961.903 1386.48 962.672 1384.27 960.94 C 1386.08 957.681 1394.65 960.403 1393.86 952.542 C 1392.74 941.599 1397.1 888.747 1391.97 882.857 C 1389.49 882.447 1388.18 882.143 1385.75 881.474 L 1384.57 879.363 z" fill="rgb(19,26,51)" transform="translate(0,0)"></path>
<path d="M 1099.98 746.604 C 1099.94 749.974 1100.49 753.639 1098.89 756.017 C 1087.96 751.345 1088.69 751.829 1077.68 751.821 L 1076.57 751.834 C 1076.49 759.837 1076.24 768.49 1076.5 776.436 C 1083.15 776.565 1094.09 774.622 1096.67 775.195 C 1098.63 777.834 1098.15 785.713 1097.41 788.924 C 1089.62 777.854 1091.49 780.565 1076.52 780.886 C 1076.44 787.171 1076.58 795.484 1076.2 801.596 C 1076.56 804.431 1076.39 804.384 1077.84 806.791 C 1088.61 811.631 1095.33 809.326 1102.16 800.56 C 1103.22 803.024 1101.95 809.768 1101.61 813.034 C 1090.82 813.945 1070.72 813.244 1059.13 813.237 C 1061.91 811.303 1063.75 809.728 1066.33 807.524 C 1066.57 796.561 1065.46 771.77 1066.8 762.182 L 1066.77 760.698 C 1066.51 752.981 1066.1 753.863 1061.62 748.012 C 1063.92 746.371 1094.05 747.041 1099.98 746.604 z" fill="rgb(0,0,3)" transform="translate(0,0)"></path>
<path d="M 1066.33 807.524 C 1066.57 796.561 1065.46 771.77 1066.8 762.182 C 1068.29 771.617 1065.81 806.403 1069.14 811.535 L 1070.31 811.23 L 1070.56 808.851 L 1074.42 808.439 C 1075.91 805.893 1075.85 804.497 1076.2 801.596 C 1076.56 804.431 1076.39 804.384 1077.84 806.791 C 1088.61 811.631 1095.33 809.326 1102.16 800.56 C 1103.22 803.024 1101.95 809.768 1101.61 813.034 C 1090.82 813.945 1070.72 813.244 1059.13 813.237 C 1061.91 811.303 1063.75 809.728 1066.33 807.524 z" fill="rgb(19,26,51)" transform="translate(0,0)"></path>
<path d="M 826.393 962.35 C 830.308 960.115 834.323 958.073 838.321 955.988 L 840.092 958.58 C 846.109 957.464 849.119 959.433 853.609 956.083 C 859.393 957.53 865.912 958.73 871.303 960.834 C 863.541 962.124 860.588 962.088 852.673 962.012 C 843.912 962.044 835.152 962.156 826.393 962.35 z" fill="rgb(37,47,79)" transform="translate(0,0)"></path>
<path d="M 648.576 958.018 C 651.966 958.101 660.238 958.75 663.016 958.23 L 663.823 962.059 C 654.347 963.111 646.088 962.271 636.694 961.09 C 642.022 960.51 644.957 962.194 648.576 958.018 z" fill="rgb(37,47,79)" transform="translate(0,0)"></path>
<path d="M 1763.77 1131.5 C 1766.83 1131.43 1767.3 1131.17 1770.11 1132.45 L 1770.83 1134.79 C 1765.87 1153.87 1762.78 1176.31 1757.19 1197.67 C 1737.15 1275.87 1705.19 1350.52 1662.43 1418.99 C 1555.73 1588.97 1386.12 1709.84 1190.62 1755.2 C 999.575 1799.59 798.726 1766.49 632.032 1663.15 C 451.264 1549.78 332.777 1380.67 285.155 1172.77 C 282.511 1159.07 279.972 1145.58 276.771 1131.99 C 290.105 1131.76 303.775 1131.88 317.14 1131.83 C 332.375 1220.33 363.644 1305.31 409.406 1382.58 C 510.117 1549.57 663.647 1667.71 853.785 1714.65 C 1036.74 1759.22 1229.9 1729.61 1391.1 1632.27 C 1540.21 1542.33 1651.78 1401.51 1705.22 1235.78 C 1709.88 1221.68 1713.96 1207.38 1717.83 1193.04 C 1723.29 1172.81 1726.33 1152.03 1731.31 1131.69 L 1763.77 1131.5 z" fill="rgb(255,255,255)" transform="translate(0,0)"></path>
<path d="M 1008.12 273.439 C 1154.85 268.723 1310.01 315.428 1431.9 396.348 C 1569.89 487.708 1675.27 620.56 1732.82 775.719 C 1748.04 817.984 1760.01 861.35 1768.63 905.438 L 1729.27 905.467 C 1721.88 878.778 1718.67 855.993 1709.81 827.583 C 1675.43 718.748 1616.84 619.117 1538.44 536.172 C 1409.08 398.496 1230.1 318.173 1041.25 313.044 C 926.194 311.744 828.931 329.779 724.312 379.587 C 510.273 481.488 366.405 674.693 318.798 905.539 L 279.86 905.423 C 300.305 767.964 380.021 616.648 474.268 516.189 C 618.727 362.209 798.388 281.691 1008.12 273.439 z" fill="rgb(255,255,255)" transform="translate(0,0)"></path>
<path d="M 1777.73 997.096 C 1779.89 1004.4 1779.05 1031.94 1778.97 1040.65 L 1772.69 1032.45 C 1768.64 1026.79 1766.26 1022.69 1762.81 1016.62 L 1777.73 997.096 z" fill="rgb(255,255,255)" transform="translate(0,0)"></path>
<path d="M 272.163 1003.77 C 276.111 1007.44 281.027 1015.76 283.642 1020.56 L 276.858 1030.85 L 272.072 1038.23 C 272.004 1026.74 272.035 1015.25 272.163 1003.77 z" fill="rgb(255,255,255)" transform="translate(0,0)"></path>
<metadata><recraft-signature>{"signed_by": "recraft", "signature_b64": "vgrwqjU5jf02ttQpC14vA9WOIG4b82+fkZufFaM0J0xQ7dlRb6rd2A7ljJ54bIgbA5R3iGy+bHZ89o9Uai7vDA==", "signing_algo": "Ed25519", "generation_timestamp": 1772546585, "identifier": "6682a0eb-f90d-4dd3-8ffc-5e242cff13c6"}</recraft-signature></metadata></svg>