<svg xmlns="http://www.w3.org/2000/svg" height="1024" preserveAspectRatio="none" style="display: block;" version="1.1" viewBox="0 0 2048 2048" width="1024">
<path d="M 0 0 L 2048 0 L 2048 2048 L 0 2048 L 0 0 z" fill="rgb(253,253,245)" transform="translate(0,0)"></path>
<path d="M 1152.61 57.4292 C 1191.92 53.9973 1253.72 93.118 1212.25 135.355 C 1291.77 150.678 1354.27 184.919 1426.39 219.69 C 1441.74 227.093 1458.5 238.168 1473.76 244.282 C 1479.79 237.234 1477.96 236.923 1486.94 236.651 C 1497.31 222.99 1487.28 172.515 1476.44 158.325 C 1463.66 141.597 1453.79 135.78 1434.09 131.515 C 1435.73 140.278 1437.2 150.338 1431.93 157.921 C 1425.07 168.845 1403.36 173.888 1393.67 164.085 C 1368.21 139.08 1395.97 108.756 1426.23 111.224 C 1489.02 116.345 1504.08 169.974 1502.92 223.552 C 1524.72 199.955 1567.85 185.673 1599.53 190.757 C 1625.18 194.873 1647.48 212.163 1642.58 240.838 C 1639.97 256.114 1624.26 265.629 1609.61 262.111 C 1602.94 260.511 1597.27 256.149 1594.01 250.118 C 1584.67 233.14 1594.28 220.644 1609.01 212.68 C 1574.33 200.12 1526.35 214.924 1507.14 246.793 L 1508 260.134 C 1524.65 268.918 1544.59 283.919 1559.8 295.389 C 1625.88 344.785 1684.96 402.914 1735.43 468.187 C 1748.18 485.114 1760.42 502.422 1772.12 520.088 C 1779.61 531.246 1787.43 554.292 1803.29 539.592 C 1824.46 519.968 1854.54 466.182 1833.16 438.945 C 1819.51 463.556 1791.67 460.811 1786.48 436.136 C 1785.07 429.356 1786.43 422.292 1790.26 416.522 C 1794.44 410.309 1801.1 406.901 1808.38 405.705 C 1835.37 401.27 1853.42 420.51 1856.95 445.851 C 1862.44 485.281 1843.39 516.048 1821.11 546.541 C 1875.21 535.677 1937.6 566.437 1936.91 627.773 C 1936.7 646.306 1920.01 663.61 1900.95 661.214 C 1894.01 660.359 1887.73 656.718 1883.54 651.13 C 1879.8 646.164 1878.22 639.898 1879.16 633.751 C 1881.5 618.139 1898.42 609.086 1913.1 613.424 L 1914.87 613.959 C 1915.25 593.601 1893.33 572.109 1875.99 564.147 C 1854.08 554.088 1833.39 553.433 1810.9 561.44 C 1814.27 574.514 1820.42 608.308 1825.52 618.299 C 1850.57 667.369 1876.4 716.326 1893.88 768.815 C 1900.33 788.165 1910.38 816.226 1911.53 836.452 C 1943.76 806.249 1975.18 832.38 1985.28 866.663 C 1993.48 896.106 1989.16 926.589 1974.33 953.054 C 1951.01 994.656 1910.96 1010.83 1867.6 1023 C 1881.22 1028.38 1897.11 1032.77 1910.08 1039 C 1945.09 1057.19 1967.66 1079.58 1982.89 1117.06 C 1998.15 1154.6 1988.76 1231.04 1932.71 1222.3 C 1927.81 1221.53 1919.87 1217.01 1915.01 1214.44 C 1906.78 1244.63 1897.68 1274.63 1888.25 1304.47 C 1886.19 1309.82 1884.48 1316.8 1881.86 1321.83 C 1859.64 1364.4 1834.77 1405.65 1815.59 1449.83 C 1813.09 1455.6 1807.38 1467.62 1806.99 1473.4 C 1819.5 1478.6 1818.36 1478.66 1817.69 1492.04 C 1838.46 1493.69 1868.24 1490.77 1886.52 1480.2 C 1907 1468.35 1913.27 1454.72 1919.57 1433.31 C 1875.1 1443.82 1863.2 1390.44 1900.36 1386.16 C 1907.56 1385.39 1914.77 1387.53 1920.38 1392.11 C 1943.19 1410.41 1935.47 1452.08 1918.99 1472.42 C 1894.21 1503.01 1856.86 1502.72 1821.06 1506.19 C 1841.62 1523.77 1857.15 1554.42 1859.15 1581.54 C 1861.54 1608.88 1849.66 1642.51 1817.4 1643.43 C 1791.54 1644.17 1776.29 1615.78 1797.37 1596.84 C 1816.92 1579.29 1831.19 1605.18 1838.79 1605.78 L 1840.45 1604 C 1841.85 1599.4 1841.78 1596.05 1842.06 1591.35 C 1844.25 1554.52 1820.28 1521.7 1791.27 1501.28 L 1790.14 1500.5 C 1750.35 1565.34 1705.65 1624.86 1650.06 1677.21 C 1607.97 1716.85 1560.36 1750.12 1513.54 1783.77 C 1510.59 1785.88 1506.66 1796.6 1505.24 1800.29 C 1526.9 1830.65 1571.84 1849.86 1607.78 1834.97 L 1606.68 1834.38 C 1593.12 1826.9 1587.23 1814.32 1595.52 1799.59 C 1602.51 1787.34 1619.37 1782.82 1630.7 1791.39 C 1665.06 1817.38 1631.07 1855.49 1598.23 1857.86 C 1560.09 1860.62 1531.49 1847.68 1502.88 1825.19 C 1506.7 1865.6 1495.78 1910.82 1457.51 1929.9 C 1434.38 1941.42 1401.99 1942.92 1387.05 1917.48 C 1383.44 1909.91 1383.23 1904.24 1385.56 1896.78 C 1395.59 1864.57 1446.97 1882.39 1432.69 1913.9 L 1432.18 1915 L 1433.28 1916.08 C 1448.08 1916.85 1462.81 1906.93 1472.18 1896.07 C 1489.37 1876.13 1491.59 1847.24 1490.13 1822.11 C 1489.9 1818.12 1489.6 1813.5 1486.46 1810.87 C 1483.72 1811.69 1482.36 1812.4 1479.59 1811.7 C 1479.23 1811.3 1475.41 1807.03 1474.62 1807.34 C 1402.68 1836.05 1337.84 1879.36 1262.85 1901.02 C 1244.52 1906.31 1228.15 1909.18 1210.13 1912.11 C 1240.65 1945.39 1221.44 1972.58 1185.75 1985.64 C 1129.96 2006.04 1065.21 1968.68 1040.23 1918.16 C 1033.13 1903.8 1028.32 1891.93 1023.01 1877.24 C 1009.59 1942.09 955.687 1992.81 887.749 1991.02 C 845.814 1987.51 802.745 1956.53 834.617 1912.81 C 802.265 1906.71 762.926 1897.25 732.929 1883.58 C 697.366 1867.37 663.631 1847.82 627.138 1832.75 C 608.078 1824.88 589.306 1810.99 569.142 1803.17 C 565.157 1813 558.112 1821.72 555.853 1832.43 C 549.571 1862.22 569.605 1894.69 594.059 1910.35 C 600.351 1914.39 606.862 1915.75 614.007 1917.19 C 612.293 1912.56 611.409 1908.85 610.198 1904.1 C 613.266 1888.78 622.586 1875.44 639.874 1879.11 C 646.822 1880.57 652.837 1884.89 656.452 1891 C 660.48 1897.67 661.847 1905.98 659.903 1913.55 C 657.635 1922.07 652.063 1929.34 644.422 1933.75 C 635.844 1938.72 625.573 1939.43 615.915 1938.31 C 565.21 1932.47 534.767 1871.59 547.852 1825.23 C 523.267 1844.52 494.602 1859.17 462.727 1858.91 C 436.551 1858.69 402.401 1848.1 404.21 1815.91 C 404.624 1806.8 407.756 1797.39 415.254 1791.71 C 438.77 1773.91 470.072 1804.26 450.026 1827.64 C 446.486 1831.77 443.677 1833.69 439.392 1836.83 C 481.097 1848.6 524.785 1833.12 541.93 1791.6 C 495.15 1764.04 448.097 1721.72 406.757 1686.43 C 375.77 1659.99 350.251 1625.76 323.989 1594.96 C 297.873 1564.34 277.997 1535.86 256.09 1502.17 C 220.481 1528.98 197.515 1560.97 208.522 1606.75 C 214.961 1600.69 219.8 1595.62 228.83 1593.55 C 234.999 1592.15 241.475 1593.29 246.791 1596.72 C 252.594 1600.4 257.013 1606.68 258.34 1613.44 C 259.589 1619.62 258.317 1626.05 254.808 1631.28 C 250.008 1638.33 243.049 1641.2 234.913 1642.75 C 207.529 1647.98 192.817 1624.52 189.27 1600.8 C 183.522 1562.37 204.156 1532.17 226 1502.85 C 196.842 1503.87 160.479 1500.78 138.708 1479.97 C 118.38 1459.66 102.55 1418.28 125.74 1394.43 C 142.813 1376.88 175.499 1387.04 171.706 1412.88 C 168.753 1432.98 150.785 1438.83 131.897 1434.97 C 147.27 1483.49 185.145 1495.35 231.639 1490.18 C 240.081 1489.24 236.333 1479.45 242.068 1474.44 C 243.897 1472.84 238.394 1460.08 237.587 1458.06 C 231.25 1443.27 224.901 1427.9 217.678 1413.45 C 196.814 1373.89 174.381 1335.21 156.855 1293.99 C 152.285 1283.24 149.235 1271.94 145.682 1260.85 C 140.374 1244.3 136.59 1228.28 133.44 1211.21 C 99.8934 1237.4 72.2458 1218.97 61.1771 1182.63 C 53.7858 1155.29 58.6449 1122.84 72.6669 1098.52 C 97.8026 1054.94 136.887 1035.93 182.77 1022.96 C 151.931 1014.86 123.949 1004.69 98.7515 983.664 C 59.8923 951.462 42.7342 880.792 77.4415 839.827 C 96.3997 817.451 113.148 821.108 132.698 840.288 C 138.221 810.953 145.96 778.28 157.509 750.603 C 168.888 723.86 183.369 698.535 196.073 672.45 C 209.474 644.933 221.19 616.448 234.287 588.767 C 236.114 584.906 240.692 573.922 240.501 570.037 C 239.851 556.762 211.304 554.742 201.633 554.842 C 181.499 555.165 162.304 563.412 148.211 577.794 C 136.214 590.254 132.794 599.96 133.004 616.379 C 136.61 614.56 139.74 612.84 143.786 612.336 C 149.832 611.577 155.917 613.416 160.53 617.397 C 179.69 633.859 168.751 665.79 142.57 665.901 C 119.996 665.996 110.682 639.468 111.038 620.598 C 111.741 583.297 144.163 551.966 179.536 544.907 C 192.958 542.161 204.66 542.84 218.169 543.082 C 203.487 519.068 190.088 494.352 188.076 465.332 C 186.089 437.325 198.492 406.465 230.269 404.629 C 268.159 402.44 270.818 456.121 234.431 456.008 C 224.155 455.977 218.325 447.245 211.811 439.973 C 198.64 465.006 211.203 492.922 223.89 515.352 C 232.771 531.054 239.638 537.212 254.987 546.385 C 320.135 447.027 400.675 357.047 498.428 289.057 C 513.453 278.606 528.884 269.078 544.33 259.289 C 540.018 246.672 532.13 235.581 521.627 227.367 C 498.092 208.753 471.101 205.414 442.271 208.98 C 473.579 234.035 448.237 272.738 417.604 257.656 C 401.92 249.934 400.926 221.549 411.94 208.053 C 427.923 188.47 458.342 187.335 481.58 191.113 C 506.12 195.088 528.676 208.286 548.488 223.116 C 547.61 220.726 546.859 218.29 546.24 215.82 C 536.038 174.961 564.083 122.49 605.928 111.696 C 619.205 108.767 632.505 108.251 644.693 115.535 C 659.264 124.243 665.113 141.711 656.027 156.669 C 650.837 165.214 639.527 167.553 630 169.082 C 609.741 161.637 607.913 150.203 613.998 131.113 C 580.335 138.968 554.375 165.87 553.984 202.065 C 553.785 220.558 563.193 232.263 575.879 244.335 C 663.912 202.63 735.381 152.867 833.208 135.681 C 824.134 120.929 820.169 103.014 829.689 87.8758 C 855.927 46.1537 919.933 53.8229 955.823 76.2699 C 993.753 99.9925 1012.81 134.83 1022.96 176.332 C 1028.28 153.905 1043.15 122.303 1058.16 104.758 C 1083.99 74.5677 1113.78 60.8943 1152.61 57.4292 z" fill="rgb(100,19,30)" transform="translate(0,0)"></path>
<path d="M 1163.67 152.564 C 1200.58 150.915 1248.42 162.981 1282.77 177.788 C 1252.64 175.354 1197.05 185.235 1179.76 213.455 C 1174.32 222.471 1172.73 233.291 1175.34 243.49 C 1179.35 259.392 1193.53 273.771 1207.14 281.671 C 1259.04 311.797 1317.49 279.72 1368.55 265.525 C 1407.48 254.706 1433.76 270.67 1466.2 290.264 C 1465.85 355.645 1494.29 422.083 1535.28 472.349 C 1585.03 533.349 1678.95 582.805 1758.05 583.016 C 1779.29 617.714 1792.93 656.427 1774.7 695.393 C 1763.35 719.657 1754.06 737.276 1751.27 765.015 C 1748.42 794.418 1755.91 830.092 1775.46 852.758 C 1822.81 907.674 1866.52 848.438 1870.51 798.644 C 1871.31 788.6 1871.13 779.081 1871.42 769.514 C 1874.36 782.933 1881.58 801.366 1885.34 815.286 C 1897.75 861.103 1901.66 905.934 1879.91 949.602 C 1862.96 984.341 1832.72 1010.78 1796.02 1022.92 C 1839.03 1040.36 1863 1061.99 1883.39 1104.61 C 1909.72 1159.64 1889.86 1229.25 1869.02 1283.07 C 1870.05 1246.03 1867.32 1202.57 1835.34 1178.08 C 1810.38 1160.07 1781.99 1183.8 1768.84 1203.96 C 1732.43 1259.79 1765.18 1314.79 1779.12 1370.84 C 1788.46 1408.39 1777.99 1440.44 1756.97 1471.99 C 1755.21 1471.72 1753.44 1471.5 1751.67 1471.35 C 1711.72 1467.96 1672.59 1482.11 1636.68 1498.24 C 1564.24 1530.77 1518 1576.82 1489.82 1651.74 C 1482.2 1672 1478.27 1693.47 1473.11 1714.4 C 1468.67 1731.15 1464.46 1758.52 1449.63 1769.29 C 1369.15 1827.67 1277.52 1703.93 1195.78 1771.78 C 1175.44 1788.66 1163.18 1816.93 1184.56 1838.6 C 1208.82 1863.2 1252.63 1869.31 1285.57 1870.24 C 1250.93 1883.03 1225.33 1891.7 1188 1895.69 C 1117.78 1903.2 1046.05 1871.58 1028.21 1798.51 C 1025.9 1789.06 1024.97 1780.23 1024.11 1770.43 C 1021 1793.25 1018.07 1811.07 1006.34 1831.36 C 980.02 1876.9 936.126 1893.22 886.47 1896.91 C 840.211 1897.93 800.376 1884.42 757.576 1868.96 C 781.18 1870.2 792.962 1870.79 816.495 1864.66 C 843.977 1857.49 884.838 1839.88 875.572 1804.39 C 871.008 1786.9 858.152 1773.79 842.848 1765.17 C 788.183 1734.36 731.173 1766.11 677.842 1782.5 C 637.45 1794.79 615.386 1778.76 580.902 1758.83 C 579.557 1744.31 579.555 1732.98 576.857 1718.01 C 567.023 1663.43 541.037 1606.55 503.065 1566 C 460.695 1520.75 398.672 1483.86 337.513 1472.88 C 321.462 1470 305.173 1469.8 288.916 1469.19 C 230.837 1380.28 287.554 1358.52 292.93 1268.1 C 294.185 1240.12 287.037 1212.34 267.949 1191.32 C 249.226 1170.71 226.971 1161.64 204.903 1184.1 C 178.308 1211.17 176.256 1244.21 176.013 1280.17 C 151.863 1215.98 135.097 1148.5 173.415 1086.97 C 196.05 1050.62 214.369 1038.79 252.457 1023.13 C 247.213 1021.36 242.055 1019.35 236.999 1017.1 C 198.789 999.998 173.708 967.939 159.11 929.343 C 139.579 877.704 157.018 808.684 179.377 760.014 C 162.998 835.647 223.583 930.055 283.272 834.785 C 313.657 786.288 274.444 721.852 266.622 672.434 C 260.911 636.351 271.679 613.474 288.669 581.591 C 292.077 581.8 295.492 581.861 298.906 581.775 C 367.876 579.471 457.038 531.117 504.823 481.155 C 549.81 434.119 577.969 357.598 575.85 292.252 C 599.426 278.347 648.546 256.952 675.415 265.94 C 734.782 285.8 806.761 318.189 861.031 266.814 C 878.954 249.848 885.254 220.299 861.653 203.307 C 834.533 183.782 795.336 175.655 762.14 178.81 C 776.271 172.725 791.18 167.386 805.84 162.736 C 891.27 135.64 1001.59 159.576 1024.22 257.823 C 1036.99 189.669 1098.93 156.474 1163.67 152.564 z" fill="rgb(253,253,245)" transform="translate(0,0)"></path>
<path d="M 994.095 314.236 C 1385.62 297.843 1716.31 601.949 1732.71 993.476 C 1749.1 1385 1445 1715.69 1053.47 1732.09 C 661.939 1748.49 331.245 1444.39 314.848 1052.85 C 298.452 661.321 602.562 330.629 994.095 314.236 z" fill="rgb(100,19,30)" transform="translate(0,0)"></path>
<path d="M 1009.42 335.497 C 1389.14 327.564 1703.41 628.902 1711.44 1008.61 C 1719.47 1388.32 1418.21 1702.67 1038.5 1710.79 C 658.654 1718.92 344.171 1417.53 336.142 1037.69 C 328.112 657.841 629.578 343.433 1009.42 335.497 z" fill="rgb(253,253,245)" transform="translate(0,0)"></path>
<path d="M 1010.07 357.495 C 1377.89 349.699 1682.26 641.82 1689.56 1009.65 C 1696.87 1377.48 1404.34 1681.46 1036.5 1688.28 C 669.349 1695.08 366.071 1403.22 358.779 1036.08 C 351.488 668.944 642.938 365.277 1010.07 357.495 z" fill="rgb(100,19,30)" transform="translate(0,0)"></path>
<path d="M 994.781 368.216 C 1356.97 351.922 1663.63 632.663 1679.31 994.881 C 1694.98 1357.1 1413.72 1663.28 1051.47 1678.33 C 690.103 1693.35 384.822 1412.91 369.187 1051.57 C 353.551 690.23 633.466 384.47 994.781 368.216 z" fill="rgb(253,253,245)" transform="translate(0,0)"></path>
<path d="M 992.914 1079.17 C 1010.69 1077.6 1026.13 1076.32 1043.61 1081.77 C 1089.42 1096.05 1117.9 1139.98 1134.5 1182.78 L 1139.4 1192 C 1147.66 1203.87 1151.47 1210.49 1156.86 1223.71 C 1159.26 1218.16 1163.68 1209.79 1170.72 1209.36 C 1175.81 1212.34 1176.34 1219.1 1175.27 1224.49 C 1181.05 1232.47 1196.77 1258.26 1195.77 1267.6 C 1187.83 1277.55 1166.69 1243.3 1162.75 1237.99 C 1167.42 1262.1 1172.67 1286.08 1178.51 1309.93 C 1181.48 1321.98 1185.94 1336.31 1188.14 1348.02 C 1180.81 1348.05 1172.12 1348.31 1164.95 1347.63 C 1167.83 1358.81 1169.54 1372.81 1173.21 1383.29 C 1192.43 1438.27 1218.8 1491.14 1240.75 1544.96 C 1243.74 1549.81 1245.04 1554.4 1246.84 1559.76 C 1243.41 1560.83 1236.92 1563.06 1233.62 1563.56 C 1220.98 1565.47 1199.79 1571.67 1187.1 1575.16 C 1184.31 1575.21 1180.41 1576.83 1176.41 1577.48 C 1173.29 1578.02 1174.73 1578.21 1171.93 1577.06 C 1169.09 1572.59 1168.75 1567.79 1167.81 1562.48 C 1162.2 1530.38 1152.85 1500.73 1134.68 1473.46 C 1123.27 1456.33 1113.77 1443.21 1104.41 1424.7 C 1096.16 1408.38 1095.16 1400.4 1089.71 1384.2 C 1087.52 1426.65 1065.87 1486.61 1053.45 1527.68 C 1050.91 1536.06 1041.09 1561.26 1040.71 1568.32 L 1039.71 1569.23 C 1038.28 1573.42 1033.81 1585.81 1033.17 1589.49 L 1032.23 1591.16 L 1030.97 1593.35 C 1026.34 1594.16 1019.19 1588.43 1017.12 1594.01 C 1013.78 1602.99 1014.96 1631.09 1016.05 1639.96 C 1012.32 1641.59 1008.71 1643.25 1004.87 1644.6 C 995.18 1643.54 987.119 1643.92 981.192 1635.22 C 978.247 1632.31 974.811 1632.54 971.006 1633.08 L 970.008 1634.54 C 945.575 1646.56 865.885 1624.31 909.138 1599.14 C 913.78 1598.07 914.133 1597.83 918.682 1598.69 C 924.92 1599.09 931.286 1598.25 937.528 1597.67 L 945.972 1595.84 C 951.407 1593.58 974.741 1587.16 975.982 1583.43 C 972.633 1579.71 969.324 1581.38 964.9 1577.54 C 963.564 1572.87 977.876 1531 980.286 1522.76 C 994.327 1474.61 1005.43 1425.64 1013.53 1376.14 C 1014.3 1371.64 1011.92 1370.74 1012.95 1365.93 C 1017.96 1342.44 1026.46 1318.49 1030.72 1295.05 C 1032.02 1283.45 1031.28 1271.52 1031.31 1259.84 C 1031.32 1255.68 1032.33 1241.44 1027.63 1240.53 C 1024.15 1244.66 1010.11 1276.1 1005.73 1283.76 C 995.457 1301.75 984.594 1318.82 973.712 1336.42 C 968.701 1332.54 959.799 1325.15 954.284 1322.98 L 953.878 1322.24 C 947.633 1320.47 925.736 1307.81 924.134 1300.7 C 923.395 1297.42 932.864 1283.06 935.093 1279.3 C 940.069 1270.41 943.868 1265.34 952.711 1259.81 L 953.327 1260.81 L 958.985 1257.11 C 959.407 1251.56 958.16 1246.81 956.882 1241.52 C 955.32 1235.34 954.769 1228.46 954.032 1222.07 L 951.093 1220.93 C 950.695 1211.21 952.903 1189.07 953.148 1176.93 C 951.761 1163.71 953.847 1153.23 957.295 1140.5 C 957.455 1138.85 958.082 1137.9 958.776 1136.26 L 959.952 1133.93 C 959.666 1131.29 959.612 1131.03 959.892 1128.42 C 964.524 1125.42 967.038 1124.31 969.45 1119.23 C 971.151 1118.38 971.353 1118.04 972.856 1116.83 C 973.818 1103 985.154 1091.31 994.097 1082.06 L 993.034 1081.33 L 992.914 1079.17 z" fill="rgb(60,10,15)" transform="translate(0,0)"></path>
<path d="M 1235.1 1544.24 L 1236.95 1541.49 L 1237.69 1542.2 C 1238.71 1543.17 1239.69 1544.03 1240.75 1544.96 C 1243.74 1549.81 1245.04 1554.4 1246.84 1559.76 C 1243.41 1560.83 1236.92 1563.06 1233.62 1563.56 C 1220.98 1565.47 1199.79 1571.67 1187.1 1575.16 C 1184.31 1575.21 1180.41 1576.83 1176.41 1577.48 C 1173.29 1578.02 1174.73 1578.21 1171.93 1577.06 C 1169.09 1572.59 1168.75 1567.79 1167.81 1562.48 L 1169.09 1557.28 C 1173.43 1558.17 1173.71 1558.36 1177.87 1557.25 L 1178.68 1555.44 C 1196.88 1551.19 1214.94 1548.26 1234.15 1543.58 L 1235.1 1544.24 z" fill="rgb(60,10,15)" transform="translate(0,0)"></path>
<path d="M 1234.15 1543.58 L 1235.1 1544.24 C 1225.3 1553.32 1189.38 1553.49 1177.87 1557.25 L 1178.68 1555.44 C 1196.88 1551.19 1214.94 1548.26 1234.15 1543.58 z" fill="rgb(253,253,245)" transform="translate(0,0)"></path>
<path d="M 1232.86 1555.61 L 1232.41 1557.92 C 1217.71 1560.41 1188.26 1570.41 1173.93 1569.21 C 1179.51 1566.95 1188.75 1566.02 1195.08 1564.54 C 1207.68 1561.59 1220.27 1558.59 1232.86 1555.61 z" fill="rgb(192,165,166)" transform="translate(0,0)"></path>
<path d="M 1232.86 1555.61 L 1234.85 1552.28 L 1236.43 1552.09 C 1236.32 1555.57 1236.78 1553.92 1234.53 1557.04 L 1232.41 1557.92 L 1232.86 1555.61 z" fill="rgb(132,91,94)" transform="translate(0,0)"></path>
<path d="M 1163.93 1348.48 L 1164.95 1347.63 C 1167.83 1358.81 1169.54 1372.81 1173.21 1383.29 C 1192.43 1438.27 1218.8 1491.14 1240.75 1544.96 C 1239.69 1544.03 1238.71 1543.17 1237.69 1542.2 L 1236.95 1541.49 L 1235.1 1544.24 L 1234.15 1543.58 C 1232.96 1541.45 1232.81 1540.82 1231.92 1538.53 C 1231.64 1534.41 1225.31 1520.91 1223.43 1516.68 C 1211.55 1483.41 1198.5 1457.8 1185.76 1426.26 C 1184.5 1421.77 1165.93 1375.61 1164.62 1374.26 C 1162.78 1369.05 1160.94 1355.95 1161.88 1350.4 L 1163.93 1348.48 z" fill="rgb(100,19,30)" transform="translate(0,0)"></path>
<path d="M 972.856 1116.83 C 978.043 1113.97 982.842 1112.41 988.83 1113.15 L 990.215 1114.6 C 987.721 1117.79 978.964 1112.98 971.548 1122.15 C 949.41 1149.53 963.028 1188.57 962.296 1222.98 L 961.557 1222.63 L 959.814 1213.39 L 958.571 1213.99 L 958.034 1220.82 L 957.265 1221.04 L 954.032 1222.07 L 951.093 1220.93 C 950.695 1211.21 952.903 1189.07 953.148 1176.93 C 951.761 1163.71 953.847 1153.23 957.295 1140.5 C 957.455 1138.85 958.082 1137.9 958.776 1136.26 L 959.952 1133.93 C 959.666 1131.29 959.612 1131.03 959.892 1128.42 C 964.524 1125.42 967.038 1124.31 969.45 1119.23 C 971.151 1118.38 971.353 1118.04 972.856 1116.83 z" fill="rgb(253,253,245)" transform="translate(0,0)"></path>
<path d="M 957.295 1140.5 C 957.602 1147.91 956.165 1160.25 956.122 1169.07 C 956.068 1180.11 960.327 1205.1 959.814 1213.39 L 958.571 1213.99 L 958.034 1220.82 L 957.265 1221.04 L 954.032 1222.07 L 951.093 1220.93 C 950.695 1211.21 952.903 1189.07 953.148 1176.93 C 951.761 1163.71 953.847 1153.23 957.295 1140.5 z" fill="rgb(100,19,30)" transform="translate(0,0)"></path>
<path d="M 953.148 1176.93 C 956.072 1185.07 957.131 1211.95 957.265 1221.04 L 954.032 1222.07 L 951.093 1220.93 C 950.695 1211.21 952.903 1189.07 953.148 1176.93 z" fill="rgb(253,253,245)" transform="translate(0,0)"></path>
<path d="M 1012.58 1577.35 C 1013.76 1575.03 1017.91 1561.52 1019.12 1557.95 C 1026.9 1565.76 1032.21 1564.79 1039.71 1569.23 C 1038.28 1573.42 1033.81 1585.81 1033.17 1589.49 C 1027.29 1586.44 1021.5 1583.28 1015.36 1580.82 L 1012.58 1577.35 z" fill="rgb(60,10,15)" transform="translate(0,0)"></path>
<path d="M 1221.76 1517.31 C 1215.9 1504.55 1204.51 1469.7 1197.74 1460.85 C 1179.37 1436.88 1155.47 1427.2 1143.78 1394.69 L 1144.33 1393.92 C 1146.57 1397.83 1151.69 1408.42 1153.68 1411.09 C 1164.47 1425.58 1180.56 1439.62 1193.93 1451.9 L 1184.59 1428.49 L 1185.76 1426.26 C 1198.5 1457.8 1211.55 1483.41 1223.43 1516.68 L 1221.76 1517.31 z" fill="rgb(215,197,197)" transform="translate(0,0)"></path>
<path d="M 1136 1222.96 L 1138.06 1221.12 C 1138.48 1232.8 1139.77 1244.32 1140.09 1255.91 C 1140.64 1283.99 1138.94 1312.07 1135.01 1339.88 C 1134.21 1345.51 1132.18 1359.35 1130.08 1363.74 C 1130.11 1355.58 1132.43 1342.49 1133.56 1334.04 C 1135.26 1321.21 1136.45 1308.31 1137.12 1295.39 C 1137.82 1281.58 1137.91 1267.74 1137.39 1253.92 C 1136.98 1244.53 1135.73 1232.02 1136 1222.96 z" fill="rgb(253,253,245)" transform="translate(0,0)"></path>
<path d="M 1048.16 1426.61 L 1049.26 1432.39 C 1042.75 1486.23 1037.43 1504.85 1019.65 1555.7 C 1027.96 1561.95 1033.41 1563.48 1040.71 1568.32 L 1039.71 1569.23 C 1032.21 1564.79 1026.9 1565.76 1019.12 1557.95 L 1017.95 1555.72 C 1018.99 1548.4 1030.87 1517.47 1033.61 1507.59 C 1041.55 1478.99 1044.65 1455.86 1048.16 1426.61 z" fill="rgb(192,165,166)" transform="translate(0,0)"></path>
<path d="M 935.093 1279.3 C 940.069 1270.41 943.868 1265.34 952.711 1259.81 L 953.327 1260.81 C 953.799 1266.37 959.188 1280.79 960.839 1287.8 C 957.794 1281.34 953.748 1268.87 950.804 1264.68 C 943.665 1264.83 928.14 1293.77 925.389 1300.74 C 934.081 1309.86 950.643 1317.3 953.878 1322.24 C 947.633 1320.47 925.736 1307.81 924.134 1300.7 C 923.395 1297.42 932.864 1283.06 935.093 1279.3 z" fill="rgb(171,140,144)" transform="translate(0,0)"></path>
<path d="M 956.635 1627.1 C 968.427 1629.26 987.558 1626.4 997.106 1632.64 C 990.741 1632.47 988.562 1631.52 982.652 1633.6 L 981.192 1635.22 C 978.247 1632.31 974.811 1632.54 971.006 1633.08 L 970.008 1634.54 C 967.365 1628.89 960.201 1629.49 954.229 1628.49 L 956.635 1627.1 z" fill="rgb(65,20,21)" transform="translate(0,0)"></path>
<path d="M 1164.62 1374.26 C 1165.93 1375.61 1184.5 1421.77 1185.76 1426.26 L 1184.59 1428.49 C 1177.03 1407.62 1170.56 1399.11 1164.62 1374.26 z" fill="rgb(132,91,94)" transform="translate(0,0)"></path>
<path d="M 957.265 1221.04 L 958.034 1220.82 C 957.673 1227.97 962.207 1261.92 960.977 1263.71 C 959.864 1260.83 959.629 1260.26 958.985 1257.11 C 959.407 1251.56 958.16 1246.81 956.882 1241.52 C 955.32 1235.34 954.769 1228.46 954.032 1222.07 L 957.265 1221.04 z" fill="rgb(215,197,197)" transform="translate(0,0)"></path>
<path d="M 1134.5 1182.78 L 1139.4 1192 L 1136.72 1192.98 C 1137.11 1197.42 1137.48 1200.79 1137.34 1205.28 L 1134.12 1210.16 C 1133.27 1211.87 1133.85 1211.23 1132.51 1212.18 C 1136.05 1195.72 1133.58 1200.26 1132.46 1185.47 L 1132.38 1184.21 L 1134.5 1182.78 z" fill="rgb(253,253,245)" transform="translate(0,0)"></path>
<path d="M 1134.5 1182.78 L 1139.4 1192 L 1136.72 1192.98 C 1135.3 1188.69 1134.9 1187.98 1132.38 1184.21 L 1134.5 1182.78 z" fill="rgb(72,25,23)" transform="translate(0,0)"></path>
<path d="M 945.972 1595.84 L 948.388 1600.14 C 947.58 1602.9 947.816 1603 945.717 1604.86 C 939.557 1606.12 937.393 1604.67 936.685 1598.84 L 937.528 1597.67 L 945.972 1595.84 z" fill="rgb(65,20,21)" transform="translate(0,0)"></path>
<path d="M 909.138 1599.14 C 913.78 1598.07 914.133 1597.83 918.682 1598.69 C 919.241 1604.25 919.765 1602.48 917.194 1606.52 C 913.832 1606.29 910.612 1603.82 910.732 1600.17 L 909.138 1599.14 z" fill="rgb(72,25,23)" transform="translate(0,0)"></path>
<path d="M 1163.93 1348.48 L 1161.88 1350.4 C 1154.07 1352.76 1147.38 1356.41 1138.43 1359.01 L 1138.76 1358.31 C 1148.18 1353.04 1153.45 1351.11 1163.93 1348.48 z" fill="rgb(117,70,78)" transform="translate(0,0)"></path>
<path d="M 1048.16 1426.61 C 1047.82 1419.65 1047.45 1412.47 1049.15 1405.67 C 1050.46 1412.38 1050.25 1425.52 1049.26 1432.39 L 1048.16 1426.61 z" fill="rgb(117,70,78)" transform="translate(0,0)"></path>
<path d="M 1223.43 1516.68 C 1225.31 1520.91 1231.64 1534.41 1231.92 1538.53 C 1228.71 1534.38 1224.01 1522.63 1221.76 1517.31 L 1223.43 1516.68 z" fill="rgb(171,140,144)" transform="translate(0,0)"></path>
<path d="M 1017.95 1555.72 L 1019.12 1557.95 C 1017.91 1561.52 1013.76 1575.03 1012.58 1577.35 C 1011.46 1572.02 1015.9 1561.12 1017.95 1555.72 z" fill="rgb(117,70,78)" transform="translate(0,0)"></path>
<path d="M 1015.36 1580.82 C 1021.5 1583.28 1027.29 1586.44 1033.17 1589.49 L 1032.23 1591.16 C 1030.04 1587.42 1021.58 1589.08 1015.36 1580.82 z" fill="rgb(215,197,197)" transform="translate(0,0)"></path>
<path d="M 1137.34 1205.28 C 1138.45 1212.11 1139.13 1214.21 1138.06 1221.12 L 1136 1222.96 C 1136.36 1218.17 1137.51 1213.71 1134.12 1210.16 L 1137.34 1205.28 z" fill="rgb(171,140,144)" transform="translate(0,0)"></path>
<path d="M 954.229 1628.49 C 948.156 1626.31 942.495 1626.24 937.424 1621.99 C 939.795 1621.46 953.337 1626.1 956.635 1627.1 L 954.229 1628.49 z" fill="rgb(132,91,94)" transform="translate(0,0)"></path>
<path d="M 1169.09 1557.28 C 1171.97 1555.7 1175.32 1555.76 1178.68 1555.44 L 1177.87 1557.25 C 1173.71 1558.36 1173.43 1558.17 1169.09 1557.28 z" fill="rgb(117,70,78)" transform="translate(0,0)"></path>
<path d="M 1031.87 1325.39 L 1033.36 1327.38 C 1028.84 1338.61 1024.43 1355.76 1022.62 1367.41 C 1042.24 1377.8 1074.79 1385.38 1096.83 1380.42 C 1106.47 1378.26 1115.5 1374.9 1124.73 1373.1 L 1125.74 1372.91 C 1090.12 1388.61 1076.56 1386.96 1037.95 1376.65 C 1032.1 1375.08 1023.84 1372.59 1020.95 1367.16 C 1020.12 1358.29 1028.7 1334.78 1031.87 1325.39 z" fill="rgb(253,253,245)" transform="translate(0,0)"></path>
<path d="M 1119.41 1201.96 C 1136.5 1168.38 1081.37 1105.28 1052.79 1092.17 C 1051.11 1091.4 1049.41 1090.65 1047.7 1089.92 C 1067.13 1092.29 1088.58 1119.17 1100.82 1132.9 C 1110.74 1144.04 1137.74 1190.8 1120.99 1202.93 L 1119.41 1201.96 z" fill="rgb(215,197,197)" transform="translate(0,0)"></path>
<path d="M 1033.28 1254.76 C 1037.53 1258.39 1042.56 1274.91 1043.71 1280.81 C 1045.63 1290.59 1045.55 1291.67 1040.37 1299.47 C 1042.14 1310.32 1045.6 1328.39 1042.64 1339.1 C 1041.61 1332.86 1038.36 1301.97 1038.68 1297.08 C 1046.88 1286.22 1041.62 1283.4 1038.16 1271.21 C 1036.6 1265.69 1034.78 1260.31 1033.28 1254.76 z" fill="rgb(215,197,197)" transform="translate(0,0)"></path>
<path d="M 1157.24 1236.77 C 1156.48 1235.83 1181.53 1336.02 1184.26 1345.32 C 1179.19 1341.8 1156.56 1245.56 1157.24 1236.77 z" fill="rgb(171,140,144)" transform="translate(0,0)"></path>
<path d="M 1127.4 1220.1 C 1127.58 1221.17 1127.44 1222.08 1126.6 1222.87 C 1108.46 1240.02 1063.95 1246.26 1041.75 1247.81 L 1041.63 1247.23 C 1042.82 1245.88 1060.75 1243.78 1064.1 1243.27 C 1087.25 1239.81 1108.45 1234.58 1127.4 1220.1 z" fill="rgb(192,165,166)" transform="translate(0,0)"></path>
<path d="M 1056.59 1280.52 C 1063.31 1294.63 1065.91 1297.7 1064.95 1313.08 C 1074.89 1307.49 1085.55 1301.62 1094.34 1294.36 C 1098.1 1291.26 1100.52 1287.61 1104.48 1284.32 C 1104.07 1294.17 1071.95 1312.04 1063.4 1315.79 C 1063.11 1299.68 1061.99 1296.94 1055.62 1282.22 L 1056.59 1280.52 z" fill="rgb(192,165,166)" transform="translate(0,0)"></path>
<path d="M 1119.41 1201.96 L 1120.99 1202.93 C 1109.37 1217.28 1087.59 1220.83 1070.2 1222.7 C 1069.08 1222.82 1067.96 1222.93 1066.84 1223.04 L 1069.63 1220.83 C 1071.22 1220.36 1077.81 1219.73 1080.31 1219.26 C 1097.22 1216.09 1106.63 1213.96 1119.41 1201.96 z" fill="rgb(171,140,144)" transform="translate(0,0)"></path>
<path d="M 1026.01 1240.1 C 1035.83 1230.24 1055.66 1221.2 1069.63 1220.83 L 1066.84 1223.04 C 1055.87 1224.05 1036.17 1234.87 1026.01 1240.1 z" fill="rgb(253,253,245)" transform="translate(0,0)"></path>
<path d="M 1107.74 1297.79 C 1107.54 1308.95 1089.76 1328.83 1080.97 1335.53 C 1081.07 1332.8 1089.01 1325.35 1091.5 1322.29 C 1097.93 1314.38 1102.67 1306.52 1107.74 1297.79 z" fill="rgb(171,140,144)" transform="translate(0,0)"></path>
<path d="M 1055.62 1282.22 C 1052.51 1276.6 1047.21 1264.46 1045.6 1258.51 C 1050.16 1266.38 1053.14 1272.11 1056.59 1280.52 L 1055.62 1282.22 z" fill="rgb(132,91,94)" transform="translate(0,0)"></path>
<path d="M 1038.71 1309.4 C 1037.08 1316.34 1035.71 1320.62 1033.36 1327.38 L 1031.87 1325.39 C 1034.01 1319.91 1035.95 1314.6 1038.71 1309.4 z" fill="rgb(192,165,166)" transform="translate(0,0)"></path>
<path d="M 1388.35 786.457 C 1417.44 786.828 1439.01 791.008 1464.76 806.068 C 1473.2 811.008 1480.92 816.8 1489.6 821.411 L 1490.83 822.057 C 1497.22 815.006 1503.7 803.639 1507.54 794.973 L 1523.19 794.92 C 1523.99 839.391 1523.35 885.04 1523.7 929.741 C 1517.92 929.762 1511.85 929.565 1506.05 929.469 C 1495.55 897.107 1484.16 860.553 1459.37 835.889 C 1442.23 818.606 1418.82 809.004 1394.48 809.276 C 1375.43 809.377 1355.1 816.827 1341.59 830.497 C 1330.35 841.861 1322.72 859.658 1323.04 875.738 C 1324.49 946.286 1402.74 958.384 1454.52 979.572 C 1477.36 988.716 1500.21 1000.52 1517.92 1017.76 C 1567.44 1065.97 1564.02 1147.82 1515.97 1195.85 C 1485.03 1226.77 1446.51 1238.53 1403.36 1238.94 C 1364.29 1237.33 1331.13 1229.39 1299.3 1205.44 C 1291.16 1211.58 1272.67 1232.63 1263.13 1229.19 C 1261.38 1223.76 1262.02 1190.59 1262.01 1183.12 L 1262.03 1089.38 L 1284.58 1086.94 C 1284.59 1087.33 1284.61 1087.73 1284.62 1088.12 C 1286.12 1125.67 1302.36 1161.12 1329.83 1186.77 C 1351.16 1206.44 1374.3 1216.43 1403.49 1215.01 C 1426.55 1213.88 1453.83 1204.01 1469.4 1186.47 C 1482.57 1171.82 1489.26 1152.48 1487.94 1132.83 C 1482.38 1049.73 1357.53 1051.4 1307.54 1003.18 C 1283.44 981.15 1270.86 957.979 1268.76 925.035 C 1263.71 845.733 1308.19 790.147 1388.35 786.457 z" fill="rgb(100,19,30)" transform="translate(0,0)"></path>
<path d="M 547.16 792.491 L 741.247 792.205 C 756.932 792.228 828.036 790.291 839.317 794.89 C 840.076 796.607 840.494 798.187 840.556 800.08 C 841.527 829.86 840.27 859.814 841 889.617 C 841.115 894.314 835.221 896.901 831.298 896.397 C 822.318 895.244 817.896 883.114 815.078 876.064 C 809.066 861.025 802.645 846.4 790.947 834.914 C 766.581 810.806 731.475 813.686 699.963 814.078 L 699.904 1068.76 L 699.74 1142.75 C 699.71 1153.51 699.096 1177.4 700.62 1185.23 C 706.973 1217.89 744.724 1211.48 766.153 1221.23 C 768.302 1222.21 767.939 1227.01 768.011 1229.69 C 766.956 1230.78 764.953 1232.62 763.355 1232.67 C 699.846 1234.61 635.884 1233.1 572.276 1233.35 C 568.174 1233.36 563.362 1232.3 559.932 1229.99 C 550.092 1209.5 600.438 1217.84 612.315 1202.97 C 627.088 1184.47 622.794 1166.77 622.83 1145.3 L 622.941 1071.94 L 622.841 814.307 C 601.286 813.431 573.951 812.499 554.078 820.925 C 528.663 831.701 519.439 857.281 510.304 881.125 C 507.008 888.431 505.81 896.668 497.704 900.04 C 491.718 902.53 482.165 901.068 482.399 893.171 C 483.288 863.164 482.676 832.948 483.109 802.883 C 483.15 800.063 483.583 796.822 485.248 794.496 C 493.887 791.1 535.965 792.485 547.16 792.491 z" fill="rgb(100,19,30)" transform="translate(0,0)"></path>
<path d="M 939.715 955.228 C 937.404 920.234 941.368 881.549 936.737 845.853 C 929.718 791.738 853.362 825.584 862.405 795.239 C 868.538 790.628 899.628 792.171 909.153 792.204 L 975.096 792.433 L 1054.85 792.657 C 1087.73 792.895 1112.87 791.983 1144.72 802.324 C 1203.73 821.482 1225.68 878.408 1217.99 936.435 C 1209.28 1003.24 1149.65 1041.21 1085.89 1043.73 C 1070.96 1044.44 1055.66 1044.01 1040.69 1043.89 L 1040.62 1018.98 C 1064.97 1019.14 1094.96 1016.06 1113.23 997.659 C 1149.93 960.705 1143.75 874.718 1108.55 838.786 C 1084.9 814.648 1053.41 814.691 1022.16 814.967 L 1015.17 815.034 L 1014.4 997.828 C 1014.18 1018.17 1015.3 1042.24 1014.18 1062.13 C 1005.92 1065.42 996.479 1068.05 988.835 1071.46 C 989.128 1060.78 990.112 1042.1 987.339 1032.36 L 984.628 1030.84 C 995.585 1008.65 991.492 970.142 966.955 958.581 C 957.521 954.136 949.671 954.775 939.715 955.228 z" fill="rgb(100,19,30)" transform="translate(0,0)"></path>
<path d="M 903.444 1188.04 C 917.345 1182.15 937.948 1176.79 953.148 1176.93 C 952.903 1189.07 950.695 1211.21 951.093 1220.93 L 954.032 1222.07 C 954.769 1228.46 955.32 1235.34 956.882 1241.52 C 958.16 1246.81 959.407 1251.56 958.985 1257.11 L 953.327 1260.81 L 952.711 1259.81 C 943.868 1265.34 940.069 1270.41 935.093 1279.3 C 932.864 1283.06 923.395 1297.42 924.134 1300.7 C 925.736 1307.81 947.633 1320.47 953.878 1322.24 L 954.284 1322.98 C 947.1 1335.94 932.675 1348.35 924.584 1362.45 C 917.623 1374.57 918.042 1392.27 911.981 1400.15 L 911.352 1400.26 L 911.16 1396.98 C 909.13 1402.37 906.841 1404.86 903.375 1409.34 L 904.02 1409.8 C 906.103 1407.81 907.778 1405.94 910.178 1404.41 C 908.626 1408.78 907.389 1409.54 904.038 1412.99 C 898.207 1414.2 895.274 1414.51 889.893 1417.22 C 905.819 1420.13 931.691 1413.84 947.429 1410.08 C 915.649 1427.41 865.665 1440.55 830.147 1441.12 C 802.66 1441.55 774.693 1445.21 747.625 1445.6 C 764.206 1437.9 780.878 1429.7 797.445 1422.17 C 788.279 1412.85 785.047 1410.25 791.261 1397.52 C 795.982 1382.3 836.417 1354.98 848.201 1376.96 C 850.455 1378 850.491 1377.85 853.02 1377.98 L 853.763 1376.6 C 849.952 1351.88 853.153 1314.59 852.276 1288.77 C 851.951 1279.24 852.958 1267.29 851.446 1257.91 C 849.917 1254.4 849.656 1251.16 848.961 1247.68 C 848.815 1246.95 845.983 1247.64 843.955 1244.55 C 845.523 1241.3 846.648 1239.62 848.642 1236.58 C 845.754 1236.28 845.526 1236.57 843.342 1234.81 L 843.386 1232.4 L 844.662 1228.89 C 843.047 1226.45 842.854 1224.67 842.019 1221.78 C 842.954 1218.62 843.913 1215.47 844.897 1212.33 C 848.42 1207.86 853.601 1209.68 857.4 1206.21 C 856.254 1203.29 855.53 1202.07 855.58 1198.9 C 860.007 1194.72 865.182 1198.95 868.932 1202.27 C 878.191 1210.47 893.652 1206.7 905.149 1205.18 C 905.185 1197.75 903.409 1193.5 903.444 1188.04 z" fill="rgb(253,253,245)" transform="translate(0,0)"></path>
<path d="M 933.257 1275.71 L 935.093 1279.3 C 932.864 1283.06 923.395 1297.42 924.134 1300.7 C 925.736 1307.81 947.633 1320.47 953.878 1322.24 L 954.284 1322.98 C 947.1 1335.94 932.675 1348.35 924.584 1362.45 C 917.623 1374.57 918.042 1392.27 911.981 1400.15 L 911.352 1400.26 L 911.16 1396.98 C 909.13 1402.37 906.841 1404.86 903.375 1409.34 L 904.02 1409.8 C 906.103 1407.81 907.778 1405.94 910.178 1404.41 C 908.626 1408.78 907.389 1409.54 904.038 1412.99 C 898.207 1414.2 895.274 1414.51 889.893 1417.22 C 905.819 1420.13 931.691 1413.84 947.429 1410.08 C 915.649 1427.41 865.665 1440.55 830.147 1441.12 C 802.66 1441.55 774.693 1445.21 747.625 1445.6 C 764.206 1437.9 780.878 1429.7 797.445 1422.17 C 788.279 1412.85 785.047 1410.25 791.261 1397.52 C 795.982 1382.3 836.417 1354.98 848.201 1376.96 L 847.171 1379.58 C 850.682 1380.22 852.862 1380.32 855.863 1382.28 C 856.173 1384.29 856.371 1383.5 855.836 1384.73 L 859.24 1384.73 C 861.144 1387.76 860.934 1387.71 863.822 1389.74 C 866.204 1391.42 868.237 1391.7 871.054 1392.43 L 872.645 1393.24 C 876.001 1381.72 888.634 1382.32 877.712 1367.68 C 875.901 1354.92 892.405 1356.2 898.81 1354.76 C 907.435 1352.83 921.549 1326.55 925.963 1319.4 C 923.206 1310.85 921.267 1305.05 919.654 1296.3 C 922.896 1289.96 929.035 1281.74 933.257 1275.71 z" fill="rgb(60,10,15)" transform="translate(0,0)"></path>
<path d="M 791.261 1397.52 C 795.982 1382.3 836.417 1354.98 848.201 1376.96 L 847.171 1379.58 C 850.682 1380.22 852.862 1380.32 855.863 1382.28 C 856.173 1384.29 856.371 1383.5 855.836 1384.73 L 859.24 1384.73 C 861.144 1387.76 860.934 1387.71 863.822 1389.74 C 866.204 1391.42 868.237 1391.7 871.054 1392.43 C 866.91 1394.82 866.081 1394.42 863.959 1397.94 C 864.5 1402.17 868.746 1404.26 869.978 1411.15 C 870.799 1414.27 870.643 1414.29 872.451 1416.89 L 871.768 1418.1 L 871.289 1418.19 C 861.538 1420.11 802.962 1425.56 798.349 1422.3 L 797.445 1422.17 C 788.279 1412.85 785.047 1410.25 791.261 1397.52 z" fill="rgb(60,10,15)" transform="translate(0,0)"></path>
<path d="M 791.261 1397.52 C 795.982 1382.3 836.417 1354.98 848.201 1376.96 L 847.171 1379.58 C 839.731 1380.69 833.832 1376.17 822.312 1379.22 L 819.61 1378.02 C 811.29 1383.42 806.929 1387.76 801.528 1396.23 C 798.213 1401.42 798.27 1409.57 794.78 1411.72 L 793.749 1411.38 L 791.536 1409.37 C 789.628 1405.36 791.325 1403.54 791.288 1399.27 L 791.261 1397.52 z" fill="rgb(100,19,30)" transform="translate(0,0)"></path>
<path d="M 793.749 1411.38 C 797.571 1394.81 808.842 1373.29 828.632 1372.59 C 832.319 1372.46 841.251 1372.17 843.239 1375.89 C 836.082 1377.98 831.313 1372.04 819.61 1378.02 C 811.29 1383.42 806.929 1387.76 801.528 1396.23 C 798.213 1401.42 798.27 1409.57 794.78 1411.72 L 793.749 1411.38 z" fill="rgb(253,253,245)" transform="translate(0,0)"></path>
<path d="M 798.349 1422.3 C 814.216 1420.28 850.901 1419.07 868.36 1416.57 C 869.336 1417.11 870.312 1417.65 871.289 1418.19 C 861.538 1420.11 802.962 1425.56 798.349 1422.3 z" fill="rgb(215,197,197)" transform="translate(0,0)"></path>
<path d="M 822.312 1379.22 C 833.832 1376.17 839.731 1380.69 847.171 1379.58 C 850.682 1380.22 852.862 1380.32 855.863 1382.28 C 856.173 1384.29 856.371 1383.5 855.836 1384.73 C 853.298 1383.86 850.833 1383.12 848.266 1382.35 C 839.17 1381.09 831.629 1379.34 822.46 1379.99 L 822.312 1379.22 z" fill="rgb(215,197,197)" transform="translate(0,0)"></path>
<path d="M 822.46 1379.99 C 831.629 1379.34 839.17 1381.09 848.266 1382.35 C 844.564 1384.58 841.625 1383.73 837.161 1383.34 C 831.243 1382.12 830.091 1381.97 824.073 1382.25 L 822.46 1379.99 z" fill="rgb(65,20,21)" transform="translate(0,0)"></path>
<path d="M 824.073 1382.25 C 830.091 1381.97 831.243 1382.12 837.161 1383.34 C 833.208 1386.27 825.613 1384.04 817.962 1385.89 L 817.445 1384.77 L 824.073 1382.25 z" fill="rgb(215,197,197)" transform="translate(0,0)"></path>
<path d="M 817.962 1385.89 C 814.908 1388.81 813.412 1390.68 809.64 1392.39 L 809.323 1391.51 C 812.46 1387.82 813.306 1387.36 817.445 1384.77 L 817.962 1385.89 z" fill="rgb(132,91,94)" transform="translate(0,0)"></path>
<path d="M 899.608 1378.59 C 903.637 1375.84 904.109 1374.02 906.521 1369.55 C 907.43 1376.99 908.208 1384.14 909.698 1391.49 L 911.16 1396.98 C 909.13 1402.37 906.841 1404.86 903.375 1409.34 L 904.02 1409.8 C 906.103 1407.81 907.778 1405.94 910.178 1404.41 C 908.626 1408.78 907.389 1409.54 904.038 1412.99 C 898.207 1414.2 895.274 1414.51 889.893 1417.22 L 887.773 1416.26 L 887.806 1414.64 C 898.234 1411.03 890.433 1404.66 902.084 1399.96 C 902.787 1393.97 900.227 1387.47 901.101 1380.08 L 899.608 1378.59 z" fill="rgb(65,20,21)" transform="translate(0,0)"></path>
<path d="M 882.668 1388.61 C 881.715 1393.4 879.434 1396.47 878.197 1401.12 C 876.311 1404.63 875.039 1405.4 875.487 1408.54 L 877.97 1410.09 C 874.681 1410.78 872.621 1410.66 869.978 1411.15 C 868.746 1404.26 864.5 1402.17 863.959 1397.94 C 866.081 1394.42 866.91 1394.82 871.054 1392.43 L 872.645 1393.24 C 871.151 1395.3 869.834 1396.42 868.035 1398.21 C 867.349 1401.81 867.221 1400.01 869.032 1403.71 L 870.673 1404.06 C 873.824 1401.64 878.453 1393.01 882.668 1388.61 z" fill="rgb(253,253,245)" transform="translate(0,0)"></path>
<path d="M 899.608 1378.59 C 902.029 1373.75 902.587 1372.37 903.129 1367 C 905.408 1367.43 908.379 1371.31 910.366 1373.39 C 910.373 1379.82 910.479 1385.09 909.698 1391.49 C 908.208 1384.14 907.43 1376.99 906.521 1369.55 C 904.109 1374.02 903.637 1375.84 899.608 1378.59 z" fill="rgb(253,253,245)" transform="translate(0,0)"></path>
<path d="M 882.668 1388.61 C 884.824 1387.06 890.195 1384.58 893.078 1382.79 C 891.788 1385.49 880.606 1399.66 878.197 1401.12 C 879.434 1396.47 881.715 1393.4 882.668 1388.61 z" fill="rgb(117,70,78)" transform="translate(0,0)"></path>
<path d="M 877.97 1410.09 C 879.445 1410.37 882.69 1410.88 883.973 1411.28 C 880.044 1413.13 876.314 1414.89 872.451 1416.89 C 870.643 1414.29 870.799 1414.27 869.978 1411.15 C 872.621 1410.66 874.681 1410.78 877.97 1410.09 z" fill="rgb(65,20,21)" transform="translate(0,0)"></path>
<path d="M 872.451 1416.89 C 876.314 1414.89 880.044 1413.13 883.973 1411.28 C 882.287 1415.33 876.034 1418.29 871.768 1418.1 L 872.451 1416.89 z" fill="rgb(215,197,197)" transform="translate(0,0)"></path>
<path d="M 920.673 1340.3 L 921.318 1341.35 C 921.495 1345.75 918.762 1349.98 915.933 1353.32 L 915.024 1353.22 L 911.333 1350.72 L 911.464 1348.35 C 913.28 1345.59 913.559 1345.55 916.036 1343.51 L 920.673 1340.3 z" fill="rgb(65,20,21)" transform="translate(0,0)"></path>
<path d="M 921.318 1341.35 C 921.495 1345.75 918.762 1349.98 915.933 1353.32 L 915.024 1353.22 C 916.066 1348.77 918.806 1345.27 921.318 1341.35 z" fill="rgb(171,140,144)" transform="translate(0,0)"></path>
<path d="M 904.66 1354.09 L 905.3 1355.15 C 901.48 1358.73 900.24 1361.23 895.875 1361.68 C 894.305 1360.47 894.363 1360.43 893.023 1358.96 C 894.998 1357.14 901.692 1355.26 904.66 1354.09 z" fill="rgb(215,197,197)" transform="translate(0,0)"></path>
<path d="M 916.036 1343.51 C 922.21 1335.68 921.557 1334 929.091 1326.62 C 926.365 1331.42 924.011 1335.89 920.673 1340.3 L 916.036 1343.51 z" fill="rgb(215,197,197)" transform="translate(0,0)"></path>
<path d="M 885.716 1359.45 L 887.341 1360.22 C 887.172 1363.26 885.368 1364.12 882.776 1367.05 L 881.349 1366.25 C 882.011 1362.73 882.995 1362.64 885.716 1359.45 z" fill="rgb(253,253,245)" transform="translate(0,0)"></path>
<path d="M 891.35 1396.67 C 892.123 1400.54 892.248 1398.66 890.762 1402.49 L 889.718 1402.23 C 888.988 1400.04 889.956 1399.53 891.35 1396.67 z" fill="rgb(117,70,78)" transform="translate(0,0)"></path>
<path d="M 903.444 1188.04 C 917.345 1182.15 937.948 1176.79 953.148 1176.93 C 952.903 1189.07 950.695 1211.21 951.093 1220.93 L 951.313 1223.19 C 949.778 1227.97 948.977 1230.56 944.276 1232.88 C 934.051 1237.93 921.583 1239.63 910.623 1242.88 C 910.458 1239.7 910.228 1236.53 909.934 1233.36 C 908.685 1227.99 908.906 1226.78 909.089 1221.13 C 909.351 1213.97 907.882 1198.28 908.916 1193.98 L 910.262 1192.63 C 907.437 1191.71 907.015 1190.84 904.923 1188.69 L 903.444 1188.04 z" fill="rgb(60,10,15)" transform="translate(0,0)"></path>
<path d="M 908.916 1193.98 C 911.67 1200.61 911.841 1210.08 912.086 1217.31 L 910.565 1213.23 L 910.358 1214.52 C 909.982 1216.73 909.559 1218.94 909.089 1221.13 C 909.351 1213.97 907.882 1198.28 908.916 1193.98 z" fill="rgb(171,140,144)" transform="translate(0,0)"></path>
<path d="M 904.923 1188.69 C 911.049 1190.27 917.842 1191.09 918.844 1198.67 C 914.46 1197.03 914.516 1194.15 910.262 1192.63 C 907.437 1191.71 907.015 1190.84 904.923 1188.69 z" fill="rgb(215,197,197)" transform="translate(0,0)"></path>
<path d="M 909.089 1221.13 C 909.559 1218.94 909.982 1216.73 910.358 1214.52 L 910.565 1213.23 L 912.086 1217.31 C 911.581 1222.43 911.228 1228.47 909.934 1233.36 C 908.685 1227.99 908.906 1226.78 909.089 1221.13 z" fill="rgb(253,253,245)" transform="translate(0,0)"></path>
<path d="M 903.444 1188.04 L 904.923 1188.69 C 907.015 1190.84 907.437 1191.71 910.262 1192.63 L 908.916 1193.98 C 907.882 1198.28 909.351 1213.97 909.089 1221.13 C 908.906 1226.78 908.685 1227.99 909.934 1233.36 C 910.228 1236.53 910.458 1239.7 910.623 1242.88 C 907.984 1243.03 909.217 1243.21 906.946 1241.99 C 904.89 1237.96 904.616 1232.66 904.003 1228.03 L 902.223 1228.56 C 894.736 1235.1 892.703 1238.14 882.163 1236.85 C 882.435 1233.79 882.2 1233.51 881.759 1230.49 C 877.595 1224.68 873.138 1220.57 865.892 1222.88 C 864.394 1222.09 854.588 1220.49 852.223 1220.07 L 848.011 1219.13 L 847.213 1220.46 L 844.565 1224.25 C 843.729 1223.46 842.784 1222.62 842.019 1221.78 C 842.954 1218.62 843.913 1215.47 844.897 1212.33 C 848.42 1207.86 853.601 1209.68 857.4 1206.21 C 856.254 1203.29 855.53 1202.07 855.58 1198.9 C 860.007 1194.72 865.182 1198.95 868.932 1202.27 C 878.191 1210.47 893.652 1206.7 905.149 1205.18 C 905.185 1197.75 903.409 1193.5 903.444 1188.04 z" fill="rgb(65,20,21)" transform="translate(0,0)"></path>
<path d="M 879.252 1214.15 C 887.81 1215.57 890.376 1217.59 896.629 1223.77 C 896.532 1225.56 896.305 1224.69 897.572 1226.3 L 898.859 1225.37 L 899.163 1222.45 L 901.394 1221.81 C 902.52 1224.13 902.24 1225.96 902.223 1228.56 C 894.736 1235.1 892.703 1238.14 882.163 1236.85 C 882.435 1233.79 882.2 1233.51 881.759 1230.49 C 877.595 1224.68 873.138 1220.57 865.892 1222.88 C 864.394 1222.09 854.588 1220.49 852.223 1220.07 C 857.512 1216.37 857.339 1219.98 860.497 1214.02 C 864.135 1216.19 866.818 1218.33 870.949 1218.66 C 871.819 1218.17 873.273 1217.42 874.037 1216.87 L 879.252 1214.15 z" fill="rgb(60,10,15)" transform="translate(0,0)"></path>
<path d="M 894.718 1212.01 C 888.151 1212.17 877.874 1212.83 871.952 1210.08 C 869.053 1208.73 866.941 1206.03 863.474 1205.13 L 864.822 1209.39 L 863.562 1209.92 C 861.763 1207.6 859.117 1202.83 859.431 1199.77 C 862.803 1200.24 872.32 1207.6 875.824 1210.05 L 891.704 1209.89 L 894.718 1212.01 z" fill="rgb(192,165,166)" transform="translate(0,0)"></path>
<path d="M 891.704 1209.89 C 895.236 1208.98 899.732 1207.25 902.953 1208.39 C 906.159 1212.83 903.92 1220.73 904.003 1228.03 L 902.223 1228.56 C 902.24 1225.96 902.52 1224.13 901.394 1221.81 L 899.163 1222.45 C 898.374 1219.43 900.3 1218.33 901.431 1213.61 C 898.633 1211.49 899.02 1212.2 894.718 1212.01 L 891.704 1209.89 z" fill="rgb(215,197,197)" transform="translate(0,0)"></path>
<path d="M 860.497 1214.02 C 856.161 1214.36 852.653 1214.73 848.278 1214.53 L 847.352 1213.73 C 855.169 1210.71 867.734 1210.67 874.037 1216.87 C 873.273 1217.42 871.819 1218.17 870.949 1218.66 C 866.818 1218.33 864.135 1216.19 860.497 1214.02 z" fill="rgb(253,253,245)" transform="translate(0,0)"></path>
<path d="M 879.252 1214.15 C 888.425 1214.39 893.682 1213.93 896.629 1223.77 C 890.376 1217.59 887.81 1215.57 879.252 1214.15 z" fill="rgb(215,197,197)" transform="translate(0,0)"></path>
<path d="M 847.213 1220.46 L 848.011 1219.13 L 852.223 1220.07 C 854.588 1220.49 864.394 1222.09 865.892 1222.88 C 873.138 1220.57 877.595 1224.68 881.759 1230.49 C 882.2 1233.51 882.435 1233.79 882.163 1236.85 L 879.631 1237.83 C 877.586 1243.92 882.611 1243.43 876.601 1247.27 C 873.882 1249 866.595 1250.31 864.221 1251.56 C 859.724 1251.07 861.471 1250.41 858.508 1252.73 C 856.899 1258 857.973 1261 857.639 1266.22 L 856.416 1266.83 C 856.217 1261.94 855.951 1257.05 855.619 1252.17 L 853.926 1251.01 L 852.779 1251.74 L 853.413 1253.2 L 851.446 1257.91 C 849.917 1254.4 849.656 1251.16 848.961 1247.68 C 848.815 1246.95 845.983 1247.64 843.955 1244.55 C 845.523 1241.3 846.648 1239.62 848.642 1236.58 C 845.754 1236.28 845.526 1236.57 843.342 1234.81 L 843.386 1232.4 L 844.662 1228.89 C 843.047 1226.45 842.854 1224.67 842.019 1221.78 C 842.784 1222.62 843.729 1223.46 844.565 1224.25 L 847.213 1220.46 z" fill="rgb(72,25,23)" transform="translate(0,0)"></path>
<path d="M 847.213 1220.46 L 848.011 1219.13 L 852.223 1220.07 C 854.588 1220.49 864.394 1222.09 865.892 1222.88 C 873.138 1220.57 877.595 1224.68 881.759 1230.49 L 879.24 1234.35 C 876.225 1233.85 877.651 1234.22 874.86 1231.24 C 870.422 1232.97 869.863 1232.88 866.125 1230.62 L 864.218 1232.92 C 855.91 1230.82 852.063 1230.99 843.386 1232.4 L 844.662 1228.89 C 843.047 1226.45 842.854 1224.67 842.019 1221.78 C 842.784 1222.62 843.729 1223.46 844.565 1224.25 L 847.213 1220.46 z" fill="rgb(100,19,30)" transform="translate(0,0)"></path>
<path d="M 844.662 1228.89 C 850.325 1228.56 860.834 1228.55 866.125 1230.62 L 864.218 1232.92 C 855.91 1230.82 852.063 1230.99 843.386 1232.4 L 844.662 1228.89 z" fill="rgb(215,197,197)" transform="translate(0,0)"></path>
<path d="M 847.213 1220.46 L 848.011 1219.13 L 852.223 1220.07 C 854.588 1220.49 864.394 1222.09 865.892 1222.88 L 865.273 1224.34 C 860.683 1224.23 851.105 1222.8 847.213 1220.46 z" fill="rgb(192,165,166)" transform="translate(0,0)"></path>
<path d="M 866.125 1230.62 C 869.863 1232.88 870.422 1232.97 874.86 1231.24 L 874.423 1237.27 C 870.59 1240.32 865.221 1240.27 861.54 1236.98 C 863.166 1235.42 863.422 1235.02 864.218 1232.92 L 866.125 1230.62 z" fill="rgb(65,20,21)" transform="translate(0,0)"></path>
<path d="M 853.413 1253.2 L 852.779 1251.74 L 853.926 1251.01 L 855.619 1252.17 C 855.951 1257.05 856.217 1261.94 856.416 1266.83 C 856.857 1290.6 854.477 1366.01 859.075 1382.67 L 859.24 1384.73 L 855.836 1384.73 C 856.371 1383.5 856.173 1384.29 855.863 1382.28 C 852.862 1380.32 850.682 1380.22 847.171 1379.58 L 848.201 1376.96 C 850.455 1378 850.491 1377.85 853.02 1377.98 L 853.763 1376.6 C 849.952 1351.88 853.153 1314.59 852.276 1288.77 C 851.951 1279.24 852.958 1267.29 851.446 1257.91 L 853.413 1253.2 z" fill="rgb(215,197,197)" transform="translate(0,0)"></path>
<path d="M 853.413 1253.2 C 855.552 1279.39 850.612 1368.34 858.726 1383.15 L 859.075 1382.67 L 859.24 1384.73 L 855.836 1384.73 C 856.371 1383.5 856.173 1384.29 855.863 1382.28 C 852.862 1380.32 850.682 1380.22 847.171 1379.58 L 848.201 1376.96 C 850.455 1378 850.491 1377.85 853.02 1377.98 L 853.763 1376.6 C 849.952 1351.88 853.153 1314.59 852.276 1288.77 C 851.951 1279.24 852.958 1267.29 851.446 1257.91 L 853.413 1253.2 z" fill="rgb(132,91,94)" transform="translate(0,0)"></path>
<path d="M 856.416 1266.83 L 857.639 1266.22 C 857.963 1269.16 857.706 1272.26 859.272 1274.01 L 861.909 1273.99 C 861.972 1295.54 861.907 1317.09 861.714 1338.63 C 861.429 1354.89 858.409 1373.13 864.549 1388.14 L 863.822 1389.74 C 860.934 1387.71 861.144 1387.76 859.24 1384.73 L 859.075 1382.67 C 854.477 1366.01 856.857 1290.6 856.416 1266.83 z" fill="rgb(100,19,30)" transform="translate(0,0)"></path>
<path d="M 857.639 1266.22 C 857.973 1261 856.899 1258 858.508 1252.73 C 861.471 1250.41 859.724 1251.07 864.221 1251.56 L 861.972 1254.06 L 861.909 1273.99 L 859.272 1274.01 C 857.706 1272.26 857.963 1269.16 857.639 1266.22 z" fill="rgb(187,107,111)" transform="translate(0,0)"></path>
<path d="M 859.272 1274.01 C 860.687 1268.43 858.833 1259.45 860.943 1253.92 L 861.972 1254.06 L 861.909 1273.99 L 859.272 1274.01 z" fill="rgb(72,25,23)" transform="translate(0,0)"></path>
<path d="M 953.681 1244.6 L 956.882 1241.52 C 958.16 1246.81 959.407 1251.56 958.985 1257.11 L 953.327 1260.81 L 952.711 1259.81 L 951.088 1256.09 C 953.292 1251.42 953.604 1249.68 953.681 1244.6 z" fill="rgb(60,10,15)" transform="translate(0,0)"></path>
<path d="M 933.257 1275.71 C 939.451 1265.68 945.628 1264.13 951.088 1256.09 L 952.711 1259.81 C 943.868 1265.34 940.069 1270.41 935.093 1279.3 L 933.257 1275.71 z" fill="rgb(100,19,30)" transform="translate(0,0)"></path>
<path d="M 951.093 1220.93 L 954.032 1222.07 C 954.769 1228.46 955.32 1235.34 956.882 1241.52 L 953.681 1244.6 C 952.952 1241.02 951.861 1227.65 951.313 1223.19 L 951.093 1220.93 z" fill="rgb(100,19,30)" transform="translate(0,0)"></path>
<path d="M 864.2 1016.72 C 883.413 995.414 944.165 966.6 968.87 990.598 C 973.22 996.357 980.498 1005.13 975.937 1012.43 C 971.661 1019.43 966.644 1022.67 960.123 1027.35 C 962.683 1034.08 966.07 1041.6 969.89 1047.7 L 971.545 1049.99 C 970.182 1055.63 970.086 1057.41 969.862 1063.25 L 970.738 1063.96 C 979.545 1071.16 981.842 1077.89 992.914 1079.17 L 993.034 1081.33 L 994.097 1082.06 C 985.154 1091.31 973.818 1103 972.856 1116.83 C 971.353 1118.04 971.151 1118.38 969.45 1119.23 C 967.038 1124.31 964.524 1125.42 959.892 1128.42 C 959.612 1131.03 959.666 1131.29 959.952 1133.93 L 958.776 1136.26 C 955.334 1133.97 951.915 1131.65 948.519 1129.3 C 942.357 1129.08 938.598 1129.12 932.513 1127.67 C 929.927 1132.14 929.778 1133.01 925.226 1135 C 921.822 1134.08 921.06 1133.79 919.364 1130.31 C 911.092 1120.96 910.474 1129.99 903.486 1116.07 L 900.943 1115.85 C 899.401 1115.7 898.301 1115.58 896.735 1115.53 L 895.6 1115.51 C 892.746 1111.85 893.733 1106.52 893.773 1101.26 C 887.068 1092.24 890.698 1090.12 882.267 1079.9 C 872.499 1084.92 870.189 1088.6 862.939 1096.86 C 866.164 1086.66 869.638 1080.89 874.578 1071.53 C 874.095 1069.19 873.544 1066.87 872.927 1064.56 C 871.431 1059.17 869.052 1057.39 864.287 1054.67 C 835.574 1051.48 852.349 1029.17 864.2 1016.72 z" fill="rgb(60,10,15)" transform="translate(0,0)"></path>
<path d="M 864.2 1016.72 C 869.247 1017.75 867.164 1017.85 872.011 1016 L 872.917 1020.73 C 871.66 1023.31 867.416 1031.4 865.423 1033.5 C 862.943 1039.66 862.417 1043.13 860.534 1048.18 C 862.794 1049.21 864.655 1050.1 866.878 1051.26 L 866.885 1052.77 L 864.287 1054.67 C 835.574 1051.48 852.349 1029.17 864.2 1016.72 z" fill="rgb(72,25,23)" transform="translate(0,0)"></path>
<path d="M 860.534 1048.18 C 858.242 1043.24 860.593 1035.91 865.423 1033.5 C 862.943 1039.66 862.417 1043.13 860.534 1048.18 z" fill="rgb(192,165,166)" transform="translate(0,0)"></path>
<path d="M 867.716 1019.12 C 868.477 1020.73 868.423 1019.77 866.977 1021.55 C 859.851 1030.32 855.593 1033.19 854.342 1044.8 C 849.021 1035.95 861.495 1024.08 867.716 1019.12 z" fill="rgb(215,197,197)" transform="translate(0,0)"></path>
<path d="M 919.078 1115.06 C 923.746 1114.19 926.496 1115.37 933.696 1113.88 C 932.598 1119.12 931.065 1121.87 932.619 1126.26 L 932.513 1127.67 C 929.927 1132.14 929.778 1133.01 925.226 1135 C 921.822 1134.08 921.06 1133.79 919.364 1130.31 C 922.123 1121.09 924.556 1126.21 919.078 1115.06 z" fill="rgb(60,10,15)" transform="translate(0,0)"></path>
<path d="M 872.011 1016 C 889.42 1002.21 922.752 982.989 945.887 987.122 C 920.462 990.944 889.272 998.956 872.917 1020.73 L 872.011 1016 z" fill="rgb(192,165,166)" transform="translate(0,0)"></path>
<path d="M 903.486 1116.07 L 909.356 1113.96 L 910.465 1114.71 L 910.312 1120.32 C 913.057 1120.03 913.204 1116.56 919.078 1115.06 C 924.556 1126.21 922.123 1121.09 919.364 1130.31 C 911.092 1120.96 910.474 1129.99 903.486 1116.07 z" fill="rgb(65,20,21)" transform="translate(0,0)"></path>
<path d="M 968.87 990.598 C 973.22 996.357 980.498 1005.13 975.937 1012.43 C 973.347 1009.99 973.215 1011.6 969.568 1008.89 C 968.798 1007.41 965.579 994.93 965.416 992.92 L 968.87 990.598 z" fill="rgb(100,19,30)" transform="translate(0,0)"></path>
<path d="M 969.568 1008.89 C 968.798 1007.41 965.579 994.93 965.416 992.92 C 970.302 997.978 970.616 1002.07 969.568 1008.89 z" fill="rgb(132,91,94)" transform="translate(0,0)"></path>
<path d="M 993.034 1081.33 L 994.097 1082.06 C 985.154 1091.31 973.818 1103 972.856 1116.83 C 971.353 1118.04 971.151 1118.38 969.45 1119.23 C 972.511 1107.32 981.459 1086.82 993.034 1081.33 z" fill="rgb(171,140,144)" transform="translate(0,0)"></path>
<path d="M 931.96 1088.4 C 938.416 1100.83 938.06 1113.53 932.619 1126.26 C 931.065 1121.87 932.598 1119.12 933.696 1113.88 C 934.404 1103.11 933.999 1099.09 931.96 1088.4 z" fill="rgb(215,197,197)" transform="translate(0,0)"></path>
<path d="M 945.115 1110.8 C 949.674 1105.9 960.195 1102.8 965.061 1109.29 C 962.814 1115.75 958.233 1118.01 951.672 1119.74 C 950.904 1122.12 950.76 1121.98 948.876 1123.7 L 947.109 1123.44 C 942.966 1118.85 944.019 1116.15 945.115 1110.8 z" fill="rgb(60,10,15)" transform="translate(0,0)"></path>
<path d="M 945.115 1110.8 C 949.674 1105.9 960.195 1102.8 965.061 1109.29 L 963.687 1108.97 C 954.596 1106.43 952.573 1109.81 945.115 1110.8 z" fill="rgb(215,197,197)" transform="translate(0,0)"></path>
<path d="M 963.687 1108.97 L 965.061 1109.29 C 962.814 1115.75 958.233 1118.01 951.672 1119.74 C 954.417 1115.13 959.557 1115.55 963.687 1108.97 z" fill="rgb(117,70,78)" transform="translate(0,0)"></path>
<path d="M 964.859 1007.97 C 964.064 1020.78 905.072 1034.95 892.907 1044.48 C 889.974 1046.78 873.542 1053.57 869.643 1054.43 C 869.836 1051.57 873.876 1051.04 876.825 1049.56 C 896.9 1039.48 916.904 1030.45 938.145 1023.03 C 947.513 1019.76 958.902 1016.23 964.859 1007.97 z" fill="rgb(215,197,197)" transform="translate(0,0)"></path>
<path d="M 906.293 1090.61 C 908.745 1092.16 908.864 1092.99 909.617 1095.57 C 908.593 1099.99 904.528 1103.58 901.367 1107.32 C 899.34 1108.48 900.417 1108.32 898.135 1107.78 C 896.865 1101.47 902.429 1095.2 906.293 1090.61 z" fill="rgb(72,25,23)" transform="translate(0,0)"></path>
<path d="M 1233.62 1563.56 L 1234.65 1565.06 C 1243.31 1565.43 1246.09 1575.57 1250.02 1582.39 C 1253.68 1588.75 1259.4 1597.17 1259.53 1604.53 C 1253.16 1620.43 1234.4 1617.7 1220.82 1622.48 C 1217.11 1623.78 1212.81 1629.7 1209.05 1631.47 C 1187.99 1641.38 1153.31 1648.12 1138.51 1625.3 C 1144.61 1615.34 1146.15 1612.66 1157.66 1609.13 C 1173.87 1607.37 1178.7 1601.42 1190.99 1597.69 C 1202.91 1578.58 1192.8 1577.58 1176.41 1577.48 C 1180.41 1576.83 1184.31 1575.21 1187.1 1575.16 C 1199.79 1571.67 1220.98 1565.47 1233.62 1563.56 z" fill="rgb(60,10,15)" transform="translate(0,0)"></path>
<path d="M 1190.99 1597.69 C 1189.83 1599.45 1190.18 1599.3 1188.61 1600.54 L 1191.5 1601.82 L 1192.51 1601.27 L 1192.49 1599.49 C 1195.23 1598.92 1193.81 1598.99 1197.11 1600.78 L 1198 1602.62 C 1191.2 1606.03 1192.39 1600.69 1181.24 1609.53 C 1176.66 1612.08 1173.09 1612.99 1167.7 1612.47 L 1166.83 1613.18 C 1163.28 1614.02 1162.53 1614.5 1159.18 1613.04 L 1157.66 1609.13 C 1173.87 1607.37 1178.7 1601.42 1190.99 1597.69 z" fill="rgb(72,25,23)" transform="translate(0,0)"></path>
<path d="M 1167.7 1612.47 C 1171.5 1609.07 1176.49 1607.67 1181.24 1609.53 C 1176.66 1612.08 1173.09 1612.99 1167.7 1612.47 z" fill="rgb(253,253,245)" transform="translate(0,0)"></path>
<path d="M 1233.62 1563.56 L 1234.65 1565.06 C 1227.34 1567.15 1193.2 1576.3 1187.1 1575.16 C 1199.79 1571.67 1220.98 1565.47 1233.62 1563.56 z" fill="rgb(215,197,197)" transform="translate(0,0)"></path>
<path d="M 984.628 1030.84 L 987.339 1032.36 C 982.481 1038.19 976.924 1044.66 971.545 1049.99 L 969.89 1047.7 C 975.894 1042.09 980.026 1037.59 984.628 1030.84 z" fill="rgb(142,43,39)" transform="translate(0,0)"></path>
<path d="M 1711.7 607.723 C 1735.13 601.406 1759.23 615.292 1765.52 638.725 C 1771.81 662.157 1757.89 686.246 1734.45 692.505 C 1711.05 698.752 1687.02 684.866 1680.74 661.475 C 1674.46 638.084 1688.32 614.029 1711.7 607.723 z" fill="rgb(100,19,30)" transform="translate(0,0)"></path>
<path d="M 1718.34 622.227 C 1723.99 621.754 1728.71 621.827 1733.95 624.303 C 1741.21 627.757 1746.77 633.991 1749.37 641.596 C 1755.05 658.107 1745.65 670.046 1730.26 675.125 C 1716.37 675.678 1703.99 669.873 1698.64 656.306 C 1696.14 650.101 1696.34 643.137 1699.18 637.081 C 1703.09 628.69 1710.05 625.004 1718.34 622.227 z" fill="rgb(253,253,245)" transform="translate(0,0)"></path>
<path d="M 1393.45 282.397 C 1416.73 278.115 1439.09 293.439 1443.5 316.691 C 1447.91 339.943 1432.7 362.389 1409.47 366.923 C 1386.07 371.491 1363.41 356.146 1358.97 332.715 C 1354.53 309.285 1370 286.712 1393.45 282.397 z" fill="rgb(100,19,30)" transform="translate(0,0)"></path>
<path d="M 1401.69 295.244 C 1428.51 295.872 1447.4 342.799 1406.48 351.355 C 1392.88 349.779 1380.77 342.588 1377.45 328.53 C 1375.8 321.797 1376.93 314.683 1380.59 308.798 C 1385.47 300.979 1393.03 297.249 1401.69 295.244 z" fill="rgb(253,253,245)" transform="translate(0,0)"></path>
<path d="M 638.237 1681.03 C 661.705 1677.32 683.734 1693.34 687.434 1716.81 C 691.134 1740.28 675.103 1762.3 651.632 1766 C 628.174 1769.68 606.166 1753.66 602.468 1730.21 C 598.77 1706.75 614.782 1684.74 638.237 1681.03 z" fill="rgb(100,19,30)" transform="translate(0,0)"></path>
<path d="M 638.943 1697.14 C 648.367 1695.08 658.166 1698.26 664.59 1705.46 C 671.013 1712.65 673.065 1722.75 669.959 1731.88 C 666.854 1741.01 659.072 1747.76 649.594 1749.55 C 635.225 1752.26 621.344 1742.92 618.432 1728.59 C 615.52 1714.26 624.656 1700.25 638.943 1697.14 z" fill="rgb(253,253,245)" transform="translate(0,0)"></path>
<path d="M 315.964 603.651 C 339.169 598.65 362.014 613.482 366.887 636.715 C 371.761 659.947 356.802 682.71 333.543 687.455 C 310.465 692.163 287.918 677.346 283.082 654.294 C 278.247 631.243 292.939 608.614 315.964 603.651 z" fill="rgb(100,19,30)" transform="translate(0,0)"></path>
<path d="M 318.906 619.529 C 333.099 615.867 347.555 624.487 351.078 638.716 C 354.601 652.945 345.839 667.315 331.576 670.698 C 317.51 674.035 303.381 665.419 299.907 651.387 C 296.432 637.354 304.908 623.142 318.906 619.529 z" fill="rgb(253,253,245)" transform="translate(0,0)"></path>
<path d="M 318.505 1361.46 C 341.826 1358.37 363.232 1374.79 366.289 1398.11 C 369.346 1421.44 352.894 1442.82 329.563 1445.84 C 306.283 1448.85 284.96 1432.45 281.91 1409.17 C 278.86 1385.9 295.235 1364.55 318.505 1361.46 z" fill="rgb(100,19,30)" transform="translate(0,0)"></path>
<path d="M 322.296 1377.52 C 336.707 1376.54 349.163 1387.47 350.056 1401.89 C 350.949 1416.3 339.937 1428.69 325.515 1429.5 C 311.218 1430.29 298.96 1419.4 298.075 1405.11 C 297.19 1390.82 308.01 1378.49 322.296 1377.52 z" fill="rgb(253,253,245)" transform="translate(0,0)"></path>
<path d="M 641.404 283.176 C 664.558 281.872 684.48 299.376 686.166 322.505 C 687.851 345.635 670.677 365.842 647.579 367.908 C 632.295 369.276 617.462 362.295 608.774 349.646 C 600.086 336.997 598.895 320.646 605.657 306.872 C 612.419 293.097 626.083 284.039 641.404 283.176 z" fill="rgb(100,19,30)" transform="translate(0,0)"></path>
<path d="M 636.496 301.216 C 645.388 298.581 655.009 300.99 661.611 307.503 C 668.213 314.017 670.75 323.605 668.235 332.531 C 665.72 341.458 658.55 348.311 649.519 350.42 C 636.11 353.551 622.641 345.453 619.117 332.141 C 615.594 318.83 623.293 305.129 636.496 301.216 z" fill="rgb(253,253,245)" transform="translate(0,0)"></path>
<path d="M 1719.46 1361.92 C 1742.48 1359.53 1763.15 1376.06 1765.9 1399.04 C 1768.65 1422.02 1752.45 1442.95 1729.52 1446.06 C 1714.36 1448.11 1699.27 1441.84 1690.04 1429.64 C 1680.8 1417.44 1678.86 1401.22 1684.96 1387.18 C 1691.05 1373.15 1704.24 1363.5 1719.46 1361.92 z" fill="rgb(100,19,30)" transform="translate(0,0)"></path>
<path d="M 1719.47 1380.76 C 1732.83 1378.1 1745.83 1386.72 1748.58 1400.05 C 1751.34 1413.39 1742.83 1426.45 1729.52 1429.31 C 1723.77 1430.55 1717.78 1429.7 1712.6 1426.92 C 1703.37 1421.98 1698.25 1411.77 1699.79 1401.42 C 1701.33 1391.07 1709.21 1382.8 1719.47 1380.76 z" fill="rgb(253,253,245)" transform="translate(0,0)"></path>
<path d="M 1395.52 1680.1 C 1418.41 1675.86 1440.39 1691.02 1444.55 1713.93 C 1448.72 1736.84 1433.48 1758.77 1410.56 1762.86 C 1387.75 1766.93 1365.94 1751.78 1361.79 1728.98 C 1357.65 1706.17 1372.73 1684.31 1395.52 1680.1 z" fill="rgb(100,19,30)" transform="translate(0,0)"></path>
<path d="M 1396.89 1697.45 C 1405.56 1695.14 1414.79 1697.7 1421.03 1704.14 C 1427.27 1710.58 1429.54 1719.89 1426.96 1728.48 C 1424.37 1737.06 1417.34 1743.58 1408.58 1745.5 C 1395.45 1748.39 1382.42 1740.26 1379.24 1727.2 C 1376.06 1714.13 1383.9 1700.92 1396.89 1697.45 z" fill="rgb(253,253,245)" transform="translate(0,0)"></path>
<path d="M 1740.19 1481.43 L 1750.38 1482.12 C 1711.77 1554.2 1630.87 1638.49 1567.42 1690.14 C 1543.27 1709.8 1504.76 1736.74 1478.75 1754.01 C 1475.16 1755.91 1475.1 1756.82 1472.13 1756.09 C 1471.72 1752.45 1478.82 1734.66 1479.98 1728.23 C 1490.21 1671.04 1507.8 1616.02 1548.55 1572.71 C 1594.92 1523.43 1672.55 1484.73 1740.19 1481.43 z" fill="rgb(253,253,245)" transform="translate(0,0)"></path>
<path d="M 1478.13 294.788 C 1500.11 306.485 1524.14 323.786 1543.79 338.795 C 1614.21 392.049 1675.45 456.457 1725.09 529.471 C 1733.22 541.526 1744.99 558.964 1751.36 571.845 C 1658.11 565.04 1563.3 510.11 1517.62 427.687 C 1493.87 384.832 1477.4 345.102 1478.13 294.788 z" fill="rgb(253,253,245)" transform="translate(0,0)"></path>
<path d="M 294.287 1477.9 C 443.244 1486.98 560.652 1601.58 570.192 1751.45 C 555.81 1745.45 528.128 1726.33 514.976 1717.04 C 447.807 1668.83 388.541 1610.47 339.299 1544.06 C 324.005 1523.44 308.56 1499.42 294.287 1477.9 z" fill="rgb(253,253,245)" transform="translate(0,0)"></path>
<path d="M 563.459 299.884 C 567.312 303.552 563.16 326.304 562.285 332.593 C 555.715 379.802 536.303 428.38 505.339 465.165 C 463.97 514.312 399.818 548.71 337.876 564.47 C 325.113 567.594 310.327 568.897 297.236 570.149 L 296.292 568.899 C 297.774 563.591 320.413 530.703 324.618 524.697 C 390.658 430.373 466.107 360.215 563.459 299.884 z" fill="rgb(253,253,245)" transform="translate(0,0)"></path>
<path d="M 1763.93 1483.59 C 1769.46 1484.2 1772.46 1485.2 1777.7 1486.74 C 1757.59 1529.34 1710.2 1585.33 1677.68 1620.86 C 1619.45 1684.46 1537.5 1747.25 1462.5 1790.02 C 1442.62 1801.35 1417.54 1810.31 1397.1 1820.61 C 1360.94 1838.85 1325.46 1857.79 1283.98 1859.6 C 1252.3 1860.99 1214.94 1853.18 1190.82 1831.29 C 1169.18 1804.54 1199.07 1775.33 1224.04 1766.25 C 1291.36 1741.77 1351.39 1807.8 1419.26 1793.88 C 1447.77 1788.03 1477.08 1764.74 1502.28 1750.14 C 1583.04 1697.23 1653.71 1632.95 1712.9 1556.64 C 1730.85 1533.49 1747.16 1507.88 1763.93 1483.59 z" fill="rgb(253,253,245)" transform="translate(0,0)"></path>
<path d="M 277.602 1478.41 C 279.128 1478.25 280.713 1477.71 281.372 1478.62 C 289.231 1489.41 299.752 1505.91 306.865 1516.54 C 356.492 1590.7 420.982 1660.78 492.751 1713.92 C 521.293 1735.05 599.515 1787.63 633.221 1795.61 C 701.063 1807.11 762.091 1737.12 831.245 1770.23 C 852.097 1780.21 876.944 1801.27 863.995 1827.29 C 862.21 1829.39 860.331 1831.41 858.362 1833.34 C 839.009 1852.05 800.303 1861.12 774.214 1860.62 C 697.227 1859.14 543.892 1768.88 483.162 1724.08 C 450.116 1699.7 416.67 1670.4 388.381 1640.58 C 347.658 1597.64 311.397 1550.67 280.155 1500.41 C 277.649 1496.36 269.575 1484.75 269.68 1480.79 C 272.219 1478.2 272.933 1478.99 277.602 1478.41 z" fill="rgb(253,253,245)" transform="translate(0,0)"></path>
<path d="M 1266.4 187.415 C 1320.31 183.714 1373.42 217.623 1420.91 239.357 C 1441.66 248.849 1462.54 255.805 1482.52 267.233 C 1527.86 293.167 1567.03 324.619 1606.67 358.305 C 1678.99 419.773 1733.96 493.021 1782.98 573.697 C 1777.45 573.912 1771.62 573.687 1766.06 573.583 C 1753.72 552.725 1740.56 532.363 1726.61 512.544 C 1688.65 457.215 1626.17 389.069 1573.09 348.208 C 1526.82 314.382 1462.08 258.495 1403.82 251.961 C 1340.2 244.826 1266.85 316.905 1203.83 267.913 C 1188.9 256.312 1173.54 232.496 1190 215.545 C 1209.85 195.098 1239.15 189.557 1266.4 187.415 z" fill="rgb(253,253,245)" transform="translate(0,0)"></path>
<path d="M 771.056 187.413 C 796.089 186.009 830.165 194.288 851.317 208.134 C 858.592 212.896 865.887 219.73 867.433 228.687 C 869.06 238.118 864.312 247.56 858.675 254.802 C 848.03 268.479 832.431 277.439 815.742 281.456 C 744.985 298.485 700.007 247.189 647.763 254.271 C 604.717 260.107 566.92 282.853 531.553 306.669 C 453.978 358.907 385.77 423.857 329.802 498.785 C 312.982 521.502 298.114 545.028 282.763 568.742 C 278.529 567.862 273.322 566.237 269.078 565.042 C 274.791 553.879 281.425 543.754 288.462 533.444 C 365.758 420.259 470.276 316.84 594.094 255.692 C 647.882 229.129 711.09 194.269 771.056 187.413 z" fill="rgb(253,253,245)" transform="translate(0,0)"></path>
<path d="M 1812.08 1182.11 C 1834.42 1181.1 1846.26 1204.05 1852.7 1222.22 C 1861.2 1246.24 1859.41 1270.79 1857.7 1295.58 C 1854.94 1335.61 1836.48 1368.25 1818.51 1402.98 C 1806.6 1426.42 1795.04 1450.8 1783.41 1474.64 L 1782.6 1475.58 C 1779.25 1476.23 1772.3 1473.84 1768.63 1472.84 C 1792.81 1437.96 1801.45 1393.27 1787.06 1352.82 C 1771.04 1307.76 1748.05 1257.82 1775.29 1211.9 C 1784.07 1197.09 1794.87 1186.45 1812.08 1182.11 z" fill="rgb(253,253,245)" transform="translate(0,0)"></path>
<path d="M 1772.21 583.482 C 1777.3 583.036 1783.49 582.884 1788.68 582.632 C 1797.27 598.448 1799.79 615.235 1807.02 629.65 C 1835.31 686.055 1874.21 751.463 1857.03 816.786 C 1851.75 836.825 1843.27 851.878 1824.41 862.654 C 1800.29 873.829 1779.26 843.783 1770.52 825.154 C 1756.23 794.704 1757.34 760.145 1770.62 729.585 C 1777.05 714.773 1785.12 700.964 1789.44 685.32 C 1797.75 658.269 1793.88 627.798 1780.93 602.839 C 1778.5 598.144 1773.25 588.374 1772.21 583.482 z" fill="rgb(253,253,245)" transform="translate(0,0)"></path>
<path d="M 265.354 573.38 C 268.776 575.329 273.412 577.318 277.064 579.022 C 250.022 627.143 244.233 660.873 266.182 712.718 C 282.237 750.64 296.61 801.819 269.954 838.693 C 259.536 853.104 248.604 862.359 230.4 865.439 C 189.331 860.779 182.199 787.941 188.245 757.2 C 192.964 730.086 205.718 705.304 215.687 680.014 C 230.395 642.705 247.276 608.984 265.354 573.38 z" fill="rgb(253,253,245)" transform="translate(0,0)"></path>
<path d="M 228.858 1182.13 C 248.147 1181.69 263.4 1197.71 271.959 1213.58 C 287.874 1243.1 284.478 1283.1 274.95 1314.07 C 267.036 1339.79 252.824 1364.58 251.297 1391.98 C 249.87 1421.23 263.818 1446.97 277.302 1471.72 L 266.278 1474.94 C 263.052 1469.96 254.751 1452.78 251.792 1446.93 C 235.924 1415.54 221.099 1383.63 208.337 1350.83 C 202.177 1335.27 193.019 1318.08 189.157 1301.94 C 181.039 1268.01 186.049 1192.05 228.858 1182.13 z" fill="rgb(253,253,245)" transform="translate(0,0)"></path>
<path d="M 1028.49 1850.49 C 1032.33 1852.84 1040.86 1863.34 1044.46 1867.21 C 1080.22 1905.58 1144.06 1921.68 1194.69 1913.77 C 1199.23 1916.73 1203.36 1920.27 1206.97 1924.31 C 1221.44 1940.72 1215.34 1954.11 1200.67 1966.71 C 1192.18 1972.97 1182.45 1977.35 1172.13 1979.56 C 1145.91 1985.09 1113.25 1976.98 1091.52 1961.9 C 1050.3 1933.3 1037.81 1896.64 1028.49 1850.49 z" fill="rgb(253,253,245)" transform="translate(0,0)"></path>
<path d="M 1017.55 1851.8 C 1018.38 1867.84 1006.04 1898.86 999.18 1913.62 C 975.163 1965.24 898.463 2003.6 846.718 1967.48 C 845.978 1966.73 845.249 1965.98 844.53 1965.21 C 826.619 1946.04 830.874 1929.89 849.051 1913.76 C 920.188 1922.97 970.359 1905.05 1017.55 1851.8 z" fill="rgb(253,253,245)" transform="translate(0,0)"></path>
<path d="M 1144.54 68.3732 C 1165.81 64.9622 1196.68 73.1059 1210.34 90.5729 C 1222.45 106.053 1212.41 123.883 1198.04 133.316 C 1149.94 132.14 1112.2 134.407 1069.78 161.055 C 1053.11 171.921 1042.01 182.211 1030.07 197.884 C 1034.04 175.628 1037.17 160.105 1047.21 139.649 C 1066.8 99.7245 1100.22 73.8486 1144.54 68.3732 z" fill="rgb(253,253,245)" transform="translate(0,0)"></path>
<path d="M 888.383 68.4042 C 910.538 65.5267 941.708 77.2645 959.455 90.3471 C 995.255 116.738 1008.8 150.849 1015.9 192.972 C 1006.42 181.475 998.479 174.831 986.452 166.285 C 946.935 139.559 897.233 128.899 850.042 133.832 C 834.353 120.636 826.416 106.527 841.24 88.0007 C 853.135 73.1362 870.573 70.1088 888.383 68.4042 z" fill="rgb(253,253,245)" transform="translate(0,0)"></path>
<path d="M 1934.17 833.252 C 1939.66 832.402 1944.28 832.355 1949.34 834.823 C 1985.87 852.629 1983.83 909.101 1969.8 939.875 C 1953.54 975.543 1924.81 992.702 1890.26 1005.53 C 1876.52 1010.39 1868.5 1012.67 1854.16 1015.1 C 1889.56 988.449 1910.65 940.353 1913.39 896.75 C 1915.06 870.309 1905.97 847.892 1934.17 833.252 z" fill="rgb(253,253,245)" transform="translate(0,0)"></path>
<path d="M 1855.14 1031.15 C 1923.23 1044.12 1986.59 1091.89 1979.13 1167.95 C 1977.82 1181.25 1972.97 1190.5 1965.38 1201.21 C 1957.91 1209.71 1953.51 1212.26 1943.13 1215.44 C 1928.16 1212.43 1920.27 1208.33 1913.68 1194.15 C 1914.25 1182.23 1915.53 1170.78 1915.49 1158.79 C 1915.36 1118.86 1897.41 1076.51 1870.87 1046.96 C 1865.94 1041.48 1860.46 1036.33 1855.14 1031.15 z" fill="rgb(253,253,245)" transform="translate(0,0)"></path>
<path d="M 186.617 1033.14 L 189.057 1033.29 C 188.908 1034.77 169.949 1056.93 166.922 1061.03 C 159.341 1071.33 152.72 1082.3 147.142 1093.8 C 133.608 1121.65 128.07 1151.69 132.254 1182.4 C 135.31 1204.83 122.661 1211.16 102.888 1215.44 C 94.96 1212.9 91.5392 1210.68 85.4779 1205.28 C 45.927 1164.21 77.4107 1087.41 119.753 1061.46 C 146.949 1044.79 155.69 1040.66 186.617 1033.14 z" fill="rgb(253,253,245)" transform="translate(0,0)"></path>
<path d="M 100.084 835.112 C 115.574 833.497 121.4 841.079 132.144 850.558 C 128.859 928.068 140.565 953.071 189.05 1013.01 C 180.829 1011.36 172.905 1009.31 164.789 1007.26 C 159.779 1005.83 154.827 1004.21 149.943 1002.4 C 118.611 990.991 92.903 971.556 78.6002 940.779 C 63.9327 909.216 62.5592 851.662 100.084 835.112 z" fill="rgb(253,253,245)" transform="translate(0,0)"></path>
<metadata><recraft-signature>{"signed_by": "recraft", "signature_b64": "hlF9r6zTkk0OWn6ENI0fFSlebsmYcn82e+vJ4fSsh8W6K8XkxgOgwC9KT0WiSaS3jSHU6NXaWrLj7OIeiE1VAw==", "signing_algo": "Ed25519", "generation_timestamp": 1772546088, "identifier": "a18b57a9-a7d7-48c1-8b1b-acac784e41fe"}</recraft-signature></metadata></svg>