<svg xmlns="http://www.w3.org/2000/svg" height="1024" preserveAspectRatio="none" style="display: block;" version="1.1" viewBox="0 0 2048 2048" width="1024">
<path d="M 0 0 L 2048 0 L 2048 2048 L 0 2048 L 0 0 z" fill="rgb(32,40,53)" transform="translate(0,0)"></path>
<path d="M 1145.64 643.407 C 1159.62 641.975 1175.88 640.353 1184.28 653.969 C 1238.49 741.89 1295.6 830.874 1332.36 927.826 C 1356.32 990.994 1353.03 1063.42 1342.24 1128.97 C 1372.31 1126.1 1418.54 1132.86 1448.51 1137.86 C 1486.37 1144.18 1535.45 1157.5 1568.94 1176.22 C 1588.05 1186.9 1616.96 1215.7 1632.83 1231.43 C 1654.16 1252.34 1675.04 1273.71 1695.45 1295.52 C 1744.38 1347.16 1783.35 1390.18 1849.18 1419.77 C 1854.34 1412.92 1855.67 1411.41 1861.97 1405.7 C 1891.93 1412.67 1940.33 1438.87 1969.94 1451.94 C 1981.68 1457.12 1997.44 1465.31 2008.69 1471.63 C 2012.75 1473.92 2015.02 1476.35 2015.87 1480.86 C 2014.58 1483.52 2014.66 1483.32 2012.13 1484.89 C 2006.94 1483.94 1977.88 1467.76 1970.11 1464.2 C 1938.69 1449.82 1898.96 1428.35 1866.38 1417.86 L 1864.87 1417.38 C 1858.45 1423.94 1849.53 1436.22 1843.72 1443.67 C 1802.9 1495.96 1771.42 1556.09 1744.62 1616.56 C 1738.74 1631.14 1731.27 1645.86 1729.4 1661.58 C 1728.19 1671.71 1739.26 1676.42 1747 1680.49 C 1824.87 1721.47 1891.49 1779.6 1949.75 1845.08 C 1968.88 1866.2 1987.19 1888.05 2004.64 1910.59 C 2008.97 1916.17 2020.94 1929.1 2020.58 1935.26 C 2018.5 1938.07 2018.66 1938.24 2015.25 1939.46 C 2010.74 1938.02 1985.13 1903.77 1980.39 1897.95 C 1958.76 1871.29 1936.06 1845.5 1912.36 1820.66 C 1868.27 1774.65 1825.1 1741.35 1771.73 1706.81 C 1734.26 1683.88 1707.99 1687.2 1724.63 1637.33 C 1683.55 1623.39 1660.9 1621.78 1620.72 1612.3 C 1552.84 1596.16 1488.42 1567.92 1430.55 1528.93 C 1447.34 1579.03 1480.85 1648.58 1517.88 1686.43 C 1544.76 1679.49 1617.46 1664.04 1635.18 1693.17 C 1652.03 1724.11 1601.75 1758.82 1579.54 1771.22 C 1520 1804.48 1441.46 1835.53 1372.65 1824.47 C 1357.1 1821.98 1339.77 1805.23 1346.33 1789.15 C 1359.74 1756.31 1406.6 1732.3 1437.15 1716.57 C 1437.02 1669.03 1414.9 1602.49 1395.33 1558.63 C 1355.55 1564.42 1284.51 1542.84 1277.9 1496.25 C 1275.63 1480.22 1281.19 1468.47 1290.41 1456.32 C 1263.16 1440.59 1229.75 1414.75 1227.28 1380.54 C 1226.25 1366.69 1230.7 1353 1239.65 1342.39 C 1196 1311.73 1197.28 1275.35 1232.62 1238.72 C 1198.19 1220.64 1171.63 1211.38 1139.4 1187.25 C 1033.94 1108.29 1010.72 1007.62 980.462 886.702 C 972.248 854.259 964.66 821.661 957.701 788.926 C 954.646 774.621 950.397 756.825 948.382 742.545 C 950.158 738.513 952.486 734.747 955.299 731.356 C 993.166 685.052 1086.29 649.509 1145.64 643.407 z" fill="rgb(250,221,139)" transform="translate(0,0)"></path>
<path d="M 1340.5 1140.04 C 1381.83 1138.67 1427.08 1144 1467.46 1152.82 C 1494.57 1158.75 1535.14 1170.58 1559.16 1183.73 C 1580.94 1195.65 1609.38 1223.97 1627.26 1241.69 C 1645.24 1259.32 1662.95 1277.23 1680.36 1295.41 C 1716.2 1333.06 1750.71 1373.18 1794.85 1401.46 C 1810.43 1411.45 1825.16 1421.06 1842.67 1427.56 C 1803.84 1469.31 1747.62 1574.51 1728.25 1627.78 C 1702.98 1615 1638.08 1605.9 1606.27 1597.34 C 1536.26 1578.5 1488.72 1550.85 1427.29 1514.25 C 1426.16 1512.24 1425.46 1510.44 1424.56 1508.32 C 1426.28 1502.6 1430.59 1505.89 1431.79 1499.46 C 1428.61 1488.36 1417.61 1475.05 1412.53 1463.45 C 1409 1455.39 1405.03 1446.82 1402.47 1438.41 C 1398.67 1425.92 1402.46 1419.53 1392.74 1408.17 C 1381.78 1395.36 1368.93 1353.03 1362.2 1334.63 C 1410.96 1354.96 1437.35 1367.89 1476.63 1404.88 C 1473.71 1412.46 1472.31 1421.81 1471.08 1429.78 C 1470.74 1437.27 1470.58 1444.76 1470.62 1452.25 C 1470.73 1460.53 1472.39 1493.47 1484.32 1493.05 C 1485.82 1491.71 1487.97 1488.64 1487.46 1486.82 C 1480.43 1461.84 1479.39 1439.57 1484.31 1413.41 C 1521.5 1452.58 1571.8 1490.11 1628.17 1492.28 C 1634.6 1492.53 1646 1493.52 1651.29 1489.86 C 1652.87 1486.08 1652.4 1488.09 1651.87 1483.4 C 1649.41 1480.03 1639.31 1480.68 1634.98 1480.97 C 1611.57 1482.56 1586.85 1473.38 1565.93 1463.31 C 1520.55 1442.35 1492.36 1399.14 1453.51 1370.59 C 1412.83 1340.7 1358.54 1321.23 1312.3 1300.33 C 1323.56 1297.39 1334.43 1292.67 1340.95 1282.78 C 1359.74 1254.27 1350.16 1237.33 1327.42 1219.9 C 1380.71 1239.6 1428.79 1267.18 1486.52 1268.87 C 1502.96 1269.35 1560.07 1274.65 1569.12 1260.2 C 1569.09 1257.47 1567.37 1253.21 1564.71 1253.53 C 1550.48 1255.27 1539.22 1258.59 1524.56 1259.1 C 1527.33 1252.58 1531.7 1248.74 1533.21 1242.44 C 1531.9 1238.65 1532.85 1240.44 1529.35 1237.35 C 1519.69 1235.62 1515.91 1251.82 1513.33 1259.18 C 1502.24 1258.95 1491.16 1258.24 1480.13 1257.05 C 1481.33 1246.43 1483.49 1240.27 1487.72 1230.65 C 1490.84 1223.57 1501.6 1212.25 1500.81 1206.05 C 1498.06 1202.75 1499.7 1203.79 1495.96 1202.46 C 1479.19 1206.08 1471.09 1241.98 1468.49 1256.08 C 1431.38 1249.45 1404.43 1239.48 1370.55 1223.67 C 1356.16 1216.96 1334.87 1212.26 1319.07 1209.5 C 1329.41 1183.36 1333.95 1167.37 1340.5 1140.04 z" fill="rgb(32,40,53)" transform="translate(0,0)"></path>
<path d="M 1176.98 666.561 C 1179.66 667.761 1194.31 691.973 1196.93 696.236 C 1242.02 769.034 1287.93 846.774 1319.67 926.328 C 1350.65 1003.97 1341.22 1130.91 1306.28 1206.97 L 1293.21 1204.13 C 1305 1177.88 1313.7 1150.34 1319.14 1122.08 C 1331.29 1059.99 1332.34 996.801 1308.89 937.137 C 1301.44 918.175 1293.4 887.027 1269.46 885.364 C 1226.97 882.412 1176.01 888.099 1138.21 908.57 C 1116.21 920.484 1096.48 937.277 1074.33 949.153 C 1059.87 957.236 1043.36 964.851 1029.18 973.321 C 1027.24 974.482 1027.78 977.15 1027.84 979.221 C 1030.18 989.198 1034.78 1002.2 1038.19 1012.01 C 1062.97 1083.67 1109.03 1148.68 1173.82 1189.32 C 1193.97 1201.95 1214.28 1211.39 1235.31 1222.27 C 1235.6 1222.85 1235.9 1223.42 1236.2 1224 L 1235.33 1225.13 C 1226.05 1225.46 1170 1193.73 1158.88 1186.44 C 1119.95 1160.89 1086.36 1125.12 1062.03 1085.47 C 1031.12 1035.1 1016.27 977.921 1001.13 921.382 C 986.407 866.674 974.585 811.402 962.577 756.076 C 969.364 756.605 976.181 756.608 982.968 756.086 C 1039.86 751.912 1139.2 710.24 1176.98 666.561 z" fill="rgb(32,40,53)" transform="translate(0,0)"></path>
<path d="M 1306.96 981.201 C 1308.91 980.825 1308.15 980.911 1310.26 981.491 C 1313.32 991.021 1315.18 1012.78 1315.53 1022.61 C 1317.6 1080.78 1307.49 1149.4 1280.99 1201.56 C 1264.8 1197.11 1249.63 1195.82 1238.51 1210.62 C 1191.74 1189 1164.25 1172.47 1126.67 1136.23 C 1087.69 1098.11 1063.18 1049.22 1044.93 998.625 C 1150.84 1009.7 1204.16 1007.56 1306.96 981.201 z" fill="rgb(32,40,53)" transform="translate(0,0)"></path>
<path d="M 1253.21 1015.31 C 1266.49 1012.58 1279.52 1020.93 1282.59 1034.13 C 1285.67 1047.33 1277.67 1060.57 1264.55 1064 C 1255.76 1066.29 1246.41 1063.63 1240.13 1057.05 C 1233.86 1050.47 1231.66 1041 1234.38 1032.33 C 1237.09 1023.65 1244.31 1017.13 1253.21 1015.31 z" fill="rgb(250,221,139)" transform="translate(0,0)"></path>
<path d="M 1228.41 1104.59 C 1237.74 1103.22 1246.48 1109.51 1248.13 1118.8 C 1249.79 1128.09 1243.75 1137.01 1234.52 1138.94 C 1228.29 1140.24 1221.86 1138.05 1217.71 1133.22 C 1213.57 1128.4 1212.38 1121.7 1214.61 1115.75 C 1216.83 1109.79 1222.12 1105.52 1228.41 1104.59 z" fill="rgb(250,221,139)" transform="translate(0,0)"></path>
<path d="M 1233.61 896.423 C 1242.74 895.688 1268.53 894.812 1275.17 899.035 C 1290.53 908.808 1302.37 952.712 1307.01 969.303 C 1288.33 973.871 1269.9 979.188 1251.11 983.139 C 1204.94 992.849 1161.33 993.75 1114.44 992.926 C 1092.45 991.791 1069 990.364 1047.03 987.556 C 1042.64 986.995 1042.37 986.304 1040.7 983.62 C 1040.79 982.108 1040.52 980.758 1041.56 980.082 C 1052.02 973.296 1068.16 965.849 1078.68 959.5 C 1141.51 921.604 1156 901.959 1233.61 896.423 z" fill="rgb(32,40,53)" transform="translate(0,0)"></path>
<path d="M 1573.42 1688.41 C 1576.94 1688.08 1580.47 1687.88 1584.01 1687.81 C 1646.93 1686.31 1632.45 1718.08 1595.75 1746.68 C 1579.73 1758.75 1562.26 1768.63 1543.94 1777.05 C 1494.98 1799.47 1438.63 1819.69 1384.14 1815.03 C 1370.88 1813.9 1354.94 1808.62 1357.47 1792.54 C 1369.08 1766.36 1411.35 1742.71 1436.71 1730.06 C 1434.04 1743.88 1428.22 1757.47 1426.3 1769.07 C 1431.48 1778.57 1453.67 1776.92 1463.13 1775.8 C 1496.08 1771.66 1530.01 1757.26 1551.83 1731.52 C 1568.38 1712 1543.34 1706.86 1530.35 1697.27 L 1529.19 1696.41 C 1543.18 1691.79 1558.81 1689.82 1573.42 1688.41 z" fill="rgb(32,40,53)" transform="translate(0,0)"></path>
<path d="M 1422.83 1545.91 C 1425.49 1548.49 1434.34 1573.22 1436.83 1578.5 C 1462.24 1632.37 1490.77 1692.03 1546.22 1719.8 C 1533.22 1735.06 1525.99 1740.53 1508.4 1750.37 L 1507.09 1750.99 C 1493.61 1757.3 1459.12 1769.04 1442.83 1764.22 C 1439.25 1763.19 1441.99 1758.49 1442.69 1756.02 C 1461.35 1690.26 1430.87 1615.19 1408.18 1555.08 C 1415.09 1552.55 1417.82 1551.26 1422.83 1545.91 z" fill="rgb(32,40,53)" transform="translate(0,0)"></path>
<path d="M 1152.84 654.431 C 1159.65 653.929 1163.97 654.593 1170.75 655.358 C 1140.72 699.066 1028.44 742.976 976.75 745.328 C 970.531 745.752 965.279 745.16 959.085 744.649 C 960.761 741.976 964.142 737.06 966.359 734.821 C 1009.69 691.063 1092.98 658.183 1152.84 654.431 z" fill="rgb(32,40,53)" transform="translate(0,0)"></path>
<path d="M 1249.52 1347.71 C 1257.83 1352.18 1269.4 1356.43 1278.82 1355.23 C 1296.1 1366.9 1316.84 1380.33 1334.8 1390.77 C 1320.85 1400.24 1313.08 1413.03 1312.84 1430.14 C 1312.52 1452.86 1346.48 1462.67 1364.03 1467.15 C 1365.31 1467.48 1374.88 1466.79 1376.66 1466.67 C 1378.89 1467.92 1379.95 1471.27 1381.32 1473.98 L 1387.81 1484.91 C 1378.88 1480.83 1368.29 1473.95 1359.63 1470.58 C 1335.84 1461.03 1308.96 1455.28 1287.34 1441.17 C 1253.91 1419.34 1222.58 1388.53 1249.52 1347.71 z" fill="rgb(32,40,53)" transform="translate(0,0)"></path>
<path d="M 1257.35 1210.28 C 1293.47 1212.18 1372.9 1236.51 1324.9 1283.4 C 1296.87 1301.98 1237.15 1247.22 1250.06 1215.89 C 1251.56 1212.26 1253.97 1211.32 1257.35 1210.28 z" fill="rgb(32,40,53)" transform="translate(0,0)"></path>
<path d="M 1302.25 1462.5 C 1327.08 1467.92 1348.4 1484.47 1368.76 1492.1 C 1360.9 1498.41 1355.92 1503.89 1353.25 1513.88 C 1346.5 1539.14 1364.08 1542.62 1382.79 1547.21 L 1384.49 1548.57 C 1363.09 1551.22 1317.21 1534.44 1301.65 1518.39 C 1284.55 1500.76 1283.59 1479.14 1302.25 1462.5 z" fill="rgb(32,40,53)" transform="translate(0,0)"></path>
<path d="M 1240.79 1247.74 C 1243.03 1249.88 1246.94 1256.2 1249.81 1259.4 C 1250.06 1262.51 1250.51 1268.11 1251.96 1271.16 C 1261.37 1290.91 1305.21 1309.64 1285.37 1336.12 C 1281.44 1341.37 1276.48 1342.53 1270.33 1343.14 C 1256.21 1339.71 1243.3 1332.47 1233.01 1322.21 C 1208.39 1297.63 1218.9 1268.76 1240.79 1247.74 z" fill="rgb(32,40,53)" transform="translate(0,0)"></path>
<path d="M 1342.27 1400.81 C 1352.19 1401.47 1378.79 1410.52 1385.28 1418.66 C 1395.54 1431.55 1381.95 1449.36 1371.24 1457.77 C 1369.62 1458.33 1367.62 1458.71 1365.95 1458.21 C 1350.85 1453.63 1322.79 1445.67 1325.79 1425.07 C 1327.34 1414.41 1333.62 1406.52 1342.27 1400.81 z" fill="rgb(32,40,53)" transform="translate(0,0)"></path>
<path d="M 1301.79 1312.4 C 1316.36 1318.77 1337.69 1333.94 1342.84 1349.24 C 1346.29 1359.47 1339.17 1365.9 1329.88 1367.66 C 1313.54 1366.51 1303.39 1356.96 1288.47 1349.92 C 1301.42 1337.92 1304.59 1329.78 1301.79 1312.4 z" fill="rgb(32,40,53)" transform="translate(0,0)"></path>
<path d="M 1375.47 1502.24 C 1386.32 1503.14 1400.63 1506.01 1410.74 1510.02 C 1420.14 1513.74 1419.64 1539.87 1408.67 1542.63 C 1399.43 1541.33 1370.29 1537.34 1366.03 1527.25 C 1362.53 1518.96 1366.6 1506.73 1375.47 1502.24 z" fill="rgb(32,40,53)" transform="translate(0,0)"></path>
<path d="M 1394.63 1448.81 C 1398.21 1457.36 1400.75 1466.44 1404.69 1475.17 C 1406.78 1479.78 1415.79 1492.93 1416 1496.44 L 1413.97 1494.93 C 1410.8 1493.27 1404.07 1491.35 1400.42 1490.19 C 1396.43 1480.07 1391.49 1469.51 1387.27 1459.29 L 1394.63 1448.81 z" fill="rgb(22,34,40)" transform="translate(0,0)"></path>
<path d="M 1342.33 1327.71 C 1344.94 1328.41 1349.26 1329.86 1350.34 1332.36 C 1358.94 1352.22 1364.69 1374.23 1372.81 1394.37 C 1369.77 1393.81 1366.25 1392.31 1363.31 1391.2 C 1361.54 1386.59 1354.75 1369.17 1354.05 1365.42 C 1349.81 1342.9 1355.02 1347.59 1342.33 1327.71 z" fill="rgb(22,34,40)" transform="translate(0,0)"></path>
<path d="M 1344.7 1373.22 C 1346.64 1377.01 1348.41 1379.85 1349.21 1384.04 L 1348.18 1384.8 L 1345.64 1383.69 C 1342.4 1382.04 1340.16 1381.11 1337.38 1378.71 C 1338.12 1376.32 1341.95 1374.84 1344.7 1373.22 z" fill="rgb(22,34,40)" transform="translate(0,0)"></path>
<path d="M 743.783 99.239 C 786.543 96.4883 834.31 110.2 873.568 126.79 C 902.004 138.807 945.47 158.423 959.506 186.567 C 958.623 198.883 949.717 235.634 946.717 249.172 C 936.329 296.927 924.854 344.438 912.301 391.67 C 881.663 504.368 851.88 564.075 750.604 628.61 C 765.489 639.153 786.236 659.632 774.747 679.857 C 760.028 705.767 717.72 698.821 693.761 692.246 C 686.333 700.667 680.837 705.866 671.85 712.469 C 703.298 718.494 717.644 748.577 704.148 777.927 C 695.084 797.64 672.874 802.658 653.681 808.193 C 676.052 830.539 684.635 858.346 652.328 879.506 C 645.154 884.205 635.358 886.415 627.039 888.803 C 633.477 897.544 642.823 906.508 643.678 917.691 C 646.986 960.961 577.235 965.173 548.642 968.403 C 529.549 1003.23 514.988 1079.71 515.147 1119.82 C 531.619 1129.04 643.289 1176.31 599.945 1213.76 C 583.633 1227.86 531.32 1222.75 507.514 1217.77 C 446.102 1204.94 367.207 1179.48 326.075 1129.01 C 321.486 1123.05 316.299 1109.73 319.038 1102.24 C 332.743 1064.74 406.34 1084.84 430.882 1091.82 C 472.057 1050.92 491.371 997.358 510.916 944.077 C 471.388 969.956 427.825 989.07 382.016 1000.64 C 367.898 1004.16 353.652 1007.15 339.308 1009.6 C 316.485 1013.41 287.391 1014.37 268.865 1027.3 C 251.183 1039.64 232.925 1056.15 216.51 1070.41 C 179.501 1102.05 143.662 1135.03 109.063 1169.29 C 89.0238 1189.26 69.0237 1210.44 48.5937 1230.02 C 47.0585 1231.49 44.9035 1230.17 43.3499 1229.53 C 40.6518 1226.15 41.216 1227.98 41.2068 1223.97 C 43.708 1218.76 60.0482 1202.43 64.7084 1197.6 C 114.31 1146.61 166.315 1098.02 220.545 1051.98 C 232.918 1041.38 260.174 1016.48 273.939 1011.08 C 293.185 1003.53 326.792 1000.3 349.036 995.987 C 415.035 983.184 449.912 965.81 507.175 934.137 C 494.741 907.021 508.598 878.09 527.735 858.076 C 527.791 847.062 541.483 832.09 545.392 812.888 C 546.305 803.774 542.285 795.707 545.924 785.613 C 553.092 765.728 582.46 760.139 600.623 751.871 L 601.763 751.343 C 589.583 754.253 572.205 758.798 560.456 760.99 C 520.597 768.425 504.691 771.222 472.662 797.957 C 481.805 819.319 484.587 839.915 482.457 863.032 C 481.644 871.852 482.125 886.354 476.274 893.021 C 472.341 894.637 474.339 894.391 470.042 893.64 C 468.027 891.98 466.857 891.625 467.276 888.555 C 471.508 857.532 474.345 835.639 463.866 805.485 C 454.775 814.484 445.788 827.49 437.153 837.312 C 413.98 863.672 385.098 885.206 349.709 890.801 C 341.295 892.132 319.862 895.982 313.525 890.025 C 311.472 888.094 311.941 886.741 311.978 884.413 C 315.324 882.126 345.402 879.178 352.779 877.827 C 422.844 864.995 439.711 792.72 500.354 765.12 C 542.404 745.983 597.736 751.003 636.548 723.131 C 626.035 724.007 614.063 723.761 606.071 716.197 C 589.484 700.497 591.651 682.776 605.01 667.165 C 570.343 671.983 536.458 681.005 502.227 687.532 C 468.62 693.756 434.608 697.555 400.456 698.9 C 392.914 699.223 373.68 703.022 369.929 696.604 C 370.036 692.168 369.376 693.164 371.501 689.994 C 381.576 686.576 407.909 686.866 420.586 686.099 C 434.996 685.236 449.367 683.821 463.669 681.855 C 514.942 674.853 567.835 658.493 617.268 653.71 C 609.79 635.929 603.296 617.957 596.627 599.868 C 521.312 600.161 428.536 617.507 366.221 661.907 C 310.207 703.13 268.178 760.49 224.736 814.016 C 204.346 839.14 185.698 866.305 160.571 887.174 C 123.667 917.825 84.1661 945.544 45.7668 974.269 C 41.9548 977.121 35.453 979.951 32.4396 974.887 C 33.9401 967.033 54.1151 954.309 60.9229 949.305 C 74.2754 939.524 87.5385 929.621 100.71 919.598 C 112.135 910.916 123.495 901.994 134.938 893.397 C 172.87 864.902 200.013 827.119 229.126 790.291 C 256.668 755.451 285.56 720.355 316.973 688.848 C 338.025 667.462 362.093 649.272 388.413 634.855 C 447.133 602.98 527.293 587.963 593.811 587.898 C 591.861 582.546 589.982 575.985 588.473 570.273 C 574.634 517.913 570.659 458.593 578.47 405.006 C 579.707 396.515 590.822 368.975 594.278 360.598 C 624.944 286.252 663.673 214.399 704.129 144.905 C 711.038 133.038 720.485 114.657 730.102 104.929 C 732.767 102.234 739.942 100.27 743.783 99.239 z" fill="rgb(250,221,139)" transform="translate(0,0)"></path>
<path d="M 882.854 367.232 L 883.062 367.515 C 883.993 374.825 862.473 438.688 858.787 450.002 C 829.039 541.311 749.581 597.139 668.343 639.905 C 650.073 649.524 643.835 627.302 637.999 613.313 C 615.801 558.64 604.444 499.68 608.02 440.426 C 608.991 424.341 613.066 410.509 618.27 395.355 C 642.985 398.672 668.755 398.417 693.63 397.899 C 759.08 396.534 820.363 386.573 882.854 367.232 z" fill="rgb(32,40,53)" transform="translate(0,0)"></path>
<path d="M 693.936 495.421 C 704.249 493.244 714.403 499.742 716.747 510.018 C 719.09 520.295 712.758 530.553 702.52 533.062 C 695.749 534.722 688.608 532.602 683.84 527.516 C 679.071 522.43 677.415 515.169 679.507 508.518 C 681.599 501.867 687.114 496.861 693.936 495.421 z" fill="rgb(250,221,139)" transform="translate(0,0)"></path>
<path d="M 646.348 426.501 C 654.649 424.105 663.313 428.93 665.645 437.25 C 667.978 445.569 663.086 454.195 654.749 456.464 C 646.503 458.708 637.99 453.88 635.682 445.651 C 633.375 437.422 638.137 428.872 646.348 426.501 z" fill="rgb(250,221,139)" transform="translate(0,0)"></path>
<path d="M 731.149 121.661 C 775.356 166 883.037 206.354 945.6 199.759 C 940.105 219.696 934.902 246.632 930.433 267.003 C 924.508 293.72 918.203 320.351 911.519 346.889 C 897.457 404.7 881.37 469.304 849.718 519.967 C 837.586 539.002 822.997 556.353 806.326 571.57 C 781.709 594.456 753.496 614.295 724.921 631.882 C 717.985 636.151 711.309 639.872 704.972 645.018 C 703.586 648.435 702.176 653.793 701.089 657.461 C 692.77 650.775 690.591 649.291 680.318 646.692 C 686.157 643.962 692.181 640.497 697.738 637.238 C 774.285 592.34 836.192 545.473 867.906 459.112 C 881.274 422.71 889.23 391.634 899.217 354.224 L 909.644 311.954 C 890.955 305.45 859.54 299.765 838.919 296.329 C 803.282 290.39 683.381 279.468 654.491 297.411 C 629.744 321.84 600.413 401.69 596.99 432.121 C 590.482 489.984 608.526 601.209 643.33 647.006 L 629.821 652.218 C 596.029 577.124 577.514 492.062 589.74 409.6 C 592.153 393.327 603.69 367.025 610.295 351.474 C 634.746 293.911 665.777 238.719 695.709 183.834 C 707.159 162.905 720.042 142.884 731.149 121.661 z" fill="rgb(32,40,53)" transform="translate(0,0)"></path>
<path d="M 716.161 299.431 C 768.793 296.952 844.554 307.042 895.407 319.966 C 892.366 331.046 889.636 342.209 887.221 353.442 C 857.064 363.58 826.176 371.398 794.827 376.83 C 747.372 387 670.575 387.835 622.055 384.696 C 630.689 361.791 645.177 322.924 661.818 305.81 C 674.779 300.698 701.765 300.169 716.161 299.431 z" fill="rgb(32,40,53)" transform="translate(0,0)"></path>
<path d="M 363.223 1092.44 C 385.196 1093.03 397.632 1094.8 419.199 1100.47 C 414.25 1103.58 401.246 1111.26 398.501 1115.48 C 391.883 1128 413.225 1143.72 422.669 1149.52 C 445.818 1163.74 481.768 1178.69 509.337 1174.68 C 530.142 1171.65 518.743 1145.5 514.914 1132.92 C 541.467 1145.7 571.982 1159.56 591.721 1182.03 C 604.168 1197.7 595.396 1207.98 577.601 1209.62 C 506.456 1216.2 422.072 1186.76 362.706 1148.65 C 333.053 1129.61 306.165 1095.2 363.223 1092.44 z" fill="rgb(32,40,53)" transform="translate(0,0)"></path>
<path d="M 520.718 952.545 C 527.192 956.755 530.051 958.326 537.199 960.995 C 518.908 1013.37 501.475 1072.21 503.581 1128.97 C 503.865 1136.63 508.803 1153.88 510.64 1162.78 C 486.445 1164.16 470.898 1159.15 448.708 1150.28 C 432.016 1142.83 420.488 1135.16 408.4 1121.49 C 419.056 1113.71 430.644 1108.08 440.849 1098.43 C 477.3 1063.98 505.589 999.986 520.718 952.545 z" fill="rgb(32,40,53)" transform="translate(0,0)"></path>
<path d="M 747.947 110.311 C 801.295 107.535 888.976 139.941 932.415 172.216 C 936.103 174.957 944.006 181.286 944.542 185.939 C 942.721 188.12 942.883 187.441 939.251 188.044 C 891.035 192.472 792.63 157.242 753.616 126.56 C 749.315 123.177 742.881 118.577 742.1 112.921 C 743.887 110.436 743.971 111.17 747.947 110.311 z" fill="rgb(32,40,53)" transform="translate(0,0)"></path>
<path d="M 668.063 725.059 C 694.285 723.667 703.189 753.523 693.945 772.992 C 685.618 790.528 649.456 798.05 631.01 804.061 L 619.712 808.02 C 621.738 788.45 618.324 774.961 603.034 762.055 C 616.404 756.669 626.89 752.758 639.26 744.846 C 648.121 739.178 659.047 729.175 668.063 725.059 z" fill="rgb(32,40,53)" transform="translate(0,0)"></path>
<path d="M 660.448 655.257 C 676.69 654.257 701.705 659.176 687.321 680.885 C 676.781 696.793 655.976 707.421 637.912 711.756 C 625.309 713.992 609.872 711.285 606.696 696.719 C 605.449 691.001 606.558 685.022 609.771 680.131 C 618.815 666.308 644.975 658.256 660.448 655.257 z" fill="rgb(32,40,53)" transform="translate(0,0)"></path>
<path d="M 639.532 815.042 C 648.609 814.404 658.398 828.945 660.36 837.027 C 668.833 871.931 627.493 877.82 602.327 883.802 L 601.163 883.771 L 600.405 882.652 L 602.156 878.017 C 609.723 858.48 599.696 841.312 583.772 830.012 C 603.43 825.603 620.175 820.784 639.532 815.042 z" fill="rgb(32,40,53)" transform="translate(0,0)"></path>
<path d="M 613.46 892.933 C 624.031 904.093 642.115 921.078 625.852 935.616 C 612.237 947.787 583.93 951.731 566.734 955.151 C 593.755 937.399 587.888 910.328 559.707 898.192 L 559.832 897.488 C 579.498 900.07 594.049 897.898 613.46 892.933 z" fill="rgb(32,40,53)" transform="translate(0,0)"></path>
<path d="M 737.698 634.796 C 749.505 641.025 763.549 651.097 765.095 665.264 C 767.197 684.522 744.104 685.736 731.5 686.772 C 719.62 686.14 714.504 685.503 703.16 682.091 C 707.864 660.92 722.507 649.293 737.698 634.796 z" fill="rgb(32,40,53)" transform="translate(0,0)"></path>
<path d="M 586.762 768.92 C 600.91 767.791 614.619 793.336 605.643 805.107 C 598.535 814.429 586.723 816.009 576.222 818.206 C 568.891 817.358 563.753 813.698 558.24 809.202 C 549.328 783.58 566.145 778.098 586.762 768.92 z" fill="rgb(32,40,53)" transform="translate(0,0)"></path>
<path d="M 574.107 842.128 C 594.74 839.2 608.279 892.558 562.716 885.803 C 546.181 881.625 546.029 871.241 541.355 856.694 C 551.758 848.295 561.378 845.623 574.107 842.128 z" fill="rgb(32,40,53)" transform="translate(0,0)"></path>
<path d="M 547.248 910.375 C 578.587 907.14 581.832 945.87 546.366 949.659 C 535.762 948.284 522.257 938.555 520.297 927.566 C 517.803 913.575 537.479 911.605 547.248 910.375 z" fill="rgb(32,40,53)" transform="translate(0,0)"></path>
<path d="M 532.69 870.87 L 533.275 871.534 C 533.858 873.614 530.515 894.294 529.999 898.57 C 529.061 899.656 519.842 903.758 516.918 905.913 L 516.273 906.485 C 514.235 897.512 525.835 877.368 532.69 870.87 z" fill="rgb(22,34,40)" transform="translate(0,0)"></path>
<path d="M 555.376 821.492 C 558.903 823.891 564.327 826.749 568.162 828.928 L 559.354 832.966 L 548.648 838.336 C 551.582 832.052 553.111 828.066 555.376 821.492 z" fill="rgb(22,34,40)" transform="translate(0,0)"></path>
<path d="M 559.707 898.192 C 555.392 897.755 543.958 897.182 540.926 895.617 C 541.179 892.62 541.046 891.23 542.559 888.602 C 549.428 892.755 552.458 894.379 559.832 897.488 L 559.707 898.192 z" fill="rgb(22,34,40)" transform="translate(0,0)"></path>
<path d="M 557.906 1534.18 C 612.727 1530.67 613.046 1616.98 559.351 1616.45 C 548.235 1616.35 543.962 1613.5 536.482 1606.15 L 536.519 1629.87 L 550.733 1629.87 L 550.778 1643.71 C 547.162 1646.3 513.995 1645.11 506.962 1645.05 C 506.887 1640.84 506.141 1634.2 508.214 1630.89 C 513.426 1630.12 512.545 1630.82 515.233 1627.51 C 516.339 1620.51 516.32 1559.66 514.603 1553.24 C 512.318 1551.01 508.868 1551.11 505.469 1550.66 L 505.112 1536 C 512.985 1535.87 527.942 1535.19 535.164 1536.79 C 536.035 1539.38 536.955 1541.97 537.923 1544.53 C 547.984 1537.32 544.989 1537.7 557.906 1534.18 z" fill="rgb(250,221,139)" transform="translate(0,0)"></path>
<path d="M 555.106 1552.2 C 577.101 1550.81 583.559 1564.96 576.933 1586.09 C 574.558 1593.67 567.809 1596.31 560.71 1598.72 C 547.901 1599.61 543.4 1596.51 536.389 1586.09 C 535.28 1566.78 533.365 1556.82 555.106 1552.2 z" fill="rgb(32,40,53)" transform="translate(0,0)"></path>
<path d="M 794.613 1347.46 C 812.942 1347.05 836.663 1345.36 851.153 1358.92 C 865.02 1371.9 865.192 1397.51 851.484 1410.73 C 838.433 1423.31 818.23 1422.07 801.347 1421.94 C 801.484 1431.58 799.478 1442.6 802.534 1450.38 C 805.972 1453 805.819 1452.08 811.243 1452.18 C 813.186 1452.07 812.133 1451.92 814.32 1453.02 C 815.709 1457.22 815.1 1463.34 814.977 1467.98 L 767.378 1467.98 C 767.232 1462.96 767.477 1457.66 767.61 1452.61 C 771.543 1452.23 776.028 1452.07 780.019 1451.83 L 779.962 1363.43 L 766.175 1363.05 L 766.113 1347.9 L 794.613 1347.46 z" fill="rgb(250,221,139)" transform="translate(0,0)"></path>
<path d="M 801.072 1364.37 C 811.929 1363.9 821.913 1362.79 831.592 1368.76 C 844.731 1376.87 843.235 1388.5 835.075 1399.66 C 824.053 1406.73 813.807 1405.17 800.917 1405.01 C 800.85 1391.46 800.902 1377.91 801.072 1364.37 z" fill="rgb(32,40,53)" transform="translate(0,0)"></path>
<path d="M 529.785 1345.14 L 561.6 1344.78 C 561.645 1362.09 561.571 1379.41 561.381 1396.72 C 574.033 1381.5 597.627 1376.12 613.11 1390.57 C 624.552 1401.25 621.087 1435.67 620.865 1452.01 L 632.949 1452.04 L 632.902 1468.32 C 618.376 1468.4 603.85 1468.4 589.325 1468.32 L 589.429 1452.25 L 601.037 1451.85 L 601.033 1431.5 C 601.221 1421.64 602.623 1411.05 595.437 1403.25 C 587.023 1394.66 572.612 1401.49 565.859 1408.63 C 560.658 1414.13 562.011 1425.74 561.882 1432.84 C 561.77 1438.96 562.017 1445.73 562.106 1451.96 L 573.383 1452.56 C 573.558 1457.92 573.554 1463.54 573.626 1468.92 L 528.413 1469.07 L 528.536 1452.4 L 541.42 1451.88 L 541.835 1361.06 L 529.649 1360.22 L 529.785 1345.14 z" fill="rgb(250,221,139)" transform="translate(0,0)"></path>
<path d="M 445.954 1493.18 C 464.72 1492.07 473.97 1493.82 491.328 1500.74 C 490.907 1510.04 491.205 1521.44 491.197 1530.9 L 472.936 1530.82 C 473.016 1525.96 474.467 1513.89 469.662 1511.38 C 462.676 1506.62 441.442 1509.32 437.473 1517.44 C 429.813 1533.12 447.511 1542.09 459.099 1546.41 C 467.678 1549.61 474.842 1552.99 481.584 1556.81 C 497.127 1565.6 501.799 1588.6 490.645 1602.43 C 482.268 1612.99 470.458 1616.09 457.563 1617.54 C 440.75 1618.73 427.465 1614.69 413.213 1606.3 C 412.952 1597.08 413.087 1587.23 413.048 1577.95 L 432.688 1577.96 C 432.291 1585.01 430.692 1593.55 437.864 1597.8 C 444.484 1602.86 470.779 1600.3 474.008 1591.04 C 483.925 1562.59 420.427 1563.78 416.346 1535.91 C 414.68 1524.53 414.164 1519.35 419.137 1510.39 C 424.969 1499.87 435.765 1496.1 445.954 1493.18 z" fill="rgb(250,221,139)" transform="translate(0,0)"></path>
<path d="M 863.066 831.578 C 866.98 841.482 867.041 852.364 874.072 866.137 C 886.058 889.616 904.264 896.019 927.679 904.091 C 881.181 921.735 876.621 929.485 863.289 976.288 C 849.602 931.456 842.548 920.022 797.662 903.815 C 843.728 886.408 849.074 877.828 863.066 831.578 z" fill="rgb(250,221,139)" transform="translate(0,0)"></path>
<path d="M 410.766 1348.09 L 521.68 1347.86 C 521.652 1359.52 521.358 1371.41 521.192 1383.09 L 503.149 1383.14 L 503.206 1364.13 L 477.872 1364.06 C 477.986 1392.72 476.718 1424 477.437 1452.02 L 493.038 1452.06 L 492.967 1468.18 L 442.335 1468.23 L 442.237 1451.71 L 456.315 1451.79 C 456.024 1422.56 455.896 1393.32 455.931 1364.09 L 429.712 1364.15 L 429.585 1384.08 L 410.615 1384.04 L 410.766 1348.09 z" fill="rgb(250,221,139)" transform="translate(0,0)"></path>
<path d="M 675.739 1383.23 C 679.1 1382.97 682.47 1382.85 685.84 1382.87 C 713.935 1383.07 721.02 1407.48 719.978 1430.83 C 702.764 1432.02 678.525 1431.1 660.821 1430.92 C 661.169 1432.1 661.552 1433.27 661.968 1434.44 C 670.509 1457.86 692.011 1452.27 710.016 1445.06 C 713.003 1449.69 715.391 1454.15 718.02 1458.97 C 701.839 1467.54 683.793 1472.73 666.134 1464.41 C 655.587 1459.41 647.583 1450.26 644.026 1439.14 C 635.336 1412.37 649.904 1390.92 675.739 1383.23 z" fill="rgb(250,221,139)" transform="translate(0,0)"></path>
<path d="M 676.01 1399.13 C 693.161 1397.89 699.354 1402.56 703.38 1418.86 L 688.79 1418.76 L 660.307 1418.11 C 664.579 1407.9 665.891 1404.13 676.01 1399.13 z" fill="rgb(32,40,53)" transform="translate(0,0)"></path>
<path d="M 871.696 1533.23 C 879.486 1532.34 889.208 1532.46 896.342 1535.88 C 919.213 1546.84 907.38 1584.1 911.933 1597.94 C 914.376 1599.5 919.016 1599.01 922.191 1598.99 C 922.059 1606.27 921.855 1609.1 920.598 1616.25 C 914.892 1616.3 902.346 1616.97 896.863 1615.28 C 895.63 1614.9 894.899 1610.43 894.391 1608.56 C 891.234 1608.46 884.619 1616.05 877.572 1617.46 C 869.915 1618.99 867.673 1618.45 860.078 1617.72 C 843.399 1611.58 839.504 1597.42 846.048 1581.46 C 853.449 1563.41 880.008 1571.38 891.465 1567.93 C 893.435 1563.47 890.205 1556.29 886.43 1553.98 C 878.245 1548.96 863.837 1552.71 855.023 1554.3 C 852.672 1549.03 851.471 1544.38 849.867 1538.87 C 858.235 1536.17 863.053 1534.94 871.696 1533.23 z" fill="rgb(250,221,139)" transform="translate(0,0)"></path>
<path d="M 878.54 1582.21 C 884.244 1581.75 888.985 1580.11 892.897 1584.84 C 894.923 1594.27 886.282 1598.3 878.935 1601.26 C 872.031 1602.34 866.621 1603.74 862.933 1596.27 C 861.972 1585.7 870.024 1583.6 878.54 1582.21 z" fill="rgb(32,40,53)" transform="translate(0,0)"></path>
<path d="M 888.734 1383.34 C 897.031 1382.22 910.698 1382.73 918.173 1386.64 C 941.216 1398.7 928.296 1433.9 932.896 1448 C 935.345 1449.52 939.581 1449.08 942.698 1449.08 L 942.342 1467 C 936.895 1467.09 921.573 1468.03 917.842 1465.68 C 917.132 1463 917.007 1462 915.697 1459.53 C 902.591 1463.66 907.591 1468.69 888.562 1469.23 C 871.241 1465.89 860.765 1454.57 865.296 1435.21 C 870.233 1414.11 901.06 1422.88 911.748 1416.68 C 913.333 1413.91 913.373 1414.74 912.834 1411.29 C 910.54 1396.6 886.831 1401.6 877.27 1403.45 C 875.849 1397.82 875.056 1391.81 874.147 1386.06 C 878.922 1384.88 883.875 1384.16 888.734 1383.34 z" fill="rgb(250,221,139)" transform="translate(0,0)"></path>
<path d="M 911.379 1431.45 C 911.912 1431.37 912.423 1431.73 912.931 1431.91 C 913.989 1449.35 904.247 1453.33 888.021 1451.09 C 884.81 1448.15 884.509 1446.86 883.552 1442.88 C 885.126 1432.31 902.648 1433.39 910.37 1431.68 L 911.379 1431.45 z" fill="rgb(32,40,53)" transform="translate(0,0)"></path>
<path d="M 645.243 1534.14 C 676.836 1531.75 689.108 1550.51 687.919 1579.87 C 668.418 1580.33 648.913 1580.59 629.406 1580.67 C 637.905 1603.97 658.306 1605.77 676.898 1591.86 C 681.344 1597.59 682.649 1600.17 686.029 1606.55 C 669.433 1617.02 650.583 1621.74 632.211 1611.94 C 621.999 1606.52 614.524 1597.07 611.602 1585.89 C 608.599 1574.81 610.248 1562.98 616.167 1553.15 C 623.021 1542.01 632.996 1536.93 645.243 1534.14 z" fill="rgb(250,221,139)" transform="translate(0,0)"></path>
<path d="M 643.12 1550.25 C 659.689 1548.35 664.356 1553.17 671.618 1567.08 L 657.5 1567.12 L 628.606 1567.02 C 632.497 1556.96 633.52 1554.84 643.12 1550.25 z" fill="rgb(32,40,53)" transform="translate(0,0)"></path>
<path d="M 1150.73 1382.92 C 1161.9 1382.84 1173.33 1383.02 1184.52 1383.08 C 1184.43 1387.67 1184.3 1391.54 1183.9 1396.1 C 1181.71 1398.89 1182.04 1398 1177.28 1398.75 C 1173.17 1401.85 1160.36 1433.23 1157.29 1440.3 C 1153.16 1449.27 1148.62 1459.95 1144.7 1469.03 C 1132.54 1497.23 1126.07 1504.27 1094.91 1499.57 L 1095.58 1480.57 C 1120.92 1488.41 1120.47 1480.14 1129.96 1459.69 C 1123.01 1440.52 1112.67 1422.66 1103.54 1404.47 C 1101.21 1399.82 1098.04 1400.44 1093.35 1399.21 C 1092.03 1395.37 1092.57 1387.71 1092.64 1383.33 L 1131.08 1383.68 C 1131.17 1388.64 1132.72 1393.88 1130.92 1398.07 C 1127.39 1400.28 1127.3 1399.48 1122.35 1399.54 C 1127.49 1412.5 1134 1425.95 1139.9 1438.67 C 1143.42 1430.46 1155.06 1405.58 1154.43 1398.74 L 1151.46 1397.91 C 1150.27 1394.51 1150.72 1386.96 1150.73 1382.92 z" fill="rgb(250,221,139)" transform="translate(0,0)"></path>
<path d="M 1081.88 1533.35 C 1095.07 1534.28 1099.25 1535.75 1111.85 1540.36 C 1109.41 1577.41 1099.25 1543.98 1076.06 1551.23 C 1073.33 1553.73 1074.33 1552.23 1073.32 1556.14 C 1077.31 1572.11 1114.91 1564.82 1115.29 1591.03 C 1115.62 1614.13 1097.65 1617.93 1078.85 1618.01 C 1069.04 1616.64 1061.7 1615.12 1052.34 1612.01 C 1051.95 1605.16 1050.33 1596.8 1054.47 1591.6 C 1062.51 1588.73 1089.28 1613.62 1095.65 1594.29 C 1092.38 1579.53 1054.94 1585.2 1053.68 1560.43 C 1052.67 1540.48 1065.11 1535.46 1081.88 1533.35 z" fill="rgb(250,221,139)" transform="translate(0,0)"></path>
<path d="M 737.804 1533.32 C 751.451 1532.15 757.834 1534.62 770.335 1539.03 L 770.461 1563.23 C 757.673 1563.83 757.497 1564.57 752.503 1552.51 C 746.816 1547.8 734.849 1550.1 729.104 1554.12 C 718.307 1561.67 715.209 1580.9 723.722 1591.25 C 733.264 1602.85 748.847 1602.26 759.1 1591.81 C 760.836 1590.07 761.726 1589.53 763.883 1588.67 C 768.71 1593.3 770.722 1595.32 774.911 1600.65 C 774.742 1600.86 774.573 1601.07 774.403 1601.28 L 773.538 1602.33 C 760.299 1618.49 737.004 1622.77 719.175 1611.66 C 709.06 1605.3 702.087 1594.98 699.965 1583.23 C 694.742 1555.73 711.467 1537.56 737.804 1533.32 z" fill="rgb(250,221,139)" transform="translate(0,0)"></path>
<path d="M 1751.4 1814.66 C 1754.48 1817.74 1758.34 1834.41 1761.38 1840.06 C 1769.89 1855.92 1784.62 1861.98 1800.44 1867.12 C 1767.36 1882.63 1765.38 1885.65 1751.65 1919.29 C 1749.61 1916.77 1746.34 1904.68 1744.32 1900.32 C 1735.2 1880.57 1722.03 1874.31 1703.46 1866.84 C 1735.88 1855.61 1741.04 1845.94 1751.4 1814.66 z" fill="rgb(250,221,139)" transform="translate(0,0)"></path>
<path d="M 931.986 1493.03 L 964.863 1493.37 L 964.624 1599.05 L 975.326 1599.21 L 975.094 1616.05 L 960.9 1616.1 L 932.807 1616.47 C 932.271 1611.26 932.301 1605.43 932.189 1600.15 L 944.155 1599.99 C 944.706 1569.94 944.965 1539.88 944.934 1509.82 L 931.953 1509.48 L 931.986 1493.03 z" fill="rgb(250,221,139)" transform="translate(0,0)"></path>
<path d="M 1003.85 1383.12 C 1010.97 1383.35 1018.91 1384.08 1022.35 1390.75 C 1022.49 1398.04 1018.09 1400.88 1012.81 1406.5 C 997.106 1398.8 995.008 1402.47 986.203 1416.01 L 986.172 1450.79 L 998.665 1450.88 L 998.557 1467.39 L 968.545 1467.35 L 955.109 1467.56 L 955.052 1451.41 L 966.619 1451.28 L 966.1 1400.52 L 954.93 1400.31 L 955.029 1384.22 L 983.787 1384.1 C 983.879 1387.47 983.55 1390.39 985.156 1393.24 C 990.055 1392.29 990.311 1386.81 1002.6 1383.45 L 1003.85 1383.12 z" fill="rgb(250,221,139)" transform="translate(0,0)"></path>
<path d="M 1057.66 1361.64 C 1061.44 1366.12 1060.33 1376.93 1060.35 1383.41 L 1081.73 1383.34 L 1081.68 1402.26 L 1060.68 1401.99 C 1060.77 1408.99 1060.44 1415.95 1060.4 1422.93 C 1060.29 1439.7 1055.8 1459.62 1080.5 1447.76 C 1082.77 1452.49 1086.83 1457.15 1086.97 1461.86 C 1085.11 1465.21 1085.36 1464.29 1081.35 1466.45 C 1030.65 1481.16 1042.37 1435.32 1040.26 1402.3 L 1026.84 1400.5 C 1026.99 1400.21 1027.13 1399.93 1027.27 1399.64 L 1028.02 1398.24 C 1032.69 1389.28 1050.18 1368.07 1057.66 1361.64 z" fill="rgb(250,221,139)" transform="translate(0,0)"></path>
<path d="M 1155.91 1512.58 C 1159.76 1514.57 1158.59 1530.93 1158.59 1535.08 C 1166.13 1535.05 1173.67 1535.17 1181.2 1535.41 L 1181.05 1553.01 L 1159.13 1553.22 C 1159.08 1565.04 1158.16 1577.68 1158.63 1589.28 C 1159.21 1603.56 1173.07 1598.75 1180.67 1596.28 C 1182.66 1601.2 1185.58 1606.17 1184.34 1611 C 1182.18 1613.9 1179.83 1614.2 1176.34 1615.37 C 1130.08 1629.48 1138.9 1581.5 1139.09 1552.28 L 1124.19 1552.09 C 1130.35 1542.44 1147.98 1520.36 1155.91 1512.58 z" fill="rgb(250,221,139)" transform="translate(0,0)"></path>
<path d="M 992.002 1536.11 L 1024.74 1536.16 L 1024.79 1598.94 L 1036.3 1599.23 L 1036.36 1615.55 L 1019.75 1615.59 L 990.836 1616.01 L 990.624 1598.75 L 1004.97 1598.33 L 1004.98 1554.01 L 991.923 1553.97 L 992.002 1536.11 z" fill="rgb(250,221,139)" transform="translate(0,0)"></path>
<path d="M 788.735 1536.51 C 798.872 1536.56 809.009 1536.53 819.145 1536.41 L 819.733 1599.15 L 831.148 1599.32 L 831.033 1615.72 L 821.25 1615.74 L 787.035 1615.24 L 786.963 1599.52 C 791.063 1599.06 795.218 1598.5 799.318 1597.98 C 800.112 1584.42 799.732 1567.37 799.779 1553.54 L 788 1553.68 C 787.926 1548.34 787.426 1541.5 788.735 1536.51 z" fill="rgb(250,221,139)" transform="translate(0,0)"></path>
<path d="M 948.333 515.717 C 949.937 518.47 951.726 524.732 953.157 528.091 C 960.425 545.153 970.218 550.627 986.702 557.028 C 983.832 558.316 980.99 559.664 978.176 561.069 C 960.067 570.251 955.78 582.014 949.958 599.785 C 949.42 600.532 949.823 600.09 948.479 600.801 C 947.168 595.666 945.636 590.589 943.887 585.585 C 937.837 568.664 927.982 564.194 913.097 557.217 C 937.547 547.016 941.38 540.796 948.333 515.717 z" fill="rgb(250,221,139)" transform="translate(0,0)"></path>
<path d="M 874.404 1099.76 C 875.626 1101.18 875.996 1103.08 876.748 1104.93 C 885.194 1125.77 886.035 1128.27 906.997 1137.33 C 879.626 1151.24 886.214 1154.33 875.004 1175.09 L 874.33 1176.32 C 865.956 1155.01 859.488 1147.72 840.387 1135.74 C 861.217 1126.24 866.006 1120.65 874.404 1099.76 z" fill="rgb(250,221,139)" transform="translate(0,0)"></path>
<path d="M 802.96 1501.04 C 820.719 1500.46 829.756 1515.19 811.697 1524.6 C 805.314 1525.39 798.686 1524.41 795.097 1518.36 C 793.506 1515.72 793.172 1512.51 794.188 1509.6 C 795.779 1504.92 798.874 1503.24 802.96 1501.04 z" fill="rgb(250,221,139)" transform="translate(0,0)"></path>
<path d="M 1007.88 1502.04 C 1026.41 1500.03 1034.07 1517.12 1017.07 1524.02 C 1000.04 1525.02 989.987 1511.3 1007.88 1502.04 z" fill="rgb(250,221,139)" transform="translate(0,0)"></path>
<metadata><recraft-signature>{"signed_by": "recraft", "signature_b64": "CTlEyCfsD5eFi0E7XGvD1fmJZDQg2awMmA5U0EMwMHRAYU8pXMVBKpoodPUgofpDL1w9BZ3TbbXKHJZBXCpYCA==", "signing_algo": "Ed25519", "generation_timestamp": 1772546735, "identifier": "d6f48cfa-caa6-4ff1-949e-e3230f8dc387"}</recraft-signature></metadata></svg>