<svg xmlns="http://www.w3.org/2000/svg" height="1024" preserveAspectRatio="none" style="display: block;" version="1.1" viewBox="0 0 2048 2048" width="1024">
<defs>
	<linearGradient gradientUnits="userSpaceOnUse" id="Gradient1" x1="1254.77" x2="1256.43" y1="925.889" y2="938.642">
		<stop class="stop0" offset="0" stop-color="rgb(155,144,101)" stop-opacity="1"></stop>
		<stop class="stop1" offset="1" stop-color="rgb(197,160,113)" stop-opacity="1"></stop>
	</linearGradient>
	<linearGradient gradientUnits="userSpaceOnUse" id="Gradient2" x1="796.244" x2="797.515" y1="939.019" y2="926.377">
		<stop class="stop0" offset="0" stop-color="rgb(204,166,111)" stop-opacity="1"></stop>
		<stop class="stop1" offset="1" stop-color="rgb(166,151,115)" stop-opacity="1"></stop>
	</linearGradient>
</defs>
<path d="M 0 0 L 2048 0 L 2048 2048 L 0 2048 L 0 0 z" fill="rgb(255,255,255)" transform="translate(0,0)"></path>
<path d="M 1182.08 266.009 C 1184.08 241.867 1189.36 235.31 1203.1 215.653 C 1213.13 255.935 1250.29 256.528 1265.83 306.015 C 1271.64 285.125 1283.7 269.536 1298.37 254.15 C 1299.65 275.707 1301.62 286.191 1315.4 303.781 C 1332.25 325.283 1338.61 341.329 1338.99 368.537 C 1343.78 363.753 1349.77 355.719 1354.51 350.396 C 1362.88 341.017 1370.06 335.537 1380.29 328.4 C 1373.93 364.521 1391.03 376.134 1400.88 408.384 C 1404.27 419.472 1404.06 432.287 1403.01 443.713 L 1404.61 445.454 C 1420.14 434.048 1427.35 430.299 1445.52 423.489 C 1429.08 469.333 1450.69 486.29 1443.78 531.684 C 1442.13 542.533 1436.17 551.439 1429.98 560.242 C 1455.23 547.69 1463.94 544.141 1492.54 541.973 C 1482.35 558.376 1475.46 570.18 1469.45 589.061 C 1456.73 629.007 1460.78 648.479 1429.93 680.149 C 1461.38 675.969 1473.71 675.525 1504.53 685.01 C 1460.65 711.792 1453.15 742.306 1421.78 778.933 C 1414.12 787.875 1403.78 791.372 1394.61 798.067 C 1415.18 800.541 1433.25 805.96 1451.38 816.344 C 1432.12 823.744 1412.34 833.871 1398.43 849.285 C 1372.91 877.578 1368.44 886.279 1329.76 892.194 C 1353.73 902.593 1364.19 909.673 1378.71 931.032 C 1352.82 930.776 1335.95 930.882 1313.62 945.837 C 1292.62 959.9 1275.79 965.619 1250.47 964.894 C 1261.48 975.444 1269.11 983.392 1277.52 996.203 C 1246.05 1000.04 1231.21 1010.6 1202.73 1020.28 C 1190.21 1024.54 1171.6 1025.15 1158.23 1025.88 C 1138.98 986.613 1090.58 991.22 1054.73 994.051 C 1053.06 993.852 1047.84 994.817 1045.76 995.054 L 1044.59 997.328 C 1049.34 1005.43 1107.93 1032.16 1120.84 1032.1 L 1121.1 1033.43 C 1085.53 1039.43 1070.39 1010.1 1036.5 1006.14 C 992.613 1001.03 979.84 1030.05 940.007 1034.27 L 940.007 1031.24 C 963.568 1022.91 983.405 1012.44 1005.4 1000.57 C 1008.02 999.162 1006.96 997.8 1005.32 996.371 L 1004.78 996.31 C 1002.57 996.088 1002.02 996.209 1000.1 995.259 C 972.996 990.359 936.089 987.598 912.594 1004.48 C 904.082 1010.6 898.163 1017.43 891.224 1025.24 C 853.747 1023.86 835.775 1015.23 801.934 1001.32 C 794.169 998.129 780.241 998.683 773.278 996.544 L 775.135 995.647 C 781.249 986.158 790.161 974.895 799.489 968.441 L 799.004 965.927 C 762.597 968.96 745.422 946.085 713.814 935.508 C 700.158 930.937 687.437 930.825 673.268 931.711 C 682.864 914.345 699.964 899.859 718.48 892.762 C 716.723 892.091 714.958 891.442 713.184 890.814 C 684.301 892.056 663.383 855.799 641.569 839.389 C 624.971 826.902 620.115 824.797 601.383 815.72 C 620.307 804.912 636.525 800.071 657.912 797.103 C 615.019 777.503 610.749 744.976 581.215 711.711 C 571.102 700.32 560.602 693.912 548.713 684.871 C 579.854 676.934 591.466 676.8 622.708 679.287 C 594.641 653.142 596.081 624.219 584.465 589.558 C 577.63 569.161 572.5 559.89 561.084 542.548 C 583.459 543.228 608.694 553.03 628.446 562.876 C 608.878 537.557 604.822 516.254 611.084 484.937 C 616.146 459.62 617.441 448.969 609.369 424.222 C 627.701 431.475 638.406 439.02 654.555 449.86 C 651.801 434.818 651.718 414.152 656.938 399.746 C 666.665 372.896 682.739 360.851 674.215 330.176 C 696.628 342.294 705.85 353.145 718.024 375.063 C 717.904 361.205 717.628 350.765 721.517 337.353 C 727.978 315.069 748.239 302.426 754.86 280.574 C 757.468 271.966 757.859 263.409 758.449 254.492 C 778.014 273.215 777.884 279.515 790.007 301.103 C 796.553 283.938 809.967 266.968 824.255 255.662 C 841.033 242.386 846.871 236.549 853.921 215.982 C 871.624 243.455 869.031 241.009 873.774 270.87 C 901.595 236.017 937.072 238.955 977.407 248.591 C 970.936 254.54 967.08 258.199 961.674 265.062 C 951.705 277.717 939.628 298.657 925.922 307.382 C 914.235 317.59 903.262 319.647 888.532 321.974 C 910.18 328.982 921.614 337.884 934.52 356.643 C 921.636 357.977 918.277 358.024 906.076 362.347 C 886.955 369.123 870.841 385.138 851.685 388.54 C 841.641 390.324 825.321 388.486 814.989 387.904 C 831.872 396.241 842.808 397.414 855.605 410.951 C 845.574 415.194 835.045 419.579 826.511 426.432 C 800.829 447.055 797.638 461.924 763.845 470.116 C 775.308 471.058 799.249 480.057 810.492 484.881 C 768.061 499.864 771.167 547.864 739.521 567.987 C 751.923 567.818 772.161 568.228 784.248 570.452 C 754.183 608.985 757.203 626.435 740.682 668.505 C 751.66 663.067 759.445 659.664 771.196 656.08 C 770.241 668.63 769.316 680.775 770.433 693.361 C 772.644 718.26 777.303 735.675 773.547 760.838 C 780.455 749.487 783.869 741.917 794.814 733.802 C 798.838 744.357 803.735 756.1 809.254 765.967 C 823.106 790.736 835.446 801.919 838.719 831.15 C 842.888 820.892 846.87 810.559 850.664 800.156 C 866.286 819.531 884.265 838.876 898.002 859.158 C 903.778 867.687 907.067 879.334 911.557 887.977 C 910.283 876.664 908.866 866.076 908.859 854.668 C 937.242 857.556 970.066 870.674 988.036 893.516 C 1004.38 914.29 1008.44 930.416 1013.32 955.565 C 1022 955.998 1028.96 956.189 1037.63 956.005 C 1045.29 924.138 1056.44 892.662 1085.39 874.85 C 1103.66 863.766 1124.09 856.73 1145.31 854.218 C 1144.69 862.087 1143.79 868.16 1142.52 875.977 L 1144.63 877.611 C 1147.37 858.35 1190.38 817.357 1201.66 800.268 C 1205.91 810.133 1210.62 820.983 1213.02 831.402 C 1223.24 788.083 1245.61 773.852 1259.56 733.472 C 1268.03 739.927 1272.7 745.951 1279.2 754.31 C 1278.51 731.221 1280.89 713.284 1283.72 690.536 C 1284.9 681.104 1283.33 664.896 1282.88 654.951 C 1293.42 659.577 1303.02 664.397 1313.28 669.552 C 1297.51 627.958 1296.97 607.695 1269.28 570.562 C 1284.15 568.466 1298.46 568.303 1313.42 567.933 C 1284.82 542.29 1290.38 510.316 1246.2 483.894 C 1262.53 477.045 1273.38 473.749 1290.19 469.113 C 1259.03 461.819 1253.66 445.729 1229.66 426.62 C 1221.1 419.803 1209.48 415.329 1199.32 411.558 C 1213.69 397.588 1222.06 396.236 1238.65 387.267 C 1229.33 388.669 1222.44 390.348 1212.99 390.056 C 1187.9 389.281 1173.45 370.729 1150.98 362.318 C 1140 358.211 1132.59 357.904 1120.97 356.729 C 1132.69 340.991 1149.94 328.653 1168.2 321.639 C 1110.66 312.332 1117.41 277.296 1075.66 248.896 C 1119.24 238.213 1146.46 235.208 1182.08 266.009 z" fill="rgb(201,163,113)" transform="translate(0,0)"></path>
<path d="M 873.774 270.87 C 901.595 236.017 937.072 238.955 977.407 248.591 C 970.936 254.54 967.08 258.199 961.674 265.062 C 951.705 277.717 939.628 298.657 925.922 307.382 C 916.543 309.792 902.225 315.659 894.228 313.652 C 886.831 314.913 879.991 315.904 872.52 316.716 C 887.69 306.4 897.721 297.801 911.775 286.412 C 912.229 285.172 911.985 284.929 911.718 283.34 C 914.514 279.489 918.493 278.481 922.424 272.06 C 920.433 271.609 919.923 271.006 918.758 272.542 C 915.095 273.817 914.034 274.16 910.742 276.018 C 898.164 284.64 879.558 292.873 867.143 301.874 C 865.749 302.161 865.587 301.889 864.406 301.046 C 865.987 297.555 868.7 292.512 869.584 289.056 C 865.443 283.028 872.351 278.236 873.774 270.87 z" fill="rgb(29,47,49)" transform="translate(0,0)"></path>
<path d="M 873.774 270.87 C 901.595 236.017 937.072 238.955 977.407 248.591 C 970.936 254.54 967.08 258.199 961.674 265.062 C 951.705 277.717 939.628 298.657 925.922 307.382 C 916.543 309.792 902.225 315.659 894.228 313.652 C 929.375 305.523 938.722 276.341 957.656 253.474 C 934.297 251.231 918.19 248.47 896.608 261.21 C 882.361 269.62 878.441 275.737 869.584 289.056 C 865.443 283.028 872.351 278.236 873.774 270.87 z" fill="rgb(182,153,106)" transform="translate(0,0)"></path>
<path d="M 922.424 272.06 C 924.138 270.541 923.838 270.643 925.833 269.793 C 925.986 269.818 926.138 269.842 926.291 269.866 C 926.84 271.303 913.769 284.967 911.775 286.412 C 912.229 285.172 911.985 284.929 911.718 283.34 C 914.514 279.489 918.493 278.481 922.424 272.06 z" fill="rgb(124,115,90)" transform="translate(0,0)"></path>
<path d="M 918.758 272.542 C 919.923 271.006 920.433 271.609 922.424 272.06 C 918.493 278.481 914.514 279.489 911.718 283.34 C 904.828 288.583 864.949 317.305 858.691 316.468 C 856.894 314.831 863.728 310.428 864.637 309.71 C 863.541 308.599 862.566 307.627 861.527 306.46 C 862.438 304.583 863.131 302.707 864.406 301.046 C 865.587 301.889 865.749 302.161 867.143 301.874 C 879.558 292.873 898.164 284.64 910.742 276.018 C 914.034 274.16 915.095 273.817 918.758 272.542 z" fill="rgb(33,51,48)" transform="translate(0,0)"></path>
<path d="M 910.742 276.018 L 911.927 277.899 C 895.309 285.915 879.436 300.44 864.637 309.71 C 863.541 308.599 862.566 307.627 861.527 306.46 C 862.438 304.583 863.131 302.707 864.406 301.046 C 865.587 301.889 865.749 302.161 867.143 301.874 C 879.558 292.873 898.164 284.64 910.742 276.018 z" fill="rgb(182,153,106)" transform="translate(0,0)"></path>
<path d="M 864.406 301.046 C 865.587 301.889 865.749 302.161 867.143 301.874 C 865.96 303.643 863.361 305.141 861.527 306.46 C 862.438 304.583 863.131 302.707 864.406 301.046 z" fill="rgb(72,78,59)" transform="translate(0,0)"></path>
<path d="M 910.742 276.018 C 914.034 274.16 915.095 273.817 918.758 272.542 C 916.124 275.925 915.946 275.759 911.927 277.899 L 910.742 276.018 z" fill="rgb(124,115,90)" transform="translate(0,0)"></path>
<path d="M 799.004 965.927 C 800.422 965.309 801.528 964.741 803.025 965.209 L 803.202 965.421 C 802.963 966.347 800.163 967.967 799.489 968.441 L 799.004 965.927 z" fill="rgb(238,235,230)" transform="translate(0,0)"></path>
<path d="M 1144.63 877.611 C 1144.33 878.259 1143.4 881.059 1142.43 881.172 L 1142.15 880.934 C 1141.57 879.196 1141.94 877.646 1142.52 875.977 L 1144.63 877.611 z" fill="rgb(238,235,230)" transform="translate(0,0)"></path>
<path d="M 713.184 890.814 C 715.634 890.882 721.311 889.811 718.48 892.762 C 716.723 892.091 714.958 891.442 713.184 890.814 z" fill="rgb(238,235,230)" transform="translate(0,0)"></path>
<path d="M 569.211 688.781 C 600.584 688.848 626.607 688.86 655.519 703.671 C 695.373 724.089 690.584 749.275 702.507 785.693 C 689.104 771.904 673.787 760.226 660.074 746.573 L 658.999 748.868 C 667.322 757 699.463 785.391 701.279 793.338 L 700.149 794.98 C 695.786 795.685 687.86 792.39 681.999 792.156 C 676.461 791.934 664.967 789.951 660.098 787.709 C 630.016 773.862 616.506 738.843 596.962 714.318 C 587.578 702.544 581.162 697.278 569.211 688.781 z" fill="rgb(29,47,49)" transform="translate(0,0)"></path>
<path d="M 658.999 748.868 C 656.944 747.121 641.619 733.054 641.496 731.771 C 641.842 731.192 642.53 731.571 642.938 731.893 C 648.741 736.479 654.846 741.315 660.074 746.573 L 658.999 748.868 z" fill="rgb(97,96,82)" transform="translate(0,0)"></path>
<path d="M 628.556 724.263 C 634.942 732.982 642.37 741.274 649.2 749.66 C 662.371 765.829 678.881 776.804 694.651 789.975 C 672.432 782.635 660.131 769.417 645.273 751.739 C 638.476 743.652 633.393 733.822 626.972 725.869 L 628.556 724.263 z" fill="rgb(182,153,106)" transform="translate(0,0)"></path>
<path d="M 626.972 725.869 C 625.997 724.657 621.13 718.403 621.704 716.936 C 623.737 716.783 627.385 722.597 628.556 724.263 L 626.972 725.869 z" fill="rgb(97,96,82)" transform="translate(0,0)"></path>
<path d="M 583.189 558.38 C 606.4 563.941 627.683 573.196 646.056 588.797 C 677.159 615.208 670.226 652.56 673.061 690.14 C 672.67 691.58 672.395 692.778 672.078 694.236 C 671.698 695.493 671.166 696.71 670.678 697.939 C 668.125 698.017 666.563 695.877 663.934 693.794 C 661.526 692.895 661.576 692.947 659.503 691.4 C 649.81 686.798 639.394 682.199 631.26 674.931 C 607.471 653.679 604.081 615.55 594.438 586.505 C 590.747 575.386 587.965 568.885 583.189 558.38 z" fill="rgb(29,47,49)" transform="translate(0,0)"></path>
<path d="M 626.345 632.078 L 629.941 630.293 C 640.137 652.027 656.621 674.874 663.934 693.794 C 661.526 692.895 661.576 692.947 659.503 691.4 C 658.694 686.964 644.347 668.872 640.558 661.748 C 635.176 651.63 630.319 643.406 626.345 632.078 z" fill="rgb(182,153,106)" transform="translate(0,0)"></path>
<path d="M 672.078 694.236 C 662.253 680.829 648.971 651.466 640.98 635.957 L 633.634 621.732 C 633.273 621.003 631.28 617.661 631.646 616.832 C 633.009 617.338 657.105 658.765 659.587 662.966 C 664.027 670.481 667.37 682.346 673.061 690.14 C 672.67 691.58 672.395 692.778 672.078 694.236 z" fill="rgb(182,153,106)" transform="translate(0,0)"></path>
<path d="M 616.187 603.534 C 621.757 612.284 625.62 620.841 629.941 630.293 L 626.345 632.078 C 623.812 626.797 618.095 609.508 616.187 603.534 z" fill="rgb(182,153,106)" transform="translate(0,0)"></path>
<path d="M 1382.39 686.098 C 1382.57 653.823 1379.05 615.75 1403.94 591.807 C 1420.36 576.009 1449.07 561.677 1471.11 556.769 C 1450.77 595.388 1453.28 643.084 1423.07 674.616 C 1415.85 682.155 1398.61 687.065 1388.23 695.231 L 1384.71 697.982 L 1383.08 698.116 C 1382.03 694.565 1384.31 689.562 1385.85 686.249 C 1384.15 685.972 1383.79 685.717 1382.39 686.098 z" fill="rgb(29,47,49)" transform="translate(0,0)"></path>
<path d="M 1382.39 686.098 C 1384.85 682.453 1386.23 679.237 1388.04 675.258 C 1396.56 656.62 1407.5 639.31 1418.6 622.145 C 1420 619.995 1420.46 618.502 1421.57 616.338 C 1422.15 616.286 1421.88 616.22 1422.38 616.548 C 1423.11 618.177 1421.1 620.888 1420.4 622.197 C 1409.18 643.121 1398.09 664.14 1386.78 685.011 C 1386.54 685.462 1386.22 685.801 1385.85 686.249 C 1384.15 685.972 1383.79 685.717 1382.39 686.098 z" fill="rgb(182,153,106)" transform="translate(0,0)"></path>
<path d="M 1434.12 608.45 L 1435.42 610.533 C 1432.39 616.592 1428.67 629.142 1425.76 635.987 C 1417.2 656.146 1406.98 675.189 1392.57 691.677 C 1399.39 669.738 1414.8 652.311 1423.41 631.02 C 1426.54 623.255 1430.19 615.84 1434.12 608.45 z" fill="rgb(182,153,106)" transform="translate(0,0)"></path>
<path d="M 1434.12 608.45 C 1434.59 606.495 1435.47 604.859 1436.2 602.985 L 1437.5 602.782 L 1436.58 602.199 L 1437.52 603.029 L 1437.41 601.831 C 1437.41 601.804 1437.41 601.777 1437.41 601.75 C 1438.26 603.561 1436.08 608.671 1435.42 610.533 L 1434.12 608.45 z" fill="rgb(97,96,82)" transform="translate(0,0)"></path>
<path d="M 1348.93 788.088 C 1367.32 747.878 1351.21 721.473 1409.83 698.64 C 1432.71 689.724 1456.26 687.143 1481 688.98 C 1468.52 698.742 1461.11 705.492 1451.67 718.263 C 1432.96 743.565 1420.07 776.931 1387.99 788.122 C 1377.92 791.633 1357.29 794.604 1345.87 795.983 C 1362.87 780.656 1378.63 764.183 1395.15 748.316 L 1394.66 745.391 C 1386.23 752.834 1377.58 760.248 1369.28 767.807 C 1362.42 774.048 1355.77 781.939 1348.93 788.088 z" fill="rgb(29,47,49)" transform="translate(0,0)"></path>
<path d="M 1394.66 745.391 C 1395.7 744.324 1407.86 731.656 1408.05 732.71 C 1408.7 736.374 1400.11 743.744 1395.15 748.316 L 1394.66 745.391 z" fill="rgb(97,96,82)" transform="translate(0,0)"></path>
<path d="M 1427.75 718.077 C 1427.56 719.321 1427.5 719.808 1426.92 721.004 C 1414.5 746.875 1388.59 779.339 1361.93 790.007 C 1361.45 787.669 1372.55 778.739 1374.96 776.998 C 1397.79 760.478 1410.67 739.111 1427.75 718.077 z" fill="rgb(182,153,106)" transform="translate(0,0)"></path>
<path d="M 695.702 919.418 C 720.845 897.004 765.873 883.268 798.294 895.732 C 817.452 903.097 827.493 916.953 841.703 930.816 C 842.902 931.887 843.999 932.914 845.166 934.016 C 848.699 934.95 851.631 935.178 853.848 937.879 L 853.176 939.186 C 849.172 940.34 848.487 940.049 844.213 939.597 C 844.192 940.624 844.106 941.292 843.986 942.31 C 842.102 943.471 840.342 944.442 838.402 945.497 C 768.461 978.686 760.581 932.055 695.702 919.418 z" fill="rgb(29,47,49)" transform="translate(0,0)"></path>
<path d="M 752.617 921.269 C 786.686 937.731 809.276 934.814 844.213 939.597 C 844.192 940.624 844.106 941.292 843.986 942.31 C 842.102 943.471 840.342 944.442 838.402 945.497 L 836.759 943.016 C 819.84 942.992 809.515 943.247 792.542 939.692 C 776.006 936.228 766.393 929.59 751.848 923.18 L 752.617 921.269 z" fill="url(#Gradient2)" transform="translate(0,0)"></path>
<path d="M 843.986 942.31 C 842.102 943.471 840.342 944.442 838.402 945.497 L 836.759 943.016 C 839.391 942.667 841.346 942.467 843.986 942.31 z" fill="rgb(33,51,48)" transform="translate(0,0)"></path>
<path d="M 776.874 922.171 C 790.433 925.66 806.085 926.402 819.997 928.035 C 826.476 928.795 835.455 930.653 841.703 930.816 C 842.902 931.887 843.999 932.914 845.166 934.016 C 835.427 933.119 823.586 932.035 814.004 930.727 L 802.992 929.183 C 793.967 927.837 785.072 925.819 776.255 923.479 L 776.874 922.171 z" fill="rgb(182,153,106)" transform="translate(0,0)"></path>
<path d="M 776.255 923.479 C 773.306 923.108 767.163 921.478 764.623 920.061 L 764.275 918.835 L 763.759 919.013 L 763.661 918.729 C 764.78 917.832 775.212 921.557 776.874 922.171 L 776.255 923.479 z" fill="rgb(97,96,82)" transform="translate(0,0)"></path>
<path d="M 751.848 923.18 C 740.512 916.792 743.804 915.475 752.617 921.269 L 751.848 923.18 z" fill="rgb(97,96,82)" transform="translate(0,0)"></path>
<path d="M 730.558 806.741 C 726.264 803.075 720.843 798.752 717.162 794.588 C 685.301 758.549 708.434 704.2 743.939 680.465 C 748.502 677.415 753.233 674.861 758.015 672.26 C 759.499 694.561 767.901 742.158 762.789 759.354 C 757.845 775.987 751.046 788.035 746.283 809.395 C 746.641 812.36 746.877 812.464 745.439 815.085 C 747.002 818.664 748.517 823.797 749.768 827.612 C 743.879 821.418 739.538 816.116 735.056 808.882 C 732.267 808.59 731.849 809.194 730.558 806.741 z" fill="rgb(29,47,49)" transform="translate(0,0)"></path>
<path d="M 733.962 721.739 L 735.449 723.559 C 724.78 751.138 726.431 781.173 735.056 808.882 C 732.267 808.59 731.849 809.194 730.558 806.741 C 728.789 801.066 726.584 796.423 725.126 790.485 C 719.112 765.996 725.805 744.555 733.962 721.739 z" fill="rgb(182,153,106)" transform="translate(0,0)"></path>
<path d="M 738.342 744.556 L 740.973 747.533 C 740.732 778.321 740.518 780.123 746.283 809.395 C 746.641 812.36 746.877 812.464 745.439 815.085 L 744.783 813.549 C 735.023 791.228 734.216 768.306 738.342 744.556 z" fill="rgb(201,163,113)" transform="translate(0,0)"></path>
<path d="M 738.342 744.556 C 738.783 741.677 741.632 725.49 743.344 723.531 C 744.071 724.041 741.356 744.217 741.182 745.806 L 740.973 747.533 L 738.342 744.556 z" fill="rgb(182,153,106)" transform="translate(0,0)"></path>
<path d="M 733.962 721.739 C 734.544 719.818 735.368 715.734 736.961 714.876 C 736.992 714.281 737.052 714.539 736.852 714.088 C 737.004 714.042 737.156 713.995 737.308 713.948 C 738.285 714.787 735.772 722.268 735.449 723.559 L 733.962 721.739 z" fill="rgb(97,96,82)" transform="translate(0,0)"></path>
<path d="M 1210.1 930.7 C 1234.06 908.682 1248.23 889.644 1283.96 891.345 C 1312.06 892.683 1332.2 902.882 1354.44 919.222 C 1327.97 924.918 1317.54 931.705 1294.73 945.616 C 1268.54 961.585 1243.87 959.91 1216.52 946.989 C 1214.22 946.23 1211.92 945.455 1209.63 944.662 C 1208.2 943.357 1208.18 942.821 1207.77 940.959 C 1204.04 941.582 1202.06 942.003 1199.15 940.224 C 1200.95 935.952 1206.69 934.83 1210.76 933.592 C 1210.55 932.627 1210.33 931.663 1210.1 930.7 z" fill="rgb(29,47,49)" transform="translate(0,0)"></path>
<path d="M 1301.13 920.095 L 1302.01 921.839 C 1267.25 938.378 1256.05 943.912 1215.65 943.925 L 1216.52 946.989 C 1214.22 946.23 1211.92 945.455 1209.63 944.662 C 1208.2 943.357 1208.18 942.821 1207.77 940.959 C 1209.85 940.425 1211.44 940.198 1213.49 939.754 C 1216.66 939.066 1219.31 939.011 1222.5 938.628 C 1230.31 937.69 1238.22 937.332 1246 936.084 C 1248.14 935.75 1250.32 935.511 1252.51 935.146 C 1255.31 934.68 1258.2 934.327 1260.99 933.715 C 1270.03 931.75 1279.07 929.55 1287.74 926.272 C 1292.35 924.528 1296.46 921.672 1301.13 920.095 z" fill="url(#Gradient1)" transform="translate(0,0)"></path>
<path d="M 1209.63 944.662 C 1212.02 944.248 1213.19 944.031 1215.65 943.925 L 1216.52 946.989 C 1214.22 946.23 1211.92 945.455 1209.63 944.662 z" fill="rgb(33,51,48)" transform="translate(0,0)"></path>
<path d="M 1276.7 921.569 L 1276.04 923.851 C 1253.02 929.393 1233.95 930.879 1210.76 933.592 C 1210.55 932.627 1210.33 931.663 1210.1 930.7 C 1217.33 931.45 1227.63 929.184 1235.01 928.135 L 1242.01 927.113 C 1252.8 925.647 1266.38 924.169 1276.7 921.569 z" fill="rgb(182,153,106)" transform="translate(0,0)"></path>
<path d="M 1276.7 921.569 C 1278.78 921.119 1284.23 920.056 1286.31 920.028 L 1285.83 920.062 L 1287.43 920.239 C 1289.42 922.098 1276.89 923.693 1276.04 923.851 L 1276.7 921.569 z" fill="rgb(97,96,82)" transform="translate(0,0)"></path>
<path d="M 1301.13 920.095 C 1302.47 919.278 1305.56 917.252 1307.21 917.347 C 1307.3 917.438 1307.39 917.53 1307.47 917.622 C 1307.13 918.749 1303.11 921.113 1302.01 921.839 L 1301.13 920.095 z" fill="rgb(97,96,82)" transform="translate(0,0)"></path>
<path d="M 1296.72 673.754 C 1335.57 693.801 1361.42 731.545 1347.44 776.366 C 1343.46 789.142 1333.22 797.16 1323.51 805.506 C 1323.11 806.056 1323.06 806.403 1322.54 806.494 C 1321.69 805.812 1321.47 804.956 1320.74 804.227 L 1319.7 803.201 C 1316.09 813.223 1311.66 818.479 1303.86 825.603 C 1305.97 820.321 1308.14 814.479 1310.61 809.406 C 1308.81 807.94 1308.86 807.81 1306.68 807.092 C 1302.82 783.698 1295.56 776.643 1290.69 757.544 C 1284.93 734.935 1295.35 699.144 1296.72 673.754 z" fill="rgb(29,47,49)" transform="translate(0,0)"></path>
<path d="M 1319.7 803.201 C 1331.32 771.327 1323.82 746.185 1315.84 715.237 L 1318.72 720.392 C 1328.79 738.415 1331.56 766.669 1328.94 786.994 C 1328.12 793.374 1325.32 799.395 1323.51 805.506 C 1323.11 806.056 1323.06 806.403 1322.54 806.494 C 1321.69 805.812 1321.47 804.956 1320.74 804.227 L 1319.7 803.201 z" fill="rgb(182,153,106)" transform="translate(0,0)"></path>
<path d="M 1306.68 807.092 C 1316.38 789.643 1313.46 756.51 1310.82 737.035 C 1310.02 731.091 1307.79 725.277 1307.44 719.49 C 1309.39 720.616 1310.82 727.245 1311.42 729.277 C 1319.07 754.98 1320.99 784.419 1310.61 809.406 C 1308.81 807.94 1308.86 807.81 1306.68 807.092 z" fill="rgb(182,153,106)" transform="translate(0,0)"></path>
<path d="M 1276.48 876.973 C 1303.07 842.599 1313.73 813.439 1361.78 808.159 C 1387.07 805.38 1400.61 808.408 1425.09 816.1 C 1416.57 822.07 1401.05 832.32 1394.33 839.505 C 1361.44 874.672 1345.52 893.738 1294.77 878.43 C 1331.28 869.083 1344.2 863.753 1372.28 837.462 L 1370.3 836.109 C 1341.24 858.156 1314.01 872.72 1276.48 876.973 z" fill="rgb(29,47,49)" transform="translate(0,0)"></path>
<path d="M 1382.44 827.369 C 1379.25 830.933 1375.86 834.303 1372.28 837.462 L 1370.3 836.109 C 1374.48 832.019 1377.6 830.451 1382.44 827.369 z" fill="rgb(124,115,90)" transform="translate(0,0)"></path>
<path d="M 1350.68 841.621 C 1350.18 842.584 1349.68 843.551 1349.2 844.524 C 1346.49 845.232 1337.32 850.598 1334.04 852.278 C 1317.01 861.01 1300.18 866.512 1282.02 872.274 C 1296.65 862.048 1330.86 852.877 1350.68 841.621 z" fill="rgb(182,153,106)" transform="translate(0,0)"></path>
<path d="M 1350.68 841.621 C 1352.87 838.942 1354.59 839.343 1357.46 837.448 C 1357.79 837.233 1358.11 835.574 1358.5 835.141 C 1358.5 835.141 1359.5 836.127 1359.56 836.165 C 1360.23 835.907 1360.95 835.634 1361.63 835.423 C 1361.85 835.684 1361.76 835.514 1361.85 835.961 C 1361.16 837.944 1351.3 843.458 1349.2 844.524 C 1349.68 843.551 1350.18 842.584 1350.68 841.621 z" fill="rgb(77,82,78)" transform="translate(0,0)"></path>
<path d="M 627.51 816.745 C 648.835 808.169 668.593 805.38 691.244 808.365 C 737.17 814.419 750.953 842.27 776.369 876.456 C 755.1 874.841 721.403 864.279 703.76 851.79 C 695.48 845.929 687.126 838.631 678.628 832.576 L 677.668 834.396 C 708.751 864.022 714.334 868.067 756.86 877.906 C 753.108 879.019 737.149 884.002 733.726 884.307 C 697.174 887.563 677.985 858.763 654.412 836.836 C 647.745 830.634 634.969 822.105 627.51 816.745 z" fill="rgb(29,47,49)" transform="translate(0,0)"></path>
<path d="M 677.668 834.396 C 676.792 833.676 672.959 830.988 672.978 829.701 C 674.358 829.025 677.657 831.824 678.628 832.576 L 677.668 834.396 z" fill="rgb(124,115,90)" transform="translate(0,0)"></path>
<path d="M 693.392 835.874 C 694.55 836.309 695.23 836.527 696.258 837.139 C 710.27 845.491 725.203 851.927 740.301 857.995 C 748.356 861.233 759.248 864.44 765.915 869.942 C 746.729 866.08 707.762 849.019 693.392 835.874 z" fill="rgb(182,153,106)" transform="translate(0,0)"></path>
<path d="M 687.446 706.014 C 662.544 661.103 681.075 608.459 726.435 585.414 C 738.409 579.33 751.26 579.163 764.376 579.126 C 756.154 592.188 752.311 600.224 747.243 614.544 C 741.92 629.582 739.869 652.126 730.895 664.543 C 724.896 672.843 710.007 684.449 701.781 691.263 C 700.871 689.538 700.251 688.436 699.219 686.772 C 698.341 692.215 696.058 710.969 692.836 713.943 C 690.666 711.836 690.245 708.858 690.035 705.722 C 688.748 706.115 688.896 706.045 687.446 706.014 z" fill="rgb(29,47,49)" transform="translate(0,0)"></path>
<path d="M 687.446 706.014 C 688.283 698.851 687.33 691.019 688.112 684.003 C 690.365 663.778 703.79 630.819 718.472 616.568 C 718.216 618.672 715.49 622.002 714.525 623.727 C 703.943 642.635 694.784 664.379 691.899 685.998 C 691.007 692.687 690.998 699.038 690.035 705.722 C 688.748 706.115 688.896 706.045 687.446 706.014 z" fill="rgb(182,153,106)" transform="translate(0,0)"></path>
<path d="M 719.754 629.621 L 721.397 631.337 C 720.287 633.779 719.225 637.381 718.688 639.982 C 715.264 656.56 703.846 674.774 701.781 691.263 C 700.871 689.538 700.251 688.436 699.219 686.772 C 702.139 668.696 713.914 647.003 719.754 629.621 z" fill="rgb(182,153,106)" transform="translate(0,0)"></path>
<path d="M 719.754 629.621 L 720.426 627.834 C 720.806 626.66 721.614 623.022 723.312 622.988 C 724.066 623.919 721.757 630.066 721.397 631.337 L 719.754 629.621 z" fill="rgb(97,96,82)" transform="translate(0,0)"></path>
<path d="M 1426.86 444.081 C 1426.66 470.961 1438.14 497.046 1433.87 525.58 C 1429 558.126 1416.01 564.392 1392.04 582.606 C 1407.13 555.489 1413.37 540.8 1416.54 510.004 C 1415.94 507.672 1416.47 506.669 1414.31 506.12 C 1411.97 519.041 1392.15 582.716 1382.75 589.064 C 1381.46 585.957 1382.99 581.537 1384.25 578.568 C 1382.32 579.032 1382.5 579.028 1380.41 578.96 C 1362.38 516.423 1372.21 480.728 1426.86 444.081 z" fill="rgb(29,47,49)" transform="translate(0,0)"></path>
<path d="M 1380.41 578.96 C 1382.57 573.932 1383.15 568.629 1384.99 563.5 C 1390.62 547.788 1396.95 532.344 1402.93 516.776 C 1404.18 513.524 1402.43 514.429 1404.82 510.827 L 1404.99 511.407 L 1404.68 511.069 L 1405.15 510.952 L 1405.24 510.783 C 1406.55 514.127 1386.66 570.86 1384.25 578.568 C 1382.32 579.032 1382.5 579.028 1380.41 578.96 z" fill="rgb(182,153,106)" transform="translate(0,0)"></path>
<path d="M 1414.31 506.12 C 1414.41 503.47 1415.81 491.449 1417.26 489.58 L 1417.4 489.565 C 1417.65 489.787 1417 508.299 1416.54 510.004 C 1415.94 507.672 1416.47 506.669 1414.31 506.12 z" fill="rgb(97,96,82)" transform="translate(0,0)"></path>
<path d="M 813.658 892.906 C 812.051 892.02 810.451 891.121 808.858 890.209 C 789.301 879.029 772.976 867.883 767.196 844.545 C 759.848 814.875 774.925 778.845 789.856 754.034 C 799.11 770.891 809.709 786.881 819.276 803.572 C 833.642 828.639 827.496 848.179 823.919 874.516 C 823.953 876.024 824.502 883.623 823.366 884.55 C 822.546 884.107 822.42 883.295 822.223 882.436 C 814.035 864.351 803.88 845.35 797.822 826.576 L 796.501 828.753 C 801.003 844.561 805.296 856.895 812.078 871.906 C 816.583 881.875 823.12 893.001 827.133 902.648 C 823.52 900.053 820.136 897.802 816.904 894.734 C 815.172 894.096 815.248 894.062 813.658 892.906 z" fill="rgb(29,47,49)" transform="translate(0,0)"></path>
<path d="M 784.528 816.727 C 785.167 815.316 785.131 814.828 786.672 814.412 C 789.225 832.382 794.463 848.818 802.042 865.183 C 806.628 875.084 812.715 884.919 816.904 894.734 C 815.172 894.096 815.248 894.062 813.658 892.906 C 813.004 888.855 803.482 877.023 800.693 872.199 C 789.984 853.673 786.491 837.837 784.528 816.727 z" fill="rgb(182,153,106)" transform="translate(0,0)"></path>
<path d="M 784.528 816.727 C 782.604 809.592 785.532 796.373 786.672 814.412 C 785.131 814.828 785.167 815.316 784.528 816.727 z" fill="rgb(124,115,90)" transform="translate(0,0)"></path>
<path d="M 796.501 828.753 C 796.297 828.094 792.403 816.928 795.172 817.579 C 796.113 818.451 797.613 825.249 797.822 826.576 L 796.501 828.753 z" fill="rgb(97,96,82)" transform="translate(0,0)"></path>
<path d="M 822.223 882.436 C 822.764 879.791 823.329 877.151 823.919 874.516 C 823.953 876.024 824.502 883.623 823.366 884.55 C 822.546 884.107 822.42 883.295 822.223 882.436 z" fill="rgb(72,78,59)" transform="translate(0,0)"></path>
<path d="M 627.039 444.362 C 645.139 455.969 668.193 475.824 676.206 496.466 C 684.321 517.37 681.636 556.675 674.959 578.016 C 669.598 579.774 674.01 582.607 672.692 589.432 C 659.455 579.167 641.204 516.098 637.552 497.715 L 635.675 499.124 C 638.591 528.864 645.264 554.068 661.026 580.07 C 642.281 570.18 629.773 558.435 623.106 537.623 C 612.929 505.857 627.447 474.456 627.039 444.362 z" fill="rgb(29,47,49)" transform="translate(0,0)"></path>
<path d="M 650.963 516.9 C 655.524 528.146 659.765 539.581 664.384 550.786 C 667.652 558.715 670.4 571.095 674.959 578.016 C 669.598 579.774 674.01 582.607 672.692 589.432 C 671.06 574.954 658.746 551.401 655.528 535.987 C 654.811 532.554 651.336 521.365 649.79 518.347 L 650.963 516.9 z" fill="rgb(182,153,106)" transform="translate(0,0)"></path>
<path d="M 645.2 504.087 C 647.164 507.721 650.211 512.908 650.963 516.9 L 649.79 518.347 C 647.451 512.985 646.77 509.809 645.2 504.087 z" fill="rgb(77,82,78)" transform="translate(0,0)"></path>
<path d="M 635.675 499.124 C 635.37 497.653 634.093 491.524 635.741 490.584 C 636.742 490.926 636.939 491.884 637.052 492.9 L 637.552 497.715 L 635.675 499.124 z" fill="rgb(97,96,82)" transform="translate(0,0)"></path>
<path d="M 683.701 570.319 C 684.997 543.547 685.112 521.524 706.24 502.128 C 721.998 487.619 742.928 480.053 764.322 481.133 C 772.654 481.557 777.095 482.819 785.174 485.106 C 748.091 530.013 763.218 553.111 699.503 575.058 C 698.424 574.564 697.503 574.137 696.397 573.698 C 693.742 578.592 690.024 586.249 686.371 590.063 L 685.248 589.776 C 684.693 583.963 685.876 580.333 688.256 574.987 L 684.978 573.231 C 683.686 572.338 683.834 571.8 683.701 570.319 z" fill="rgb(29,47,49)" transform="translate(0,0)"></path>
<path d="M 686.681 569.63 C 700.816 545.004 710.888 532.156 734.968 515.938 C 718.981 533.808 698.317 551.337 688.256 574.987 L 684.978 573.231 C 683.686 572.338 683.834 571.8 683.701 570.319 L 686.681 569.63 z" fill="rgb(182,153,106)" transform="translate(0,0)"></path>
<path d="M 683.701 570.319 L 686.681 569.63 C 686.185 571.371 686.004 571.44 684.978 573.231 C 683.686 572.338 683.834 571.8 683.701 570.319 z" fill="rgb(33,51,48)" transform="translate(0,0)"></path>
<path d="M 734.099 525.442 L 735.279 527.406 C 725.351 540.594 708.151 562.493 699.503 575.058 C 698.424 574.564 697.503 574.137 696.397 573.698 C 708.732 552.226 722.223 542.869 734.099 525.442 z" fill="rgb(182,153,106)" transform="translate(0,0)"></path>
<path d="M 734.099 525.442 C 737.286 520.065 744.821 511.853 749.39 507.665 C 745.421 513.579 739.954 522.141 735.279 527.406 L 734.099 525.442 z" fill="rgb(97,96,82)" transform="translate(0,0)"></path>
<path d="M 1268.74 486.433 C 1298.34 477.299 1321.71 479.632 1346.24 499.83 C 1368.76 518.363 1369.33 543.338 1371.39 570.255 L 1371.21 572.119 C 1371.07 574.045 1370.87 574.76 1369.86 576.381 L 1366.64 577.168 C 1367.73 580.684 1369.1 584.73 1369.94 588.268 C 1368.65 588.649 1367.2 589.019 1365.95 589.484 C 1363.77 584.323 1361.24 579.118 1358.86 574.029 C 1358.65 574.382 1358.44 574.732 1358.24 575.088 C 1357.88 575.74 1357.57 576.62 1356.88 577.038 C 1356.76 577.106 1356.58 577.133 1356.45 577.08 C 1356 576.893 1355.71 575.977 1355.59 575.747 C 1347.37 571.598 1323.28 561.837 1317.83 556.968 C 1293.43 535.16 1295.46 510.805 1268.74 486.433 z" fill="rgb(29,47,49)" transform="translate(0,0)"></path>
<path d="M 1366.64 577.168 C 1357.9 553.639 1338.99 534.389 1320.72 517.754 C 1320.65 517.686 1318.75 516.023 1318.6 515.533 C 1319.77 515.509 1322.37 516.768 1322.99 517.327 C 1339.02 531.786 1361.62 549.034 1367.49 570.599 L 1371.39 570.255 L 1371.21 572.119 C 1371.07 574.045 1370.87 574.76 1369.86 576.381 L 1366.64 577.168 z" fill="rgb(182,153,106)" transform="translate(0,0)"></path>
<path d="M 1371.39 570.255 L 1371.21 572.119 C 1371.07 574.045 1370.87 574.76 1369.86 576.381 C 1368.95 574.309 1368.27 572.743 1367.49 570.599 L 1371.39 570.255 z" fill="rgb(33,51,48)" transform="translate(0,0)"></path>
<path d="M 1320.56 525.375 C 1333.55 542.393 1348.64 554.643 1358.86 574.029 C 1358.65 574.382 1358.44 574.732 1358.24 575.088 C 1357.88 575.74 1357.57 576.62 1356.88 577.038 C 1356.76 577.106 1356.58 577.133 1356.45 577.08 C 1356 576.893 1355.71 575.977 1355.59 575.747 C 1353.91 572.619 1352.77 571.023 1350.46 568.172 C 1343.98 560.201 1337.68 552.096 1331.54 543.86 C 1327.47 538.396 1323.72 532.713 1319.56 527.354 L 1320.56 525.375 z" fill="rgb(182,153,106)" transform="translate(0,0)"></path>
<path d="M 1302.55 506.924 C 1311.01 512.976 1315.06 516.107 1320.56 525.375 L 1319.56 527.354 C 1313.99 521.11 1308.51 513.643 1302.55 506.924 z" fill="rgb(97,96,82)" transform="translate(0,0)"></path>
<path d="M 1230.29 884.702 C 1228.51 872.92 1226.12 859.488 1225.3 847.698 C 1222.69 809.991 1247.92 785.193 1265.48 753.975 C 1278.7 782.925 1295.82 818.172 1284.24 850.552 C 1276.83 871.296 1259.07 881.935 1240.59 891.73 C 1239.01 894.424 1238.43 893.893 1235.3 894.976 C 1234.3 895.432 1227.85 900.628 1226.54 901.657 C 1233.91 884.102 1244.8 867.274 1250.43 848.751 C 1252.28 842.655 1254.42 836.439 1256.46 830.392 L 1254.47 827.795 C 1247.63 849.576 1237.41 864.547 1230.29 884.702 z" fill="rgb(29,47,49)" transform="translate(0,0)"></path>
<path d="M 1267.43 814.478 C 1269.13 814.495 1268.93 815.424 1269.52 816.881 C 1267.03 838.826 1261.59 857.515 1250.03 876.515 C 1247.12 881.285 1242.95 886.905 1240.59 891.73 C 1239.01 894.424 1238.43 893.893 1235.3 894.976 C 1248.67 867.566 1262.86 847.7 1267.43 814.478 z" fill="rgb(182,153,106)" transform="translate(0,0)"></path>
<path d="M 1254.47 827.795 C 1255.07 825.83 1259.38 811.551 1260.19 810.958 C 1260.42 810.932 1260.28 810.906 1260.59 811.147 C 1261.08 812.875 1257.15 827.642 1256.46 830.392 L 1254.47 827.795 z" fill="rgb(124,115,90)" transform="translate(0,0)"></path>
<path d="M 1269.44 797.074 C 1269.8 802.498 1270.73 811.845 1269.52 816.881 C 1268.93 815.424 1269.13 814.495 1267.43 814.478 C 1268.15 808.38 1268.54 803.313 1269.44 797.074 z" fill="rgb(124,115,90)" transform="translate(0,0)"></path>
<path d="M 790.919 992.518 C 828.566 953.453 869.56 941.294 918.218 971.061 C 920.485 971.934 922.247 972.394 924.561 973.377 C 925.185 974.783 925.392 975.298 926.132 976.575 C 929.578 977.228 933.648 977.681 936.543 979.447 C 932.718 982.706 925.77 982.443 923.365 983.789 C 921.694 986.236 918.902 988.937 915.866 989.299 C 914.083 990.706 912.579 991.977 910.881 993.479 C 864.394 1034.56 841.143 1009 792.733 993.105 L 790.919 992.518 z" fill="rgb(29,47,49)" transform="translate(0,0)"></path>
<path d="M 842.82 991.434 C 876.562 995.428 893.251 985.182 923.365 983.789 C 921.694 986.236 918.902 988.937 915.866 989.299 C 914.083 990.706 912.579 991.977 910.881 993.479 L 906.601 991.531 C 883.525 999.537 864.524 998.4 841.094 993.679 L 842.82 991.434 z" fill="rgb(182,153,106)" transform="translate(0,0)"></path>
<path d="M 906.601 991.531 C 910.863 990.225 911.568 989.569 915.866 989.299 C 914.083 990.706 912.579 991.977 910.881 993.479 L 906.601 991.531 z" fill="rgb(33,51,48)" transform="translate(0,0)"></path>
<path d="M 918.218 971.061 C 920.485 971.934 922.247 972.394 924.561 973.377 C 925.185 974.783 925.392 975.298 926.132 976.575 C 910.892 978.554 895.668 979.588 880.507 983.183 C 869.686 985.75 859.396 985.384 848.54 986.067 C 850.572 985.392 852.597 984.697 854.616 983.983 C 861.403 984.191 879.113 979.768 886.513 978.123 L 893.488 976.753 C 902.407 974.966 907.422 974.663 916.571 974.602 L 918.218 971.061 z" fill="rgb(182,153,106)" transform="translate(0,0)"></path>
<path d="M 918.218 971.061 C 920.485 971.934 922.247 972.394 924.561 973.377 C 921.531 974.044 919.66 974.267 916.571 974.602 L 918.218 971.061 z" fill="rgb(50,58,58)" transform="translate(0,0)"></path>
<path d="M 825.076 988.312 C 829.057 988.877 839.126 990.144 842.82 991.434 L 841.094 993.679 C 834.998 992.504 830.729 990.62 825.076 988.312 z" fill="rgb(124,115,90)" transform="translate(0,0)"></path>
<path d="M 848.54 986.067 C 846.778 986.195 845.078 986.355 843.313 986.184 L 843.711 986.122 L 841.744 985.795 C 841.627 985.481 841.62 985.614 841.709 985.386 C 843.462 983.917 852.221 983.954 854.616 983.983 C 852.597 984.697 850.572 985.392 848.54 986.067 z" fill="rgb(50,58,58)" transform="translate(0,0)"></path>
<path d="M 1219.76 407.601 C 1248.26 394.709 1268.74 387.331 1298.85 401.532 C 1324.51 413.63 1334.51 430.432 1343.13 456.604 C 1344.18 459.8 1345.13 459.915 1343.75 462.771 L 1341.78 466.373 C 1344.21 469.31 1346.22 471.07 1346.91 474.764 L 1345.97 476.326 C 1343.21 476.086 1339.82 473.43 1337.94 471.544 C 1335.61 472.023 1335.71 472.128 1333.58 471.289 C 1317.74 466.222 1303.32 466.522 1288.31 461.233 C 1268.36 454.203 1254.2 435.479 1239.16 421.702 C 1232.96 416.019 1226.88 412.17 1219.76 407.601 z" fill="rgb(29,47,49)" transform="translate(0,0)"></path>
<path d="M 1284.21 425.454 C 1298.7 432.516 1312.46 436.703 1325.9 446.524 C 1332.21 451.137 1338.43 459.212 1343.75 462.771 L 1341.78 466.373 C 1326.22 451.564 1302.19 433.654 1281.7 426.851 L 1284.21 425.454 z" fill="rgb(182,153,106)" transform="translate(0,0)"></path>
<path d="M 1281.61 433.368 C 1301.67 446.848 1320.05 453.48 1337.94 471.544 C 1335.61 472.023 1335.71 472.128 1333.58 471.289 C 1333.06 469.936 1332.54 468.903 1331.12 468.232 C 1312.5 459.46 1297.21 445.41 1280.03 434.726 L 1281.61 433.368 z" fill="rgb(182,153,106)" transform="translate(0,0)"></path>
<path d="M 1280.03 434.726 C 1277.61 433.101 1262.58 422.082 1262.44 420.349 C 1264.65 420.393 1279.24 431.489 1281.61 433.368 L 1280.03 434.726 z" fill="rgb(97,96,82)" transform="translate(0,0)"></path>
<path d="M 1281.7 426.851 C 1274.65 423.693 1279.71 423.795 1284.21 425.454 L 1281.7 426.851 z" fill="rgb(124,115,90)" transform="translate(0,0)"></path>
<path d="M 1288.8 579.162 C 1303.79 580.235 1319.36 580.859 1332.64 588.449 C 1363.13 605.883 1382.47 641.574 1377.1 676.752 C 1375.23 688.966 1372.23 696.778 1366.15 707.5 C 1366.75 674.069 1363.25 659.187 1344.8 630.451 L 1343.77 632.385 C 1354.54 653.375 1368.29 692.006 1361.33 715.373 L 1360.07 716.322 C 1358.17 711.792 1356.62 696.257 1356.09 690.812 L 1353.22 693.675 C 1345.24 685.743 1330.03 671.737 1323.65 663.728 C 1315.57 653.573 1311.4 628.941 1306.77 615.823 C 1301.05 599.623 1298.2 593.678 1288.8 579.162 z" fill="rgb(29,47,49)" transform="translate(0,0)"></path>
<path d="M 1353.22 693.675 C 1349.99 679.01 1341.31 661.837 1336.78 647.14 C 1335.93 644.386 1330.26 624.126 1329.56 623 L 1329.64 622.891 C 1333.48 624.132 1354.71 682.775 1356.09 690.812 L 1353.22 693.675 z" fill="rgb(182,153,106)" transform="translate(0,0)"></path>
<path d="M 1343.77 632.385 C 1342.75 630.797 1335.35 619.782 1335.8 618.821 C 1336.05 618.651 1335.9 618.708 1336.25 618.662 C 1338.12 619.389 1343.97 628.651 1344.8 630.451 L 1343.77 632.385 z" fill="rgb(97,96,82)" transform="translate(0,0)"></path>
<path d="M 709.673 464.496 C 717.744 445.624 722.867 426.261 739.45 413.086 C 771.407 387.698 800.198 389.268 834.296 407.106 C 826.456 413.342 819.641 418.892 812.305 425.731 C 796.166 440.774 785.615 455.994 763.48 462.217 C 750.604 465.837 740.628 466.47 727.779 468.612 C 724.558 469.86 722.337 470.037 719.008 470.213 C 713.396 473.529 709.394 475.564 703.514 478.367 C 706.239 474.61 709.007 471.364 711.974 467.815 C 709.921 466.6 709.415 466.916 709.673 464.496 z" fill="rgb(29,47,49)" transform="translate(0,0)"></path>
<path d="M 709.673 464.496 C 712.764 463.446 721.138 453.774 724.805 450.803 C 736.246 441.536 766.72 424.464 780.697 423.213 L 781.3 423.5 C 781.322 423.508 781.344 423.517 781.366 423.526 C 780.806 424.873 771.065 428.556 769.309 429.376 C 748.903 438.916 727.732 451.538 711.974 467.815 C 709.921 466.6 709.415 466.916 709.673 464.496 z" fill="rgb(182,153,106)" transform="translate(0,0)"></path>
<path d="M 721.888 467.398 C 738.768 451.188 762.52 442.954 780.84 428.592 C 781.448 428.115 785.866 425.497 786.549 425.551 L 786.589 425.532 C 783.927 432.303 735.224 462.289 726.172 466.463 C 724.724 466.809 723.344 467.095 721.888 467.398 z" fill="rgb(182,153,106)" transform="translate(0,0)"></path>
<path d="M 726.172 466.463 C 726.361 468.008 726.445 467.89 727.779 468.612 C 724.558 469.86 722.337 470.037 719.008 470.213 C 720.305 468.823 720.52 468.51 721.888 467.398 C 723.344 467.095 724.724 466.809 726.172 466.463 z" fill="rgb(72,78,59)" transform="translate(0,0)"></path>
<path d="M 854.971 822.76 C 876.42 845.799 901.738 876.946 908.031 908.716 C 910.606 921.715 911.081 938.291 915.275 950.942 L 915.901 952.281 C 916.715 953.882 916.868 955.652 917.153 957.399 L 919.506 962.355 L 918.876 963.673 C 914.139 962.325 907.008 954.768 903.452 951.187 C 883.856 931.454 868.492 909.093 859.294 882.727 L 857.437 884.641 C 863.836 907.389 871.453 929.442 888.01 947.104 C 869.391 940.167 855.413 933.626 846.551 914.063 C 831.121 880 847.076 853.295 854.971 822.76 z" fill="rgb(29,47,49)" transform="translate(0,0)"></path>
<path d="M 873.825 894.432 C 878.368 901.801 882.704 907.184 887.947 913.997 C 896.288 924.834 906.232 941.342 915.275 950.942 L 915.901 952.281 C 916.715 953.882 916.868 955.652 917.153 957.399 C 899.053 940.142 884.718 918.13 872.887 896.199 L 873.825 894.432 z" fill="rgb(182,153,106)" transform="translate(0,0)"></path>
<path d="M 872.887 896.199 C 871.619 894.39 864.823 884.788 866.465 882.821 C 868.241 882.179 873.269 893.142 873.825 894.432 L 872.887 896.199 z" fill="rgb(77,82,78)" transform="translate(0,0)"></path>
<path d="M 857.437 884.641 C 857.159 883.072 855.609 873.89 856.702 872.879 C 857.843 873.082 859.168 881.312 859.294 882.727 L 857.437 884.641 z" fill="rgb(97,96,82)" transform="translate(0,0)"></path>
<path d="M 1138.59 946.792 C 1141.22 934.182 1142.31 919.928 1145.19 907.575 C 1153.04 873.951 1175.81 847.965 1197.09 822.078 C 1207.22 845.507 1218.41 882.453 1209.05 907.242 C 1200.79 929.101 1186.23 937.679 1166.38 946.981 C 1169.82 938.932 1177.62 928.056 1182 919.86 C 1189.07 906.631 1191.81 894.788 1195.64 880.479 L 1193.09 880.988 C 1179.44 917.222 1163.1 945.479 1128.37 966.44 C 1132.98 959.51 1135.94 956.36 1141.67 950.178 C 1138.86 949.092 1136.86 949.771 1138.59 946.792 z" fill="rgb(29,47,49)" transform="translate(0,0)"></path>
<path d="M 1138.59 946.792 C 1140.5 947.668 1140.46 946.959 1141.65 945.288 C 1153.32 928.872 1166.25 913.203 1176.42 895.776 C 1178.75 891.778 1181.54 886.901 1184.28 883.226 L 1185.25 881.901 L 1183.07 887.152 C 1176.94 901.966 1153.9 940.474 1141.67 950.178 C 1138.86 949.092 1136.86 949.771 1138.59 946.792 z" fill="rgb(182,153,106)" transform="translate(0,0)"></path>
<path d="M 1196.95 868.205 C 1196.63 875.171 1196.82 873.352 1195.64 880.479 L 1193.09 880.988 C 1193.42 879.836 1193.7 878.708 1194.03 877.578 C 1194.92 874.428 1195.89 871.302 1196.95 868.205 z" fill="rgb(124,115,90)" transform="translate(0,0)"></path>
<path d="M 1048.53 959.575 C 1052.94 930.621 1061.57 906.899 1085.9 888.247 C 1097.86 879.076 1119.39 870.148 1134.37 868.348 C 1131.9 899.439 1128.04 934.38 1102.72 956.199 C 1088.93 967.995 1071.1 973.986 1052.98 972.912 C 1052.52 972.332 1051.86 971.861 1051.32 971.386 L 1048.76 972.033 L 1047.47 970.949 C 1047.72 969.171 1048.36 967.394 1049.59 966.083 C 1065.56 949.111 1079.2 929.944 1094.17 912.289 L 1092.69 910.058 C 1076.7 926.814 1062.64 941.076 1048.53 959.575 z" fill="rgb(29,47,49)" transform="translate(0,0)"></path>
<path d="M 1099.11 919.314 L 1100.23 921.301 C 1094.54 929.788 1088.51 938.038 1082.14 946.033 C 1073.3 957.167 1064.2 964.592 1052.98 972.912 C 1052.52 972.332 1051.86 971.861 1051.32 971.386 C 1056.3 964.968 1063.55 959.751 1069.23 954.082 C 1079.13 944.185 1091.2 930.882 1099.11 919.314 z" fill="rgb(182,153,106)" transform="translate(0,0)"></path>
<path d="M 1109.6 903.501 C 1107.07 909.548 1104.5 916.266 1100.23 921.301 L 1099.11 919.314 C 1101.86 914.687 1106.46 908.331 1109.6 903.501 z" fill="rgb(97,96,82)" transform="translate(0,0)"></path>
<path d="M 1092.69 910.058 C 1096.16 906.651 1098.51 904.857 1102.39 901.977 C 1099.93 905.159 1096.83 909.467 1094.17 912.289 L 1092.69 910.058 z" fill="rgb(124,115,90)" transform="translate(0,0)"></path>
<path d="M 1127.9 973.533 C 1138.63 968.49 1151.21 962.01 1162.43 958.643 C 1196.98 948.276 1238.99 963.857 1259.99 992.727 C 1210.18 1014.46 1182.24 1030.89 1137.5 991.265 C 1165.63 997.215 1180.93 1000.31 1209.98 993.546 L 1206.31 991.616 C 1181.99 994.562 1141.71 986.973 1116.58 981.439 C 1114.83 981.053 1115.14 981.036 1114.36 979.296 C 1117.05 976.909 1116.83 977.586 1120.87 976.683 C 1125.7 975.383 1124.61 974.778 1127.9 973.533 z" fill="rgb(29,47,49)" transform="translate(0,0)"></path>
<path d="M 1120.87 976.683 C 1125.7 975.383 1124.61 974.778 1127.9 973.533 C 1140.37 975.353 1151.09 975.726 1163.99 978.154 L 1168.99 979.221 C 1170.43 979.521 1172.03 979.894 1173.48 980.209 L 1182.49 982.099 C 1186.62 982.954 1190.69 983.873 1194.88 984.367 C 1195.28 985.135 1195.35 985.454 1195.61 986.265 C 1170.27 984.372 1147.29 977.722 1120.87 976.683 z" fill="rgb(182,153,106)" transform="translate(0,0)"></path>
<path d="M 1206.31 991.616 C 1208.22 991.267 1220.06 988.887 1221.08 989.384 C 1221.25 989.642 1221.23 989.518 1221.19 989.753 C 1219.94 991.32 1212.24 993.048 1209.98 993.546 L 1206.31 991.616 z" fill="rgb(124,115,90)" transform="translate(0,0)"></path>
<path d="M 1194.88 984.367 C 1196.36 984.461 1203.86 984.633 1204.43 986.495 C 1203.43 987.974 1197.33 986.821 1195.61 986.265 C 1195.35 985.454 1195.28 985.135 1194.88 984.367 z" fill="rgb(97,96,82)" transform="translate(0,0)"></path>
<path d="M 918.815 867.818 C 974.144 883.22 990.679 902.702 1003.32 957.809 C 993.858 946.407 971.47 924.303 960.309 912.619 L 958.775 914.325 C 972.982 932.769 985.987 949.559 1002.9 965.589 C 1004.57 967.175 1005.53 968.852 1005.33 971.114 L 1004.83 971.575 C 1003.58 971.829 1002.1 972.05 1000.93 972.513 C 999.361 972.804 998.387 972.902 996.783 972.986 C 978.586 973.761 960.836 967.222 947.491 954.827 C 923.539 932.896 919.935 898.165 918.815 867.818 z" fill="rgb(29,47,49)" transform="translate(0,0)"></path>
<path d="M 953.201 918.176 C 961.164 931.638 991.616 966.149 1004.83 971.575 C 1003.58 971.829 1002.1 972.05 1000.93 972.513 C 975.358 950.388 973.73 950.309 953.293 922.623 L 953.201 918.176 z" fill="rgb(182,153,106)" transform="translate(0,0)"></path>
<path d="M 953.293 922.623 C 952.532 921.34 945.286 909.745 948.302 909.879 L 948.191 910.047 C 948.309 910.833 948.231 910.446 948.423 911.207 L 949.57 911.323 C 950.762 913.714 952.023 915.822 953.201 918.176 L 953.293 922.623 z" fill="rgb(97,96,82)" transform="translate(0,0)"></path>
<path d="M 949.98 903.191 C 953.575 906.304 957.006 909.18 960.309 912.619 L 958.775 914.325 C 955.323 910.805 952.822 907.155 949.98 903.191 z" fill="rgb(124,115,90)" transform="translate(0,0)"></path>
<path d="M 1367.66 350.951 C 1375.13 390.921 1395.65 390.857 1394.12 444.016 L 1393.47 450.224 C 1391.06 456.795 1381.61 467.2 1376.93 473.56 C 1380.73 449.321 1379.64 429.151 1372.52 405.696 L 1370.75 405.846 C 1376.24 428.561 1373.84 467.212 1367.74 490.009 L 1363.29 482.102 C 1353.33 468.907 1335.87 432.48 1336.01 415.692 C 1336.22 390.644 1351.02 368.017 1367.66 350.951 z" fill="rgb(29,47,49)" transform="translate(0,0)"></path>
<path d="M 1364.06 416.956 C 1364.66 420.095 1365.13 422.44 1365.93 425.571 C 1365.92 436.135 1367.98 449.403 1366.17 459.5 C 1365.01 465.935 1368.8 481.189 1363.29 482.102 C 1361.37 464.312 1363.91 436.22 1364.06 416.956 z" fill="rgb(201,163,113)" transform="translate(0,0)"></path>
<path d="M 1364.06 416.956 C 1363.86 415.308 1363.43 409.674 1364.45 408.253 C 1364.66 408.166 1364.54 408.171 1364.82 408.285 C 1366.47 411.228 1366.08 422.045 1365.93 425.571 C 1365.13 422.44 1364.66 420.095 1364.06 416.956 z" fill="rgb(97,96,82)" transform="translate(0,0)"></path>
<path d="M 1370.75 405.846 C 1369.52 403.509 1367.82 398.948 1367.69 396.372 L 1368.34 396.033 C 1370.24 397.646 1370.73 400.284 1371.52 402.72 L 1372.52 405.696 L 1370.75 405.846 z" fill="rgb(97,96,82)" transform="translate(0,0)"></path>
<path d="M 688.959 352.87 C 701.666 363.92 708.88 375.229 714.916 390.96 C 726.889 422.162 711.833 448.842 696.525 475.678 C 694.9 477.813 693.703 479.178 691.929 481.187 C 689.824 482.352 690.001 483.858 689.279 486.217 L 687.759 489.487 L 686.897 488.908 C 680.37 473.394 681.95 418.833 685.675 401.805 L 683.012 402.965 C 675.964 430.517 675.491 444.634 677.161 473.301 C 663.4 455.111 658.351 448.896 661.412 424.606 C 665.102 395.338 681.363 380.854 688.959 352.87 z" fill="rgb(29,47,49)" transform="translate(0,0)"></path>
<path d="M 689.383 418.484 C 690.132 418.504 689.899 418.439 690.218 418.584 C 690.432 418.89 691.404 430.224 691.84 432.539 C 691.888 446.635 693.854 460.295 692.676 474.415 L 696.525 475.678 C 694.9 477.813 693.703 479.178 691.929 481.187 C 689.824 482.352 690.001 483.858 689.279 486.217 C 688.842 463.641 688.877 441.058 689.383 418.484 z" fill="rgb(182,153,106)" transform="translate(0,0)"></path>
<path d="M 692.676 474.415 L 696.525 475.678 C 694.9 477.813 693.703 479.178 691.929 481.187 C 692.139 478.926 692.388 476.668 692.676 474.415 z" fill="rgb(33,51,48)" transform="translate(0,0)"></path>
<path d="M 691.673 399.632 C 691.953 409.538 692.361 422.681 691.84 432.539 C 691.404 430.224 690.432 418.89 690.218 418.584 C 689.899 418.439 690.132 418.504 689.383 418.484 C 689.334 412.129 690.509 405.844 691.673 399.632 z" fill="rgb(97,96,82)" transform="translate(0,0)"></path>
<path d="M 683.012 402.965 C 683.422 401.5 685.139 392.252 687.102 392.529 C 687.244 392.699 687.176 392.295 687.305 393.872 L 686.595 393.43 L 687.227 394.347 C 686.885 395.897 686.558 397.45 686.245 399.007 C 686.055 399.939 685.865 400.872 685.675 401.805 L 683.012 402.965 z" fill="rgb(97,96,82)" transform="translate(0,0)"></path>
<path d="M 793.032 365.043 C 822.464 325.557 875.912 313.675 913.559 348.741 C 891.395 354.143 879.595 367.091 860.617 377.066 C 844.354 385.614 813.184 381.589 794.95 378.708 C 792.803 378.542 792.786 378.315 791.055 377.081 C 787.898 378.564 786.552 378.686 783.261 378.292 L 782.413 377.012 C 784.783 371.606 788.15 371.233 793.449 369.215 C 789.476 366.728 793.007 368.405 793.032 365.043 z" fill="rgb(29,47,49)" transform="translate(0,0)"></path>
<path d="M 791.055 377.081 C 793.657 373.586 804.159 371.72 808.478 370.757 L 815.017 369.245 L 821.982 367.728 C 837.416 364.334 853.23 360.957 868.299 356.438 C 868.314 356.436 868.33 356.433 868.346 356.43 C 865.368 360.421 830.359 370.208 823.487 371.922 C 818.524 373.147 813.531 374.247 808.512 375.221 C 803.887 376.152 799.23 376.75 794.95 378.708 C 792.803 378.542 792.786 378.315 791.055 377.081 z" fill="rgb(182,153,106)" transform="translate(0,0)"></path>
<path d="M 828.601 355.353 C 832.397 355.667 832.486 355.472 835.517 357.665 C 820.985 361.168 807.663 364.067 793.449 369.215 C 789.476 366.728 793.007 368.405 793.032 365.043 C 800.504 362.57 805.963 359.828 814.01 358.144 C 818.85 357.096 823.715 356.166 828.601 355.353 z" fill="rgb(182,153,106)" transform="translate(0,0)"></path>
<path d="M 828.601 355.353 C 830.995 354.834 858.381 352.32 859.347 352.868 C 859.354 352.96 859.36 353.053 859.367 353.145 C 857.019 354.496 838.404 357.409 835.517 357.665 C 832.486 355.472 832.397 355.667 828.601 355.353 z" fill="rgb(124,115,90)" transform="translate(0,0)"></path>
<path d="M 768.156 280.274 C 768.981 281.424 769.781 282.591 770.558 283.774 C 782.827 302.509 788.195 329.325 783.597 351.448 C 779.084 373.165 758.593 383.23 740.968 394.081 C 749.699 375.93 754.735 363.59 760.355 344.332 L 758.962 342.971 C 753.118 360.651 736.084 396.66 724.761 411.051 C 726.832 402.304 728.115 397.693 731.445 389.332 L 728.202 385.21 C 726.528 382.197 725.978 374.049 725.904 370.26 C 725.175 332.752 752.569 310.945 768.156 280.274 z" fill="rgb(29,47,49)" transform="translate(0,0)"></path>
<path d="M 754.064 333.27 L 755.362 335.456 C 747.24 353.209 739.644 371.539 731.445 389.332 L 728.202 385.21 L 754.064 333.27 z" fill="rgb(182,153,106)" transform="translate(0,0)"></path>
<path d="M 754.064 333.27 C 754.44 331.897 758.887 320.833 759.467 320.495 C 761.076 322.789 756.379 332.762 755.362 335.456 L 754.064 333.27 z" fill="rgb(97,96,82)" transform="translate(0,0)"></path>
<path d="M 758.962 342.971 C 759.442 340.024 759.725 337.588 761.122 335.006 C 761.482 334.794 761.311 334.831 761.632 334.846 C 762.966 336.129 760.807 342.641 760.355 344.332 L 758.962 342.971 z" fill="rgb(124,115,90)" transform="translate(0,0)"></path>
<path d="M 1143.26 348.787 C 1167.61 328.563 1186.61 323.225 1217.6 332.624 C 1237.16 338.557 1248.42 348.703 1262.41 363.045 C 1248.04 359.145 1237.38 357.259 1222.9 355.386 C 1220.85 356.121 1220.85 356.236 1218.98 357.61 C 1234.36 360.921 1262.88 365.334 1273.81 376.037 L 1273.82 377.224 C 1270.34 377.726 1267.06 376.407 1263.93 374.834 C 1264.66 377.68 1265.03 377.193 1263.03 378.724 L 1259.7 378.57 C 1240.3 381.503 1212.98 386.848 1195.38 377.269 C 1177.45 367.514 1163.89 354.497 1143.26 348.787 z" fill="rgb(29,47,49)" transform="translate(0,0)"></path>
<path d="M 1192.87 357.161 C 1202.23 360.585 1214.21 363.144 1223.98 365.235 L 1235.53 367.68 C 1244.79 369.182 1255.29 371.315 1263.93 374.834 C 1264.66 377.68 1265.03 377.193 1263.03 378.724 L 1259.7 378.57 C 1258.25 377.698 1257.01 376.866 1255.61 375.926 C 1235.82 374.215 1213.89 367.102 1195.43 360.15 L 1192.1 358.888 L 1192.87 357.161 z" fill="rgb(182,153,106)" transform="translate(0,0)"></path>
<path d="M 1255.61 375.926 L 1257.19 376.135 C 1259.96 376.458 1260.85 377.009 1263.03 378.724 L 1259.7 378.57 C 1258.25 377.698 1257.01 376.866 1255.61 375.926 z" fill="rgb(97,96,82)" transform="translate(0,0)"></path>
<path d="M 1218.98 357.61 C 1216.75 357.422 1202.05 354.599 1200.84 353.198 C 1200.87 353.087 1200.89 352.975 1200.92 352.863 C 1201.18 352.761 1221.76 355.044 1222.9 355.386 C 1220.85 356.121 1220.85 356.236 1218.98 357.61 z" fill="rgb(124,115,90)" transform="translate(0,0)"></path>
<path d="M 1178.68 351.95 C 1184.28 353.743 1187.57 354.566 1192.87 357.161 L 1192.1 358.888 C 1187.19 357.301 1183.05 354.603 1178.68 351.95 z" fill="rgb(97,96,82)" transform="translate(0,0)"></path>
<path d="M 1288.23 281.302 L 1288.89 282.695 C 1295.83 297.177 1308.59 311.32 1317.39 325.124 C 1327.54 341.053 1334.81 368.773 1328.33 387.146 C 1326.16 387.008 1325.74 387.254 1324.28 388.885 C 1327.13 397.479 1328.69 401.027 1330.34 410.233 C 1317.26 391.949 1302.81 357.931 1296.55 336.395 L 1294.3 336.659 C 1298.15 352.111 1302.15 366.624 1308.63 381.23 C 1310.43 385.284 1312.71 390.222 1314.2 394.332 C 1297.22 384.766 1277.74 370.509 1272.41 350.765 C 1265.77 326.222 1274.37 301.435 1288.23 281.302 z" fill="rgb(29,47,49)" transform="translate(0,0)"></path>
<path d="M 1292.77 327.247 C 1289.4 322.519 1292.06 322.021 1296.1 321.878 C 1296.95 325.761 1300.23 332.915 1301.8 337.021 C 1309.2 352.541 1316.89 374.194 1324.28 388.885 C 1327.13 397.479 1328.69 401.027 1330.34 410.233 C 1317.26 391.949 1302.81 357.931 1296.55 336.395 L 1294.3 336.659 C 1293.69 333.541 1293.13 330.404 1292.77 327.247 z" fill="rgb(33,51,48)" transform="translate(0,0)"></path>
<path d="M 1292.77 327.247 C 1293.42 326.754 1293.19 326.843 1293.52 326.773 C 1294.61 327.278 1296.24 334.976 1296.55 336.395 L 1294.3 336.659 C 1293.69 333.541 1293.13 330.404 1292.77 327.247 z" fill="rgb(124,115,90)" transform="translate(0,0)"></path>
<path d="M 1301.8 337.021 L 1304.79 336.64 C 1310.6 349.856 1318.72 363.84 1324.91 376.998 C 1326.77 380.935 1326.65 383.351 1328.33 387.146 C 1326.16 387.008 1325.74 387.254 1324.28 388.885 C 1316.89 374.194 1309.2 352.541 1301.8 337.021 z" fill="rgb(182,153,106)" transform="translate(0,0)"></path>
<path d="M 1296.1 321.878 C 1295.92 321.156 1295.74 320.43 1295.57 319.713 C 1297.22 321.785 1303.65 333.932 1304.79 336.64 L 1301.8 337.021 C 1300.23 332.915 1296.95 325.761 1296.1 321.878 z" fill="rgb(124,115,90)" transform="translate(0,0)"></path>
<path d="M 1096.9 253.451 C 1124.09 249.086 1151.53 249.82 1172.74 270.014 C 1184.27 280.993 1188.05 292.455 1194.33 306.475 C 1194.59 308.987 1194.04 308.524 1191.74 309.312 L 1194.69 311.466 C 1204.48 318.663 1195.39 317.757 1188.95 314.044 C 1185.66 313.309 1185.67 313.387 1182.96 315.364 C 1178.46 316.667 1175.26 316.102 1170.78 315.087 L 1164.82 314.719 C 1162.84 317.45 1160.84 314.859 1157.49 314.426 L 1156.49 314.875 L 1156.76 314.415 L 1156.42 314.561 C 1157.09 315.228 1158.07 315.537 1158.83 316.159 L 1158.65 317.031 L 1159.17 316.63 L 1158.54 317.179 C 1153.95 317.933 1140.17 307.55 1136.92 302.359 C 1136.7 302.116 1136.47 301.872 1136.24 301.629 C 1118.33 286.487 1113.71 270.451 1096.9 253.451 z" fill="rgb(29,47,49)" transform="translate(0,0)"></path>
<path d="M 1131.19 272.436 C 1132.79 271.598 1132.74 271.484 1134.39 271.439 C 1136.47 272.253 1136.52 272.156 1138.1 273.62 C 1140.19 275.674 1189.02 308.109 1191.74 309.312 L 1194.69 311.466 C 1204.48 318.663 1195.39 317.757 1188.95 314.044 C 1176.22 305.008 1140.85 283.448 1131.19 272.436 z" fill="rgb(33,51,48)" transform="translate(0,0)"></path>
<path d="M 1138.1 273.62 C 1135.91 275.003 1135.33 273.438 1134.39 271.439 C 1136.47 272.253 1136.52 272.156 1138.1 273.62 z" fill="rgb(97,96,82)" transform="translate(0,0)"></path>
<path d="M 1179.93 313.766 C 1169.55 308.479 1132.44 278.483 1127.52 270.39 C 1129.03 270.609 1130.27 271.202 1131.19 272.436 C 1140.85 283.448 1176.22 305.008 1188.95 314.044 C 1185.66 313.309 1185.67 313.387 1182.96 315.364 C 1181.91 314.11 1181.63 314.225 1179.93 313.766 z" fill="rgb(182,153,106)" transform="translate(0,0)"></path>
<path d="M 1138.1 273.62 L 1141.65 274.895 C 1157.18 280.44 1181.86 302.797 1194.33 306.475 C 1194.59 308.987 1194.04 308.524 1191.74 309.312 C 1189.02 308.109 1140.19 275.674 1138.1 273.62 z" fill="rgb(182,153,106)" transform="translate(0,0)"></path>
<path d="M 1136.92 302.359 C 1143.14 306.165 1147.02 308.661 1153.98 311.197 C 1157.05 312.315 1162.64 313.503 1164.82 314.719 C 1162.84 317.45 1160.84 314.859 1157.49 314.426 L 1156.49 314.875 L 1156.76 314.415 L 1156.42 314.561 C 1157.09 315.228 1158.07 315.537 1158.83 316.159 L 1158.65 317.031 L 1159.17 316.63 L 1158.54 317.179 C 1153.95 317.933 1140.17 307.55 1136.92 302.359 z" fill="rgb(182,153,106)" transform="translate(0,0)"></path>
<path d="M 1179.93 313.766 C 1181.63 314.225 1181.91 314.11 1182.96 315.364 C 1178.46 316.667 1175.26 316.102 1170.78 315.087 C 1175.04 314.917 1176.41 315.975 1179.93 313.766 z" fill="rgb(33,51,48)" transform="translate(0,0)"></path>
<path d="M 795.517 327.134 C 791.436 286.053 827.649 268.097 851.535 244.567 C 852.147 243.964 856.919 235.087 859.283 240.871 C 868.44 263.269 863.991 296.52 844.763 312.735 C 834.112 321.175 820.694 327.606 809.559 334.314 C 817.019 321.597 826.654 305.45 835.323 293.485 L 833.371 292.351 C 829.854 297.024 826.246 301.627 822.547 306.159 C 810.247 321.481 803.458 335.25 792.563 350.878 L 794.086 343.001 C 794.765 339.31 797.016 334.522 798.813 331.133 C 797.317 328.954 797.383 328.867 795.517 327.134 z" fill="rgb(29,47,49)" transform="translate(0,0)"></path>
<path d="M 843.563 275.003 C 845.029 275.362 844.877 275.326 845.242 276.743 C 842.53 282.524 839.397 288.516 835.323 293.485 L 833.371 292.351 C 829.854 297.024 826.246 301.627 822.547 306.159 C 810.247 321.481 803.458 335.25 792.563 350.878 L 794.086 343.001 C 794.765 339.31 797.016 334.522 798.813 331.133 C 812.91 307.579 818.743 296.99 840.509 277.091 C 841.574 276.385 842.512 275.746 843.563 275.003 z" fill="rgb(33,51,48)" transform="translate(0,0)"></path>
<path d="M 833.371 292.351 C 835.244 288.933 842.517 279.477 845.242 276.743 C 842.53 282.524 839.397 288.516 835.323 293.485 L 833.371 292.351 z" fill="rgb(124,115,90)" transform="translate(0,0)"></path>
<path d="M 838.803 275.805 L 840.509 277.091 C 818.743 296.99 812.91 307.579 798.813 331.133 C 797.317 328.954 797.383 328.867 795.517 327.134 C 800.162 320.789 802.224 314.054 809.136 305.392 C 819.037 292.985 827.725 286.457 838.803 275.805 z" fill="rgb(182,153,106)" transform="translate(0,0)"></path>
<path d="M 838.803 275.805 C 839.767 275.028 846.216 270.039 847.317 271.607 C 847.179 272.241 846.546 272.766 846.038 273.149 L 843.563 275.003 C 842.512 275.746 841.574 276.385 840.509 277.091 L 838.803 275.805 z" fill="rgb(97,96,82)" transform="translate(0,0)"></path>
<path d="M 1245.59 333.709 C 1224.15 322.295 1203.92 315.305 1195.95 289.508 C 1193.23 280.702 1189.83 242.06 1199.54 239.279 C 1200.93 239.897 1206.71 248.639 1209.2 250.46 C 1235.61 269.857 1255.7 286.353 1258.3 321.623 C 1259.89 325.31 1256.21 323.428 1257.4 328.224 L 1257.33 328.216 C 1256.59 326.531 1256.17 326.458 1254.43 326.341 C 1259.28 337.634 1259.98 339.983 1263.12 351.814 C 1255 339.74 1248.43 327.836 1239.82 316.071 C 1234.05 308.186 1228.56 301.943 1222.62 294.525 L 1220.81 295.309 C 1228.25 307.473 1237.7 321.297 1245.59 333.709 z" fill="rgb(29,47,49)" transform="translate(0,0)"></path>
<path d="M 1212.81 282.495 C 1211.46 281.152 1205.69 272.659 1206.95 271.758 C 1209.29 270.095 1214.07 273.267 1215.39 275.49 C 1229.77 288.639 1244.12 302.761 1255.2 319.042 C 1256.33 320.715 1256.53 320.904 1258.3 321.623 C 1259.89 325.31 1256.21 323.428 1257.4 328.224 L 1257.33 328.216 C 1256.59 326.531 1256.17 326.458 1254.43 326.341 C 1259.28 337.634 1259.98 339.983 1263.12 351.814 C 1255 339.74 1248.43 327.836 1239.82 316.071 C 1234.05 308.186 1228.56 301.943 1222.62 294.525 L 1220.81 295.309 C 1217.92 291.415 1215.16 286.756 1212.81 282.495 z" fill="rgb(33,51,48)" transform="translate(0,0)"></path>
<path d="M 1215.39 275.49 C 1229.77 288.639 1244.12 302.761 1255.2 319.042 C 1256.33 320.715 1256.53 320.904 1258.3 321.623 C 1259.89 325.31 1256.21 323.428 1257.4 328.224 L 1257.33 328.216 C 1256.59 326.531 1256.17 326.458 1254.43 326.341 C 1253.6 325.512 1253.31 325.137 1252.73 324.107 C 1243.09 307.12 1230.1 292.372 1216.39 278.582 C 1215.47 277.655 1215.5 276.736 1215.39 275.49 z" fill="rgb(182,153,106)" transform="translate(0,0)"></path>
<path d="M 1212.81 282.495 C 1215.65 283.732 1220.76 291.621 1222.62 294.525 L 1220.81 295.309 C 1217.92 291.415 1215.16 286.756 1212.81 282.495 z" fill="rgb(124,115,90)" transform="translate(0,0)"></path>
<path d="M 1369.94 588.268 L 1369.55 590.124 C 1368.74 594.636 1367.23 591.898 1365.95 589.484 C 1367.2 589.019 1368.65 588.649 1369.94 588.268 z" fill="rgb(33,51,48)" transform="translate(0,0)"></path>
<path d="M 891.224 1025.24 C 898.163 1017.43 904.082 1010.6 912.594 1004.48 C 936.089 987.598 972.996 990.359 1000.1 995.259 C 1002.02 996.209 1002.57 996.088 1004.78 996.31 L 1005.32 996.371 C 1006.96 997.8 1008.02 999.162 1005.4 1000.57 C 983.405 1012.44 963.568 1022.91 940.007 1031.24 L 940.007 1034.27 C 979.84 1030.05 992.613 1001.03 1036.5 1006.14 C 1070.39 1010.1 1085.53 1039.43 1121.1 1033.43 L 1120.84 1032.1 C 1107.93 1032.16 1049.34 1005.43 1044.59 997.328 L 1045.76 995.054 C 1047.84 994.817 1053.06 993.852 1054.73 994.051 C 1090.58 991.22 1138.98 986.613 1158.23 1025.88 C 1171.6 1025.15 1190.21 1024.54 1202.73 1020.28 C 1231.21 1010.6 1246.05 1000.04 1277.52 996.203 C 1282.01 995.655 1286.51 995.205 1291.01 994.851 C 1312.42 993.387 1323.16 994.55 1342.65 1003.35 C 1374.05 1017 1381.39 1062.65 1358.83 1087.6 C 1336.24 1112.58 1284.02 1103.38 1282.7 1065.85 C 1281.49 1031.38 1330.36 1025.25 1332.27 1060.57 C 1332.43 1063.56 1328.39 1068.36 1326.08 1069.96 C 1322.88 1070.1 1320.8 1070.58 1318.11 1068.95 C 1314.75 1060.75 1323.83 1056.34 1317.67 1049.35 C 1310.93 1046.76 1298.58 1049.11 1295.57 1056.53 C 1287.62 1076.48 1316.85 1097.55 1334.85 1089.61 C 1355.86 1080.69 1363.31 1056.05 1354.17 1035.83 C 1344.09 1013.52 1308.93 1006.44 1286.9 1008.36 C 1264.19 1010.34 1240.8 1017.52 1218.95 1023.73 C 1203.12 1028.23 1185.47 1032.22 1170.66 1039.26 C 1189.2 1054.45 1208 1069.41 1210.98 1094.76 C 1213.61 1115.74 1211.33 1130.72 1198.19 1147.72 C 1181.92 1168.79 1151.97 1176.82 1130.29 1158.65 C 1121.71 1150.82 1113.89 1137.31 1113.82 1125.59 C 1113.59 1088.57 1171.13 1078.7 1171.02 1120.34 C 1171 1127.43 1159.8 1136.7 1152.81 1134.1 C 1149.77 1132.98 1149.86 1132.38 1148.73 1129.76 C 1150.03 1119.61 1157.97 1125.18 1161.85 1116.23 C 1160.79 1112.38 1156.95 1108.89 1153.56 1107.32 C 1141.91 1101.94 1130.66 1110.23 1126.65 1120.44 C 1121.63 1133.24 1136.31 1151.24 1147.16 1155.31 C 1167.01 1162.77 1188.79 1144.12 1194.93 1126.14 C 1203.65 1098.22 1191.65 1076.84 1171.3 1059.37 C 1141.27 1033.6 1123.51 1054.38 1091.31 1045.64 C 1070.07 1039.88 1047.13 1024.58 1026.39 1017.67 L 1025.03 1017.23 C 1009.59 1024.49 960.505 1047.45 946.917 1047.23 C 910.139 1046.63 888.225 1041.09 861.998 1073.56 C 841.943 1098.38 841.944 1128.8 867.826 1148.45 C 898.014 1174.36 937.652 1129.27 908.669 1108.3 C 901.817 1103.36 888.833 1105.28 884.793 1113.32 C 885.577 1122.98 902.501 1124.24 893.616 1136.66 C 876.375 1135.13 867.348 1116.51 879.954 1103.61 C 883.551 1099.46 893.197 1091.81 899.287 1092.64 C 954.75 1100.15 932.393 1167.73 888.158 1169.2 C 875.065 1169.63 858.176 1160.13 849.455 1150.55 C 838.152 1138.13 832.296 1121.7 833.196 1104.93 C 835.023 1067.24 853.327 1060.13 877.82 1038.19 C 856.013 1023.24 787.006 1010.7 760.061 1008.56 C 740.832 1007.11 716.825 1011.6 702.031 1024.63 C 684.565 1043.51 685.549 1062.66 701.05 1080.91 C 722.684 1106.36 770.266 1073.02 746.202 1051.58 C 741.935 1047.78 729.501 1046.04 726.262 1052.59 C 726.736 1059.62 732.306 1061.61 731.629 1068.21 C 727.743 1071.15 720.908 1070.97 717.037 1067.96 C 714.82 1064.15 714.712 1057.28 714.249 1052.59 C 720.185 1040.06 725.656 1037.71 738.373 1034.62 L 739.715 1035.02 C 753.885 1039.19 763.984 1049.01 764.039 1064.52 C 764.1 1074.12 760.164 1083.32 753.173 1089.9 C 720.76 1120.38 668.756 1090.04 675.404 1045.36 C 683.004 994.278 731.07 990.651 773.278 996.544 C 780.241 998.683 794.169 998.129 801.934 1001.32 C 835.775 1015.23 853.747 1023.86 891.224 1025.24 z" fill="rgb(29,47,49)" transform="translate(0,0)"></path>
<path d="M 1000.1 995.259 C 1002.02 996.209 1002.57 996.088 1004.78 996.31 L 1005.32 996.371 C 1006.96 997.8 1008.02 999.162 1005.4 1000.57 C 983.405 1012.44 963.568 1022.91 940.007 1031.24 L 940.007 1034.27 C 936.83 1034.12 934.617 1034.09 931.462 1034.18 C 929.125 1033.84 927.949 1033.62 925.673 1033.06 C 924.644 1030.94 924.723 1030.49 925.492 1028.34 C 940.921 1023.52 959.505 1012.07 974.605 1005.29 C 981.768 1002.08 994.295 998.584 1000.1 995.259 z" fill="rgb(33,51,48)" transform="translate(0,0)"></path>
<path d="M 1000.1 995.259 C 1002.02 996.209 1002.57 996.088 1004.78 996.31 L 1005.32 996.371 C 985.158 1001.56 941.426 1028.16 925.492 1028.34 C 940.921 1023.52 959.505 1012.07 974.605 1005.29 C 981.768 1002.08 994.295 998.584 1000.1 995.259 z" fill="rgb(182,153,106)" transform="translate(0,0)"></path>
<path d="M 934.594 1031.9 C 937.075 1031.75 937.568 1031.69 940.007 1031.24 L 940.007 1034.27 C 936.83 1034.12 934.617 1034.09 931.462 1034.18 L 934.594 1031.9 z" fill="rgb(182,153,106)" transform="translate(0,0)"></path>
<path d="M 925.673 1033.06 C 929.97 1031.94 930.095 1032.02 934.594 1031.9 L 931.462 1034.18 C 929.125 1033.84 927.949 1033.62 925.673 1033.06 z" fill="rgb(97,96,82)" transform="translate(0,0)"></path>
<path d="M 1045.76 995.054 C 1047.84 994.817 1053.06 993.852 1054.73 994.051 C 1053.4 997.082 1056.74 996.576 1058.92 997.548 C 1078.92 1006.43 1101.94 1015.22 1120.47 1026.42 C 1104.97 1021.45 1053.26 995.765 1045.76 995.054 z" fill="rgb(182,153,106)" transform="translate(0,0)"></path>
<path d="M 1120.84 1032.1 C 1129.02 1029.27 1130.5 1032.13 1121.1 1033.43 L 1120.84 1032.1 z" fill="rgb(50,58,58)" transform="translate(0,0)"></path>
<path d="M 81.415 1593.54 C 104.599 1644.89 27.8121 1653.51 18.5885 1601.98 C 15.5673 1584.89 19.5655 1567.3 29.6788 1553.2 C 71.7917 1495.32 222.562 1504.58 234.708 1586.5 C 237.523 1605.71 232.488 1625.25 220.736 1640.71 C 201.901 1665.81 172.265 1675.08 142.447 1679.3 C 142.255 1693.69 142.095 1708.13 142.33 1722.52 C 142.597 1738.92 147.421 1744.81 160.179 1753.51 C 161.729 1754.09 163.126 1754.73 164.415 1755.78 L 163.793 1755.33 L 164.722 1756.18 L 164.725 1756.52 C 164.504 1756.74 104.222 1756.78 98.2711 1756.61 L 70.1773 1756.8 C 80.2332 1752.1 86.4958 1748.54 93.8113 1740.13 C 94.422 1708.79 93.9727 1676.37 93.9504 1644.97 C 93.9351 1623.48 94.6187 1596.12 92.7599 1575.12 C 87.9399 1567.28 84.5764 1565.95 76.7848 1561.08 C 98.4164 1553.15 120.51 1547.93 142.652 1539.1 C 142.465 1584.33 141.734 1631.66 142.668 1676.7 C 168.612 1668.65 178.845 1647.28 181.862 1622.02 C 184.866 1596 182.214 1564.68 166.04 1543.03 C 136.704 1503.76 47.6766 1517.94 40.9398 1569.82 C 38.1019 1591.68 60.1582 1613.28 80.5521 1594.36 L 81.415 1593.54 z" fill="rgb(29,47,49)" transform="translate(0,0)"></path>
<path d="M 160.179 1753.51 C 161.729 1754.09 163.126 1754.73 164.415 1755.78 L 163.793 1755.33 L 164.722 1756.18 L 164.725 1756.52 C 164.504 1756.74 104.222 1756.78 98.2711 1756.61 C 101.93 1753.39 155.569 1757.77 159.196 1754.38 L 160.179 1753.51 z" fill="rgb(50,58,58)" transform="translate(0,0)"></path>
<path d="M 1058.92 1606.08 L 1060.39 1606.15 C 1061.92 1608.65 1061.26 1624.59 1061.22 1628.52 C 1075.3 1604.46 1101.52 1598.51 1124.86 1615.66 C 1139.44 1626.37 1144.95 1650.42 1146.44 1667.7 C 1149.68 1705.24 1138.7 1755.98 1092.65 1759.35 C 1079.63 1760.33 1070.38 1754.16 1061.16 1745.61 L 1061.24 1797.25 C 1062.07 1810.85 1071.8 1814.56 1082.47 1820.66 L 995.342 1820.73 C 1005.23 1814.28 1008.4 1813.81 1014.93 1803.67 C 1016.96 1750.19 1014.1 1693.2 1014.09 1639.55 C 1014.09 1633.09 1004.6 1627.61 999.845 1624.47 C 1015.37 1618.52 1042.19 1611.17 1058.92 1606.08 z" fill="rgb(29,47,49)" transform="translate(0,0)"></path>
<path d="M 1069.04 1627.15 L 1069.89 1627.06 C 1093.28 1624.92 1098.27 1641.52 1098.97 1662.18 C 1099.63 1681.98 1102.46 1728.59 1089.41 1743.48 C 1076.97 1749.89 1069.89 1745.31 1062.17 1735.06 C 1061.1 1710.29 1062.51 1684.61 1061.65 1659.73 C 1061.36 1651.3 1061.15 1640.52 1061.92 1632.26 C 1063.49 1629.4 1066 1628.66 1069.04 1627.15 z" fill="rgb(255,255,255)" transform="translate(0,0)"></path>
<path d="M 913.775 1527.43 C 947.621 1527.58 985.873 1542.36 975.385 1585.9 C 970.674 1601.45 951.734 1614.66 935.877 1607.25 C 920.421 1600.03 916.343 1588.37 923.103 1573.15 C 939.242 1571.44 956.256 1566.31 942.912 1543.4 C 935.271 1530.29 903.039 1529.12 893.054 1540.46 C 887.164 1547.16 881.614 1555.43 882.349 1565.62 C 883.735 1611.95 941.385 1622 967.735 1650.78 C 1024.54 1712.84 978.931 1800.82 895.483 1794.34 C 867.128 1792.15 853.646 1788.91 833.338 1767.99 C 808.888 1737.09 814.445 1676.91 858.246 1666.59 C 883.188 1660.71 905.295 1679.32 890.706 1702.86 C 886.665 1709.38 866.342 1699.74 854.473 1711.98 C 846.98 1719.72 843.013 1730.21 843.51 1740.96 C 844.089 1754.6 850.616 1768.03 861.024 1777.19 C 880.922 1795.81 925.107 1794.7 942.075 1772.42 C 963.851 1743.84 955.132 1708.99 928.529 1687.51 C 900.283 1664.7 865.845 1646.88 848.77 1614.45 C 837.84 1593.69 843.401 1565.08 858.768 1548.12 C 873.795 1531.54 892.691 1528.43 913.775 1527.43 z" fill="rgb(29,47,49)" transform="translate(0,0)"></path>
<path d="M 1638.67 1548.57 C 1660.79 1539.96 1677.08 1535.15 1700.06 1528.52 L 1699.75 1658.43 C 1699.56 1682.75 1699.15 1707.16 1699.08 1731.46 C 1699.18 1737.93 1700.43 1745.18 1705.48 1749.65 C 1712.04 1755.45 1720.82 1754.29 1726.21 1747.64 C 1727.57 1745.95 1729.89 1742.12 1730.07 1739.92 C 1732.8 1707.83 1731.18 1674.8 1730.72 1642.58 C 1730.59 1633.26 1723.48 1629.24 1716.68 1623.72 C 1736.82 1618.71 1758.67 1610.95 1778.98 1605.02 L 1779.15 1741.53 C 1782.9 1747.43 1785.62 1749.71 1790.9 1753.85 C 1791.95 1754.4 1793.96 1755.01 1794.07 1756.43 C 1793.44 1757.1 1740.1 1756.98 1735.29 1756.71 C 1703.94 1757.69 1668.17 1756.97 1636.56 1756.58 C 1645.16 1750.46 1652.48 1745.77 1652.68 1734.07 C 1653.47 1682.89 1652.91 1631.63 1652.94 1580.44 C 1652.95 1563.04 1654.58 1557.14 1638.67 1548.57 z" fill="rgb(29,47,49)" transform="translate(0,0)"></path>
<path d="M 1790.9 1753.85 C 1791.95 1754.4 1793.96 1755.01 1794.07 1756.43 C 1793.44 1757.1 1740.1 1756.98 1735.29 1756.71 C 1738.86 1753.29 1785.24 1757.82 1789.93 1754.51 L 1790.9 1753.85 z" fill="rgb(50,58,58)" transform="translate(0,0)"></path>
<path d="M 1064.82 1258.79 C 1064.85 1291.8 1065.26 1325.55 1064.85 1358.5 C 1072.65 1345.12 1081.71 1335.47 1097.44 1331.37 C 1115.95 1326.55 1141.1 1329.66 1144.66 1352.43 C 1145.91 1360.96 1145.24 1371.52 1145.18 1380.37 L 1144.83 1431.82 C 1144.69 1453.98 1140.7 1460.37 1160.38 1472.9 C 1135.59 1473 1108.1 1473.44 1083.41 1472.53 C 1087.34 1470.52 1096.65 1465.68 1096.94 1460.56 C 1098.73 1429.04 1098.72 1395.7 1097.6 1364.08 C 1096.78 1341.3 1075.32 1346.6 1064.95 1364.1 C 1064.15 1383.45 1064.28 1402.93 1064.09 1422.32 C 1063.98 1433.91 1063.44 1446.19 1064.76 1457.66 C 1065.61 1465.05 1072.52 1468.96 1078.43 1472.39 C 1054.37 1473.19 1028.74 1473.06 1004.59 1473.07 C 1009.52 1469.59 1017.61 1464.1 1017.93 1457.79 C 1019.15 1433.67 1018.41 1404.99 1018.28 1380.92 L 1018.1 1326.6 C 1018.07 1315.81 1018.24 1305.16 1017.53 1294.39 C 1016.98 1286.13 1013.42 1282.59 1007.52 1277.15 L 1006.66 1273.58 C 1031.09 1275.84 1044.78 1273.8 1064.82 1258.79 z" fill="rgb(29,47,49)" transform="translate(0,0)"></path>
<path d="M 1000.19 395.707 L 1001.72 396.633 C 1006.17 403.829 1000.25 490.457 1001.51 506.349 C 1001.93 511.577 999.988 514.703 1004.56 519.205 C 1008.2 520.053 1006.39 520.121 1010.14 518.602 C 1012.23 514.605 1013.08 412.108 1014.35 397.659 L 1015.97 396.766 L 1017.76 397.314 C 1020.99 403.69 1017.73 500.602 1020.88 517.087 C 1023.3 519.872 1021.8 518.963 1025.7 519.608 C 1034.95 514.377 1026.75 415.167 1033.04 397.283 L 1034.46 396.893 C 1035.86 401.358 1036.08 416.839 1036.25 422.289 L 1037.73 474.255 C 1037.95 485.671 1037.21 507.649 1040.04 517.729 C 1042.1 519.994 1040.83 519.34 1044.09 519.521 C 1046.12 518.078 1047.41 516.772 1047.5 513.978 C 1048.82 473.538 1044.57 432.179 1047.45 391.812 C 1047.53 391.434 1047.62 391.056 1047.71 390.677 C 1050.41 398.848 1050.64 405.041 1051.54 413.536 C 1054.92 445.743 1057.56 478.049 1061.65 510.175 C 1064.88 539.302 1067.54 545.931 1042.12 563.673 C 1038.84 565.956 1035.48 569.964 1033.23 573.271 C 1031.29 588.696 1034.63 632.848 1035.64 650.228 L 1042.47 776.287 C 1043.22 790.71 1046.65 815.159 1043.68 828.672 C 1042.66 833.291 1039.89 837.226 1035.77 839.571 C 1030.52 842.562 1024.04 842.896 1018.33 841.121 C 1005.9 837.261 1004.57 827.618 1005.59 816.307 C 1007.8 791.824 1018.85 582.623 1016.11 574.563 C 1011.57 561.208 993.403 557.319 986.89 543.987 C 985.263 540.657 985.479 536.688 985.607 533.072 C 986.585 505.543 991.089 477.51 993.918 450.087 C 995.212 437.54 996.497 406.174 1000.19 395.707 z" fill="rgb(29,47,49)" transform="translate(0,0)"></path>
<path d="M 1573.1 1676.49 C 1572.39 1670.35 1572.49 1662.55 1572.66 1656.71 C 1573.14 1640.05 1575.04 1605.04 1548.8 1610.11 C 1528.42 1614.05 1549.2 1631.4 1555.15 1635.7 C 1558.96 1638.46 1557.69 1649.53 1555.88 1652.48 C 1551.1 1666.47 1538.78 1674.96 1523.86 1669.09 C 1517.14 1666.4 1511.8 1661.1 1509.05 1654.4 C 1505.74 1646.4 1505.87 1637.39 1509.4 1629.48 C 1517.64 1610.95 1539.93 1606.02 1557.33 1606.08 C 1598.57 1606.24 1622.99 1624.37 1620.11 1668.3 C 1618.93 1686.37 1619.92 1710.01 1620.57 1728.46 C 1620.75 1730.5 1622.3 1731.34 1623.73 1732.41 C 1629.63 1732.65 1630.8 1730.26 1633.38 1725.52 L 1636.14 1727.45 C 1632.38 1741.87 1625.58 1754.99 1609.97 1758.31 C 1586.43 1763.3 1577.93 1750.18 1573 1730.68 C 1549.04 1784.7 1478.55 1755.3 1508.36 1702.16 C 1517.05 1686.66 1545.67 1680.27 1561.73 1677.7 C 1565.68 1677.12 1569.12 1676.72 1573.1 1676.49 z" fill="rgb(29,47,49)" transform="translate(0,0)"></path>
<path d="M 1561.73 1677.7 C 1565.68 1677.12 1569.12 1676.72 1573.1 1676.49 L 1572.51 1678.16 C 1572.86 1685.97 1574.59 1724.6 1570.15 1727.55 C 1544.68 1744.47 1536.37 1694.8 1562.72 1681.24 L 1561.73 1677.7 z" fill="rgb(255,255,255)" transform="translate(0,0)"></path>
<path d="M 1561.73 1677.7 C 1565.68 1677.12 1569.12 1676.72 1573.1 1676.49 L 1572.51 1678.16 C 1568.44 1679.07 1566.65 1679.61 1562.72 1681.24 L 1561.73 1677.7 z" fill="rgb(50,58,58)" transform="translate(0,0)"></path>
<path d="M 312.199 1676.5 C 310.654 1660.02 313.437 1643.93 311.142 1626.76 C 309.196 1612.21 291.614 1603.51 280.959 1614.88 C 274.713 1622.84 290.017 1629.33 293.112 1633.85 C 308.892 1656.92 274.739 1681.64 257.596 1665.59 C 228.123 1637.99 262.641 1603.45 295.245 1606.06 C 324.53 1608.41 347.889 1609.92 357.622 1641.96 C 362.431 1658.34 354.93 1724.67 362.166 1732.67 C 369.549 1734.1 373.332 1727.34 375.451 1721.42 L 377.719 1722.1 C 373.696 1738.79 367.678 1755.1 348.795 1758.8 C 327.459 1762.98 316.54 1750.42 313.102 1731.35 C 302.031 1752.11 279.253 1768.69 255.398 1754.09 C 239.891 1744.6 238.934 1715.13 249.7 1701.44 C 260.959 1687.12 279.536 1681.19 297.12 1678.27 C 302.093 1677.21 307.125 1676.7 312.199 1676.5 z" fill="rgb(29,47,49)" transform="translate(0,0)"></path>
<path d="M 312.199 1676.5 L 311.621 1678.54 C 312.292 1685.72 313.279 1724.26 310.585 1726.25 C 285.287 1744.98 277.182 1698.73 300 1680.66 L 297.12 1678.27 C 302.093 1677.21 307.125 1676.7 312.199 1676.5 z" fill="rgb(255,255,255)" transform="translate(0,0)"></path>
<path d="M 312.199 1676.5 L 311.621 1678.54 C 305.934 1679.17 305.729 1679.17 300 1680.66 L 297.12 1678.27 C 302.093 1677.21 307.125 1676.7 312.199 1676.5 z" fill="rgb(50,58,58)" transform="translate(0,0)"></path>
<path d="M 1212.65 1607.25 L 1214.49 1607.1 C 1256.61 1603.66 1276.19 1626.42 1279.37 1666.1 C 1253.89 1666.17 1228.41 1665.86 1202.95 1665.17 C 1202.88 1669.83 1202.95 1674.48 1203.14 1679.14 C 1204.66 1712.13 1225.6 1739.09 1263.07 1720.25 C 1267.87 1717.83 1272.89 1708.04 1276.9 1703.24 L 1277.8 1704.1 L 1277.08 1708.87 C 1275.61 1714.45 1273.63 1719.89 1271.18 1725.11 C 1256.62 1756.02 1223.01 1767.75 1192.29 1753.24 C 1154.14 1735.21 1152.68 1673.84 1170.02 1641.08 C 1179.77 1622.67 1192.91 1613.49 1212.65 1607.25 z" fill="rgb(29,47,49)" transform="translate(0,0)"></path>
<path d="M 1219.78 1609.88 C 1227.92 1609.54 1232.14 1609.69 1234.86 1618.5 C 1239.13 1632.38 1238.74 1646.91 1238.43 1661.27 C 1233.29 1661.64 1228.58 1661.8 1223.43 1661.97 L 1202.87 1662.06 C 1203.64 1644.23 1206.34 1622.81 1219.78 1609.88 z" fill="rgb(255,255,255)" transform="translate(0,0)"></path>
<path d="M 919.487 1249.88 C 935.377 1255.37 951.235 1260.94 967.061 1266.61 L 967.146 1389.41 C 967.107 1410.13 966.522 1432.49 966.948 1453.07 C 973.227 1462.55 979.382 1466.49 989.054 1472.06 C 973.845 1472.02 953.9 1472.58 939.1 1471.85 C 925.65 1472.41 911.797 1471.85 898.327 1471.87 C 897.144 1471.87 896.911 1470.82 898.973 1470.26 C 906.377 1465.91 917.781 1458.19 918.533 1449.25 C 919.761 1434.62 919.187 1417.79 919.173 1403.04 L 919.08 1304.66 C 919.068 1288.11 918.432 1265.91 919.487 1249.88 z" fill="rgb(29,47,49)" transform="translate(0,0)"></path>
<path d="M 939.1 1471.85 C 925.65 1472.41 911.797 1471.85 898.327 1471.87 C 897.144 1471.87 896.911 1470.82 898.973 1470.26 C 909.374 1471.91 927.12 1470.36 939.1 1471.85 z" fill="rgb(77,82,78)" transform="translate(0,0)"></path>
<path d="M 594.941 1607.46 C 620.445 1606.42 648.711 1607 674.464 1607.04 C 672.049 1609.48 667.014 1614.55 665.769 1617.36 C 660.486 1629.31 670.15 1649.66 674.3 1661.1 L 690.612 1705.98 C 696.714 1688.59 702.145 1670.63 707.537 1653 C 713.926 1632.11 718.823 1621.77 700.226 1607.35 L 744.36 1607.28 C 724.44 1623.85 718.668 1646.2 709.756 1669.7 C 700.428 1694.3 691.322 1718.98 682.441 1743.75 C 673.51 1766.95 665.448 1795.48 653.06 1817.05 C 647.826 1824.67 641.491 1826.83 633.626 1828.77 C 607.598 1835.17 588.504 1802.35 606.061 1783.52 C 610.698 1778.57 617.224 1775.83 624.005 1775.99 C 644.314 1776.3 643.234 1800.58 655.592 1799.51 C 662.45 1794.56 666.328 1778.19 668.798 1770.05 C 656.408 1739.69 644.435 1709.17 632.88 1678.49 C 623.522 1654.13 615.485 1624.22 594.941 1607.46 z" fill="rgb(29,47,49)" transform="translate(0,0)"></path>
<path d="M 1221.33 1328.22 C 1261.84 1324.78 1275.86 1352.2 1280.31 1386.8 C 1255.93 1386.33 1231.54 1386.21 1207.16 1386.44 C 1207.23 1407.83 1210.06 1437.23 1235.66 1443.08 C 1247.02 1445.67 1261.35 1442.77 1269.17 1433.66 C 1271.92 1430.44 1274.89 1424.01 1278.23 1421.82 C 1279 1424.86 1278.03 1427.11 1277.22 1430.21 C 1266.01 1468.59 1229.4 1486.94 1193.31 1467.34 C 1159.26 1448.85 1158.23 1386.16 1177.6 1356.96 C 1188.88 1339.94 1201.3 1332.71 1221.33 1328.22 z" fill="rgb(29,47,49)" transform="translate(0,0)"></path>
<path d="M 1227.81 1330.95 C 1244.86 1334.84 1241.75 1368.48 1240.41 1381.79 C 1234.15 1381.99 1227.26 1381.81 1221.22 1382.77 C 1216.04 1382.8 1212.91 1382.6 1207.82 1382.06 C 1208.22 1365.97 1209.31 1335.93 1227.81 1330.95 z" fill="rgb(255,255,255)" transform="translate(0,0)"></path>
<path d="M 381.073 1624.17 L 442.933 1604.78 L 442.958 1634.21 C 443.841 1634.86 444.608 1635.35 445.546 1635.95 C 454.167 1618.65 469.736 1596.83 491.954 1609.05 C 498.608 1612.69 503.393 1619 505.108 1626.39 C 510.465 1648.87 492.993 1671.66 468.94 1659.56 C 458.527 1654.32 461.244 1635.28 453.672 1632.34 C 441.988 1636.1 442.629 1668.54 442.837 1678.94 C 443.253 1699.75 441.22 1721.69 445.352 1742.03 C 446.144 1745.93 453.815 1751.11 457.036 1752.86 C 458.164 1753.34 462.254 1754.57 462.04 1756.43 C 461.225 1757.23 385.789 1757.27 380.35 1756 C 388.172 1750.6 390.577 1748.47 395.633 1740.71 C 396.37 1708.53 396.084 1675.05 395.457 1642.83 C 395.285 1633.97 387.572 1629.06 381.073 1624.17 z" fill="rgb(29,47,49)" transform="translate(0,0)"></path>
<path d="M 457.036 1752.86 C 458.164 1753.34 462.254 1754.57 462.04 1756.43 C 461.225 1757.23 385.789 1757.27 380.35 1756 C 402.519 1753.36 431.209 1757.21 454.019 1755.57 C 455.521 1755.46 456.159 1753.99 457.036 1752.86 z" fill="rgb(50,58,58)" transform="translate(0,0)"></path>
<path d="M 442.958 1634.21 C 443.841 1634.86 444.608 1635.35 445.546 1635.95 C 445.072 1637.29 444.525 1639.28 443.546 1640.28 C 442.817 1639.69 442.975 1635.11 442.958 1634.21 z" fill="rgb(238,235,230)" transform="translate(0,0)"></path>
<path d="M 1406.54 1708.56 C 1398.26 1739.96 1377.33 1764.48 1341.38 1758.61 C 1326.85 1756.27 1313.85 1748.23 1305.26 1736.28 C 1282.6 1704.75 1288.49 1641.72 1321.98 1618.55 C 1337.11 1608.04 1355.83 1604.04 1373.93 1607.45 C 1397.21 1611.9 1410.97 1629.18 1406.36 1653.14 C 1403.97 1665.61 1387.76 1672.7 1376.52 1669.52 C 1370.45 1667.81 1365.31 1663.75 1362.24 1658.24 C 1357.61 1649.9 1357.94 1638.5 1364.44 1630.97 C 1367.76 1627.12 1375.6 1625.21 1377.34 1619.06 C 1375.27 1612.01 1365.26 1609.12 1358.96 1610.62 C 1326.66 1618.3 1330.51 1669.52 1337.47 1693.9 C 1347.33 1728.47 1386.03 1741.11 1404.48 1704.25 L 1406.54 1708.56 z" fill="rgb(29,47,49)" transform="translate(0,0)"></path>
<path d="M 1049.27 1198.12 C 1052.99 1197.98 1057.41 1197.65 1060.89 1198.82 C 1065.98 1200.53 1070.14 1204.26 1072.42 1209.12 C 1080.64 1226.4 1067.93 1248.7 1052.75 1257.83 C 1024.99 1274.3 983.697 1264.52 953.683 1252.38 C 912.023 1235.52 856.414 1228.48 833.667 1278.53 C 829.083 1286.25 833.102 1304.85 843.705 1304.59 C 860.708 1304.16 872.258 1267.1 888.375 1303.36 C 891.812 1326.97 880.192 1342.48 855.231 1339.03 C 843.652 1337.32 833.271 1330.96 826.485 1321.43 C 818.436 1310.17 815.216 1294.76 817.607 1280.99 C 828.578 1217.78 915.726 1225.49 963.379 1228.04 C 984.478 1228.06 1023.6 1241.83 1042.03 1230.82 C 1056.82 1221.98 1048.07 1210.77 1041.62 1202.36 C 1043.68 1199.62 1045.52 1199.65 1049.27 1198.12 z" fill="rgb(29,47,49)" transform="translate(0,0)"></path>
<path d="M 565.691 1565.31 L 569.434 1566.56 C 569.138 1577.44 569.405 1596.16 570.024 1607.35 C 573.082 1607.43 592.963 1607.09 593.74 1607.64 C 596.336 1613.54 572.363 1611.06 569.907 1611.01 C 569.861 1617.25 569.954 1623.36 569.777 1629.61 C 570.466 1650.64 569.508 1671.89 569.826 1692.98 C 570.037 1706.98 566.146 1726.84 579.242 1736.22 C 593.292 1746.29 595.442 1722.57 600.923 1719.65 C 598.406 1737.87 582.147 1759.52 563.285 1759.99 C 521.657 1761.02 523.149 1719.14 522.835 1690.63 C 522.562 1665.85 524.196 1637.13 522.257 1613.78 L 522.132 1612.35 C 516.975 1612.06 513.096 1612.23 508.304 1610.35 L 507.841 1609.04 C 513.935 1605.62 523.836 1605.05 529.167 1602.48 C 545.52 1594.6 558.782 1581.92 565.691 1565.31 z" fill="rgb(29,47,49)" transform="translate(0,0)"></path>
<path d="M 570.024 1607.35 C 573.082 1607.43 592.963 1607.09 593.74 1607.64 C 596.336 1613.54 572.363 1611.06 569.907 1611.01 C 569.861 1617.25 569.954 1623.36 569.777 1629.61 C 567.971 1622.87 567.924 1615.78 569.64 1609.02 C 569.768 1608.46 569.896 1607.91 570.024 1607.35 z" fill="rgb(50,58,58)" transform="translate(0,0)"></path>
<path d="M 1973.53 1565.42 L 1977.7 1566.83 C 1977.42 1580.35 1977.63 1594.3 1977.68 1607.86 C 1984.74 1607.78 1992.65 1607.26 1999.35 1609.13 L 2000.28 1610.22 C 1994.27 1612.91 1984.41 1612.19 1977.71 1612.09 L 1977.7 1680.36 C 1977.71 1694.53 1972.36 1748.84 1999.97 1735.74 C 2000.87 1736.7 2001.76 1737.68 2002.63 1738.67 C 2001.4 1740.61 1999.72 1742.82 1998.27 1744.6 C 1991.08 1753.3 1980.65 1758.69 1969.4 1759.52 C 1928.42 1762.4 1930.23 1713.97 1930.7 1686.9 C 1931.12 1662.41 1931.31 1636.3 1930.43 1611.87 C 1923.78 1611.68 1917.48 1611.27 1910.84 1610.8 C 1920.75 1606.57 1930.3 1605.57 1940.14 1600.15 C 1955.92 1591.48 1966.55 1582.09 1973.53 1565.42 z" fill="rgb(29,47,49)" transform="translate(0,0)"></path>
<path d="M 1809.18 1695.86 C 1814.48 1713.17 1824.04 1736.61 1838.62 1748.86 C 1853.98 1761.78 1879.04 1754.58 1876.04 1731.8 C 1873.49 1715.4 1851.9 1705.21 1838.91 1697.39 C 1789.37 1667.58 1800.16 1594.85 1865.34 1607.84 C 1886.06 1611.96 1885.4 1619.69 1898.91 1601.19 C 1899.24 1609.97 1899.23 1618.05 1899.15 1626.83 C 1899.56 1630.69 1900.64 1660.7 1899.54 1662.4 L 1899.42 1662.42 C 1898.68 1661.78 1898.33 1660.21 1898.12 1659.26 C 1890.9 1642.51 1882.87 1619.07 1864.81 1611.12 C 1855.38 1606.96 1840.29 1610.94 1837.37 1621.99 C 1831.7 1643.41 1857.76 1652 1871.6 1661.42 C 1892.84 1675.86 1911.49 1696.91 1905.13 1724.59 C 1902.51 1736 1895.33 1745.83 1885.27 1751.8 C 1874.57 1758.1 1856.93 1760.28 1845.05 1756.89 C 1835.36 1754.12 1828.84 1749.82 1820.01 1745.68 C 1814.16 1751.27 1811.4 1754.54 1807.03 1761.54 C 1805.68 1739.77 1806.79 1718 1805.65 1697.02 L 1809.18 1695.86 z" fill="rgb(29,47,49)" transform="translate(0,0)"></path>
<path d="M 1899.15 1626.83 C 1899.56 1630.69 1900.64 1660.7 1899.54 1662.4 L 1899.42 1662.42 C 1898.68 1661.78 1898.33 1660.21 1898.12 1659.26 C 1899.8 1651.79 1898.13 1636.62 1899.15 1626.83 z" fill="rgb(77,82,78)" transform="translate(0,0)"></path>
<path d="M 1475.22 1606.05 C 1477.24 1605.75 1476.3 1605.58 1478.07 1606.53 C 1479.11 1636.08 1478.37 1666.54 1478.5 1696.14 C 1478.57 1710.93 1477.81 1726.41 1478.64 1741.13 C 1484.23 1748.9 1487.84 1751.33 1495.41 1756.77 L 1422.75 1756.71 L 1414.78 1756.47 C 1419.26 1753.45 1428.75 1747.16 1429.17 1741.33 C 1431.45 1709.85 1429.93 1677.68 1429.97 1646.08 C 1429.98 1633.8 1424.61 1632.38 1416 1624.68 L 1475.22 1606.05 z" fill="rgb(29,47,49)" transform="translate(0,0)"></path>
<path d="M 1748.69 1533.41 C 1763.96 1531.85 1777.62 1542.94 1779.23 1558.21 C 1780.84 1573.47 1769.79 1587.16 1754.52 1588.81 C 1739.2 1590.47 1725.44 1579.36 1723.83 1564.04 C 1722.22 1548.71 1733.36 1534.98 1748.69 1533.41 z" fill="rgb(29,47,49)" transform="translate(0,0)"></path>
<path d="M 1444.37 1534.58 C 1459.23 1530.62 1474.48 1539.5 1478.38 1554.37 C 1482.28 1569.25 1473.35 1584.46 1458.46 1588.31 C 1443.65 1592.14 1428.53 1583.27 1424.65 1568.47 C 1420.77 1553.67 1429.58 1538.51 1444.37 1534.58 z" fill="rgb(29,47,49)" transform="translate(0,0)"></path>
<path d="M 1999.97 1735.74 L 2001.07 1734.17 C 2002.98 1731.39 2007.48 1719.81 2009.05 1720.68 L 2008.76 1720.91 L 2009.35 1721.96 C 2009.02 1726.57 2004.98 1734.54 2002.63 1738.67 C 2001.76 1737.68 2000.87 1736.7 1999.97 1735.74 z" fill="rgb(50,58,58)" transform="translate(0,0)"></path>
<path d="M 1638.03 1714.32 C 1637.4 1718.62 1636.83 1723.26 1636.14 1727.45 L 1633.38 1725.52 C 1634.7 1721.6 1636.44 1718.12 1638.03 1714.32 z" fill="rgb(50,58,58)" transform="translate(0,0)"></path>
<path d="M 1404.48 1704.25 C 1407.69 1695.02 1408.79 1701.25 1406.93 1706.39 C 1406.9 1706.47 1406.55 1708.48 1406.54 1708.56 L 1404.48 1704.25 z" fill="rgb(50,58,58)" transform="translate(0,0)"></path>
<path d="M 1007.52 1277.15 C 1006.63 1276.78 999.849 1274.22 1000.51 1273.13 C 1001.82 1272.54 1005.18 1273.04 1006.66 1273.58 L 1007.52 1277.15 z" fill="rgb(50,58,58)" transform="translate(0,0)"></path>
<path d="M 1805.65 1697.02 L 1805.73 1692.93 C 1805.87 1686.14 1808.93 1695.21 1809.18 1695.86 L 1805.65 1697.02 z" fill="rgb(50,58,58)" transform="translate(0,0)"></path>
<path d="M 1973.53 1565.42 C 1975.89 1560.59 1976.92 1557.94 1977.52 1564.97 L 1977.7 1566.83 L 1973.53 1565.42 z" fill="rgb(50,58,58)" transform="translate(0,0)"></path>
<path d="M 565.691 1565.31 C 566.093 1564.42 567.257 1561.13 568.419 1560.81 C 569.399 1561.38 569.352 1565.55 569.434 1566.56 L 565.691 1565.31 z" fill="rgb(50,58,58)" transform="translate(0,0)"></path>
<path d="M 375.451 1721.42 C 376.749 1716.43 378.358 1717.18 377.719 1722.1 L 375.451 1721.42 z" fill="rgb(120,119,123)" transform="translate(0,0)"></path>
<metadata><recraft-signature>{"signed_by": "recraft", "signature_b64": "0btmrYb/F41lokb5MAdkRXI4jRUVuUIAS68M0Vu4S43CiE3xjawWuvpmJa7iJdbZwJF9sKAAYDO2L7TebaLSCg==", "signing_algo": "Ed25519", "generation_timestamp": 1772546456, "identifier": "4378b6bb-2a86-4a30-bf21-d1d2e9309298"}</recraft-signature></metadata></svg>