<svg xmlns="http://www.w3.org/2000/svg" height="1024" preserveAspectRatio="none" style="display: block;" version="1.1" viewBox="0 0 2048 2048" width="1024">
<path d="M 0 0 L 2048 0 L 2048 2048 L 0 2048 L 0 0 z" fill="rgb(255,255,255)" transform="translate(0,0)"></path>
<path d="M 363.368 448.242 C 404.822 444.327 402.25 479.604 402.235 508.521 C 402.223 523.831 402.313 539.14 402.505 554.449 L 1309.09 758.819 C 1501.95 799.098 1694.25 842.072 1885.92 887.729 C 1935.16 899.602 1993.59 910.081 2041.49 923.409 C 2030.97 928.925 2004.04 937.314 1991.47 941.628 C 1963.24 951.305 1935.09 961.202 1907.02 971.319 L 1551.47 1098.18 C 1281.04 1194.15 1010.06 1288.53 738.528 1381.31 C 626.498 1420.51 514.025 1458.42 401.13 1495.06 L 401.159 1565.22 C 399.055 1594.91 367.597 1606.76 346.161 1586.91 C 334.274 1575.9 337.217 1540.16 337.274 1523.57 L 337.568 1447.33 C 323.056 1447.81 308.099 1447.79 293.544 1447.93 C 282.204 1511.03 235.726 1534.64 174.621 1529.37 C 117.452 1524.44 79.7098 1556.82 41.7414 1592.81 C 51.7097 1523.55 75.0795 1483.96 150.497 1481.4 C 201.663 1479.66 228.498 1481.03 268.532 1445.05 C 184.232 1375.82 127.241 1459.38 73.0356 1431.79 C 47.0007 1418.54 34.2308 1382.53 25.7788 1356.68 C 38.4493 1367.86 52.356 1380.19 68.4253 1386.04 C 118.532 1404.28 170.971 1344.19 246.052 1378.55 C 269.181 1389.13 285.756 1404.28 294.838 1428.27 L 337.067 1428.02 L 337.424 628.725 C 322.118 628.866 306.811 628.854 291.505 628.688 C 287.844 645.577 279.432 661.067 267.262 673.336 C 235.875 704.45 205.575 700.446 166.039 699.195 C 119.852 697.735 75.2841 740.121 44.1595 771.034 C 50.6592 707.832 75.9577 658.284 147.142 653.307 C 190.198 650.296 232.376 657.835 262.117 618.655 C 246.698 594.202 200.86 589.185 175.011 594.756 C 141.1 602.064 109.746 619.707 75.5978 602.608 C 47.024 588.3 38.6749 560.722 29.0377 532.511 C 39.5652 539.156 48.5041 545.973 59.6103 551.641 C 97.2796 570.865 135.917 551.52 173.353 544.533 C 200.464 539.474 241.13 544.606 263.78 561.507 C 281.167 574.48 288.839 588.56 292.348 609.727 C 307.061 609.764 322.294 610.642 337.163 610.871 L 337.545 526.672 C 337.543 516.563 337.657 505.909 337.563 495.848 C 337.344 472.29 338.44 457.051 363.368 448.242 z" fill="rgb(31,42,73)" transform="translate(0,0)"></path>
<path d="M 1859.65 962.285 L 1861.11 962.456 C 1856.46 965.61 1813.58 980.836 1805.17 984.002 C 1726.57 1012.7 1647.83 1040.98 1568.94 1068.85 C 1334.47 1152.22 1099.57 1234.38 864.256 1315.32 L 596.509 1407.11 C 533.754 1428.36 465.441 1450.1 403.506 1472.74 L 402.627 1472.68 C 400.251 1469.42 401.058 1402.88 401.059 1392.89 C 435.213 1383.45 470.437 1372.19 504.542 1361.98 L 682.758 1308.88 L 1372.48 1099.79 C 1471 1069.74 1569.72 1040.33 1668.62 1011.57 C 1731.08 993.823 1796.56 979.192 1859.65 962.285 z" fill="rgb(232,195,106)" transform="translate(0,0)"></path>
<path d="M 402.46 665.329 L 535.434 690.943 C 516.987 829.833 500.325 968.954 485.451 1108.27 L 467.271 1300.76 C 465.661 1318.12 464.168 1335.48 462.793 1352.86 C 443.087 1358.01 421.274 1364.86 401.506 1370.58 L 401.927 893.546 L 401.984 745.216 C 401.989 722.097 401.03 687.732 402.46 665.329 z" fill="rgb(232,195,106)" transform="translate(0,0)"></path>
<path d="M 402.351 575.433 C 432.903 583.732 471.349 591.416 502.532 598.467 L 713.822 645.747 L 1518 825.65 C 1571.51 837.642 1625.1 849.237 1678.78 860.435 C 1690.76 863.017 1727.52 869.394 1735.48 873.416 C 1721.5 872.947 1705.57 869.667 1691.72 867.124 C 1670.74 863.072 1649.71 859.276 1628.63 855.736 L 1404 821.267 C 1177.11 785.842 950.721 747.318 724.886 705.707 C 647.656 691.493 570.527 676.729 493.507 661.417 C 463.887 655.815 431.777 649.193 402.226 644.539 C 402.13 621.503 402.172 598.468 402.351 575.433 z" fill="rgb(232,195,106)" transform="translate(0,0)"></path>
<path d="M 1510.67 936.336 C 1513.17 936.033 1525.77 936.599 1525.22 940.676 C 1524 949.696 1512.85 969.179 1516.56 977.759 L 1518.47 978.218 C 1546.56 966.086 1543.09 890.253 1563.81 867.334 C 1574.05 856.001 1592.21 867.255 1589.04 880.724 C 1583.76 903.193 1572 932.903 1553.78 948.084 C 1552.71 955.264 1548.53 975.903 1555.46 979.803 C 1581.02 972.783 1587.06 939.501 1592.57 918.458 C 1593.24 915.93 1595.28 914.868 1597.45 913.948 C 1603.08 914.196 1606.53 917.378 1610.63 920.97 C 1608.28 929.99 1592.6 974.773 1597.03 979.478 C 1607.55 977.298 1624.9 945.743 1630.56 936.528 C 1624.39 907.647 1651.86 892.743 1657.92 908.477 C 1658.02 915.116 1649.9 923.221 1645.37 928.798 C 1649.7 943.78 1656.41 954.057 1659.91 970.544 C 1675.73 947.435 1675.49 946.157 1681.31 918.609 L 1679.9 918.486 C 1675.26 918.051 1668.76 917.944 1670.05 911.591 C 1675.21 907.711 1678.53 910.026 1684.12 911.896 C 1688.07 897.689 1691.95 883.462 1695.75 869.216 C 1697.77 869.645 1703.76 870.886 1705.45 871.527 C 1721.09 877.472 1700.54 901.222 1704.49 910.306 C 1710.06 911.839 1715.07 905.486 1720.86 908.92 C 1721.69 912.689 1721.88 910.956 1720.64 914.324 C 1713.44 918.767 1708.27 917.779 1699.56 917.973 C 1696.97 928.716 1680.24 973.485 1689.31 979.078 C 1705.41 978.516 1712.45 949.766 1720.9 946.037 L 1722.17 947.648 C 1722.4 949.04 1723.1 953.814 1722.45 955.008 C 1714.57 969.685 1701.75 994.761 1681.23 989.524 C 1673.78 987.621 1670.97 980.947 1667.79 974.712 C 1663.16 980.007 1655.69 982.153 1649.88 990.704 C 1644.45 998.701 1615.1 997.598 1617.66 982.026 C 1620.13 966.949 1638.49 974.957 1643.93 970.891 C 1644.72 964.063 1637.08 950.938 1633.76 944.225 L 1633.05 945.934 C 1628.02 957.966 1608.84 996.129 1588.99 988.368 C 1583.56 986.245 1580.65 980.166 1578.97 974.718 C 1565.1 991.495 1543.98 999.14 1535.47 973.33 C 1523.79 987.817 1507.19 999.748 1497.88 975.434 C 1485.26 992.811 1468.98 996.838 1465.46 971.475 C 1454.29 988.377 1435.94 1000.76 1426.69 974.669 C 1407.41 994.686 1382.1 997.778 1371.52 968.199 C 1364.21 977.91 1355.67 987.377 1343.19 989.306 C 1324.13 992.25 1314.74 983.889 1312.2 966.295 C 1296.14 983.571 1284.33 991.644 1260.48 983.464 C 1257.67 995.417 1256.5 1011.25 1254.32 1019.6 C 1248.63 1022.74 1238.58 1016.29 1238.77 1012.21 C 1239.88 988.293 1251.56 961.088 1255.98 937.128 C 1257.31 929.936 1260.75 916.412 1262.88 912.139 C 1265.84 911.023 1267.88 910.827 1270.95 911.442 C 1282.78 913.814 1276.31 927.903 1274.04 934.714 C 1281.37 922.533 1297.3 895.591 1311.26 925.962 C 1316.25 936.83 1301.21 961.425 1295.14 972.447 C 1310.18 961.254 1312.31 954.315 1320.5 937.557 C 1327.51 923.238 1343.08 908.29 1360.06 917.735 C 1368.83 922.612 1370.18 935.939 1364.31 943.941 C 1355.41 956.064 1345.39 959.392 1331.36 961.873 C 1325.77 967.55 1330.95 980.22 1339.42 980.186 C 1373.37 980.051 1374.23 913.408 1405.26 914.934 C 1409.8 915.138 1414.04 917.281 1416.9 920.821 C 1424.25 929.788 1422.02 949.954 1409.08 948.52 C 1405.92 943.46 1412.28 933.239 1404.06 932.251 C 1392.34 938.047 1377.93 973.102 1394.36 978.584 C 1414.65 985.354 1434.29 949.742 1436.4 933.24 C 1437.82 930.526 1438.53 915.564 1442.66 915.518 C 1473.11 915.173 1437.14 967.92 1446.21 978.172 C 1463.6 975.106 1475.53 921.062 1498.67 917.984 C 1503.68 917.358 1508.73 918.886 1512.55 922.19 C 1515.33 924.635 1515.92 926.44 1516.02 929.995 C 1514.82 933.064 1512.91 933.713 1510.03 935.445 L 1510.67 936.336 z" fill="rgb(232,195,106)" transform="translate(0,0)"></path>
<path d="M 1510.67 936.336 C 1504.61 945.515 1494.12 974.965 1483.62 977.083 L 1482.28 975.176 C 1481.44 963.188 1491.82 938.678 1503.07 933.324 C 1506.39 932.97 1507.14 933.767 1510.03 935.445 L 1510.67 936.336 z" fill="rgb(31,42,73)" transform="translate(0,0)"></path>
<path d="M 1290.61 923.49 C 1293.4 924.389 1292.45 924.048 1294.88 926.04 C 1299.89 937.159 1282.12 969.041 1271.24 974.112 C 1268.71 973.834 1268.65 973.688 1266.26 972.674 C 1261.65 963.041 1282.58 930.405 1290.61 923.49 z" fill="rgb(31,42,73)" transform="translate(0,0)"></path>
<path d="M 1349.87 929.476 L 1352.51 930.149 C 1356.62 936.08 1341.96 947.35 1337.43 950.266 C 1336.92 950.376 1335.43 950.355 1334.84 950.365 L 1334.3 948.739 C 1336.72 939.93 1342.58 934.4 1349.87 929.476 z" fill="rgb(31,42,73)" transform="translate(0,0)"></path>
<path d="M 1574.36 878.716 C 1578.4 885.656 1565.77 913.367 1562.1 920.469 L 1561.45 920.192 C 1560.62 916.042 1571.78 884.031 1574.36 878.716 z" fill="rgb(31,42,73)" transform="translate(0,0)"></path>
<path d="M 1061.29 875.007 C 1086.84 875.156 1076.44 895.113 1071.91 911.788 C 1076.46 912.054 1082.58 911.218 1083.69 916.347 C 1079.51 921.512 1073.04 921.194 1066.84 921.818 C 1063.9 930.794 1049.1 971.877 1052.84 977.654 C 1063.76 978.22 1077.19 957.914 1081.75 948.874 C 1086.4 939.654 1086.88 912.191 1097.93 912.584 C 1100.48 912.683 1102.84 914.011 1104.24 916.149 C 1109.83 924.642 1094.83 956.714 1091.73 970.965 L 1091.36 972.698 C 1103.07 961.049 1115.1 946.886 1118.14 930.64 C 1118.95 926.31 1121.53 916.443 1123.5 912.892 C 1130.83 909.839 1140.27 916.866 1138.54 924.424 C 1133.88 944.848 1127.1 965.447 1121.06 985.511 C 1130.09 980.772 1128.55 981.306 1135.34 975.127 C 1142.88 968.272 1147.39 949.711 1152.53 947.792 C 1156.82 949.368 1155.45 947.987 1157.23 951.587 C 1157.27 966.717 1133.34 990.679 1118.4 994.641 C 1113.29 1010.41 1103.23 1037.39 1080.04 1028.94 C 1072.52 1026.21 1070.18 1015.87 1074.36 1009.05 C 1080.5 999.006 1090.94 995.663 1101.84 992.6 C 1104.96 982.75 1108.2 972.937 1111.55 963.164 C 1102.39 975.023 1086.63 996.527 1074.23 974.698 C 1069.22 979.599 1067.05 981.917 1061.19 985.785 C 1046.72 992.31 1040.51 987.22 1035.64 973.514 C 1030.46 980.98 1022.35 988.984 1012.96 987.869 C 991.659 985.342 1009.5 944.182 1010.98 933.55 C 1010.09 930.453 1007.8 928.124 1004.51 928.35 C 994.139 943.337 991.32 977.827 969.215 986.96 C 954.743 992.94 950.344 985.366 946.568 973.301 C 941.868 979.965 932.02 991.611 924.942 989.312 C 895.266 979.672 923.884 932.116 938.141 921.498 C 953.305 910.206 963.999 908.763 976.951 919.56 C 978.613 920.946 977.795 924.238 977.443 925.949 C 975.187 929.289 972.058 930.195 968.287 931.965 C 969.439 932.463 976.317 934.934 976.206 936.051 C 974.872 949.439 967.589 961.847 965.18 976.058 L 964.92 977.631 C 981.776 968.502 992.084 942.925 996.253 924.909 C 997.676 918.759 994.639 911.477 997.944 902.574 C 1001.54 899.499 1007.18 900.531 1010.61 903.455 C 1012.38 906.796 1011.8 910.654 1011.67 914.544 C 1013.93 918.304 1019.45 919.966 1023.57 922.166 C 1041.86 931.93 1015.1 959.532 1019.22 974.745 C 1021.06 975.405 1020.83 975.754 1022.27 974.791 C 1040.77 962.391 1044.34 941.02 1049.69 922.284 C 1043.51 921.372 1041.9 921.931 1039.04 916.313 C 1040.85 908.398 1047.91 909.781 1054.27 910.097 C 1057.01 898.061 1058.92 887.016 1061.29 875.007 z" fill="rgb(232,195,106)" transform="translate(0,0)"></path>
<path d="M 960.455 924.75 L 962.517 926.34 C 964.984 938.17 940.144 971.244 931.12 978.245 L 929.444 976.363 C 926.102 960.375 946.94 932.131 960.455 924.75 z" fill="rgb(31,42,73)" transform="translate(0,0)"></path>
<path d="M 1095.95 1002.84 L 1096.55 1003.34 C 1098.04 1008.77 1089.09 1019.73 1083.38 1022.18 C 1076.06 1012.08 1088.38 1006.5 1095.95 1002.84 z" fill="rgb(31,42,73)" transform="translate(0,0)"></path>
<path d="M 631.703 1097.85 C 637.663 1098.21 640.806 1099.66 644.326 1104.48 C 651.097 1113.75 656.346 1124.47 662.698 1134.07 C 674.591 1136.27 703.669 1135.74 710.843 1144.65 C 711.817 1153.98 688.49 1174.56 682.493 1185.78 C 698.477 1245.23 691.344 1236.28 643.091 1216.67 C 629.034 1221.26 611.734 1235.71 600.674 1237.11 C 592.7 1234.5 593.798 1224.15 594.217 1217.04 C 594.748 1208.03 595.495 1198.96 596.124 1189.95 C 589.666 1182.87 560.942 1160.34 561.384 1152.89 C 566.443 1145.35 598.061 1142.39 608.532 1138.51 C 615.012 1127.01 622.095 1103.96 631.703 1097.85 z" fill="rgb(232,195,106)" transform="translate(0,0)"></path>
<path d="M 856.738 911.876 C 848.75 917.1 839.665 911.888 835.493 904.723 C 828.786 893.206 846.329 879.494 854.895 875.452 C 877.252 864.904 908.268 868.996 919.862 893.219 C 929.691 914.891 918.352 940.677 896.005 948.395 C 884.819 952.259 877.36 952.424 865.752 952.265 C 861.027 965.112 856.207 978.041 851.763 991.003 C 850.12 995.794 849.925 1004.27 847.792 1007.06 C 819.575 1010.47 855.793 926.738 860.571 913.215 L 856.738 911.876 z" fill="rgb(232,195,106)" transform="translate(0,0)"></path>
<path d="M 856.738 911.876 C 835.56 887.458 889.393 871.779 901.7 891.512 C 910.347 905.378 902.378 929.751 888.327 937.478 C 881.656 940.982 876.543 942.035 869.33 943.502 C 873.827 930.038 888.788 899.941 884.714 890.171 C 882.688 888.533 882.201 887.639 879.155 888.151 C 866.563 890.267 864.163 902.426 860.571 913.215 L 856.738 911.876 z" fill="rgb(31,42,73)" transform="translate(0,0)"></path>
<path d="M 682.834 893.209 C 685.982 892.854 687.134 892.889 690.227 892.951 C 697.127 897.076 693.517 905.39 691.189 911.596 C 688.431 918.947 685.756 925.453 683.809 933.132 L 683.401 934.772 C 688.017 928.805 691.564 922.487 697.006 917.924 C 701.695 913.993 712.757 913.128 715.647 918.416 C 722.676 931.278 697.756 966.122 704.451 977.684 L 706.119 978.067 C 716.242 973.685 727.798 950.814 732.271 940.748 C 739.235 925.076 756.508 905.383 775.197 916.132 C 778.276 917.903 784.019 922.454 784.496 926.346 C 786.391 941.812 776.81 952.504 761.988 955.381 C 755.587 956.631 750.099 955.842 743.993 957.009 C 733.525 969.482 747.935 995.254 777.67 966.323 C 781.24 962.457 785.787 952.957 790.292 952.112 C 792.535 955.346 791.681 953.549 792.088 958.104 C 780.038 987.747 741.62 1005.52 725.738 971.796 C 719.245 980.995 708.072 992.588 695.92 988.328 C 677.345 981.818 695.03 942.205 699.559 930.583 C 686.306 942.823 676.849 953.913 671.255 971.261 C 669.851 975.617 666.58 986.295 664.91 989.838 C 655.89 991.372 652.163 980.77 653.831 973.009 C 656.608 960.539 661.097 947 665.235 934.878 C 669.124 923.483 673.78 900.004 682.834 893.209 z" fill="rgb(232,195,106)" transform="translate(0,0)"></path>
<path d="M 763.71 926.664 C 767.218 926.691 767.402 926.546 769.566 928.779 C 769.674 935.447 759.804 941.537 754.626 944.834 C 750.49 944.996 751.864 945.759 749.484 943.815 C 749.482 937.08 758.531 930.261 763.71 926.664 z" fill="rgb(31,42,73)" transform="translate(0,0)"></path>
<path d="M 700.548 864.683 C 702.887 865.514 703.601 865.996 705.84 867.165 C 709.275 871.422 709.567 878.734 705.649 882.066 C 695.137 891.006 666.899 889.263 654 889.26 C 646.013 913.391 634.77 937.222 627.3 961.832 C 624.948 969.582 612.247 1013.35 609.247 1016.05 C 607.813 1016.42 606.59 1016.72 605.111 1016.35 C 602.215 1015.63 599.26 1013.7 597.883 1010.99 C 594.35 1004.03 622.534 924.019 626.949 911 C 629.975 902.32 633.792 894.008 637.497 885.598 C 626.047 884.493 561.554 881.589 576.332 913.606 C 578.449 918.194 588.035 917.753 593.283 918.469 C 593.326 918.742 593.369 919.015 593.412 919.288 C 591.682 939.58 572.042 930.779 565.233 921.575 C 561.104 916.016 559.469 908.992 560.719 902.181 C 570.515 847.289 665.533 889.089 700.548 864.683 z" fill="rgb(232,195,106)" transform="translate(0,0)"></path>
<path d="M 840.125 1083.83 C 853.331 1084.66 855.05 1099.12 863.852 1108.85 C 871.782 1109.05 890.693 1107.51 893.43 1116.27 C 892.132 1123.54 881.465 1133.23 875.967 1139.14 C 878.256 1146.74 885.84 1166.09 879.296 1171.59 C 873.078 1172.68 857.477 1166.35 849.777 1164.2 C 841.839 1167.53 827.292 1180.68 819.902 1175.62 C 816.664 1169.04 818.773 1152.78 819.163 1144.69 C 813.561 1138.88 796.869 1129.88 798.815 1121.9 C 804.19 1116.97 819.913 1114.39 827.85 1110.89 C 832.342 1101.65 834.476 1092.86 840.125 1083.83 z" fill="rgb(232,195,106)" transform="translate(0,0)"></path>
<path d="M 1028.17 1061.39 C 1041.2 1065.13 1042.65 1083.24 1050.24 1085.23 C 1076.28 1092.06 1093.03 1080.31 1061.69 1116.2 C 1063.39 1124.32 1070.57 1142.45 1062.9 1147.09 C 1055.33 1147.5 1045.74 1141.53 1038.71 1137.92 C 1032.65 1136.77 1021.77 1148.66 1012.93 1151.46 C 1003.42 1150.29 1006.68 1129.46 1006.91 1121.31 C 1001.72 1114.88 986.971 1105.49 988.807 1097.32 C 993.96 1092.14 1007.85 1090.08 1016.04 1087.32 C 1019.28 1079.71 1023.57 1067.56 1028.17 1061.39 z" fill="rgb(232,195,106)" transform="translate(0,0)"></path>
<path d="M 1235.51 870.2 C 1285.22 866.733 1252.14 924.453 1231.46 912.37 L 1231.36 910.702 C 1237.66 906.964 1242.75 901.486 1246.01 894.926 C 1247.79 891.326 1248.68 888.806 1247.41 884.939 C 1241.5 877.909 1227.5 885.373 1221.93 889.56 C 1199.29 906.589 1221.89 928.171 1231.64 944.727 C 1241.44 961.378 1243.4 980.602 1225.64 992.344 C 1185.3 1010.79 1161.14 968.459 1189.63 962.889 C 1193.88 967.658 1189.15 989.466 1208.52 985.396 C 1234.2 980.001 1217.81 955.41 1209.44 942.033 C 1199.22 925.695 1188.11 905.071 1203.52 887.902 C 1212.76 877.583 1222.11 872.728 1235.51 870.2 z" fill="rgb(232,195,106)" transform="translate(0,0)"></path>
<path d="M 1608.59 877.746 C 1627.71 875.277 1616.53 899.508 1613.44 907.125 C 1596.51 905.862 1599.75 886.773 1608.59 877.746 z" fill="rgb(232,195,106)" transform="translate(0,0)"></path>
<path d="M 1453.96 884.767 C 1468.71 887.396 1472.14 901.615 1459.5 907.986 C 1444.87 905.616 1440.03 893.367 1453.96 884.767 z" fill="rgb(232,195,106)" transform="translate(0,0)"></path>
<path d="M 1313.46 561.786 C 1316.9 566.317 1324.85 615.004 1326.54 624.806 C 1348.27 624.917 1369.89 626.915 1391.73 627.166 C 1379.71 635.362 1348.68 651.709 1334.94 659.605 C 1341.28 680.524 1346.05 703.904 1351.5 725.416 C 1336.58 713.455 1319.41 691.021 1304.54 678.544 L 1302.36 678.785 C 1285.51 691.174 1266.59 703.823 1249.36 715.974 C 1256.03 697.799 1267.91 672.307 1275.98 654.29 C 1263.26 642.551 1240.01 624.286 1225.99 613.739 C 1247.66 614.425 1268.23 618.052 1289.47 619.268 L 1313.46 561.786 z" fill="rgb(232,195,106)" transform="translate(0,0)"></path>
<path d="M 873.243 539.08 C 897.818 538.279 902.637 567.671 876.466 574.999 C 850.178 576.822 849.618 548.821 873.243 539.08 z" fill="rgb(232,195,106)" transform="translate(0,0)"></path>
<path d="M 665.009 487.13 C 691.587 485.136 696.973 512.299 674.229 521.964 C 649.851 527.32 641.014 499.962 665.009 487.13 z" fill="rgb(232,195,106)" transform="translate(0,0)"></path>
<path d="M 1521.2 684.11 C 1545.24 680.782 1552.37 709.77 1527.49 718.1 C 1501.77 722.302 1497.94 695.908 1521.2 684.11 z" fill="rgb(232,195,106)" transform="translate(0,0)"></path>
<path d="M 1735.15 741.156 C 1759.79 738.705 1766.49 764.213 1742.74 774.863 C 1718.37 775.999 1712.45 752.748 1735.15 741.156 z" fill="rgb(232,195,106)" transform="translate(0,0)"></path>
<path d="M 1083.03 590.116 C 1106.75 588.451 1113.33 611.91 1090.89 623.758 C 1063.78 626.459 1062.63 601.77 1083.03 590.116 z" fill="rgb(232,195,106)" transform="translate(0,0)"></path>
<metadata><recraft-signature>{"signed_by": "recraft", "signature_b64": "nSmNVRbu9vZ1RouQ8fIi3sGVJDLrvph9NpSrNWA65EQY9Km951Fxb0Pi6GonYUhM7OrdjhWmTTMCawOelkI1AQ==", "signing_algo": "Ed25519", "generation_timestamp": 1772546672, "identifier": "85bbc3a2-52f2-4482-be00-3cd95c23c6ce"}</recraft-signature></metadata></svg>