<svg xmlns="http://www.w3.org/2000/svg" height="1024" preserveAspectRatio="none" style="display: block;" version="1.1" viewBox="0 0 2048 2048" width="1024">
<defs>
	<linearGradient gradientUnits="userSpaceOnUse" id="Gradient1" x1="1555.66" x2="1576.7" y1="1640.47" y2="1625.31">
		<stop class="stop0" offset="0" stop-color="rgb(35,34,35)" stop-opacity="1"></stop>
		<stop class="stop1" offset="1" stop-color="rgb(64,59,57)" stop-opacity="1"></stop>
	</linearGradient>
</defs>
<path d="M 0 0 L 2048 0 L 2048 2048 L 0 2048 L 0 0 z" fill="rgb(255,255,254)" transform="translate(0,0)"></path>
<path d="M 1026.99 545.497 C 1100.04 551.305 1145.48 579.745 1185.83 640.594 L 1186.42 642.152 C 1189.83 650.983 1195.8 660.549 1199.35 670.047 C 1214.39 710.199 1216.65 747.183 1207.76 788.94 C 1205.5 799.554 1193.52 825.527 1192.72 830.376 C 1257.37 862.637 1312.85 938.442 1335.36 1006.28 C 1345.8 1038.15 1351.19 1071.46 1351.33 1104.99 C 1350.32 1290.92 1207.49 1430.39 1022.95 1434.79 C 937.069 1433.59 854.966 1399.3 793.738 1339.07 C 731.371 1276.99 696.533 1192.47 697.037 1104.47 C 695.973 1015.26 739.013 925.344 805.259 866.651 C 820.754 852.921 838.262 840.954 855.728 829.917 C 851.261 820.408 847.427 810.615 844.25 800.602 C 826.946 744.381 835.893 695.424 862.586 644.684 L 863.096 643.711 L 864.222 645.096 C 869.96 652.252 874.872 662.058 881.105 669.419 C 913.151 707.224 958.249 731.589 1007.43 737.67 C 1012.94 738.34 1018.47 738.811 1024.01 739.083 C 1025.13 723.953 1024.33 703.613 1024.65 687.618 L 1024.72 596.212 C 1024.7 581.272 1024.57 565.83 1024.83 550.892 C 1024.9 547.06 1024.91 547.287 1026.99 545.497 z" fill="rgb(246,89,54)" transform="translate(0,0)"></path>
<path d="M 697.037 1104.47 C 750.594 1104.91 804.153 1104.87 857.709 1104.35 C 858.846 1150.29 874.388 1193.68 908.265 1225.73 C 939.34 1255.2 980.169 1272.2 1022.97 1273.5 L 1023.08 1381.36 C 1023.1 1394.39 1023.97 1422.67 1022.95 1434.79 C 937.069 1433.59 854.966 1399.3 793.738 1339.07 C 731.371 1276.99 696.533 1192.47 697.037 1104.47 z" fill="rgb(38,38,43)" transform="translate(0,0)"></path>
<path d="M 1026.99 545.497 C 1100.04 551.305 1145.48 579.745 1185.83 640.594 L 1186.42 642.152 C 1189.83 650.983 1195.8 660.549 1199.35 670.047 C 1214.39 710.199 1216.65 747.183 1207.76 788.94 C 1205.5 799.554 1193.52 825.527 1192.72 830.376 C 1185.63 839.011 1180.44 851.701 1172.84 861.059 C 1136.55 905.741 1094.53 928.374 1037.58 935.527 C 1034.13 935.953 1030.66 936.323 1027.19 936.636 L 1025.41 936.013 C 1024.99 935.516 1024.56 935.02 1024.14 934.524 C 1023.02 883.795 1024.94 790.467 1023.85 742.871 L 1024.01 739.083 C 1025.13 723.953 1024.33 703.613 1024.65 687.618 L 1024.72 596.212 C 1024.7 581.272 1024.57 565.83 1024.83 550.892 C 1024.9 547.06 1024.91 547.287 1026.99 545.497 z" fill="rgb(246,89,54)" transform="translate(0,0)"></path>
<path d="M 1026.99 545.497 C 1100.04 551.305 1145.48 579.745 1185.83 640.594 C 1159.26 698.868 1087.76 738.55 1024.68 738.063 C 1024.71 722.047 1025.21 703.417 1024.65 687.618 L 1024.72 596.212 C 1024.7 581.272 1024.57 565.83 1024.83 550.892 C 1024.9 547.06 1024.91 547.287 1026.99 545.497 z" fill="rgb(38,38,43)" transform="translate(0,0)"></path>
<path d="M 1027.19 936.636 C 1030.66 936.323 1034.13 935.953 1037.58 935.527 C 1094.53 928.374 1136.55 905.741 1172.84 861.059 C 1180.44 851.701 1185.63 839.011 1192.72 830.376 C 1257.37 862.637 1312.85 938.442 1335.36 1006.28 C 1345.8 1038.15 1351.19 1071.46 1351.33 1104.99 L 1194.07 1104.74 C 1191.7 1075.29 1187.33 1051.46 1172.56 1025.38 C 1141.74 970.956 1088.24 939.511 1025.8 938.255 L 1027.19 936.636 z" fill="rgb(38,38,43)" transform="translate(0,0)"></path>
<path d="M 863.096 643.711 L 864.222 645.096 C 869.96 652.252 874.872 662.058 881.105 669.419 C 913.151 707.224 958.249 731.589 1007.43 737.67 C 1012.94 738.34 1018.47 738.811 1024.01 739.083 L 1023.85 742.871 C 1024.94 790.467 1023.02 883.795 1024.14 934.524 C 1024.56 935.02 1024.99 935.516 1025.41 936.013 L 1027.19 936.636 L 1025.8 938.255 C 1022.55 937.43 1015.65 936.647 1011.95 936.052 C 945.585 932.589 886.899 886.5 855.728 829.917 C 851.261 820.408 847.427 810.615 844.25 800.602 C 826.946 744.381 835.893 695.424 862.586 644.684 L 863.096 643.711 z" fill="rgb(38,38,43)" transform="translate(0,0)"></path>
<path d="M 1023.85 742.871 C 1024.94 790.467 1023.02 883.795 1024.14 934.524 C 1024.56 935.02 1024.99 935.516 1025.41 936.013 L 1027.19 936.636 L 1025.8 938.255 C 1022.55 937.43 1015.65 936.647 1011.95 936.052 C 1016.6 936.143 1018.13 936.304 1022.6 935.409 C 1023.55 930.968 1023.01 898.09 1023 891.099 L 1023.07 793.697 C 1023.12 779.716 1022.58 755.944 1023.85 742.871 z" fill="rgb(128,41,30)" transform="translate(0,0)"></path>
<path d="M 1017.74 939.43 C 1020.65 939.107 1021.72 938.622 1024.27 939.93 C 1025.49 944.426 1024.98 980.309 1024.96 987.29 L 1024.76 1104.91 L 866.75 1104.26 C 863.192 1104.35 862.517 1104.28 858.972 1103.78 L 858.213 1102.55 C 857.889 1095.02 859.602 1087.09 860.804 1079.69 C 865.552 1050.51 877.469 1022.14 897.113 999.636 C 930.397 961.515 967.829 943.256 1017.74 939.43 z" fill="rgb(248,246,235)" transform="translate(0,0)"></path>
<path d="M 862.586 644.684 C 846.517 620.441 835.631 580.007 834.618 550.972 C 832.447 500.967 850.734 452.235 885.265 416.003 C 923.575 375.412 967.75 357.262 1023.2 355.775 L 1023.26 445.536 C 1023.22 457.531 1022.41 483.444 1023.67 494.518 C 1020.96 505.916 1015.97 528.954 1018.01 539.934 C 1020.12 541.531 1018.97 540.985 1021.71 541.146 L 1025.02 544.692 C 1026.78 545.139 1026.22 544.703 1026.99 545.497 C 1024.91 547.287 1024.9 547.06 1024.83 550.892 C 1024.57 565.83 1024.7 581.272 1024.72 596.212 L 1024.65 687.618 C 1024.33 703.613 1025.13 723.953 1024.01 739.083 C 1018.47 738.811 1012.94 738.34 1007.43 737.67 C 958.249 731.589 913.151 707.224 881.105 669.419 C 874.872 662.058 869.96 652.252 864.222 645.096 L 863.096 643.711 L 862.586 644.684 z" fill="rgb(246,89,54)" transform="translate(0,0)"></path>
<path d="M 1025.02 544.692 C 1026.78 545.139 1026.22 544.703 1026.99 545.497 C 1024.91 547.287 1024.9 547.06 1024.83 550.892 C 1024.57 565.83 1024.7 581.272 1024.72 596.212 L 1024.65 687.618 C 1024.33 703.613 1025.13 723.953 1024.01 739.083 C 1018.47 738.811 1012.94 738.34 1007.43 737.67 C 958.249 731.589 913.151 707.224 881.105 669.419 C 874.872 662.058 869.96 652.252 864.222 645.096 L 863.096 643.711 C 863.193 641.872 863.678 640.492 864.605 638.82 C 887.619 597.282 934.036 563.346 979.832 551.69 C 993.204 548.287 1010.06 547.406 1023.72 545.199 C 1024.15 545.03 1024.58 544.861 1025.02 544.692 z" fill="rgb(248,246,235)" transform="translate(0,0)"></path>
<path d="M 1023.67 494.518 C 1036.37 466.304 1054.52 443.24 1084.4 431.984 C 1107.6 423.188 1133.38 424.21 1155.81 434.815 C 1198.3 454.433 1215.54 496.284 1214.91 540.91 L 1085.08 541.115 C 1065.67 541.158 1040.64 540.202 1021.71 541.146 C 1018.97 540.985 1020.12 541.531 1018.01 539.934 C 1015.97 528.954 1020.96 505.916 1023.67 494.518 z" fill="rgb(38,38,43)" transform="translate(0,0)"></path>
<path d="M 1130.83 1585.18 C 1128.22 1582.45 1126.52 1581.24 1125.68 1577.58 C 1128.45 1573.89 1141 1569.02 1146.35 1570.28 C 1148.96 1573.39 1148.03 1573.22 1148.06 1578.54 L 1149.1 1577.94 C 1152.81 1575.8 1154.59 1574.78 1158.74 1573.4 C 1162.8 1571.93 1167.29 1570.26 1171.59 1569.85 C 1203.75 1566.78 1209.85 1614.06 1191.92 1632.79 C 1179.13 1646.15 1163.57 1644.69 1147.46 1639.57 C 1147.13 1650.06 1144.77 1669.63 1151.09 1678.28 C 1151.47 1678.8 1154.56 1681.43 1155.16 1681.98 C 1148.38 1682.07 1132.31 1682.68 1126.35 1681.63 C 1126.28 1674.98 1131.34 1675.33 1131.25 1670.15 C 1130.74 1641.9 1130.84 1613.44 1130.83 1585.18 z" fill="rgb(38,38,43)" transform="translate(0,0)"></path>
<path d="M 1148.06 1578.54 L 1149.1 1577.94 C 1152.81 1575.8 1154.59 1574.78 1158.74 1573.4 C 1161.76 1574.85 1163.14 1574.84 1166.49 1575.54 C 1183.13 1582.38 1184.29 1594.75 1186.42 1611.47 C 1187.05 1619.58 1186.43 1629.9 1181.36 1636.36 C 1171.43 1649 1148.7 1631.96 1148.27 1621.47 C 1147.87 1611.56 1146.94 1588.84 1148.59 1579.78 L 1148.06 1578.54 z" fill="rgb(255,255,254)" transform="translate(0,0)"></path>
<path d="M 1148.06 1578.54 L 1149.1 1577.94 C 1152.81 1575.8 1154.59 1574.78 1158.74 1573.4 C 1161.76 1574.85 1163.14 1574.84 1166.49 1575.54 C 1156.04 1576.23 1158.04 1575.73 1148.59 1579.78 L 1148.06 1578.54 z" fill="rgb(67,63,64)" transform="translate(0,0)"></path>
<path d="M 679.665 1539.38 C 702.526 1539.2 751.788 1533.03 753.355 1565.78 C 753.857 1574.59 750.686 1583.22 744.596 1589.61 C 735.318 1599.34 723.078 1601.67 710.365 1602.21 C 707.638 1603.12 706.413 1602.95 703.519 1603.16 C 701.935 1615.29 701.867 1631.97 708.786 1642.3 C 699.11 1642.54 688.779 1642.27 679.051 1642.18 L 685.073 1635 C 685.21 1606.03 685.748 1575.83 685.109 1546.97 C 683.58 1544.62 681.353 1541.71 679.665 1539.38 z" fill="rgb(38,38,43)" transform="translate(0,0)"></path>
<path d="M 703.863 1600.6 C 700.82 1586.95 703.678 1557.94 703.438 1543.21 C 703.387 1540.09 721.32 1542.63 725.768 1548.26 C 730.409 1554.13 735.11 1558.17 735.01 1567.49 C 735.102 1586.64 731.221 1598.04 710.953 1600.32 C 710.582 1600.63 709.879 1601.02 709.819 1601.56 C 710.004 1601.92 709.855 1601.71 710.365 1602.21 C 707.638 1603.12 706.413 1602.95 703.519 1603.16 C 703.634 1602.31 703.748 1601.45 703.863 1600.6 z" fill="rgb(255,255,254)" transform="translate(0,0)"></path>
<path d="M 703.863 1600.6 C 707.093 1600.13 707.714 1600.07 710.953 1600.32 C 710.582 1600.63 709.879 1601.02 709.819 1601.56 C 710.004 1601.92 709.855 1601.71 710.365 1602.21 C 707.638 1603.12 706.413 1602.95 703.519 1603.16 C 703.634 1602.31 703.748 1601.45 703.863 1600.6 z" fill="rgb(118,115,114)" transform="translate(0,0)"></path>
<path d="M 1413.48 1578.29 C 1426.35 1569.26 1448.77 1563.72 1458.93 1578.98 C 1468.93 1594.01 1458.3 1622.99 1465.49 1639.18 C 1465.63 1639.5 1468.65 1641.53 1467.49 1642.49 C 1444.36 1643.77 1444.96 1645.56 1446.43 1622.43 L 1442.98 1621.32 C 1438.58 1631.45 1436.47 1637.9 1425.41 1642.72 C 1408.26 1650.18 1393.18 1630.87 1402.03 1615.53 C 1407.5 1606.05 1421.74 1602.1 1432.15 1599.14 C 1437.07 1597.14 1440.31 1595.56 1445 1593.27 C 1447.17 1573.07 1429.61 1571.48 1415.29 1579.45 L 1413.48 1578.29 z" fill="rgb(38,38,43)" transform="translate(0,0)"></path>
<path d="M 1432.15 1599.14 C 1437.07 1597.14 1440.31 1595.56 1445 1593.27 C 1445.33 1593.88 1445.65 1594.5 1445.97 1595.11 C 1446.1 1605.39 1443.92 1617.9 1436.65 1625.65 C 1433.24 1629.27 1428.45 1631.26 1423.48 1631.14 C 1416.56 1631 1413.99 1623.32 1414.36 1617.49 C 1414.96 1608.19 1425.7 1603.92 1432.82 1600.66 L 1432.15 1599.14 z" fill="rgb(255,255,254)" transform="translate(0,0)"></path>
<path d="M 1432.15 1599.14 C 1437.07 1597.14 1440.31 1595.56 1445 1593.27 C 1445.33 1593.88 1445.65 1594.5 1445.97 1595.11 C 1442.75 1596.68 1436.21 1599.72 1432.82 1600.66 L 1432.15 1599.14 z" fill="rgb(91,89,86)" transform="translate(0,0)"></path>
<path d="M 1442.98 1621.32 C 1443.57 1619.76 1444.46 1616.85 1445.54 1615.68 C 1446.37 1616.13 1446.38 1621.52 1446.43 1622.43 L 1442.98 1621.32 z" fill="rgb(248,246,235)" transform="translate(0,0)"></path>
<path d="M 781.486 1572.34 C 793.932 1567.53 813.039 1567.26 817.362 1582.39 C 822.065 1598.85 816.806 1619.69 820.433 1636.61 C 820.715 1637.92 824.128 1641.65 825.095 1643.01 C 800.369 1643.03 803.174 1645.17 802.877 1619.48 C 797.864 1630.05 793.259 1638.56 781.624 1643.4 C 772.151 1647.34 760.496 1641.47 757.704 1631.56 C 749.508 1602.49 786.976 1604.74 801.732 1592.34 C 802.555 1591.65 801.666 1586.86 801.436 1585.96 C 798.961 1576.3 792.509 1575.37 784.109 1575.11 L 781.486 1572.34 z" fill="rgb(38,38,43)" transform="translate(0,0)"></path>
<path d="M 801.677 1596.02 C 804.769 1599.33 799.285 1639.95 775.982 1629.8 C 757.784 1608.15 787.442 1603.11 801.677 1596.02 z" fill="rgb(255,255,254)" transform="translate(0,0)"></path>
<path d="M 1085.78 1539.08 C 1096.3 1538.79 1103.41 1541.28 1112.96 1545.16 C 1113.12 1552.14 1113.1 1559.12 1112.9 1566.09 C 1102.31 1551.76 1100.04 1545.85 1081.94 1541.32 C 1069.3 1542.05 1056 1548.24 1059 1562.01 C 1063.79 1583.91 1112.06 1583.07 1116.78 1607.51 C 1118.29 1615.52 1116.41 1623.8 1111.59 1630.38 C 1108.69 1634.38 1106.44 1635.74 1102.55 1638.45 L 1100.2 1637.21 C 1131.69 1603.69 1043.15 1602.47 1047.49 1568.99 C 1050.48 1545.86 1065.02 1538.75 1085.78 1539.08 z" fill="rgb(38,38,43)" transform="translate(0,0)"></path>
<path d="M 480.374 1535.01 C 489.115 1530.27 495.71 1527.09 504.988 1523.69 C 504.911 1540.42 504.752 1557.32 504.9 1574.05 C 504.94 1578.6 504.678 1578.76 507.083 1580.98 L 508.309 1582.09 C 502.464 1587.4 503.955 1628.56 506.798 1637.35 C 507.435 1639.31 508.395 1639.23 508.258 1642.24 C 502.417 1643.37 488.405 1642.77 481.853 1642.68 C 490.702 1627.58 488.045 1612.45 487.975 1595.24 L 487.747 1541.09 C 485.465 1538.79 482.944 1536.99 480.374 1535.01 z" fill="rgb(38,38,43)" transform="translate(0,0)"></path>
<path d="M 1496.18 1524.01 C 1500.82 1529.62 1495.56 1615.77 1498.12 1629.18 C 1499.65 1637.25 1498.74 1636.94 1506.2 1642.11 C 1496.81 1642.95 1486.43 1642.71 1476.92 1642.71 L 1474.67 1642.12 C 1475.03 1639.7 1478.53 1636.56 1480.5 1634.35 C 1481.83 1606.01 1480.95 1570.31 1480.71 1541.47 L 1474.31 1533.59 C 1480.74 1530.17 1489.31 1526.87 1496.18 1524.01 z" fill="rgb(38,38,43)" transform="translate(0,0)"></path>
<path d="M 425.805 1540.96 C 428.614 1539.63 439.12 1539.99 442.584 1540.05 C 442.545 1543.9 441.558 1555.5 443.628 1557.72 C 443.706 1581.33 443.711 1604.94 443.804 1628.55 C 443.835 1636.55 445.635 1636.01 449.87 1641.29 C 445.768 1643.54 425.586 1642.55 419.839 1642.48 L 425.31 1634.51 C 426.38 1624.03 425.999 1609.34 425.977 1598.49 L 425.805 1540.96 z" fill="rgb(38,38,43)" transform="translate(0,0)"></path>
<path d="M 1328.45 1569.36 C 1334.04 1569.46 1352.84 1570.56 1353.01 1580.49 C 1351.21 1587.97 1342.9 1587.59 1337.95 1587.52 C 1331.05 1587.42 1321.32 1573.49 1321.55 1573.52 C 1315.21 1572.54 1306.48 1580.83 1304.74 1586.99 C 1296.01 1617.83 1318.75 1640.77 1349.11 1625.39 C 1352.73 1623.02 1355.33 1621.24 1359.22 1619.28 C 1346.12 1636.49 1327.24 1653.74 1304.74 1639.33 C 1296 1633.72 1290 1624.72 1288.19 1614.49 C 1285.45 1599.42 1295.23 1581.29 1308.99 1574.74 C 1315.25 1571.76 1321.65 1570.34 1328.45 1569.36 z" fill="rgb(38,38,43)" transform="translate(0,0)"></path>
<path d="M 941.596 1624.1 C 935.962 1632.27 930.241 1641.22 919.878 1643.63 C 897.632 1648.81 898.859 1626.24 898.787 1611.26 C 898.726 1598.53 898.916 1586.57 898.493 1573.92 C 898.368 1570.18 890.105 1574.4 891.124 1571.51 C 894.873 1566.14 906.317 1556.73 911.492 1553.94 L 915.075 1552.02 C 915.128 1558.34 914.962 1564.31 915.547 1570.61 C 918.269 1571.92 921.12 1571.78 924.178 1572.17 C 922.454 1572.36 915.179 1572.19 915.324 1574.45 C 915.976 1584.6 912.964 1623.95 917.863 1630.57 C 919.311 1632.54 921.553 1633.78 923.995 1633.95 C 931.506 1634.51 936.24 1628.45 941.596 1624.1 z" fill="rgb(38,38,43)" transform="translate(0,0)"></path>
<path d="M 1661.87 1625.67 C 1653.67 1635.05 1643.74 1647.72 1629.63 1643.55 C 1616.73 1639.73 1619.87 1619.81 1619.41 1609.54 C 1620.08 1604.25 1618.56 1585.76 1619.27 1582.03 C 1622.12 1567.12 1612.07 1573.79 1611.47 1571.43 C 1612.65 1568.35 1632.18 1554.1 1635.87 1551.53 C 1635.9 1557.64 1635.77 1563.72 1636.04 1569.81 C 1635.91 1570.76 1635.78 1571.71 1635.65 1572.66 C 1636.03 1583.29 1634.18 1620.29 1637.11 1629.99 C 1639.95 1639.4 1655.93 1629.36 1661.87 1625.67 z" fill="rgb(38,38,43)" transform="translate(0,0)"></path>
<path d="M 1237.47 1572.45 L 1237.98 1573.89 C 1230.41 1580.63 1229.14 1584.47 1227.78 1594.36 L 1227.51 1595.77 C 1228.88 1611.26 1229 1622.74 1247.5 1629.01 C 1260.88 1633.54 1269.94 1627.22 1281.47 1620.99 C 1262.9 1645.05 1249.51 1651.08 1222.04 1635.35 C 1206.96 1610.91 1209.02 1584.7 1237.47 1572.45 z" fill="rgb(38,38,43)" transform="translate(0,0)"></path>
<path d="M 638.601 1619.39 C 633.329 1627.4 628.844 1633.63 620.418 1638.86 C 604.346 1648.84 581.307 1644.12 572.552 1626.74 C 563.184 1608.15 571.933 1582.19 591.215 1573.34 L 593.023 1572.47 L 593.932 1574.01 C 588.843 1578.63 583.107 1586.74 584.467 1593.98 L 584.54 1595.88 C 582.952 1598.42 583.458 1599.06 583.571 1602 C 584.084 1615.3 591.792 1626.46 605.01 1629.68 C 619.504 1633.22 627.098 1626.4 638.601 1619.39 z" fill="rgb(38,38,43)" transform="translate(0,0)"></path>
<path d="M 937.289 1570.16 C 939.593 1570.15 962.349 1569.53 962.906 1570.55 C 962.349 1572.38 958.83 1573.72 960.44 1576.59 C 964.615 1584.05 977.479 1618.01 981.929 1622.37 L 983.422 1623.32 C 980.027 1632.77 977.596 1639.26 973.27 1648.44 L 971.871 1647.15 C 969.961 1637.44 943.327 1579.02 937.289 1570.16 z" fill="rgb(38,38,43)" transform="translate(0,0)"></path>
<path d="M 513.248 1576.67 C 521.511 1572.28 533.795 1568.08 542.498 1571.06 C 568.022 1579.77 549.09 1621.62 559.804 1639.57 C 560.277 1640.36 560.606 1640.43 560.77 1641.49 C 560.231 1642.76 535.946 1642.7 533.159 1642.73 C 535.405 1639.74 537.615 1637.48 539.891 1634.59 C 540.248 1624.82 539.774 1614.51 540.176 1604.97 C 541.028 1584.8 539.283 1569.04 514.283 1578.33 L 513.248 1576.67 z" fill="rgb(38,38,43)" transform="translate(0,0)"></path>
<path d="M 1530.96 1569.89 C 1531.72 1570.21 1533.32 1570.7 1533.76 1571.57 C 1538.18 1580.2 1530.25 1630.51 1537.52 1638.02 C 1538.33 1638.86 1539.9 1640.07 1540.05 1641.38 C 1538.53 1642.94 1518.06 1642.58 1514.39 1642.6 C 1513.41 1642.43 1512.27 1642.43 1511.75 1641.47 C 1511.81 1640.2 1515.88 1636.8 1516.88 1635.73 C 1517.83 1619.64 1517.32 1603.13 1517.37 1586.99 C 1517.38 1583.15 1513.76 1581.78 1511.26 1579.37 C 1517.88 1575.73 1523.78 1571.99 1530.96 1569.89 z" fill="rgb(38,38,43)" transform="translate(0,0)"></path>
<path d="M 830.878 1577.8 C 838.819 1573.68 844.717 1571.31 852.931 1567.9 C 852.972 1571.75 852.584 1583.58 853.591 1586.4 L 855.297 1586.43 C 855.018 1587.82 853.239 1592.68 853.242 1592.59 C 852.912 1605.97 852.268 1620.2 853.824 1633.5 C 854.071 1635.61 857.267 1640.34 858.356 1642.41 C 849.58 1642.73 840.796 1642.72 832.021 1642.39 C 838.445 1626.37 836.588 1603.76 836.551 1586.13 C 834.684 1583.34 832.788 1580.56 830.878 1577.8 z" fill="rgb(38,38,43)" transform="translate(0,0)"></path>
<path d="M 1382.98 1568.87 C 1388.74 1572.93 1383.16 1623.23 1386.15 1632.47 C 1387.72 1637.33 1389.68 1638.32 1392.87 1642.04 C 1383.56 1642.66 1376.38 1642.77 1367.02 1642.77 C 1360.32 1641.51 1369.12 1637.19 1368.77 1627.51 C 1368.27 1613.83 1368.8 1599.14 1368.69 1585.32 C 1366.18 1582.86 1364.22 1581.35 1361.59 1579.09 C 1370.59 1575.92 1374.88 1573.81 1382.98 1568.87 z" fill="rgb(38,38,43)" transform="translate(0,0)"></path>
<path d="M 1589.77 1639.01 C 1593.56 1635.17 1595.45 1629.62 1592.64 1625.2 C 1584.03 1611.68 1558.01 1615.28 1551.58 1598.27 C 1546.59 1585.06 1555.16 1575.49 1567.07 1571.03 L 1567.77 1572.53 C 1562.21 1576.08 1556.53 1581.97 1561.99 1587.99 C 1575.1 1602.45 1605.81 1595.27 1602.74 1624 C 1601.8 1632.84 1598.12 1635.55 1591.36 1640.66 L 1589.77 1639.01 z" fill="rgb(38,38,43)" transform="translate(0,0)"></path>
<path d="M 593.023 1572.47 C 599.975 1569.69 602.308 1569.74 609.773 1569.59 C 625.675 1571.82 634.368 1579.01 635.164 1595.49 C 625.629 1596.79 595.28 1596.3 584.54 1595.88 L 584.467 1593.98 C 583.107 1586.74 588.843 1578.63 593.932 1574.01 L 593.023 1572.47 z" fill="rgb(255,255,254)" transform="translate(0,0)"></path>
<path d="M 609.773 1569.59 C 625.675 1571.82 634.368 1579.01 635.164 1595.49 C 631.773 1595.08 622.13 1595.47 620.599 1593.72 C 618.801 1583.42 616.826 1579.87 609.09 1572.7 L 609.773 1569.59 z" fill="rgb(38,38,43)" transform="translate(0,0)"></path>
<path d="M 584.467 1593.98 C 593.151 1593.55 612.515 1592.41 620.599 1593.72 C 622.13 1595.47 631.773 1595.08 635.164 1595.49 C 625.629 1596.79 595.28 1596.3 584.54 1595.88 L 584.467 1593.98 z" fill="rgb(91,89,86)" transform="translate(0,0)"></path>
<path d="M 593.023 1572.47 C 599.975 1569.69 602.308 1569.74 609.773 1569.59 L 609.09 1572.7 C 602.861 1571.47 600.113 1571.96 593.932 1574.01 L 593.023 1572.47 z" fill="rgb(67,63,64)" transform="translate(0,0)"></path>
<path d="M 1237.47 1572.45 C 1243.82 1569.16 1253.58 1569.44 1260.47 1570.76 C 1274.69 1574.3 1278.03 1583.3 1280.91 1595.99 C 1273.43 1596.01 1272.14 1595.93 1264.74 1594.88 C 1255.82 1594.9 1234.33 1596.16 1227.51 1595.77 L 1227.78 1594.36 C 1229.14 1584.47 1230.41 1580.63 1237.98 1573.89 L 1237.47 1572.45 z" fill="rgb(255,255,254)" transform="translate(0,0)"></path>
<path d="M 1237.47 1572.45 C 1243.82 1569.16 1253.58 1569.44 1260.47 1570.76 C 1274.69 1574.3 1278.03 1583.3 1280.91 1595.99 C 1273.43 1596.01 1272.14 1595.93 1264.74 1594.88 C 1264.28 1594.3 1264.04 1593.73 1263.65 1593.03 C 1261.75 1580.83 1257.41 1575.03 1246.04 1571.84 C 1243.28 1572.8 1240.76 1573.07 1237.98 1573.89 L 1237.47 1572.45 z" fill="rgb(38,38,43)" transform="translate(0,0)"></path>
<path d="M 1237.47 1572.45 C 1243.82 1569.16 1253.58 1569.44 1260.47 1570.76 C 1255.05 1570.93 1251.16 1570.23 1246.04 1571.84 C 1243.28 1572.8 1240.76 1573.07 1237.98 1573.89 L 1237.47 1572.45 z" fill="rgb(91,89,86)" transform="translate(0,0)"></path>
<path d="M 1227.78 1594.36 C 1241.4 1592.36 1249.63 1592.14 1263.65 1593.03 C 1264.04 1593.73 1264.28 1594.3 1264.74 1594.88 C 1255.82 1594.9 1234.33 1596.16 1227.51 1595.77 L 1227.78 1594.36 z" fill="rgb(67,63,64)" transform="translate(0,0)"></path>
<path d="M 1372.89 1540.4 C 1376.8 1539.23 1381.04 1540.29 1383.94 1543.16 C 1386.83 1546.04 1387.93 1550.27 1386.79 1554.19 C 1385.65 1558.1 1382.45 1561.08 1378.46 1561.95 C 1372.62 1563.23 1366.81 1559.65 1365.31 1553.86 C 1363.81 1548.07 1367.16 1542.12 1372.89 1540.4 z" fill="rgb(38,38,43)" transform="translate(0,0)"></path>
<path d="M 1521.3 1540.22 C 1525.12 1538.96 1529.32 1539.88 1532.26 1542.62 C 1535.2 1545.36 1536.42 1549.48 1535.43 1553.38 C 1534.45 1557.27 1531.42 1560.32 1527.54 1561.34 C 1521.78 1562.85 1515.86 1559.51 1514.18 1553.8 C 1512.5 1548.09 1515.65 1542.08 1521.3 1540.22 z" fill="rgb(38,38,43)" transform="translate(0,0)"></path>
<path d="M 1046.9 1609.2 C 1058.33 1630.77 1064.48 1640.41 1090.1 1641.12 L 1090.84 1642.72 C 1072.41 1644.63 1063.44 1642.65 1047.09 1634.06 C 1046.9 1625.77 1046.84 1617.48 1046.9 1609.2 z" fill="rgb(46,42,43)" transform="translate(0,0)"></path>
<path d="M 961.581 1668.4 C 954.499 1674.98 949.811 1678.14 939.218 1677.58 C 930.021 1677.09 928.249 1669.19 935.523 1663.98 C 942.427 1659.03 952.731 1664.93 960.757 1666.86 L 961.581 1668.4 z" fill="rgb(38,38,43)" transform="translate(0,0)"></path>
<path d="M 859.627 1577.17 C 869.164 1567.07 897.935 1564.13 885.566 1580.55 C 881.798 1585.55 866.389 1584 860.165 1579.98 L 859.627 1577.17 z" fill="rgb(38,38,43)" transform="translate(0,0)"></path>
<path d="M 1548.99 1615.45 C 1558.58 1629.47 1567.58 1645.27 1587.53 1640.21 L 1589.23 1641.3 C 1581.67 1644.29 1577.94 1644.08 1570 1643.22 C 1545.55 1640.58 1549.01 1636.45 1548.99 1615.45 z" fill="url(#Gradient1)" transform="translate(0,0)"></path>
<path d="M 395.127 1539.67 C 400.298 1538.75 455.647 1538.78 461.745 1539.28 C 459.343 1541.06 446.393 1540.16 442.584 1540.05 C 439.12 1539.99 428.614 1539.63 425.805 1540.96 C 421.914 1541.9 421.579 1542.03 417.723 1541.27 C 404.248 1544.29 403.25 1549.88 394.719 1560.44 C 394.776 1553.48 395.04 1546.62 395.127 1539.67 z" fill="rgb(46,42,43)" transform="translate(0,0)"></path>
<path d="M 395.127 1539.67 C 400.298 1538.75 455.647 1538.78 461.745 1539.28 C 459.343 1541.06 446.393 1540.16 442.584 1540.05 C 439.12 1539.99 428.614 1539.63 425.805 1540.96 C 421.914 1541.9 421.579 1542.03 417.723 1541.27 C 413.267 1539.16 402.417 1540.61 395.127 1539.67 z" fill="rgb(67,63,64)" transform="translate(0,0)"></path>
<path d="M 461.745 1539.28 C 466.117 1539.05 470.486 1538.77 474.85 1538.44 C 474.774 1546.57 474.687 1553.14 474.183 1561.23 C 462.934 1543.89 465.323 1543.17 443.827 1541.67 C 443.587 1547.1 443.81 1552.35 443.628 1557.72 C 441.558 1555.5 442.545 1543.9 442.584 1540.05 C 446.393 1540.16 459.343 1541.06 461.745 1539.28 z" fill="rgb(46,42,43)" transform="translate(0,0)"></path>
<path d="M 1585.15 1569.69 C 1590.9 1570.43 1594.88 1571.43 1600.42 1572.76 L 1600.07 1589.43 L 1598.96 1587.75 C 1592.82 1578.07 1587.97 1574.79 1577.5 1571.11 C 1579.98 1570.31 1582.58 1570.12 1585.15 1569.69 z" fill="rgb(46,42,43)" transform="translate(0,0)"></path>
<path d="M 994.366 1570.41 L 1011.1 1570.07 C 1001.64 1579.92 997.922 1586.88 993.328 1600.09 L 990.836 1600.65 C 993.547 1593.13 996.748 1586.07 999.459 1578.54 L 998.501 1576.97 C 997.19 1574.75 995.745 1572.6 994.366 1570.41 z" fill="rgb(46,42,43)" transform="translate(0,0)"></path>
<path d="M 960.757 1666.86 C 961.151 1665.95 971.193 1648.16 971.871 1647.15 L 973.27 1648.44 C 969.857 1656.43 967.178 1661.74 961.581 1668.4 L 960.757 1666.86 z" fill="rgb(67,63,64)" transform="translate(0,0)"></path>
<path d="M 990.836 1600.65 L 993.328 1600.09 C 989.898 1607.5 987 1615.83 983.422 1623.32 L 981.929 1622.37 C 984.644 1615.84 987.974 1606.67 990.836 1600.65 z" fill="rgb(67,63,64)" transform="translate(0,0)"></path>
<path d="M 1636.04 1569.81 C 1635.18 1569.78 1659.18 1569.84 1653.78 1572.02 C 1651.48 1572.94 1639.22 1572.58 1635.65 1572.66 C 1635.78 1571.71 1635.91 1570.76 1636.04 1569.81 z" fill="rgb(46,42,43)" transform="translate(0,0)"></path>
<path d="M 915.547 1570.61 C 918.046 1570.16 932.203 1568.54 933.218 1571.18 L 933.114 1571.59 C 931.161 1572.68 926.39 1572.33 924.178 1572.17 C 921.12 1571.78 918.269 1571.92 915.547 1570.61 z" fill="rgb(46,42,43)" transform="translate(0,0)"></path>
<path d="M 775.99 1577.07 C 774.342 1578.3 762.499 1587.73 761.44 1587.15 C 760.816 1584.95 772.409 1577.06 774.389 1576.15 L 775.99 1577.07 z" fill="rgb(118,115,114)" transform="translate(0,0)"></path>
<path d="M 1567.07 1571.03 C 1573.93 1568.88 1578.1 1568.78 1585.15 1569.69 C 1582.58 1570.12 1579.98 1570.31 1577.5 1571.11 C 1573.95 1571.91 1571.32 1571.96 1567.77 1572.53 L 1567.07 1571.03 z" fill="rgb(67,63,64)" transform="translate(0,0)"></path>
<path d="M 1090.1 1641.12 C 1094.32 1639.79 1096.17 1639.16 1100.2 1637.21 L 1102.55 1638.45 C 1097.96 1640.72 1095.71 1641.44 1090.84 1642.72 L 1090.1 1641.12 z" fill="rgb(67,63,64)" transform="translate(0,0)"></path>
<path d="M 781.486 1572.34 L 784.109 1575.11 C 781.374 1575.74 778.649 1576.16 775.99 1577.07 L 774.389 1576.15 C 776.78 1574.68 778.877 1573.4 781.486 1572.34 z" fill="rgb(46,42,43)" transform="translate(0,0)"></path>
<path d="M 853.591 1586.4 C 855.776 1581.49 855.802 1581.39 859.627 1577.17 L 860.165 1579.98 C 857.386 1582.08 856.813 1583.26 855.297 1586.43 L 853.591 1586.4 z" fill="rgb(163,158,156)" transform="translate(0,0)"></path>
<path d="M 507.083 1580.98 C 509.03 1579.32 511.054 1577.98 513.248 1576.67 L 514.283 1578.33 C 512.18 1579.76 510.546 1580.9 508.309 1582.09 L 507.083 1580.98 z" fill="rgb(46,42,43)" transform="translate(0,0)"></path>
<path d="M 1413.48 1578.29 L 1415.29 1579.45 C 1412.8 1581.23 1411.44 1582.06 1409.41 1584.27 L 1407.68 1583.64 C 1409.71 1581.64 1411.27 1580.13 1413.48 1578.29 z" fill="rgb(67,63,64)" transform="translate(0,0)"></path>
<path d="M 1409.41 1584.27 C 1408.68 1584.99 1406.72 1587.5 1405.42 1587.24 C 1404.74 1586.12 1405.95 1585.14 1406.78 1584.44 L 1407.68 1583.64 L 1409.41 1584.27 z" fill="rgb(163,158,156)" transform="translate(0,0)"></path>
<path d="M 1587.53 1640.21 L 1589.77 1639.01 L 1591.36 1640.66 L 1589.23 1641.3 L 1587.53 1640.21 z" fill="rgb(67,63,64)" transform="translate(0,0)"></path>
<metadata><recraft-signature>{"signed_by": "recraft", "signature_b64": "av4rWqsaDBwE/JD44Mf53Sv0ktmloYKVxQYYfWZ9mBR9s+u+3gtQQ6bPuz0IdVR8SeVWAIbvggQ2fM3zYdADBw==", "signing_algo": "Ed25519", "generation_timestamp": 1772546513, "identifier": "9061446c-64c0-4a20-8b58-48b401d2fcd1"}</recraft-signature></metadata></svg>