<svg xmlns="http://www.w3.org/2000/svg" height="1024" preserveAspectRatio="none" style="display: block;" version="1.1" viewBox="0 0 2048 2048" width="1024">
<defs>
	<linearGradient gradientUnits="userSpaceOnUse" id="Gradient1" x1="1187.32" x2="1327.52" y1="1413.77" y2="2004.99">
		<stop class="stop0" offset="0" stop-color="rgb(249,238,211)" stop-opacity="1"></stop>
		<stop class="stop1" offset="1" stop-color="rgb(255,255,249)" stop-opacity="1"></stop>
	</linearGradient>
</defs>
<path d="M 0 0 L 2048 0 L 2048 1391.46 L 2048 1664.54 L 2048 2048 L 2046.74 2048 L 1590.25 2048 L 1560.46 2048 L 1162.38 2048 L 1123.5 2048 L 514.497 2048 L 477.732 2048 L 2.23073 2048 L 0 2048 L 0 1858.31 L 0 1792.36 L 0 1496.16 L 0 811.033 L 0 553.277 L 0 260.348 L 0 0 z" fill="rgb(31,42,85)" transform="translate(0,0)"></path>
<path d="M 0 0 L 2048 0 L 2048 1391.46 L 2046.71 1391.09 C 2045.91 1369.56 2046.43 1343.73 2046.44 1321.99 C 2046.46 1289.02 2045.33 1285.05 2033.55 1254.68 C 2015.61 1208.43 1996.21 1173.18 1967.93 1132.95 C 1998.12 1140.38 2019 1148.29 2044.46 1166.51 L 2045.63 1165.47 C 2046.49 1157.7 2046.03 1146.89 2045.92 1138.86 L 2046.01 1122.36 C 2024.89 1106.3 2014.82 1102.63 1989.94 1095.16 C 2015.39 1085.79 2019.34 1085.18 2045.28 1081.54 C 2046.68 1078.95 2046.06 1076.79 2046.02 1073.36 C 2045.85 1064.83 2046.33 1055.89 2045.48 1047.45 C 2016.94 1041.3 1995.79 1046.34 1969.15 1056.5 C 1980.95 1034.25 1996.67 1017.93 2012.24 998.713 C 2014.26 995.303 2012.82 990.085 2008.96 988.709 C 2002.07 986.252 1993.68 988.278 1986.7 989.881 C 1949.35 998.464 1930.02 1025.43 1914.13 1057.55 C 1912.91 1019.66 1912.04 968.79 1925 932.56 C 1928.37 923.125 1939.37 910.823 1933.92 902.36 C 1930.98 900.878 1928.16 901.038 1925.15 902.247 C 1901.17 911.888 1880.43 931.979 1870.07 955.274 C 1854.4 990.511 1855.98 1022.52 1868.86 1057.52 C 1870.09 1060.83 1871.36 1064.11 1872.67 1067.38 C 1848.03 1046.05 1817.49 1031.87 1784.31 1034.29 C 1757.96 1036.16 1733.48 1048.56 1716.38 1068.7 C 1713.25 1072.32 1695.48 1093.77 1705.78 1098.57 C 1711.94 1101.44 1732.79 1090.22 1740.35 1089.95 C 1777.28 1081.34 1813.89 1089.6 1849.74 1098.91 C 1824.68 1101.42 1806.95 1104.77 1784.88 1117.75 C 1736.07 1146.46 1721.1 1204.87 1725.61 1258.08 C 1725.94 1262.08 1726.62 1268.67 1728.07 1272.41 L 1724.62 1276.99 C 1698.34 1277.77 1667.64 1283.44 1642.13 1289.28 C 1636.69 1285.43 1631.7 1282.25 1625.58 1279.49 C 1481.78 1214.7 1321.52 1253.19 1183.35 1313.37 C 1142.14 1331.31 1103.22 1352.98 1064.32 1374.44 C 966.452 1313.39 855.391 1273.48 743.167 1248.73 C 692.873 1237.63 641.536 1230.46 592.006 1216.07 C 479.845 1183.48 360.166 1123.93 301.881 1017.66 C 271.194 961.71 259.77 897.645 278.113 835.737 C 298.41 767.234 353.682 713.479 413.207 676.91 C 643.68 535.32 1018.47 611.378 1270.01 662.102 C 1311.99 670.567 1353.71 679.612 1396.03 686.321 C 1414.72 689.285 1433.56 692.746 1452.52 693.22 C 1471.39 693.692 1490.16 691.883 1508.3 686.515 C 1533.48 679.063 1556.54 664.868 1576.09 647.521 C 1599.6 626.674 1617.81 602.952 1633.2 575.687 C 1644.86 555.029 1654.89 532.846 1664.29 511.058 C 1676.87 481.883 1696.5 423.278 1725.94 408.161 C 1757.61 391.902 1780.49 454.278 1816.45 465.845 C 1827.86 469.643 1840.32 468.667 1851.01 463.14 C 1884.44 445.649 1877.67 394.691 1863.03 366.955 C 1844.96 332.7 1813.5 309.019 1777.09 297.183 C 1697.67 271.359 1619.79 308.705 1550.14 344.139 C 1510.32 262.056 1440.71 236.667 1353.66 235.954 C 1350.79 232.857 1347.83 229.846 1344.78 226.926 C 1300.34 184.928 1253.2 171.385 1193.61 172.921 C 1144.65 134.096 1088.93 123.885 1028.24 127.044 C 1001.11 108.769 962.711 94.9907 930.225 91.8497 C 904.475 89.3601 861.038 89.6425 837.663 100.14 C 826.23 95.2833 816.827 91.4595 805.102 87.5076 C 756.288 71.0555 703.983 71.062 654.061 82.3169 C 640.457 85.3841 624.069 89.4909 611.492 95.8209 C 574.038 79.8345 529.387 80.5575 489.912 87.5585 C 478.789 89.5311 465.923 93.1806 454.654 95.7692 C 442.42 91.1705 428.498 87.9511 415.678 85.5896 C 301.264 64.5146 174.067 117.827 79.9584 180.158 C 64.8583 190.202 50.0754 200.715 35.6312 211.682 C 24.1483 220.566 12.6856 230.526 0.935474 238.822 L 1.0482 260.23 L 0 260.348 L 0 0 z" fill="rgb(247,231,196)" transform="translate(0,0)"></path>
<path d="M 809.497 814.549 C 837.803 814.281 879.467 811.402 868.988 858.537 C 867.081 867.118 859.704 872.436 852.089 876.142 C 862.084 893.115 871.697 911.717 881.061 929.145 C 874.306 929.041 866.125 930.262 859.543 928.789 C 856.852 928.186 856.515 926.162 855.347 923.7 C 848.069 907.775 838.462 891.752 829.491 876.691 C 828.835 893.244 829.268 912.242 829.275 928.978 L 809.351 928.983 C 809.944 890.841 809.992 852.692 809.497 814.549 z" fill="rgb(31,42,85)" transform="translate(0,0)"></path>
<path d="M 829.149 834.615 C 845.665 834.427 855.155 841.552 845.948 858.451 C 824.211 871.723 828.879 848.1 829.149 834.615 z" fill="rgb(250,239,211)" transform="translate(0,0)"></path>
<path d="M 502.963 814.732 L 523.4 814.777 L 523.215 929.066 L 506.75 929.075 L 504.574 928.883 C 501.922 924.576 502.982 883.199 503.001 875.055 L 462.489 875.021 L 462.438 929.135 L 442.276 929.166 L 442.346 814.916 L 462.988 814.926 L 463.016 855.691 L 502.962 855.946 L 502.963 814.732 z" fill="rgb(31,42,85)" transform="translate(0,0)"></path>
<path d="M 1402.28 813.754 C 1405.66 813.722 1406.14 813.516 1409.4 814.611 C 1412.21 820.02 1415.31 827.942 1417.4 833.745 C 1428.94 865.756 1444.13 897.321 1456.14 928.942 L 1434.37 929.023 C 1431.38 921.963 1428.24 914.97 1424.95 908.048 L 1410.44 907.205 L 1384.99 906.588 L 1376.1 928.575 L 1356.25 928.597 C 1370.63 890.462 1389.15 851.03 1402.28 813.754 z" fill="rgb(31,42,85)" transform="translate(0,0)"></path>
<path d="M 1405.02 858.5 C 1407.96 861.918 1415.34 881.436 1416.59 886.386 C 1413.86 887.67 1411.53 887.217 1408.25 887.227 L 1393.24 887.19 L 1405.02 858.5 z" fill="rgb(250,239,211)" transform="translate(0,0)"></path>
<path d="M 751.903 812.678 C 757.639 813.162 757.798 813.298 759.904 818.723 C 764.604 830.834 768.612 843.046 773.456 855.131 C 783.579 879.927 794.157 904.534 805.185 928.941 L 781.122 928.963 C 778.51 921.168 775.628 913.466 772.48 905.871 L 756.448 905.762 L 735.647 904.894 C 732.463 912.292 729.275 921.334 726.364 928.959 L 704.415 929.011 L 751.903 812.678 z" fill="rgb(31,42,85)" transform="translate(0,0)"></path>
<path d="M 753.689 860.728 C 756.59 864.112 762.692 880.378 763.984 884.979 C 761.574 886.638 760.768 886.029 757.238 886.116 L 742.97 885.901 L 753.689 860.728 z" fill="rgb(250,239,211)" transform="translate(0,0)"></path>
<path d="M 659.246 814.676 C 667.66 814.589 676.137 814.425 684.543 814.809 C 694.687 815.273 703.813 818.046 710.637 825.985 C 716.984 833.369 719.463 843.573 718.781 853.15 C 716.335 887.474 685.308 878.324 679.684 883.316 L 679.486 887.663 C 679.728 901.298 679.581 915.332 679.597 929.001 L 659.229 929.01 L 659.246 814.676 z" fill="rgb(31,42,85)" transform="translate(0,0)"></path>
<path d="M 678.853 833.994 C 695.819 834.022 702.917 844.336 695.002 859.84 C 688.983 863.608 685.861 863.452 678.908 863.966 L 678.853 833.994 z" fill="rgb(250,239,211)" transform="translate(0,0)"></path>
<path d="M 540.438 814.881 C 559.32 814.464 579.463 814.848 598.441 814.879 L 598.222 834.556 C 586.146 834.073 572.94 834.206 560.778 834.125 L 560.691 857.064 L 596.89 857.031 L 596.713 875.19 C 585.148 875.683 571.703 875.471 559.992 875.546 L 560.038 893.011 L 560.068 908.857 L 599.12 908.816 L 599.082 928.899 L 540 928.86 L 540.438 814.881 z" fill="rgb(31,42,85)" transform="translate(0,0)"></path>
<path d="M 1120.92 814.325 C 1136.4 815.254 1158.79 811.343 1170.56 821.411 C 1187.73 836.097 1183.36 867.969 1160.62 874.882 C 1152.08 877.48 1148.66 877.419 1139.9 877.853 L 1139.88 890.568 L 1139.88 929.012 L 1119.23 929.031 C 1119.37 890.811 1120.75 852.642 1120.92 814.325 z" fill="rgb(31,42,85)" transform="translate(0,0)"></path>
<path d="M 1143.92 833.153 C 1159.75 833.531 1165.15 847.31 1153.53 857.517 C 1149.4 858.599 1148 859.242 1143.86 858.934 C 1136.42 854.558 1138.42 841.217 1140.95 834.372 L 1143.92 833.153 z" fill="rgb(250,239,211)" transform="translate(0,0)"></path>
<path d="M 1188.67 814.463 L 1241.48 814.257 L 1241.54 834.19 L 1207.89 834.166 C 1207.8 841.105 1207.89 848.233 1207.91 855.19 C 1218.37 855.641 1230.16 855.381 1240.72 855.378 L 1240.7 875.168 L 1207.88 875.427 L 1207.82 901.25 C 1207.83 902.667 1208.13 903.81 1208.39 905.23 C 1212.91 908.03 1235.55 906.81 1242.73 906.776 L 1242.77 928.683 C 1224.42 928.382 1206.06 928.298 1187.71 928.431 C 1187.87 890.923 1186.23 853.397 1187.37 815.924 C 1187.8 815.437 1188.24 814.95 1188.67 814.463 z" fill="rgb(31,42,85)" transform="translate(0,0)"></path>
<path d="M 1075.64 813.078 C 1089.9 812.012 1095.2 814.185 1105.97 822.554 L 1100.79 841.51 C 1075.64 822.853 1060.4 841.907 1085.54 858.701 C 1114.58 878.099 1121.97 919.714 1081.66 930.528 C 1052.99 929.819 1052.53 918.909 1053.12 895.106 C 1060.06 900.582 1079.28 916.701 1088.12 902.729 C 1091.5 896.835 1084.96 888.283 1080.81 884.756 C 1064.16 870.633 1043.47 854.233 1054.67 829.613 C 1059.07 819.919 1065.87 816.383 1075.64 813.078 z" fill="rgb(31,42,85)" transform="translate(0,0)"></path>
<path d="M 1292.05 813.212 C 1300.83 812.796 1317.73 813.197 1322.9 821.281 C 1323.42 825.201 1318.23 835.449 1316.35 839.754 C 1270.18 808.625 1252.19 901.779 1296.85 908.001 C 1305.43 909.196 1311.65 904.12 1317.6 898.802 C 1319.51 902.098 1321.1 906.19 1322.61 909.739 L 1327 919.799 C 1254.96 970.209 1215.65 831.141 1292.05 813.212 z" fill="rgb(31,42,85)" transform="translate(0,0)"></path>
<path d="M 1566.3 814.201 C 1583.07 812.416 1588.54 816.949 1599.36 829.008 C 1594.08 834.676 1591.46 837.419 1585.45 842.196 C 1581.47 837.309 1570.65 826.538 1565.11 838.5 C 1560.38 848.72 1578.32 859.613 1585.84 864.786 C 1602.97 876.555 1607.84 893.799 1599.17 913.006 C 1594.54 923.508 1586.97 926.891 1576.68 930.479 C 1561.05 932.579 1551.45 923.314 1541.28 913.278 C 1545.34 909.311 1550.14 903.835 1554.06 899.581 C 1582.91 921.89 1592.46 893.594 1563.91 876.509 C 1539.89 862.128 1534.81 825.283 1566.3 814.201 z" fill="rgb(31,42,85)" transform="translate(0,0)"></path>
<path d="M 998.886 814.296 L 1020.03 814.52 C 1012.95 833.94 997.455 854.856 991.576 873.655 C 988.412 883.772 989.631 917.428 989.515 929.015 L 969.928 929.008 L 970.061 879.75 C 970.624 874.539 942.878 823.678 938.816 814.874 L 961.079 814.912 C 966.803 828.482 973.086 841.81 979.912 854.86 C 986.429 842.329 994.589 827.493 998.886 814.296 z" fill="rgb(31,42,85)" transform="translate(0,0)"></path>
<path d="M 368.871 814.706 L 433.097 814.893 L 433.091 833.798 L 412.333 833.844 C 411.653 856.863 412.124 882.526 412.061 905.75 L 412.11 929.103 L 391.306 929.097 C 391.429 897.248 391.382 865.4 391.164 833.552 C 383.809 833.38 376.232 833.421 368.856 833.368 L 368.871 814.706 z" fill="rgb(31,42,85)" transform="translate(0,0)"></path>
<path d="M 1601.66 816.069 L 1664.85 816.098 L 1664.86 836.487 L 1644.7 836.354 L 1644.43 909.25 L 1644.3 928.434 L 1623.66 928.493 C 1623.82 897.701 1623.75 866.907 1623.47 836.115 C 1616.48 836.318 1609.01 836.209 1601.98 836.23 C 1601.66 829.869 1601.74 822.516 1601.66 816.069 z" fill="rgb(31,42,85)" transform="translate(0,0)"></path>
<path d="M 877.151 814.919 L 939.053 814.72 L 938.955 834.976 L 919.823 834.966 L 919.708 911.5 L 919.759 929.193 L 899.885 929.139 L 899.952 835.261 L 877.189 835.581 L 877.151 814.919 z" fill="rgb(31,42,85)" transform="translate(0,0)"></path>
<path d="M 1458.63 814.323 L 1478.98 814.278 L 1478.61 907.076 L 1509.89 907.181 L 1509.77 928.84 L 1458.04 928.938 C 1458.65 890.986 1458.55 852.285 1458.63 814.323 z" fill="rgb(31,42,85)" transform="translate(0,0)"></path>
<path d="M 1515.08 814.043 L 1535.77 814.131 C 1535.34 852.353 1535.12 890.577 1535.11 928.801 L 1515.2 928.848 C 1515.55 890.702 1515.19 852.214 1515.08 814.043 z" fill="rgb(31,42,85)" transform="translate(0,0)"></path>
<path d="M 1334.23 814.936 L 1353.18 814.945 C 1353.48 852.94 1353.47 890.936 1353.14 928.93 C 1346.78 928.867 1340.43 928.732 1334.07 928.525 L 1334.23 814.936 z" fill="rgb(31,42,85)" transform="translate(0,0)"></path>
<path d="M 1120.91 1642.69 C 1232.94 1525 1373.86 1412.69 1522.71 1345.85 C 1618.47 1302.85 1740.01 1271.71 1841.76 1311.55 C 1878.29 1325.85 1922.99 1356.23 1940.12 1393.41 C 1948.16 1410.86 1945.21 1431.62 1938.11 1449.1 C 1944.32 1462.68 1953.75 1452.62 1958.21 1444.39 C 1970.24 1447.13 1985.89 1450.25 1994.43 1460.13 C 2000.27 1459.68 2006.13 1459.28 2011.98 1458.94 C 2021.46 1460.42 2035.35 1460.76 2045.99 1462.09 C 2046.23 1450.77 2046.07 1438.86 2046.07 1427.49 C 2046.95 1416.65 2046.65 1402.17 2046.71 1391.09 L 2048 1391.46 L 2048 1664.54 L 2048 2048 L 2046.74 2048 L 1590.25 2048 L 1560.46 2048 L 1162.38 2048 L 1123.5 2048 L 514.497 2048 L 477.732 2048 C 511.599 2045.16 614.198 1932.79 640.808 1905.65 C 659.015 1887.03 677.729 1868.92 696.931 1851.34 C 736.328 1815.68 779.157 1780.95 824.068 1752.38 C 888.209 1711.54 958.136 1680.59 1031.49 1660.57 C 1055.51 1654.12 1078.9 1650.05 1102.85 1644.48 C 1108.93 1643.7 1114.81 1643.21 1120.91 1642.69 z" fill="rgb(59,131,153)" transform="translate(0,0)"></path>
<path d="M 1162.38 2048 C 1222.34 2002.07 1255.26 1955.73 1303.75 1899.1 C 1398.09 1788.93 1503.79 1684.55 1640.95 1630.28 C 1688.24 1611.57 1755.26 1591.75 1805.94 1586.22 C 1883.43 1577.76 1975.4 1589.59 2047.19 1619.84 C 2046.82 1634.32 2047.16 1650.29 2047.17 1664.88 L 2048 1664.54 L 2048 2048 L 2046.74 2048 L 1590.25 2048 L 1560.46 2048 L 1162.38 2048 z" fill="rgb(59,131,153)" transform="translate(0,0)"></path>
<path d="M 2047.17 1664.88 L 2048 1664.54 L 2048 2048 L 2046.74 2048 L 1590.25 2048 L 1560.46 2048 C 1579.33 2035.38 1595.43 2025.16 1612.66 2009.74 C 1652.55 1974.04 1683.78 1932.56 1721.95 1894.72 C 1794.88 1822.41 1884.25 1760.21 1987.03 1741.47 C 2007.11 1737.81 2026.82 1737.3 2046.99 1737.26 C 2047.6 1713.87 2047.15 1688.42 2047.17 1664.88 z" fill="rgb(59,131,153)" transform="translate(0,0)"></path>
<path d="M 2047.17 1664.88 L 2048 1664.54 L 2048 2048 L 2046.74 2048 C 2047.62 2042.76 2047.28 2026.22 2047.27 2019.99 L 2047.24 1965.02 C 2047.36 1894.81 2047.82 1822.99 2046.85 1752.87 C 1920.1 1751.96 1805.76 1829 1721.65 1917.73 C 1676.23 1965.66 1642.5 2007.13 1590.25 2048 L 1560.46 2048 C 1579.33 2035.38 1595.43 2025.16 1612.66 2009.74 C 1652.55 1974.04 1683.78 1932.56 1721.95 1894.72 C 1794.88 1822.41 1884.25 1760.21 1987.03 1741.47 C 2007.11 1737.81 2026.82 1737.3 2046.99 1737.26 C 2047.6 1713.87 2047.15 1688.42 2047.17 1664.88 z" fill="rgb(254,254,252)" transform="translate(0,0)"></path>
<path d="M 514.497 2048 C 530.734 2035.31 552.308 2019.06 567.109 2004.97 C 616.985 1957.48 662.033 1905.67 713.137 1859.19 C 869.317 1717.12 1065.33 1635.78 1278.3 1660.98 C 1350.34 1669.51 1399.67 1685.05 1464.73 1715.38 C 1417.83 1750.29 1362.47 1809.68 1322.78 1852.85 C 1310.45 1866.24 1298.44 1879.93 1286.78 1893.9 C 1258.66 1927.44 1165.68 2044.51 1123.5 2048 L 514.497 2048 z" fill="rgb(59,131,153)" transform="translate(0,0)"></path>
<path d="M 1120.91 1642.69 C 1232.94 1525 1373.86 1412.69 1522.71 1345.85 C 1618.47 1302.85 1740.01 1271.71 1841.76 1311.55 C 1878.29 1325.85 1922.99 1356.23 1940.12 1393.41 C 1948.16 1410.86 1945.21 1431.62 1938.11 1449.1 C 1857.61 1451.58 1892.47 1402.45 1824.04 1395.14 C 1783.41 1390.79 1775.03 1446.7 1744 1444.9 C 1722.2 1443.63 1685.57 1423.11 1662.44 1414.66 C 1643.66 1407.63 1624.13 1402.82 1604.23 1400.34 C 1441.23 1381.45 1275.18 1540.16 1164.05 1639.99 C 1275.16 1636.01 1378.75 1652.45 1478.71 1703.77 C 1542.92 1657.92 1603.58 1621.67 1679.7 1598.2 C 1702.71 1591.1 1735.15 1583.49 1757.95 1576.16 C 1767.74 1573.01 1791.03 1545.68 1802.34 1539.84 C 1845.25 1508.07 1893.06 1481.51 1945.02 1468.18 C 1963.8 1463.36 1977.03 1463.12 1994.43 1460.13 C 2000.27 1459.68 2006.13 1459.28 2011.98 1458.94 C 2021.46 1460.42 2035.35 1460.76 2045.99 1462.09 C 2046.23 1450.77 2046.07 1438.86 2046.07 1427.49 C 2046.95 1416.65 2046.65 1402.17 2046.71 1391.09 L 2048 1391.46 L 2048 1664.54 L 2047.17 1664.88 C 2047.16 1650.29 2046.82 1634.32 2047.19 1619.84 C 1975.4 1589.59 1883.43 1577.76 1805.94 1586.22 C 1755.26 1591.75 1688.24 1611.57 1640.95 1630.28 C 1503.79 1684.55 1398.09 1788.93 1303.75 1899.1 C 1255.26 1955.73 1222.34 2002.07 1162.38 2048 L 1123.5 2048 C 1165.68 2044.51 1258.66 1927.44 1286.78 1893.9 C 1298.44 1879.93 1310.45 1866.24 1322.78 1852.85 C 1362.47 1809.68 1417.83 1750.29 1464.73 1715.38 C 1399.67 1685.05 1350.34 1669.51 1278.3 1660.98 C 1065.33 1635.78 869.317 1717.12 713.137 1859.19 C 662.033 1905.67 616.985 1957.48 567.109 2004.97 C 552.308 2019.06 530.734 2035.31 514.497 2048 L 477.732 2048 C 511.599 2045.16 614.198 1932.79 640.808 1905.65 C 659.015 1887.03 677.729 1868.92 696.931 1851.34 C 736.328 1815.68 779.157 1780.95 824.068 1752.38 C 888.209 1711.54 958.136 1680.59 1031.49 1660.57 C 1055.51 1654.12 1078.9 1650.05 1102.85 1644.48 C 1108.93 1643.7 1114.81 1643.21 1120.91 1642.69 z" fill="url(#Gradient1)" transform="translate(0,0)"></path>
<path d="M 2005.2 1476.42 C 2019.7 1475.51 2032.68 1476.77 2046.83 1479.72 C 2047.1 1520.33 2047.09 1560.95 2046.81 1601.56 C 1993.47 1578.53 1921.44 1569.36 1863.94 1567.57 C 1840.02 1567.49 1815.33 1568 1791.64 1571.5 C 1859.94 1518.97 1915.53 1482.47 2005.2 1476.42 z" fill="rgb(59,131,153)" transform="translate(0,0)"></path>
<path d="M 974.783 268.156 L 976.009 268.541 C 1003.44 277.424 1008.14 301.896 1028.85 317.242 C 1065.46 344.356 1097.54 314.441 1109.85 280.69 C 1117.21 283.777 1121.65 285.995 1128.44 290.401 C 1089.5 374.364 998.512 436.952 913.748 467.053 C 806.101 505.281 699.714 507.195 588.151 513.44 C 455.405 520.905 332.51 553.703 228.501 639.568 C 162.312 694.21 120.729 740.843 83.8521 818.434 C 5.71791 982.833 43.4544 1169.4 219.443 1248.47 C 287.798 1279.18 324.166 1272.05 393.773 1283.49 C 561.903 1310.76 716.313 1392.81 832.996 1516.9 L 767.208 1557.81 C 756.823 1564.21 741.48 1574.07 730.893 1579.64 C 594.829 1416.74 384.382 1313.46 173.849 1293.62 C 158.979 1292.22 132.932 1292.03 119.73 1289.62 C 69.9061 1280.54 34.1427 1259.1 2.08157 1221.39 L 2.18714 1244.58 C 30.0453 1273.53 56.7208 1289.08 95.7155 1300.41 C 120.82 1307.71 143.435 1306.41 169.249 1308.58 C 193.744 1310.67 218.102 1314.15 242.203 1319.01 C 375.517 1344.96 504.993 1399.14 611.347 1484.65 C 649.485 1515.82 684.927 1550.14 717.298 1587.25 C 680.805 1609.85 629.167 1640.9 591.534 1660.46 C 509.592 1567.01 449.206 1512.09 338.327 1453.04 C 349.397 1446.28 362.619 1437.71 375.929 1436.09 C 383.29 1435.19 387.62 1438.85 391.631 1432.83 C 391.737 1430.98 391.501 1427.35 389.703 1426.36 C 357.462 1408.57 323.609 1410.31 291.985 1425.17 C 277.741 1416.83 253.491 1407.38 237.972 1401.22 C 161.191 1370.7 84.8663 1352.87 1.93858 1356.87 L 1.99049 1370.9 C 106.316 1371.13 180.823 1391.47 276.157 1433.93 C 237.422 1460.85 219.84 1500.75 208.663 1545.48 C 201.52 1493.13 188.489 1460.69 144.925 1426.92 C 137.869 1421.46 124.637 1412.02 115.58 1412.74 C 107.841 1418.09 117.982 1429.69 121.561 1436.39 C 135.421 1462.34 155.06 1500.14 158.929 1529.08 C 130.841 1495.36 103.993 1469.57 58.3823 1465.37 C 38.8683 1463.42 19.2164 1467.34 1.9494 1476.64 C 1.98198 1482.18 2.28308 1491.29 1.71855 1496.53 C 23.8588 1493.44 58.5616 1507.45 75.9581 1521.16 C 90.5988 1532.71 98.772 1541.68 110.579 1555.75 C 80.0996 1543.22 52.0229 1540.56 20.7191 1553.57 C 14.1091 1556.29 7.81696 1559.73 1.95505 1563.82 L 2.05436 1584.26 C 2.05612 1614.77 0.791228 1655.37 2.18048 1685.08 C 2.19054 1691.46 2.04803 1698.6 2.29575 1704.91 C 30.014 1653.95 62.9003 1606.96 126.406 1609.09 C 110.942 1623.23 98.5266 1637.42 84.628 1652.75 C 55.4432 1684.94 30.3219 1716.95 12.6352 1756.93 C 6.98563 1769.69 2.14868 1778.11 1.50754 1792.27 L 1.43302 1794.02 L 0 1792.36 L 0 1496.16 L 0 811.033 L 0 553.277 C 2.61324 546.642 1.55865 518.543 1.47223 509.612 L 1.07117 424.06 C 0.99712 412.846 0.110584 386.673 1.38303 376.495 C 1.62124 383.388 1.71664 390.285 1.66915 397.181 C 20.8884 380.812 35.1666 360.795 58.8979 344.013 C 65.6032 394.714 44.5338 463.877 23.4986 510.341 C 16.7442 525.26 6.88878 543.327 2.49728 558.766 C 0.870273 564.486 1.80463 582.184 2.02331 589.002 C 47.6154 496.272 80.5594 442.692 74.4353 334.101 C 105.839 313.883 143.584 297.924 181.582 299.004 C 181.754 318.078 181.204 340.08 177.59 358.847 C 160.192 449.191 107.383 534.087 53.4896 607.115 C 39.8554 625.59 16.979 656.389 1.77733 673.085 C 1.74668 682.285 1.42183 693.372 1.89803 702.42 C 14.0411 681.982 28.8552 666.092 43.1588 647.417 C 119.927 547.191 198.349 431.742 197.929 300.819 C 210.052 303.237 218.346 305.183 230.084 309.689 C 262.526 322.143 283.323 336.267 318.066 321.777 C 285.955 441.556 202.551 537.148 127.271 632.22 C 120.616 640.625 106.411 653.026 98.5169 660.86 C 86.9051 672.387 75.788 684.402 65.1959 696.873 C 50.3109 714.251 36.1074 732.202 22.6174 750.684 C 16.149 759.562 8.13248 772.425 1.62309 780.404 C 1.65334 787.172 2.01384 797.561 1.04179 803.906 L 2.07944 810 L 2.66425 810.401 L 3.22536 809.169 C 9.85895 794.86 31.3996 765.056 41.2722 751.688 C 126.502 636.281 253.081 545.528 387.056 495.572 C 453.32 470.864 516.306 466.854 585.444 457.445 C 741.325 436.233 870.717 389.749 974.783 268.156 z" fill="rgb(243,204,118)" transform="translate(0,0)"></path>
<path d="M 1.99201 1916.97 C 210.843 1988.5 441.661 1861.46 612.503 1750.83 C 670.239 1713.61 727.017 1674.92 782.782 1634.81 C 890.771 1557.26 1001.81 1468.48 1124.98 1416.07 C 1196.36 1385.7 1282.76 1368.19 1359.54 1383.63 C 1370.85 1385.91 1388.66 1390.22 1399.14 1394.54 C 1307.44 1448.64 1214.39 1527.56 1138.46 1602.05 C 1129.57 1610.78 1107.15 1634.26 1102.85 1644.48 C 1078.9 1650.05 1055.51 1654.12 1031.49 1660.57 C 958.136 1680.59 888.209 1711.54 824.068 1752.38 C 779.157 1780.95 736.328 1815.68 696.931 1851.34 C 677.729 1868.92 659.015 1887.03 640.808 1905.65 C 614.198 1932.79 511.599 2045.16 477.732 2048 L 2.23073 2048 C 1.13164 2043.26 1.64804 2013.25 1.67963 2007 L 1.99201 1916.97 z" fill="rgb(59,131,153)" transform="translate(0,0)"></path>
<path d="M 3.02659 1858.35 C 79.2906 1891.7 184.943 1875.17 261.015 1847.16 C 363.137 1809.55 458.293 1755 552.791 1701.59 C 670.617 1635.5 786.727 1566.39 901.007 1494.34 C 1006.68 1427.55 1107.59 1359.85 1225.02 1313.74 C 1353.67 1263.22 1489.9 1236.86 1621.2 1294.73 C 1542.73 1313.46 1467.52 1352.7 1399.14 1394.54 C 1388.66 1390.22 1370.85 1385.91 1359.54 1383.63 C 1282.76 1368.19 1196.36 1385.7 1124.98 1416.07 C 1001.81 1468.48 890.771 1557.26 782.782 1634.81 C 727.017 1674.92 670.239 1713.61 612.503 1750.83 C 441.661 1861.46 210.843 1988.5 1.99201 1916.97 L 1.67963 2007 C 1.64804 2013.25 1.13164 2043.26 2.23073 2048 L 0 2048 L 0 1858.31 L 0 1792.36 L 1.43302 1794.02 C 1.11435 1805.42 0.956393 1847.44 2.34099 1857.63 L 3.02659 1858.35 z" fill="rgb(250,239,211)" transform="translate(0,0)"></path>
<path d="M 0 1792.36 L 1.43302 1794.02 C 1.11435 1805.42 0.956393 1847.44 2.34099 1857.63 L 3.02659 1858.35 C 3.81457 1866.88 4.91922 1908.96 2.46893 1915.2 C -0.247553 1909.1 5.08063 1872.51 0 1858.31 L 0 1792.36 z" fill="rgb(247,231,196)" transform="translate(0,0)"></path>
<path d="M 1.0482 260.23 C 104.534 171.639 244.125 89.9259 385.416 97.7382 C 439.594 101.164 494.802 121.81 531.352 162.686 C 555.399 189.579 562.684 235.456 530.871 259.386 C 484.518 294.251 440.314 219.98 393.173 228.695 C 382.358 230.694 374.564 233.222 365.949 239.945 C 335.186 262.031 330.456 318.228 282.917 312.431 C 265.403 310.295 242.118 297.004 224.597 291.024 C 162.1 269.696 100.747 293.498 50.0704 331.022 C 33.947 342.961 13.3157 360.741 1.38303 376.495 C 0.110584 386.673 0.99712 412.846 1.07117 424.06 L 1.47223 509.612 C 1.55865 518.543 2.61324 546.642 0 553.277 L 0 260.348 L 1.0482 260.23 z" fill="rgb(254,254,252)" transform="translate(0,0)"></path>
<path d="M 1824.15 1160.02 C 1806.33 1195.03 1804.24 1219.28 1815.58 1257.44 C 1817.12 1262.61 1825.52 1282.43 1832.18 1274.99 C 1836.97 1269.64 1835.67 1249.33 1837.3 1241.16 C 1842.56 1214.93 1866.81 1164 1890.09 1150.75 C 1893.42 1150.51 1894.11 1150.57 1897.3 1150.86 C 1931.38 1209.58 1935.41 1292.49 1935.2 1358.82 C 1888.87 1302.62 1808.66 1276.26 1737.25 1276.96 C 1740.57 1276.59 1739.61 1277.11 1742.24 1275.57 L 1740.48 1273.23 C 1750.41 1221.09 1775.78 1192.92 1819.15 1163.25 C 1820.79 1162.13 1822.46 1161.06 1824.15 1160.02 z" fill="rgb(247,231,196)" transform="translate(0,0)"></path>
<path d="M 144.544 1445.64 C 163.256 1460.37 177.819 1484.18 186.639 1506.04 C 194.676 1525.96 196.35 1549.02 196.079 1570.26 C 170.548 1571.7 163.644 1585.12 160.831 1608.32 C 134.66 1594.64 119.093 1589.05 88.8525 1598.24 C 55.0254 1608.52 23.7893 1636.81 6.56865 1667.44 C 2.53913 1674.61 2.63632 1677.06 2.18048 1685.08 C 0.791228 1655.37 2.05612 1614.77 2.05436 1584.26 L 3.47855 1585.46 C 8.16578 1582.66 11.2682 1576.72 16.9471 1572.99 C 47.6589 1552.81 89.1935 1559.59 120.082 1575.84 C 127.104 1579.54 128.265 1583.3 136.806 1582.02 C 150.791 1572.45 102.954 1524.57 95.0815 1517.15 C 74.0676 1497.36 50.2238 1489.35 22.8386 1482.72 C 39.7142 1480.49 52.3572 1478.87 69.4134 1482.41 C 106.363 1490.08 134.066 1518.18 153.408 1549.15 C 156.943 1554.81 161.966 1565.01 169.234 1564.6 C 173.105 1561.31 173.876 1554.42 174.137 1549.52 C 175.962 1515.17 159.14 1475.99 144.544 1445.64 z" fill="rgb(96,101,127)" transform="translate(0,0)"></path>
<path d="M 1950.51 1380.13 C 1983.89 1369.61 2015.96 1371.99 2035.31 1405.72 C 2038.92 1412 2041.32 1419.61 2045.01 1425.76 L 2046.07 1427.49 C 2046.07 1438.86 2046.23 1450.77 2045.99 1462.09 C 2035.35 1460.76 2021.46 1460.42 2011.98 1458.94 C 1998.66 1441.53 1981.6 1433.58 1959.78 1433.58 C 1961.48 1413.85 1959.71 1397.84 1950.51 1380.13 z" fill="rgb(243,204,118)" transform="translate(0,0)"></path>
<path d="M 2045.28 1147.98 C 2022.16 1134.83 1990.67 1123.78 1964.66 1118.51 C 1958.23 1117.21 1948.41 1117.02 1943.4 1112.85 L 1943.3 1111.01 C 1957.53 1096.91 2010.86 1113.68 2024.93 1124.7 C 2028.68 1127.64 2042.86 1137.8 2045.92 1138.86 C 2046.03 1146.89 2046.49 1157.7 2045.63 1165.47 L 2044.46 1166.51 C 2045.38 1160.74 2045.21 1153.9 2045.28 1147.98 z" fill="rgb(96,101,127)" transform="translate(0,0)"></path>
<path d="M 2045.48 1047.45 C 2046.33 1055.89 2045.85 1064.83 2046.02 1073.36 L 2044.45 1067.68 C 2029.99 1064.33 1951.82 1090.59 1934.86 1096.1 C 1963.17 1069.19 2006.06 1050.12 2044.88 1062.95 C 2044.83 1056.95 2044.88 1053.49 2045.48 1047.45 z" fill="rgb(96,101,127)" transform="translate(0,0)"></path>
<path d="M 1724.62 1276.99 L 1728.07 1272.41 C 1733.46 1273.64 1735.1 1274.28 1740.48 1273.23 L 1742.24 1275.57 C 1739.61 1277.11 1740.57 1276.59 1737.25 1276.96 L 1724.62 1276.99 z" fill="rgb(250,239,211)" transform="translate(0,0)"></path>
<path d="M 1569.76 455.442 C 1572.77 457.009 1578.45 461.768 1581.26 463.945 C 1605.12 482.492 1627.81 498.731 1658.76 483.589 C 1622.77 567.366 1579.83 665.287 1475.39 676.291 C 1436.89 680.348 1393.25 669.508 1354.95 662.307 C 1313.86 654.481 1272.82 646.32 1231.85 637.825 C 1125.02 616.249 1014.95 596.386 906.361 586.172 C 705.338 567.263 432.788 578.825 299.777 756.869 C 262.597 806.552 246.735 868.997 255.698 930.401 C 280.249 1094.74 433.754 1185.33 579.529 1228.71 C 635.061 1245.24 685.732 1252.35 741.345 1264.5 C 821.652 1281.71 899.624 1308.42 973.618 1344.06 C 990.963 1352.43 1032.94 1372.61 1046.45 1382.57 L 1046.45 1384.18 C 1014.45 1403.26 982.76 1422.86 951.397 1442.97 C 827.772 1323.35 652.287 1259.92 484.139 1240.09 C 441.768 1235.09 403.96 1231.46 365.492 1210.3 C 310.611 1180.11 256.329 1138.83 222.837 1084.97 C 211.433 1066.31 202.465 1046.27 196.149 1025.33 C 146.486 865.431 255.485 709.285 384.428 625.06 C 479.328 563.115 591.829 533.783 704.893 541.507 C 780.653 546.591 859.842 564.609 935.058 577.637 C 1030.06 594.094 1123.26 607.29 1220.08 607.114 C 1278.21 607.008 1336.07 604.098 1392.19 587.071 C 1465.82 564.732 1532.54 525.542 1569.76 455.442 z" fill="rgb(243,204,118)" transform="translate(0,0)"></path>
<path d="M 567.309 531.448 C 569.76 531.303 571.161 530.774 572.981 531.739 C 558.629 536.288 542.826 538.927 527.977 542.835 C 351.966 589.163 159.233 758.718 168.371 957.509 C 170.113 1003.19 182.993 1047.75 205.891 1087.31 C 244.06 1153.17 330.155 1220.13 402.92 1243.02 C 426.923 1250.57 479.766 1255.37 508.449 1259.64 C 560.257 1267.3 611.4 1278.94 661.426 1294.44 C 764.155 1325.57 858.67 1379.17 938.119 1451.36 C 927.877 1457.11 849.559 1508.22 846.388 1508.56 L 843.368 1505.87 C 726.161 1386.15 595.141 1308.43 429.767 1274.17 C 405.393 1269.19 380.81 1265.3 356.09 1262.5 C 326.812 1259.35 297.571 1258.67 269.114 1250.14 C 226.174 1237.27 186.908 1216.93 152.598 1188 C 5.9096 1064.35 53.697 847.725 166.54 719.938 C 193.721 689.118 221.454 663.428 255.003 639.606 C 348.236 568.667 451.668 539.773 567.309 531.448 z" fill="rgb(243,204,118)" transform="translate(0,0)"></path>
<path d="M 1141.42 302.387 C 1154.84 323.491 1155.77 348.332 1171.34 368.587 C 1185.32 386.765 1207.79 392.799 1227.65 379.648 C 1243.97 368.84 1251.24 351.15 1258.18 333.603 C 1295.38 360.566 1288.49 417.404 1343.06 414.113 C 1364.48 412.822 1375.24 387.061 1384.65 386.78 C 1387.04 388.754 1386.79 387.742 1387.18 389.896 C 1376.74 403.822 1362.7 416.006 1349.09 427.07 C 1271.44 490.205 1162.48 516.865 1065.74 532.477 C 1015.26 540.625 961.73 543.927 910.726 545.53 C 892.885 546.09 872.383 547.702 854.804 546.193 C 841.743 545.073 825.067 540.133 811.99 538.395 C 781.122 534.293 736.608 525.926 706.171 525.895 C 702.579 525.25 698.222 525.081 694.091 524.381 L 694.522 523.132 C 717.125 522.739 740.335 520.271 762.517 517.761 C 903.198 501.84 1051.58 447.497 1129.64 321.77 C 1133.6 315.383 1137.55 308.898 1141.42 302.387 z" fill="rgb(243,204,118)" transform="translate(0,0)"></path>
<path d="M 326.206 1463.77 C 337.201 1467.99 363.538 1483.91 374.027 1490.39 C 451.46 1537.84 520.299 1598.06 577.625 1668.5 C 517.966 1703.44 457.197 1736.86 396.048 1769.13 C 364.759 1785.64 332.799 1799.67 300.499 1814.04 C 281.27 1778.82 265.453 1740.62 250.735 1703.33 C 245.105 1689.07 238.397 1675.03 233.709 1660.48 C 262.533 1667.95 278.254 1654.87 305.746 1658.66 C 338.541 1663.17 362.228 1683.09 381.719 1708.51 C 387.107 1715.67 393.943 1731.34 402.523 1732.35 C 412.189 1728.32 409.54 1707.76 408.686 1698.93 C 405.883 1669.94 392.541 1645.75 370.19 1627.67 C 329.805 1594.99 285.003 1592.43 241.729 1621.28 C 237.521 1623.97 223.441 1635.31 220.029 1635.72 C 217.915 1631.72 224.065 1616.33 225.239 1608.78 L 225.459 1607.31 C 279.695 1570.58 334.47 1583.22 386.02 1617.34 C 393.177 1622.07 403.298 1635.03 411.089 1628.1 C 414.907 1614.92 375.505 1569.92 363.163 1562.03 C 358.5 1559.05 352.492 1555.4 347.522 1552.75 C 367.463 1556.91 382.066 1563.3 398.634 1575.46 C 404.896 1580.06 414.032 1591.18 421.6 1587.92 L 422.487 1585.55 C 422.2 1582.3 421.527 1579.73 419.939 1576.84 C 400.31 1541.1 365.064 1510.19 322.089 1511.89 C 303.047 1512.63 288.454 1517.88 271.593 1526.08 C 286.296 1503 304.683 1480.79 326.206 1463.77 z" fill="rgb(243,204,118)" transform="translate(0,0)"></path>
<path d="M 1404.8 394.713 C 1445.42 415.051 1442.82 463.996 1485.58 483.782 C 1528.65 503.714 1548.42 446.101 1554.91 443.379 L 1556.38 444.217 L 1556.48 446.053 C 1546.23 470.228 1520.96 497.018 1501.31 513.594 C 1408.92 591.52 1259.45 597.558 1145.1 588.112 C 1100.22 585.991 1048.19 577.48 1003.6 571.733 C 991.427 570.163 954.687 565.062 944.509 560.966 C 1080.38 552.554 1242.66 528.132 1354.67 443.665 C 1372.95 429.881 1389.51 411.767 1404.8 394.713 z" fill="rgb(243,204,118)" transform="translate(0,0)"></path>
<path d="M 793.005 206.102 C 846.293 202.672 831.224 272.837 870.036 291.619 C 908.08 310.029 927.575 293.529 945.029 260.99 L 956.952 264.128 C 870.224 362.09 778.53 401.317 653.235 430.244 C 592.418 442.438 535.13 446.422 474.918 456.675 C 543.061 426.833 618.146 385.266 673.833 336.204 C 703.003 310.586 729.551 282.129 753.086 251.255 C 762.487 238.783 769.894 224.131 780.096 212.322 C 783.487 208.396 788.145 207.317 793.005 206.102 z" fill="rgb(243,204,118)" transform="translate(0,0)"></path>
<path d="M 1710.61 304.421 C 1748.49 299.989 1799.3 317.638 1826.34 344.352 C 1845.39 363.18 1858.91 387.171 1859.44 414.502 C 1860.68 432.457 1849.83 453.965 1828.86 451.498 C 1790.72 447.014 1778 391.185 1737.22 389.666 C 1722.59 389.12 1710.48 399.106 1700.47 408.735 C 1685.55 424.698 1678.78 442.282 1665.46 458.398 C 1630.1 501.155 1590.5 444.597 1558.23 428.172 C 1561 399.33 1560.84 387.982 1555.39 360.126 C 1595.53 335.726 1663.59 308.11 1710.61 304.421 z" fill="rgb(254,254,252)" transform="translate(0,0)"></path>
<path d="M 399.371 243.315 C 423.722 242.614 443.776 264.409 465.396 273.951 C 480.951 280.815 486.415 282.117 503.276 284.291 C 468.282 359.358 410.146 422.404 349.266 477.447 C 337.523 488.064 323.339 501.263 310.728 510.544 C 305.747 514.21 289.394 522.011 283.275 525.155 C 270.102 531.868 257.213 539.125 244.642 546.906 C 223.354 559.599 200.803 575.687 180.956 590.383 C 202.057 562.588 225.488 536.396 244.78 507.203 C 266.352 474.56 287.02 441.415 303.869 406.048 C 314.197 384.379 322.885 361.966 329.862 338.998 C 333.033 328.344 335.774 309.133 340.887 300.577 C 355.945 275.382 367.71 247.906 399.371 243.315 z" fill="rgb(243,204,118)" transform="translate(0,0)"></path>
<path d="M 631.637 104.621 C 697.469 84.2907 773.915 83.5828 835.777 117.935 C 875.976 140.258 908.893 168.159 926.08 213.388 C 939.102 247.656 920.795 302.15 877.386 277.422 C 848.836 261.158 858.55 210.623 817.267 193.921 C 807.57 189.942 796.908 188.941 786.64 191.045 C 765.124 195.47 759.238 215.096 747.281 231.005 C 736.726 245.049 726.209 258.841 714.742 272.176 C 712.61 270.938 711.808 270.309 709.854 268.78 C 703.199 265.439 699.41 262.229 693.554 257.669 C 688.008 255.869 682.443 251.696 679.812 246.436 L 685.015 244.613 C 720.56 220.991 695.239 176.791 677.754 150.19 C 665.088 130.92 649.707 118.457 631.637 104.621 z" fill="rgb(254,254,252)" transform="translate(0,0)"></path>
<path d="M 679.812 246.436 L 685.015 244.613 C 689.236 247.657 690.847 248.785 695.504 251.028 L 693.554 257.669 C 688.008 255.869 682.443 251.696 679.812 246.436 z" fill="rgb(250,239,211)" transform="translate(0,0)"></path>
<path d="M 695.504 251.028 C 701.501 256.436 707.207 260.995 709.854 268.78 C 703.199 265.439 699.41 262.229 693.554 257.669 L 695.504 251.028 z" fill="rgb(247,231,196)" transform="translate(0,0)"></path>
<path d="M 568.154 225.062 C 607.739 207.169 635.512 255.559 679.812 246.436 C 682.443 251.696 688.008 255.869 693.554 257.669 C 699.41 262.229 703.199 265.439 709.854 268.78 C 711.808 270.309 712.61 270.938 714.742 272.176 C 703.552 286.184 689.693 299.259 676.842 311.601 C 616.323 369.721 542.995 406.973 467.904 442.614 C 448.096 451.378 428.758 462.546 408.808 470.898 C 394.06 477.073 378.022 481.677 362.965 487.564 C 421.84 435.771 490.373 356.445 520.95 283.818 C 549.865 271.15 559.733 254.722 568.154 225.062 z" fill="rgb(243,204,118)" transform="translate(0,0)"></path>
<path d="M 880.582 107.398 C 895.466 105.1 930.251 107.08 944.278 110.108 C 997.977 121.135 1040.71 146.441 1071.1 192.812 C 1093.34 226.748 1112.93 280.062 1070.82 308.151 C 1034.84 323.196 1023.68 278.806 999.68 263.203 C 983.019 252.373 965.087 249.795 946.067 246.557 C 945.397 184.221 905.425 144.308 856.638 110.742 C 864.768 109.372 872.392 108.395 880.582 107.398 z" fill="rgb(254,254,252)" transform="translate(0,0)"></path>
<path d="M 1366.33 251.892 C 1407.66 251.965 1449.42 262.965 1483.8 286.701 C 1534.89 321.97 1566.93 402.347 1526.87 457.496 C 1484.9 505.242 1457.85 421.272 1436.45 398.775 C 1422.51 384.126 1405.56 376.727 1386.14 371.606 C 1398.1 325.639 1388.95 292.39 1366.33 251.892 z" fill="rgb(254,254,252)" transform="translate(0,0)"></path>
<path d="M 1048.2 141.717 C 1086.52 140.115 1132.22 152.926 1165.06 172.501 C 1223.17 207.133 1269.79 290.47 1230.47 354.902 C 1224.16 363.034 1211.82 375.039 1200.45 370.628 C 1172.12 359.643 1172.77 321.498 1158.11 298.585 C 1145.92 279.529 1132.49 270.765 1111.03 264.75 L 1111.05 263.86 C 1111.59 214.106 1080.51 175.246 1048.2 141.717 z" fill="rgb(254,254,252)" transform="translate(0,0)"></path>
<path d="M 1209.76 188.051 C 1244.67 189.343 1275.23 197.377 1305.3 215.747 C 1358.43 248.209 1399.22 326.411 1361.62 384.734 C 1353.06 395.213 1340.29 404.414 1326.65 397.133 C 1304.78 385.462 1302.37 357.517 1287.86 339.43 C 1279.95 329.579 1270.64 323.822 1260 317.344 C 1261.24 259.596 1247.68 230.29 1209.76 188.051 z" fill="rgb(254,254,252)" transform="translate(0,0)"></path>
<path d="M 523.108 99.4127 C 539.721 97.1347 567.643 99.4668 584.034 103.407 C 620.485 112.092 652.113 136.809 671.574 168.72 C 679.508 181.729 698.021 219.013 678.401 230.451 C 669.947 235.38 657.584 231.124 648.779 228.234 C 620.45 216.981 600.709 196.99 568.423 208.5 C 566.292 195.589 565.103 190.387 560.106 178.342 C 548.862 151.239 507.937 115.844 481.404 105.794 C 495.607 102.483 508.705 100.876 523.108 99.4127 z" fill="rgb(254,254,252)" transform="translate(0,0)"></path>
<path d="M 183.709 1638.38 C 184.725 1638.82 189.342 1641.07 189.172 1642.17 C 179.942 1701.76 175.123 1761.67 179.754 1822.03 C 180.524 1832.07 181.306 1842.31 183.376 1852.35 C 158.633 1858.48 131.169 1859.75 105.824 1860.77 L 93.2224 1860.78 C 101.979 1786.81 139.782 1698.35 183.709 1638.38 z" fill="rgb(243,204,118)" transform="translate(0,0)"></path>
<path d="M 330.437 1429.29 C 337.724 1428.58 344.834 1428.99 352.151 1429.22 C 342.074 1434.35 335.209 1439.07 326.233 1446.16 C 315.683 1454.47 305.665 1463.43 296.238 1472.99 C 284.87 1484.67 241.422 1535.74 252.058 1549.03 C 262.019 1552.79 269.158 1543.12 277.353 1539.19 C 311.846 1522.62 339.827 1525.13 372.396 1543.08 C 359.378 1539.33 318.733 1533.22 309.091 1544.7 C 305.707 1554.67 316.419 1556.95 323.9 1559.51 C 334.519 1563.15 342.517 1566.39 352.184 1572.09 C 358.673 1577.05 370.096 1589.29 376.318 1595.5 L 375.983 1596.13 C 318.649 1564.22 280.613 1559.77 222.377 1592.6 C 218.808 1584.96 216.858 1581.47 210.926 1575.53 C 225.558 1543.14 233.96 1504.81 253.774 1477.1 C 271.834 1451.48 299.48 1434.24 330.437 1429.29 z" fill="rgb(96,101,127)" transform="translate(0,0)"></path>
<path d="M 1980.65 1308.35 C 2000.51 1306.09 2026.94 1327.08 2036.12 1343.99 C 2042.91 1356.49 2043.31 1377.33 2043.24 1391.48 C 2035.96 1384.22 2030.98 1379.2 2022.58 1373.31 C 2002.13 1360.32 1970.67 1355.91 1949.48 1369.19 C 1949.69 1352.36 1949.68 1335.53 1949.45 1318.69 C 1959.03 1313.14 1969.65 1309.62 1980.65 1308.35 z" fill="rgb(243,204,118)" transform="translate(0,0)"></path>
<path d="M 44.6989 1730.34 C 51.1468 1731.19 58.8386 1730.69 65.4287 1730.4 C 83.2619 1729.62 94.685 1730.66 111.282 1736.79 C 103.505 1758.1 96.7219 1777 89.6377 1798.59 C 54.9435 1801.93 43.5197 1798.68 23.8875 1768.21 C 30.0348 1753.11 35.9657 1743.78 44.6989 1730.34 z" fill="rgb(243,204,118)" transform="translate(0,0)"></path>
<path d="M 1975.93 1244.28 C 1991.49 1242.25 2001.86 1247.39 2015.33 1253.84 C 2024.28 1272.82 2037.17 1305.27 2038.16 1325.86 C 2031.3 1317.12 2026.16 1313.14 2017.25 1306.54 C 1996.31 1293.39 1969.93 1291.94 1949.27 1306.47 C 1948.85 1290.47 1947.8 1274.49 1946.15 1258.56 C 1956.51 1249.94 1962.4 1246.68 1975.93 1244.28 z" fill="rgb(243,204,118)" transform="translate(0,0)"></path>
<path d="M 291.554 1617.31 C 313.988 1614.81 334.41 1620.45 352.697 1633.37 C 380.906 1653.29 388.619 1672.91 394.749 1705.24 C 384.18 1691.14 380.253 1684.09 367.322 1671.49 C 359.399 1663.76 347.999 1656.32 337.911 1651.82 C 323.753 1645.54 308.331 1642.62 292.855 1643.29 C 272.782 1644.17 251.175 1652.81 234.026 1643.86 C 253.472 1629.07 267.29 1621 291.554 1617.31 z" fill="rgb(96,101,127)" transform="translate(0,0)"></path>
<path d="M 1840.47 1114.39 C 1846.06 1113.47 1860.3 1113.93 1866.51 1114.03 L 1861.16 1123.47 C 1819.29 1140.91 1775.5 1172.73 1749.45 1210.33 C 1745.31 1216.89 1742.97 1221.72 1739.57 1228.74 C 1740.23 1192.49 1756.34 1156.25 1785.61 1134.15 C 1802.54 1121.36 1819.76 1116.66 1840.47 1114.39 z" fill="rgb(96,101,127)" transform="translate(0,0)"></path>
<path d="M 112.625 1660.44 C 124.749 1659.45 136.953 1660.22 148.852 1662.75 C 137.588 1681.23 126.698 1704.23 116.469 1723.61 C 109.295 1720.57 105.043 1719.01 97.588 1716.77 C 82.3137 1713.95 68.4654 1714.51 53.2653 1717.21 C 64.5742 1700.45 84.6934 1675.65 98.6874 1661.11 L 112.625 1660.44 z" fill="rgb(243,204,118)" transform="translate(0,0)"></path>
<path d="M 18.2355 1787.42 C 20.4487 1788.96 23.494 1792.81 25.5939 1794.9 C 44.6572 1813.82 60.1463 1818.68 86.5446 1812.35 C 83.119 1827.95 79.9797 1842.83 78.462 1858.77 C 72.6793 1861.79 43.6862 1854.68 35.5504 1852.79 C 5.97072 1845.91 8.11616 1843.96 13.0199 1815.77 C 14.4772 1807.4 16.4011 1796.26 18.2355 1787.42 z" fill="rgb(243,204,118)" transform="translate(0,0)"></path>
<path d="M 1912.21 924.994 C 1912.57 927.906 1906.12 949.987 1905.24 954.429 C 1897.49 993.636 1899.65 1032.68 1904.44 1071.85 L 1889.67 1074.23 C 1888.33 1071.52 1887.18 1068.35 1886.06 1065.51 C 1862.96 1016.26 1869 960.641 1912.21 924.994 z" fill="rgb(96,101,127)" transform="translate(0,0)"></path>
<path d="M 1787.54 1048.4 C 1788.91 1048.37 1790.28 1048.35 1791.64 1048.36 C 1819.76 1048.51 1849.47 1062.95 1869.46 1082.5 C 1872.94 1085.91 1877.93 1092.53 1877.88 1097.58 L 1876.86 1098.32 C 1858.43 1089.09 1847.95 1084.3 1827.87 1079.34 C 1791.69 1070.4 1756.7 1070.94 1721.16 1081.87 C 1740.39 1061.7 1759.62 1050.64 1787.54 1048.4 z" fill="rgb(96,101,127)" transform="translate(0,0)"></path>
<path d="M 1951.19 1180.21 C 1961.05 1180.16 1966.38 1180.83 1975.72 1183.62 C 1987.1 1196.56 1999.53 1220.9 2007.11 1236.82 C 1996.96 1233.46 1990.99 1232.47 1980.36 1231.85 C 1965.59 1232.19 1955.26 1236.46 1943.66 1245.02 C 1940.24 1227.44 1936.46 1209.94 1932.32 1192.52 C 1937.94 1186.31 1943.06 1182.21 1951.19 1180.21 z" fill="rgb(243,204,118)" transform="translate(0,0)"></path>
<path d="M 250.54 1752.97 L 252.896 1752.83 C 257.05 1755.71 264.261 1775.35 266.635 1781.14 C 244.001 1786.21 219.604 1803.03 202.677 1818.41 C 200.153 1820.72 197.192 1824.22 194.831 1826.82 C 194.76 1813.78 194.067 1799.7 193.776 1786.53 C 209.412 1769.76 229.491 1760.62 250.54 1752.97 z" fill="rgb(243,204,118)" transform="translate(0,0)"></path>
<path d="M 225.608 1698.25 C 228.708 1698.15 228.835 1698.08 231.823 1698.75 C 237.853 1704.44 245.133 1728.68 248.286 1737.7 C 230.263 1742.33 223.68 1745.46 207.96 1755.55 L 193.071 1766.18 C 192.755 1749.8 194.384 1730.18 195.558 1713.85 C 205.389 1706.22 213.117 1700.61 225.608 1698.25 z" fill="rgb(243,204,118)" transform="translate(0,0)"></path>
<path d="M 1921.9 1119.53 C 1929.45 1124.31 1935.38 1126.76 1943.68 1129.81 C 1953.72 1143.79 1962.89 1156.13 1971.88 1170.84 C 1962.91 1169.43 1958.52 1168.93 1949.54 1168.91 C 1938.52 1171.47 1935.4 1173.85 1927.07 1180.96 C 1921.29 1167.24 1917.85 1157.53 1909.09 1145.34 C 1914.07 1138.66 1915.76 1129.29 1921.9 1119.53 z" fill="rgb(243,204,118)" transform="translate(0,0)"></path>
<path d="M 269.916 1794.87 C 275.856 1795.09 283.221 1813.89 286.408 1819.66 C 261.543 1830.04 237.439 1837.52 211.68 1845.22 C 207.627 1846.37 201.766 1849.15 198.686 1845.92 C 200.324 1831.78 256.098 1800.42 269.916 1794.87 z" fill="rgb(243,204,118)" transform="translate(0,0)"></path>
<path d="M 1989.14 1004.15 L 1990.03 1004.29 L 1990.16 1005.37 C 1980.68 1014.65 1975.79 1021.69 1967.79 1033.02 C 1957.42 1047.72 1951.48 1068.7 1935.1 1077.92 C 1932.31 1079.48 1930.52 1078.21 1927.61 1077.22 C 1924.08 1075.97 1925.19 1077.06 1923.14 1074.61 C 1923.67 1064.97 1930.81 1053.16 1935.86 1044.95 C 1948.17 1024.9 1966.05 1009.77 1989.14 1004.15 z" fill="rgb(96,101,127)" transform="translate(0,0)"></path>
<path d="M 190.422 1583.11 C 217.546 1583.21 220.02 1623.65 196.274 1631.5 C 194.705 1631.15 193.166 1630.69 191.671 1630.11 C 171.712 1622.5 165.234 1592.51 190.422 1583.11 z" fill="rgb(243,204,118)" transform="translate(0,0)"></path>
<path d="M 1864.65 1137.21 C 1864.46 1136.99 1870.88 1147.57 1871.36 1148.34 C 1846.07 1173.3 1833.79 1200 1825.52 1233.79 L 1825.16 1234.93 L 1824.34 1235.08 C 1817.37 1190.95 1829.33 1165.04 1864.65 1137.21 z" fill="rgb(96,101,127)" transform="translate(0,0)"></path>
<path d="M 140.913 1614.68 C 151.333 1617.62 163.182 1622.71 172.306 1628.59 C 167.688 1636.24 162.549 1643.96 157.686 1651.49 C 152.725 1649.39 149.348 1648.56 144.215 1647.19 C 129.336 1645.49 124.908 1645.58 109.507 1647.34 C 120.007 1635.19 128.764 1625.29 140.913 1614.68 z" fill="rgb(243,204,118)" transform="translate(0,0)"></path>
<path d="M 205.246 1639.44 C 211.822 1642.52 224.211 1674.32 227.935 1682.85 C 223.01 1683.71 218.101 1684.67 213.211 1685.71 C 207.093 1688.15 202.505 1690.55 196.664 1693.57 C 197.223 1682.03 201.635 1650.02 205.246 1639.44 z" fill="rgb(243,204,118)" transform="translate(0,0)"></path>
<path d="M 1902.08 1084.03 C 1910.02 1083.74 1918.71 1084.55 1924.13 1090.94 C 1926.05 1099.26 1918.93 1100.79 1912.64 1103.49 C 1893.32 1107.94 1880.92 1096.45 1902.08 1084.03 z" fill="rgb(243,204,118)" transform="translate(0,0)"></path>
<path d="M 1882.95 1113.95 C 1890.51 1114.53 1898.01 1115.73 1905.37 1117.54 C 1902.7 1125.44 1900.36 1129.31 1895.05 1135.47 C 1878.14 1144.41 1866.7 1127.91 1882.95 1113.95 z" fill="rgb(243,204,118)" transform="translate(0,0)"></path>
<path d="M 706.171 525.895 C 700.215 526.277 682.366 526.338 677.01 524.664 C 682.666 523.906 688.91 522.754 694.522 523.132 L 694.091 524.381 C 698.222 525.081 702.579 525.25 706.171 525.895 z" fill="rgb(106,99,97)" transform="translate(0,0)"></path>
<metadata><recraft-signature>{"signed_by": "recraft", "signature_b64": "RAmIpDH1xPfv9rxwNoRUUIsS80ZdtDx9OGCvaYkSbqOlSSggN6uRvI4FfWoWdz0yAqkJyCsEH1jfbYHLkmYDAA==", "signing_algo": "Ed25519", "generation_timestamp": 1772546497, "identifier": "920fb208-4c89-4df9-af82-4e3fbbd4f6e7"}</recraft-signature></metadata></svg>