<svg xmlns="http://www.w3.org/2000/svg" height="1024" preserveAspectRatio="none" style="display: block;" version="1.1" viewBox="0 0 2048 2048" width="1024">
<path d="M 0 0 L 358.372 0 L 382.545 0 L 2048 0 L 2048 2048 L 1388.96 2048 L 1385.38 2048 L 0 2048 L 0 305.733 L 0 280.433 L 0 0 z" fill="rgb(255,255,255)" transform="translate(0,0)"></path>
<path d="M 379.248 688.051 C 381.533 693.71 388.104 707.571 389.533 711.829 C 393.597 724.317 391.038 734.169 385.062 745.917 L 386.521 748.663 C 389.723 753.138 391.695 755.963 394.428 760.861 C 366.546 792.094 347.296 820.036 312.28 846.069 C 324.692 896.257 340.793 922.62 366.213 967.028 C 391.689 938.894 475.357 947.718 511.828 944.546 C 513.88 940.185 515.526 935.41 519.113 932.469 C 525.8 930.826 528.492 936.079 531.972 941.241 C 538.222 940.026 552.611 935.676 556.618 935.631 C 567.757 947.469 537.95 957.354 529.735 958.707 C 522.101 987.503 513.071 1009.63 504.934 1036.69 C 515.064 1019.14 531.847 994.561 550.083 984.817 C 558.125 988.804 561.774 991.333 568.682 997.391 C 563.895 1011.02 541.42 1057.17 543.689 1065.57 L 545.34 1066.79 C 552.411 1062.66 559.439 1048.75 565.602 1049.21 C 569.019 1056.97 545.439 1077.45 538.391 1081.05 C 532.901 1078.65 525.876 1075.88 524.052 1069.51 C 517.714 1047.36 541.434 1021.54 545.545 1003.55 C 536.774 1001.38 518.645 1027.02 514.243 1034.04 C 505.293 1048.3 499.895 1065.4 490.763 1079.51 C 485.411 1078.83 481.699 1078.4 476.404 1077.05 C 485.773 1038.94 500.31 1000.24 509.884 961.484 C 495.513 960.861 474.498 959.374 460.951 961.125 C 450.463 988.377 438.377 1041.8 424.897 1061.55 C 446.986 1090.21 476.064 1124.05 504.37 1147.39 C 580.688 1210.31 676.271 1259.97 768.242 1295.9 C 780.625 1300.74 803.154 1309.72 814.881 1312.92 C 985.428 1235.78 1158.58 1144.59 1351.42 1150.4 C 1417.32 1152.38 1462.32 1160.66 1517.43 1199.35 C 1522.62 1200.32 1531.6 1199.56 1537.12 1199.28 C 1617.88 1195.24 1706.86 1217.57 1757.65 1284.65 C 1828.39 1378.08 1749.06 1472.08 1685.98 1541.74 C 1670.69 1558.62 1653.66 1574.77 1638.71 1591.97 C 1665.01 1595.86 1684.99 1601.19 1710.95 1607.22 C 1800.46 1627.87 1890.88 1667.57 1948.51 1741.96 C 1975.65 1776.98 1991.64 1826.03 1984.56 1870.98 C 1969.92 1963.92 1881.79 2018.48 1797.24 2040.14 C 1756.56 2050.56 1709.84 2047.84 1668.58 2042.48 C 1617.16 2033.98 1555.82 2010.72 1512.01 1981.35 C 1412.28 1914.48 1327.63 1821.51 1242.31 1737.72 C 1214.57 1710.48 1188.93 1682.13 1160.56 1656.1 C 1118.63 1674.48 1071.09 1704.64 1036.3 1734.23 C 1026.68 1742.41 1019.34 1751.22 1011.07 1758.48 C 1015.69 1772.38 1025.46 1784.4 1028.58 1800.54 C 1036.34 1840.57 1033.84 1882.1 1027.96 1922.23 C 1027.16 1927.71 1025.31 1945.49 1021.53 1948.3 C 1013.65 1943.63 1005.95 1938.67 998.437 1933.42 C 1012.03 1892.68 1025.47 1805.52 1004.14 1767.98 C 999.503 1760.26 996.313 1754.97 989.291 1749.18 C 973.651 1735.15 961.795 1725.95 942.887 1716.25 C 859.073 1673.27 746.117 1673.6 681.798 1597.15 C 658.036 1568.9 648.015 1532.56 652.175 1496.02 C 657.443 1449.76 686.465 1409.46 722.179 1380.96 C 633.916 1353.13 543.787 1336.5 457.835 1299.4 C 384.574 1267.78 309.998 1236.69 250.553 1181.64 C 228.749 1161.45 215.869 1140.35 198.923 1117.07 C 186.329 1090.62 176.7 1068.48 170.906 1039.15 C 168.307 1025.99 167.487 1014.16 165.197 1001.31 C 167.339 982.714 167.094 969.882 170.653 950.3 C 171.982 945.276 172.737 938.31 173.488 933.036 L 175.688 933.539 C 189.338 876.515 221.022 831.676 262.686 791.791 C 275.696 779.336 285.842 768.618 300.168 757.222 L 305.154 753.039 C 309.718 748.449 326.724 736.373 332.995 731.235 C 342.336 723.58 356.391 709.764 365.405 703.586 C 368.356 701.304 374.792 692.344 379.248 688.051 z" fill="rgb(220,163,21)" transform="translate(0,0)"></path>
<path d="M 379.248 688.051 C 381.533 693.71 388.104 707.571 389.533 711.829 C 393.597 724.317 391.038 734.169 385.062 745.917 L 386.521 748.663 C 389.723 753.138 391.695 755.963 394.428 760.861 C 366.546 792.094 347.296 820.036 312.28 846.069 C 324.692 896.257 340.793 922.62 366.213 967.028 C 391.689 938.894 475.357 947.718 511.828 944.546 C 513.88 940.185 515.526 935.41 519.113 932.469 C 525.8 930.826 528.492 936.079 531.972 941.241 C 538.222 940.026 552.611 935.676 556.618 935.631 C 567.757 947.469 537.95 957.354 529.735 958.707 C 522.101 987.503 513.071 1009.63 504.934 1036.69 C 515.064 1019.14 531.847 994.561 550.083 984.817 C 558.125 988.804 561.774 991.333 568.682 997.391 C 563.895 1011.02 541.42 1057.17 543.689 1065.57 L 545.34 1066.79 C 552.411 1062.66 559.439 1048.75 565.602 1049.21 C 569.019 1056.97 545.439 1077.45 538.391 1081.05 C 532.901 1078.65 525.876 1075.88 524.052 1069.51 C 517.714 1047.36 541.434 1021.54 545.545 1003.55 C 536.774 1001.38 518.645 1027.02 514.243 1034.04 C 505.293 1048.3 499.895 1065.4 490.763 1079.51 C 485.411 1078.83 481.699 1078.4 476.404 1077.05 C 485.773 1038.94 500.31 1000.24 509.884 961.484 C 495.513 960.861 474.498 959.374 460.951 961.125 C 450.463 988.377 438.377 1041.8 424.897 1061.55 C 446.986 1090.21 476.064 1124.05 504.37 1147.39 C 580.688 1210.31 676.271 1259.97 768.242 1295.9 C 780.625 1300.74 803.154 1309.72 814.881 1312.92 C 985.428 1235.78 1158.58 1144.59 1351.42 1150.4 C 1417.32 1152.38 1462.32 1160.66 1517.43 1199.35 C 1501.49 1200.75 1485.66 1203.11 1470.01 1206.42 C 1463.08 1207.86 1441.76 1212.98 1436.34 1213.43 C 1427.54 1216.7 1418.76 1220.03 1409.94 1223.27 C 1338.23 1249.65 1268.07 1297.68 1235.17 1368.76 C 1222.52 1396.08 1219 1430.15 1229.69 1458.66 C 1251.15 1515.87 1309.74 1536.88 1363.22 1553.13 L 1378.61 1558.7 C 1362.31 1568.75 1336.41 1579.78 1318.52 1587.78 C 1330.28 1600.93 1342.9 1613.22 1354.63 1626.28 C 1395.09 1671.31 1435.01 1716.72 1472.91 1763.95 C 1478.52 1770.95 1487.3 1782.02 1493.52 1787.88 C 1503.92 1801.32 1554.86 1856.01 1567.55 1864.06 C 1585.48 1882.43 1607.36 1899.66 1627.39 1915.74 C 1690.49 1966.39 1755.59 2006.68 1836.14 2022.25 C 1821.26 2031.17 1799.81 2030.79 1782.66 2032.33 C 1780.44 2032.77 1775.69 2032.69 1773.16 2032.77 C 1580.84 2038.92 1473.11 1908.35 1350.47 1782.08 C 1314.87 1745.36 1278.6 1709.29 1241.69 1673.89 C 1228.5 1661.42 1214.38 1650.4 1201.26 1637.85 L 1193.08 1629.44 C 1186.57 1623.08 1177.26 1615.93 1170.01 1610.1 C 1136.82 1583.43 1102.05 1555.39 1066.97 1531.33 C 1004.33 1488.69 937.388 1452.73 867.252 1424.03 C 841.186 1413.33 813.893 1404.27 787.403 1394.68 C 775.348 1390.31 758.914 1385.5 747.456 1380.55 L 746.568 1380.16 C 743.568 1378.61 733.092 1375.13 729.378 1373.81 C 722.282 1371.22 708.548 1367.02 702.857 1363.62 C 699.336 1361.83 693.337 1359.99 688.721 1357.75 C 679.145 1356.42 628.74 1337.2 616.514 1332.66 C 552.292 1309.15 486.997 1288.16 424.013 1261.44 C 327.306 1220.41 236.714 1155.05 196.845 1053.88 C 185.513 1035.44 174.057 998.887 174.204 976.927 C 172.42 967.384 172.623 960.988 173.375 951.444 L 170.653 950.3 C 171.982 945.276 172.737 938.31 173.488 933.036 L 175.688 933.539 C 189.338 876.515 221.022 831.676 262.686 791.791 C 275.696 779.336 285.842 768.618 300.168 757.222 L 305.154 753.039 C 309.718 748.449 326.724 736.373 332.995 731.235 C 342.336 723.58 356.391 709.764 365.405 703.586 C 368.356 701.304 374.792 692.344 379.248 688.051 z" fill="rgb(112,47,131)" transform="translate(0,0)"></path>
<path d="M 306.368 851.708 C 318.059 899.282 328.883 935.592 349.998 981.026 C 363.922 1010.99 378.124 1035.38 392.924 1063.97 C 388.655 1070.34 374.81 1083.23 382.908 1089.17 C 392.48 1090.59 398.929 1086.29 406.217 1081.3 C 426.48 1112.89 448.418 1141.34 476.342 1166.65 C 559.805 1242.32 685.064 1289.95 789.711 1328.75 C 756.27 1344.98 725.445 1353.22 688.721 1357.75 C 679.145 1356.42 628.74 1337.2 616.514 1332.66 C 552.292 1309.15 486.997 1288.16 424.013 1261.44 C 327.306 1220.41 236.714 1155.05 196.845 1053.88 C 193.814 960.427 238.533 907.932 306.368 851.708 z" fill="rgb(255,255,255)" transform="translate(0,0)"></path>
<path d="M 267.532 945.707 C 274.836 941.935 282.121 938.125 289.386 934.279 C 286.814 942.213 285.197 948.87 283.264 957.011 L 303.669 974.105 L 278.891 976.176 L 277.953 976.248 C 275.56 978.397 271.117 994.824 269.416 999.763 C 265.164 993.555 260.646 984.719 256.952 977.967 C 248.092 977.39 241.455 977.257 232.573 977.409 C 238.392 970.639 244.077 965.272 250.476 959.122 C 248.216 951.382 246.181 942.745 245.871 934.695 C 253.754 938.343 257.528 941.729 267.532 945.707 z" fill="rgb(220,163,21)" transform="translate(0,0)"></path>
<path d="M 243.518 1049.52 C 249.702 1046.88 256.848 1049.79 259.445 1055.99 C 262.041 1062.19 259.096 1069.31 252.88 1071.87 C 246.718 1074.41 239.664 1071.49 237.09 1065.35 C 234.516 1059.2 237.387 1052.13 243.518 1049.52 z" fill="rgb(220,163,21)" transform="translate(0,0)"></path>
<path d="M 836.687 1321.54 C 869.576 1303.83 903.687 1288.49 938.759 1275.63 C 1058.96 1231.47 1315.99 1157.9 1436.34 1213.43 C 1427.54 1216.7 1418.76 1220.03 1409.94 1223.27 C 1338.23 1249.65 1268.07 1297.68 1235.17 1368.76 C 1222.52 1396.08 1219 1430.15 1229.69 1458.66 C 1251.15 1515.87 1309.74 1536.88 1363.22 1553.13 C 1351.44 1561.27 1324.5 1574.18 1311.26 1579.9 C 1285.79 1553.79 1255.07 1526.19 1227.55 1502.54 C 1150.43 1436.25 1078.84 1391.1 981.11 1361.87 C 958.591 1355.21 935.904 1349.15 913.07 1343.67 C 887.21 1337.44 861.081 1332.27 836.687 1321.54 z" fill="rgb(255,255,255)" transform="translate(0,0)"></path>
<path d="M 1111.68 1332.21 C 1115.7 1331.21 1119.94 1332.45 1122.78 1335.46 C 1125.62 1338.47 1126.61 1342.78 1125.38 1346.73 C 1124.14 1350.68 1120.88 1353.65 1116.83 1354.51 C 1110.72 1355.81 1104.7 1351.98 1103.3 1345.89 C 1101.89 1339.81 1105.62 1333.72 1111.68 1332.21 z" fill="rgb(220,163,21)" transform="translate(0,0)"></path>
<path d="M 809.843 1335.15 C 828.899 1339.75 843.024 1340.26 863.079 1347.67 C 886.479 1356.31 905.985 1366.73 927.972 1378.42 C 1011.17 1423.27 1089.37 1476.82 1161.25 1538.18 C 1189.78 1562.73 1213.12 1587.48 1239.91 1611.31 C 1224.92 1617.76 1208.42 1623.57 1193.08 1629.44 C 1186.57 1623.08 1177.26 1615.93 1170.01 1610.1 C 1136.82 1583.43 1102.05 1555.39 1066.97 1531.33 C 1004.33 1488.69 937.388 1452.73 867.252 1424.03 C 841.186 1413.33 813.893 1404.27 787.403 1394.68 C 775.348 1390.31 758.914 1385.5 747.456 1380.55 L 746.568 1380.16 C 764.404 1364.06 788.422 1346.16 809.843 1335.15 z" fill="rgb(255,255,255)" transform="translate(0,0)"></path>
<path d="M 1201.26 1637.85 L 1247.3 1620.58 C 1259.6 1632.34 1272.69 1646.82 1284.45 1659.3 C 1314.45 1691.51 1343.73 1724.38 1372.27 1757.9 C 1394.27 1784.15 1416.6 1812.66 1439.06 1838.24 C 1462.93 1865.48 1488.28 1891.39 1514.98 1915.86 C 1596.22 1991.67 1668.55 2031.35 1782.66 2032.33 C 1780.44 2032.77 1775.69 2032.69 1773.16 2032.77 C 1580.84 2038.92 1473.11 1908.35 1350.47 1782.08 C 1314.87 1745.36 1278.6 1709.29 1241.69 1673.89 C 1228.5 1661.42 1214.38 1650.4 1201.26 1637.85 z" fill="rgb(255,255,255)" transform="translate(0,0)"></path>
<path d="M 175.688 933.539 C 189.338 876.515 221.022 831.676 262.686 791.791 C 275.696 779.336 285.842 768.618 300.168 757.222 C 300.549 780.787 300.324 815.761 304.33 838.367 C 253.565 878.775 205.299 919.089 174.204 976.927 C 172.42 967.384 172.623 960.988 173.375 951.444 L 170.653 950.3 C 171.982 945.276 172.737 938.31 173.488 933.036 L 175.688 933.539 z" fill="rgb(255,255,255)" transform="translate(0,0)"></path>
<path d="M 173.488 933.036 L 175.688 933.539 C 174.968 939.414 174.309 945.635 173.375 951.444 L 170.653 950.3 C 171.982 945.276 172.737 938.31 173.488 933.036 z" fill="rgb(216,171,90)" transform="translate(0,0)"></path>
<path d="M 379.248 688.051 C 381.533 693.71 388.104 707.571 389.533 711.829 C 393.597 724.317 391.038 734.169 385.062 745.917 L 386.521 748.663 C 367.045 776.784 334.519 808.898 309.726 832.478 C 306.476 805.236 305.368 780.592 305.154 753.039 C 309.718 748.449 326.724 736.373 332.995 731.235 C 342.336 723.58 356.391 709.764 365.405 703.586 C 368.356 701.304 374.792 692.344 379.248 688.051 z" fill="rgb(255,255,255)" transform="translate(0,0)"></path>
<path d="M 379.248 688.051 C 381.533 693.71 388.104 707.571 389.533 711.829 C 393.597 724.317 391.038 734.169 385.062 745.917 C 377.79 733.921 370.877 716.661 365.405 703.586 C 368.356 701.304 374.792 692.344 379.248 688.051 z" fill="rgb(112,47,131)" transform="translate(0,0)"></path>
<path d="M 702.857 1363.62 C 722.486 1359.04 741.947 1353.76 761.205 1347.81 C 751.975 1355.22 738.221 1367.59 729.378 1373.81 C 722.282 1371.22 708.548 1367.02 702.857 1363.62 z" fill="rgb(255,255,255)" transform="translate(0,0)"></path>
<path d="M 436.159 962.419 C 438.778 962.078 439.279 962.232 441.946 962.505 C 443.966 969.826 417.288 1030.31 411.537 1040.64 C 407.308 1034.89 402.352 1026.12 398.556 1019.83 C 388.609 1004.02 379.01 988.001 369.766 971.775 C 381.865 968.219 423.044 963.393 436.159 962.419 z" fill="rgb(255,255,255)" transform="translate(0,0)"></path>
<path d="M 1614.25 1611.23 C 1686.43 1630.3 1754.96 1662.37 1815.67 1705.95 C 1853.91 1733.4 1885.61 1760.64 1910.16 1801.46 C 1955.93 1877.58 1934.69 1968.88 1856.53 2012.66 C 1849.77 2016.44 1843.72 2019.91 1836.14 2022.25 C 1755.59 2006.68 1690.49 1966.39 1627.39 1915.74 C 1607.36 1899.66 1585.48 1882.43 1567.55 1864.06 L 1567.04 1863.22 C 1561.08 1853.61 1553.34 1842.98 1546.67 1833.66 C 1489.47 1753.72 1556.61 1669.33 1614.25 1611.23 z" fill="rgb(255,255,255)" transform="translate(0,0)"></path>
<path d="M 1742.81 1726.87 C 1743.22 1730.49 1727.65 1778.53 1725.73 1784.89 L 1781.36 1813.4 C 1765.38 1810.76 1737.86 1810.06 1720.89 1809.13 C 1719.65 1829.07 1718.02 1854.12 1715.55 1873.74 C 1709.94 1854.2 1704.14 1832.03 1700.42 1812.15 C 1694.75 1813.47 1688.46 1815.3 1682.79 1816.82 C 1667.49 1821.2 1652.05 1825.8 1636.55 1829.32 C 1654.03 1816.36 1672.77 1802.84 1689.74 1789.36 C 1679.23 1772.83 1667 1755.69 1656.13 1738.97 C 1667.39 1748.04 1692.05 1764.48 1704.38 1771.69 C 1713.42 1763.21 1733.86 1737.39 1742.81 1726.87 z" fill="rgb(220,163,21)" transform="translate(0,0)"></path>
<path d="M 1762.8 1884.19 C 1766.85 1882.53 1771.49 1883.24 1774.86 1886.04 C 1778.23 1888.84 1779.77 1893.28 1778.88 1897.56 C 1777.98 1901.85 1774.79 1905.3 1770.58 1906.51 C 1764.54 1908.26 1758.18 1904.98 1756.11 1899.04 C 1754.04 1893.1 1756.98 1886.58 1762.8 1884.19 z" fill="rgb(220,163,21)" transform="translate(0,0)"></path>
<path d="M 740.441 1387.5 C 768.575 1394.84 796.673 1407.19 823.049 1418.84 C 925.552 1464.12 1022.04 1529.68 1105.28 1604.58 C 1119.73 1617.59 1137.95 1632.91 1151.05 1646.81 C 1154.09 1649.78 1157.48 1653.27 1160.56 1656.1 C 1118.63 1674.48 1071.09 1704.64 1036.3 1734.23 C 1026.68 1742.41 1019.34 1751.22 1011.07 1758.48 C 1007.71 1753.74 999.004 1745.1 994.454 1741.39 C 988.352 1737.28 978.951 1728.99 972.014 1723.96 C 954.691 1711.57 936.382 1700.62 917.269 1691.23 C 849.461 1658.39 765.662 1646.06 713.399 1587.52 C 682.125 1552.49 672.727 1500.46 691.555 1457.26 C 702.529 1432.08 719.265 1405.5 740.441 1387.5 z" fill="rgb(255,255,255)" transform="translate(0,0)"></path>
<path d="M 1151.05 1646.81 C 1154.09 1649.78 1157.48 1653.27 1160.56 1656.1 C 1118.63 1674.48 1071.09 1704.64 1036.3 1734.23 C 1026.68 1742.41 1019.34 1751.22 1011.07 1758.48 C 1007.71 1753.74 999.004 1745.1 994.454 1741.39 C 1004.75 1732.66 1016.45 1722.29 1027.26 1714.4 C 1066.73 1685.58 1106.87 1666.4 1151.05 1646.81 z" fill="rgb(112,47,131)" transform="translate(0,0)"></path>
<path d="M 962.111 1564.34 C 979.763 1560.18 997.42 1571.21 1001.42 1588.9 C 1005.42 1606.59 994.225 1624.14 976.5 1627.98 C 959.002 1631.77 941.719 1620.75 937.771 1603.29 C 933.823 1585.82 944.685 1568.44 962.111 1564.34 z" fill="rgb(220,163,21)" transform="translate(0,0)"></path>
<path d="M 793 1494.91 C 798.569 1495.2 802.783 1496.24 806.011 1501.26 C 807.642 1503.81 808.085 1506.95 807.226 1509.85 C 805.89 1514.27 802.987 1515.57 799.199 1517.48 C 783.707 1516.36 778.357 1503.7 793 1494.91 z" fill="rgb(220,163,21)" transform="translate(0,0)"></path>
<path d="M 1378.61 1558.7 C 1388.44 1559.9 1401.73 1564.96 1411.66 1567.5 C 1452.43 1577.9 1493.09 1587.03 1534.58 1594.18 C 1551.16 1597.03 1570.49 1600.22 1586.64 1604.9 C 1578.37 1615.3 1567.67 1624.63 1558.51 1634.38 C 1520.74 1674.57 1477.21 1728.6 1493.52 1787.88 C 1487.3 1782.02 1478.52 1770.95 1472.91 1763.95 C 1435.01 1716.72 1395.09 1671.31 1354.63 1626.28 C 1342.9 1613.22 1330.28 1600.93 1318.52 1587.78 C 1336.41 1579.78 1362.31 1568.75 1378.61 1558.7 z" fill="rgb(255,255,255)" transform="translate(0,0)"></path>
<path d="M 1454.9 1624.93 C 1455.59 1625 1456.28 1625.08 1456.97 1625.17 C 1469.93 1626.96 1476.15 1639.48 1462.69 1647.46 C 1461.3 1647.4 1459.91 1647.29 1458.52 1647.15 C 1444.85 1645.63 1442.46 1633.38 1454.9 1624.93 z" fill="rgb(220,163,21)" transform="translate(0,0)"></path>
<path d="M 1472.85 1233.73 C 1491.52 1228.75 1526.66 1230.01 1545.52 1231.35 C 1634.81 1238.5 1753.59 1289.37 1746.65 1396.37 C 1742.39 1462.08 1678.66 1515.2 1635.12 1559.2 C 1626.18 1568.23 1614.99 1579.38 1605.42 1587.55 C 1558.61 1576.08 1511.17 1565.35 1465.01 1551.68 C 1451.25 1547.6 1432.37 1542.4 1419.55 1537.07 C 1414.34 1535.38 1409.12 1533.72 1403.89 1532.09 C 1348.28 1518.12 1271.32 1474.23 1263.53 1412.94 C 1253.48 1333.99 1332.88 1276.64 1398.47 1253.33 C 1425.52 1243.72 1445.19 1239.13 1472.85 1233.73 z" fill="rgb(255,255,255)" transform="translate(0,0)"></path>
<path d="M 1403.89 1532.09 C 1348.28 1518.12 1271.32 1474.23 1263.53 1412.94 C 1253.48 1333.99 1332.88 1276.64 1398.47 1253.33 C 1425.52 1243.72 1445.19 1239.13 1472.85 1233.73 C 1549.87 1285.55 1551.7 1371.46 1501.44 1442.23 C 1482.46 1468.95 1435.25 1520.45 1403.89 1532.09 z" fill="rgb(255,255,255)" transform="translate(0,0)"></path>
<path d="M 1340.73 1347.63 C 1344.67 1346.86 1348.72 1348.26 1351.34 1351.31 C 1353.95 1354.36 1354.72 1358.58 1353.35 1362.36 C 1351.99 1366.13 1348.7 1368.88 1344.74 1369.56 C 1338.72 1370.58 1333 1366.58 1331.9 1360.57 C 1330.81 1354.57 1334.74 1348.8 1340.73 1347.63 z" fill="rgb(220,163,21)" transform="translate(0,0)"></path>
<path d="M 1472.85 1233.73 C 1491.52 1228.75 1526.66 1230.01 1545.52 1231.35 C 1623.49 1341.83 1538.36 1452.22 1447.06 1518.67 C 1438.19 1525.13 1428.33 1530.68 1419.55 1537.07 C 1414.34 1535.38 1409.12 1533.72 1403.89 1532.09 C 1435.25 1520.45 1482.46 1468.95 1501.44 1442.23 C 1551.7 1371.46 1549.87 1285.55 1472.85 1233.73 z" fill="rgb(112,47,131)" transform="translate(0,0)"></path>
<path d="M 1611.64 1473.34 C 1615.61 1471.55 1620.25 1472.05 1623.75 1474.65 C 1627.25 1477.25 1629.07 1481.54 1628.51 1485.86 C 1627.95 1490.18 1625.09 1493.87 1621.04 1495.49 C 1614.97 1497.92 1608.06 1495.04 1605.5 1489.02 C 1602.94 1482.99 1605.67 1476.03 1611.64 1473.34 z" fill="rgb(220,163,21)" transform="translate(0,0)"></path>
<path d="M 0 0 L 358.372 0 L 382.545 0 C 446.907 10.5562 506.131 27.5517 546.508 84.0015 C 572.03 119.093 582.112 163.085 574.42 205.789 C 572.315 217.93 569.041 229.539 565.449 241.305 C 586.223 239.655 603.165 238.065 624.022 241.796 C 748.697 264.096 833.6 419.444 737.554 522.119 C 686.16 577.061 591.583 626.033 515.533 631.432 C 509.287 631.84 503.028 632.028 496.768 631.996 C 498.003 649.146 499.033 665.051 499.474 682.219 C 481.81 680.624 467.645 676.996 456.578 662.05 L 456.45 661.274 L 453.521 660.06 C 453.293 659.514 453.064 658.969 452.836 658.423 C 445.195 656.419 437.717 655.038 430.831 651.364 C 421.577 646.428 417.288 643.064 411.251 634.847 C 433.058 628.975 443.033 620.706 462.665 613.887 C 443.961 588.478 435.673 557.651 427.36 527.678 C 426.551 523.105 426.377 519.927 423.968 515.973 C 423.413 522.533 423.13 528.997 422.786 535.56 C 420.082 587.113 408.119 641.717 375.733 683.239 C 371.502 687.953 366.779 691.56 361.878 695.561 C 358.972 679.83 353.108 660.96 349.586 644.525 C 339.116 595.682 339.034 543.693 351.655 495.174 C 340.963 497.85 330.812 498.268 319.902 498.828 C 308.982 519.376 299.407 534.433 283.168 551.25 C 299.997 566.133 311.988 576.453 324.21 595.386 C 313.288 602.333 305.012 603.821 291.625 605.865 C 290.631 606.017 290.137 603.583 286.794 604.723 C 281.04 606.687 278.174 609.11 273.779 612.321 C 266.516 617.627 249.052 615.453 240.171 614.847 C 243.393 596.8 248.355 582.768 251.483 561.681 C 213.774 546.689 184.55 533.272 150.085 510.134 C 97.2382 474.655 39.7371 424.344 14.4943 364.765 C 6.10152 344.956 4.13708 326.034 0 305.733 L 0 280.433 L 0 0 z" fill="rgb(112,47,131)" transform="translate(0,0)"></path>
<path d="M 0 0 L 358.372 0 C 277.952 11.997 196.898 35.6376 169.732 122.853 C 122.938 124.2 78.6193 144.182 46.6262 178.358 C 14.7908 212.215 8.13861 236.792 0 280.433 L 0 0 z" fill="rgb(255,255,255)" transform="translate(0,0)"></path>
<path d="M 383.6 450.999 C 398.465 443.994 403.119 441.797 415.785 431.601 C 416.584 459.19 420.626 488.446 423.968 515.973 C 423.413 522.533 423.13 528.997 422.786 535.56 C 420.082 587.113 408.119 641.717 375.733 683.239 C 352.932 637.879 346.923 541.336 359.896 493.07 C 365.91 497.781 371.587 502.025 379.439 502.493 C 387.615 502.98 400.221 502.09 406.488 496.566 C 406.986 491.434 387.992 461.979 384.136 452.361 L 383.6 450.999 z" fill="rgb(255,255,255)" transform="translate(0,0)"></path>
<path d="M 579.81 253.37 C 606.422 250.574 633.303 254.757 657.807 265.505 C 705.997 286.619 737.197 322.073 756.228 370.638 C 800.404 483.368 689.988 561.651 597.488 597.034 C 570.86 606.596 495.859 632.935 476.299 608.086 C 443.401 566.29 428.146 476.011 429.679 423.287 C 437.308 414.238 460.177 395.623 470.224 385.134 C 506.982 346.758 537.354 306.062 558.752 257.34 C 566.161 255.286 572.184 254.498 579.81 253.37 z" fill="rgb(255,255,255)" transform="translate(0,0)"></path>
<path d="M 725.99 369.908 C 757.747 398.58 756.953 441.681 738.089 477.351 C 711.546 527.54 660.234 553.872 608.275 570.408 C 599.26 572.747 592.982 573.87 583.736 575.323 C 646.075 533.285 717.868 484.354 725.933 402.652 C 726.969 392.153 726.042 380.57 725.99 369.908 z" fill="rgb(112,47,131)" transform="translate(0,0)"></path>
<path d="M 372.931 15.0322 C 376.024 14.9617 381.351 14.6342 383.885 16.3605 C 395.252 24.1043 402.307 49.1404 406.394 61.6071 C 435.64 150.813 427.698 237.167 404.991 326.887 C 393.275 373.18 384.396 402.46 362.501 444.514 C 357.924 443.331 353.063 442.35 348.427 441.329 L 354.531 425.251 C 374.71 374.601 388.234 311.818 377.316 258.147 C 367.138 208.114 345.03 182.103 304.582 154.617 C 313.392 117.124 341.636 35.697 372.931 15.0322 z" fill="rgb(255,255,255)" transform="translate(0,0)"></path>
<path d="M 434.286 24.925 C 439.034 25.2328 445.555 27.5323 450.177 29.0352 C 478.194 38.1518 503.292 54.5373 522.909 76.5201 C 622.525 187.617 516.145 327.35 428.291 405.038 C 417.177 414.234 407.594 421.432 395.955 429.856 C 412.203 412.87 427.206 394.735 440.848 375.593 C 513.714 271.617 558.521 110.478 434.286 24.925 z" fill="rgb(255,255,255)" transform="translate(0,0)"></path>
<path d="M 73.6971 195.014 C 85.2559 195.571 92.0261 203.65 86.2046 213.801 C 67.9573 245.62 51.6682 266.224 50.0605 305.152 C 48.4532 344.071 61.228 375.871 84.4877 406.872 C 87.3291 410.637 108.04 433.071 108.161 434.401 L 105.289 432.962 C 35.0149 390.28 6.33064 304.177 41.6706 226.885 C 48.3945 212.179 57.7179 200.327 73.6971 195.014 z" fill="rgb(255,255,255)" transform="translate(0,0)"></path>
<path d="M 319.638 19.254 L 320.224 19.3355 L 320.323 20.176 C 315.181 22.7345 310.182 25.5719 305.35 28.6754 C 267.658 52.6506 242.98 83.8771 233.438 127.631 C 220.733 124.648 205.266 122.975 192.312 121.657 C 188.559 121.118 187.671 121.713 185.617 119.573 C 186.065 114.614 192.861 101.757 195.823 97.3292 C 227.62 49.7932 266.899 31.5322 319.638 19.254 z" fill="rgb(255,255,255)" transform="translate(0,0)"></path>
<path d="M 165.197 1001.31 C 167.487 1014.16 168.307 1025.99 170.906 1039.15 C 176.7 1068.48 186.329 1090.62 198.923 1117.07 C 204.641 1146.83 216.205 1175.16 232.945 1200.41 C 297.862 1297.48 419.963 1340.96 531.394 1354.32 C 580.384 1360.19 624.841 1358.7 673.365 1368.36 C 661.072 1370.7 642.889 1372.39 629.991 1373.71 C 536.168 1383.78 441.283 1372.33 352.549 1340.23 C 278.145 1312.79 203.342 1259.89 171.499 1185.9 C 144.301 1122.71 141.689 1065.1 165.197 1001.31 z" fill="rgb(112,47,131)" transform="translate(0,0)"></path>
<path d="M 989.291 1749.18 C 996.313 1754.97 999.503 1760.26 1004.14 1767.98 C 1025.47 1805.52 1012.03 1892.68 998.437 1933.42 C 1005.95 1938.67 1013.65 1943.63 1021.53 1948.3 C 1006.45 1951.51 989.427 1954.93 975.336 1946.64 C 947.866 1930.48 932.681 1895.89 932.055 1864.97 C 931.163 1820.9 959.845 1779.49 989.291 1749.18 z" fill="rgb(112,47,131)" transform="translate(0,0)"></path>
<path d="M 1004.14 1767.98 C 1025.47 1805.52 1012.03 1892.68 998.437 1933.42 C 981.093 1918.33 970.333 1884.39 967.63 1862.03 C 963.48 1827.71 982.973 1793.9 1004.14 1767.98 z" fill="rgb(255,255,255)" transform="translate(0,0)"></path>
<path d="M 389.533 711.829 C 393.863 717.401 399.881 728.818 403.924 731.889 C 406.929 735.269 408.173 737.082 410.729 740.861 C 447.387 798.982 516.034 831.073 581.035 845.788 C 602.07 850.467 623.31 854.171 644.688 856.89 C 695.699 863.662 784.658 867.476 801.934 926.651 C 794.825 927.464 786.702 928.596 779.654 929.144 C 770.644 919.344 761.74 908.902 749.49 903.319 C 717.202 888.605 674.778 885.078 639.845 880.362 C 562.963 869.982 481.338 851.986 424.102 795.638 C 415.415 787.086 400.811 771.394 394.428 760.861 C 391.695 755.963 389.723 753.138 386.521 748.663 L 385.062 745.917 C 391.038 734.169 393.597 724.317 389.533 711.829 z" fill="rgb(220,163,21)" transform="translate(0,0)"></path>
<path d="M 1366.2 1951.8 C 1376.87 1939.99 1388.49 1926.58 1399.77 1915.59 C 1398.37 1931.74 1396.72 1947.87 1394.82 1963.97 C 1410.76 1970.68 1424.29 1977.52 1439.76 1985.22 C 1423.82 1989.91 1407.72 1994.03 1391.48 1997.56 C 1390.65 2012.69 1388.91 2033.18 1388.96 2048 L 1385.38 2048 C 1377.86 2033.82 1368.99 2017.59 1360.18 2004.16 C 1346.2 2007.43 1327.05 2012.36 1312.99 2013.74 L 1345.5 1976.32 C 1338.32 1964.46 1325.36 1944.99 1319.62 1933.52 C 1335.55 1939.22 1350.57 1945.39 1366.2 1951.8 z" fill="rgb(112,47,131)" transform="translate(0,0)"></path>
<path d="M 379.248 688.051 C 385.621 681.779 391.102 675.36 395.678 667.645 C 423.036 621.522 428.67 580.164 427.36 527.678 C 435.673 557.651 443.961 588.478 462.665 613.887 C 443.033 620.706 433.058 628.975 411.251 634.847 C 417.288 643.064 421.577 646.428 430.831 651.364 C 437.717 655.038 445.195 656.419 452.836 658.423 C 453.064 658.969 453.293 659.514 453.521 660.06 L 403.924 731.889 C 399.881 728.818 393.863 717.401 389.533 711.829 C 388.104 707.571 381.533 693.71 379.248 688.051 z" fill="rgb(255,255,255)" transform="translate(0,0)"></path>
<path d="M 423.968 515.973 C 426.377 519.927 426.551 523.105 427.36 527.678 C 428.67 580.164 423.036 621.522 395.678 667.645 C 391.102 675.36 385.621 681.779 379.248 688.051 C 374.792 692.344 368.356 701.304 365.405 703.586 C 356.391 709.764 342.336 723.58 332.995 731.235 C 326.724 736.373 309.718 748.449 305.154 753.039 L 300.168 757.222 C 285.842 768.618 275.696 779.336 262.686 791.791 C 221.022 831.676 189.338 876.515 175.688 933.539 L 173.488 933.036 C 186.103 845.925 234.796 791.354 299.959 738.138 C 303.172 736.607 303.934 735.486 306.361 732.953 C 321.614 720.224 344.765 710.074 361.878 695.561 C 366.779 691.56 371.502 687.953 375.733 683.239 C 408.119 641.717 420.082 587.113 422.786 535.56 C 423.13 528.997 423.413 522.533 423.968 515.973 z" fill="rgb(220,163,21)" transform="translate(0,0)"></path>
<path d="M 453.521 660.06 L 456.45 661.274 L 456.578 662.05 C 443.161 683.575 431.067 705.895 417.873 727.554 C 415.242 731.872 412.783 736.234 410.729 740.861 C 408.173 737.082 406.929 735.269 403.924 731.889 L 453.521 660.06 z" fill="rgb(112,47,131)" transform="translate(0,0)"></path>
<path d="M 294.972 621.835 L 296.727 622.071 C 306.187 661.889 306.508 692.541 306.361 732.953 C 303.934 735.486 303.172 736.607 299.959 738.138 C 303.282 706.479 300.162 653.449 294.972 621.835 z" fill="rgb(112,47,131)" transform="translate(0,0)"></path>
<path d="M 294.972 621.835 C 293.93 617.92 292.338 613.44 292.733 609.52 C 295.045 612.234 296.229 618.456 296.727 622.071 L 294.972 621.835 z" fill="rgb(169,135,166)" transform="translate(0,0)"></path>
<path d="M 803.934 472.698 C 809.124 476.583 841.004 517.354 849.464 526.409 C 876.352 514.887 894.486 506.362 920.32 492.817 C 904.557 512.516 889.252 532.578 874.418 552.986 C 891.583 571.03 914.506 591.706 932.903 609.117 C 917.122 604.173 902.102 598.618 886.593 592.938 C 875.949 589.168 865.626 586.333 854.778 583.261 C 844.386 602.224 833.322 628.677 822.874 649.219 C 821.555 625.234 818.839 601.982 817.901 577.812 C 794.171 574.397 762.843 572.426 740.049 567.416 C 765.479 558.882 790.675 549.668 815.611 539.783 C 812.743 528.616 804.43 482.969 803.934 472.698 z" fill="rgb(220,163,21)" transform="translate(0,0)"></path>
<path d="M 799.645 933.395 C 821.907 930.07 856.893 936.829 868.826 958.129 C 874.072 967.592 875.291 978.767 872.208 989.137 C 863.81 1018.09 828.683 1030.44 801.561 1022.6 C 789.33 1061.81 771.203 1105.6 720.813 1096.93 C 707.149 1094.58 694.362 1078.1 697.553 1064.67 C 708.916 1053.53 712.627 1065.7 713.472 1075.36 C 714.248 1084.21 719.201 1092.96 729.471 1091.74 C 742.872 1090.16 752.054 1075.79 758.458 1065.1 C 772.539 1041.07 780.484 1014.12 789.408 987.924 C 793.141 977.171 798.07 957.693 805.025 949.084 C 807.813 947.558 810.023 948.213 813.272 948.545 C 818.007 950.2 822.248 951.524 824.939 955.894 C 824.565 960.075 817.305 977.088 815.539 982.302 C 811.634 993.835 807.881 1005.31 804.272 1016.98 C 819.289 1014.05 831.28 1009.47 841.721 997.469 C 853.109 984.375 858.559 959.73 842.889 947.637 C 829.94 938.361 813.272 938.727 797.802 940.012 C 760.812 943.085 718.534 970.472 720.94 1011.68 C 721.402 1019.6 730.064 1031.87 736.909 1035.59 C 741.238 1037.94 745.387 1038.79 750.063 1042.11 C 752.401 1046.61 749.987 1051.97 745.601 1051.31 C 707.004 1045.57 695.71 998.798 719.255 970.796 C 738.608 947.778 770.45 936.291 799.645 933.395 z" fill="rgb(112,47,131)" transform="translate(0,0)"></path>
<path d="M 822.298 708.903 L 823.953 710.017 C 826.398 717.585 829.893 739.996 831.381 748.679 C 843.327 756.898 854.503 765.647 864.521 776.167 C 851.66 782.932 838.148 787.488 824.516 792.447 C 820.934 805.27 815.048 820.297 810.147 832.662 C 803.406 825.594 796.709 818.485 790.055 811.335 C 787.559 808.254 784.416 804.979 781.712 802.012 C 766.562 801.167 751.786 800.75 736.962 797.344 C 743.884 784.008 749.715 773.596 758.073 761.229 C 752.515 746.182 750.488 740.146 751.008 724.261 C 761.473 724.996 773.196 727.843 783.543 730.017 C 798.412 722.708 803.551 716.353 822.298 708.903 z" fill="rgb(220,163,21)" transform="translate(0,0)"></path>
<path d="M 1352.88 959.045 C 1360.27 960.712 1362.38 961.208 1369.27 964.288 C 1359.65 977.329 1348.66 1001.99 1344.06 1017.93 C 1352.23 1006.71 1377 965.394 1392.03 991.077 C 1407.22 1017.05 1382.11 1087.43 1343.98 1075.1 C 1337.39 1071.63 1336.37 1070.4 1332.2 1064.11 C 1326.98 1081.6 1323.15 1093.06 1323.43 1111.49 C 1315.73 1109.86 1306.71 1108.85 1300.9 1103.67 C 1297.74 1097.38 1324.14 1023.49 1327.82 1009.8 C 1324.35 1007.09 1321.58 1005.34 1319.11 1001.7 L 1319.48 999.852 C 1323.06 998.178 1326.79 999.038 1330.82 999.437 C 1335.55 985.95 1340.64 966.563 1352.88 959.045 z" fill="rgb(112,47,131)" transform="translate(0,0)"></path>
<path d="M 1374.72 994.635 L 1377 996.029 C 1382.64 1008.61 1364.93 1052.66 1353.26 1062.1 C 1348.13 1066.24 1346.62 1066.36 1340.31 1066.05 C 1336.6 1062.63 1334.42 1060.72 1335.84 1055.25 C 1341.09 1034.98 1357.27 1006.33 1374.72 994.635 z" fill="rgb(255,255,255)" transform="translate(0,0)"></path>
<path d="M 1664.55 983.885 C 1671.53 984.076 1676.05 984.806 1682.09 988.402 C 1684.29 992.228 1680.33 995.578 1677.79 1000.44 C 1667.43 1020.25 1659.92 1043.9 1657.08 1065.93 C 1662.43 1061.68 1679.82 1043.45 1683.71 1042.62 C 1683.74 1049.47 1656.53 1077.79 1647.76 1076.65 C 1632.88 1074.7 1638.32 1060.33 1640.51 1051.39 L 1647 1032.79 C 1639 1043.5 1623.58 1071.67 1611.1 1076.53 C 1608.43 1077.38 1602.16 1074.87 1600.52 1073.03 C 1583.63 1053.81 1600.68 1016.67 1615.05 1000.41 C 1627.44 986.386 1644.21 977.414 1659.89 991.866 L 1664.55 983.885 z" fill="rgb(112,47,131)" transform="translate(0,0)"></path>
<path d="M 1644.25 996.779 C 1648.24 996.903 1652.5 997.736 1655.07 1001.07 C 1656 1012.16 1629.77 1047.84 1621.79 1057.42 C 1618.86 1059.96 1620.45 1059.4 1617.19 1059.97 L 1615.45 1058.08 C 1609.83 1038.42 1627.17 1007.25 1644.25 996.779 z" fill="rgb(255,255,255)" transform="translate(0,0)"></path>
<path d="M 1272.17 941.208 C 1273.84 941.041 1275.51 940.935 1277.18 940.889 C 1287.3 940.543 1296.73 943.252 1304.05 950.579 C 1309.08 955.561 1311.92 962.349 1311.94 969.434 C 1311.89 976.34 1309.01 982.765 1304.34 987.809 C 1300.58 991.882 1290.13 990.505 1286.7 986.606 C 1286.65 981.422 1294.56 969.904 1295.57 961.478 C 1297.93 941.926 1272.54 944.504 1263.84 955.356 C 1244.51 979.475 1273.03 1004.79 1285.08 1024.69 C 1295.2 1041.41 1300.12 1063.52 1284.71 1078.85 C 1271.71 1091.99 1259.24 1095.14 1241.67 1095.26 C 1196.03 1089.16 1199.23 1040.93 1223.52 1041.28 C 1227.95 1045.89 1219.14 1061.57 1222.11 1072.26 C 1225.75 1085.35 1236.69 1090.97 1250.42 1087.4 C 1257.98 1085.39 1264.39 1080.4 1268.18 1073.56 C 1282.41 1047.9 1238.44 1014.52 1233.37 989.891 C 1227.85 963.063 1248.34 946.895 1272.17 941.208 z" fill="rgb(112,47,131)" transform="translate(0,0)"></path>
<path d="M 908.275 987.242 C 916.262 986.238 921.737 984.735 926.476 991.566 C 931.83 993.304 937.566 979.821 949.35 992.899 C 949.376 994.405 942.546 1005.49 940.592 1010.37 C 933.442 1028.25 926.892 1046.22 922.85 1065.08 C 929.441 1060.57 935.715 1052.99 941.686 1049.4 L 942.402 1050.18 C 939.96 1059.26 929.623 1068.96 922.475 1074.99 C 917.761 1078.96 915.234 1080.11 909.136 1079.64 C 897.932 1070.41 906.704 1053.82 910.617 1041.84 C 904.178 1051.17 892.501 1069.7 881.874 1074.66 C 861.517 1083.74 862.72 1053.21 866.078 1041.71 C 873.387 1016.71 883.243 997.506 908.275 987.242 z" fill="rgb(112,47,131)" transform="translate(0,0)"></path>
<path d="M 912.289 998.802 C 915.284 998.861 915.506 998.989 918.444 999.751 C 928.646 1010.16 893.39 1050.49 885.679 1058.42 C 884.078 1059.84 883.567 1060.13 881.796 1061.33 L 880.044 1060.76 C 876.27 1052.59 884.365 1033.36 888.48 1025.69 C 894.481 1014.5 901.504 1005.61 912.289 998.802 z" fill="rgb(255,255,255)" transform="translate(0,0)"></path>
<path d="M 982.591 794.937 C 1001.97 793.725 1018.63 808.518 1019.71 827.902 C 1020.8 847.286 1005.9 863.85 986.514 864.815 C 967.297 865.771 950.913 851.035 949.835 831.825 C 948.757 812.615 963.388 796.138 982.591 794.937 z" fill="rgb(112,47,131)" transform="translate(0,0)"></path>
<path d="M 891.354 256.185 C 903.122 253.809 915.257 257.959 923.106 267.042 C 930.956 276.126 933.302 288.735 929.245 300.034 C 925.188 311.333 915.357 319.569 903.522 321.585 C 885.606 324.635 868.558 312.744 865.234 294.877 C 861.91 277.01 873.54 259.782 891.354 256.185 z" fill="rgb(112,47,131)" transform="translate(0,0)"></path>
<path d="M 622.812 984.195 C 641.337 985.215 640.517 1001.25 636.966 1015 C 632.404 1032.67 613.746 1037.76 599.723 1045.74 C 597.409 1047.05 594.611 1048.83 594.347 1051.79 C 594.075 1058.01 592.839 1062.36 596.732 1067.5 C 610.611 1074.04 626.876 1048.12 633.715 1048.19 C 633.77 1051.62 632.216 1053.51 630.484 1056.54 C 624.076 1065.24 613.934 1076.27 603.425 1079.35 C 591.944 1082.71 576.986 1074.51 575.001 1062.3 C 572.248 1045.36 581.113 1023.43 590.057 1009.35 C 597.381 997.814 609.326 986.94 622.812 984.195 z" fill="rgb(112,47,131)" transform="translate(0,0)"></path>
<path d="M 621.865 996.554 C 626.285 999.234 625.664 1006.07 624.355 1010.36 C 620.229 1023.88 611.206 1032.19 599.417 1038.89 C 597.883 1039.05 598.663 1039.2 597.169 1038.09 C 601.089 1022.36 608.411 1006.21 621.865 996.554 z" fill="rgb(255,255,255)" transform="translate(0,0)"></path>
<path d="M 1110.24 981.766 L 1112.12 982.937 C 1120.37 998.51 1124.04 1028.32 1126.06 1046.15 C 1135.18 1034.18 1139.6 1021.57 1142.17 1006.8 C 1143.26 1000.6 1142.48 988.21 1144.64 984.769 C 1195.81 980.183 1119.7 1070.73 1109.76 1081.57 C 1099.81 1091.53 1091.83 1096.8 1080 1103.87 C 1065.95 1112.27 1048.87 1106.52 1051.25 1088.42 C 1053.13 1087.67 1064.54 1099.66 1070.26 1097.84 C 1083.9 1093.89 1105.51 1074.93 1107.46 1060.32 C 1110.35 1038.63 1106.24 1008.31 1087.24 995.159 C 1094.79 991.428 1102.96 986.188 1110.24 981.766 z" fill="rgb(112,47,131)" transform="translate(0,0)"></path>
<path d="M 1446.72 983.213 C 1466.26 982.81 1470.61 997.883 1464.49 1013.32 C 1458.01 1029.65 1439.58 1035.41 1424.53 1039.91 C 1422.82 1040.42 1421 1042.09 1420.99 1044.1 C 1420.94 1051.51 1422.44 1063.06 1430.99 1065.16 C 1443.63 1063.74 1450.56 1047.92 1459.63 1042.05 L 1461.54 1042.77 C 1463.29 1046.27 1463.19 1044.56 1462.27 1048.02 C 1453.77 1056.75 1438.12 1073.46 1427.11 1076.52 C 1402.73 1082.47 1399.25 1047.85 1404.29 1031.55 C 1410.79 1010.47 1423.38 988.472 1446.72 983.213 z" fill="rgb(112,47,131)" transform="translate(0,0)"></path>
<path d="M 1448.63 991.682 C 1452.45 991.711 1452.73 992.067 1455.36 994.709 C 1459.51 1008.06 1440.53 1026.38 1430.06 1032.72 C 1427.33 1033.41 1426.79 1033.97 1424.34 1032.92 C 1419.65 1022.41 1439.68 997.448 1448.63 991.682 z" fill="rgb(255,255,255)" transform="translate(0,0)"></path>
<path d="M 116.549 739.147 C 134.466 736.184 151.4 748.286 154.399 766.197 C 157.398 784.108 145.331 801.066 127.427 804.103 C 109.47 807.148 92.4511 795.038 89.4429 777.075 C 86.4348 759.111 98.5797 742.118 116.549 739.147 z" fill="rgb(112,47,131)" transform="translate(0,0)"></path>
<path d="M 1075.94 529.201 C 1093.18 523.864 1111.46 533.604 1116.65 550.888 C 1121.83 568.171 1111.94 586.369 1094.61 591.407 C 1077.49 596.384 1059.56 586.633 1054.44 569.559 C 1049.31 552.486 1058.91 534.473 1075.94 529.201 z" fill="rgb(220,163,21)" transform="translate(0,0)"></path>
<path d="M 1722.45 932.99 C 1723.73 932.934 1725.02 932.91 1726.31 932.919 C 1735.44 933.032 1747.94 934.966 1744.75 947.383 C 1734.81 986.153 1714.66 1024.89 1706.1 1063.86 L 1705.78 1065.32 C 1710.79 1062.2 1713.92 1059.5 1718.29 1055.74 C 1721.85 1052.68 1731.22 1040.23 1734.74 1039.86 L 1736.62 1041.8 C 1735.77 1045 1731.57 1049.25 1729.23 1051.97 C 1721.8 1059.54 1709.77 1071.22 1701.67 1077.62 C 1696.55 1076.14 1686.78 1074.32 1685.81 1068.6 C 1682.88 1051.26 1726.26 950.756 1723.66 943.941 C 1719.62 942.883 1716.51 942.577 1714.51 938.707 C 1715.86 935.762 1719.38 934.557 1722.45 932.99 z" fill="rgb(112,47,131)" transform="translate(0,0)"></path>
<path d="M 1167.5 1850.24 C 1184.5 1848.43 1199.77 1860.67 1201.69 1877.66 C 1203.61 1894.64 1191.46 1909.98 1174.49 1912.01 C 1157.37 1914.06 1141.85 1901.78 1139.91 1884.64 C 1137.97 1867.51 1150.36 1852.07 1167.5 1850.24 z" fill="rgb(220,163,21)" transform="translate(0,0)"></path>
<path d="M 894.655 1139.23 C 911.434 1135.5 928.035 1146.16 931.635 1162.96 C 935.234 1179.77 924.453 1196.29 907.621 1199.77 C 890.965 1203.2 874.656 1192.56 871.095 1175.93 C 867.533 1159.3 878.053 1142.91 894.655 1139.23 z" fill="rgb(220,163,21)" transform="translate(0,0)"></path>
<path d="M 1898.54 958.538 C 1904.4 959.486 1912.38 962.583 1918.06 964.653 C 1912.68 972.938 1909.48 978.853 1905.52 987.812 C 1910.32 987.978 1921.94 988.111 1923.21 994.076 C 1919.06 997.289 1908.79 996.274 1901.86 997.011 C 1896.19 1009.22 1884.19 1050.62 1880 1065.06 C 1896.4 1056.48 1897.26 1049.46 1909.51 1040.11 L 1910.74 1040.78 C 1910.62 1044.55 1909.91 1045.09 1907.78 1048.17 C 1898.11 1057.01 1887.87 1067.57 1878.53 1076.91 C 1871.08 1074.91 1865.22 1073.99 1860.91 1067.66 C 1858.44 1056.73 1875.72 1012.48 1880.08 999.511 C 1874.43 998.565 1869.77 998.548 1866.04 994.149 C 1866.45 986.896 1878.42 988.685 1883.68 988.832 C 1887.47 980.12 1893.43 966.17 1898.54 958.538 z" fill="rgb(112,47,131)" transform="translate(0,0)"></path>
<path d="M 1062.9 964.698 C 1069.63 966.019 1074.04 967.879 1079.91 971.167 C 1074.76 978.794 1072.59 982.004 1069.09 990.49 L 1074.04 990.811 C 1078.93 991.093 1080.75 990.833 1082.8 995.727 C 1080.59 1003.08 1070.93 1001.57 1065.17 1001.27 C 1055.51 1025.99 1049.96 1040.47 1044.87 1066.74 C 1051.56 1060.62 1062.73 1045.21 1068.81 1043.22 L 1070.25 1044.25 C 1069.93 1047.82 1067.23 1050.42 1064.91 1053.33 C 1055.08 1064.5 1023.41 1101.53 1027.35 1057.96 C 1028.8 1042 1038.32 1017.6 1043.71 1002.14 C 1042.13 1002.01 1040.55 1001.84 1038.98 1001.65 C 1035.29 1001.16 1034.1 1000.83 1031.85 997.834 L 1032.17 995.637 C 1037.19 990.926 1041.01 991.868 1047.81 991.981 C 1051.41 982.052 1054.97 971.885 1062.9 964.698 z" fill="rgb(112,47,131)" transform="translate(0,0)"></path>
<path d="M 1829.96 981.309 C 1867.13 981.282 1854.65 1021.58 1835.18 1016.17 C 1830.02 1009.21 1847.34 997.939 1838.2 990.739 C 1812.22 985.283 1826.88 1020.15 1830.64 1030.36 C 1839.14 1053.43 1833.99 1069.52 1809.6 1078 C 1768.14 1081.39 1790.15 1030.99 1804.05 1046.09 C 1803.55 1053.62 1791.68 1059.38 1797.54 1066.52 C 1802.96 1068.86 1812.91 1069.63 1814.82 1063.05 C 1822.92 1035.11 1777.5 990.416 1829.96 981.309 z" fill="rgb(112,47,131)" transform="translate(0,0)"></path>
<path d="M 1017.78 980.727 C 1018.38 980.862 1019.54 981.508 1020.16 981.814 C 1026.99 999.465 1031.37 1010.24 1006.75 1007.85 C 991.406 1022.5 981.813 1039.52 975.518 1059.68 C 974.109 1064.19 971.662 1075.19 969.69 1078.53 C 965.435 1079.73 955.976 1076.06 954.314 1071.77 C 952.5 1067.1 956.423 1057.41 957.896 1052.68 C 963.43 1033.81 972.09 1001.97 974.622 983.467 C 1004.91 985.423 992.882 998.674 986.21 1019.79 C 996.733 1003.84 1001.6 990.528 1017.78 980.727 z" fill="rgb(112,47,131)" transform="translate(0,0)"></path>
<path d="M 436.034 1413.71 C 439.851 1417.15 451.297 1432.93 455.021 1437.85 C 466.572 1435.01 475.65 1433.64 487.364 1431.88 C 478.599 1440.68 474.107 1446.6 466.815 1456.48 C 472.889 1465.99 479.032 1475.26 484.268 1485.27 C 476.605 1481.93 469.516 1479.16 461.694 1476.2 C 459.12 1475.32 458.612 1475.27 455.957 1474.72 C 449.241 1476.91 439.99 1491.17 435.195 1497.53 C 434.908 1487.63 434.78 1477.72 434.812 1467.82 C 424.053 1463.81 413.772 1459.34 403.226 1454.83 C 412.828 1450.7 425.147 1446.92 435.235 1444.36 L 436.034 1413.71 z" fill="rgb(220,163,21)" transform="translate(0,0)"></path>
<path d="M 1515.62 983.106 C 1548.87 981.923 1544.07 1015.69 1526.98 1012.57 C 1524.6 1006.15 1530.29 995.606 1525.3 990.092 C 1494.31 985.187 1472.34 1099.79 1524.75 1051.01 C 1528.07 1047.3 1528.28 1046.8 1532.6 1044.59 L 1533.72 1045.18 C 1532.46 1056.38 1507.37 1072.99 1497.59 1077.96 C 1489.18 1075.77 1485.11 1074.35 1478.08 1069.57 C 1461.35 1040.01 1484.64 993.031 1515.62 983.106 z" fill="rgb(112,47,131)" transform="translate(0,0)"></path>
<path d="M 1064.04 357.263 C 1070.19 361.624 1076.36 365.954 1082.55 370.253 C 1088.51 369.573 1094.47 368.841 1100.42 368.058 C 1101.23 380.119 1104.09 390.145 1107.27 401.664 C 1100.28 400.219 1092.63 399.389 1085.5 398.474 C 1081.26 400.245 1077 402.355 1072.83 404.334 C 1066.04 407.876 1057.9 413.676 1051.39 418.04 C 1050.64 411.226 1050.47 402.586 1050.15 395.594 C 1046.86 392.428 1040.53 387.502 1036.84 384.484 C 1045.16 378.965 1048.38 377.217 1057.52 373.113 C 1059.54 369.176 1062.3 361.66 1064.04 357.263 z" fill="rgb(220,163,21)" transform="translate(0,0)"></path>
<path d="M 1753.16 987.364 C 1762.32 986.738 1777.43 984.546 1782.95 993.417 C 1783.65 1001.08 1762.43 1054.31 1758.29 1066.74 C 1763.59 1063.06 1767.73 1060.07 1772.33 1055.38 C 1775.17 1052.48 1780.48 1044.93 1783.81 1044.16 L 1784.97 1046.29 C 1784.69 1050.49 1784.96 1049.03 1781.65 1052.86 C 1774.92 1059.41 1761.66 1072.44 1754.21 1077.58 C 1748.49 1075.08 1743.64 1073.59 1739.88 1068.75 C 1736.76 1057.09 1758.92 1013.12 1761.16 998.693 C 1761.99 993.393 1754.46 998.233 1749.33 991.166 C 1750.6 988.22 1749.88 989.573 1753.16 987.364 z" fill="rgb(112,47,131)" transform="translate(0,0)"></path>
<path d="M 1560.31 986.09 C 1567.65 985.832 1578.08 986.249 1582.85 993.429 C 1583.86 994.962 1584.67 997.07 1584.08 998.965 C 1577.23 1020.65 1568.4 1041.8 1561.95 1063.6 C 1566.06 1060.31 1579.8 1045.06 1583.55 1045.08 L 1581.96 1048.47 L 1582.73 1047.41 C 1581.71 1049.42 1578.67 1053.4 1577.22 1055.42 C 1570.54 1063.63 1564.24 1070.54 1557.1 1078.32 C 1550.52 1076.05 1546.36 1075.48 1542.65 1069.67 C 1540.5 1059.34 1558.96 1011.04 1563.23 996.947 L 1561.5 996.157 C 1557.58 994.333 1556.91 994.098 1555.7 990.683 C 1556.76 987.982 1557.83 987.726 1560.31 986.09 z" fill="rgb(112,47,131)" transform="translate(0,0)"></path>
<path d="M 708.362 1139.67 C 710.84 1142.49 711.882 1149.7 712.788 1153.74 C 717.376 1155.59 724.031 1157.64 728.865 1159.27 C 722.83 1163.81 720.79 1165.15 715.913 1170.97 C 716.061 1175.17 716.832 1180.72 717.297 1185 C 712.828 1182.08 708.487 1179.72 703.841 1177.14 L 690.586 1182.79 C 691.137 1177.53 692.236 1171.52 693.069 1166.23 L 682.192 1154.31 L 698.209 1152.93 C 701.853 1147.69 704.2 1144.52 708.362 1139.67 z" fill="rgb(220,163,21)" transform="translate(0,0)"></path>
<path d="M 1777.72 940.822 C 1795.94 943.522 1793.09 962.25 1778.73 971.577 L 1775.63 971.521 C 1763.76 963.975 1761.62 946.543 1777.72 940.822 z" fill="rgb(112,47,131)" transform="translate(0,0)"></path>
<path d="M 128.14 583.447 C 134.96 582.78 141.083 587.632 141.993 594.424 C 142.903 601.215 138.272 607.508 131.517 608.659 C 126.929 609.441 122.279 607.655 119.394 604.003 C 116.508 600.35 115.847 595.414 117.669 591.131 C 119.492 586.847 123.507 583.901 128.14 583.447 z" fill="rgb(220,163,21)" transform="translate(0,0)"></path>
<path d="M 1579.8 943.855 C 1596.07 943.305 1596.48 962.056 1582.96 971.096 C 1563.6 972.311 1566.34 953.092 1579.8 943.855 z" fill="rgb(112,47,131)" transform="translate(0,0)"></path>
<path d="M 1696.76 1149.57 C 1702.87 1146.69 1710.15 1149.27 1713.08 1155.35 C 1716.01 1161.43 1713.49 1168.73 1707.43 1171.71 C 1701.3 1174.72 1693.9 1172.17 1690.93 1166.02 C 1687.97 1159.87 1690.59 1152.48 1696.76 1149.57 z" fill="rgb(220,163,21)" transform="translate(0,0)"></path>
<path d="M 579.542 717.23 C 585.749 715.281 592.356 718.754 594.271 724.972 C 596.186 731.19 592.676 737.778 586.448 739.659 C 580.268 741.525 573.742 738.048 571.842 731.879 C 569.942 725.709 573.383 719.163 579.542 717.23 z" fill="rgb(220,163,21)" transform="translate(0,0)"></path>
<path d="M 412.015 843.408 C 416.023 841.825 420.576 842.577 423.861 845.366 C 427.146 848.154 428.627 852.526 427.715 856.737 C 426.803 860.948 423.645 864.314 419.501 865.493 C 413.516 867.196 407.247 863.906 405.249 858.012 C 403.252 852.119 406.228 845.695 412.015 843.408 z" fill="rgb(220,163,21)" transform="translate(0,0)"></path>
<path d="M 532.956 1558.04 C 539.048 1558.31 544.398 1560.3 546.671 1566.46 C 547.729 1569.32 547.467 1572.51 545.954 1575.16 C 543.769 1579.02 540.591 1579.93 536.671 1581.16 C 520.912 1578.57 517.643 1563.93 532.956 1558.04 z" fill="rgb(112,47,131)" transform="translate(0,0)"></path>
<path d="M 678.116 107.098 C 694.179 110.204 697.261 123.4 681.754 130.756 C 666.16 127.319 660.623 113.957 678.116 107.098 z" fill="rgb(220,163,21)" transform="translate(0,0)"></path>
<path d="M 771.112 1766.05 C 786.425 1766.12 794.111 1778.89 779.191 1788.07 C 762.528 1787.64 755.398 1773.78 771.112 1766.05 z" fill="rgb(220,163,21)" transform="translate(0,0)"></path>
<path d="M 1444.21 870.278 C 1450.38 869.612 1455.97 873.947 1456.87 880.09 C 1457.76 886.232 1453.63 891.978 1447.52 893.094 C 1443.37 893.853 1439.14 892.283 1436.48 889 C 1433.83 885.717 1433.18 881.246 1434.79 877.344 C 1436.4 873.441 1440.01 870.731 1444.21 870.278 z" fill="rgb(220,163,21)" transform="translate(0,0)"></path>
<path d="M 1136.71 2009.52 C 1142.79 2008.74 1148.39 2012.89 1149.42 2018.93 C 1150.44 2024.96 1146.51 2030.73 1140.52 2031.99 C 1136.43 2032.85 1132.2 2031.4 1129.49 2028.22 C 1126.78 2025.03 1126.03 2020.62 1127.54 2016.72 C 1129.05 2012.82 1132.57 2010.06 1136.71 2009.52 z" fill="rgb(220,163,21)" transform="translate(0,0)"></path>
<path d="M 1076.48 743.378 C 1080.3 741.914 1084.6 742.611 1087.76 745.202 C 1090.91 747.793 1092.44 751.88 1091.74 755.905 C 1091.05 759.929 1088.25 763.271 1084.4 764.656 C 1078.55 766.766 1072.09 763.769 1069.92 757.936 C 1067.74 752.103 1070.67 745.61 1076.48 743.378 z" fill="rgb(220,163,21)" transform="translate(0,0)"></path>
<path d="M 804.549 203.313 C 810.163 200.524 816.975 202.838 819.729 208.47 C 822.483 214.101 820.127 220.898 814.479 223.618 C 808.879 226.314 802.154 223.983 799.424 218.4 C 796.693 212.817 798.983 206.077 804.549 203.313 z" fill="rgb(220,163,21)" transform="translate(0,0)"></path>
<path d="M 330.788 1404.58 C 334.308 1402.61 338.616 1402.68 342.066 1404.77 C 345.516 1406.86 347.576 1410.65 347.459 1414.68 C 347.342 1418.71 345.065 1422.37 341.499 1424.26 C 336.077 1427.12 329.356 1425.1 326.423 1419.71 C 323.49 1414.32 325.436 1407.58 330.788 1404.58 z" fill="rgb(220,163,21)" transform="translate(0,0)"></path>
<path d="M 1269.68 779.602 C 1273.31 778.155 1277.44 778.775 1280.48 781.224 C 1283.53 783.673 1285.03 787.573 1284.39 791.431 C 1283.76 795.289 1281.1 798.509 1277.43 799.858 C 1271.86 801.907 1265.68 799.1 1263.56 793.558 C 1261.44 788.016 1264.16 781.798 1269.68 779.602 z" fill="rgb(220,163,21)" transform="translate(0,0)"></path>
<path d="M 1104.38 1849.58 C 1109.9 1847.78 1115.85 1850.72 1117.77 1856.2 C 1119.68 1861.68 1116.87 1867.69 1111.44 1869.72 C 1107.82 1871.08 1103.74 1870.37 1100.8 1867.87 C 1097.85 1865.37 1096.48 1861.47 1097.23 1857.67 C 1097.97 1853.88 1100.71 1850.78 1104.38 1849.58 z" fill="rgb(220,163,21)" transform="translate(0,0)"></path>
<path d="M 752.436 1184.2 C 757.986 1183.2 763.353 1186.71 764.65 1192.2 C 765.948 1197.69 762.722 1203.23 757.309 1204.82 C 753.543 1205.92 749.476 1204.86 746.735 1202.05 C 743.994 1199.24 743.027 1195.15 744.221 1191.41 C 745.415 1187.67 748.575 1184.9 752.436 1184.2 z" fill="rgb(220,163,21)" transform="translate(0,0)"></path>
<path d="M 1075.62 409.095 C 1081.9 408.259 1086.36 409.011 1089.96 414.87 C 1087.6 416.575 1079.26 414.865 1075.58 415.79 C 1071.11 416.913 1066.51 418.792 1062.24 420.43 C 1057.13 422.436 1052.28 424.017 1047.09 425.725 L 1048.63 424.453 C 1058.66 416.1 1063.3 414.333 1075.62 409.095 z" fill="rgb(220,163,21)" transform="translate(0,0)"></path>
<metadata><recraft-signature>{"signed_by": "recraft", "signature_b64": "u7OeihLXeqigQcnpabGB9PDZrxib8KDRzN86MNI23xG8YTCK1uJDkdorOoZa4S4efpZNIfb5GllZ7Y4g6zp7Ag==", "signing_algo": "Ed25519", "generation_timestamp": 1772546467, "identifier": "0b78c11b-aebe-4d6d-a719-1019f57723b4"}</recraft-signature></metadata></svg>