<svg xmlns="http://www.w3.org/2000/svg" height="1024" preserveAspectRatio="none" style="display: block;" version="1.1" viewBox="0 0 2048 2048" width="1024">
<path d="M 0 0 L 2048 0 L 2048 2048 L 0 2048 L 0 0 z" fill="rgb(255,255,255)" transform="translate(0,0)"></path>
<path d="M 996.014 846.205 C 995.633 829.897 997.718 799.488 998.347 782.344 C 999.875 739.235 1001.75 696.139 1003.96 653.06 C 1005.54 626.98 1007.14 601.047 1007.8 574.927 C 1008.52 546.19 990.45 544.314 972.228 528.698 C 962.915 520.563 955.292 510.677 949.793 499.601 C 937.923 475.477 939.435 449.667 942.42 422.293 C 953.102 324.333 968.375 226.011 984.268 128.762 C 984.657 126.378 986.316 124.856 988.378 123.959 C 990.263 125.935 990.622 127.616 990.554 130.757 C 990.066 153.319 989.743 176.357 989.294 198.874 L 985.952 342.389 C 985.637 353.758 980.487 406.329 990.625 415.538 C 993.612 418.252 1008.52 418.032 1008.97 410.751 C 1014.22 325.068 1015.42 238.791 1020.68 152.972 C 1021.02 147.472 1020.4 128.98 1022.19 125.789 C 1024.99 124.861 1023.62 124.905 1026.42 125.556 C 1029.35 131.313 1029.72 164.285 1030.11 172.822 C 1031.87 209.794 1033.41 246.777 1034.73 283.768 C 1035.35 312.023 1036.38 340.268 1037.83 368.493 C 1038.37 380.865 1038.61 393.22 1039.34 405.592 C 1039.71 411.814 1041.71 417.32 1048.57 418.8 C 1057.31 420.683 1065.07 416.048 1065.35 406.542 C 1065.57 399.195 1065.12 391.689 1064.9 384.301 L 1063.72 341.091 C 1061.9 290.304 1060.5 239.503 1059.53 188.692 C 1059.31 176.777 1058.12 135.728 1059.72 126.282 C 1062.06 124.319 1060.72 124.823 1063.95 124.938 C 1069.41 132.858 1099.49 362.723 1103.06 391.35 C 1105.08 407.626 1107.98 441.138 1108.35 459.606 C 1108.92 488.94 1099.32 508.877 1077.32 528.523 C 1070.24 534.841 1060.97 539.579 1054.21 546.669 C 1047.17 553.999 1042.68 563.405 1041.41 573.491 C 1039.76 587.609 1044.49 632.19 1045.06 649.484 C 1047.13 711.975 1051.19 774.678 1051.99 837.252 C 1053.63 852.933 1055.32 902.96 1054.01 917.195 C 1053.23 919.077 1052.41 920.945 1051.56 922.797 C 1034.33 960.03 1004.21 946.476 993.689 912.991 C 993.915 893.133 994.196 865.792 996.014 846.205 z" fill="rgb(28,27,27)" transform="translate(0,0)"></path>
<path d="M 1076.78 144.109 C 1087.27 156.669 1098.64 173.298 1108.41 186.877 C 1132.53 220.438 1156.04 254.436 1178.92 288.853 C 1229.9 362.378 1280 436.504 1329.22 511.215 C 1303.2 551.525 1275.23 590.336 1248.53 629.998 L 1054.01 917.195 C 1055.32 902.96 1053.63 852.933 1051.99 837.252 L 1053.62 839.909 C 1059.32 834.215 1090.99 764.379 1096.58 752.868 L 1170.1 601.419 C 1182.53 575.681 1202.07 537.234 1211.88 511.316 C 1183.46 440.195 1158.85 367.106 1130.26 295.977 C 1127.47 289.028 1125.11 281.753 1122.53 274.716 C 1108.48 231.011 1089.47 188.123 1076.78 144.109 z" fill="rgb(203,169,105)" transform="translate(0,0)"></path>
<path d="M 718.784 509.914 C 725.199 498.942 735.886 483.732 743.144 472.618 C 762.733 442.183 782.81 412.065 803.366 382.274 C 856.723 301.715 911.809 222.314 968.584 144.126 C 963.156 157.845 957.952 174.597 953.056 188.757 C 944.482 213.609 935.597 238.354 926.404 262.984 L 873.01 403.944 C 859.356 439.317 845.02 474.556 831.916 510.2 C 841.737 534.598 856.251 563.549 867.615 587.444 L 932.851 723.635 C 947.835 755.262 963.11 786.752 978.674 818.098 C 981.128 823.091 991.724 846.008 994.38 848.894 L 996.014 846.205 C 994.196 865.792 993.915 893.133 993.689 912.991 C 971.184 879.249 944.198 844.035 920.643 809.932 C 852.285 710.651 784.995 610.639 718.784 509.914 z" fill="rgb(203,169,105)" transform="translate(0,0)"></path>
<path d="M 1328.97 1003.71 L 1382.88 1003.38 C 1396.21 1003.31 1409.48 1003.17 1422.81 1003.78 C 1467.61 1005.84 1518.27 1029.59 1529.03 1077.17 C 1534.12 1099.49 1530.2 1122.92 1518.1 1142.36 C 1502.11 1167.64 1478.16 1179.44 1449.93 1185.68 C 1463.01 1196.79 1482.94 1231.93 1492.66 1247.83 C 1504.98 1268.3 1517.55 1288.63 1530.36 1308.81 C 1519.96 1308.94 1509.56 1308.91 1499.16 1308.7 C 1481.44 1298.18 1446.28 1222.17 1428.71 1200.73 C 1420.84 1191.12 1415.15 1189.5 1403.27 1188.44 C 1385.57 1190.23 1373.47 1193.6 1362.18 1208.29 C 1352.97 1227.68 1365.88 1283.72 1356.43 1304.72 C 1354.33 1309.4 1329.46 1318.62 1329.23 1297.53 C 1328.87 1264.73 1328.96 1231.97 1328.97 1199.17 L 1328.97 1003.71 z" fill="rgb(255,255,255)" transform="translate(0,0)"></path>
<path d="M 1328.97 1003.71 L 1382.88 1003.38 C 1396.21 1003.31 1409.48 1003.17 1422.81 1003.78 C 1467.61 1005.84 1518.27 1029.59 1529.03 1077.17 C 1534.12 1099.49 1530.2 1122.92 1518.1 1142.36 C 1502.11 1167.64 1478.16 1179.44 1449.93 1185.68 C 1463.01 1196.79 1482.94 1231.93 1492.66 1247.83 C 1504.98 1268.3 1517.55 1288.63 1530.36 1308.81 C 1519.96 1308.94 1509.56 1308.91 1499.16 1308.7 C 1481.44 1298.18 1446.28 1222.17 1428.71 1200.73 C 1420.84 1191.12 1415.15 1189.5 1403.27 1188.44 C 1406.34 1186.05 1409.02 1189.31 1409.88 1186.16 C 1435.16 1185.71 1453.86 1181.43 1472.03 1162.55 C 1506.92 1126.31 1505.86 1063.08 1468.27 1029.09 C 1437.55 1001.31 1398.21 1006.48 1359.82 1006.77 L 1359.71 1148.1 C 1359.71 1157.31 1359.01 1200.13 1360.26 1206.76 L 1362.18 1208.29 C 1352.97 1227.68 1365.88 1283.72 1356.43 1304.72 C 1354.33 1309.4 1329.46 1318.62 1329.23 1297.53 C 1328.87 1264.73 1328.96 1231.97 1328.97 1199.17 L 1328.97 1003.71 z" fill="rgb(28,27,27)" transform="translate(0,0)"></path>
<path d="M 1360.26 1206.76 C 1371.62 1190.92 1391 1184.95 1409.88 1186.16 C 1409.02 1189.31 1406.34 1186.05 1403.27 1188.44 C 1385.57 1190.23 1373.47 1193.6 1362.18 1208.29 L 1360.26 1206.76 z" fill="rgb(24,21,22)" transform="translate(0,0)"></path>
<path d="M 892.718 1003.8 C 903.217 1003.71 913.716 1003.83 924.21 1004.15 C 935.096 1003.73 963.103 1003.42 973.659 1004.13 C 1009.37 1003.63 1042.92 1011.92 1069.33 1036.95 C 1102.22 1068.12 1100.48 1124.89 1068.53 1156 C 1046.96 1177 1013.91 1185.98 984.501 1187.72 C 966.444 1188.75 951.982 1186.81 934.964 1193.65 C 928.981 1197.26 929.293 1196.96 924.372 1201.97 C 920.058 1221.23 928.015 1295.53 919.863 1305.76 C 917.163 1309.15 912.008 1310.9 907.803 1310.93 C 903.704 1310.95 898.905 1309.33 896.243 1306.08 C 893.874 1303.18 893.229 1299.36 892.922 1295.75 C 892.022 1285.15 892.666 1274 892.624 1263.34 L 892.48 1197.81 L 892.718 1003.8 z" fill="rgb(255,255,255)" transform="translate(0,0)"></path>
<path d="M 892.718 1003.8 C 903.217 1003.71 913.716 1003.83 924.21 1004.15 C 935.096 1003.73 963.103 1003.42 973.659 1004.13 C 1009.37 1003.63 1042.92 1011.92 1069.33 1036.95 C 1102.22 1068.12 1100.48 1124.89 1068.53 1156 C 1046.96 1177 1013.91 1185.98 984.501 1187.72 C 966.444 1188.75 951.982 1186.81 934.964 1193.65 L 931.595 1192.65 C 951.491 1183.6 963.467 1186.68 984.623 1184.49 C 1016.95 1181.14 1042.05 1163.49 1053.47 1132.68 C 1062.98 1107.71 1061.92 1079.95 1050.52 1055.78 C 1025.23 1002.1 972.933 1006.59 923.146 1006.94 C 922.95 1071.15 922.464 1136.22 923.188 1200.36 C 923.582 1200.9 923.977 1201.43 924.372 1201.97 C 920.058 1221.23 928.015 1295.53 919.863 1305.76 C 917.163 1309.15 912.008 1310.9 907.803 1310.93 C 903.704 1310.95 898.905 1309.33 896.243 1306.08 C 893.874 1303.18 893.229 1299.36 892.922 1295.75 C 892.022 1285.15 892.666 1274 892.624 1263.34 L 892.48 1197.81 L 892.718 1003.8 z" fill="rgb(28,27,27)" transform="translate(0,0)"></path>
<path d="M 924.21 1004.15 C 935.096 1003.73 963.103 1003.42 973.659 1004.13 C 973.613 1004.68 973.649 1005.54 973.318 1005.93 C 965.856 1005.82 928.107 1006.49 924.21 1004.15 z" fill="rgb(10,12,10)" transform="translate(0,0)"></path>
<path d="M 931.595 1192.65 L 934.964 1193.65 C 928.981 1197.26 929.293 1196.96 924.372 1201.97 C 923.977 1201.43 923.582 1200.9 923.188 1200.36 C 926.718 1196.8 927.612 1195.56 931.595 1192.65 z" fill="rgb(48,46,46)" transform="translate(0,0)"></path>
<path d="M 1356.27 529.042 C 1392.95 529.239 1436.92 530.724 1472.81 529.665 L 1268.18 724.522 L 1175.99 811.578 C 1155.99 830.489 1136.13 848.076 1117.36 868.225 L 1116.05 866.505 C 1131.97 842.308 1149.19 819.104 1165.87 795.414 L 1303.55 602.375 C 1319.19 580.217 1342.82 550.553 1356.27 529.042 z" fill="rgb(203,169,105)" transform="translate(0,0)"></path>
<path d="M 1123.32 163.546 C 1129.7 167.289 1156.87 193.869 1162.94 199.758 C 1176.4 212.628 1189.95 225.397 1203.6 238.065 C 1243.67 275.579 1283.22 314.574 1323.22 351.738 C 1355.58 381.447 1387.62 411.511 1419.33 441.922 C 1436.62 458.332 1455.58 475.698 1472.06 492.75 C 1433.27 492.484 1394.48 492.49 1355.7 492.768 C 1343.74 478.85 1321.37 445.339 1309.31 428.782 C 1269.23 373.599 1229.8 317.947 1191.03 261.836 C 1172.12 234.4 1138.27 191.159 1123.32 163.546 z" fill="rgb(203,169,105)" transform="translate(0,0)"></path>
<path d="M 575.971 529.077 L 689.738 529.057 C 708.766 554.631 727.03 581.272 745.709 607.15 L 845.124 744.394 C 872.677 782.704 901.091 820.276 927.693 859.278 C 930.318 863.126 933.471 866.896 935.969 870.766 C 933.885 869.559 932.452 868.704 930.443 867.333 C 875.168 816.213 820.345 762.327 765.619 710.41 C 722.814 670.391 680.424 629.932 638.456 589.038 C 617.11 568.633 597.015 550.093 575.971 529.077 z" fill="rgb(28,27,27)" transform="translate(0,0)"></path>
<path d="M 445.718 1142.15 C 446.284 1123 443.405 1017.8 447.533 1009.08 C 448.829 1006.34 452.01 1004.17 454.805 1003.27 C 459.337 1001.8 467.206 1001.73 471.238 1004.59 C 474.428 1006.86 475.731 1011.08 476.311 1014.76 C 478.083 1026.03 476.939 1038.94 476.939 1050.38 L 476.893 1120.21 L 476.741 1239.5 C 476.622 1258.54 476.524 1277.57 475.979 1296.6 C 475.416 1316.23 446.805 1314.47 446.261 1298.5 C 445.7 1282.02 445.918 1264.87 445.905 1248.33 C 445.96 1213.89 445.839 1179.46 445.542 1145.02 C 424.085 1144.88 401.74 1144.21 380.326 1145.34 C 365.859 1146.1 348.966 1152.55 337.554 1161.42 C 302.406 1188.82 304.361 1230.72 305.392 1270.88 C 305.792 1286.48 310.575 1314.68 285.378 1309.8 C 276.342 1308.05 274.771 1300.13 274.806 1292.06 C 275.195 1202.31 274.566 1112.54 274.717 1022.79 C 274.724 1018.38 275.108 1013.21 276.456 1009.03 C 277.495 1005.99 280.9 1004.14 283.799 1003.18 C 288.861 1001.46 294.422 1002.03 299.036 1004.73 C 303.276 1007.25 304.38 1011.77 305.425 1016.23 C 309.435 1041.51 302.533 1187.7 307.419 1196.94 C 333.458 1131.83 388.001 1141.66 445.718 1142.15 z" fill="rgb(28,27,27)" transform="translate(0,0)"></path>
<path d="M 305.425 1016.23 C 309.435 1041.51 302.533 1187.7 307.419 1196.94 C 306.918 1199.27 307.069 1199.24 305.643 1201.1 C 304.434 1195.91 305.06 1144.88 305.058 1136.06 L 305.021 1059.83 C 305.013 1046.64 304.539 1029.05 305.425 1016.23 z" fill="rgb(194,196,202)" transform="translate(0,0)"></path>
<path d="M 575.758 492.182 C 600.187 467.358 629.502 441.213 654.804 417.158 L 836.504 245.012 C 863.195 219.663 890.842 194.326 916.949 168.476 L 919.218 169.244 C 900.694 197.557 875.053 231.628 854.987 259.438 L 768.096 381.407 L 716.04 455.314 C 709.339 464.786 695.437 485.433 688.05 492.908 C 650.618 493.088 613.185 492.846 575.758 492.182 z" fill="rgb(28,27,27)" transform="translate(0,0)"></path>
<path d="M 1174.37 1008.81 L 1248.6 1188.85 L 1278.5 1259.12 C 1283.28 1270.54 1288.88 1282.3 1292.63 1294.08 C 1293.72 1297.51 1294.29 1299.89 1292.71 1303.29 C 1291.29 1306.35 1288.47 1308.23 1285.32 1309.19 C 1279.82 1310.86 1272.57 1310.28 1267.58 1307.36 C 1258.46 1302.01 1235.86 1238.53 1229.68 1224.82 C 1226.49 1217.75 1222.79 1211.47 1218.57 1204.99 C 1196.05 1182.78 1179.85 1184.18 1150.39 1184.54 C 1136.97 1184.72 1123.55 1184.76 1110.13 1184.63 C 1105.94 1196.74 1062.91 1307.09 1060.75 1309.18 C 1060.66 1304.06 1103.68 1195.64 1107.73 1185.02 L 1135.83 1109.19 C 1143.01 1090.26 1151.8 1070.94 1158.17 1052.15 C 1163.32 1037.61 1168.72 1023.16 1174.37 1008.81 z" fill="rgb(28,27,27)" transform="translate(0,0)"></path>
<path d="M 1158.17 1052.15 C 1159.76 1054.16 1160.5 1054.31 1160.69 1056.18 C 1179.61 1104.73 1201.64 1152.95 1219.49 1201.62 C 1219.64 1204.12 1219.97 1203.01 1218.57 1204.99 C 1196.05 1182.78 1179.85 1184.18 1150.39 1184.54 C 1136.97 1184.72 1123.55 1184.76 1110.13 1184.63 C 1105.94 1196.74 1062.91 1307.09 1060.75 1309.18 C 1060.66 1304.06 1103.68 1195.64 1107.73 1185.02 L 1135.83 1109.19 C 1143.01 1090.26 1151.8 1070.94 1158.17 1052.15 z" fill="rgb(255,255,255)" transform="translate(0,0)"></path>
<path d="M 1158.17 1052.15 C 1159.76 1054.16 1160.5 1054.31 1160.69 1056.18 C 1155.65 1059.35 1116.18 1168.49 1111.29 1182.02 C 1138.39 1181.97 1172.24 1178.98 1198.09 1186.9 C 1204.64 1188.9 1214.66 1199.91 1219.49 1201.62 C 1219.64 1204.12 1219.97 1203.01 1218.57 1204.99 C 1196.05 1182.78 1179.85 1184.18 1150.39 1184.54 C 1136.97 1184.72 1123.55 1184.76 1110.13 1184.63 C 1105.94 1196.74 1062.91 1307.09 1060.75 1309.18 C 1060.66 1304.06 1103.68 1195.64 1107.73 1185.02 L 1135.83 1109.19 C 1143.01 1090.26 1151.8 1070.94 1158.17 1052.15 z" fill="rgb(48,46,46)" transform="translate(0,0)"></path>
<path d="M 190.765 1003.47 C 200.426 1003.19 211.264 1003.36 221.009 1003.33 L 221.101 1027.24 C 191.193 1011.73 175.147 1006.9 141.411 1006.9 C 140.461 1031.38 140.951 1058.84 140.947 1083.56 L 141.028 1217.1 C 141.048 1243.49 141.331 1269.72 140.656 1296.23 C 142.194 1310.24 120.858 1314.76 114.044 1306.27 C 107.728 1298.4 110.003 1271.56 110.11 1261.5 L 110.384 1006.98 C 76.0284 1006.52 59.7892 1012.51 28.9991 1027.33 L 28.9706 1003.8 C 82.9021 1004.17 136.836 1004.06 190.765 1003.47 z" fill="rgb(28,27,27)" transform="translate(0,0)"></path>
<path d="M 523.053 1003.94 L 553.528 1003.93 C 553.989 1004.68 553.887 1005.24 553.944 1006.22 C 553.229 1010.12 553.928 1026.07 553.99 1031.08 C 554.238 1051.25 554.007 1073.8 554.389 1093.71 C 554.542 1101.74 553.204 1143.69 555.15 1147.47 C 566.439 1146.45 655.675 1146.35 660.098 1148.49 C 650.561 1150.67 636.822 1150.03 626.763 1149.82 C 602.98 1150.37 578.044 1150.04 554.159 1150.02 L 554.186 1249.57 C 554.199 1263.17 554.812 1295.34 552.485 1307.04 L 638.577 1307.3 C 670.994 1306.49 681.641 1299.66 709.109 1283.81 C 709.364 1296.36 712.439 1310.21 695.81 1309.93 C 649.075 1309.14 599.973 1311.78 553.415 1309.84 C 542.083 1310.26 523.877 1313.66 523.365 1298.18 C 522.973 1286.34 522.933 1274.8 522.937 1262.96 L 522.995 1200.14 L 523.053 1003.94 z" fill="rgb(28,27,27)" transform="translate(0,0)"></path>
<path d="M 638.577 1307.3 C 670.994 1306.49 681.641 1299.66 709.109 1283.81 C 709.364 1296.36 712.439 1310.21 695.81 1309.93 C 649.075 1309.14 599.973 1311.78 553.415 1309.84 L 553.462 1309.05 C 559.796 1305.93 623.722 1310.64 638.577 1307.3 z" fill="rgb(24,21,22)" transform="translate(0,0)"></path>
<path d="M 555.15 1147.47 C 566.439 1146.45 655.675 1146.35 660.098 1148.49 C 650.561 1150.67 636.822 1150.03 626.763 1149.82 C 619.594 1146.35 564.372 1151.81 555.15 1147.47 z" fill="rgb(10,12,10)" transform="translate(0,0)"></path>
<path d="M 1925.16 1173.85 C 1935.72 1149.96 1956.42 1115 1969.69 1091.08 L 1998.21 1039.85 C 2001.8 1033.29 2013.34 1008.61 2018.61 1005.31 C 2015.23 1013.99 2007.09 1028.04 2002.41 1036.53 C 1992.2 1054.73 1982.18 1073.02 1972.34 1091.42 C 1961.81 1110.78 1935.17 1155.39 1928.47 1174.32 C 1924 1206.05 1927.47 1240.28 1926.33 1272.38 C 1926.03 1280.75 1928.59 1304.96 1920.13 1308.02 C 1891.3 1318.47 1895.76 1289.4 1896.01 1271.36 C 1896.33 1252.01 1896.42 1232.66 1896.27 1213.31 C 1896.26 1208.88 1896.72 1188.2 1895.72 1186.04 C 1867.3 1124.66 1828.82 1065.31 1800.58 1003.81 C 1809.93 1003.65 1832.3 1001.08 1836.98 1010.02 C 1865.7 1064.89 1896.66 1118.91 1925.16 1173.85 z" fill="rgb(28,27,27)" transform="translate(0,0)"></path>
<path d="M 1566.2 1003.27 L 1639.09 1003.79 C 1651.59 1003.81 1666.71 1003.21 1678.96 1004.05 C 1682.25 1005.97 1684.82 1005.64 1688.62 1006.73 C 1687.86 1006.73 1679.6 1006.84 1679.54 1007.57 C 1678.75 1016.94 1679.03 1026.8 1679.05 1036.21 L 1679.06 1217.68 C 1679.01 1243 1678.92 1268.65 1679.33 1293.99 C 1679.46 1302.64 1674.34 1310.63 1664.87 1310.82 C 1646.37 1311.19 1648.32 1290.96 1648.46 1278.03 C 1648.78 1254.26 1648.57 1230.6 1648.57 1206.9 L 1648.85 1007.09 C 1614.87 1006.75 1596.42 1012.41 1566.51 1028.14 L 1566.2 1003.27 z" fill="rgb(28,27,27)" transform="translate(0,0)"></path>
<path d="M 467.911 1372.47 C 482.801 1372.47 497.346 1371.05 512.212 1373.76 C 527.32 1376.52 537.954 1391.45 533.047 1406.52 C 527.364 1423.98 503.153 1423.8 488.383 1431.92 C 486.245 1434.14 483.909 1438.08 482.155 1440.79 C 481.248 1448.75 481.894 1468.16 481.997 1477 L 467.7 1477.04 L 467.35 1405.42 C 467.323 1399.04 466.86 1377.2 467.911 1372.47 z" fill="rgb(28,27,27)" transform="translate(0,0)"></path>
<path d="M 482.509 1374.95 C 494.582 1375.01 506.706 1372.94 514.645 1384.31 C 519.002 1390.45 520.567 1398.15 518.956 1405.5 C 517.447 1412.7 511.686 1417.12 505.959 1420.93 C 492.649 1427.4 491.596 1425.17 481.829 1435.48 C 482.045 1419.02 481.076 1390 482.509 1374.95 z" fill="rgb(255,255,255)" transform="translate(0,0)"></path>
<path d="M 1463.98 1371.3 C 1479.74 1370.33 1487.38 1373.29 1495.1 1386.9 C 1484.29 1377.96 1471.75 1368.41 1456.52 1378.22 C 1453.18 1380.38 1450.08 1388.69 1450.06 1392.58 C 1449.96 1415.57 1482.77 1416.22 1494.03 1431.67 C 1499.19 1437.93 1500.66 1443.76 1499.81 1451.86 C 1497.33 1475.57 1474.69 1479.31 1455.09 1477.07 C 1454.34 1476.92 1453.6 1476.76 1452.86 1476.59 C 1446.77 1475.15 1430.83 1466.89 1433.69 1459.67 L 1435.32 1459.42 C 1437.99 1463.01 1438.14 1463.89 1441.76 1466.98 C 1458.55 1481.28 1490.36 1476.11 1484.86 1449.02 C 1480.9 1434.42 1462.82 1429.41 1451.54 1422.75 C 1422.83 1405.8 1433.08 1376.44 1463.98 1371.3 z" fill="rgb(28,27,27)" transform="translate(0,0)"></path>
<path d="M 805.026 1371.37 C 813.638 1370.94 823.804 1371.85 831.593 1375.61 C 835.178 1377.34 845.175 1383.74 846.638 1387.67 C 840.083 1386.76 830.412 1377.97 824.319 1376.36 C 753.087 1357.5 754.249 1497.1 827.81 1472.19 C 842.283 1465.44 839.491 1462.75 848.624 1456.63 L 850.188 1457.13 L 850.684 1459.7 C 846.794 1467.95 825.617 1476.77 816.621 1477.97 C 765.97 1484.72 736.622 1430.13 766.439 1390.46 C 775.652 1378.2 789.972 1372.91 805.026 1371.37 z" fill="rgb(28,27,27)" transform="translate(0,0)"></path>
<path d="M 349.639 1374.16 C 339.755 1376.97 332.986 1385.49 334.621 1395.55 C 338.545 1419.69 384.619 1418.32 385.434 1446.45 C 386.074 1468.54 367.515 1479.13 347.503 1477.84 C 339.109 1477.3 318.088 1470.36 318.704 1460.55 L 320.065 1459.87 C 328.848 1467.76 338.415 1477.22 351.272 1475.24 C 363.188 1473.22 374.688 1463.77 370.592 1450 C 362.433 1422.58 300.313 1423.22 325.782 1383.18 C 330.048 1376.48 338.53 1373.02 346.188 1372.11 L 349.639 1374.16 z" fill="rgb(28,27,27)" transform="translate(0,0)"></path>
<path d="M 1605.68 1383.65 C 1605.56 1381.73 1606.02 1377.23 1604.84 1375.59 C 1603.35 1373.52 1581.39 1376.1 1576.99 1374.87 C 1576.6 1374.75 1575.99 1374.52 1575.89 1374.05 C 1575.77 1373.48 1575.99 1373.08 1576.39 1372.7 C 1577.56 1371.62 1582.05 1372.23 1583.5 1372.21 C 1591.22 1372.15 1647.3 1371.32 1650.09 1372.81 C 1650.41 1372.98 1650.75 1373.26 1650.74 1373.66 C 1650.73 1373.99 1650.56 1374.31 1650.32 1374.53 C 1649.61 1375.18 1648.53 1375.29 1647.62 1375.24 C 1647.21 1375.21 1646.81 1375.17 1646.41 1375.14 C 1637.77 1375.97 1628.49 1375.78 1619.76 1375.8 L 1619.61 1477.01 L 1605.51 1476.87 L 1605.29 1414.19 C 1605.28 1408.41 1604.95 1388.84 1605.68 1383.65 z" fill="rgb(28,27,27)" transform="translate(0,0)"></path>
<path d="M 1605.68 1383.65 C 1605.56 1381.73 1606.02 1377.23 1604.84 1375.59 C 1603.35 1373.52 1581.39 1376.1 1576.99 1374.87 C 1576.6 1374.75 1575.99 1374.52 1575.89 1374.05 C 1575.77 1373.48 1575.99 1373.08 1576.39 1372.7 C 1577.56 1371.62 1582.05 1372.23 1583.5 1372.21 C 1591.22 1372.15 1647.3 1371.32 1650.09 1372.81 C 1650.41 1372.98 1650.75 1373.26 1650.74 1373.66 C 1650.73 1373.99 1650.56 1374.31 1650.32 1374.53 C 1649.61 1375.18 1648.53 1375.29 1647.62 1375.24 C 1647.21 1375.21 1646.81 1375.17 1646.41 1375.14 C 1637.18 1374.2 1625.93 1375.74 1618.33 1373.39 C 1616.16 1372.72 1608.34 1372.88 1606.27 1373.25 C 1605.94 1373.98 1605.88 1381.66 1605.68 1383.65 z" fill="rgb(24,21,22)" transform="translate(0,0)"></path>
<path d="M 1072.7 1368.92 C 1078.2 1378.95 1084.19 1394.38 1088.8 1405.25 L 1118.88 1477.08 C 1114.24 1477.17 1107.81 1477.09 1103.36 1477.72 C 1100.03 1470.02 1086.99 1438.09 1083.44 1434.33 L 1082.54 1432.05 C 1080 1420.83 1071.68 1405.94 1068.2 1394.45 C 1067.79 1393.1 1067.45 1391.34 1065.87 1391.72 L 1063.28 1390.47 C 1066.36 1382.5 1068.99 1376.63 1072.7 1368.92 z" fill="rgb(28,27,27)" transform="translate(0,0)"></path>
<path d="M 614.962 1372.58 C 623.687 1372.45 632.597 1372.14 641.277 1372.85 C 639.651 1373.07 630.07 1373.51 629.733 1373.84 C 629.707 1374.08 629.682 1374.32 629.656 1374.57 C 629.157 1381.67 627.961 1426.12 630.376 1429.68 L 632.363 1430.76 C 626.849 1436.8 628.932 1464.27 629.044 1474.14 C 636.716 1474.11 673.451 1473.27 678.074 1475.03 L 678.163 1476.21 C 672.482 1477.89 624.098 1477.23 614.909 1477.47 L 614.962 1372.58 z" fill="rgb(28,27,27)" transform="translate(0,0)"></path>
<path d="M 1211.65 1372.5 C 1214.01 1375.52 1213.04 1462.71 1213.03 1474.01 C 1219.06 1474.01 1258.03 1473.51 1261.6 1475.2 C 1258.2 1477.38 1256.51 1476.93 1252.25 1476.92 L 1198.9 1477.1 L 1199.08 1372.74 L 1211.65 1372.5 z" fill="rgb(28,27,27)" transform="translate(0,0)"></path>
<path d="M 1338.26 1372.36 L 1352.99 1372.7 L 1353.07 1477.01 L 1338.68 1477.06 C 1338.17 1442.16 1338.03 1407.26 1338.26 1372.36 z" fill="rgb(28,27,27)" transform="translate(0,0)"></path>
<path d="M 932.918 1372.71 L 946.978 1372.81 L 947.093 1477.27 L 932.993 1477.05 L 932.918 1372.71 z" fill="rgb(28,27,27)" transform="translate(0,0)"></path>
<path d="M 1063.28 1390.47 L 1065.87 1391.72 C 1067.45 1391.34 1067.79 1393.1 1068.2 1394.45 C 1071.68 1405.94 1080 1420.83 1082.54 1432.05 L 1083.44 1434.33 C 1070.91 1434.37 1059.45 1434.41 1046.91 1433.9 C 1043.63 1442.67 1032.12 1470.99 1027.46 1477.67 L 1024.65 1481.63 C 1033.61 1453.08 1051.95 1418.92 1063.28 1390.47 z" fill="rgb(255,255,255)" transform="translate(0,0)"></path>
<path d="M 1063.28 1390.47 L 1065.87 1391.72 C 1060.96 1399.77 1053.23 1421.07 1048.18 1431.08 C 1047.3 1432.42 1047.38 1432.39 1046.91 1433.9 C 1043.63 1442.67 1032.12 1470.99 1027.46 1477.67 L 1024.65 1481.63 C 1033.61 1453.08 1051.95 1418.92 1063.28 1390.47 z" fill="rgb(24,21,22)" transform="translate(0,0)"></path>
<path d="M 1046.91 1433.9 C 1047.38 1432.39 1047.3 1432.42 1048.18 1431.08 C 1052.42 1432.78 1075.95 1431.93 1082.54 1432.05 L 1083.44 1434.33 C 1070.91 1434.37 1059.45 1434.41 1046.91 1433.9 z" fill="rgb(48,46,46)" transform="translate(0,0)"></path>
<path d="M 646.976 1003.94 C 666.859 1003.74 687.977 1003.73 707.866 1003.94 C 707.937 1012.31 707.93 1020.67 707.843 1029.04 C 684.925 1015.1 672.589 1010.78 645.838 1006.95 L 646.976 1003.94 z" fill="rgb(28,27,27)" transform="translate(0,0)"></path>
<path d="M 1698.13 1003.96 L 1759.95 1003.87 L 1759.84 1028.05 C 1737.53 1016.13 1718.98 1008.22 1693.2 1006.96 C 1695.26 1005.55 1695.89 1005.14 1698.13 1003.96 z" fill="rgb(24,21,22)" transform="translate(0,0)"></path>
<path d="M 553.528 1003.93 L 646.976 1003.94 L 645.838 1006.95 C 626.715 1006.73 607.591 1006.67 588.467 1006.77 C 578.802 1006.78 563.094 1007.33 553.944 1006.22 C 553.887 1005.24 553.989 1004.68 553.528 1003.93 z" fill="rgb(10,12,10)" transform="translate(0,0)"></path>
<path d="M 641.277 1372.85 C 645.548 1372.4 671.692 1372.36 677.512 1373.42 C 677.677 1373.45 677.701 1373.88 677.735 1374.04 C 676.518 1376.35 634.284 1375.48 629.656 1374.57 C 629.682 1374.32 629.707 1374.08 629.733 1373.84 C 630.07 1373.51 639.651 1373.07 641.277 1372.85 z" fill="rgb(24,21,22)" transform="translate(0,0)"></path>
<path d="M 346.188 1372.11 C 356.149 1370.41 365.224 1371.48 373.623 1377.61 C 380.138 1382.37 377.2 1385.09 371.414 1380.11 C 365.39 1374.92 357.423 1373.76 349.639 1374.16 L 346.188 1372.11 z" fill="rgb(24,21,22)" transform="translate(0,0)"></path>
<path d="M 630.376 1429.68 C 636.538 1425.15 651.662 1419.14 658.502 1421.24 C 665.958 1423.54 652.055 1424.11 651.998 1424.11 C 644.238 1424.4 638.849 1426.69 632.363 1430.76 L 630.376 1429.68 z" fill="rgb(24,21,22)" transform="translate(0,0)"></path>
<path d="M 1678.96 1004.05 C 1685.37 1003.85 1691.72 1003.97 1698.13 1003.96 C 1695.89 1005.14 1695.26 1005.55 1693.2 1006.96 C 1691.28 1006.96 1690.53 1006.96 1688.62 1006.73 C 1684.82 1005.64 1682.25 1005.97 1678.96 1004.05 z" fill="rgb(10,12,10)" transform="translate(0,0)"></path>
<path d="M 1116.05 866.505 L 1117.36 868.225 C 1116.62 868.986 1113.05 873.049 1111.85 873.324 C 1111.73 873.352 1111.55 873.234 1111.54 873.081 C 1111.45 871.726 1115.36 867.365 1116.05 866.505 z" fill="rgb(191,166,124)" transform="translate(0,0)"></path>
<path d="M 916.949 168.476 C 917.858 167.542 921.034 163.872 922.273 163.701 C 923.422 164.226 919.463 168.913 919.218 169.244 L 916.949 168.476 z" fill="rgb(48,46,46)" transform="translate(0,0)"></path>
<path d="M 930.443 867.333 C 932.452 868.704 933.885 869.559 935.969 870.766 C 936.595 871.133 937.067 871.361 937.563 871.886 L 937.788 872.892 L 937.975 872.802 C 936.758 875.027 931.242 868.187 930.443 867.333 z" fill="rgb(194,196,202)" transform="translate(0,0)"></path>
<metadata><recraft-signature>{"signed_by": "recraft", "signature_b64": "N5NUN0T0YO+SsS2Q3zotXFMZ4yfhenY5EIprt5RArMOJn2nCDlktSV6tKWix8WqAzCecB7SWoZ9bbj7wVI4RBg==", "signing_algo": "Ed25519", "generation_timestamp": 1772546484, "identifier": "3c049422-618b-4dc7-aae8-2e323d5f3a05"}</recraft-signature></metadata></svg>