<svg xmlns="http://www.w3.org/2000/svg" height="1024" preserveAspectRatio="none" style="display: block;" version="1.1" viewBox="0 0 2048 2048" width="1024">
<path d="M 0 0 L 2048 0 L 2048 2048 L 0 2048 L 0 0 z" fill="rgb(236,232,210)" transform="translate(0,0)"></path>
<path d="M 703.414 137.308 L 704.224 137.411 C 715.121 147.048 735.895 159.934 748.836 169.475 C 804.934 210.436 858.695 254.507 909.866 301.48 C 1009.11 393.601 1101.33 501.109 1083.55 646.819 C 1080.02 675.781 1071.59 702.406 1062.93 730.047 C 1059.54 740.87 1048.84 769.669 1048.14 778.995 C 1047.02 793.821 1049.97 823.605 1052.4 838.744 C 1060.65 890.149 1079.64 942.688 1104.47 988.328 C 1114.83 1007.37 1130.93 1028.16 1143.91 1045.44 L 1188.25 1104.07 C 1292.59 1240.41 1427.83 1405.26 1565.77 1506.78 C 1577.63 1498.11 1591.22 1491.32 1604.06 1484.2 C 1653.14 1456.95 1704.67 1432.47 1759.19 1418.26 C 1778.29 1413.29 1811.33 1405.18 1829.56 1416.62 C 1836.14 1420.75 1840.08 1427.41 1841.5 1434.95 C 1846.2 1460.06 1821.88 1500.27 1808.05 1520.04 C 1733.1 1627.18 1477.31 1817.36 1345.63 1840.15 C 1325.32 1843.66 1304.31 1843.46 1287.04 1830.7 C 1279.11 1824.83 1273.7 1816.6 1272.39 1806.74 C 1269.53 1785.36 1286.27 1761.61 1298.36 1745.5 L 696.203 1745.73 L 465.171 1745.52 C 440.052 1745.34 414.745 1745.2 389.621 1745.47 C 386.962 1745.5 387.657 1745.59 386.184 1744.01 C 386.173 1740.94 385.656 1737.91 387.388 1735.64 C 394.28 1734.43 410.167 1735.1 417.704 1735.17 L 462.056 1735.21 L 650.973 1735.58 L 1306.38 1735.24 C 1315.86 1721.61 1322.52 1716.09 1334.64 1704.87 C 1259.18 1705.82 1181.88 1704.95 1106.27 1704.94 L 658.265 1704.97 L 490.442 1705.06 C 458.326 1705.09 423.871 1704.57 391.924 1705.63 C 392.713 1702.14 393.541 1698.65 394.408 1695.18 L 1341.95 1694.81 C 1345.98 1691.56 1349.81 1687.49 1353.67 1683.99 C 1380.04 1660.13 1407.05 1634.03 1435.39 1612.58 C 1423.84 1564.08 1383.59 1488.78 1356.36 1446.48 C 1247.25 1448.71 1133.07 1446.97 1023.44 1446.95 L 422.5 1446.96 L 305.194 1446.79 C 292.458 1446.69 278.639 1447.61 266.035 1446.73 C 262.543 1446.48 262.876 1446.04 261.421 1443.92 C 261.198 1440.8 261.285 1441.02 262.947 1438.32 C 264.871 1436.99 265.124 1436.83 267.553 1436.86 C 306.124 1437.38 344.882 1437.23 383.449 1437.26 L 646.876 1437.44 L 1351.24 1437.21 C 1344.73 1426.37 1338.05 1415.62 1331.2 1404.98 C 1270.27 1406.14 1207.44 1405.37 1146.36 1405.5 L 736.273 1405.64 L 440.037 1406.13 C 390.432 1406.15 340.625 1405.98 291.009 1405.74 C 287.256 1405.72 285.924 1405.94 283.408 1404.05 C 283.345 1401.05 282.916 1398.89 284.446 1396.4 C 291.394 1395.06 306.646 1395.6 314.576 1395.61 L 368.132 1395.63 L 577.293 1395.72 L 1325.28 1395.84 C 1308.78 1368.73 1272.59 1317.19 1251.76 1293.55 C 1232.71 1287.22 1209.23 1276.36 1189.85 1268.91 L 1111.36 1239.18 C 1072.13 1223.89 1034.25 1208.46 994.427 1194.66 C 969.327 1222.35 933.576 1241.35 895.27 1230.67 C 876.716 1225.49 857.753 1216.43 839.95 1208.79 C 805.598 1194.09 771.42 1178.98 737.425 1163.47 C 692.131 1143.17 646.392 1123.74 601.82 1101.8 C 599.611 1100.71 598.127 1099.5 596.892 1097.35 C 596.893 1094.65 597.018 1094.83 598.591 1092.58 C 603.557 1090.03 615.092 1094.17 621.659 1095.58 C 641.519 1099.84 667.657 1104.61 686.026 1112.68 C 702.916 1120.1 721.612 1130.28 738.489 1138.71 C 772.663 1155.51 807.203 1171.56 842.082 1186.84 C 859.609 1194.51 877.404 1203.15 895.721 1208.56 C 934.779 1220.09 957.473 1203.32 982.161 1176.39 C 1000.24 1184.12 1033.69 1195.93 1053.02 1198.7 C 1059.75 1199.67 1082.62 1199.01 1090.76 1198.86 C 1062.14 1183.73 1019.09 1169.46 988.122 1156.69 C 987.799 1123.12 975.651 1090.92 943.08 1077 C 890.153 1054.38 821.05 1048.37 764.224 1037.48 C 726.353 1030.22 693.74 1026.91 657.884 1011.37 C 648.061 1007.11 637.284 1004.74 628.011 999.817 C 626.136 996.73 626.48 998.398 627.309 994.58 C 635.935 986.84 750.671 1010.99 770.633 1014.92 C 804.433 1021.38 838.143 1028.3 871.753 1035.69 C 944.026 1051.45 1003.73 1065.12 1009.66 1151.9 C 1026.65 1159.42 1047.77 1166.12 1065.5 1172.65 C 1109.06 1189.16 1152.99 1204.71 1197.24 1219.29 C 1175.26 1189.3 1151.56 1160.24 1128.43 1131.12 C 1064.45 1050.6 1020.37 1000.03 925.486 955.717 C 899.685 943.667 871.058 932.154 842.259 931.453 C 824.271 931.016 806.214 932.117 788.211 931.902 C 736.01 931.278 684.128 921.99 637.281 898.16 C 615.736 887.2 595.405 874.03 577.481 857.74 C 471.091 761.049 380.036 547.042 335.223 409.204 C 342.762 395.869 350.756 382.797 359.192 370.01 C 435.709 255.39 568.121 164.354 703.414 137.308 z" fill="rgb(87,36,34)" transform="translate(0,0)"></path>
<path d="M 710.372 166.597 C 802.973 234.636 889.017 301.35 966.021 388.25 C 1039.74 471.441 1082.94 557.316 1057.83 672.001 C 1052.4 697.772 1044.02 721.177 1036.2 746.001 C 1027.5 773.648 1024.48 790.366 1009.62 816.412 C 985.149 858.77 944.792 889.618 897.497 902.121 C 864.522 910.943 842.691 910.174 810.268 911.249 C 691.203 915.198 599.936 874.438 532.117 774.014 C 481.091 698.457 439.386 619.808 404.639 534.953 C 390.818 501.202 375.66 466.902 366.064 431.436 C 370.695 430.107 390.17 424.827 393.517 425.897 C 396.465 422.862 411.252 419.842 416.278 418.132 C 547.027 373.631 645.014 286.856 710.372 166.597 z" fill="rgb(87,36,34)" transform="translate(0,0)"></path>
<path d="M 710.372 166.597 C 802.973 234.636 889.017 301.35 966.021 388.25 C 1039.74 471.441 1082.94 557.316 1057.83 672.001 C 1052.4 697.772 1044.02 721.177 1036.2 746.001 C 1027.5 773.648 1024.48 790.366 1009.62 816.412 C 985.149 858.77 944.792 889.618 897.497 902.121 C 864.522 910.943 842.691 910.174 810.268 911.249 C 691.203 915.198 599.936 874.438 532.117 774.014 C 481.091 698.457 439.386 619.808 404.639 534.953 C 390.818 501.202 375.66 466.902 366.064 431.436 C 370.695 430.107 390.17 424.827 393.517 425.897 C 396.892 444.483 413.155 486.461 420.736 505.609 C 463.481 613.564 521.764 742.431 605.904 824.556 C 669.866 883.839 757.58 893.529 840.265 889.287 C 907.996 885.812 975.408 853.652 999.473 786.93 C 1013.93 746.847 1033.79 687.606 1039.85 645.707 C 1042.18 629.443 1042.77 612.977 1041.61 596.587 C 1036.79 523.204 996.554 456.154 947.727 403.597 C 935.027 389.927 921.917 374.359 907.881 362.073 C 902.84 383.49 893.587 403.081 878.658 419.314 C 909.909 458.52 928.145 477.418 950.439 523.472 C 988.981 604.309 993.841 697.143 963.95 781.562 C 959.218 795.117 953.447 808.052 947.473 821.086 C 948.311 815.604 949.084 810.113 949.79 804.613 C 966.493 673.157 923.615 555.518 843.579 452.184 C 787.884 505.231 705.773 559.355 635.099 589.848 C 620.788 596.022 604.215 601.723 589.408 607.231 C 611.052 585.089 630.789 562.83 647.946 537.315 C 679.534 490.089 694.284 436.043 745.389 403.784 C 748.091 402.079 769.114 386.255 771.749 388.766 C 788.87 405.085 804.468 429.427 825.895 440.406 C 809.77 416.835 794.396 394.712 779.6 370.251 C 688.059 412.451 543.721 502.018 503.244 597.825 C 481.552 569.475 464.536 546.66 445.759 515.832 C 428.713 487.845 411.426 452.678 393.517 425.897 C 396.465 422.862 411.252 419.842 416.278 418.132 C 547.027 373.631 645.014 286.856 710.372 166.597 z" fill="rgb(236,232,210)" transform="translate(0,0)"></path>
<path d="M 866.426 344.414 C 916.106 342.719 889.194 384.802 868.689 403.381 C 864.807 399.803 859.305 395.866 857.679 391.352 C 858.215 388.191 858.273 389.08 861.748 386.447 C 882.409 356.31 841.319 360.116 824.247 363.086 C 821.226 360.372 819.032 357.632 816.419 354.565 C 834.629 348.517 847.302 345.823 866.426 344.414 z" fill="rgb(87,36,34)" transform="translate(0,0)"></path>
<path d="M 573.664 656.883 C 578.954 660.628 592.31 674.653 597.331 679.841 C 666.276 751.086 740.244 806.61 838.512 828.861 C 850.577 831.518 862.758 833.622 875.016 835.167 C 882.366 836.085 892.49 836.586 899.284 838.519 L 898.695 839.514 C 835.79 846.585 792.891 843.254 732.567 819.259 C 662.077 791.221 602.39 726.867 573.664 656.883 z" fill="rgb(236,232,210)" transform="translate(0,0)"></path>
<path d="M 1028.36 826.649 C 1030.59 833.768 1032.77 851.143 1034.73 859.618 C 1045.69 906.813 1064.19 959.059 1088.49 1001.1 C 1109.64 1037.68 1141.82 1076.43 1167.95 1110.53 C 1255.7 1224.71 1346.2 1338.73 1451.91 1437.03 C 1490.03 1472.48 1542.44 1525.88 1594.29 1536.51 C 1600.44 1537.76 1606.67 1538.56 1612.94 1538.9 C 1621.4 1539.29 1638.49 1536.72 1643.96 1540.29 C 1645.68 1544.04 1646.1 1546.56 1644.63 1550.5 C 1634.65 1577.21 1560.02 1634.21 1534.59 1650.94 C 1523.88 1657.98 1512.82 1663.88 1501.29 1669.41 C 1499.76 1670.08 1498.22 1670.74 1496.69 1671.39 C 1487.39 1675.31 1460.49 1685.65 1449.91 1681.91 C 1448.16 1681.65 1446.34 1678.04 1447 1676.37 C 1463.89 1633.63 1458.03 1604.72 1439.33 1561.03 C 1379.42 1421.08 1285.1 1301.29 1193.29 1181.3 C 1173.53 1155.22 1153.36 1129.44 1132.8 1103.98 C 1062.83 1016.45 1011.54 968.6 905.83 925.248 C 934.237 922.06 967.953 921.524 989.622 900.976 C 1008.43 883.141 1020.11 850.926 1028.36 826.649 z" fill="rgb(236,232,210)" transform="translate(0,0)"></path>
<path d="M 1796.42 1429.38 C 1878.77 1417.4 1726.7 1565.25 1715.41 1575.54 C 1627.66 1655.51 1530.07 1724.5 1423.79 1777.7 C 1396.48 1791.37 1365.47 1804.89 1335.41 1810.99 C 1245.62 1826.41 1324.42 1744.45 1345.1 1721.68 C 1374.03 1691.28 1404.58 1662.45 1436.61 1635.34 C 1436.11 1641.99 1434.95 1648.18 1432.64 1654.42 C 1428.43 1665.81 1414.3 1685.91 1417.37 1697.92 C 1417.89 1699.99 1419.51 1701.34 1421.31 1702.33 C 1430.87 1707.56 1444.44 1704.82 1454.41 1701.9 C 1513.96 1684.44 1638.42 1589.42 1667.71 1534.23 C 1669.63 1530.62 1672.44 1525.9 1671.19 1521.74 C 1667.08 1518.32 1645.72 1520.45 1639.65 1520.89 C 1623.45 1522.05 1609.4 1521.83 1593.31 1519.32 C 1604.18 1511.13 1627.97 1497.74 1640.13 1491.22 C 1683.92 1467.74 1746.7 1435.2 1796.42 1429.38 z" fill="rgb(236,232,210)" transform="translate(0,0)"></path>
<path d="M 688.225 161.202 L 688.841 162.453 C 683.665 175.236 658.944 211.903 650.256 224.024 C 586.325 313.217 469.268 392.691 360.238 410.209 L 359.483 409.337 C 361.273 401.295 391.74 359.952 398.5 351.164 C 471.051 256.842 574.449 193.456 688.225 161.202 z" fill="rgb(236,232,210)" transform="translate(0,0)"></path>
<path d="M 1927 122.137 L 1929 122.165 C 1927.97 140.277 1928.9 169.873 1928.97 188.93 L 1929.68 317.842 L 1930.95 668.262 L 1934.99 1932.17 L 216.678 1931.97 L 216.491 1918.74 L 700.062 1919.99 L 1921.07 1920.01 C 1922.69 1906.21 1921.82 1871.82 1921.79 1856.99 L 1921.69 1737.91 L 1922.03 1334.54 L 1927 122.137 z" fill="rgb(87,36,34)" transform="translate(0,0)"></path>
<path d="M 356.189 1761.42 C 388.642 1759.22 418.992 1769.34 447.938 1783.33 C 473.819 1795.84 494.542 1808.24 505.771 1836.41 C 519.38 1871.58 500.962 1901.95 464.422 1908.57 C 435.426 1913.82 412.996 1883.39 425.772 1857.54 C 437.18 1834.45 482.092 1844.94 469.187 1872.56 C 466.015 1879.35 452.132 1884.37 445.201 1878.59 C 445.922 1875.36 446.596 1873.41 449.72 1872.26 C 453.093 1873.89 454.776 1875.13 458.49 1874.84 C 462.694 1872.53 466.604 1866.37 464.656 1862.29 C 453.174 1838.26 421.29 1855.22 431.951 1881.72 C 445.013 1914.19 488.354 1901.33 498.63 1874.3 C 510.097 1844.14 483.714 1810.6 456.623 1799.75 C 434.616 1791.41 401.805 1806.88 379.54 1808.64 C 357.512 1810.37 347.12 1802.1 325.525 1812.37 L 324.591 1812.83 C 340.087 1822.36 359.284 1819.92 374.65 1829.81 C 379.979 1833.23 400.489 1856.56 401.268 1860.75 C 392.688 1865.78 360.888 1856.51 351.458 1852.1 C 331.558 1842.78 338.614 1818.56 316.608 1815.61 L 315.485 1816.65 C 366.666 1869.53 302.972 1917.9 273.439 1894.63 C 267.544 1889.89 263.941 1882.87 263.528 1875.32 C 262.868 1864.81 271.953 1844.75 283.029 1844.18 C 282.45 1846.62 276.754 1854.13 274.951 1858.1 C 269.254 1866.16 273.446 1888.82 285.236 1890.1 C 334.257 1895.4 337.544 1825.68 292.161 1817.28 C 261.356 1811.58 228.638 1831.5 203.923 1848.69 C 231.428 1803.74 289.99 1788.71 334.979 1764.77 C 339.257 1762.49 350.9 1761.81 356.189 1761.42 z" fill="rgb(87,36,34)" transform="translate(0,0)"></path>
<path d="M 253.586 1812.03 C 265.397 1805.47 294.255 1787.53 307.104 1789.28 C 335.255 1793.1 360.991 1783.23 387.545 1782.91 C 391.382 1783.09 398.308 1782.65 400.89 1784.73 C 394.611 1785.35 389.486 1786.03 383.307 1786.92 C 366.324 1786.75 332.483 1809.88 319.166 1809.85 C 291.183 1809.79 283.482 1804.2 253.586 1812.03 z" fill="rgb(236,232,210)" transform="translate(0,0)"></path>
<path d="M 387.545 1782.91 C 394.12 1781.87 409.687 1780.98 415.793 1783.29 C 412.899 1784.1 404.041 1784.8 400.89 1784.73 C 398.308 1782.65 391.382 1783.09 387.545 1782.91 z" fill="rgb(243,222,208)" transform="translate(0,0)"></path>
<path d="M 452.421 1550.67 C 455.134 1557.36 450.211 1581.5 448.236 1588.96 C 444.186 1607.24 430.439 1650.57 411.742 1660.29 C 385.631 1673.87 388.379 1674.57 370.543 1698.06 C 363.345 1707.69 355.102 1716.49 345.964 1724.3 C 330.617 1737.27 314.298 1744.54 299.299 1756.28 C 273.928 1776.15 250.189 1800.41 225.004 1820.71 C 215.13 1828.67 202.719 1846.04 191.174 1847.62 L 190.072 1846.52 C 191.029 1842.67 195.189 1839.14 197.611 1836.02 C 215.3 1813.26 242.927 1801.46 263.265 1783.05 C 265.572 1752.17 259.169 1759.88 245.089 1736.64 C 239.33 1727.14 237.17 1700.92 237.209 1689.52 C 246.764 1693.47 266.846 1704.71 274.654 1711.36 C 280.916 1716.69 284.633 1724.41 284.888 1732.63 C 285.014 1735.76 285.383 1735.12 283.814 1736.73 L 281.822 1734.47 C 276.488 1727.25 274.713 1725.86 266.491 1722.29 C 268.471 1749.14 270.81 1753.39 266.151 1780.9 C 287.543 1762.07 306.489 1739.78 318.965 1713.92 C 310.612 1701.48 307.635 1690.68 308.678 1675.78 C 310.66 1647.43 329.723 1606.75 350.776 1587.96 C 346.948 1603.65 347.538 1619.73 349.409 1635.38 C 353.489 1669.5 349.743 1684.47 330.853 1712.42 C 322.393 1724.93 317.121 1733.51 307.134 1746.39 C 334.92 1724.31 364.735 1695.14 379.338 1662.13 C 381.103 1656.76 381.887 1650.48 382.926 1644.98 C 390.146 1606.75 425.556 1576.69 452.421 1550.67 z" fill="rgb(87,36,34)" transform="translate(0,0)"></path>
<path d="M 607.391 1057.67 C 617.975 1059.03 629.152 1062.09 639.731 1063.94 C 673.868 1069.89 706.274 1079.16 739.295 1089.65 C 787.286 1104.81 836.142 1117.19 883.62 1133.94 C 906.438 1141.99 897.352 1159.39 889.669 1175.24 C 886.658 1178.27 883.185 1181.47 878.536 1181.03 C 865.251 1179.81 852.363 1174.38 839.723 1170.54 C 763.668 1147.47 695.077 1108.31 623.8 1074.33 C 617.711 1071.43 610.401 1069.74 605.476 1064.79 C 604.822 1060.79 605.001 1062.08 607.391 1057.67 z" fill="rgb(87,36,34)" transform="translate(0,0)"></path>
<path d="M 673.121 1084 C 680.57 1085.32 697.074 1091.47 704.901 1094.19 C 723.724 1100.77 742.594 1107.22 761.509 1113.53 C 775.231 1118.06 873.086 1147.75 877.026 1151.16 C 877.808 1155.15 877.481 1154.06 875.834 1158.49 L 872.42 1160.51 C 852.679 1161.2 699.496 1096.57 673.121 1084 z" fill="rgb(236,232,210)" transform="translate(0,0)"></path>
<path d="M 615.159 1025.97 C 651.974 1023.04 870.135 1067.86 901.919 1083.64 C 906.087 1085.71 910.061 1088.09 911.445 1092.83 C 913.836 1101 909.749 1110.8 905.911 1117.94 C 903.452 1120.14 900.926 1122.47 897.578 1123.13 C 888.005 1125 733.983 1079.29 713.89 1072.41 C 690.226 1064.31 667.229 1055.12 644.103 1045.62 C 634.521 1041.68 623.841 1038.26 614.938 1033.01 C 613.589 1029.35 614.018 1030.48 615.159 1025.97 z" fill="rgb(87,36,34)" transform="translate(0,0)"></path>
<path d="M 688.165 1048.12 C 693.286 1048.62 699.322 1050 704.368 1051.29 C 752.598 1063.7 801.057 1074.84 849.524 1086.24 C 861.39 1089.03 877.288 1093.08 888.484 1097.55 C 890.41 1100.51 889.874 1098.8 889.077 1103.15 C 879.429 1108.69 707.927 1057 688.165 1048.12 z" fill="rgb(236,232,210)" transform="translate(0,0)"></path>
<path d="M 201.822 1738.28 C 211.984 1690.71 212.379 1641.45 199.45 1594.55 C 193.62 1569.82 185.374 1551.68 170.347 1531.7 C 151.763 1506.99 109.742 1507.39 109.714 1543.01 C 109.74 1550.69 112.974 1558.01 118.633 1563.2 C 127.3 1571.29 138.952 1572.86 148.013 1563.81 C 155.432 1556.4 148.114 1537.42 138.444 1539.1 C 133.512 1543.32 133.288 1547.84 132.078 1554.14 L 130.286 1554.89 C 120.452 1549.31 129.811 1531.95 140.775 1534.62 C 167.795 1541.18 161.003 1582.69 127.432 1575.24 C 118.855 1573.37 111.446 1568.01 106.981 1560.45 C 102.08 1552.27 101.012 1542.77 103.431 1533.6 C 105.852 1524.12 112.016 1516.04 120.512 1511.2 C 162.592 1487.72 201.278 1558.55 207.905 1589.97 C 208.686 1593.68 210.221 1598.87 211.904 1602.17 L 213.262 1601.9 L 215.539 1603.75 C 213.345 1618.44 217.04 1635.05 218.082 1650.08 C 218.466 1655.62 218.804 1666.68 219.536 1671.68 C 222.124 1672.79 221.192 1671.87 222.709 1674.08 C 215.658 1688.95 218.06 1706.26 215.462 1722.18 C 213.008 1737.22 197.969 1815.01 182.999 1814.93 C 180.286 1810.13 186.899 1798.43 188.401 1791.15 C 193.254 1767.65 198.272 1741.98 194.621 1718.08 C 183.133 1707.3 170.108 1700.17 153.907 1699.73 C 140.227 1699.25 126.954 1704.43 117.22 1714.05 C 99.077 1732.06 100.764 1763.74 132.149 1766.05 C 140.944 1766.7 149.935 1757.37 155.553 1750.96 C 151.711 1760.56 145.928 1773.1 134.35 1773.52 C 73.3143 1775.69 92.1399 1691.09 145.032 1690.96 C 166.76 1690.9 176.043 1695.14 192.196 1709.11 C 186.355 1671.58 158.982 1677.71 139.834 1649.32 C 126.309 1629.27 121.622 1604.08 117.001 1580.83 C 124.893 1588.51 131.853 1595.67 140.758 1602.27 C 148.427 1607.95 158.522 1613.59 165.652 1619.59 C 172.507 1625.32 177.882 1632.61 181.323 1640.86 C 187.542 1655.41 187.59 1668.9 190.944 1683.54 C 195.624 1703.97 200.157 1717.28 201.822 1738.28 z" fill="rgb(87,36,34)" transform="translate(0,0)"></path>
<path d="M 214.711 1562.14 C 207.441 1540.97 198.097 1521.84 190.549 1501.3 C 178.476 1468.43 173.568 1425.25 189.229 1392.82 C 196.446 1377.88 208.942 1364.23 225 1359.17 C 241.253 1353.98 260.362 1358.41 265.57 1376.54 C 267.944 1385.09 266.712 1394.24 262.161 1401.85 C 256.409 1411.56 245.724 1417.83 235.24 1410.92 C 228.733 1406.64 220.143 1393.23 226.403 1385.84 C 228.352 1383.58 232.191 1382.97 235.11 1382.8 L 236.267 1383.64 C 234.002 1385.96 229.317 1390.12 229.778 1392.94 C 233.805 1417.62 266.529 1408.17 262.289 1383.26 C 261.295 1377.14 257.891 1371.68 252.839 1368.09 C 234.527 1355.2 209.204 1371.55 199.359 1388.15 C 182.32 1416.88 185.972 1454.69 192.514 1485.99 C 197.64 1511.57 211.507 1537.87 215.821 1561.6 C 216.844 1563.85 216.212 1562.89 217.614 1564.55 C 219.534 1556.93 210.799 1538.91 214.817 1529.23 C 220.777 1514.88 237.359 1502.03 253.245 1506.69 C 259.981 1507.07 272.407 1506.93 271.164 1516.37 C 267.898 1520.75 264.077 1522.66 258.61 1523.37 C 254.778 1523.87 250.909 1524.03 247.048 1523.85 C 229.756 1545.58 266.361 1548.79 280.84 1533.76 C 285.12 1529.38 287.39 1523.42 287.109 1517.3 C 285.948 1485.84 250.102 1472.7 225.498 1488.55 C 219.082 1492.68 216.315 1496.08 211.421 1501.73 C 220.892 1478.54 247.324 1471.17 269.42 1480.19 C 280.204 1484.55 288.702 1493.19 292.897 1504.04 C 306.012 1539 261.681 1568.27 236.555 1541.22 C 225.32 1561.85 222.225 1568.75 218.249 1592.59 L 214.722 1590.84 C 216.877 1577.8 217.328 1574.96 214.711 1562.14 z" fill="rgb(87,36,34)" transform="translate(0,0)"></path>
<path d="M 253.245 1506.69 C 259.981 1507.07 272.407 1506.93 271.164 1516.37 C 267.898 1520.75 264.077 1522.66 258.61 1523.37 C 254.778 1523.87 250.909 1524.03 247.048 1523.85 L 249.1 1521.82 C 251.421 1516.96 253.244 1513.14 256.915 1509.2 L 255.469 1509.29 L 253.245 1506.69 z" fill="rgb(236,232,210)" transform="translate(0,0)"></path>
<path d="M 253.245 1506.69 C 259.981 1507.07 272.407 1506.93 271.164 1516.37 C 267.898 1520.75 264.077 1522.66 258.61 1523.37 C 254.778 1523.87 250.909 1524.03 247.048 1523.85 L 249.1 1521.82 C 255.034 1521.23 264.505 1520.92 268.332 1515.75 L 267.946 1513.74 C 264.853 1510.57 261.361 1510.3 256.915 1509.2 L 255.469 1509.29 L 253.245 1506.69 z" fill="rgb(91,27,19)" transform="translate(0,0)"></path>
<path d="M 962.375 1476.51 C 966.186 1476.42 969.998 1476.35 973.811 1476.32 C 988.549 1476.21 1012.33 1478.48 1007.67 1500.42 C 1006.09 1507.85 1001.19 1513.31 995.462 1518.05 C 1001.88 1527.59 1007.76 1538.45 1014.73 1547.74 C 1018.14 1552.29 1020.99 1548.74 1024.3 1553.42 L 1023.48 1556.13 C 1019.1 1557.42 1011.58 1556.91 1006.75 1556.86 C 1002.59 1551.26 998.608 1545.33 994.644 1539.58 C 990.521 1532.78 986.125 1521.7 977.315 1521.86 C 970.515 1526.43 973.671 1540.87 974.661 1548.07 C 974.699 1548.35 980.689 1550.76 982.294 1553.91 L 981.425 1555.62 C 978.304 1557.7 961.38 1556.4 956.549 1555.95 C 955.15 1553.99 955.535 1555.08 955.847 1552.47 C 958.026 1550.5 958.56 1549.99 960.386 1547.71 C 961.366 1541.47 961.164 1488.57 959.118 1484.46 C 955.55 1482.45 952.712 1482.06 953.789 1477.97 C 956.319 1476.18 959.126 1476.58 962.375 1476.51 z" fill="rgb(87,36,34)" transform="translate(0,0)"></path>
<path d="M 973.663 1484.15 C 991.984 1484.24 999.734 1492.6 990.907 1510.3 C 984.791 1514.34 980.956 1513.78 973.751 1513.74 L 973.663 1484.15 z" fill="rgb(236,232,210)" transform="translate(0,0)"></path>
<path d="M 682.036 1511.02 C 682.055 1505.96 682.776 1489.58 681.293 1484.23 C 681.035 1483.3 678.054 1483.74 676.192 1479.86 L 677.381 1476.7 C 680.624 1475.47 695.573 1475.85 699.236 1476.61 C 700.819 1479.51 700.817 1478.15 700.114 1480.77 C 694.868 1483.98 693.535 1486.93 694.554 1493.31 C 696.404 1504.89 692.514 1541.3 695.633 1550.01 C 698.154 1550.63 698.753 1550.5 700.738 1552.06 C 700.848 1555.79 701.454 1554.3 699.454 1556.87 L 696.25 1557.12 C 690.563 1557.11 678.244 1558.19 674.513 1555.47 C 675.107 1553.17 677.919 1551.53 680.103 1550.17 L 681.547 1549.28 C 682.794 1542.05 682.093 1528.34 681.943 1520.54 C 669.354 1519.54 651.302 1520.03 638.286 1520.03 C 638.159 1525.61 636.95 1544.41 639.645 1549.86 C 640.121 1550.82 642.854 1549.63 645.302 1553.39 L 644.56 1556.01 C 640.708 1558.29 624.905 1557.19 620.022 1556.65 L 619.573 1555.52 C 620.319 1554.08 621.056 1552.63 621.784 1551.18 C 623.196 1548.43 626.015 1543.26 625.801 1540.1 C 624.569 1521.87 627.464 1502.63 624.487 1484.72 C 624.296 1483.57 621.277 1482.95 620.184 1482.55 C 618.132 1479.82 618.774 1480.73 619.007 1476.38 C 624.839 1476.45 641.347 1475.82 645.162 1478.3 C 644.343 1480.81 640.955 1483.21 638.679 1485.28 C 637.546 1491.92 638.12 1503.89 638.226 1511.04 L 682.036 1511.02 z" fill="rgb(87,36,34)" transform="translate(0,0)"></path>
<path d="M 596.223 1577.44 C 607.964 1578.17 624.307 1576.06 635.32 1578.67 C 667.847 1586.35 655.37 1623.52 627.133 1625.73 C 623.935 1625.98 618.283 1625.75 615.586 1627.08 L 615.25 1630.75 C 615.328 1635.22 614.938 1645.49 616.579 1649.09 C 619.266 1650.14 621.296 1650.56 623.047 1652.79 C 622.424 1655.8 623.082 1654.51 620.997 1656.77 C 614.236 1657.15 603.28 1657.3 596.647 1656.57 C 596.219 1653.22 602.437 1645.76 602.311 1642.55 C 601.893 1631.92 603.558 1594.01 601.238 1586.05 C 595.559 1582.98 596.155 1583.4 596.223 1577.44 z" fill="rgb(87,36,34)" transform="translate(0,0)"></path>
<path d="M 615.859 1586.05 C 622.481 1585.95 626.98 1585.31 632.906 1588.86 C 642.418 1594.56 641.064 1604.4 635.536 1612.85 C 627.746 1617.64 624.65 1617.03 615.626 1617.03 C 615.603 1606.7 615.68 1596.37 615.859 1586.05 z" fill="rgb(236,232,210)" transform="translate(0,0)"></path>
<path d="M 835.911 1476.49 C 843.93 1476.47 856.505 1475.83 863.6 1478.97 C 883.966 1488.38 879.939 1515.91 859.636 1522.78 C 848.291 1526.62 849.288 1522.87 841.815 1522.13 C 840.089 1526.6 840.975 1542.62 841.095 1548.52 C 843.458 1550.74 849.168 1551.15 849.104 1556.02 C 844.785 1557.08 823.836 1557.81 821.149 1554.94 L 821.43 1553.03 C 823.275 1551.47 825.395 1549.84 827.018 1548.04 C 830.106 1544.61 828.197 1493.19 828.165 1485.11 C 824.379 1482.93 823.183 1482.74 821.537 1479.26 L 822.55 1477.69 C 826.947 1475.93 831.086 1476.44 835.911 1476.49 z" fill="rgb(87,36,34)" transform="translate(0,0)"></path>
<path d="M 841.049 1484.77 C 859.97 1484.69 868.474 1493.32 858.428 1511.8 C 851.838 1516.34 849.195 1515.57 841.066 1515.65 L 841.049 1484.77 z" fill="rgb(236,232,210)" transform="translate(0,0)"></path>
<path d="M 228.364 1658.06 C 227.478 1651.29 226.558 1646.18 227.658 1639.37 C 235.059 1593.51 270.388 1586.15 308.278 1584.06 C 283.579 1604.11 277.601 1616.76 257.506 1640.12 C 246.452 1652.96 234.165 1657.66 222.709 1674.08 C 221.192 1671.87 222.124 1672.79 219.536 1671.68 C 222.931 1666.82 225.348 1663.21 228.364 1658.06 z" fill="rgb(87,36,34)" transform="translate(0,0)"></path>
<path d="M 907.022 1475.42 C 908.192 1475.32 914.642 1474.7 915.155 1475.87 C 924.227 1496.6 931.909 1518.18 939.342 1539.56 C 940.392 1542.59 948.062 1552.04 950.29 1555.06 L 949.098 1556.17 C 943.983 1556.66 931.847 1557.16 926.95 1556.25 C 930.589 1545.55 927.39 1542.21 922.983 1530.93 L 909.5 1530.96 L 894.01 1531 C 891.994 1536.67 889.971 1541.96 888.625 1547.83 C 890.675 1554.43 890.182 1546.09 894.201 1552.41 C 893.807 1555.61 894.491 1554.36 892.392 1556.44 C 886.919 1556.53 875.085 1557.18 870.538 1555.91 C 870.165 1552.71 870.213 1554.25 871.949 1550.7 C 880.631 1547.7 878.633 1540.88 882.178 1534.17 C 886.619 1525.76 902.39 1478.28 907.022 1475.42 z" fill="rgb(87,36,34)" transform="translate(0,0)"></path>
<path d="M 908.183 1491.64 C 911.762 1501.12 915.409 1510.52 918.478 1520.19 C 916.193 1521.67 911.101 1521.15 908.04 1521.11 L 897.214 1521.03 L 908.183 1491.64 z" fill="rgb(236,232,210)" transform="translate(0,0)"></path>
<path d="M 118.704 1864.61 C 128.586 1862.28 138.953 1865.46 145.833 1872.93 C 152.712 1880.39 155.037 1890.98 151.917 1900.64 C 148.796 1910.3 140.714 1917.53 130.768 1919.56 C 115.703 1922.64 100.961 1913.05 97.6639 1898.03 C 94.3671 1883.01 103.737 1868.13 118.704 1864.61 z" fill="rgb(87,36,34)" transform="translate(0,0)"></path>
<path d="M 868.518 1576.27 C 871.096 1576.13 873.486 1576.21 876.058 1576.26 C 881.719 1579.48 898.545 1636.73 906.852 1648.02 C 910.417 1649.79 914.007 1650.72 913.846 1654.99 C 910.587 1657.49 888.417 1658.64 885.865 1654.73 C 886.668 1651.78 888.046 1650.84 890.214 1648.63 L 891.105 1647.73 C 890.828 1640.88 889.582 1637.95 885.104 1632.21 C 882.98 1629.49 880.211 1630.27 876.34 1630.21 L 857.826 1630.59 C 855.606 1636.06 852.97 1641.73 852.161 1647.53 C 854.882 1649.61 859.064 1652.02 858.775 1655.62 C 855.115 1657.63 838.224 1656.88 833.568 1656.5 L 832.381 1655.02 C 834.535 1649.82 839.94 1649.67 841.742 1645.12 C 850.777 1622.35 859.558 1599.03 868.518 1576.27 z" fill="rgb(87,36,34)" transform="translate(0,0)"></path>
<path d="M 871.488 1594.61 C 874.761 1598.2 880.331 1614.97 881.582 1620.06 C 879.251 1621.45 875.634 1620.97 872.5 1621 L 860.774 1620.98 C 864.265 1612.16 867.837 1603.37 871.488 1594.61 z" fill="rgb(236,232,210)" transform="translate(0,0)"></path>
<path d="M 169.243 1904.99 C 184.286 1901.76 199.099 1911.33 202.342 1926.37 C 205.585 1941.41 196.032 1956.23 180.996 1959.49 C 165.936 1962.76 151.085 1953.19 147.837 1938.12 C 144.589 1923.06 154.177 1908.22 169.243 1904.99 z" fill="rgb(87,36,34)" transform="translate(0,0)"></path>
<path d="M 715.129 1475.9 C 734.287 1476.27 754.161 1476.02 773.373 1476.04 C 772.851 1481.38 772.724 1488.88 770.071 1493.22 L 768.252 1493.39 C 765.161 1491.11 764.8 1488.65 763.504 1484.97 L 734.531 1484.89 L 734.49 1512.95 C 738.298 1512.95 753.947 1513.65 757.161 1511.1 C 758.539 1510.01 757.346 1506.74 761.827 1504.4 C 765.849 1505.61 764.577 1504.41 766.349 1507.41 C 766.202 1512.47 766.596 1521.01 763.264 1524.58 C 758.812 1525.77 742.2 1517.51 734.856 1523.05 L 734.876 1548.86 L 764.146 1548.7 C 766.308 1544.46 767.742 1538.64 772.993 1538.91 C 776.596 1544.2 774.406 1550.74 773.282 1557.1 C 759.108 1557.14 732.788 1557.66 717.531 1556.6 C 716.988 1556.08 716.445 1555.56 715.902 1555.04 L 715.999 1553.05 C 718.037 1551.1 718.923 1550.53 721.193 1548.93 C 722.357 1543.17 722.382 1488.13 719.932 1483.87 C 714.415 1481.54 715.376 1481.3 715.129 1475.9 z" fill="rgb(87,36,34)" transform="translate(0,0)"></path>
<path d="M 194.221 1851.89 C 208.754 1848.61 223.172 1857.82 226.314 1872.38 C 229.456 1886.94 220.117 1901.27 205.524 1904.28 C 191.124 1907.24 177.024 1898.05 173.923 1883.68 C 170.822 1869.31 179.879 1855.12 194.221 1851.89 z" fill="rgb(87,36,34)" transform="translate(0,0)"></path>
<path d="M 663.634 1577.43 C 681.236 1577.64 699.355 1577.35 716.997 1577.28 C 717.113 1582.78 718.169 1588.41 713.89 1592.47 L 712.207 1592.34 C 709.975 1590.02 708.813 1588.59 706.842 1586.03 C 700.676 1584.91 687.727 1585.52 680.949 1585.63 L 680.911 1612.46 C 686.426 1612.56 696.679 1613.29 701.334 1611.59 C 703.814 1607.48 704.271 1607.91 708.727 1608.2 L 709.712 1609.85 C 709.76 1614.18 710.208 1620.8 708.986 1624.71 C 705.137 1625.92 696.092 1620.5 690.744 1621.26 C 681.636 1622.56 681.225 1620.83 680.692 1629.12 L 680.991 1648.22 L 709.119 1648.1 C 711.564 1644.51 713.205 1641.15 717.135 1639.61 L 718.933 1640.44 C 720.589 1646.65 718.381 1650.8 716.33 1656.93 C 701.726 1657.08 680.75 1657.71 665.759 1656.74 C 663.696 1656.61 663.057 1654.66 662.381 1653.12 C 663.071 1650.59 664.66 1649.83 666.815 1648.13 L 667.774 1647.38 C 669.112 1638.61 667.528 1600.13 667.955 1588.89 C 668.083 1585.52 665.443 1584.45 662.9 1582.61 C 662.273 1579.41 662.328 1581.07 663.634 1577.43 z" fill="rgb(87,36,34)" transform="translate(0,0)"></path>
<path d="M 759.787 1576.25 C 768.318 1575.24 789.054 1574.08 792.083 1583.99 C 790.09 1590.71 791.867 1595.84 790.081 1599.42 L 788.627 1599.51 C 778.97 1593.16 781.59 1583.46 766.907 1584.25 C 736.23 1585.88 730.103 1625.98 751.292 1643.47 C 759.775 1650.47 771.1 1648.87 781.104 1647.63 C 783.937 1643.07 785.112 1636.68 790.943 1635.46 L 792.258 1636.84 C 793.551 1642.11 792.465 1647.8 791.892 1653.33 C 789.183 1654.37 786.425 1655.27 783.628 1656.03 C 770.859 1659.45 755.892 1659.01 744.339 1652.1 C 735.092 1646.64 728.468 1637.65 725.992 1627.2 C 720.063 1602.01 734.941 1581.29 759.787 1576.25 z" fill="rgb(87,36,34)" transform="translate(0,0)"></path>
<path d="M 555.713 1576.13 C 565.677 1575.73 587.313 1579.06 583.702 1593.16 C 581.677 1595.52 580.803 1595.45 577.808 1596.42 C 574.057 1595.29 562.376 1574.82 551.783 1589.04 C 545.462 1597.52 558.875 1607.76 565.847 1611.39 C 594.109 1626.1 595.566 1653.69 560.868 1659.09 C 559.616 1659.04 558.365 1658.97 557.117 1658.86 C 546.517 1657.91 533.309 1651.68 535.119 1639.12 C 543.522 1626.92 545.42 1646.91 552.196 1648.77 C 578.098 1655.86 579.213 1631.33 557.514 1621.59 C 535.766 1611.82 523.537 1584.14 555.713 1576.13 z" fill="rgb(87,36,34)" transform="translate(0,0)"></path>
<path d="M 540.708 1476.31 C 561.338 1475.61 585.669 1476.15 606.561 1476.16 C 607.758 1482.54 610.077 1490.29 604.823 1495.25 L 602.655 1494.68 C 599.539 1491.84 599.397 1489.95 598.045 1485.74 L 580.745 1485.65 L 580.859 1549.64 C 583.99 1549.93 584.19 1549.67 586.799 1551.27 C 587.31 1554.47 587.624 1553.06 586.012 1555.7 C 580.427 1558.42 565.861 1557.86 560.326 1556.35 L 559.59 1554.38 L 560.771 1551.96 C 569.079 1548.52 567.152 1536.23 567.216 1528.33 C 567.33 1514.15 567.106 1499.9 567.013 1485.72 C 542.267 1483.94 554.819 1489.65 541.174 1496.39 L 539.778 1495.61 C 538.518 1490.54 539.885 1481.6 540.708 1476.31 z" fill="rgb(87,36,34)" transform="translate(0,0)"></path>
<path d="M 1035.75 1575.12 C 1044.61 1574.61 1048.15 1575.28 1056.34 1577.54 C 1056.56 1581.94 1057.28 1589.91 1055.6 1593.8 C 1051.6 1593.18 1045.57 1581.77 1037.73 1582.88 C 1035.69 1583.16 1031.95 1584.71 1030.97 1586.54 C 1021.92 1606.53 1061.5 1610.63 1062.75 1630.71 C 1064 1650.67 1051.79 1655.82 1035.13 1657.61 C 1026.23 1657.44 1023 1656.2 1014.78 1653.39 C 1014.56 1648.41 1013.62 1641.86 1016.68 1638.07 C 1022.6 1638.77 1032.66 1657.81 1045.51 1645.7 C 1055.22 1636.95 1044.47 1627.08 1036.5 1622.18 C 1015.38 1609.21 1001.99 1584.56 1035.75 1575.12 z" fill="rgb(87,36,34)" transform="translate(0,0)"></path>
<path d="M 1124.55 1475.49 C 1132.95 1475.47 1140.8 1475.87 1149.16 1476.29 L 1145.99 1479.36 C 1144.41 1480.87 1141.77 1483.33 1140.66 1485.09 C 1127.26 1506.4 1115.72 1521.89 1119.55 1547.75 C 1120.99 1549.8 1122.13 1550.17 1124.33 1551.37 L 1125.18 1551.83 L 1125.76 1553.96 L 1124.26 1556.23 C 1116.76 1557.71 1101.42 1556.78 1093.39 1556.49 C 1108.58 1546.71 1108.77 1540.07 1105.1 1522.16 C 1098.56 1510.56 1091.67 1496.21 1084.95 1484.48 C 1083.29 1483.57 1081.9 1482.8 1080.78 1482.19 C 1079.58 1478.98 1079.83 1480.64 1080.38 1476.98 C 1083.79 1475.09 1099.39 1475.78 1103.63 1476.29 L 1104.5 1477.48 C 1103.59 1480.74 1103.33 1480.08 1100.21 1482.76 C 1099.17 1486.9 1110.64 1507.25 1113.14 1512.38 C 1117.83 1504.66 1123.8 1492.82 1128.22 1484.62 C 1125.27 1482.2 1122.22 1480.54 1122.27 1476.68 L 1124.55 1475.49 z" fill="rgb(87,36,34)" transform="translate(0,0)"></path>
<path d="M 1018.59 1475.68 C 1037.74 1476.17 1058 1475.94 1077.25 1476.03 C 1077.4 1482.57 1079.2 1492.08 1074.58 1496.59 L 1072.99 1496.32 C 1070.22 1493.02 1069.69 1489.7 1068.46 1485.51 C 1065.56 1484.21 1058.5 1484.74 1054.96 1484.79 C 1054.93 1493 1053.63 1546.37 1056.49 1549.34 C 1059.59 1550.62 1059.49 1550.41 1061.62 1552.94 L 1061.33 1554.7 C 1057.1 1557.4 1039.25 1556.74 1034.31 1555.51 L 1034.23 1554.02 C 1036.22 1552.29 1038.03 1550.77 1040.1 1549.11 C 1043.13 1539.35 1041.92 1496.86 1041.88 1484.34 C 1037.63 1484.15 1029.87 1482.97 1027.1 1485.93 C 1027.02 1489.01 1026.94 1490.32 1026.5 1493.46 C 1023.67 1496.46 1022.27 1497.79 1018.53 1496.21 C 1015.51 1490.09 1017.53 1482.5 1018.59 1475.68 z" fill="rgb(87,36,34)" transform="translate(0,0)"></path>
<path d="M 1066.15 1575.69 C 1081.83 1577.92 1111.94 1577.01 1128.75 1576.98 C 1128.8 1581.56 1129.68 1590.46 1126.69 1593.55 C 1122.66 1594.09 1124.22 1594.65 1121.55 1592.82 C 1120.6 1589.51 1120.5 1588.68 1118.62 1585.68 C 1115.52 1584.5 1107.58 1584.97 1103.86 1585 L 1103.78 1646.25 L 1104.45 1648.58 C 1107.49 1649.96 1110.84 1651.27 1110.73 1655.04 C 1107.25 1656.62 1086.35 1657.31 1084.15 1654.48 L 1084.5 1652.15 C 1085.93 1650.95 1087.46 1649.72 1088.73 1648.35 C 1092.84 1643.9 1090.56 1594.11 1090.52 1585.03 L 1075.93 1584.95 C 1074.2 1588.8 1072.59 1593.79 1067.59 1592.88 C 1063.77 1587.82 1065.4 1581.97 1066.15 1575.69 z" fill="rgb(87,36,34)" transform="translate(0,0)"></path>
<path d="M 918.17 1576.88 C 922.672 1576.83 939.904 1576.13 943.283 1578.07 L 943.16 1579.83 C 933.799 1589.44 936.687 1591.95 936.738 1604.61 L 936.903 1648.05 C 944.293 1648.04 951.683 1647.97 959.072 1647.84 C 960.815 1644.21 963.344 1637.14 967.601 1636.88 C 969.792 1640.03 969.069 1640.1 969.375 1644.63 L 967.267 1656.37 C 959.511 1656.79 926.196 1656.88 919.313 1655.6 C 918.861 1652.68 920.578 1650.86 922.131 1648.07 C 925.053 1642.81 923.886 1636.49 923.821 1630.17 C 923.672 1615.55 924.667 1600.22 922.888 1585.67 C 922.957 1586.24 919.128 1582.26 918.17 1576.88 z" fill="rgb(87,36,34)" transform="translate(0,0)"></path>
<path d="M 977.474 1576.44 C 984.665 1576.33 993.027 1575.95 1000.06 1576.77 C 1004.5 1582.33 996.08 1582.19 996.036 1588.84 C 995.904 1608.6 995.957 1628.41 995.957 1648.16 C 999.4 1650.11 1001.85 1650.99 1002.55 1654.85 L 1000.56 1656.81 C 994.472 1656.91 981.744 1658.07 977.43 1654.83 L 977.606 1653.07 C 978.217 1652.54 982.533 1648.81 982.54 1648.25 C 982.79 1628.08 983.293 1606.23 982.432 1586.13 C 982.356 1584.35 977.598 1581.88 976.161 1581.01 C 975.745 1577.97 975.608 1579.5 977.474 1576.44 z" fill="rgb(87,36,34)" transform="translate(0,0)"></path>
<path d="M 159.781 1829.11 C 186.211 1829.6 186.7 1858.87 162.776 1867.28 C 136.612 1866.13 133.229 1836.1 159.781 1829.11 z" fill="rgb(87,36,34)" transform="translate(0,0)"></path>
<path d="M 824.366 1577.51 L 825.856 1577.56 L 827.212 1579.02 C 826.708 1582.8 825.179 1583.69 822.349 1586.27 C 820.186 1603.78 822.388 1624.64 821.44 1642.57 C 821.27 1645.78 826.239 1651.01 826.377 1655.62 C 821.376 1656.76 811.512 1656.24 806.002 1656.16 L 804.717 1655.3 L 804.44 1653.1 C 805.11 1652.15 807.611 1648.34 807.801 1647.67 C 809.904 1640.21 809.651 1591.06 807.911 1586.55 C 805.614 1584.44 804.09 1583.42 802.89 1580.53 L 804.065 1578.45 C 809.322 1577.22 818.64 1577.53 824.366 1577.51 z" fill="rgb(87,36,34)" transform="translate(0,0)"></path>
<path d="M 1927 122.137 C 1926.53 116.803 1926.1 80.6107 1928.11 77.6374 L 1927.94 76.514 C 1927.14 81.3608 1928.27 73.3502 1928.43 79.8895 C 1928.75 92.3108 1929.53 110.351 1929 122.165 L 1927 122.137 z" fill="rgb(174,154,139)" transform="translate(0,0)"></path>
<path d="M 214.722 1590.84 L 218.249 1592.59 C 217.724 1594.83 216.219 1601.98 215.539 1603.75 L 213.262 1601.9 L 214.722 1590.84 z" fill="rgb(91,27,19)" transform="translate(0,0)"></path>
<path d="M 203.847 1520.84 C 203.806 1516.06 207.312 1504.39 211.421 1501.73 C 211.374 1504.1 205.268 1517.49 203.847 1520.84 z" fill="rgb(174,154,139)" transform="translate(0,0)"></path>
<metadata><recraft-signature>{"signed_by": "recraft", "signature_b64": "4/qhzPdh0AbqkuqTfXigx2MDpXeO0IHk6AEDeBVTUPbZyvljPE7meb1EaSWBzg7s/Q/ewJOhwnE3e2K3NBYkAw==", "signing_algo": "Ed25519", "generation_timestamp": 1772546353, "identifier": "792ae97d-8889-45ba-b4db-e5e78314b763"}</recraft-signature></metadata></svg>