<svg xmlns="http://www.w3.org/2000/svg" height="1024" preserveAspectRatio="none" style="display: block;" version="1.1" viewBox="0 0 2048 2048" width="1024">
<path d="M 0 0 L 2048 0 L 2048 2048 L 0 2048 L 0 0 z" fill="rgb(252,251,250)" transform="translate(0,0)"></path>
<path d="M 996.709 1041.43 C 1030.17 1037.13 1089.03 1049.84 1114.59 1072.04 C 1162.63 1113.77 1131.17 1175.13 1078.39 1191.81 C 1054.76 1199.28 1046.37 1200.57 1021.64 1201.91 C 1021.28 1239.41 1021.72 1255.76 1046.3 1283.4 L 1026.78 1283.32 C 999.54 1283.4 972.303 1283.32 945.067 1283.08 C 973.723 1256.09 970.328 1221.22 970.09 1185.02 L 969.853 1130.37 C 961.095 1136.85 953.467 1141.32 942.24 1142.72 C 930.607 1144.15 918.894 1140.77 909.806 1133.37 C 891.525 1118.72 889.715 1092.51 905.219 1074.87 C 914.283 1064.56 925.106 1059 937.767 1054.1 C 956.929 1046.69 976.323 1043.26 996.709 1041.43 z" fill="rgb(19,39,67)" transform="translate(0,0)"></path>
<path d="M 1021.45 1052.79 C 1079.33 1060.02 1097.9 1139.6 1062.85 1176.95 C 1049.41 1188.86 1039.05 1192.18 1021.7 1194.62 L 1021.45 1052.79 z" fill="rgb(252,251,250)" transform="translate(0,0)"></path>
<path d="M 996.929 1052.42 C 1004.34 1051.58 1013.43 1052.13 1020.91 1052.59 C 1007.93 1058.74 976.952 1072.27 963.984 1075.75 L 955.348 1078.05 C 974.918 1087.06 971.001 1104.12 969.807 1123.8 C 954.329 1121.7 935.578 1112.11 931.889 1096.51 C 924.03 1063.29 976.913 1054.59 996.929 1052.42 z" fill="rgb(252,251,250)" transform="translate(0,0)"></path>
<path d="M 617.953 1396.1 C 619.965 1398.23 617.191 1429.91 616.749 1434.8 C 617.484 1433.72 618.228 1432.65 618.983 1431.58 C 628.871 1417.66 643.382 1405.6 660.715 1402.98 C 674.527 1400.98 688.57 1404.57 699.723 1412.96 C 735.29 1439.5 737.825 1507.95 712.02 1541.5 C 701.906 1554.72 686.829 1563.24 670.282 1565.08 C 644.95 1568.11 636.263 1564.41 617.068 1549.2 C 616.794 1563.28 616.885 1575.24 618.184 1589.23 C 618.569 1591.97 618.988 1594.71 619.44 1597.44 C 622.245 1614.12 626.6 1623.4 640.411 1633.19 C 608.033 1633.6 576.125 1634.39 543.762 1632.99 C 577.645 1609.46 567.552 1565.61 569.607 1529.41 C 570.753 1509.21 569.793 1485.09 568.135 1464.86 C 566.676 1447.06 561.376 1436.42 543.158 1432.86 C 576.474 1419.57 586.871 1418.12 617.953 1396.1 z" fill="rgb(19,39,67)" transform="translate(0,0)"></path>
<path d="M 638.045 1425 C 681.631 1421.14 686.085 1538.65 653.924 1558.89 C 617.312 1560.39 614.531 1498.14 617.159 1473.24 C 619.046 1455.34 621.664 1435.48 638.045 1425 z" fill="rgb(252,251,250)" transform="translate(0,0)"></path>
<path d="M 1086.62 560.444 L 1088.46 560.221 L 1089.79 561.917 C 1092.64 601.511 1105.25 650.646 1103.19 689.437 C 1099.86 752.357 1022.1 767.876 974.229 740.184 C 930 709.702 947.429 660.247 951.348 615.091 C 952.867 597.592 955.431 578.028 958.322 560.725 C 997.326 565.743 1047.52 565.445 1086.62 560.444 z" fill="rgb(221,169,66)" transform="translate(0,0)"></path>
<path d="M 994.852 586.255 C 997.917 586.088 1001.13 585.426 1003.56 586.931 C 997.419 623.35 989.533 654.6 993.429 692.516 C 994.415 702.108 996.296 710.065 997.693 719.371 L 994.892 722.416 L 991.946 723.514 C 990.229 723.077 989.532 723.356 988.915 721.586 C 976.325 685.45 986.91 620.673 994.852 586.255 z" fill="rgb(252,251,250)" transform="translate(0,0)"></path>
<path d="M 1043.84 587.999 C 1047.2 587.897 1050.13 587.317 1052.82 589.033 C 1053.02 593.716 1052.38 598.402 1051.76 603.029 C 1047.11 637.787 1047.23 674.114 1057.16 707.972 C 1058.02 710.889 1058.95 713.387 1058.48 716.462 C 1054 717.522 1053.6 718.367 1050.47 716.73 C 1045.7 709.4 1044.88 701.074 1043.32 692.595 C 1036.53 655.474 1038.82 624.728 1043.84 587.999 z" fill="rgb(252,251,250)" transform="translate(0,0)"></path>
<path d="M 449.929 1322.42 C 478.499 1320.64 511.298 1326.71 527.736 1352.83 C 533.65 1362.23 536.638 1374.14 533.707 1385.06 C 531.394 1393.44 525.731 1400.48 518.053 1404.54 C 504.168 1412.01 483.505 1404.23 477.356 1390.05 C 468.423 1369.46 501.187 1370.38 505.931 1355.46 C 509.303 1344.86 488.37 1337.83 481.259 1336.24 C 463.551 1332.29 437.14 1336.12 433.327 1357.44 C 428.674 1394.57 482.619 1411.72 506.582 1428.51 C 517.347 1436.01 532.911 1447.25 539.656 1458.74 C 587.466 1540.07 490.764 1580.33 423.282 1565.37 C 396.129 1559.35 381.298 1550.98 365.751 1527.56 C 364.227 1524.66 362.929 1521.65 361.866 1518.55 C 344.228 1468.65 393.934 1431.07 439.101 1451.67 C 457.65 1460.14 465.872 1485.56 456.045 1503.28 C 448.83 1516.28 434.513 1522.22 420.855 1526.01 C 416.865 1517.08 414.603 1507.68 409.128 1499.33 C 396.779 1480.5 380.636 1490.96 380.698 1510.58 C 380.767 1522.07 385.509 1533.04 393.834 1540.96 C 407.159 1553.49 433.494 1558.89 451.582 1558.14 C 479.112 1557 496.754 1532.26 493.075 1505.44 C 486.879 1460.29 437.469 1448.61 406.782 1424.29 C 381.932 1404.62 370.81 1373.61 393.131 1346.92 C 407.265 1330.39 428.845 1324.26 449.929 1322.42 z" fill="rgb(19,39,67)" transform="translate(0,0)"></path>
<path d="M 1500.43 1088.51 L 1504.44 1090.35 L 1501.28 1124.99 C 1539.58 1125.57 1579.19 1126.38 1617.46 1125.79 C 1617.26 1127.19 1617.13 1128.54 1616.98 1129.94 C 1607.11 1131.97 1603.29 1139.42 1600.33 1148.22 C 1602.16 1154.29 1604.47 1160.17 1606.88 1166.03 C 1616.71 1189.95 1625.67 1214.25 1635.93 1238 C 1641.48 1223.03 1647.22 1208.05 1652.3 1192.92 C 1661.25 1166.27 1671 1138.42 1637.41 1126 C 1660.37 1125.67 1683.33 1125.47 1706.29 1125.4 C 1696.8 1133.35 1688.17 1140.02 1680.55 1151.52 C 1642.6 1208.76 1635.27 1356.53 1547.43 1357.4 C 1530.1 1357.58 1510.03 1340.58 1513.26 1320.25 C 1514.37 1313.21 1518.28 1306.92 1524.09 1302.81 C 1535.26 1294.76 1552.75 1293.04 1561.32 1305.39 C 1567.77 1314.66 1558.52 1329.03 1570.1 1334.58 C 1574.3 1336.27 1582.99 1333.82 1586.72 1331.29 C 1605.66 1318.42 1615.83 1293.47 1623.25 1273.19 C 1614.22 1278.2 1606.19 1282.05 1596.89 1286.43 C 1589.82 1267.86 1582.64 1249.85 1573.93 1229.2 C 1561.65 1200.06 1547.57 1150.73 1519.36 1132.7 C 1516.09 1130.62 1504.54 1131.09 1500.18 1131.21 C 1495.3 1163.19 1498.49 1206.4 1498.92 1239.05 C 1499.17 1257.84 1519.86 1274.13 1530.14 1247.14 L 1532.71 1247.97 C 1522.99 1302.48 1450.4 1297.89 1446.88 1242.24 C 1445.85 1225.91 1445.62 1211.9 1445.66 1195.52 L 1445.82 1130.93 C 1440.21 1131.18 1430.71 1133.94 1428.09 1129.13 L 1428.84 1126.95 C 1431.91 1125.4 1449.06 1125.53 1459.08 1121.87 C 1478.29 1114.85 1490.81 1107.01 1500.43 1088.51 z" fill="rgb(19,39,67)" transform="translate(0,0)"></path>
<path d="M 574.437 1016.57 C 579.815 1019.78 584.517 1023.98 587.845 1029.32 C 592.594 1036.85 594.136 1045.97 592.128 1054.65 C 586.759 1077.08 561.481 1083.6 541.349 1080.2 C 527.029 1077.77 513.099 1074.26 498.979 1070.9 C 498.484 1121.97 498.454 1174.05 499.227 1225.14 C 499.605 1250.13 503.293 1266.45 521.859 1283.5 C 490.702 1283.51 455.329 1284.49 424.643 1283.08 L 425.48 1282.27 C 447.962 1260.09 449.035 1232.33 448.468 1200.81 C 447.903 1169.42 450.548 1127.73 445.969 1096.89 C 445.372 1092.87 438.907 1086.21 435.855 1083.15 C 443.568 1081.48 451.094 1079.31 458.694 1077.2 C 466.821 1074.39 482.566 1070.87 491.493 1068.68 C 478.825 1066.06 465.008 1064.92 452.108 1063.33 C 432.371 1060.91 406.846 1060.95 394.265 1079.17 C 385.428 1091.97 394.98 1112.13 411.258 1105.55 C 419.71 1102.14 423.682 1091.73 426.548 1083.93 C 434.674 1090 442.873 1099.74 440.998 1110.16 C 433.5 1151.83 370.304 1145.88 350.99 1119.03 C 344.78 1110.26 342.308 1099.38 344.118 1088.78 C 346.438 1074.58 354.001 1065.15 366.023 1057.77 C 419.518 1024.94 537.76 1060.78 564.64 1040.65 C 572.409 1034.83 573.331 1025.46 574.437 1016.57 z" fill="rgb(19,39,67)" transform="translate(0,0)"></path>
<path d="M 606.861 1062.86 L 607.555 1063.5 C 608.799 1068.91 605.533 1106.25 605.236 1115.11 C 604.813 1130.21 604.859 1145.32 605.375 1160.42 C 614.622 1145.53 626.978 1132.35 644.334 1127.3 C 656.457 1123.84 669.475 1125.56 680.276 1132.07 C 721.262 1156.81 695.686 1235.4 706.552 1274.77 C 709.153 1284.2 713.256 1294.82 722.373 1299.46 C 741.834 1309.36 748.481 1297.71 757.757 1295.28 C 762.94 1301.12 757.149 1313.33 752.244 1317.99 C 729.377 1339.85 696.904 1330.35 677.099 1310.03 C 653.736 1286.07 654.687 1265.76 654.765 1234.52 C 654.85 1215.55 657.769 1166.75 642.927 1159.05 C 602.493 1138.08 603.163 1208.64 604.814 1226.02 C 607.48 1254.1 608.384 1268.35 629.002 1283.09 C 597.269 1283.66 565.531 1283.79 533.795 1283.47 C 541.971 1277.07 548.116 1269.95 552.001 1260.22 C 561.246 1237.05 561.266 1141.27 550.845 1118.91 C 546.658 1109.93 540.776 1107.33 532.045 1104.05 C 562.15 1093.63 582.53 1083.05 606.861 1062.86 z" fill="rgb(19,39,67)" transform="translate(0,0)"></path>
<path d="M 1176.82 1125.31 C 1195.96 1122.99 1214.43 1125.06 1231.52 1134.32 C 1290.17 1166.09 1259.79 1236 1275.3 1287.79 C 1281.92 1309.88 1299.8 1323.84 1321.41 1309.84 C 1323.87 1308.24 1327.2 1302.39 1329.69 1301.53 C 1329.99 1302.38 1330.28 1303.23 1330.55 1304.09 C 1346.68 1354.88 1246.93 1374.83 1219.48 1269.08 C 1213.98 1276.26 1210.05 1278.48 1202.57 1283.1 C 1155.12 1308.24 1099.53 1267.92 1129.16 1216.92 C 1142.48 1193.99 1180.23 1188.71 1203.72 1186.61 C 1224.66 1184.74 1233.46 1168.85 1224.92 1149.91 C 1218.87 1136.48 1200.93 1129.58 1187.04 1133.15 C 1177.39 1136.77 1186.91 1152.53 1188.23 1158.2 C 1197.34 1197.1 1133.77 1195.09 1135.42 1160.54 C 1136.16 1145.22 1150.81 1132.28 1164.48 1128.08 C 1168.58 1126.82 1172.45 1126.03 1176.82 1125.31 z" fill="rgb(19,39,67)" transform="translate(0,0)"></path>
<path d="M 1215.79 1189.95 C 1217.79 1191.74 1216.92 1195.92 1216.11 1199.02 C 1211.09 1218.18 1219.04 1266.72 1196.01 1273.99 C 1191.21 1275.51 1184.38 1272.37 1180.49 1269.37 C 1170.66 1257.14 1171.16 1242.84 1174.62 1227.99 C 1179.74 1206.03 1198.3 1199.77 1215.79 1189.95 z" fill="rgb(252,251,250)" transform="translate(0,0)"></path>
<path d="M 1233.99 1144.01 C 1247.65 1154.78 1266.09 1185.53 1247.92 1200.02 C 1245.81 1199.99 1233.09 1198.82 1235.84 1194.58 C 1248.87 1174.5 1242.19 1163.37 1233.99 1144.01 z" fill="rgb(252,251,250)" transform="translate(0,0)"></path>
<path d="M 1274.66 1386.77 C 1301.15 1378.25 1331.48 1365.48 1351.24 1345.19 C 1349.48 1386.25 1347.42 1426.34 1348.63 1467.55 C 1349.72 1504.24 1342.35 1527.92 1365.68 1558.92 C 1383.15 1541.58 1383.62 1521.1 1383.74 1497.7 C 1383.84 1478.08 1384.19 1450.2 1364.12 1439.98 L 1362.64 1439.22 C 1362.34 1439.07 1362.04 1438.92 1361.75 1438.78 C 1387.02 1432.5 1414.22 1416.27 1435.02 1400.83 C 1434.82 1429.14 1432.34 1457.17 1432.94 1485.59 C 1433.53 1513.48 1430.11 1542.26 1454.13 1562.21 C 1460.43 1566.02 1457.09 1565.6 1451.49 1566.12 C 1436.95 1564.92 1410.55 1565.84 1394.58 1565.85 L 1280.8 1565.71 C 1279.86 1565.57 1275 1565.35 1275.6 1563.66 C 1276.62 1562.87 1276.67 1562.97 1278.03 1562.66 C 1297.98 1549.37 1302.26 1516.38 1301.91 1494.68 C 1301.39 1462.86 1305.96 1425.49 1290.95 1396.74 C 1288.56 1392.17 1279.09 1388.76 1274.66 1386.77 z" fill="rgb(19,39,67)" transform="translate(0,0)"></path>
<path d="M 1454.13 1562.21 C 1460.43 1566.02 1457.09 1565.6 1451.49 1566.12 C 1452.35 1564.8 1453.22 1563.5 1454.13 1562.21 z" fill="rgb(36,46,68)" transform="translate(0,0)"></path>
<path d="M 1280.8 1565.71 C 1279.86 1565.57 1275 1565.35 1275.6 1563.66 C 1276.62 1562.87 1276.67 1562.97 1278.03 1562.66 C 1278.96 1563.67 1279.89 1564.69 1280.8 1565.71 z" fill="rgb(36,46,68)" transform="translate(0,0)"></path>
<path d="M 1181.49 1403.33 C 1201.5 1401.75 1222.19 1403.82 1238.57 1415.59 C 1277.64 1443.68 1260.51 1490.84 1266.11 1530.9 C 1266.83 1536.02 1268.54 1540.61 1272.96 1543.56 C 1283.64 1545.94 1287.48 1532.66 1289.92 1525.22 C 1289.53 1531.93 1288.9 1535.65 1286.96 1542.07 C 1278.6 1569.69 1240.78 1578.38 1222.46 1555.58 C 1219.58 1552 1217.72 1547.08 1215.9 1542.79 C 1198.02 1572.43 1161.06 1577.65 1135.72 1554.3 C 1128.37 1546.26 1124.02 1535.93 1123.39 1525.06 C 1122.83 1514.1 1126.46 1503.45 1132.77 1494.58 C 1157.55 1459.79 1203.59 1467.82 1218.33 1450.43 C 1222.51 1445.51 1223.78 1439.33 1223.06 1433.01 C 1222.21 1425.56 1218.04 1420.08 1212.21 1415.65 C 1205.31 1410.41 1196.17 1408.62 1187.63 1409.93 C 1184.29 1410.44 1179.74 1411.87 1178.14 1415.16 C 1174.83 1421.93 1183.02 1427.17 1184.68 1433.25 C 1186.29 1439.16 1185.36 1446.97 1182.46 1452.35 C 1179.63 1457.62 1174.7 1461.26 1168.93 1462.72 C 1161.34 1464.63 1152.36 1462.76 1145.87 1458.45 C 1140.37 1454.8 1137.36 1447.79 1136.45 1441.46 C 1135.4 1434.13 1136.76 1427.06 1141.36 1421.14 C 1150.56 1409.29 1167.39 1405.3 1181.49 1403.33 z" fill="rgb(19,39,67)" transform="translate(0,0)"></path>
<path d="M 1213.34 1462.95 C 1213.83 1463.03 1214.24 1463.02 1214.62 1463.29 C 1214.41 1462.82 1213.6 1504.03 1213.47 1506.96 C 1212.85 1520.26 1212.99 1551.01 1193.49 1550.9 C 1186.67 1550.87 1185.91 1550.29 1181.11 1545.95 C 1172.68 1532.15 1171.4 1520.35 1175.46 1504.64 C 1181.13 1482.69 1194.78 1473.52 1213.34 1462.95 z" fill="rgb(252,251,250)" transform="translate(0,0)"></path>
<path d="M 1227.48 1415.82 C 1241.3 1420.85 1255.48 1447.35 1242.87 1460.77 C 1240.99 1461.21 1235 1463.03 1233.34 1461.35 C 1232.94 1459.16 1237.62 1449.49 1237.81 1445.01 C 1238.39 1431.45 1234.05 1426.36 1227.48 1415.82 z" fill="rgb(252,251,250)" transform="translate(0,0)"></path>
<path d="M 806.693 1404.35 C 827.439 1401 852.938 1409.12 867.706 1424.03 C 881.055 1437.52 884.909 1449.63 885.117 1467.99 C 855.985 1477.7 818.975 1482.04 788.52 1492.75 C 791.923 1499.47 796.468 1505.55 801.953 1510.72 C 817.678 1525.31 842.771 1529.88 862.965 1522.95 C 875.256 1518.74 882.638 1512 891.014 1502.48 C 890.411 1505.7 889.131 1509.54 888.163 1512.75 C 875.031 1539.43 858.762 1559.9 827.865 1564.53 C 782.787 1571.28 743.893 1543.26 737.613 1497.82 C 734.497 1474.91 740.604 1451.7 754.592 1433.29 C 767.808 1416.1 785.474 1407.1 806.693 1404.35 z" fill="rgb(19,39,67)" transform="translate(0,0)"></path>
<path d="M 806.057 1411.09 C 839.769 1408.49 838.084 1446.54 834.527 1469.98 C 824.979 1472.94 816.796 1474.96 807.237 1477.39 C 799.627 1479.9 793.248 1481.58 785.657 1484.65 C 782.42 1460.58 779.086 1422.68 806.057 1411.09 z" fill="rgb(252,251,250)" transform="translate(0,0)"></path>
<path d="M 870.169 1231.96 C 856.806 1261.33 838.793 1282.23 804.247 1284.34 C 782.88 1285.46 761.451 1279.42 745.485 1264.95 C 714.076 1236.49 714.748 1179.69 743.169 1149.47 C 756.986 1134.71 776.115 1126.08 796.319 1125.47 C 834.03 1124.56 865.293 1148.56 865.244 1188.3 C 860.525 1190.66 855.815 1191.97 850.721 1193.22 C 824.527 1199.65 797.979 1205.5 772.02 1212.79 C 791.402 1249.67 840.016 1259.07 868.518 1228.17 L 870.169 1231.96 z" fill="rgb(19,39,67)" transform="translate(0,0)"></path>
<path d="M 788.924 1134.18 C 797.597 1133.81 806.841 1134.29 812.056 1142.46 C 820.112 1155.07 820.894 1172.18 818.108 1186.51 L 817.334 1190.48 C 809.108 1193.96 800.379 1195.85 791.783 1198.16 C 781.826 1200.32 778.553 1201.8 769.565 1206.3 C 765.714 1184.48 762.618 1143.79 788.924 1134.18 z" fill="rgb(252,251,250)" transform="translate(0,0)"></path>
<path d="M 1083.05 448.17 L 1101.78 449.089 C 1102.65 462.867 1107.48 489.631 1109.57 504.163 C 1115.2 543.421 1121.07 582.642 1127.18 621.827 C 1129.97 639.331 1138.16 677.266 1136.06 692.892 C 1120.62 808.033 924.501 808.83 912.907 691.084 C 910.909 670.796 918.967 636.217 922.291 615.205 L 943.251 481.976 C 944.682 470.914 946.029 459.842 947.292 448.76 C 953.801 448.475 958.735 448.708 965.225 449.029 C 959.333 497.189 950.679 545.468 945.008 593.725 C 941.764 621.326 934.192 650.063 933.37 677.724 C 932.352 711.941 950.151 747.456 984.695 757.451 C 1018.43 767.78 1066.46 766.14 1092.65 739.643 C 1126.17 705.339 1114.74 664.536 1108.05 622.767 C 1100.47 575.455 1095.15 528.487 1087.07 481.261 C 1085.42 471.644 1082.92 457.641 1083.05 448.17 z" fill="rgb(221,169,66)" transform="translate(0,0)"></path>
<path d="M 1505.77 1401.32 C 1527.5 1398.64 1558.34 1403.69 1572.33 1420.23 C 1602.68 1456.61 1546.64 1486.59 1530.61 1444.02 C 1525.28 1429.85 1554.22 1423.11 1551.75 1414.65 C 1544.99 1410 1535.91 1409.99 1528.4 1408.37 C 1517.79 1406.09 1500.88 1412.98 1501 1425.48 C 1501.23 1448.74 1535.01 1459.72 1550.73 1471.47 C 1558.39 1477.21 1564.98 1481.75 1571.05 1489.22 C 1588 1508.06 1584.69 1536.77 1564.8 1552.47 C 1546.09 1567.24 1522.88 1568.93 1499.78 1566.81 C 1484.98 1564.77 1472.3 1559.9 1460.9 1550.03 C 1446.4 1537.28 1436.29 1514.75 1453.75 1500 C 1466.98 1488.82 1486.88 1489.26 1498.27 1502.5 C 1502.51 1507.16 1506.72 1514.47 1506.57 1521.21 C 1506.33 1532.52 1482.33 1527.75 1475.74 1536.15 C 1474.06 1538.29 1472.34 1538.87 1472.54 1542.19 C 1472.78 1546.26 1475.68 1550.44 1478.79 1552.89 C 1492.66 1561.04 1520.67 1566.48 1531.32 1550.98 C 1542.04 1535.36 1531.93 1519.74 1519.27 1510.08 C 1496.83 1492.98 1464.19 1482.04 1456.57 1452.14 C 1454.12 1442.5 1457.55 1430.04 1463.29 1422.19 C 1473.42 1408.02 1489.76 1404.16 1505.77 1401.32 z" fill="rgb(19,39,67)" transform="translate(0,0)"></path>
<path d="M 982.749 784.279 C 1012.64 793.033 1036.95 793.589 1066.55 783.581 C 1034.13 818.873 1032.16 855.898 1032.29 901.695 C 1032.35 923.031 1032.5 931.594 1038.88 951.75 C 1048.82 983.168 1125.62 985.694 1134.35 1000.61 L 1133.4 1003.04 C 1123.86 1010.94 1085.6 1014.05 1071.76 1015.19 C 1049.48 1017.37 922.573 1019.27 914.398 1000.92 C 915.23 998.195 918.074 996.285 920.514 995.248 C 964.318 976.645 1017.21 981.903 1015.55 918.6 C 1014.68 885.181 1018.41 850.855 1004.65 817.954 C 998.207 802.548 991.32 798.537 983.713 785.911 L 982.749 784.279 z" fill="rgb(221,169,66)" transform="translate(0,0)"></path>
<path d="M 965.499 1404.37 C 988.304 1401.81 1026.35 1413.73 1031.17 1441.02 C 1033.65 1455.06 1017.22 1472.62 1002.76 1472.55 C 987.539 1472.47 974.665 1458.56 978.504 1442.76 C 980.363 1434.81 987.704 1419.73 979.26 1414.22 C 966.875 1406.14 951.417 1414.52 943.762 1425.29 C 925.878 1450.47 930.558 1491.7 953.641 1512.31 C 972.131 1528.9 993.975 1532.33 1017.34 1526.41 C 1034.13 1519.75 1039.53 1511.52 1049.34 1497.32 C 1040.69 1531.12 1020.22 1561.8 983.09 1566.79 C 960.902 1569.76 938.444 1563.75 920.706 1550.1 C 864.151 1506.28 890.841 1412.47 965.499 1404.37 z" fill="rgb(19,39,67)" transform="translate(0,0)"></path>
<path d="M 1357.49 1116.73 C 1358.78 1119.9 1355.8 1167.52 1355.9 1176.09 C 1364.74 1148.73 1390.74 1115.35 1424.74 1136.83 C 1440.84 1147.01 1433.27 1183.81 1410.39 1182.48 C 1389.57 1181.26 1385.25 1169.06 1384.81 1150.87 L 1384.33 1151.16 C 1352.69 1170.16 1352.62 1216.67 1358.26 1248.81 C 1362.63 1266.34 1369.07 1273.55 1383.19 1283.69 C 1349.91 1283.55 1317.77 1283.77 1284.4 1283.03 C 1315.05 1256.21 1308.74 1207 1302.21 1169.98 C 1300.46 1160.01 1293.74 1159.01 1285.87 1155.54 C 1291.54 1152.63 1305.72 1148.96 1312.78 1145.83 C 1330.5 1138 1342.45 1128.35 1357.49 1116.73 z" fill="rgb(19,39,67)" transform="translate(0,0)"></path>
<path d="M 1655.78 1363.3 C 1656.98 1363.52 1658.55 1363.63 1659.81 1363.74 C 1657.54 1374.13 1656.76 1392.51 1655.99 1403.85 C 1655.76 1405.74 1655.55 1406.84 1655.19 1408.73 L 1655.06 1409.42 C 1654.22 1434.75 1653.93 1460.1 1654.16 1485.44 C 1654.17 1495.77 1653.4 1510.83 1654.56 1520.77 C 1657.85 1548.82 1683.75 1548.09 1687.46 1519.07 L 1687.66 1517.42 L 1689.01 1516.99 C 1689.32 1517.59 1689.74 1518.27 1689.76 1518.96 C 1691.16 1549.43 1664.32 1573.27 1634.26 1566.73 C 1595.59 1558.33 1600.21 1508.91 1600.18 1479.57 C 1600.16 1455.33 1600.47 1432.45 1599.67 1408.89 C 1594.94 1409.27 1587.28 1409.98 1582.84 1409.2 L 1581.86 1407.55 C 1590.36 1398.38 1639.5 1405.81 1655.78 1363.3 z" fill="rgb(19,39,67)" transform="translate(0,0)"></path>
<path d="M 1112.72 1400.87 C 1113.73 1407.44 1111.42 1425.16 1111.5 1433.46 C 1111.77 1464.65 1107.82 1503.51 1113.27 1533.82 C 1115.91 1548.48 1124.79 1558.4 1136.96 1565.61 C 1105.06 1566.21 1072.18 1565.8 1040.2 1565.76 L 1039.27 1564.68 C 1041.75 1561.69 1051.51 1550.75 1052.95 1548.03 C 1064.12 1526.89 1063.59 1482.88 1057.83 1459.93 C 1054.57 1446.9 1047.66 1443.58 1037.08 1438.05 C 1061.67 1433.02 1093.11 1416.35 1112.72 1400.87 z" fill="rgb(19,39,67)" transform="translate(0,0)"></path>
<path d="M 1080.46 1342.49 C 1097.71 1341.33 1112.68 1354.25 1114.07 1371.48 C 1115.46 1388.71 1102.75 1403.86 1085.54 1405.49 C 1074.19 1406.56 1063.15 1401.44 1056.64 1392.09 C 1050.12 1382.74 1049.15 1370.61 1054.08 1360.34 C 1059.01 1350.07 1069.09 1343.25 1080.46 1342.49 z" fill="rgb(19,39,67)" transform="translate(0,0)"></path>
<path d="M 1402.77 1342.66 C 1419.97 1341.15 1435.15 1353.83 1436.74 1371.03 C 1438.32 1388.22 1425.7 1403.46 1408.51 1405.12 C 1391.22 1406.78 1375.87 1394.07 1374.28 1376.77 C 1372.69 1359.48 1385.46 1344.18 1402.77 1342.66 z" fill="rgb(19,39,67)" transform="translate(0,0)"></path>
<path d="M 1029.29 304.529 C 1036.08 310.29 1033.39 328.745 1055.13 341.663 L 1056.65 342.591 C 1040.42 353.251 1035.97 363.422 1030.95 381.432 C 1024.32 375.285 1019.91 349.492 1007.61 344.807 C 1006.84 344.515 1004.66 343.041 1003.9 342.512 C 1021.85 329.636 1022.53 324.214 1029.29 304.529 z" fill="rgb(221,169,66)" transform="translate(0,0)"></path>
<path d="M 936.607 342.736 C 939.378 345.499 945.259 370.389 957.116 375.463 C 957.345 375.656 957.573 375.85 957.802 376.043 C 944.152 387.952 944.412 391.103 936.987 407.577 C 930.806 392.431 928.793 384.583 915.034 375.432 L 916.566 374.33 C 930.542 364.483 930.463 358.393 936.607 342.736 z" fill="rgb(221,169,66)" transform="translate(0,0)"></path>
<path d="M 1082.91 367.561 C 1092.35 380.976 1084.6 381.668 1101.93 394.985 C 1091.03 403.866 1087.69 409.41 1083.14 423.217 C 1076.24 416.074 1083.1 406.269 1065.3 396.238 C 1076.07 385.369 1079.14 382.556 1082.91 367.561 z" fill="rgb(221,169,66)" transform="translate(0,0)"></path>
<path d="M 1108.46 301.711 C 1110.61 303.786 1112.75 310.325 1115.38 313.646 C 1121.82 321.797 1125.63 321.032 1135.02 323.295 C 1116.57 329.941 1115.21 329.334 1108.63 348.24 C 1107.63 347.262 1107.36 346.994 1107.2 345.528 C 1105.55 330.704 1092.7 326.684 1081.28 324.234 C 1095.88 319.427 1100.37 319.226 1107.17 304.538 L 1108.46 301.711 z" fill="rgb(221,169,66)" transform="translate(0,0)"></path>
<path d="M 991.704 391.884 C 1002.39 405.148 995.463 402.245 1013.92 408.539 C 1002.78 412.414 996.883 413.61 991.803 424.987 C 989.586 423.683 988.322 418.753 987.264 416.257 C 980.006 411.393 979.127 411.39 970.955 409.25 C 983.869 403.712 985.459 404.794 991.704 391.884 z" fill="rgb(221,169,66)" transform="translate(0,0)"></path>
<path d="M 973.354 295.694 C 978.126 300.559 974.977 304.859 986.046 313.679 C 977.927 321.58 977.321 322.577 972.983 332.611 C 970.272 327.349 968.227 320.358 963.016 317.159 C 961.198 316.043 958.449 315.09 961.248 313.288 C 967.563 309.221 970.577 302.341 973.354 295.694 z" fill="rgb(221,169,66)" transform="translate(0,0)"></path>
<path d="M 1043.72 418.229 C 1045.68 420.63 1047.81 425.74 1050.55 429.298 L 1051.64 430.756 C 1048.05 435.047 1046.18 437.584 1043.07 442.21 L 1042.64 440.833 C 1040.66 434.255 1035.36 431.449 1035.14 430.627 C 1035.3 430.318 1035.37 430.073 1036.14 429.558 C 1040.29 426.788 1041.64 422.546 1043.72 418.229 z" fill="rgb(221,169,66)" transform="translate(0,0)"></path>
<path d="M 1063.92 269.691 C 1066.84 271.912 1067.31 276.458 1070.25 277.65 C 1076.2 280.062 1068.49 282.307 1064.72 291.39 C 1060.69 279.933 1058.98 284.349 1055.81 279.385 C 1055.82 279.25 1060.92 274.975 1062.3 272.575 L 1063.92 269.691 z" fill="rgb(221,169,66)" transform="translate(0,0)"></path>
<path d="M 1655.99 1403.85 C 1657.73 1403.94 1670.78 1404.41 1671 1404.4 C 1678.43 1404.15 1683.15 1403.11 1680.41 1409.82 C 1680.15 1410.44 1658.23 1409.42 1655.06 1409.42 L 1655.19 1408.73 C 1655.55 1406.84 1655.76 1405.74 1655.99 1403.85 z" fill="rgb(36,46,68)" transform="translate(0,0)"></path>
<path d="M 1530.14 1247.14 C 1530.61 1244.45 1530.65 1238.48 1532.07 1236.68 L 1531.85 1236.92 C 1534.39 1237.78 1533.01 1245.89 1532.71 1247.97 L 1530.14 1247.14 z" fill="rgb(36,46,68)" transform="translate(0,0)"></path>
<path d="M 1500.43 1088.51 C 1504.35 1080.34 1505.32 1082.54 1504.44 1090.35 L 1500.43 1088.51 z" fill="rgb(36,46,68)" transform="translate(0,0)"></path>
<path d="M 868.518 1228.17 C 869.275 1227.21 870.989 1224.41 872.387 1224.6 C 873.439 1225.67 871.05 1230.04 870.549 1231.12 L 870.169 1231.96 L 868.518 1228.17 z" fill="rgb(36,46,68)" transform="translate(0,0)"></path>
<path d="M 1617.46 1125.79 C 1624.79 1125.43 1620.52 1128.26 1616.98 1129.94 C 1617.13 1128.54 1617.26 1127.19 1617.46 1125.79 z" fill="rgb(36,46,68)" transform="translate(0,0)"></path>
<path d="M 1655.78 1363.3 C 1658.16 1358.27 1659.13 1357.4 1659.81 1363.74 C 1658.55 1363.63 1656.98 1363.52 1655.78 1363.3 z" fill="rgb(36,46,68)" transform="translate(0,0)"></path>
<metadata><recraft-signature>{"signed_by": "recraft", "signature_b64": "wL4Ep1oJX8SbdecJQOR0dw/q6rdA7XUV4P1uQyuK7eEFaNZx6SyF4qv2uOKaAmSJN/fElybI8M20MSac/ITiBw==", "signing_algo": "Ed25519", "generation_timestamp": 1772546341, "identifier": "4cca207b-121b-4038-ba9a-09dfbba88dc2"}</recraft-signature></metadata></svg>