<svg xmlns="http://www.w3.org/2000/svg" height="1024" preserveAspectRatio="none" style="display: block;" version="1.1" viewBox="0 0 2048 2048" width="1024">
<path d="M 0 0 L 2048 0 L 2048 2048 L 0 2048 L 0 0 z" fill="rgb(255,255,255)" transform="translate(0,0)"></path>
<path d="M 147.216 952.906 C 229.069 906.054 324.263 905.389 372.836 996.384 C 430.929 1105.21 487.78 1215.86 539.144 1327.96 C 552.349 1357.41 565.128 1387.04 577.479 1416.85 C 583.398 1430.79 591.215 1450.64 598.134 1463.6 C 575.639 1474.11 560.461 1480.81 546.7 1502.38 L 541.963 1501.13 C 534.669 1494.77 520.027 1485.68 511.282 1481.37 C 479.631 1461.14 437.729 1439.92 404.466 1421.24 C 332.934 1381.48 261.927 1340.78 191.461 1299.15 C 160.391 1280.71 105.267 1250.39 82.3135 1225.81 C 30.0792 1169.87 39.5238 1073.12 80.6643 1013.77 C 94.1836 994.264 106.468 982.989 123.146 967.351 C 125.592 966.518 127.205 965.226 129.341 963.782 L 136.392 958.923 C 139.417 957.664 144.628 954.824 147.216 952.906 z" fill="rgb(126,37,19)" transform="translate(0,0)"></path>
<path d="M 125.618 984.127 C 132.555 983.944 138.928 984.452 145.69 986.022 C 172.212 992.182 198.555 1009.64 218.744 1027.53 C 247.139 1052.68 271.38 1082.54 295.251 1111.88 C 315.539 1136.56 335.519 1161.49 355.187 1186.67 C 423.32 1273.69 491.268 1360.02 549.985 1453.82 C 547.321 1451.97 544.869 1449.78 542.385 1447.7 C 529.279 1435.04 513.899 1423.85 499.708 1412.38 C 477.836 1394.66 456.112 1376.75 434.539 1358.67 C 381.516 1314.4 330.433 1267.95 278.074 1222.92 C 235.351 1186.17 188.765 1149.44 155.667 1103.39 C 138.58 1079.61 109.337 1029.85 114.946 999.997 C 116.311 992.733 119.659 988.302 125.618 984.127 z" fill="rgb(255,255,255)" transform="translate(0,0)"></path>
<path d="M 100.762 1017.8 C 102.171 1019.56 110.044 1050.96 112.922 1057.72 C 123.187 1081.81 138.055 1104.55 154.605 1124.79 C 173.133 1147.45 194.555 1167.18 216.146 1186.84 C 241.819 1210.14 267.8 1233.09 294.081 1255.7 C 371.611 1324.42 450.276 1391.85 530.043 1457.96 C 526.044 1456.12 522.349 1453.8 518.586 1451.54 C 431.821 1392.72 345.639 1333.05 260.053 1272.52 C 219.785 1243.69 176.161 1215.75 140.304 1181.41 C 123.413 1165.24 109.886 1147.87 100.123 1126.59 C 81.7425 1086.54 85.8876 1057.93 100.762 1017.8 z" fill="rgb(255,255,255)" transform="translate(0,0)"></path>
<path d="M 175.083 963.36 C 192.584 961.035 211.928 963.918 228.627 969.334 C 256.091 978.24 280.182 995.141 299.432 1016.52 C 315.891 1034.8 328.34 1056.43 341.358 1077.2 L 387.887 1151.81 C 430.074 1219.84 472.716 1287.25 511.968 1357.06 C 522.354 1375.54 533.324 1393.7 542.93 1412.6 C 538.091 1407.28 534.276 1400.78 530.298 1394.79 C 476.046 1315.12 415.207 1238.96 355.09 1163.64 C 317.172 1116.13 268.093 1050.77 222.68 1012.4 C 200.648 993.789 172.513 978.071 144.529 970.787 C 154.585 967.242 164.538 964.914 175.083 963.36 z" fill="rgb(255,255,255)" transform="translate(0,0)"></path>
<path d="M 236.727 935.4 C 260.261 931.758 287.878 938.029 308.716 949.011 C 324.148 957.144 337.38 968.304 347.583 982.455 C 362.261 1002.81 373.285 1026.13 384.729 1048.41 L 424.372 1125.66 C 452.849 1180.41 480.381 1235.66 506.955 1291.37 C 522.828 1324.63 542.698 1365.22 553.446 1400.2 C 546.357 1388.29 539.789 1376.02 533.07 1363.9 C 525.214 1352.28 518.693 1339.14 511.652 1326.98 C 499.699 1306.7 487.64 1286.48 475.477 1266.33 C 442.531 1211.36 408.115 1157.44 374.128 1103.12 C 351.964 1067.7 331.313 1028.37 301.628 998.699 C 268.225 965.317 228.604 948.567 181.243 948.752 C 199.642 943.172 217.515 937.547 236.727 935.4 z" fill="rgb(255,255,255)" transform="translate(0,0)"></path>
<path d="M 74.5594 1053.74 C 75.3693 1059.31 73.5307 1066 73.2149 1071.69 C 72.799 1079.17 74.2086 1087.71 75.4948 1095.09 C 81.0422 1126.91 95.8937 1153.73 117.18 1177.69 C 150.377 1215.05 194.652 1243.21 234.959 1272.36 C 321.505 1334.97 410.974 1393.44 498.05 1455.26 C 494.151 1453.77 490.401 1451.85 486.632 1450.06 C 469.945 1441.56 454.004 1431.56 437.543 1422.62 C 389.874 1396.9 342.489 1370.66 295.396 1343.91 C 278.961 1334.48 262.965 1324.35 246.588 1314.84 C 217.173 1298.1 188.05 1280.85 159.234 1263.1 C 141.05 1252.1 121.994 1241.65 105.524 1228.15 C 90.0896 1215.5 78.1282 1200.68 70.3648 1182.21 C 53.1173 1141.19 58.1882 1094.12 74.5594 1053.74 z" fill="rgb(255,255,255)" transform="translate(0,0)"></path>
<path d="M 1659.94 245.697 C 1666.87 249.216 1674.77 262.649 1678.26 269.479 C 1721.45 353.913 1718.78 455.346 1690.75 543.754 C 1745.27 505.647 1813.14 510.463 1864.75 551.28 C 1942.94 613.124 1976.2 719.827 1978.46 816.539 C 1977.67 829.024 1978.82 848.01 1976.36 859.951 C 1970.67 887.598 1972.94 895.633 1978.93 922.541 C 1981.48 934.074 1983.46 945.723 1984.89 957.447 C 2002.43 1096.52 1965.04 1201.87 1861.68 1297.57 C 1827.84 1328.84 1793.16 1353.09 1763.91 1389.13 C 1729.38 1430.9 1717.82 1488.78 1765.5 1526.01 C 1803.84 1555.95 1884.85 1532.54 1872.6 1474.08 C 1867.23 1448.46 1833.93 1430.64 1816.48 1455.61 C 1811.44 1462.81 1814.43 1473.19 1816.65 1480.85 C 1803.24 1459.94 1806.38 1438.8 1833.69 1432.89 C 1860.55 1427.9 1886.05 1449.04 1888.72 1475.39 C 1893 1517.59 1860.94 1549.76 1820.05 1553.75 C 1741.66 1561.4 1693.72 1478.15 1731.46 1411.17 C 1746.63 1384.26 1765.86 1366.36 1788.3 1345.68 L 1831.1 1306.43 C 1850.3 1288.77 1868.17 1269.73 1884.57 1249.45 C 1934.06 1187.93 1962.82 1112.34 1966.76 1033.49 C 1968.35 1001.57 1965.55 964.569 1962.18 933.053 C 1957.14 953.211 1957.11 978.579 1953.18 1000.01 C 1938.88 1078.04 1911.41 1139.86 1859.35 1200.17 C 1771.17 1302.29 1642.51 1336.95 1512.92 1346.78 C 1524.73 1348.34 1534.26 1350.87 1545.58 1353.59 C 1608.75 1368.82 1661.43 1398.71 1694.83 1456.33 C 1753.78 1558.04 1713.01 1668.99 1613.67 1725.01 C 1562.16 1754.05 1508.56 1761.67 1451.63 1747.02 C 1361.06 1723.72 1301.84 1622.81 1325.69 1532.67 C 1334.41 1499.58 1356.28 1470.17 1386.91 1453.52 C 1422.1 1434.63 1463.35 1430.47 1501.6 1441.95 C 1564.85 1461.08 1593.75 1510.08 1575.29 1574.82 C 1568.27 1599.46 1551.7 1622.32 1528.6 1634.19 C 1508.33 1644.63 1484.73 1646.57 1463.02 1639.58 L 1464 1639.1 C 1469.83 1639.88 1478.15 1641.09 1483.92 1640.72 C 1524.58 1638.15 1558.81 1604.3 1567.14 1565.48 C 1588.1 1467.72 1462.64 1425.12 1393.29 1474.17 C 1330.86 1518.33 1332.52 1608.79 1374.47 1666.37 C 1398.93 1700.34 1435.95 1723.12 1477.29 1729.64 C 1569.24 1743.72 1680.63 1674.98 1696.8 1580.02 C 1707.74 1515.77 1669.25 1438.48 1613.95 1404.81 C 1535.25 1356.9 1430.88 1355.88 1341.08 1348.13 C 1291.84 1343.55 1242.74 1337.55 1193.84 1330.14 C 1094.91 1313.75 960.896 1285.37 865.518 1320.77 C 834.976 1332.1 797.754 1358.61 770.605 1377.22 C 792.655 1347.94 848.01 1311.8 882.087 1302.39 C 972.385 1277.47 1076.45 1295.8 1166.84 1308.38 C 1202.88 1313.39 1239.03 1317.61 1275.27 1321.02 C 1411.67 1333.39 1600.09 1323.38 1726.93 1265.88 C 1756.81 1251.96 1785.31 1233.09 1810.85 1212.47 C 1879.07 1157.41 1940.46 1062.42 1948.31 973.442 C 1933.64 1013.2 1910.19 1054.35 1883.88 1087.52 C 1814.19 1175.37 1718.79 1231.23 1610.94 1259.8 C 1473.84 1296.12 1331.64 1264.75 1195.1 1240.91 C 1114.55 1226.85 1031.81 1212.42 949.827 1221.64 C 852.774 1232.54 757.275 1274.83 684.781 1340.48 C 665.824 1357.74 648.833 1378.59 632.764 1398.42 C 677.206 1296.29 829.626 1207.1 936.797 1191.86 C 1122.67 1165.43 1311.06 1252.62 1497.81 1247.13 C 1600.44 1244.11 1706.44 1213.67 1790.01 1152.57 C 1806.65 1140.41 1821.06 1124.79 1835.57 1110.27 C 1911.02 1033.98 1955.69 914.09 1954 807.504 C 1952.81 732.009 1922.14 636.008 1865.94 583.52 C 1839.19 558.012 1804.92 539.075 1766.98 540.476 C 1677.96 544.602 1611.86 655.876 1686.03 724.422 C 1741.09 777.678 1840.34 724.111 1836.97 651.118 C 1836.15 633.327 1827.97 617.284 1814.73 605.539 C 1803.6 595.573 1788.92 590.512 1774.01 591.499 C 1760.28 592.535 1745.3 599.218 1737.19 610.8 C 1734.4 614.772 1733.25 619.382 1730.16 622.903 C 1728.97 620.077 1730.2 615.986 1731.02 613.098 C 1738.74 585.362 1771.68 573.284 1797.51 582.1 C 1840.1 597.243 1856.48 642.597 1843.51 683.837 C 1826.41 738.208 1761.42 772.919 1706.73 754.292 C 1680.39 745.24 1658.73 726.085 1646.53 701.049 C 1628.59 663.744 1631.11 619.834 1653.21 584.831 C 1660.29 573.611 1670.07 564.906 1674.24 552.197 C 1708.56 447.839 1708.29 345.262 1659.94 245.697 z" fill="rgb(186,112,84)" transform="translate(0,0)"></path>
<path d="M 333.516 612.983 C 378.235 491.016 426.957 397.235 519.232 301.218 C 631.118 184.796 796.466 87.3716 960.559 76.9427 C 1036.02 72.1465 1116.05 91.7957 1171.97 143.499 C 1204.17 122.025 1233.3 108.531 1272.68 107.134 C 1306.46 105.936 1341.62 115.87 1366.24 139.712 C 1388.92 161.682 1401.86 186.968 1402 218.935 C 1402.11 241.801 1397.42 257.872 1381.87 275.407 C 1356.39 304.147 1301.54 295.166 1301.25 252.258 C 1301.15 237.778 1313.47 224.925 1324.46 215.54 C 1319.86 223.283 1311.28 235.02 1310.66 243.262 C 1307.36 287.123 1360.33 283.609 1376.08 251.437 C 1391.67 219.591 1384.88 181.951 1363.37 156.933 C 1324.92 112.215 1259.71 113.25 1210.21 136.272 C 1200.98 140.571 1189.84 146.426 1181.99 153.127 C 1186.57 159.027 1191.06 164.989 1195.47 171.012 C 1245.57 240.043 1235.98 352.012 1163.89 403.34 C 1124.53 431.36 1069.05 435.952 1038.51 392.197 C 1015.02 358.547 1027.94 311.331 1062.04 290.162 C 1083.07 277.104 1100.65 276.44 1124.55 281.607 C 1106.66 281.672 1092.56 281.824 1075.78 291.298 C 1023.71 320.693 1024.85 391.866 1084.45 410.568 C 1102.81 416.327 1127.76 408.668 1144.13 398.275 C 1211.89 355.27 1229.16 261.413 1185.24 195.038 C 1155.07 148.852 1107.54 119.571 1055.02 107.702 C 940.861 81.9025 821.164 120.941 720.739 174.005 C 707.865 180.862 692.968 188.361 680.704 195.957 L 681.564 195.67 C 742.922 175.46 819.222 163.213 878.916 193.09 C 945.35 226.341 955.948 306.105 923.893 367.727 C 902.977 407.935 865.888 438.381 823.241 452.836 C 771.85 470.254 701.266 453.873 683.611 396.836 C 676.355 373.651 678.841 348.512 690.496 327.196 C 704.933 300.376 728.017 284.018 757.481 274.878 C 791.535 264.314 841.179 269.962 853.275 310.006 C 858.172 326.218 851.781 339.358 843.766 353.331 C 846.878 340.215 850.322 327.031 845.095 314.014 C 829.156 277.073 784.973 278.646 752.93 288.849 C 686.418 310.027 663.254 403.858 735.314 434.75 C 829.133 474.97 948.329 354.967 912.088 260.759 C 902.092 234.774 878.806 213.404 852.942 203.739 C 793.012 180.568 730.769 192.235 673.073 215.013 C 614.4 238.177 575.111 272.071 531.719 316.805 C 449.808 400.835 384.976 499.956 340.817 608.677 C 528.273 512.347 730.347 535.064 932.516 557.58 C 1026.01 565.947 1130.15 573.946 1208.17 510.928 C 1250.12 477.049 1257.73 443.641 1262.78 393.634 C 1269.55 443.697 1258.68 482.892 1221.65 518.331 C 1191.13 547.524 1146.67 568.03 1105.12 575.144 C 1008.3 591.721 907.245 579.504 809.836 575.24 C 731.102 571.203 652.478 567.022 573.993 574.279 C 407.292 589.678 248.17 674.956 172.918 829.448 C 147.455 881.724 139.387 905.776 129.341 963.782 C 127.205 965.226 125.592 966.518 123.146 967.351 C 122.359 943.144 127.868 903.954 134.416 880.578 C 167.351 763.004 228.099 674.392 333.516 612.983 z" fill="rgb(186,112,84)" transform="translate(0,0)"></path>
<path d="M 177.359 892.542 C 266.121 780.033 395.86 707.293 538.151 690.26 C 643.307 677.505 737.815 696.601 840.059 718.723 C 1024.98 758.732 1223.4 809.059 1410.63 754.352 C 1467.74 737.667 1519.74 710.866 1557.07 663.134 C 1597.63 612.229 1616.11 547.203 1608.38 482.577 C 1602.38 434.889 1582.13 395.736 1544.28 365.385 C 1499.56 329.527 1421.29 321.167 1383.21 371.715 C 1370.03 389.151 1364.45 411.165 1367.71 432.774 C 1370.8 452.832 1379.16 466.409 1395.35 478.816 C 1422.25 499.42 1466.36 497.744 1486.41 467.73 C 1492.86 457.955 1495.17 446.023 1492.84 434.549 C 1488.58 413.361 1466.38 399.61 1445.22 402.426 C 1442.07 402.846 1437.52 405.295 1434.52 405.393 C 1439.67 394.041 1469.66 396.161 1479.95 402.216 C 1506.21 417.671 1512.45 448.61 1496.82 474.548 C 1454.44 532.852 1366.34 505.306 1351.13 439.208 C 1345.62 414.2 1350.39 388.026 1364.36 366.565 C 1402.74 307.06 1494.51 310.859 1546.5 346.892 C 1650.89 419.239 1651.13 565.814 1584.08 664.452 C 1533 739.591 1447.22 776.697 1360.45 794.878 C 1181.9 826.663 988.622 779.944 814.143 742.845 C 748.787 728.948 681.504 712.554 615.084 711.367 C 516.257 709.877 418.71 733.85 331.832 780.981 C 266.772 815.824 204.198 862.814 163.44 924.911 C 159.765 930.51 147.701 947.374 147.216 952.906 C 144.628 954.824 139.417 957.664 136.392 958.923 C 142.928 945.256 148.632 931.157 155.351 917.449 C 169.24 888.721 186.081 861.516 205.604 836.274 C 264.225 759.488 342.636 700.1 432.433 664.475 C 532.792 624.34 631.587 610.903 739.488 617.501 C 794.848 620.886 848.51 628.952 903.415 636.098 C 956.869 643.009 1010.45 648.926 1064.12 653.848 C 1120.55 659.301 1203.16 664.447 1259.02 656.707 C 1342.69 645.115 1399.35 615.865 1450.73 547.394 C 1447.33 555.981 1443.2 564.263 1438.4 572.152 C 1351.75 714.113 1100.75 701.073 959.002 681.907 C 869.175 669.761 783.08 649.473 691.49 643.306 C 631.088 638.73 570.342 643.61 511.445 657.771 C 405.636 683.908 312.554 735.061 237.298 814.025 C 215.628 836.763 191.546 864.282 175.326 891.125 L 177.359 892.542 z" fill="rgb(186,112,84)" transform="translate(0,0)"></path>
<path d="M 175.326 891.125 L 177.359 892.542 C 172.704 898.854 167.771 906.558 163.33 913.134 C 165.798 905.628 170.66 897.52 175.326 891.125 z" fill="rgb(227,214,208)" transform="translate(0,0)"></path>
<path d="M 658.528 1535.43 C 755.788 1622.05 852.243 1709.56 947.879 1797.97 L 1009.74 1855.16 C 1021.77 1866.44 1034.56 1877.47 1044.88 1890.59 C 1090.06 1948.07 1018.5 2022.49 960.251 1978.14 C 950.113 1970.42 937.823 1947.8 927.641 1938.86 C 900.785 1907.24 874.558 1874.94 847.491 1843.49 L 708.531 1682.65 C 678.701 1648.52 642.804 1609.55 615.233 1574.13 C 635.967 1565.92 647.508 1554.77 658.528 1535.43 z" fill="rgb(126,37,19)" transform="translate(0,0)"></path>
<path d="M 979.499 1869.83 C 983.353 1870.24 985.558 1871.28 988.67 1873.6 C 1003.02 1884.33 1029.52 1906.62 1031.58 1925.06 C 1032.66 1934.75 1029.33 1944.42 1023.2 1951.92 C 1015 1961.93 1005.44 1964.71 993.198 1966.02 C 991.246 1965.76 989.306 1965.42 987.38 1965.01 C 970.083 1961.35 962.291 1948.89 953.285 1934.96 C 949.303 1928.8 937.807 1913.38 940.474 1905.84 C 943.857 1896.26 970.168 1874.07 979.499 1869.83 z" fill="rgb(255,255,255)" transform="translate(0,0)"></path>
<path d="M 1698.29 847.976 C 1700.11 847.997 1702.14 847.932 1703.9 848.495 C 1706.6 849.359 1708.58 851.484 1709.79 853.973 C 1718.22 871.352 1695.46 909.982 1685.77 923.859 C 1679 933.548 1669.48 942.518 1664.89 953.51 C 1662.09 960.21 1658.63 972.391 1661.96 979.396 C 1663.05 981.696 1665.22 983.669 1667.73 984.348 C 1689.04 990.12 1707.35 928.735 1715.81 915.439 C 1717.06 913.471 1718.5 912.59 1720.57 911.633 C 1722.08 911.785 1722.99 911.588 1724.21 912.617 C 1726.75 914.741 1727.62 918.27 1727.11 921.464 C 1726.48 925.363 1723.4 929.62 1721.82 933.3 C 1717.87 942.516 1706.1 971.99 1707.67 981.131 C 1708.17 983.996 1709.02 984.123 1711.31 985.613 C 1722.98 986.642 1730.56 964.104 1736.48 956.511 C 1738.84 953.489 1742.59 951.599 1745.89 949.815 L 1747.12 949.164 C 1754.31 935.88 1759.2 921.102 1766.92 908.207 C 1769.51 903.885 1774.2 896.382 1779.94 895.923 C 1783.01 895.678 1784.21 896.969 1786.44 898.715 C 1788.25 906.161 1782.1 917.003 1782.65 925.534 C 1784.16 948.755 1794.49 953.721 1788.99 980.883 C 1811.87 957.23 1812.9 934.344 1823.66 905.133 L 1818.99 905.141 C 1817.35 905.138 1815.57 905.234 1813.96 904.876 C 1811.54 904.338 1809.74 903.058 1808.4 900.994 L 1809.36 899.093 C 1815.51 895.654 1820.55 897.186 1827.19 898.169 C 1830.89 889.687 1833.86 876.467 1840.04 869.552 C 1841.86 867.52 1843.07 867.392 1845.69 867.187 C 1848.5 868.28 1849.51 868.755 1851.28 871.369 C 1853 879.549 1845.38 890.19 1841.95 897.629 C 1848.58 897.139 1856.69 895.637 1862.16 900.508 C 1863.86 902.027 1863.89 902.271 1863.93 904.414 C 1858.33 910.539 1850.45 902.816 1844.46 904.191 C 1842.12 904.729 1839.88 907.204 1838.54 909.08 C 1830.13 920.82 1816.52 964.855 1819.31 977.957 C 1819.83 980.498 1821.53 982.639 1823.89 983.729 C 1839.61 990.827 1852.12 949.76 1862.24 945.783 C 1863.69 946.802 1863.95 946.486 1864.23 947.939 C 1865.63 955.324 1854.72 969.952 1850.46 975.636 C 1843.72 984.63 1836.11 992.935 1824.35 994.183 C 1819.56 994.692 1814.85 993.743 1811.13 990.56 C 1805.52 985.762 1805.02 980.084 1804.57 973.201 C 1799.88 977.998 1795.24 983 1789.9 987.084 C 1779.45 995.079 1766.94 999.62 1753.69 997.595 C 1743.14 995.983 1736.21 990.403 1730.12 982.071 C 1724.49 987.957 1718.77 993.476 1710.25 994.518 C 1706.48 994.978 1702.75 994.156 1699.85 991.613 C 1694.78 987.17 1694.87 981.708 1694.66 975.512 C 1688.15 983.768 1680.67 991.827 1669.95 994.216 C 1665.14 995.286 1659.98 994.823 1655.89 991.918 C 1648.94 986.986 1647.85 978.9 1646.82 971.107 C 1640.62 979.82 1632.51 990.09 1621.89 993.374 C 1618.08 994.553 1614.33 994.466 1610.84 992.393 C 1605.75 989.37 1604.54 984.018 1603.22 978.659 C 1597.96 985.531 1592.17 991.839 1583.46 994.095 C 1579.04 995.241 1573.97 995.069 1569.99 992.635 C 1563.6 988.726 1562.19 983.19 1560.55 976.419 C 1555.13 983.507 1548.95 990.028 1540.12 992.642 C 1535.1 994.126 1529.5 993.907 1524.89 991.284 C 1518.72 987.768 1517.98 984.676 1516.31 978.174 C 1515.92 978.089 1515.51 977.768 1515.15 977.919 C 1509.89 980.078 1504.24 989.97 1491.25 993.823 C 1484.72 995.757 1477.41 996.223 1471.28 992.846 C 1463.38 988.494 1459.34 980.452 1456.98 972.153 C 1450.67 979.977 1444.12 987.27 1434.79 991.583 C 1423.95 996.591 1413.25 995.553 1402.36 991.459 C 1394.55 987.121 1391.91 981.452 1389.14 973.446 C 1380.26 984.365 1370.37 991.957 1356.04 994.151 C 1343.23 996.113 1332.27 992.79 1322.05 985.122 C 1318.69 994.601 1308.6 1029.86 1303.25 1034.84 C 1300.95 1035.56 1298.9 1036.03 1296.55 1035.06 C 1294.04 1034.02 1293.69 1032.94 1292.73 1030.63 C 1294.07 1023.83 1333.3 908.983 1336.28 904.691 C 1337.77 902.542 1340.31 901.583 1342.88 901.489 C 1345.64 901.388 1347.14 902.47 1349.07 904.235 C 1349.58 907.188 1348.62 907.862 1347.14 910.387 L 1347.63 911.222 C 1353.19 910.452 1358.56 908.324 1364.23 908.475 C 1368.74 908.595 1372.79 909.925 1375.79 913.409 C 1380.42 918.784 1379.33 929.512 1378.27 936.068 C 1374.82 957.325 1363.89 972.966 1346.58 985.346 C 1397.49 983.48 1387.43 938.696 1419.57 913.787 C 1425.45 907.151 1448.68 899.637 1454.05 910.832 C 1471.97 948.215 1420.56 951.359 1407.59 959.604 C 1402.1 967.747 1404.6 984.048 1416.23 985.185 C 1443.24 987.72 1456.29 958.778 1465.55 938.252 C 1471.84 924.311 1487.47 902.738 1504.88 904.288 C 1518.81 905.527 1523.89 928.592 1510.58 935.171 C 1508.24 936.327 1509.33 936.469 1506.83 935.801 C 1503.66 930.277 1507.75 922.231 1504.3 916.095 C 1486.62 908.42 1455.99 978.461 1480.61 984.385 C 1508.48 991.092 1525.19 945.608 1531.54 925.451 C 1533.43 919.447 1536.03 912.689 1541.55 910.024 C 1545.28 910.276 1543.63 909.666 1546.64 912.026 C 1553.16 928.178 1522.1 969.215 1534.02 981.848 C 1552.22 987.48 1565.57 949.776 1572.3 937.699 C 1581.18 921.786 1587.89 911.46 1605.46 904.471 C 1614.39 906.239 1613.96 907.715 1621.52 911.368 C 1623.59 908.475 1624.01 907.542 1627.05 905.567 C 1630.65 906.027 1628.88 905.415 1632.08 908.608 C 1637.66 923.041 1611.19 973.634 1620.04 983.558 C 1625.74 983.445 1629.77 978.694 1633.39 974.461 C 1640.63 966.118 1646.55 956.705 1650.92 946.555 C 1663.37 917.272 1669.63 864.975 1698.29 847.976 z" fill="rgb(126,37,19)" transform="translate(0,0)"></path>
<path d="M 1604.05 918.063 C 1608.25 917.963 1612.67 918.301 1615.85 921.421 C 1618.25 923.778 1618.72 926.727 1618.51 929.928 C 1617.65 942.704 1598.53 972.499 1588.93 981.175 C 1587.2 982.043 1584.2 983.39 1582.22 983.338 C 1579.45 983.265 1578.72 982.238 1576.82 980.476 C 1574.3 974.352 1575.42 968.152 1577.08 961.912 C 1581.26 946.225 1589.54 926.586 1604.05 918.063 z" fill="rgb(255,255,255)" transform="translate(0,0)"></path>
<path d="M 1357.57 917.904 C 1360.79 918.47 1363.69 919.248 1365.52 922.219 C 1368.55 927.162 1366.45 934.791 1364.77 939.833 C 1359.64 955.236 1351.46 970.993 1336.43 978.524 C 1336.16 978.503 1335.9 978.496 1335.64 978.46 C 1332.5 978.031 1329.55 977.273 1327.48 974.749 C 1326.14 964.93 1335.44 944.943 1339.82 935.904 C 1343.95 927.374 1348.31 921.047 1357.57 917.904 z" fill="rgb(255,255,255)" transform="translate(0,0)"></path>
<path d="M 1768.3 921.712 C 1769.54 939.561 1779.27 960.48 1773.95 977.979 C 1772.7 982.071 1770.31 986.173 1766.28 988.032 C 1760.78 990.569 1754.38 989.049 1748.96 987.137 C 1748.85 987.053 1748.74 986.968 1748.63 986.886 C 1746.99 985.686 1745.4 984.482 1743.96 983.036 C 1741.17 980.237 1737.1 974.961 1737.56 970.894 C 1738.41 963.251 1749.24 961.729 1754.39 958.151 C 1754.34 957.735 1754.28 957.319 1754.24 956.902 C 1754.18 956.367 1754.14 955.829 1754.08 955.294 C 1753.42 949.238 1765.04 928.554 1768.3 921.712 z" fill="rgb(255,255,255)" transform="translate(0,0)"></path>
<path d="M 1700.22 860.605 L 1701.37 862.013 C 1703.73 882.386 1682.31 915.653 1671.03 932.125 L 1670.44 932.047 C 1670.31 931.168 1670.2 930.799 1670.36 929.816 C 1671.14 925.007 1673.78 919.356 1675.34 914.674 C 1681.04 897.648 1686.72 872.999 1700.22 860.605 z" fill="rgb(255,255,255)" transform="translate(0,0)"></path>
<path d="M 1435.32 916.894 C 1436.32 916.796 1437.31 916.666 1438.32 916.642 C 1441.45 916.567 1443.24 917.561 1445.43 919.672 C 1445.77 921.68 1445.78 922.728 1445.06 924.697 C 1441.6 934.197 1428.88 941.42 1420.14 945.013 L 1410.14 947.709 C 1416.61 935.068 1423.66 925.128 1435.32 916.894 z" fill="rgb(255,255,255)" transform="translate(0,0)"></path>
<path d="M 598.134 1463.6 C 628.298 1451.64 660.461 1447.72 692.724 1447.2 C 796.32 1445.5 1014.43 1489.21 1109.56 1530.35 C 1173 1557.78 1247.33 1602.14 1273.96 1669.17 C 1286.12 1700.23 1285.59 1734.82 1272.49 1765.49 C 1254.38 1807.39 1217.99 1836.78 1176.21 1853.15 C 1146.03 1864.98 1099.76 1868.18 1069.64 1854.99 C 1049.61 1846.23 1033.91 1829.85 1026.01 1809.46 C 1007.23 1761.43 1043.57 1712.76 1087.77 1697.1 C 1098.83 1693.19 1124.01 1685.6 1135.92 1687.74 C 1130.1 1689.73 1118.24 1692.18 1111.59 1693.8 C 1067.12 1704.61 1023.75 1750.78 1040.27 1799 C 1057.02 1847.93 1121.37 1849.39 1162.12 1833.76 C 1199.52 1820.03 1229.93 1794.02 1246.45 1758.07 C 1257.95 1732.84 1258.82 1704.03 1248.84 1678.16 C 1226.46 1618.82 1152.66 1573.65 1097.25 1548.85 C 981.192 1496.93 731.768 1438.98 611.015 1482.52 C 596.612 1486.8 566.053 1500.41 558.816 1513.95 C 556.692 1515.76 556.293 1515.53 553.468 1516.13 C 546.573 1514.08 546.541 1508.68 546.7 1502.38 C 560.461 1480.81 575.639 1474.11 598.134 1463.6 z" fill="rgb(186,112,84)" transform="translate(0,0)"></path>
<path d="M 952.11 1120.45 C 1009.4 1118.74 1066.83 1126.6 1122.89 1137.83 C 1226.09 1158.52 1331.82 1193.65 1436.2 1159.7 C 1419.55 1170.04 1401.2 1177.33 1382.01 1181.24 C 1301.05 1198.44 1187.2 1176.05 1104.23 1166.45 C 1044.7 1159.55 983.713 1153.39 923.777 1156.2 C 909.514 1157.07 895.28 1158.35 881.091 1160.04 C 785.93 1171.52 695.858 1209.61 626.396 1276.41 C 606.98 1295.08 589.988 1315.61 573.379 1336.75 C 582.69 1303.75 604.22 1273.09 627.477 1248.27 C 692.697 1178.67 786.973 1139.18 880.401 1125.82 C 904.153 1122.42 928.153 1121.23 952.11 1120.45 z" fill="rgb(186,112,84)" transform="translate(0,0)"></path>
<path d="M 511.282 1481.37 C 520.027 1485.68 534.669 1494.77 541.963 1501.13 C 506.545 1503.43 484.038 1509.63 454.349 1530.65 C 408.729 1562.94 372.921 1606.14 363.61 1662.63 C 354.043 1721.3 368.355 1782.74 410.377 1826.21 C 453.186 1870.48 510.804 1877.31 560.347 1839.88 C 589.626 1817.76 608.98 1784.97 614.193 1748.65 C 617.959 1721.29 608.796 1695.53 592.14 1673.94 C 576.02 1653.16 551.43 1633.7 524.419 1630.69 C 489.38 1626.78 444.368 1652.8 440.949 1690.4 C 438.792 1714.13 450.712 1737.99 472.846 1747.94 C 482.613 1752.33 487.941 1752.74 498.407 1753.8 C 468.229 1759.99 441.864 1750.2 431.493 1718.85 C 417.424 1676.32 443.099 1639.07 483.496 1625.1 C 545.126 1603.77 603.804 1651.52 623.443 1707.79 C 634.399 1739.15 628.417 1774.59 613.418 1803.59 C 580.742 1869.66 499.9 1907.07 431.586 1870.83 C 338.002 1821.33 310.354 1689.46 356.991 1599 C 378.966 1556.38 427.647 1515.26 470.81 1494.01 C 482.679 1488.17 498.452 1485.24 511.282 1481.37 z" fill="rgb(186,112,84)" transform="translate(0,0)"></path>
<path d="M 1062.77 866.479 C 1063.24 866.522 1063.71 866.544 1064.17 866.606 C 1067.63 867.071 1069.85 867.942 1072.03 870.819 C 1074.57 879.343 1067.99 890.883 1064.95 898.808 C 1068.66 898.814 1073.31 898.378 1076.89 899.328 C 1079.24 899.951 1080.58 901.275 1081.81 903.235 L 1080.93 905.378 C 1074.82 909.676 1069.02 908.519 1061.93 908.188 C 1055.61 927.512 1044.22 953.163 1041.01 972.335 C 1040.33 976.387 1040.18 979.684 1042.57 983.182 C 1044.2 984.18 1045.12 984.579 1047.09 984.673 C 1051.5 984.885 1056.68 982.095 1060.16 979.659 C 1087.21 960.726 1091.6 915.726 1102.67 906.108 C 1105.22 905.566 1108.3 905.257 1110.73 906.511 C 1119.57 911.057 1087.69 968.079 1092.58 979.42 C 1093.18 980.811 1093.97 980.655 1095.27 981.085 C 1099.86 979.779 1103.51 976.449 1106.84 973.151 C 1113.86 966.204 1119.53 957.694 1123.79 948.801 C 1128.36 939.23 1135.06 911.373 1142.74 905.89 C 1144 904.989 1145.6 905.296 1147.04 905.644 C 1149.59 906.263 1150.99 907.772 1152.35 909.837 C 1151.12 919.699 1145.36 931.223 1141.95 940.728 C 1135.54 958.223 1129.45 975.831 1123.68 993.544 C 1139.23 986.366 1146.75 975.607 1155.67 961.652 C 1158.21 957.684 1160.48 953.596 1164.07 950.486 L 1166.38 950.851 L 1167.91 953.203 C 1168.19 957.918 1166.39 961.288 1164.01 965.244 C 1153.27 983.127 1138.96 999.48 1118.06 1004.72 C 1115.77 1012.18 1112.93 1019.1 1108.38 1025.49 C 1103.22 1032.72 1096.09 1038.59 1087.09 1039.9 C 1081.37 1040.73 1075.17 1039.5 1070.68 1035.72 C 1067.05 1032.69 1064.78 1028.33 1064.38 1023.62 C 1063.95 1018.29 1065.94 1013.22 1069.59 1009.37 C 1078.3 1000.19 1095.1 997.25 1107.3 997.22 C 1110.79 988.992 1113.9 980.684 1116.95 972.287 C 1110.9 980.114 1102.58 991.755 1092.13 993.206 C 1088.1 993.765 1084.4 992.451 1081.29 989.908 C 1077.52 986.829 1077.21 983.761 1076.91 979.132 L 1076.84 977.85 C 1068.13 979.965 1067.34 991.751 1045.42 994.813 C 1042.3 994.488 1039.06 994.266 1036.26 992.719 C 1030.33 989.433 1028.98 983.173 1027.44 977.101 C 1021.4 984.647 1015.07 991.668 1005.38 994.324 C 999.795 995.855 992.849 995.619 987.776 992.602 C 984.15 990.446 982.021 987.226 980.995 983.174 C 976.56 965.662 990.722 949.458 999.359 935.739 C 995.138 930.547 990.16 927.197 984.54 923.736 C 977.398 942.89 966.831 966.216 953.686 981.894 C 948.013 988.659 940.682 994.549 931.537 995.088 C 927.704 995.313 923.207 994.726 920.418 991.79 C 915.92 987.055 915.872 980.756 915.651 974.638 C 912.312 980.008 908.688 986.051 904.045 990.402 C 899.425 994.731 894.085 996.871 887.729 996.382 C 883.73 996.073 880.066 994.558 877.483 991.401 C 873.314 986.305 872.994 978.952 873.412 972.689 C 874.744 952.723 885.74 929.216 901.06 916.169 C 906.996 911.114 914.059 906.673 922.189 907.565 C 928.822 908.293 931.941 911.749 935.912 916.758 C 937.885 913.362 939.199 909.882 942.608 907.83 C 945.495 907.996 946.276 907.96 948.68 909.489 C 954.754 922.48 930.93 959.442 928.882 975.757 C 928.554 978.366 928.547 981.716 930.785 983.512 C 932.636 984.997 934.93 985.564 937.236 985.03 C 948.914 982.325 968.9 937.699 972.756 925.265 C 974.909 918.323 976.691 902.068 980.451 896.848 C 982.076 894.592 982.988 894.509 985.519 893.884 C 988.473 894.678 991.544 896.305 992.771 899.357 C 994.357 903.305 991.062 910.42 989.723 914.264 C 994.723 918.016 1000.6 920.67 1005.89 924.009 C 1008.37 925.581 1012.13 928.414 1012.87 931.491 C 1015.31 941.66 991.526 965.155 995.39 981.64 C 996.38 982.915 996.787 983.897 998.362 984.495 C 1001.25 985.593 1004.76 985.318 1007.51 983.927 C 1025.55 974.818 1041.29 927.188 1047.32 908.066 C 1043.85 908.142 1039.48 908.572 1036.11 907.717 C 1033.42 907.034 1032.2 906.162 1030.87 903.803 C 1031.01 903.566 1031.08 903.281 1031.28 903.09 C 1036.74 897.834 1044.3 898.665 1051.26 898.683 C 1054.34 887.651 1057.96 876.887 1062.77 866.479 z" fill="rgb(126,37,19)" transform="translate(0,0)"></path>
<path d="M 918.217 920.059 C 918.958 919.994 919.699 919.94 920.44 919.897 C 924.566 919.66 926.057 920.248 929.072 922.963 C 929.868 924.946 930.36 926.457 930.219 928.622 C 929.185 944.53 910.317 972.411 898.413 983.149 C 896.438 984.32 895.392 984.627 893.096 984.666 C 890.935 983.407 890.092 983.071 889.015 980.699 C 885.657 973.304 888.9 961.537 891.513 954.118 C 896.501 939.956 904.306 926.779 918.217 920.059 z" fill="rgb(255,255,255)" transform="translate(0,0)"></path>
<path d="M 1102.01 1006.26 C 1102.69 1006.99 1102.69 1006.72 1102.7 1007.73 C 1102.76 1013.62 1098.31 1019.45 1094.19 1023.24 C 1088.77 1028.22 1086.13 1029.33 1078.76 1029.06 C 1077.94 1027.9 1077.24 1026.73 1076.73 1025.38 C 1075.7 1022.69 1075.78 1020.37 1076.99 1017.75 C 1080.32 1010.54 1095.3 1008.07 1102.01 1006.26 z" fill="rgb(255,255,255)" transform="translate(0,0)"></path>
<path d="M 824.007 853.21 C 829.469 852.836 835.077 852.395 840.537 852.94 C 851.425 854.027 861.334 859.193 868.198 867.745 C 876.708 878.348 879.103 892.211 877.688 905.453 C 876.05 920.894 868.247 935.021 856.048 944.629 C 839.906 957.29 819.266 959.702 799.483 957.206 C 796.464 965.613 793.513 974.087 789.97 982.29 C 781.19 1002.61 771.166 1018.2 749.919 1026.61 C 739.78 1028.3 730.183 1028.91 720.641 1024.31 C 711.94 1020.15 705.402 1012.51 702.642 1003.27 C 699.163 992.008 700.888 977.975 706.816 967.805 C 711.971 958.959 718.471 955.246 727.937 952.565 C 733.561 954.088 743.877 960.294 749.412 958.574 C 761.272 954.886 766.611 918.469 769.877 907.886 C 772.276 900.116 775.57 892.387 779.758 885.411 C 790.039 868.289 804.781 857.955 824.007 853.21 z" fill="rgb(126,37,19)" transform="translate(0,0)"></path>
<path d="M 823.467 865.213 C 824.221 865.136 824.975 865.067 825.73 865.006 C 835.959 864.2 845.603 864.896 853.641 872.093 C 860.354 878.103 863.592 886.739 864.118 895.591 C 864.86 908.056 860.492 920.777 851.774 929.791 C 838.471 943.546 821.794 945.726 803.801 946.185 C 809.959 927.526 817.426 909.324 826.145 891.716 C 827.46 889.093 829.887 885.448 830.177 882.58 C 830.313 881.234 829.404 880.642 828.635 879.639 C 826.113 878.758 825.66 878.578 823.131 879.942 C 812.151 885.863 791.077 943.153 785.732 957.313 C 778.497 976.495 769.283 1002.38 750.281 1013.16 C 744.214 1016.6 737.117 1018.04 730.348 1015.92 C 724.222 1014 719.336 1009.46 716.465 1003.77 C 712.678 996.264 712.51 986.068 715.382 978.235 C 717.013 973.788 719.959 969.995 724.338 968.013 C 731.997 964.546 740.662 969.342 748.016 971.975 C 777.285 955.829 775.024 925.495 787.711 898.377 C 795.443 881.851 806.139 871.474 823.467 865.213 z" fill="rgb(255,255,255)" transform="translate(0,0)"></path>
<path d="M 563.685 871.835 C 564.513 870.558 565.371 869.3 566.258 868.063 C 570.838 861.744 577.196 856.422 585.173 855.388 C 589.653 854.807 594.294 855.777 597.853 858.638 C 600.779 860.991 602.808 864.409 603.092 868.189 C 603.336 871.436 602.071 874.332 599.808 876.594 C 593.43 882.97 581.109 882.827 572.644 883.164 C 564.993 896.605 558.647 911.082 551.914 925.012 C 558.227 919.54 565.123 912.906 572.645 909.199 C 576.958 907.074 581.493 905.917 586.141 907.683 C 607.275 915.715 568.909 968.177 575.438 983.798 C 576.823 984.914 577.77 985.512 579.591 985.833 C 596.664 988.842 611.347 942.153 617.478 931.133 C 621.351 924.171 626.333 917.621 632.636 912.683 C 638.4 908.167 644.656 905.954 651.973 907.158 C 656.568 907.915 660.849 909.899 663.388 913.956 C 666.23 918.5 666.293 924.447 665.176 929.536 C 663.2 938.548 656.891 947.617 649.053 952.514 C 639.943 958.205 631.165 958.225 621.103 955.99 C 620.226 960.905 619.093 966.153 619.205 971.145 C 619.312 975.971 621.23 981.732 624.966 984.956 C 639.55 997.539 654.257 971.89 662.628 971.304 C 662.753 971.55 662.916 971.781 663.004 972.042 C 663.791 974.385 663.084 977.023 661.881 979.083 C 657 987.438 648.409 993.661 639.073 996.008 C 631.684 997.865 623.365 997.478 616.862 993.171 C 609.189 988.09 607.566 981.673 605.844 973.204 C 601.009 983.323 593.488 991.541 582.742 995.495 C 578.442 997.078 573.206 998.099 568.93 995.882 C 543.502 982.7 581.894 931.707 578.761 920.27 C 574.926 919.724 570.577 922.848 567.36 924.777 C 534.14 944.694 533.973 991.152 520.404 998.82 C 517.919 998.697 517.069 998.507 515.189 996.601 C 512.929 994.309 513.012 992.133 512.987 989.175 C 524.776 952.533 540.297 917.369 555.992 882.306 C 549.993 881.705 543.989 881.17 537.978 880.702 C 529.813 890.039 522.363 899.71 516.78 910.851 C 503.679 936.995 492.679 991.332 470.414 1008.49 C 461.829 1015.11 451.484 1016.91 440.937 1015.16 C 432.179 1013.72 424.747 1009.95 419.571 1002.61 C 413.333 993.757 412.291 982.566 414.388 972.173 C 417.003 959.215 424.756 946.432 436.133 939.391 C 441.585 936.017 448.296 933.687 454.661 935.8 C 457.009 936.58 457.772 937.348 458.746 939.54 C 457.206 945.652 443.47 948.685 438.542 952.738 C 430.888 959.034 427.878 968.527 427.071 978.113 C 426.499 984.923 427.178 991.689 432.037 996.911 C 435.604 1000.74 440.684 1002.75 445.886 1002.81 C 480.799 1003.17 493.932 904.039 519.439 877.828 C 495.182 873.032 468.281 865.355 443.552 865.169 C 434.615 865.102 421.07 866.551 414.615 873.113 C 410.881 876.908 408.853 881.207 409.17 886.619 C 409.392 890.424 411.249 893.677 414.228 896.001 C 421.112 901.371 437.291 903.209 445.348 900.031 C 448.947 898.611 452.57 895.315 456.498 895.266 C 458.153 895.246 458.661 896.222 459.807 897.238 C 460.411 899.549 460.875 901.444 459.575 903.649 C 457.305 907.496 451.379 909.809 447.319 910.897 C 434.405 914.359 416.178 912.891 404.804 905.853 C 399.739 902.72 395.934 897.902 394.878 891.967 C 393.647 885.047 395.943 877.605 399.965 871.967 C 407.685 861.145 419.09 857.239 431.631 855.25 C 461.485 852.418 491.9 861.468 521.063 866.682 C 535.18 869.205 549.417 870.506 563.685 871.835 z" fill="rgb(126,37,19)" transform="translate(0,0)"></path>
<path d="M 648.177 917.824 C 649.086 918.166 650.61 918.688 651.385 919.222 C 653.294 920.539 653.99 922.101 654.447 924.276 C 655.119 927.476 653.525 931.026 651.737 933.639 C 646.309 941.571 639.077 945.716 629.924 947.792 C 628.662 947.825 627.372 947.621 626.115 947.499 C 625.533 945.359 625.468 946.21 626.017 944.129 C 628.672 934.086 639.613 922.953 648.177 917.824 z" fill="rgb(255,255,255)" transform="translate(0,0)"></path>
<path d="M 222.049 1410.27 C 231.72 1414.33 250.527 1435.71 258.792 1443.9 C 275.075 1438.02 290.37 1430.02 306.947 1424.79 C 299.35 1440.79 291.599 1456.78 284.695 1473.08 C 297.312 1485.44 308.808 1500.56 320.067 1514.19 C 307.508 1512.7 295.03 1510.67 282.537 1508.71 L 266.698 1506.17 C 255.805 1519.79 247.929 1535.09 236.162 1548.28 C 233.814 1531.25 231.52 1514.25 228.506 1497.32 C 212.373 1492.97 196.021 1489.4 179.878 1485.02 C 194.662 1477.4 209.154 1469.08 223.744 1461.09 C 224.335 1444.21 222.026 1427.2 222.049 1410.27 z" fill="rgb(238,191,154)" transform="translate(0,0)"></path>
<path d="M 1290.64 851.236 C 1295.55 850.9 1300.46 850.607 1305.29 851.813 C 1312.58 853.634 1318.96 858.317 1322.5 865.004 C 1326.24 872.085 1326.72 880.782 1324.39 888.394 C 1322.3 895.23 1317.81 901.084 1311.44 904.43 C 1307.35 906.581 1302.92 907.54 1298.48 905.822 C 1294.28 904.199 1291.47 900.377 1289.99 896.257 C 1287.56 889.445 1289.54 879.681 1292.6 873.342 C 1294.29 869.855 1296.06 867.66 1299.77 866.318 C 1302.12 866.481 1302.2 866.082 1304.02 867.788 C 1304.95 874.608 1301.12 882.161 1300.38 889.05 C 1300.08 891.822 1300.32 893.099 1302.03 895.235 C 1302.38 895.268 1302.73 895.34 1303.09 895.336 C 1305.31 895.309 1307.47 894.149 1309.07 892.646 C 1312.34 889.579 1313.72 885.017 1313.91 880.641 C 1314.13 875.462 1312.57 869.969 1308.92 866.178 C 1305.91 863.066 1301.81 861.468 1297.5 861.607 C 1291.53 861.799 1284.42 864.846 1280.6 869.503 C 1266.72 886.433 1286.65 917.562 1293.4 933.905 C 1296.59 941.502 1298.78 949.483 1299.91 957.645 C 1302 973.563 1299.45 990.92 1289.15 1003.71 C 1281.06 1013.74 1269.88 1019.18 1257.08 1020.12 C 1241.56 1021.27 1228.97 1016.3 1217.28 1006.33 C 1210.01 998.511 1206.02 989.432 1205.29 978.74 C 1204.49 966.926 1208.15 954.845 1216.02 945.901 C 1222.25 938.814 1231.63 933.23 1241.25 933.028 C 1248.18 932.883 1254.41 935.901 1259.3 940.699 C 1263.1 944.426 1265.81 950.66 1265.19 956.075 C 1264.78 959.6 1262.24 962.744 1259.58 964.869 C 1253.82 964.783 1251.44 949.933 1245.75 946.138 C 1243.52 944.652 1241.03 944.426 1238.45 944.884 C 1232.47 945.947 1225.78 952.439 1222.58 957.281 C 1217.81 964.603 1216.26 973.559 1218.29 982.056 C 1220.52 991.31 1226.55 999.194 1234.89 1003.77 C 1243.01 1008.33 1253.06 1009.72 1262.02 1007.02 C 1270.8 1004.37 1278.77 997.958 1282.87 989.715 C 1297.09 961.138 1275 932.486 1266.79 906.384 C 1262.99 894.308 1261.45 878.839 1267.85 867.429 C 1272.77 858.665 1281.22 853.798 1290.64 851.236 z" fill="rgb(126,37,19)" transform="translate(0,0)"></path>
<path d="M 558.816 1513.95 C 566.053 1500.41 596.612 1486.8 611.015 1482.52 C 622.967 1494.85 634.478 1507.61 645.525 1520.76 C 658.47 1515.17 660.299 1525.19 658.528 1535.43 C 647.508 1554.77 635.967 1565.92 615.233 1574.13 C 604.095 1574.27 592.788 1569.78 599.309 1556.56 C 598.567 1553 564.615 1519.95 558.816 1513.95 z" fill="rgb(126,37,19)" transform="translate(0,0)"></path>
<path d="M 645.525 1520.76 C 658.47 1515.17 660.299 1525.19 658.528 1535.43 C 647.508 1554.77 635.967 1565.92 615.233 1574.13 C 604.095 1574.27 592.788 1569.78 599.309 1556.56 C 613.143 1567.71 643.313 1536.66 645.525 1520.76 z" fill="rgb(238,191,154)" transform="translate(0,0)"></path>
<path d="M 715.939 1806.79 C 727.052 1812.71 736.922 1825.21 745.817 1834.19 C 759.471 1829.88 773.041 1825.3 786.519 1820.47 C 779.289 1833.18 772.534 1846.16 766.269 1859.37 C 775.453 1870.69 783.809 1882.84 792.076 1894.83 C 781.042 1893.13 770.033 1891.12 759.021 1889.26 L 749.185 1888.33 C 741.763 1899.79 734.302 1911.06 726.16 1922.03 C 723.14 1908.05 721.86 1893.8 718.45 1879.85 C 705.109 1875.12 690.807 1872.19 677.011 1869.08 C 690.455 1862.6 703.468 1855.26 716.975 1848.92 C 716.315 1834.89 715.97 1820.84 715.939 1806.79 z" fill="rgb(238,191,154)" transform="translate(0,0)"></path>
<path d="M 581.847 77.3277 C 587.72 80.5787 605.509 100.778 611.278 106.844 C 623.824 102.709 636.402 98.6735 649.012 94.7372 C 642.054 108.447 636.211 118.235 630.093 132.543 C 636.574 143.264 644.743 154.917 651.615 165.859 C 639.426 163.55 626.476 160.132 614.343 157.173 C 608.676 158.735 592.453 183.055 585.379 190.402 C 583.706 176.608 582.142 162.8 580.688 148.981 C 566.89 145.095 555.677 140.986 542.145 136.077 C 552.286 130.276 569.279 122.696 580.443 117.107 C 581.769 103.905 580.479 90.8667 581.847 77.3277 z" fill="rgb(238,191,154)" transform="translate(0,0)"></path>
<path d="M 1164.86 1420.48 C 1175.9 1429.68 1184.26 1442.09 1195.02 1451.8 C 1207.31 1446.69 1220.29 1443.55 1232.69 1438.72 C 1226.31 1451.42 1218.63 1463.43 1212.43 1476.25 C 1220.28 1487.55 1227.5 1499.38 1234.88 1511 L 1200.72 1503.33 L 1196.56 1503.06 C 1188.04 1507.36 1178.06 1525.58 1170.8 1533.18 L 1169.71 1534.31 L 1169.48 1533.08 C 1166.99 1520.08 1166.03 1506.84 1164.76 1493.68 C 1152.08 1487.79 1137.18 1484.73 1123.48 1482.27 C 1136.31 1474.68 1150.46 1468.52 1163.83 1461.85 C 1163.94 1448.04 1164.09 1434.27 1164.86 1420.48 z" fill="rgb(238,191,154)" transform="translate(0,0)"></path>
<path d="M 152.937 516.617 C 155.904 519.034 176.125 544.254 181.966 550.206 C 195.006 547.218 208.079 544.374 221.182 541.675 L 196.47 576.255 C 203.01 584.927 213.044 601.894 219.706 611.906 C 207.44 610.061 197.898 606.452 186.319 602.346 C 185.167 601.975 182.956 601.189 181.928 601.582 C 172.906 605.034 158.506 625.634 151.973 632.723 L 151.058 633.703 C 150.955 618.668 150.846 604.842 149.878 589.861 C 137.489 585.437 121.781 580.366 110.227 574.782 C 123.641 569.338 137.275 564.451 151.094 560.135 C 151.837 545.55 151.6 531.169 152.937 516.617 z" fill="rgb(238,191,154)" transform="translate(0,0)"></path>
<path d="M 378.196 266.871 C 387.992 275.093 396.043 287.091 407.054 296.036 C 418.728 292.126 430.581 288.774 442.574 285.991 C 435.111 297.829 428.946 307.52 423.447 320.499 C 431.546 331.23 438.745 342.514 446.13 353.75 C 434.538 351.897 422.917 348.99 411.467 346.329 L 408.093 346.245 C 401.349 350.22 388.483 369.507 381.176 377.045 L 380.2 378.04 C 379.267 363.388 378.632 351.756 375.487 337.297 C 363.449 331.996 353.116 328.72 340.607 324.633 C 352.042 317.998 364.296 311.661 376 305.414 C 376.475 292.862 376.673 279.265 378.196 266.871 z" fill="rgb(238,191,154)" transform="translate(0,0)"></path>
<path d="M 591.671 1069.82 C 596.448 1075.73 600.801 1094.82 603.424 1103.01 C 615.758 1105.76 628.3 1106.92 640.825 1108.45 L 610.268 1129.65 C 612.98 1141.46 615.504 1153.31 617.841 1165.2 C 612.141 1161.13 591.011 1143.54 586.553 1143.8 C 576.605 1150.93 566.04 1157.11 555.319 1162.99 L 567.906 1126.97 C 558.35 1118.18 548.347 1109.93 538.381 1101.62 L 577.087 1101.16 C 581.403 1090.49 585.815 1079.75 591.671 1069.82 z" fill="rgb(159,69,48)" transform="translate(0,0)"></path>
<path d="M 1329.3 1777.56 C 1336.93 1782.86 1344.22 1792.42 1350.76 1799.29 C 1360.25 1795.37 1370.61 1793.47 1380.61 1791.28 L 1366.51 1817.72 C 1371.55 1826.82 1377.05 1835.73 1382.31 1844.69 C 1373.88 1843.42 1365.51 1841.78 1357.22 1839.78 L 1354.52 1839.08 C 1348.28 1840.22 1336.95 1855.62 1331.87 1860.45 C 1330.39 1850.95 1329.23 1841.54 1328.32 1831.97 L 1299.24 1820.61 C 1308.6 1816.44 1317.76 1811.68 1326.93 1807.12 C 1327.42 1797.24 1328.41 1787.4 1329.3 1777.56 z" fill="rgb(159,69,48)" transform="translate(0,0)"></path>
<path d="M 1531.49 171.818 C 1545.32 171.301 1557.03 181.932 1557.85 195.748 C 1558.66 209.565 1548.28 221.498 1534.49 222.61 C 1525.3 223.35 1516.42 219.06 1511.3 211.396 C 1506.17 203.732 1505.59 193.893 1509.78 185.68 C 1513.97 177.466 1522.28 172.163 1531.49 171.818 z" fill="rgb(238,191,154)" transform="translate(0,0)"></path>
<path d="M 307.385 460.277 C 320.757 458.25 333.233 467.468 335.223 480.846 C 337.212 494.224 327.959 506.674 314.576 508.627 C 301.245 510.572 288.854 501.363 286.872 488.038 C 284.89 474.712 294.065 462.295 307.385 460.277 z" fill="rgb(186,112,84)" transform="translate(0,0)"></path>
<path d="M 1778.08 441.297 C 1791.09 439.678 1802.93 448.976 1804.44 462.002 C 1805.96 475.028 1796.56 486.791 1783.52 488.198 C 1770.63 489.589 1759.04 480.326 1757.54 467.449 C 1756.04 454.571 1765.21 442.897 1778.08 441.297 z" fill="rgb(159,69,48)" transform="translate(0,0)"></path>
<path d="M 1020.76 181.04 C 1033.43 178.415 1045.83 186.515 1048.53 199.167 C 1051.22 211.818 1043.18 224.268 1030.55 227.027 C 1017.82 229.808 1005.25 221.7 1002.54 208.953 C 999.826 196.206 1008 183.685 1020.76 181.04 z" fill="rgb(238,191,154)" transform="translate(0,0)"></path>
<path d="M 949.92 444.582 C 962.379 441.419 975.042 448.961 978.193 461.423 C 981.344 473.886 973.789 486.541 961.324 489.68 C 948.876 492.815 936.242 485.272 933.095 472.828 C 929.948 460.383 937.478 447.742 949.92 444.582 z" fill="rgb(159,69,48)" transform="translate(0,0)"></path>
<path d="M 107.517 735.588 C 115.785 734.962 123.753 738.826 128.382 745.707 C 133.01 752.587 133.586 761.424 129.89 768.847 C 126.193 776.27 118.794 781.135 110.514 781.588 C 97.8972 782.277 87.0771 772.68 86.2554 760.071 C 85.4337 747.462 94.9169 736.542 107.517 735.588 z" fill="rgb(159,69,48)" transform="translate(0,0)"></path>
<path d="M 603.365 406.11 C 609.692 405.254 616.081 407.168 620.896 411.36 C 625.711 415.553 628.486 421.617 628.509 428.002 C 628.549 438.656 621.004 447.833 610.543 449.855 C 602.619 451.386 594.487 448.491 589.314 442.295 C 584.141 436.099 582.744 427.582 585.665 420.058 C 588.587 412.533 595.366 407.191 603.365 406.11 z" fill="rgb(238,191,154)" transform="translate(0,0)"></path>
<path d="M 1293.62 1399.65 C 1300.86 1397.22 1308.85 1398.87 1314.53 1403.98 C 1320.21 1409.09 1322.7 1416.87 1321.04 1424.33 C 1319.38 1431.79 1313.84 1437.77 1306.52 1440 C 1300.32 1441.89 1293.59 1440.82 1288.26 1437.12 C 1282.94 1433.41 1279.6 1427.47 1279.22 1420.99 C 1278.65 1411.44 1284.55 1402.7 1293.62 1399.65 z" fill="rgb(159,69,48)" transform="translate(0,0)"></path>
<path d="M 972.695 1615.5 C 979.987 1613.21 987.945 1615.05 993.5 1620.29 C 999.056 1625.54 1001.34 1633.38 999.472 1640.79 C 997.604 1648.2 991.876 1654.02 984.497 1656.01 C 973.405 1659 961.96 1652.57 958.747 1641.54 C 955.534 1630.51 961.733 1618.93 972.695 1615.5 z" fill="rgb(159,69,48)" transform="translate(0,0)"></path>
<path d="M 1729.12 875.727 C 1732.03 875.683 1735.26 875.573 1737.73 877.431 C 1739.85 879.031 1740.58 880.89 1740.83 883.451 C 1741.34 888.721 1737.02 893.628 1733.58 896.975 C 1730.38 897.307 1727.34 897.719 1724.61 895.554 C 1722.71 894.045 1722.09 891.892 1722.04 889.555 C 1721.9 883.823 1725.3 879.532 1729.12 875.727 z" fill="rgb(126,37,19)" transform="translate(0,0)"></path>
<path d="M 1549.92 876.103 C 1551.42 875.874 1553 875.66 1554.52 875.688 C 1557.2 875.737 1559.53 876.723 1561.12 878.963 C 1562.63 881.098 1562.63 883.369 1562.1 885.827 C 1561.18 890.124 1557.87 892.331 1554.35 894.447 C 1551.06 894.618 1547.39 895.005 1544.89 892.354 C 1543.21 890.567 1542.71 888.027 1543.07 885.658 C 1543.79 880.941 1546.39 878.866 1549.92 876.103 z" fill="rgb(126,37,19)" transform="translate(0,0)"></path>
<metadata><recraft-signature>{"signed_by": "recraft", "signature_b64": "joVRcFoiua6Xfy8QAw7XJWxiXUyWKcYbnfrnw/4PmOOSsf8Hgfj+WLcH8AN9ooNgOtbQvvw7hNxr6Sc61AShCQ==", "signing_algo": "Ed25519", "generation_timestamp": 1772546523, "identifier": "7bec7e78-af4b-4316-967c-9cc75b276938"}</recraft-signature></metadata></svg>