<svg xmlns="http://www.w3.org/2000/svg" height="1024" preserveAspectRatio="none" style="display: block;" version="1.1" viewBox="0 0 2048 2048" width="1024">
<path d="M 0 0 L 2048 0 L 2048 2048 L 0 2048 L 0 0 z" fill="rgb(253,252,252)" transform="translate(0,0)"></path>
<path d="M 1463.71 270.747 C 1514.26 267.582 1557.88 305.83 1561.34 356.361 C 1564.81 406.892 1526.83 450.74 1476.32 454.51 C 1425.38 458.312 1381.07 419.932 1377.58 368.971 C 1374.08 318.011 1412.72 273.938 1463.71 270.747 z" fill="rgb(39,161,177)" transform="translate(0,0)"></path>
<path d="M 1464.91 319.304 C 1519.96 322.569 1526.66 394.173 1474.75 406.579 C 1419.51 410.974 1411.26 327.835 1464.91 319.304 z" fill="rgb(253,252,252)" transform="translate(0,0)"></path>
<path d="M 970.554 979.803 C 1021.14 974.249 1066.59 1010.89 1071.9 1061.5 C 1077.21 1112.11 1040.34 1157.38 989.708 1162.45 C 939.421 1167.47 894.525 1130.92 889.253 1080.66 C 883.982 1030.39 920.317 985.319 970.554 979.803 z" fill="rgb(235,98,45)" transform="translate(0,0)"></path>
<path d="M 971.945 1033.14 C 981.881 1032.46 992.917 1032.47 1001.53 1037.93 C 1034.93 1059.1 1031.3 1101.55 991.77 1111.7 C 977.896 1113.81 966.833 1113.74 954.619 1105.69 C 946.203 1100.23 940.534 1091.42 939.051 1081.5 C 935.819 1055.1 945.566 1039.82 971.945 1033.14 z" fill="rgb(253,252,252)" transform="translate(0,0)"></path>
<path d="M 1023.94 497.944 C 1056.91 496.417 1088.15 512.783 1105.67 540.764 C 1123.18 568.745 1124.25 603.995 1108.47 632.989 C 1092.69 661.983 1062.51 680.219 1029.5 680.701 C 979.571 681.429 938.294 641.968 936.775 592.06 C 935.256 542.151 974.057 500.254 1023.94 497.944 z" fill="rgb(39,161,177)" transform="translate(0,0)"></path>
<path d="M 1020.73 547.219 C 1035.81 546.055 1050.18 548.263 1058.79 562.094 C 1073.67 586.003 1068.59 628.162 1035.03 631.31 C 1025.64 631.07 1021.03 630.928 1012.09 626.699 C 1000.83 621.461 992.282 611.758 988.499 599.936 C 980.642 575.676 997.387 553.726 1020.73 547.219 z" fill="rgb(253,252,252)" transform="translate(0,0)"></path>
<path d="M 569.554 268.26 C 602.005 265.134 630.676 277.363 649.639 303.832 C 693.258 364.716 660.002 434.934 587.881 446.963 C 562.687 447.572 539.427 441.815 518.459 427.547 C 449.021 380.295 498.505 280.624 569.554 268.26 z" fill="rgb(235,98,45)" transform="translate(0,0)"></path>
<path d="M 574.137 318.864 C 597.104 316.166 617.892 332.645 620.506 355.621 C 623.121 378.598 606.567 399.325 583.581 401.856 C 560.713 404.374 540.115 387.924 537.514 365.065 C 534.913 342.206 551.288 321.548 574.137 318.864 z" fill="rgb(253,252,252)" transform="translate(0,0)"></path>
<path d="M 1272.49 1537.91 L 1273.92 1538.56 C 1274.67 1549.96 1273.95 1569.84 1273.92 1581.73 L 1273.96 1663.4 C 1273.99 1675.69 1272.86 1694.72 1275.01 1706.13 C 1279.58 1730.37 1303.85 1727.69 1305.1 1702.65 C 1305.86 1687.46 1305.64 1671.92 1305.37 1656.94 C 1305.01 1636.64 1307.5 1630.7 1288.72 1621.56 C 1309.96 1616.06 1325.79 1610.54 1343.92 1598.39 C 1344.07 1620.36 1344.09 1642.33 1343.97 1664.3 C 1343.94 1676.93 1343.11 1694.51 1345.29 1706.77 C 1346.91 1715.88 1355.26 1722.06 1362.73 1726.67 C 1296.14 1726.22 1229.54 1726.17 1162.95 1726.54 L 1162.67 1710.72 C 1160.03 1713.55 1156.11 1717.93 1153.04 1720.1 C 1132.98 1734.25 1100.25 1731.91 1085.44 1711.55 C 1068.72 1676.32 1102.91 1657.84 1131.34 1651.02 C 1141 1648.7 1152.45 1646.49 1161.62 1643.03 L 1162.9 1642.54 C 1162.95 1632.05 1162.06 1617.83 1155.37 1609.56 C 1142.54 1593.69 1120.48 1608.99 1120.4 1626.22 C 1120.37 1634.37 1121.91 1636.42 1127.26 1642.12 C 1109.11 1651.55 1099.48 1649.77 1094.66 1629.34 C 1095.17 1627.6 1095.75 1625.85 1096.41 1624.16 C 1099.95 1615.09 1108.79 1608.36 1117.44 1604.52 C 1132.41 1597.87 1151.58 1597.56 1166.75 1603.78 C 1198.36 1616.73 1201.94 1652.4 1204.39 1681.97 C 1205.25 1692.32 1205.39 1703.43 1209.65 1713.09 C 1211.36 1716.97 1214.21 1721.9 1218.59 1723.15 C 1220.67 1723.74 1222.81 1723.22 1224.7 1722.26 C 1229.51 1719.83 1232.27 1714.26 1233.76 1709.33 C 1236.94 1698.77 1235.8 1599.06 1234.74 1582.71 C 1234.46 1578.34 1234.31 1572.51 1231.97 1568.76 C 1228.46 1563.12 1223.08 1561.49 1216.93 1560.01 C 1238.57 1554.22 1252.81 1547.75 1272.49 1537.91 z" fill="rgb(10,10,10)" transform="translate(0,0)"></path>
<path d="M 1160.36 1648.72 C 1165.42 1650.17 1161.7 1672.35 1162.83 1678.58 C 1166.99 1701.42 1152.6 1712.89 1131.96 1703.43 C 1129.64 1701.22 1125.95 1697.71 1125.26 1694.44 C 1119.49 1667.15 1141.53 1659.12 1160.36 1648.72 z" fill="rgb(253,252,252)" transform="translate(0,0)"></path>
<path d="M 1279.83 1340.06 C 1281.6 1341.94 1280.99 1357.87 1280.98 1361.55 C 1293.68 1347.7 1308.37 1333.6 1329.24 1342.38 C 1333.45 1344.13 1336.68 1347.63 1338.11 1351.96 C 1344.16 1370.03 1323.97 1383.79 1311.8 1374.76 C 1280.98 1350.36 1278.23 1366.19 1280.73 1396.26 C 1283.7 1431.9 1268.13 1450.78 1307.35 1467.52 L 1173.9 1467.64 L 1174.02 1450.12 C 1158.55 1470.73 1138.7 1475.05 1114.51 1466.62 C 1095.82 1460.1 1087.14 1436.7 1096.35 1419.29 C 1104.42 1404.04 1120.71 1398.86 1136.2 1394.23 C 1148.94 1390.98 1160.25 1388.07 1172.75 1384.02 C 1173.03 1373.64 1172.58 1360.6 1166.34 1351.86 C 1159.97 1342.94 1148.47 1342.49 1140.07 1349.08 C 1134.8 1353.28 1131.51 1359.47 1130.99 1366.19 C 1130.38 1374.07 1132.52 1377.09 1137.33 1382.73 C 1132.87 1385.31 1128.46 1387.97 1123.24 1388.62 C 1118.71 1389.17 1113.99 1388.43 1110.47 1385.35 C 1107.06 1382.37 1105.6 1377.72 1105.62 1373.29 C 1105.65 1366.38 1109.36 1360.18 1114.17 1355.45 C 1124.74 1345.04 1140.63 1340.78 1155.16 1340.94 C 1233.45 1341.79 1204.42 1441.79 1223.7 1459.86 C 1225.63 1461.67 1228.14 1462.76 1230.83 1462.41 C 1233.48 1462.07 1235.7 1460.19 1237.25 1458.13 C 1239.83 1454.68 1241.16 1450.26 1241.68 1446.04 C 1243.52 1431.4 1242.78 1388.53 1240.17 1374.14 C 1235.31 1367.4 1232.67 1366.12 1225.65 1362.09 C 1248.48 1355.58 1259.23 1350.48 1279.83 1340.06 z" fill="rgb(10,10,10)" transform="translate(0,0)"></path>
<path d="M 1172.64 1388.84 C 1173.76 1396.84 1174.03 1429.8 1171.85 1437.34 C 1168.61 1448.57 1150.23 1447.71 1140.89 1442.67 C 1120.11 1415.61 1153.98 1400.61 1171.75 1389.41 L 1172.64 1388.84 z" fill="rgb(253,252,252)" transform="translate(0,0)"></path>
<path d="M 949.31 1285.16 L 950.819 1285.08 C 963.965 1284.36 978.25 1285.78 991.234 1284.86 C 1031.78 1281.99 1098.31 1287.47 1100.1 1342.88 C 1100.68 1357.12 1095.34 1370.96 1085.35 1381.12 C 1065.37 1401.75 1034.22 1404.01 1007.57 1404.37 C 1007.66 1417.77 1005.8 1437.12 1008.68 1449.59 C 1010.85 1458.97 1017.72 1462.73 1025.41 1466.82 C 999.968 1467.28 974.522 1467.23 949.084 1466.68 C 959 1461.34 965.838 1457.17 965.773 1444.61 C 965.525 1396.68 968.062 1347.93 964.738 1300.21 C 964.297 1293.87 954.133 1287.96 949.31 1285.16 z" fill="rgb(10,10,10)" transform="translate(0,0)"></path>
<path d="M 1007.48 1290.8 C 1035.35 1290.4 1048.75 1304.77 1052.93 1331.97 C 1055.89 1351.28 1052.82 1370.6 1040.91 1386.58 C 1030.24 1396.91 1021.16 1397.76 1007.26 1399.23 C 1006.53 1364.39 1007.03 1325.66 1007.48 1290.8 z" fill="rgb(253,252,252)" transform="translate(0,0)"></path>
<path d="M 694.791 1599.4 C 696.854 1599.48 698.913 1599.62 700.968 1599.81 C 755.16 1605.13 763.147 1686.55 722.885 1717.54 C 710.62 1726.95 695.025 1730.91 679.756 1728.48 C 669.826 1726.99 664.498 1722.79 658.925 1714.9 C 658.814 1727.81 656.992 1747.07 659.71 1759.12 C 661.858 1768.65 669.135 1772.49 676.913 1776.66 L 656.157 1776.72 C 638.456 1776.48 620.302 1776.01 602.648 1776.61 C 612.17 1770.75 619.211 1766.55 619.121 1753.92 C 618.845 1714.83 621.65 1674.68 618.878 1635.77 C 618.44 1629.63 608.918 1624.19 604.009 1621.5 C 624.86 1615.17 638.52 1608.6 658.213 1599.97 L 658.755 1615.18 C 670.544 1603.54 678.7 1600.76 694.791 1599.4 z" fill="rgb(10,10,10)" transform="translate(0,0)"></path>
<path d="M 668.895 1615.17 C 695.377 1614.04 704.621 1643.93 704.806 1665.53 C 704.965 1684.05 702.025 1699.3 688.781 1713.01 C 685.373 1715.63 679.62 1718.88 675.352 1718.71 C 655.276 1717.88 658.757 1683.6 658.821 1671.01 L 659.088 1621.34 C 663.224 1617.84 663.945 1617.36 668.895 1615.17 z" fill="rgb(253,252,252)" transform="translate(0,0)"></path>
<path d="M 860.405 486.451 C 872.734 495.693 885.166 504.798 897.698 513.762 C 871.654 548.244 848.589 591.391 822.704 624.362 C 800.684 608.788 777.617 594.426 755.539 578.591 L 717.753 648.545 C 700.16 641.729 676.385 629.988 658.821 621.947 C 646.528 616.614 633.928 610.522 621.745 604.825 C 626.014 594.56 639.223 573.614 645.539 563.119 C 662.71 570.879 680.85 580.366 697.802 588.842 C 711.603 564.358 724.708 539.487 737.102 514.262 C 758.263 525.939 789.018 547.951 810.563 561.891 C 822.368 539.982 845.89 508.648 860.405 486.451 z" fill="rgb(235,98,45)" transform="translate(0,0)"></path>
<path d="M 1278.34 797.973 L 1279.8 798.38 C 1281.92 802 1291.96 833.453 1293.95 839.484 C 1256.69 850.951 1226.68 864.031 1199.18 893.185 C 1153.19 941.954 1147.73 991.339 1148.99 1054.52 C 1139.19 1055.08 1127.91 1055.03 1118 1055.23 L 1104.24 1055.93 C 1102.65 1017.96 1102.91 984.837 1113.48 947.63 C 1127.18 899.387 1155.86 857.555 1198.68 830.852 C 1224.46 814.773 1250.1 807.277 1278.34 797.973 z" fill="rgb(235,98,45)" transform="translate(0,0)"></path>
<path d="M 1526.52 987.052 C 1553.13 1012.97 1560.78 1053.65 1548.45 1088.22 C 1538.76 1115.06 1518.79 1136.94 1492.95 1149.05 C 1470.33 1159.37 1444.53 1160.24 1421.26 1151.47 C 1396.56 1142.3 1379.93 1123.85 1369.27 1100.27 C 1362.19 1083.58 1361 1072.8 1360.54 1054.98 C 1375.05 1055.09 1390.1 1055.68 1404.63 1056.09 C 1408.22 1067.77 1413.96 1085.06 1421.77 1094.42 C 1429 1103.17 1439.54 1108.52 1450.87 1109.18 C 1464.33 1109.97 1479.14 1103.47 1488.91 1094.26 C 1499.62 1084.03 1505.69 1069.88 1505.73 1055.06 C 1505.79 1035.6 1496.75 1020.03 1483.44 1006.67 C 1495.98 999.999 1513.05 993.25 1526.52 987.052 z" fill="rgb(47,53,133)" transform="translate(0,0)"></path>
<path d="M 783.333 810.427 C 792.443 810.024 798.789 810.052 807.9 810.491 C 808.219 825.666 807.664 839.788 806.932 854.927 C 801.477 854.739 796.02 854.609 790.562 854.538 C 743.484 854.148 701.814 877.709 674.822 916.071 C 654.627 944.773 650.171 975.172 650.054 1009.54 C 644.079 1009.94 637.077 1009.79 631.011 1009.8 L 602.957 1009.07 C 603.307 955.378 612.344 909.12 649.668 868.164 C 687.663 826.471 729.012 813.536 783.333 810.427 z" fill="rgb(39,161,177)" transform="translate(0,0)"></path>
<path d="M 1188.52 265.387 C 1200.98 263.289 1226.88 265.059 1239.35 267.475 C 1236.1 280.273 1233.15 297.743 1230.51 311.012 C 1217.53 310.84 1205.23 310.893 1192.83 311.942 C 1144.87 316.001 1105.51 358.872 1095.17 404.3 C 1090.39 425.273 1091.56 440.563 1094.62 462.048 L 1093.68 463.537 C 1078.95 467.195 1064.54 470.12 1049.66 473.161 C 1049 468.624 1048.41 464.078 1047.88 459.524 C 1046.73 449.45 1046.59 440.02 1046.42 429.949 C 1044.93 344.888 1102.62 274.283 1188.52 265.387 z" fill="rgb(47,53,133)" transform="translate(0,0)"></path>
<path d="M 528.347 1535.39 C 581.731 1527.46 624.51 1593.25 570.093 1605.28 C 558.711 1602.71 554.03 1599.4 545.143 1592.43 C 560 1582.24 567.274 1566.17 556.788 1548.57 C 548.688 1534.98 523.674 1536.88 512.35 1546.12 C 499.936 1554.92 498.976 1573.51 509.789 1584.48 C 532.58 1607.61 565.815 1619.09 587.571 1644.14 C 606.282 1665.69 605.812 1697.11 582.864 1715.43 C 564.319 1730.23 541.729 1732.05 519.028 1729.78 C 487.453 1724.12 453.925 1701.22 466.622 1666.23 C 474.659 1644.09 513.257 1644.04 522.938 1671.38 C 506.111 1681.11 492.585 1704.08 510.692 1720.28 C 529.419 1737.04 572.034 1721.64 565.846 1691.52 C 561.174 1669.77 541.591 1659.13 522.361 1646.75 C 491.618 1626.96 450.32 1597.19 478.341 1555.4 C 486.934 1542.58 512.598 1536.9 528.347 1535.39 z" fill="rgb(10,10,10)" transform="translate(0,0)"></path>
<path d="M 583.774 925.042 L 584.139 925.312 C 585.496 928.396 580.389 945.092 579.465 950.062 C 577.708 959.506 575.762 969.308 574.032 978.794 C 555.459 992.025 541.471 1006.15 538.983 1030.08 C 537.058 1047.76 542.404 1065.47 553.793 1079.13 C 572.7 1102.12 597.178 1110.14 625.691 1113.11 C 625.206 1127.35 625.35 1142.49 625.258 1156.81 C 609.882 1156.19 601.797 1155.12 586.77 1151.79 C 578.63 1149.88 570.68 1147.24 563.02 1143.89 C 492.056 1112.77 465.258 1025.31 518.938 964.489 C 535.865 945.309 560.21 934.17 583.774 925.042 z" fill="rgb(39,161,177)" transform="translate(0,0)"></path>
<path d="M 675.028 1282 C 674.923 1309.18 675.018 1336.36 675.314 1363.54 C 688.419 1345.6 709.399 1335.35 730.896 1343 C 772.363 1357.76 743.51 1424.64 757.57 1455.7 C 760.965 1463.2 769.248 1464.81 776.112 1467.08 L 695.445 1467.36 C 729.472 1454.25 710.403 1419.88 715.377 1396.19 C 723.046 1359.66 681.561 1357.19 676.027 1375.84 C 672.978 1386.12 676.039 1436.2 677.563 1449.82 C 678.387 1457.18 686.974 1462.81 694.17 1464.46 L 695.277 1466.49 C 692.039 1468.17 685.72 1467.42 681.747 1467.18 C 676.201 1468.63 627.254 1467.56 619.201 1467.17 C 625.597 1463.94 631.846 1460.38 634.809 1453.5 C 638.341 1445.29 638.409 1322.4 634.716 1314.17 C 631.979 1308.08 625.175 1306.14 619.441 1303.91 C 641.652 1298.35 654.539 1291.86 675.028 1282 z" fill="rgb(10,10,10)" transform="translate(0,0)"></path>
<path d="M 1392.53 765.418 C 1451.54 759.998 1513.33 799.903 1549.05 844.06 C 1539.7 853.425 1524.03 866.061 1513.5 874.531 C 1504.15 864.138 1497.04 857.63 1486.22 848.77 C 1444.22 814.974 1388 801.185 1338.48 827.096 C 1330.88 815.967 1323.15 798.665 1316.4 786.007 C 1338.48 772.679 1367.21 767.377 1392.53 765.418 z" fill="rgb(235,98,45)" transform="translate(0,0)"></path>
<path d="M 747.9 428.411 C 775.636 427.578 798.23 433.487 822.796 445.969 C 815.586 460.033 809.927 473.681 803.96 488.286 C 772.665 472.272 742.679 466.585 709.714 483.993 C 689.591 494.619 679.102 512.316 672.982 533.784 L 672.429 534.436 C 668.72 535.302 601.651 520.944 591.835 518.879 C 594.91 506.713 602.189 491.548 606.1 477.374 C 616.652 480.473 628.972 483.36 639.727 486.124 C 641.922 482.84 644.343 479.713 646.974 476.766 C 674.569 445.279 706.372 430.969 747.9 428.411 z" fill="rgb(235,98,45)" transform="translate(0,0)"></path>
<path d="M 1309.36 261.376 C 1321.48 264.408 1340.72 273.743 1352.49 279.282 C 1340.38 305.128 1329.23 331.323 1317.6 357.379 C 1296.87 403.008 1276.65 448.87 1256.96 494.956 C 1253.33 494.063 1220.92 474.562 1214.75 471.177 C 1221.98 454.172 1231.91 434.52 1239.79 417.303 L 1283.37 320.193 C 1291.75 301.651 1302.2 280.159 1309.36 261.376 z" fill="rgb(237,129,142)" transform="translate(0,0)"></path>
<path d="M 822.333 1599.41 C 837.844 1599.7 848.226 1602.28 860.465 1613.32 C 872.121 1623.43 884.728 1649.34 872.909 1663.18 C 865.441 1671.92 847.942 1670.19 837.559 1669.69 C 824.533 1669.06 811.729 1668.98 798.738 1668.97 C 812.754 1692.35 841.335 1705.64 867.218 1691.55 C 872.87 1688.47 876.398 1683.46 880.421 1678.53 C 879.354 1682.45 877.949 1686.41 876.65 1690.27 C 873.744 1697.77 871.151 1703.92 866.042 1710.35 C 845.497 1736.45 802.24 1732.44 779.033 1712.45 C 746.504 1684.44 753.88 1626.14 792.384 1607.05 C 803.095 1601.75 810.603 1600.33 822.333 1599.41 z" fill="rgb(10,10,10)" transform="translate(0,0)"></path>
<path d="M 819.808 1603.16 C 838.537 1602.99 846.434 1621.34 846.691 1638 C 846.997 1657.89 841.687 1663.74 822.544 1664.19 L 796.617 1664.13 C 790.772 1640.87 792.484 1610.85 819.808 1603.16 z" fill="rgb(253,252,252)" transform="translate(0,0)"></path>
<path d="M 832.406 1341.35 C 846.814 1340.77 854.642 1342.61 867.606 1350.71 C 884.039 1359.43 902.81 1407.84 872.651 1410.35 C 853.164 1411.97 830.662 1410.73 810.743 1411.3 C 823.012 1431.12 846.071 1441.92 869.116 1436.99 C 881.087 1434.42 885.688 1427.5 891.518 1418.02 C 890.411 1422.97 889.238 1427.91 888.001 1432.83 C 866.158 1493.79 777.303 1473.37 771.229 1415.28 C 766.994 1374.78 792.715 1345.67 832.406 1341.35 z" fill="rgb(10,10,10)" transform="translate(0,0)"></path>
<path d="M 830.345 1345.11 C 850.784 1344.04 856.415 1358.57 858.924 1376.5 C 861.539 1395.19 854.125 1405.27 836.076 1406.84 C 826.522 1406.77 817.996 1406.63 808.468 1406.04 C 808.323 1405.55 808.178 1405.07 808.033 1404.59 C 803.937 1391.8 804.461 1377.98 809.515 1365.53 C 814.066 1354.4 819.607 1349.48 830.345 1345.11 z" fill="rgb(253,252,252)" transform="translate(0,0)"></path>
<path d="M 1427.66 565.832 L 1428.47 566.822 C 1432.99 604.642 1453.69 647.825 1481.39 673.84 C 1512.79 703.324 1549.48 730.489 1583.28 757.245 C 1576.67 765.868 1568.29 775.546 1561.29 784.034 L 1553.8 792.821 C 1545.4 786.657 1536.33 780.5 1528.12 773.877 C 1476.87 732.52 1414.13 693.676 1411.44 620.213 C 1410.64 598.268 1417.33 583.742 1427.66 565.832 z" fill="rgb(237,129,142)" transform="translate(0,0)"></path>
<path d="M 521.061 758.344 C 567.518 756.089 600.792 816.573 611.967 854.401 C 589.766 866.988 568.479 882.294 545.857 894.284 C 530.748 902.291 515.163 912.515 499.59 919.368 C 490.514 904.909 479.406 889.141 469.805 874.821 C 468.011 872.167 467.097 871.25 466.552 868.058 C 470.247 866.758 503.037 864.066 508.721 863.525 L 609.859 853.71 C 599.997 848.379 582.291 841.757 571.499 837.319 C 538.28 823.657 506.016 812.577 473.775 796.667 C 482.287 776.265 498.597 760.967 521.061 758.344 z" fill="rgb(237,129,142)" transform="translate(0,0)"></path>
<path d="M 473.796 1284.93 C 518.464 1284.61 563.134 1284.66 607.801 1285.07 C 608.493 1306.73 611.137 1322.72 615.192 1343.76 C 608.793 1331.85 599.754 1315.96 590.949 1305.82 C 581.339 1294.75 574.976 1291.29 561.122 1290.28 C 560.939 1299.15 561.031 1308.17 561.062 1317.05 C 561.206 1359.2 560.722 1401.38 561.31 1443.52 C 561.361 1447.16 562.356 1450.45 563.702 1453.8 C 569.194 1461.63 571.43 1462.75 579.631 1467.01 C 552.388 1467.43 524.321 1467.09 497.015 1467.07 C 507.212 1463.46 517.349 1459.51 518.71 1447.4 C 520.688 1429.8 519.905 1410.7 519.862 1392.97 L 519.474 1289.47 C 489.313 1294.73 478.631 1319.48 465.178 1343.81 C 467.006 1326.36 471.219 1303.04 473.796 1284.93 z" fill="rgb(10,10,10)" transform="translate(0,0)"></path>
<path d="M 483.578 618.462 C 506.462 632.795 529.087 647.537 551.443 662.68 C 564.65 671.547 580.886 681.712 592.372 692.396 C 601.505 700.912 609.262 710.792 615.369 721.685 C 629.957 747.669 630.491 774.047 622.781 802.137 C 620.674 796.53 618.45 790.967 616.109 785.454 C 596.918 747.171 572.327 734.609 537.897 711.996 C 510.751 694.256 483.481 676.705 456.091 659.343 C 465.595 645.948 474.76 632.317 483.578 618.462 z" fill="rgb(39,161,177)" transform="translate(0,0)"></path>
<path d="M 944.461 694.595 C 951.136 700.751 953.806 731.851 954.029 741.027 C 955.363 795.846 922.477 834.7 886.485 872.018 C 883.032 868.645 877.307 864.08 873.454 860.835 L 849.558 842.978 C 863.421 823.882 877.907 797.9 890.933 777.836 C 908.87 750.208 926.738 722.36 944.461 694.595 z" fill="rgb(47,53,133)" transform="translate(0,0)"></path>
<path d="M 1412.79 1599.41 C 1424.24 1598.56 1433.01 1599.38 1444.03 1602.89 C 1457.6 1607.21 1470.68 1621.33 1463.89 1636.3 C 1462.26 1639.94 1459.18 1642.74 1455.4 1644.02 C 1447.85 1646.63 1441.95 1643.78 1435.28 1640.7 C 1437.93 1637.95 1439.61 1635.43 1441.86 1632.33 C 1442.74 1623.07 1443.43 1615.88 1436.26 1608.76 C 1419.37 1591.97 1375.98 1613.08 1401.48 1635.17 C 1413.37 1645.08 1428.35 1648.19 1442.11 1654.61 C 1454.31 1660.23 1476.6 1671.91 1476.22 1687.78 C 1475.46 1719.86 1444.96 1728.96 1419.85 1730.19 C 1398.34 1730.21 1348.15 1716.86 1371.65 1685.47 C 1378.15 1676.77 1395.68 1677.64 1402.96 1684.12 C 1404.75 1685.71 1392.61 1695.74 1394.92 1701.25 C 1396.05 1708.86 1395.47 1711.54 1401.42 1717.89 C 1406.06 1722.9 1412.6 1725.72 1419.44 1725.67 C 1431.13 1725.51 1442.64 1715.49 1439.92 1704.61 C 1431.82 1672.19 1369.21 1676.31 1362.95 1640.1 C 1360.62 1626.59 1374.81 1610.62 1386.65 1605.58 C 1396 1601.59 1402.36 1600.29 1412.79 1599.41 z" fill="rgb(10,10,10)" transform="translate(0,0)"></path>
<path d="M 605.283 1042.12 C 654.423 1046.54 698.527 1062.34 725.985 1106.07 C 734.691 1119.94 738.789 1133.41 743.318 1148.9 L 723.5 1158.45 C 714.802 1162.83 708.927 1165.88 700.684 1171.11 C 687.618 1115.38 655.403 1091.39 598.773 1084.5 C 600.378 1070.08 603.698 1056.34 605.283 1042.12 z" fill="rgb(39,161,177)" transform="translate(0,0)"></path>
<path d="M 1287.77 528.315 C 1305.07 526.013 1322.66 529.021 1338.21 536.94 C 1366.47 551.308 1377.02 571.548 1386.15 600.171 C 1371.28 603.557 1357.28 606.82 1342.58 610.842 C 1337.39 596.227 1335.97 590.96 1323.95 580.732 C 1295.98 564.343 1279.01 576.784 1262.95 600.171 C 1250.78 596.048 1232.03 587.41 1220.33 581.751 C 1236.51 553.443 1253.93 533.781 1287.77 528.315 z" fill="rgb(39,161,177)" transform="translate(0,0)"></path>
<path d="M 1427.09 1342.19 C 1446.86 1342.33 1466.63 1342.23 1486.4 1341.88 C 1484.95 1343.66 1480.15 1349.52 1479.74 1351.23 C 1475.85 1367.51 1499.39 1414.84 1506.26 1429.27 C 1518.29 1401.23 1540.42 1366.47 1512.7 1341.86 C 1528.4 1342.27 1544.11 1342.38 1559.81 1342.19 C 1536.96 1362.06 1534.72 1369.2 1524.09 1396.54 C 1519 1409.58 1513.99 1422.65 1509.05 1435.75 C 1498.66 1462.92 1483.19 1526.08 1441.7 1512.97 C 1426.02 1508.01 1425.45 1480.93 1442.06 1474.24 C 1457.99 1467.83 1474.16 1491.06 1482.03 1487.89 C 1486.95 1482.51 1489.44 1475.15 1491.87 1468.35 L 1478.12 1466.09 C 1469.76 1441.19 1461.26 1418.3 1451.15 1394.08 C 1442.47 1373.28 1440.91 1360.38 1427.09 1342.19 z" fill="rgb(10,10,10)" transform="translate(0,0)"></path>
<path d="M 942.584 1600.24 C 955.968 1598.57 964.364 1599.7 978.169 1605.05 C 996.875 1612.3 1009.3 1641.05 986.296 1651.37 C 979.244 1654.54 969.542 1649.91 962.553 1646.46 C 983.843 1625.48 962.342 1588.76 938.322 1606.8 C 909.837 1628.19 918.239 1677.01 949.991 1691.12 C 958.765 1695.02 962.643 1695.78 972.028 1696.65 C 975.292 1696.49 978.549 1696.21 981.793 1695.81 C 995.338 1694.14 1000.08 1687.4 1007.74 1677.46 C 1002.49 1701.59 990.613 1723.11 964.108 1728.14 C 946.283 1731.52 927.315 1726.9 912.471 1716.68 C 899.15 1707.56 890.02 1693.5 887.107 1677.62 C 883.863 1659.7 888.01 1641.23 898.603 1626.42 C 909.799 1610.65 923.956 1603.43 942.584 1600.24 z" fill="rgb(10,10,10)" transform="translate(0,0)"></path>
<path d="M 645.058 664.946 C 688.738 678.79 724.642 704.2 714.408 758.049 C 710.367 779.311 693.395 794.787 675.312 805.691 C 665.732 810.547 659.393 812.535 649.111 815.177 C 649.554 798.536 647.988 790.066 645.5 773.656 C 671.516 755.273 669.32 733.94 650.942 709.543 C 645.862 702.799 638.751 698.957 631.183 695.484 L 645.058 664.946 z" fill="rgb(235,98,45)" transform="translate(0,0)"></path>
<path d="M 1197.61 986.711 C 1199.77 988.717 1201.41 992.519 1202.84 995.203 C 1211.52 1011.52 1216.25 1029.16 1216.67 1047.75 C 1217.89 1102.46 1194.38 1134.24 1159.48 1171.84 L 1154.22 1166.28 C 1146.13 1157.2 1136.16 1147.23 1127.68 1138.31 C 1163.15 1085.7 1181.33 1049.19 1197.61 986.711 z" fill="rgb(235,98,45)" transform="translate(0,0)"></path>
<path d="M 859.112 247.619 C 864.085 250.236 884.293 275.923 888.787 281.703 C 878.757 295.153 869.917 310.755 861.377 325.301 C 845.38 352.197 830.415 379.694 816.516 407.732 L 810.904 419.489 C 801.093 397.865 797.072 379.268 798.495 355.457 C 801.353 307.606 825.048 278.103 859.112 247.619 z" fill="rgb(39,161,177)" transform="translate(0,0)"></path>
<path d="M 1242.07 1004.44 C 1249.74 1007.35 1279.83 1035.2 1289.06 1042.09 C 1327.93 1071.08 1343.06 1105.56 1313.06 1148.41 C 1308.95 1153.86 1304.11 1158.53 1299.33 1163.4 C 1291.7 1147.83 1280.67 1132.92 1271.3 1118.05 C 1249.58 1083.62 1245.59 1044.39 1242.07 1004.44 z" fill="rgb(235,98,45)" transform="translate(0,0)"></path>
<path d="M 1017.57 891.413 C 1034.95 889.289 1072 891.802 1089.25 893.142 C 1085.16 907.588 1080.31 923.596 1074.04 937.188 C 1043.41 935.076 1015.83 932.417 987.986 947.622 C 986.076 948.976 984.158 950.318 982.232 951.649 C 968.377 961.405 946.731 960.442 928.278 963.118 C 936.423 912.296 969.525 895.41 1017.57 891.413 z" fill="rgb(237,129,142)" transform="translate(0,0)"></path>
<path d="M 717.295 252.685 C 719.847 254.296 754.895 302.456 757.785 307.246 C 773.344 333.046 776.209 373.292 779.377 403.246 C 774.382 400.239 769.879 396.582 765.243 393.032 C 737.654 373.569 692.852 345.739 692.104 308.533 C 691.649 285.902 702.128 268.516 717.295 252.685 z" fill="rgb(39,161,177)" transform="translate(0,0)"></path>
<path d="M 1256.26 904.199 C 1281.33 902.4 1279.02 912.939 1296.78 922.073 C 1305.24 921.09 1325.25 920.025 1331.36 928.972 C 1349.11 954.967 1335.74 983.067 1303 981.759 C 1295.55 979.593 1292.75 975.611 1287.35 969.999 C 1273.44 980.054 1257.15 983.317 1241.89 973.66 C 1233.55 968.453 1227.64 960.123 1225.48 950.527 C 1220.29 927.032 1233.25 908.998 1256.26 904.199 z" fill="rgb(237,129,142)" transform="translate(0,0)"></path>
<path d="M 1325.43 415.826 C 1339.68 417.907 1354.09 418.657 1368.86 420.957 C 1368.05 459.601 1383.63 490.188 1427.13 491.463 C 1427.16 497.524 1428.03 533.676 1425.74 537.265 C 1359.57 534.641 1312.07 482.436 1325.43 415.826 z" fill="rgb(235,98,45)" transform="translate(0,0)"></path>
<path d="M 948.565 311.361 C 954.418 310.435 973.443 311.027 980.147 311.124 C 980.35 330.959 980.057 346.109 967.616 362.823 C 952.307 383.39 926.802 391.051 902.549 394.675 C 891.396 396.175 882.653 396.236 871.425 396.464 C 875.527 343.942 895.147 318.433 948.565 311.361 z" fill="rgb(235,98,45)" transform="translate(0,0)"></path>
<path d="M 808.238 881.238 C 843.33 883.129 871.734 891.447 894.263 920.505 C 909.687 940.398 912.834 958.636 912.804 983.057 C 848.095 975.611 811.537 950.136 808.238 881.238 z" fill="rgb(237,129,142)" transform="translate(0,0)"></path>
<path d="M 1395.29 1296.03 L 1395.65 1342.53 C 1403.67 1342.5 1409.81 1342.6 1417.78 1343.23 L 1418.16 1345.77 C 1415.75 1346.24 1399.3 1346.71 1395.95 1346.87 L 1395.74 1403.27 C 1395.71 1411.33 1394.68 1424.7 1396.3 1432.23 C 1401.49 1456.43 1417.25 1454.83 1431.92 1441.47 C 1428.94 1447.17 1427 1450.64 1422.92 1455.96 C 1410.92 1472.31 1379.67 1474.43 1364.88 1461.38 C 1351.56 1449.63 1354.74 1420.22 1354.76 1403.65 C 1354.8 1384.48 1354.67 1365.3 1354.38 1346.13 C 1349.14 1346.2 1345.13 1346.51 1339.97 1345.5 L 1339.83 1344.4 C 1347.33 1340.07 1358.8 1340.53 1367.44 1335.66 C 1385.43 1325.54 1389.87 1314.05 1395.29 1296.03 z" fill="rgb(10,10,10)" transform="translate(0,0)"></path>
<path d="M 1377.26 843.774 C 1381.89 844.168 1386.44 844.941 1391.01 845.76 C 1395.87 846.621 1400.71 847.613 1405.52 848.736 C 1438.24 856.264 1469.39 877.527 1474.94 913.003 C 1476.76 924.607 1475.67 932.056 1474.73 943.403 C 1449.08 940.374 1407.08 925.601 1391.77 904.165 C 1375.69 881.652 1375.03 869.519 1377.26 843.774 z" fill="rgb(39,161,177)" transform="translate(0,0)"></path>
<path d="M 1530.1 1560.8 C 1531.17 1554.61 1532.36 1562.99 1532.01 1571.24 L 1531.86 1574.39 L 1531.92 1600.65 C 1539.92 1600.62 1546.43 1600.01 1554.02 1602.5 L 1553.38 1603.52 C 1546.66 1605.32 1539.2 1604.77 1532.16 1604.65 L 1531.94 1660.52 C 1531.91 1669.11 1530.91 1681.85 1532.32 1689.99 C 1536.51 1714.29 1551.31 1715.25 1567.44 1701.76 C 1558.58 1717.26 1550.35 1728.14 1530.98 1729.26 C 1521.04 1730.12 1510.27 1727.92 1502.74 1720.87 C 1488.28 1707.32 1491.49 1678.54 1491.57 1660.03 C 1491.77 1641.67 1491.72 1623.32 1491.42 1604.96 C 1484.07 1605 1477.3 1604.74 1469.95 1604.42 C 1499.62 1594.6 1518.65 1599.09 1530.1 1560.8 z" fill="rgb(10,10,10)" transform="translate(0,0)"></path>
<path d="M 1530.1 1560.8 C 1531.17 1554.61 1532.36 1562.99 1532.01 1571.24 L 1531.86 1574.39 C 1531.11 1569.07 1531.43 1566.02 1530.1 1560.8 z" fill="rgb(103,101,103)" transform="translate(0,0)"></path>
<path d="M 1463.92 532.293 C 1463.94 531.396 1463.95 530.499 1463.96 529.602 C 1465.05 530.128 1466.14 530.642 1467.24 531.146 L 1467.62 534.459 C 1500.69 559.661 1540.03 592.254 1571.05 619.429 C 1545.85 650.925 1512.17 655.185 1485.24 621.794 C 1463.64 595.024 1460.23 565.824 1463.92 532.293 z" fill="rgb(237,129,142)" transform="translate(0,0)"></path>
<path d="M 1463.92 532.293 C 1463.94 531.396 1463.95 530.499 1463.96 529.602 C 1465.05 530.128 1466.14 530.642 1467.24 531.146 L 1467.62 534.459 L 1463.92 532.293 z" fill="rgb(229,223,226)" transform="translate(0,0)"></path>
<path d="M 1047.6 704.415 C 1094.23 697.108 1124.78 720.314 1140.78 762.885 C 1126.29 770.133 1115.58 771.735 1099.75 771.45 C 1060.2 769.61 1022.81 740.602 1002.45 708.012 C 1014.4 706.315 1034.79 705.399 1047.6 704.415 z" fill="rgb(47,53,133)" transform="translate(0,0)"></path>
<path d="M 1126.92 436.663 C 1148.28 439.699 1166.29 443.761 1182.1 459.545 C 1206.8 484.21 1214.72 517.322 1214.96 551.236 C 1143.43 539.466 1134.24 503.142 1126.92 436.663 z" fill="rgb(39,161,177)" transform="translate(0,0)"></path>
<path d="M 985.645 731.581 C 988.206 733.208 995.029 740.583 997.466 743.107 C 1015.43 761.707 1028.14 776.387 1036.95 800.833 C 1042.43 816.047 1046.95 846.96 1040.03 861.454 C 1036.49 863.502 1037.37 862.811 1032.46 862.468 C 1026.27 861.582 1020.22 859.837 1014.51 857.285 C 996.954 849.318 985.291 834.208 978.888 816.359 C 968.175 786.495 972.387 759.577 985.645 731.581 z" fill="rgb(47,53,133)" transform="translate(0,0)"></path>
<path d="M 1404.69 962.394 C 1443.07 961.606 1461.36 990.825 1463.67 1025.1 C 1447.38 1024.4 1429.83 1022.88 1413.43 1021.82 C 1392.99 1019.74 1371.02 1018.72 1350.06 1016.78 C 1353 985.09 1372.7 965.331 1404.69 962.394 z" fill="rgb(47,53,133)" transform="translate(0,0)"></path>
<path d="M 1286.36 637.41 C 1288.85 637.08 1291.85 636.662 1293.78 638.143 C 1294.76 649.289 1294.16 668.208 1294.1 680.007 C 1294.1 704.535 1293.76 729.061 1293.09 753.58 C 1283.33 755.548 1271.44 757.22 1261.46 758.857 C 1261.04 755.096 1260.11 751.005 1259.36 747.264 C 1252.57 716.464 1242.96 672.201 1239.54 641.351 C 1255.01 640.243 1270.86 638.717 1286.36 637.41 z" fill="rgb(235,98,45)" transform="translate(0,0)"></path>
<path d="M 1060.66 1599.94 C 1065.63 1603.2 1061.55 1687.68 1062.92 1699.16 C 1064.83 1715.15 1065.91 1718 1080.16 1726.11 C 1056.31 1726.33 1032.46 1726.35 1008.6 1726.18 L 1008.74 1724.82 C 1025.18 1715.63 1026.18 1701.98 1024.29 1684.73 C 1021.07 1655.32 1036.25 1633.91 1004.67 1621.74 C 1030.37 1614.99 1037.35 1612.63 1060.66 1599.94 z" fill="rgb(10,10,10)" transform="translate(0,0)"></path>
<path d="M 554.234 551.554 C 574.835 548.908 593.664 563.509 596.23 584.12 C 598.796 604.732 584.121 623.503 563.499 625.988 C 542.992 628.458 524.348 613.883 521.796 593.385 C 519.245 572.888 533.747 554.186 554.234 551.554 z" fill="rgb(47,53,133)" transform="translate(0,0)"></path>
<path d="M 784.646 656.014 C 804.947 653.648 823.281 668.294 825.459 688.617 C 827.636 708.939 812.821 727.137 792.479 729.126 C 772.402 731.089 754.492 716.509 752.343 696.45 C 750.194 676.392 764.608 658.348 784.646 656.014 z" fill="rgb(235,98,45)" transform="translate(0,0)"></path>
<path d="M 1344.43 642.25 C 1354.39 646.779 1382.24 662.496 1391.69 668.246 C 1381.84 692.351 1372.4 716.933 1362.19 740.842 C 1349.86 741.798 1333.7 744.892 1320.35 746.277 C 1328.96 719.504 1337.82 671.503 1344.43 642.25 z" fill="rgb(235,98,45)" transform="translate(0,0)"></path>
<path d="M 1198.54 669.762 L 1199.7 670.152 C 1203.51 674.503 1233.32 748.269 1239.35 760.865 C 1231.79 766.185 1224.13 771.381 1216.4 776.45 L 1205.71 764.941 C 1188.82 746.877 1170.86 729.536 1153.98 711.281 C 1169.43 697.447 1183.43 683.595 1198.54 669.762 z" fill="rgb(235,98,45)" transform="translate(0,0)"></path>
<path d="M 738.666 897.274 C 747.475 896.631 755.086 896.288 762.988 900.846 C 779.466 910.351 783.988 932.322 774.558 948.316 C 768.249 959.017 759.192 962.453 748.114 965.964 L 747.019 966.107 C 697.683 972.971 691.132 908.94 738.666 897.274 z" fill="rgb(237,129,142)" transform="translate(0,0)"></path>
<path d="M 849.58 1088.42 C 849.929 1088.41 852.306 1088.26 852.443 1089.08 C 853.71 1096.67 853.558 1106.94 852.121 1114.5 C 850.59 1122.28 847.654 1129.72 843.458 1136.45 C 829.782 1158.07 809.395 1164.69 785.35 1167.09 C 784.842 1166.91 784.331 1166.74 783.816 1166.59 C 782.85 1166.28 781.159 1165.88 781.042 1164.55 C 779.764 1148.09 780.335 1131.64 789.913 1117.44 C 805.463 1094.4 823.931 1089.9 849.58 1088.42 z" fill="rgb(47,53,133)" transform="translate(0,0)"></path>
<path d="M 525.595 468.305 C 530.201 467.588 537.385 467.966 542.155 468.139 C 543.753 483.959 542.52 497.225 534.93 511.454 C 526.671 526.901 512.394 538.247 495.481 542.806 C 493.315 543.396 491.136 543.939 488.947 544.434 C 482.968 545.237 477.137 545.308 471.117 545.356 C 470.635 539.013 470.07 533.423 470.376 527 C 471.914 494.749 494.338 472.936 525.595 468.305 z" fill="rgb(47,53,133)" transform="translate(0,0)"></path>
<path d="M 1558.94 890.336 C 1563.37 889.86 1568.04 889.944 1572.52 889.894 C 1576.31 931.911 1559.52 957.927 1517.34 966.948 C 1511.93 967.168 1506.53 967.248 1501.12 967.187 C 1500.92 960.669 1500.56 954.013 1501.1 947.501 C 1503.88 914.396 1527.64 895.067 1558.94 890.336 z" fill="rgb(47,53,133)" transform="translate(0,0)"></path>
<path d="M 1178.45 346.251 C 1197.29 342.383 1215.73 354.393 1219.8 373.183 C 1223.88 391.973 1212.07 410.542 1193.32 414.823 C 1181.01 417.634 1168.14 413.614 1159.62 404.296 C 1151.1 394.979 1148.24 381.802 1152.14 369.791 C 1156.04 357.781 1166.09 348.791 1178.45 346.251 z" fill="rgb(47,53,133)" transform="translate(0,0)"></path>
<path d="M 1463.96 529.602 C 1492.68 516.297 1526.26 500.431 1554.09 485.767 L 1588.71 552.591 C 1552.9 547.517 1502.91 538.269 1467.24 531.146 C 1466.14 530.642 1465.05 530.128 1463.96 529.602 z" fill="rgb(237,129,142)" transform="translate(0,0)"></path>
<path d="M 985.775 406.261 C 993.315 405.881 999.153 406.732 1005.96 410.251 C 1013.5 414.201 1019.11 421.054 1021.49 429.229 C 1026.85 447.176 1016.6 464.553 998.491 468.933 C 996.453 469.446 994.4 469.901 992.335 470.295 C 936.839 469.859 947.593 413.17 981.998 406.933 L 985.775 406.261 z" fill="rgb(237,129,142)" transform="translate(0,0)"></path>
<path d="M 1018.66 256.922 C 1030.56 255.939 1042.08 261.425 1048.81 271.288 C 1055.55 281.151 1056.46 293.872 1051.22 304.599 C 1045.97 315.327 1035.36 322.409 1023.44 323.145 C 1005.27 324.267 989.59 310.553 988.28 292.398 C 986.97 274.243 1000.52 258.419 1018.66 256.922 z" fill="rgb(237,129,142)" transform="translate(0,0)"></path>
<path d="M 701.14 1003.18 C 717.611 1002.14 733.144 999.277 749.413 997.539 C 751.838 1009.54 768.727 1069.96 774.027 1079.39 C 772.431 1079.79 770.84 1080.2 769.253 1080.63 C 767.313 1080.19 765.396 1079.66 763.483 1079.22 C 755.376 1077.41 747.637 1074.24 740.596 1069.83 C 715.22 1054.16 705.957 1031.1 701.14 1003.18 z" fill="rgb(235,98,45)" transform="translate(0,0)"></path>
<path d="M 795.375 993.473 C 812.75 996.51 830.111 999.716 847.521 1002.47 C 842.077 1037.42 819.319 1072.89 783.055 1081.24 L 783.719 1079.51 C 786.669 1050.32 792.136 1022.17 795.375 993.473 z" fill="rgb(235,98,45)" transform="translate(0,0)"></path>
<path d="M 871.968 421.018 C 886.3 421.039 903.138 420.205 915.038 429.487 C 933.356 443.776 932.848 466.333 933.136 487.292 C 885.576 485.643 873.083 467 871.968 421.018 z" fill="rgb(237,129,142)" transform="translate(0,0)"></path>
<path d="M 892.22 608.432 C 908.51 607.422 922.574 619.72 923.748 635.998 C 924.921 652.277 912.766 666.464 896.5 667.802 C 885.831 668.68 875.513 663.76 869.478 654.918 C 863.443 646.076 862.621 634.675 867.325 625.059 C 872.03 615.443 881.536 609.094 892.22 608.432 z" fill="rgb(39,161,177)" transform="translate(0,0)"></path>
<path d="M 1138.49 799.357 C 1141.87 798.894 1145.59 798.997 1149.02 798.955 C 1149.17 834.617 1141.78 857.06 1102.29 862.682 C 1099.15 863.109 1095.27 862.985 1092.05 863.001 C 1090.11 826.272 1098.15 804.324 1138.49 799.357 z" fill="rgb(39,161,177)" transform="translate(0,0)"></path>
<path d="M 1170.4 587.36 C 1185.56 584.71 1200.06 594.621 1203.1 609.7 C 1206.13 624.78 1196.6 639.531 1181.6 642.954 C 1171.55 645.247 1161.05 641.908 1154.17 634.234 C 1147.29 626.559 1145.11 615.756 1148.49 606.017 C 1151.86 596.278 1160.25 589.135 1170.4 587.36 z" fill="rgb(39,161,177)" transform="translate(0,0)"></path>
<path d="M 856.453 686.367 C 870.946 682.298 886.005 690.695 890.162 705.163 C 894.319 719.632 886.014 734.742 871.571 738.986 C 857.004 743.267 841.735 734.874 837.543 720.282 C 833.35 705.689 841.835 690.471 856.453 686.367 z" fill="rgb(47,53,133)" transform="translate(0,0)"></path>
<path d="M 1323.29 859.604 C 1337.71 857.497 1351.18 867.255 1353.67 881.61 C 1356.17 895.965 1346.77 909.695 1332.49 912.573 C 1322.9 914.505 1313.02 911.08 1306.69 903.629 C 1300.36 896.178 1298.57 885.875 1302.02 876.725 C 1305.47 867.574 1313.61 861.018 1323.29 859.604 z" fill="rgb(237,129,142)" transform="translate(0,0)"></path>
<path d="M 777.702 738.146 C 792.384 736.304 805.782 746.702 807.643 761.381 C 809.504 776.059 799.124 789.471 784.447 791.351 C 769.744 793.235 756.302 782.831 754.438 768.125 C 752.574 753.42 762.994 739.991 777.702 738.146 z" fill="rgb(237,129,142)" transform="translate(0,0)"></path>
<path d="M 1317.42 1544.32 C 1329.81 1541.33 1342.32 1548.76 1345.63 1561.07 C 1348.94 1573.38 1341.84 1586.09 1329.63 1589.72 C 1321.43 1592.16 1312.56 1589.95 1306.46 1583.97 C 1300.35 1577.98 1297.98 1569.15 1300.26 1560.91 C 1302.53 1552.67 1309.1 1546.32 1317.42 1544.32 z" fill="rgb(10,10,10)" transform="translate(0,0)"></path>
<path d="M 1037.26 1544.06 C 1050.13 1542.23 1062.04 1551.22 1063.82 1564.1 C 1065.6 1576.98 1056.57 1588.86 1043.68 1590.59 C 1030.86 1592.31 1019.06 1583.34 1017.29 1570.52 C 1015.52 1557.71 1024.45 1545.87 1037.26 1544.06 z" fill="rgb(10,10,10)" transform="translate(0,0)"></path>
<path d="M 774.027 1079.39 C 778.516 1078.89 779.098 1079.07 783.719 1079.51 L 783.055 1081.24 C 778.293 1080.99 773.95 1081.29 769.253 1080.63 C 770.84 1080.2 772.431 1079.79 774.027 1079.39 z" fill="rgb(226,182,165)" transform="translate(0,0)"></path>
<path d="M 1417.78 1343.23 L 1419.73 1343.09 C 1428.21 1342.39 1424.21 1344.61 1418.16 1345.77 L 1417.78 1343.23 z" fill="rgb(229,223,226)" transform="translate(0,0)"></path>
<metadata><recraft-signature>{"signed_by": "recraft", "signature_b64": "HHgDYW2KNyo/vXgcHQ81C8XPsEFQS3HwBDwdDVpSP7NPGx4OaC7Y5oHlHuAMH5uYColnhSXUEqjLL/t+taf3Cg==", "signing_algo": "Ed25519", "generation_timestamp": 1772546575, "identifier": "8956b38b-8ad4-43ee-9ac5-0b15ad488919"}</recraft-signature></metadata></svg>