<svg xmlns="http://www.w3.org/2000/svg" height="1024" preserveAspectRatio="none" style="display: block;" version="1.1" viewBox="0 0 2048 2048" width="1024">
<path d="M 0 0 L 2048 0 L 2048 2048 L 0 2048 L 0 0 z" fill="rgb(243,232,204)" transform="translate(0,0)"></path>
<path d="M 1428.82 691.417 C 1462.76 687.123 1501.95 706.683 1522.3 733.537 C 1543.51 761.539 1546.66 799.54 1541.7 833.245 C 1534.16 884.547 1506.97 929.85 1468.81 964.238 C 1455.42 976.363 1441.06 985.484 1426.72 996.132 C 1430.28 1011.07 1436.47 1022.12 1437.59 1038.12 L 1430.13 1045.43 C 1424.85 1046.83 1410.71 1046.26 1409.8 1051.92 C 1401.82 1107.85 1408.75 1165.88 1408.44 1222.46 C 1407.88 1322.94 1369.69 1420.73 1313.54 1502.99 C 1306.72 1512.98 1297.77 1521.9 1291.47 1532.67 C 1295.64 1534.67 1299.93 1536.31 1304.23 1538.04 C 1315.48 1527.24 1328.92 1516.54 1339.66 1504.75 C 1361.85 1480.38 1389.16 1445.81 1403.77 1416.13 C 1413.34 1393.03 1424.86 1367.41 1431.5 1343.37 C 1442.74 1302.73 1452.67 1278.15 1480.17 1245.09 C 1456.52 1225.8 1488.97 1214.51 1506.11 1201.69 C 1503.67 1141.95 1499.63 1093.8 1533.88 1039.44 C 1551.84 1010.93 1580.49 987.308 1613.94 980.007 C 1641.1 973.924 1669.56 978.99 1692.96 994.071 C 1715.53 1008.69 1732.03 1031 1737.63 1057.46 C 1744.1 1087.39 1738.48 1118.68 1721.98 1144.48 C 1693.65 1188.04 1641.18 1213.21 1590.2 1216.97 C 1578.8 1217.81 1551.91 1216.7 1543.38 1218.44 C 1515.98 1224.03 1540.6 1289.96 1496.42 1256.7 C 1453.9 1301.35 1452 1352.41 1429.2 1405.87 C 1410.36 1450.04 1362.52 1518.09 1322.97 1545.9 C 1342.14 1556.03 1363.53 1563.32 1383.36 1572.4 C 1401.5 1580.7 1503.27 1630.18 1509.88 1643.7 C 1514.81 1653.78 1503.81 1673.31 1510.49 1684.32 C 1516.98 1695.01 1534.02 1692.61 1540.59 1703.84 C 1543.3 1708.48 1544.01 1714.66 1542.43 1719.8 C 1540.76 1725.22 1536.81 1728.83 1532.64 1732.43 C 1522.1 1741.55 1510.73 1749.93 1499.8 1758.59 L 1437.53 1807.85 L 1312.35 1907.52 L 1238.78 1965.94 C 1224.01 1977.73 1205.45 1999.41 1185.78 1994.11 C 1169.4 1989.69 1153.17 1984.29 1137.04 1978.98 L 1040.78 1947.04 L 763.6 1853.77 C 755.174 1850.95 689.668 1827.13 685.008 1828.26 C 663.238 1833.53 654.898 1833.27 632.384 1819.33 C 618.761 1810.9 615.259 1804.74 617.477 1789.49 C 613.377 1786.91 599.2 1772.88 593.792 1768.09 C 575.745 1752.3 557.619 1736.61 539.413 1721 L 298.384 1509.22 L 218.785 1439.86 C 209.257 1431.61 181.578 1409.56 176.825 1400.27 C 189.266 1383.08 224.854 1357.95 242.138 1343.31 C 261.935 1326.53 283.349 1309.44 303.41 1292.8 L 408.251 1206.37 C 428.687 1189.43 459.649 1162.46 481.121 1148.25 C 492.271 1151.24 503.337 1156.24 514.29 1160.36 C 553.737 1150.58 598.574 1131.84 638.771 1119.86 C 650.337 1125.21 662.8 1133.78 673.664 1140.88 C 753.564 1193.12 834.1 1261.13 876.658 1348.27 C 903.927 1404.1 927.381 1472.22 929.111 1534.18 C 933.643 1531.59 938.221 1529.09 942.845 1526.68 C 1051.01 1469.93 1160.08 1491.3 1270.18 1525.69 C 1331.61 1459.2 1375.54 1357.46 1387.6 1267.68 C 1390.54 1245.79 1389.49 1215.5 1389.24 1192.93 C 1388.78 1150.16 1382.15 1088.37 1391.25 1047.05 L 1391.6 1045.48 C 1385.53 1045.57 1378.64 1046.07 1373.56 1041.98 C 1361.64 1032.4 1384.1 1003.11 1391.84 994.881 C 1384.32 984.867 1373.75 974.636 1365.72 964.115 C 1338.71 928.83 1319.74 890.59 1314.65 846.071 C 1305.3 764.383 1343.21 700.522 1428.82 691.417 z" fill="rgb(83,29,29)" transform="translate(0,0)"></path>
<path d="M 635.21 1131.62 C 662.779 1136.86 764.407 1220.89 786.783 1243.48 C 807.246 1263.95 825.861 1286.18 842.412 1309.92 C 876.235 1357.53 906.559 1440.73 915.522 1499.01 C 917.346 1510.87 919.865 1528.46 917.881 1540.28 C 856.69 1580.6 688.743 1710.17 654.69 1772.97 C 654.219 1768 653.513 1758.17 652.469 1753.78 C 623.87 1623.85 548.066 1495.87 439.251 1417.46 C 411.12 1396.86 380.344 1380.15 347.751 1367.77 C 358.762 1359.01 370.852 1351.15 381.935 1342.33 C 451.101 1287.29 523.193 1236.8 587.286 1175.56 C 601.877 1161.62 623.86 1147.73 635.21 1131.62 z" fill="rgb(243,232,204)" transform="translate(0,0)"></path>
<path d="M 500.239 1325 C 507.698 1326.8 515.097 1331.65 521.553 1335.67 C 556.327 1357.32 588.157 1387.68 615.951 1417.55 C 637.333 1440.53 749.725 1592.01 751.244 1613.4 C 751.483 1616.76 749.388 1618.23 747.401 1620.63 C 745.971 1619.69 743.609 1617.9 742.786 1616.46 C 731.942 1597.4 721.023 1578.61 708.638 1560.47 C 657.806 1486.01 606.99 1409.57 532.642 1356.26 C 524.197 1350.2 502.616 1338.82 497.208 1332.1 C 497.041 1329.11 498.545 1327.58 500.239 1325 z" fill="rgb(83,29,29)" transform="translate(0,0)"></path>
<path d="M 544.572 1291.25 C 553.647 1293.61 576.876 1311.55 585.359 1317.95 C 662.171 1375.89 722.746 1453.04 771.078 1535.66 C 778.424 1548.22 791.396 1567.94 794.892 1582.57 C 795.621 1585.62 793.527 1587.57 791.882 1589.63 C 784.098 1587.06 773.478 1561.81 769.079 1553.47 C 761.651 1539.62 753.629 1526.1 745.036 1512.95 C 693.884 1433.97 634.551 1360.44 554.353 1309.11 C 550.58 1306.69 542.961 1301.87 540.833 1298.04 C 540.948 1295.06 542.633 1293.65 544.572 1291.25 z" fill="rgb(83,29,29)" transform="translate(0,0)"></path>
<path d="M 641.526 1209.85 C 646.359 1212.2 662.337 1223.89 666.867 1227.61 C 736.74 1284.95 803.657 1357.17 852.688 1433.1 C 856.666 1439.26 865.286 1453.04 866.236 1460.45 C 866.541 1462.83 863.743 1464.57 861.931 1466.17 C 855.159 1460.83 840.891 1434.99 835.062 1425.98 C 827.28 1413.69 818.924 1401.78 810.022 1390.28 C 776.531 1347.46 739.924 1307.18 700.499 1269.76 C 688.974 1259 677.21 1248.78 665.017 1238.8 C 658.189 1233.21 639.422 1223.21 637.437 1215.55 C 638.44 1211.91 638.351 1212.88 641.526 1209.85 z" fill="rgb(83,29,29)" transform="translate(0,0)"></path>
<path d="M 588.226 1252.71 C 599.919 1252.75 618.564 1266.9 628.471 1273.59 C 697.317 1320.02 755.413 1383.94 798.107 1454.91 C 800.502 1458.9 799.667 1460.71 798.336 1464.49 C 797.336 1464.38 793.388 1464.05 792.734 1463.16 C 781.871 1448.42 771.64 1432.56 760.989 1417.66 C 724.602 1367.48 680.437 1323.44 630.16 1287.19 C 616.809 1277.47 601.085 1269.6 588.204 1259.98 C 586.71 1256.32 587.222 1257.35 588.226 1252.71 z" fill="rgb(83,29,29)" transform="translate(0,0)"></path>
<path d="M 577.818 1472.51 C 595.945 1477.22 704.249 1630.95 701.611 1653.13 C 699.446 1656.89 700.903 1655.48 697.092 1657.51 C 691.94 1652.44 689.104 1646.78 685.972 1640.39 C 672.394 1612.68 655.975 1585.57 638.335 1560.2 C 625.391 1541.47 611.425 1523.46 596.5 1506.25 C 591.688 1500.68 574.073 1482.55 571.488 1478.3 C 572.426 1475.41 575.107 1474.28 577.818 1472.51 z" fill="rgb(83,29,29)" transform="translate(0,0)"></path>
<path d="M 434.531 1364.42 C 459.771 1372.94 542.004 1432.46 556.053 1452.93 C 556.591 1456.93 556.032 1456.38 554.188 1460.74 C 544.902 1457.56 520.916 1432.5 509.807 1424.56 C 494.314 1413.48 479.038 1402.15 462.643 1391.68 C 455.468 1387.09 436.65 1376.4 432.088 1371.49 C 431.62 1368.55 432.981 1367.07 434.531 1364.42 z" fill="rgb(83,29,29)" transform="translate(0,0)"></path>
<path d="M 811.756 1486.37 C 822.505 1487.13 830.567 1507.9 834.111 1517.03 C 835.677 1521.06 834.348 1522.94 832.439 1526.45 L 827.656 1524.83 C 822.536 1518.58 813.974 1501.15 810.324 1493.38 C 808.88 1490.3 810.397 1488.79 811.756 1486.37 z" fill="rgb(83,29,29)" transform="translate(0,0)"></path>
<path d="M 877.245 1488.31 C 885.56 1491.5 895.931 1514.79 895.953 1523.51 C 895.962 1527.01 894.158 1527.97 892.056 1530.17 C 886.046 1527.37 875.296 1500.75 873.273 1493.98 C 872.517 1491.46 875.649 1489.57 877.245 1488.31 z" fill="rgb(83,29,29)" transform="translate(0,0)"></path>
<path d="M 1085.37 1501.41 C 1161.51 1498.7 1251.9 1527.69 1321.29 1557.1 C 1379.45 1581.76 1442.89 1610.49 1496.02 1644.56 C 1484.61 1650.01 1465.51 1663.01 1454.3 1670.3 C 1427.64 1687.5 1401.32 1705.19 1375.33 1723.39 C 1301.76 1774.37 1228.86 1826.32 1156.65 1879.22 C 1139.01 1867.24 1119.78 1856.49 1101.18 1846.09 C 992.683 1785.87 793.015 1705.95 671.901 1761.94 C 717.324 1713.72 765.99 1668.68 817.559 1627.1 C 859.284 1592.97 902.338 1560.24 949.987 1534.72 C 991.68 1512.39 1038.87 1505.16 1085.37 1501.41 z" fill="rgb(243,232,204)" transform="translate(0,0)"></path>
<path d="M 1174.14 1532.51 C 1207.81 1530.56 1254.87 1549.38 1280.48 1570.26 C 1276.9 1581.53 1266.48 1597.28 1260.71 1608.81 C 1250.26 1629.67 1240.25 1668.01 1223.38 1683.06 C 1201.22 1698.87 1163.75 1695.48 1143.18 1675.88 C 1105.25 1639.74 1148.55 1599.45 1160.57 1562.07 C 1161.98 1557.68 1171.37 1535.28 1174.14 1532.51 z" fill="rgb(83,29,29)" transform="translate(0,0)"></path>
<path d="M 1181.13 1540.79 C 1212.93 1544.12 1242.05 1558.38 1269.58 1573.82 C 1263.76 1582.05 1256.42 1593.61 1251.92 1602.46 L 1250.99 1604.48 C 1247.13 1606.47 1240.39 1605.04 1236.29 1603.57 C 1212.48 1595.07 1186.91 1585.6 1168.94 1567.39 C 1172.89 1558.09 1176.35 1549.73 1181.13 1540.79 z" fill="rgb(243,232,204)" transform="translate(0,0)"></path>
<path d="M 1145.3 1619.48 C 1146.29 1620.35 1148.24 1623.26 1149.42 1624.27 C 1171.9 1643.45 1204.16 1650.3 1231.78 1651.05 C 1227.79 1660.56 1224.07 1667.5 1216.51 1674.69 C 1178.98 1698.67 1117.29 1664.5 1145.3 1619.48 z" fill="rgb(243,232,204)" transform="translate(0,0)"></path>
<path d="M 1204.01 1602.05 C 1208.25 1603.8 1215.18 1606.46 1218.65 1609.15 C 1224.41 1610.08 1224.27 1609.05 1227.2 1614.41 C 1233.09 1616.79 1239.67 1616.81 1246.05 1618.45 C 1244.64 1621.8 1242.9 1625.65 1241.68 1629.02 C 1240.95 1631.07 1239.01 1634.83 1238.89 1636.04 C 1237.55 1639.03 1237.6 1639.06 1235.53 1641.56 C 1216.62 1649.95 1143.51 1623.67 1150.45 1609.48 C 1158.27 1605.83 1180.06 1607.59 1189.63 1608.16 L 1189.28 1602.42 L 1204.03 1604.92 L 1204.01 1602.05 z" fill="rgb(243,232,204)" transform="translate(0,0)"></path>
<path d="M 1204.01 1602.05 C 1208.25 1603.8 1215.18 1606.46 1218.65 1609.15 C 1224.41 1610.08 1224.27 1609.05 1227.2 1614.41 C 1219.91 1614.14 1198.73 1609.65 1189.63 1608.16 L 1189.28 1602.42 L 1204.03 1604.92 L 1204.01 1602.05 z" fill="rgb(112,50,42)" transform="translate(0,0)"></path>
<path d="M 1204.01 1602.05 C 1208.25 1603.8 1215.18 1606.46 1218.65 1609.15 C 1215.11 1609.26 1207.74 1606.23 1204.03 1604.92 L 1204.01 1602.05 z" fill="rgb(243,232,204)" transform="translate(0,0)"></path>
<path d="M 1238.89 1636.04 C 1234.31 1632.15 1230.02 1629.06 1227.56 1623.48 C 1235.89 1624.14 1234.21 1625.46 1240.3 1628.37 L 1241.68 1629.02 C 1240.95 1631.07 1239.01 1634.83 1238.89 1636.04 z" fill="rgb(112,50,42)" transform="translate(0,0)"></path>
<path d="M 1180.26 1616.88 C 1189 1616.59 1215.34 1628.21 1222.32 1634.56 L 1222.38 1637.17 C 1214.66 1640.28 1191.49 1626.79 1183.58 1622.78 C 1180.75 1621.34 1180.67 1619.57 1180.26 1616.88 z" fill="rgb(83,29,29)" transform="translate(0,0)"></path>
<path d="M 1164.83 1577.58 C 1179.19 1590.09 1187.01 1594.17 1204.01 1602.05 L 1204.03 1604.92 L 1189.28 1602.42 C 1176.73 1599.85 1166.78 1600.39 1154.16 1601.67 C 1157.47 1592.11 1159.63 1586.23 1164.83 1577.58 z" fill="rgb(243,232,204)" transform="translate(0,0)"></path>
<path d="M 1085.99 1660.26 C 1087.12 1660.3 1088.24 1660.35 1089.36 1660.41 C 1112.51 1661.71 1133.04 1686.8 1147.28 1702.68 C 1158.3 1705.51 1161.18 1703.95 1171.36 1710.45 C 1194.96 1705.71 1262.06 1690.73 1252.54 1733.47 C 1250.29 1743.53 1241.55 1750.06 1239.26 1756.47 C 1231.94 1776.87 1235.31 1783.75 1215.09 1795.82 C 1210.71 1795.78 1205.43 1795.11 1200.99 1794.68 C 1185.82 1788.66 1170.02 1775.83 1161.52 1761.74 C 1157.49 1755.04 1154.92 1747.71 1149.88 1741.51 C 1146.85 1740.22 1139.74 1738.31 1136.44 1739.1 C 1134.78 1751.89 1112.68 1754.23 1101.83 1756.96 C 1075.35 1763.62 1040.34 1762.06 1058.91 1725.21 L 1058.42 1724.14 C 1049.86 1705.5 1054.47 1709.46 1061.27 1694.44 C 1068.92 1677.57 1064.45 1669.05 1085.99 1660.26 z" fill="rgb(83,29,29)" transform="translate(0,0)"></path>
<path d="M 1069.69 1720.6 C 1067.36 1717.72 1064.47 1715.18 1064.06 1712 C 1067.44 1703.98 1078.34 1676.31 1083.77 1671.87 L 1084.24 1672.75 C 1081.74 1680.49 1082.65 1680.87 1090.34 1685.76 C 1096.6 1689.75 1102 1693.04 1107.73 1697.85 C 1100.12 1695.13 1087.02 1690.02 1079.26 1692.67 C 1075.85 1701.7 1123.03 1713.28 1132.13 1717.9 C 1122.35 1715.41 1078.92 1703.88 1072.39 1706 C 1072.23 1708.43 1071.83 1710.94 1073.69 1712.8 C 1082.73 1721.88 1126.38 1721.33 1133.14 1727.8 L 1132.54 1729.35 C 1129.08 1729.54 1124.24 1728.36 1120.33 1727.9 C 1105.73 1726.18 1089.03 1726.38 1074.93 1722.37 L 1073.34 1722.92 C 1072.14 1726.22 1071.95 1728.95 1070.86 1731.99 L 1067.21 1732.19 L 1069.69 1720.6 z" fill="rgb(189,140,123)" transform="translate(0,0)"></path>
<path d="M 1176.05 1746.9 L 1177.21 1745.53 C 1185.46 1749.57 1205.41 1760.16 1212.86 1762.36 L 1222.31 1757.05 L 1226.95 1757.68 C 1222.71 1764.09 1224.88 1774.83 1218.1 1780.43 C 1199.11 1796.09 1170.8 1758.47 1162.52 1746.18 C 1171.59 1755.06 1197.06 1782.09 1209.05 1779.67 C 1211.98 1777.29 1211.38 1778.7 1212.16 1775.76 C 1207.29 1770.18 1183.45 1752.73 1176.05 1746.9 z" fill="rgb(176,130,113)" transform="translate(0,0)"></path>
<path d="M 1163.96 1729.19 C 1184.18 1734.62 1213.81 1740.01 1231.71 1746.15 C 1231.35 1746.98 1226.78 1757.92 1226.95 1757.68 L 1222.31 1757.05 C 1204.17 1749.14 1181.05 1738.78 1163.96 1729.19 z" fill="rgb(189,140,123)" transform="translate(0,0)"></path>
<path d="M 1177.54 1720.18 C 1191.09 1714.96 1220.85 1712.59 1235.46 1717.29 C 1240.75 1719 1242.62 1722.53 1242.97 1727.82 L 1243.11 1729.76 C 1238.68 1725.08 1238.67 1725.65 1233.31 1725.46 C 1234.26 1723.7 1233.66 1724.5 1235.13 1723.07 C 1226.09 1718.7 1189.37 1719.72 1177.54 1720.18 z" fill="rgb(176,130,113)" transform="translate(0,0)"></path>
<path d="M 1070.86 1731.99 C 1083.86 1734.35 1098.89 1734.79 1109.59 1737.01 C 1099.73 1738.24 1076.53 1738.29 1070.37 1741.76 L 1069.79 1743.38 C 1074.31 1749.03 1081.51 1748.25 1088.02 1747.71 L 1087.81 1749.66 C 1074.6 1750.42 1056.46 1751.2 1067.21 1732.19 L 1070.86 1731.99 z" fill="rgb(189,140,123)" transform="translate(0,0)"></path>
<path d="M 1085.47 1671.13 C 1105.65 1671.05 1131.82 1697.99 1141.05 1714.12 C 1137.35 1712.74 1115.26 1690.5 1109.67 1686.25 C 1099.92 1678.85 1097.02 1676.85 1085.47 1671.13 z" fill="rgb(189,140,123)" transform="translate(0,0)"></path>
<path d="M 1233.31 1725.46 C 1238.67 1725.65 1238.68 1725.08 1243.11 1729.76 C 1241.05 1734.07 1239.57 1736.33 1236.92 1740.34 C 1226.85 1734.47 1222.57 1733.25 1211.53 1730 C 1218.83 1730.03 1230.82 1733.36 1235.78 1731.05 L 1236.14 1729.09 L 1233.31 1725.46 z" fill="rgb(189,140,123)" transform="translate(0,0)"></path>
<path d="M 1088.02 1747.71 C 1093.25 1746.9 1123.97 1739.44 1125.62 1739.67 C 1123.3 1743 1093.04 1749.28 1087.81 1749.66 L 1088.02 1747.71 z" fill="rgb(144,95,91)" transform="translate(0,0)"></path>
<path d="M 1176.05 1746.9 C 1172.67 1745.15 1170.5 1744.1 1167.42 1741.9 L 1167.24 1740.58 C 1171.59 1740.85 1173.87 1742.83 1177.21 1745.53 L 1176.05 1746.9 z" fill="rgb(112,50,42)" transform="translate(0,0)"></path>
<path d="M 955.149 1580.62 C 975.242 1583.66 1095.29 1616.65 1102.8 1627.03 C 1103 1630.74 1102.7 1629.93 1100.75 1633.76 C 1089.96 1632.79 1051.12 1617.22 1037.59 1613.54 C 1020.77 1608.3 1003.8 1603.53 986.871 1598.71 C 979.011 1596.47 957.542 1594.14 952.64 1588.82 C 952.196 1584.61 952.834 1585.18 955.149 1580.62 z" fill="rgb(83,29,29)" transform="translate(0,0)"></path>
<path d="M 875.508 1654.94 C 889.989 1656.66 996.209 1690.75 999.446 1696.25 C 999.745 1699.53 998.329 1701.15 996.657 1704.06 C 992.946 1703.39 973.319 1697.1 970.254 1695.78 C 955.931 1689.58 879.141 1668.52 873.79 1662.27 C 873.218 1658.3 873.564 1659.27 875.508 1654.94 z" fill="rgb(83,29,29)" transform="translate(0,0)"></path>
<path d="M 1020.47 1530.62 C 1036.58 1531.6 1136.46 1551.5 1141.89 1561.92 C 1141.37 1565.52 1141.46 1564.47 1138.84 1567.72 C 1133.6 1567.41 1128.03 1565.75 1123.01 1564.22 C 1088.81 1553.79 1053.85 1547.65 1019.02 1539.95 C 1017.01 1539.51 1016.78 1537.53 1016.3 1535.95 C 1017.25 1532.74 1017.83 1532.71 1020.47 1530.62 z" fill="rgb(83,29,29)" transform="translate(0,0)"></path>
<path d="M 1314.6 1600.58 C 1327.07 1602.07 1404.61 1644.86 1408.83 1657.19 C 1407.34 1660.54 1407.19 1659.78 1403.39 1662.16 C 1391.79 1656.89 1372.57 1641.78 1359.81 1635.63 C 1353.42 1632.55 1311.91 1610.48 1309.51 1607.81 C 1309.9 1604.46 1312.08 1603.05 1314.6 1600.58 z" fill="rgb(83,29,29)" transform="translate(0,0)"></path>
<path d="M 976.406 1629.77 C 986.428 1630.06 1043.23 1647.75 1047.08 1654.32 C 1047.43 1657.44 1046.07 1658.79 1044.33 1661.48 C 1036.62 1659.87 976.057 1640.13 973.769 1636.62 C 973.535 1633.53 974.701 1632.41 976.406 1629.77 z" fill="rgb(83,29,29)" transform="translate(0,0)"></path>
<path d="M 1261.2 1682.81 C 1272.94 1684.01 1287.41 1691.83 1297.83 1697.37 C 1303.98 1700.64 1319.7 1709.27 1321.24 1716.39 C 1321.6 1718.09 1320.24 1719.46 1319.16 1721.27 C 1311.51 1720.98 1296.97 1709.35 1289 1705.18 C 1282.97 1702.03 1261.54 1693.41 1258.98 1689.77 C 1258.88 1686.02 1259.28 1685.95 1261.2 1682.81 z" fill="rgb(83,29,29)" transform="translate(0,0)"></path>
<path d="M 978.975 1730.43 C 989.319 1732.02 1034.49 1750.46 1039.92 1757.91 C 1040.3 1760.92 1039.1 1762.49 1037.73 1765.24 C 1029.57 1765.16 991.483 1744.24 980.218 1741.4 C 978.886 1741.07 977.851 1739.89 977.082 1738.77 C 976.509 1735.53 977.736 1733.55 978.975 1730.43 z" fill="rgb(83,29,29)" transform="translate(0,0)"></path>
<path d="M 1130.06 1798.81 C 1146.28 1806.17 1152.64 1810.85 1167.24 1821 C 1168.47 1823.84 1168.72 1824.61 1169.51 1827.61 C 1167.79 1831.56 1167.76 1830.65 1163.68 1833.61 C 1151.61 1822.89 1138.38 1816.76 1125.45 1807.39 C 1123.68 1806.1 1124.19 1804.31 1124.35 1802.56 C 1126.43 1799.88 1126.91 1800.02 1130.06 1798.81 z" fill="rgb(83,29,29)" transform="translate(0,0)"></path>
<path d="M 891.237 1708.54 C 900.749 1710.29 932.153 1717.18 934.616 1726.92 C 934.166 1730.46 933.68 1730.53 931.345 1733.19 C 921.505 1729.84 890.292 1722.47 886.852 1714.12 C 887.602 1710.4 887.395 1711.57 891.237 1708.54 z" fill="rgb(83,29,29)" transform="translate(0,0)"></path>
<path d="M 1282.91 1637.4 C 1283.65 1637.51 1284.4 1637.63 1285.14 1637.76 C 1295.35 1639.67 1320.23 1649.79 1326.34 1658.7 C 1326.83 1662.69 1326.53 1661.71 1324.8 1665.97 C 1316.48 1668.45 1291.47 1651.09 1283.95 1646.16 C 1282.09 1644.95 1282.78 1639.53 1282.91 1637.4 z" fill="rgb(83,29,29)" transform="translate(0,0)"></path>
<path d="M 1069.17 1778.31 C 1078.72 1783.53 1106.68 1793.11 1109.51 1802.46 C 1108.52 1806.39 1109.12 1805 1105.73 1808.05 C 1097.61 1805.81 1066.34 1793.05 1064.42 1784.63 C 1065.75 1780.43 1065.42 1781.68 1069.17 1778.31 z" fill="rgb(83,29,29)" transform="translate(0,0)"></path>
<path d="M 901.722 1616.02 C 910.778 1617.37 935.621 1620.03 940.089 1628.01 C 940.24 1631.33 938.694 1632.77 936.754 1635.55 C 927.351 1631.91 903.572 1629.12 899.371 1622.48 C 899.531 1618.52 899.438 1619.79 901.722 1616.02 z" fill="rgb(83,29,29)" transform="translate(0,0)"></path>
<path d="M 831.482 1696.84 C 839.913 1696.4 856.766 1700.91 862.531 1706.83 C 863.996 1709.71 863.309 1711.47 862.785 1714.71 L 860.999 1714.55 C 853.182 1713.77 835.921 1710.74 830.788 1704.58 C 829.617 1701.19 830.311 1700.25 831.482 1696.84 z" fill="rgb(83,29,29)" transform="translate(0,0)"></path>
<path d="M 482.377 1159.79 C 489.501 1160.93 500.977 1166.17 507.531 1169.15 C 446.456 1224.42 385.977 1275.62 319.145 1323.83 C 296.095 1340.35 275.238 1359.2 253.432 1377.18 C 246.112 1383.21 224.091 1388.09 221.727 1396.92 C 223.223 1403.39 228.767 1408.24 233.843 1412.2 C 250.973 1425.57 267.757 1439.15 284.372 1453.16 C 336.117 1496.6 387.539 1540.42 438.633 1584.61 C 479.668 1620.92 520.091 1657.92 559.886 1695.58 C 586.825 1721.42 611.253 1745.38 635.479 1773.84 C 643.146 1782.85 642.11 1791.5 647.626 1800.8 C 650.5 1802.59 648.985 1802.32 652.332 1801.58 C 656.146 1798.88 657.09 1796.22 659.316 1792.12 C 707.199 1794.96 767.605 1820.62 813.022 1836.41 C 877.34 1858.78 941.588 1879.47 1006.39 1900.3 L 1105.36 1933.14 C 1120.07 1937.9 1179.28 1959.68 1191.96 1955.64 C 1202.87 1952.16 1239.55 1920.95 1250.68 1912.21 L 1351.24 1832.77 C 1388.6 1803.78 1425.47 1774.17 1461.84 1743.95 C 1477.11 1731.51 1500.96 1715.05 1512.31 1700.35 C 1519.55 1702.64 1531.88 1704.87 1533.65 1713.31 C 1532.7 1719.56 1529.5 1720.96 1524.5 1724.73 L 1274.99 1923.39 C 1251.26 1942.23 1224.24 1965.16 1199.96 1982.69 C 1193.04 1987.68 1117.75 1961.01 1106.41 1957.19 L 1027.5 1930.87 L 746.197 1836.25 C 732.767 1831.76 719.359 1827.2 705.975 1822.57 C 700.003 1820.52 693.228 1818.04 687.143 1816.4 C 678.96 1814.19 673.19 1822.39 664.736 1820.9 C 649.723 1818.26 637.629 1810.98 627.826 1800 L 631.418 1787.74 C 626.996 1783.25 622.206 1779.2 617.453 1775.07 C 586.222 1747.92 554.643 1721.17 523.544 1693.88 C 508.832 1680.96 494.796 1667.3 480.211 1654.24 L 349.71 1539.4 L 257.57 1458.81 C 235.103 1439.39 211.87 1420.66 189.943 1400.46 C 199.886 1390.19 219.794 1374.79 231.362 1365.34 L 293.882 1313.81 L 422.344 1208.72 C 442.842 1192.01 461.295 1176.07 482.377 1159.79 z" fill="rgb(144,95,91)" transform="translate(0,0)"></path>
<path d="M 1432.71 701.451 C 1438.72 701.3 1444.69 701.326 1450.57 702.583 C 1518.09 717.022 1543.48 773.325 1530.06 837.549 C 1515.8 905.78 1478.67 947.781 1422.8 985.079 C 1403.88 997.222 1387.94 974.057 1377.74 961.006 C 1351.74 927.704 1329.34 887.92 1325.97 845.103 C 1323.05 808.09 1325.54 768.818 1351.18 739.714 C 1372 715.514 1401.65 704.012 1432.71 701.451 z" fill="rgb(144,95,91)" transform="translate(0,0)"></path>
<path d="M 1415.07 717.261 C 1427.54 715.84 1444.05 720.579 1445.96 735.427 C 1448.02 751.405 1433.1 757.39 1423.48 766.503 C 1403.67 785.144 1393.16 810.158 1385.74 835.404 C 1378.12 861.325 1379.17 876.242 1384.46 902.14 C 1385.81 908.767 1385.59 912.84 1381.4 918.343 C 1360.32 911.19 1346.81 866.229 1345.05 846.481 C 1340.33 793.275 1355.32 729.087 1415.07 717.261 z" fill="rgb(83,29,29)" transform="translate(0,0)"></path>
<path d="M 1417.22 728.304 C 1434.86 726.19 1442.88 737.284 1425 750.568 C 1386.26 779.345 1366.55 838.801 1370.73 885.195 C 1371.27 888.227 1371.31 888.595 1371.25 891.675 C 1365.45 887.475 1359.78 863.955 1358.3 856.611 C 1348.8 809.344 1359.23 737.238 1417.22 728.304 z" fill="rgb(243,232,204)" transform="translate(0,0)"></path>
<path d="M 1633.65 987.431 C 1650.66 988.24 1662.06 989.505 1677.76 996.974 C 1699.15 1007.11 1715.6 1025.38 1723.42 1047.72 C 1732.46 1074.1 1730.71 1102.99 1718.55 1128.08 C 1695.16 1176.46 1635.25 1204.44 1583.44 1206.81 C 1569.89 1207.43 1541.43 1206.7 1530.73 1210.73 C 1518.39 1221.43 1517.85 1239.36 1513.72 1255.54 C 1501.45 1247.7 1492.48 1242.67 1483.84 1230.88 C 1490.5 1226.93 1509.99 1212.15 1512.48 1211 C 1515.25 1212.06 1517.07 1213.08 1520.01 1212.79 C 1522.08 1210.35 1521.51 1211.72 1521.8 1208.55 C 1521.68 1208.4 1519.67 1206.1 1519.57 1205.88 C 1514.78 1194.66 1516.43 1168.56 1515.66 1157.44 C 1510.68 1085.01 1549.94 992.777 1633.65 987.431 z" fill="rgb(144,95,91)" transform="translate(0,0)"></path>
<path d="M 1609.44 1013.18 C 1618.18 1012.52 1627.36 1012.53 1635.86 1015.09 C 1643.62 1017.42 1656.06 1023.52 1650.97 1033.78 C 1644.46 1046.98 1629.29 1050.01 1616.63 1054.51 C 1586.44 1065.25 1570.35 1084.5 1556.99 1112.53 C 1553.77 1119.57 1549.63 1133.68 1540.98 1133.74 C 1522.81 1120.35 1549.54 1069.41 1558.04 1055.98 C 1571.52 1034.64 1584.24 1019.14 1609.44 1013.18 z" fill="rgb(83,29,29)" transform="translate(0,0)"></path>
<path d="M 1614.32 1022.41 C 1621.75 1021.97 1636.51 1021.76 1639.58 1029.81 C 1636.95 1039.69 1617.39 1043.08 1607.8 1047.19 C 1600.62 1050.22 1593.75 1053.95 1587.3 1058.32 C 1572.73 1068.32 1563.21 1079.76 1554.46 1094.87 L 1543.95 1115.43 C 1548.77 1095.57 1559.9 1071.26 1571.09 1054.32 C 1582.43 1037.15 1593.75 1026.66 1614.32 1022.41 z" fill="rgb(243,232,204)" transform="translate(0,0)"></path>
<path d="M 314.096 1370.01 C 338.457 1368.9 391.238 1398.91 412.522 1412.24 C 520.356 1479.8 609.362 1611.89 636.708 1735.82 L 630.947 1724.23 C 615.006 1692.94 599.014 1666.71 580.071 1637.06 C 557.468 1602.95 534.991 1564.8 507.408 1534.37 C 464.907 1487.48 413.118 1442.71 359.48 1408.91 C 340.212 1396.77 319.259 1388.86 299.179 1378.86 C 304.678 1375.18 308.241 1373.1 314.096 1370.01 z" fill="rgb(243,232,204)" transform="translate(0,0)"></path>
<path d="M 285.693 1382.17 L 289.379 1382.01 C 299.224 1387.7 309.548 1394.41 319.714 1399.53 C 333.192 1406.33 346.406 1412.65 359.137 1421.03 C 415.339 1458.03 473.797 1508.46 515.842 1560.97 C 533.718 1583.29 553.384 1614.56 568.849 1638.32 C 591.962 1673.83 616.504 1714.07 632.882 1753.07 C 629.614 1748.79 627.015 1744.73 624.09 1740.24 C 556.932 1630.63 423.782 1495.98 318.62 1421.86 C 301.288 1409.64 283.34 1399.3 265.096 1388.57 C 272.879 1385.32 277.526 1384.08 285.693 1382.17 z" fill="rgb(243,232,204)" transform="translate(0,0)"></path>
<path d="M 250.356 1392.26 C 321.448 1428.94 377.408 1480.4 435.508 1534.09 C 497.93 1591.78 548.198 1649.49 597.786 1718.62 C 595.154 1716.42 592.462 1713.73 589.955 1711.35 C 506.394 1624.12 407.319 1546.59 316.83 1466.55 C 302.453 1453.84 286.679 1442 272.344 1429.34 C 263.27 1421.33 242.578 1408.29 236.091 1399.22 L 250.356 1392.26 z" fill="rgb(243,232,204)" transform="translate(0,0)"></path>
<path d="M 727.191 1774.43 C 748.846 1773.16 784.73 1778.24 806.929 1781.84 C 856.608 1789.89 918.023 1804 964.712 1823.05 C 1031.62 1850.35 1095.59 1888.25 1161.71 1917.02 L 1163.39 1927.44 C 1153.33 1924.24 1142.15 1919.77 1132.17 1916.03 C 1091.25 1900.58 1050.58 1884.48 1010.18 1867.72 C 969.086 1850.5 929.209 1831.57 886.534 1818.48 C 818.327 1797.54 749.757 1786.22 679.124 1778.72 C 696.215 1775.98 709.906 1775.23 727.191 1774.43 z" fill="rgb(243,232,204)" transform="translate(0,0)"></path>
<path d="M 765.886 1752.37 C 766.213 1752.31 766.539 1752.26 766.865 1752.2 C 876.762 1754.93 982.297 1796.91 1079.01 1846.32 C 1102.09 1858.11 1133.87 1874.34 1154.07 1890.6 C 1155.04 1894.82 1156.85 1900.04 1158.17 1904.26 C 1137.97 1895.46 1116.29 1884.21 1096.73 1874.03 C 1052.66 1853.6 1010.11 1829.63 964.774 1811.94 C 927.143 1797.26 886.369 1787.9 847.107 1778.48 C 826.02 1773.03 804.241 1771.87 782.96 1768.57 C 745.675 1762.79 714.058 1763 677.03 1769.97 C 704.261 1758.04 736.31 1754.06 765.886 1752.37 z" fill="rgb(243,232,204)" transform="translate(0,0)"></path>
<path d="M 1498.36 1654.86 L 1499.33 1655.01 C 1500.66 1658.11 1500 1665.27 1499.89 1669.01 C 1480.94 1683.53 1459.68 1697.83 1440.28 1711.8 C 1388.32 1749.23 1335.9 1786 1283.03 1822.1 C 1243.45 1849.35 1206.8 1873.82 1168.66 1903.54 C 1166.95 1898.12 1165.62 1892.95 1164.19 1887.45 C 1175.82 1876.42 1199.82 1860.46 1212.86 1851.21 C 1225.74 1842.06 1238.66 1832.67 1251.5 1823.45 C 1332.03 1764.72 1414.35 1708.5 1498.36 1654.86 z" fill="rgb(243,232,204)" transform="translate(0,0)"></path>
<path d="M 720.617 1793.01 C 726.583 1793.41 732.519 1794.61 738.407 1795.67 C 791.013 1805.09 846.086 1815.47 896.912 1832.44 C 944.644 1848.38 991.81 1872.46 1039 1890.47 C 1060.03 1898.5 1081.22 1906.88 1102.13 1915.27 C 1113.99 1920.11 1125.97 1924.65 1138.05 1928.89 C 1145.68 1931.55 1161.97 1935.8 1167.17 1941.24 C 1160.89 1940.55 1137.86 1932.42 1130.53 1929.97 L 1056.14 1905.21 C 961.154 1874.17 865.477 1844.14 772.102 1808.69 C 755.653 1802.44 736.969 1799.24 720.617 1793.01 z" fill="rgb(243,232,204)" transform="translate(0,0)"></path>
<path d="M 611.561 1138.87 L 613.016 1139.13 C 612.387 1140.75 582.24 1165.9 577.911 1169.96 C 522.442 1222.04 461.547 1267.38 401.367 1314.02 L 359.925 1346.25 C 353.608 1351.16 346.833 1356.42 340.325 1361.17 C 338.028 1362.84 334.904 1361.35 331.604 1360.6 C 328.58 1360.36 328.574 1360.77 326.355 1359.31 C 328.079 1355.46 380.016 1314.93 387.211 1306.98 C 391.852 1301.85 417.395 1280.6 424.458 1275.56 C 460.068 1250.13 493.936 1223.44 527.595 1195.47 C 544.091 1181.85 558.584 1166.87 574.572 1153.07 C 578.844 1149.38 604.62 1141.49 611.561 1138.87 z" fill="rgb(243,232,204)" transform="translate(0,0)"></path>
<path d="M 1499.08 1682.89 C 1501.93 1685.37 1500.91 1695.76 1500.93 1700.03 C 1479.37 1715.05 1460.76 1730 1438.13 1745.01 C 1351.68 1802.34 1253.57 1861.15 1173.4 1926.88 L 1170.77 1914.39 C 1184.91 1904.96 1198.27 1894.1 1212.11 1884.24 C 1307.1 1816.52 1405.1 1751.98 1499.08 1682.89 z" fill="rgb(243,232,204)" transform="translate(0,0)"></path>
<path d="M 554.876 1158.26 L 554.515 1160 C 524.995 1186.41 490.476 1211.24 459.986 1236.94 C 441.478 1252.55 420.219 1265.29 401.339 1281.67 C 368.792 1309.89 335.625 1338.46 301.305 1364.43 C 292.727 1370.77 282.323 1373.9 271.992 1375.81 L 272.151 1374.61 C 321.994 1330.77 379.247 1293.6 430.163 1250.75 C 460.802 1224.97 490.247 1197.56 520.036 1170.84 C 524.406 1166.92 547.943 1160.11 554.876 1158.26 z" fill="rgb(243,232,204)" transform="translate(0,0)"></path>
<path d="M 1381.42 1793.86 L 1381.79 1794.09 L 1382 1795.01 C 1322.8 1842.84 1262.97 1889.9 1202.53 1936.15 C 1193.01 1943.41 1189.95 1945.61 1178.31 1944.02 C 1176.44 1941.7 1175.88 1941.42 1175.24 1938.49 C 1178.2 1931.97 1277.66 1864.28 1291.68 1853.2 C 1315.36 1834.49 1356.55 1812.56 1381.42 1793.86 z" fill="rgb(243,232,204)" transform="translate(0,0)"></path>
<path d="M 1399.08 998.846 C 1404.69 999.996 1410.65 999.967 1416.4 1000.14 C 1418.43 1005.76 1420.77 1011.79 1422.89 1017.36 C 1428.99 1033.4 1426.34 1036.42 1410.38 1035.96 C 1402.65 1034.67 1389.42 1034.05 1381.23 1033.42 C 1386.84 1022.89 1395.38 1009.8 1399.08 998.846 z" fill="rgb(144,95,91)" transform="translate(0,0)"></path>
<path d="M 1003.93 83.9584 C 1017.78 84.519 1017.91 90.8104 1022.49 102.421 C 1030.86 123.664 1047.59 134.686 1068.06 144.285 C 1109.93 163.786 1161.4 160.416 1205.95 151.704 C 1242.92 144.476 1277.8 125.132 1315.54 116.361 C 1387.15 99.7168 1465.05 100.81 1510.91 166.36 C 1558.39 234.213 1522.99 295.75 1542.18 368.576 C 1549.99 398.998 1566.8 426.394 1592.73 444.702 C 1599.09 449.194 1618.77 457.299 1623.08 464.13 C 1623.53 465.387 1623.39 472.016 1622.48 472.542 C 1592.09 490.05 1575.71 496.626 1555.42 527.373 C 1538.69 552.557 1529.33 581.912 1528.38 612.132 C 1528 622.871 1532.13 644.415 1516.46 644.047 C 1514.47 644 1509.82 642.658 1509.09 640.539 C 1502.97 622.902 1508.64 600.444 1510.69 582.193 C 1522.36 531.795 1544.96 496.389 1587.35 467.919 C 1542.7 437.817 1517.83 384.75 1515.26 331.765 C 1512.63 277.274 1527.67 222.438 1492.01 174.405 C 1447.62 114.602 1365.7 122.045 1302.44 141.666 C 1274.27 150.814 1246.51 162.999 1217.62 169.913 C 1150.22 186.041 1053.08 185.233 1008.15 123.608 C 987.48 152.118 961.839 165.601 927.578 173.116 C 883.81 182.715 833.664 178.573 790.52 166.983 C 768.756 161.137 746.563 151.906 724.81 144.604 C 675.782 128.146 617.503 120.198 568.618 141.518 C 522.001 162.005 507.141 211.123 504.967 258.158 C 505 264.544 505.601 271.152 506.081 277.512 C 509.118 317.774 508.999 357.783 494.096 396.069 C 482.002 427.139 463.591 453.476 432.15 467.432 C 467.034 485.98 487.453 517.537 501.237 553.409 C 507.699 574.468 511.423 602.147 510.689 624.381 C 508.891 678.801 492.904 730.029 530.277 776.735 C 571.188 829.987 644.128 823.444 701.292 804.311 C 766.096 782.62 827.221 750.563 898.169 758.202 C 947.916 763.558 979.139 774.171 1011.74 814.329 C 1065.13 736.383 1180.77 748.705 1257.15 780.556 C 1266.52 784.464 1284.57 789.815 1283.96 802.176 C 1281.41 807.689 1272.22 810.296 1267.37 807.78 C 1203.2 774.466 1099.68 757.296 1041.24 809.525 C 1036.21 814.02 1030.35 825.134 1027.45 831.005 C 1009.97 866.364 1004.73 841.743 991.854 824.709 C 986.634 817.821 980.732 811.478 974.238 805.775 C 946.59 781.98 908.219 777.924 872.853 778.362 C 785.622 779.44 712.741 838.346 625.021 838.162 C 609.534 838.13 599.188 838.258 583.862 834.502 C 559.772 828.765 537.892 816.092 520.928 798.051 C 472.005 746.284 486.499 687.924 489.803 624.884 C 490.847 604.963 485.828 572.832 478.966 554.349 C 469.559 528.914 454.221 506.106 431.754 490.384 C 424.999 485.657 399.322 477.724 402.719 465.666 C 404.399 459.704 420.282 451.3 426.609 447.772 C 473.629 421.551 486.884 364.868 487.128 314.869 C 486.752 276.198 480.37 247.317 491.781 207.486 C 501.732 172.753 518.728 146.057 550.998 128.063 C 604.313 98.3318 674.733 107.198 730.463 125.213 C 752.27 132.262 774.341 141.434 796.09 147.259 C 846.144 160.666 911.204 165.578 958.3 140.59 C 969.484 134.657 976.264 129.253 984.165 119.525 C 995.114 106.047 990.759 91.4752 1003.93 83.9584 z" fill="rgb(83,29,29)" transform="translate(0,0)"></path>
<path d="M 849.982 915.562 C 939.372 920.048 978.866 1005.52 980.335 1085.04 C 980.423 1089.78 979.298 1122.5 981.476 1124 C 994.976 1133.27 1020.99 1125.81 1009.2 1153.88 C 1077.71 1180.14 1026.49 1204.29 1009.76 1240.54 C 1001.9 1257.59 1015.38 1274.02 1029.34 1282.3 C 1039 1288.03 1061.16 1283.53 1064.37 1292.25 C 1063.92 1293.43 1063.65 1295.29 1062.37 1295.58 C 1027.46 1303.56 990.153 1277.08 999.601 1239.29 C 1012.53 1202.7 1064.85 1181.95 1002.29 1162.38 C 990.668 1171.96 973.134 1196.46 964.365 1167.46 C 962.605 1161.64 961.377 1156.62 960.421 1150.61 C 949.523 1151.55 938.594 1152.11 927.657 1152.28 C 870.203 1152.63 816.635 1141.56 772.604 1100.76 C 752.438 1081.2 737.183 1052.86 737.262 1024.51 C 737.421 967.143 793.001 914.899 849.982 915.562 z" fill="rgb(83,29,29)" transform="translate(0,0)"></path>
<path d="M 841.271 926.517 C 872.45 922.906 906.323 938.554 926.968 961.594 C 968.361 1007.79 972.185 1066.59 969.371 1125.41 C 965.403 1130.81 962.88 1134.75 959.408 1140.5 C 935.04 1142.34 905.388 1142.24 881.145 1139.32 C 826.164 1132.22 754.299 1094.95 748.369 1033.18 C 746.064 1008.96 753.602 984.834 769.283 966.236 C 787.09 944.878 813.3 929.018 841.271 926.517 z" fill="rgb(243,232,204)" transform="translate(0,0)"></path>
<path d="M 798.541 983.7 L 800.655 984.067 C 805.365 989.573 802.316 1008.33 803.575 1018.41 C 806.706 1045.63 820.138 1071.56 842.126 1088.22 C 848.408 1092.98 867.972 1100.3 868.604 1108.13 L 867.35 1109.04 C 859.753 1109.83 855.552 1107.96 848.52 1105.43 C 824.407 1092.31 806.076 1083.94 787.417 1062.84 C 764.378 1036.8 773.927 1004.74 798.541 983.7 z" fill="rgb(83,29,29)" transform="translate(0,0)"></path>
<path d="M 792.607 1003.82 C 795.151 1006.87 792.992 1016.13 793.475 1020.33 C 795.047 1033.98 798.926 1047.01 805.348 1059.17 C 808.441 1065.03 814.362 1070.69 816.85 1076.47 L 814.745 1075.29 C 788.94 1054.13 775.064 1036.3 792.607 1003.82 z" fill="rgb(243,232,204)" transform="translate(0,0)"></path>
<path d="M 973.701 1134.95 C 980.359 1134.47 995.649 1136.47 999.509 1142.3 C 999.934 1147.29 997.852 1150.12 994.739 1153.82 L 988.337 1161.49 C 985.716 1164.53 983.013 1167.93 978.922 1168.25 C 974.085 1165.49 971.564 1152.61 968.494 1145.18 L 973.701 1134.95 z" fill="rgb(243,232,204)" transform="translate(0,0)"></path>
<path d="M 1797.53 1180.4 C 1908.22 1170.17 1948.89 1306.09 1859.23 1367.56 C 1798.13 1409.46 1737.69 1402.63 1668.25 1391.54 C 1657.54 1406.36 1654.56 1430.33 1632.83 1417.62 C 1608.74 1455.86 1573.6 1432.81 1541.82 1424.26 C 1532.48 1421.74 1519.83 1422.57 1510.4 1424.61 C 1458.76 1436.4 1486.06 1475.2 1477.42 1484.59 L 1474.49 1482.95 C 1456.56 1456.22 1473.8 1424.77 1502.2 1416.15 C 1517.44 1411.52 1535.43 1411.65 1550.75 1415.69 C 1579.57 1423.29 1601.94 1442.84 1623.56 1411.44 C 1585.52 1380.97 1628.63 1376.53 1647.56 1366.04 C 1648.13 1365.72 1651.57 1333.24 1652.57 1328.42 C 1659.09 1297.27 1673.1 1268.19 1693.39 1243.67 C 1718.07 1214.03 1757.91 1183.94 1797.53 1180.4 z" fill="rgb(83,29,29)" transform="translate(0,0)"></path>
<path d="M 1799.18 1190.43 C 1829.41 1185.84 1862.68 1200.43 1880.46 1224.62 C 1893.29 1242.07 1901.66 1266.98 1898.3 1288.57 C 1889.21 1346.92 1832.43 1382.59 1777.36 1388.89 C 1772.53 1389.44 1766.5 1391.22 1761.76 1390.54 C 1738.65 1389.98 1687.1 1388.45 1666.01 1380.54 C 1655.28 1366.19 1657.73 1355.5 1660.48 1338.93 C 1666.36 1302.58 1682.98 1268.82 1708.2 1241.99 C 1729.24 1219.55 1767.44 1191.57 1799.18 1190.43 z" fill="rgb(243,232,204)" transform="translate(0,0)"></path>
<path d="M 1806.62 1217.34 C 1821.33 1215.48 1837.82 1221.15 1847 1232.98 C 1850.84 1237.94 1853.05 1245.99 1846.46 1249.85 C 1841.79 1252.72 1837.28 1249.13 1832.49 1248.48 C 1807.29 1245.1 1787.67 1250.79 1766.64 1264.11 C 1759.05 1269.59 1745.01 1286.59 1736.8 1284.55 C 1735.92 1283.36 1734.92 1282.62 1735.2 1281.12 C 1741.68 1247.2 1773.82 1219.27 1806.62 1217.34 z" fill="rgb(83,29,29)" transform="translate(0,0)"></path>
<path d="M 1805.63 1227.18 C 1806.81 1227.14 1807.99 1227.11 1809.17 1227.1 C 1822.65 1226.91 1828.85 1230.94 1838 1239.84 C 1814.03 1235.21 1799.94 1236.96 1777.41 1245.87 C 1768.31 1249.92 1760.89 1255.66 1752.8 1261.41 C 1767.23 1241.46 1782.01 1232.31 1805.63 1227.18 z" fill="rgb(243,232,204)" transform="translate(0,0)"></path>
<path d="M 1649.77 1376.93 C 1652.3 1378.05 1655.56 1383.72 1657.7 1386.58 C 1652.04 1394.95 1648.81 1406.5 1642.91 1409.65 C 1638.35 1409.2 1638.6 1408.35 1634.22 1405.3 C 1629.34 1401.08 1622.14 1396.86 1622.7 1390 C 1625.79 1384.71 1642.44 1380.02 1649.77 1376.93 z" fill="rgb(243,232,204)" transform="translate(0,0)"></path>
<path d="M 321.198 693.57 C 405.664 694.748 436.051 807.217 414.237 873.353 C 408.946 889.394 406.04 900.509 395.022 913.851 C 403.289 925.732 413.961 934.427 412.434 947.087 C 418.071 953.928 429.099 959.453 432.344 967.75 C 446.971 1005.15 393.65 1040.94 443.729 1070.63 C 451.336 1075.14 476.068 1075.66 477.455 1084.34 C 475.143 1086.65 469.341 1088.13 466.108 1087.42 C 445.823 1082.96 434.672 1081.71 421.206 1064.52 C 404.105 1039.09 415.324 1020.13 423.617 995.053 C 431.178 972.19 416.869 963.155 399.511 952.806 C 391.424 955.853 378.22 965.598 370.82 961.212 C 367.033 954.702 367.241 937.605 366.827 929.352 C 359.945 928.108 352.84 926.889 346.069 925.163 C 283.694 909.261 225.748 853.457 223.7 786.495 C 222.513 747.682 245.367 714.934 280.864 700.381 C 294.977 694.595 306.189 693.981 321.198 693.57 z" fill="rgb(83,29,29)" transform="translate(0,0)"></path>
<path d="M 323.867 701.859 C 324.939 702.785 343.308 706.725 347.273 708.367 C 410.077 734.387 422.453 827.831 400.477 884.546 C 392.53 905.054 385.821 910.549 366.704 918.94 C 351.465 917.233 344.635 915.843 330.625 910 C 323.131 906.847 315.866 903.177 308.881 899.016 C 257.568 868.262 210.757 802.878 245.477 742.885 C 256.626 723.621 277.419 709.45 298.955 704.88 C 306.708 703.234 317.206 703.757 323.867 701.859 z" fill="rgb(243,232,204)" transform="translate(0,0)"></path>
<path d="M 307.718 725.239 C 380.013 718.809 393.503 819.593 377.507 827.137 C 374.083 826.013 374.217 825.856 371.89 823.284 C 363.471 792.298 350.775 758.008 314.561 751.738 C 308.276 750.65 286.824 753.778 292.31 739.356 C 294.966 732.373 301.053 728.155 307.718 725.239 z" fill="rgb(83,29,29)" transform="translate(0,0)"></path>
<path d="M 317.499 734.21 C 346.928 736.714 362.801 760.616 370.195 786.624 L 364.769 776.87 C 347.67 749.151 331.639 743.515 300.222 739.584 C 307.399 736.733 309.968 735.674 317.499 734.21 z" fill="rgb(243,232,204)" transform="translate(0,0)"></path>
<path d="M 385.494 921.628 L 386.414 921.361 C 391.741 924.526 397.766 934.871 401.402 940.441 L 390.079 946.364 L 377.642 951.576 C 377.892 942.46 374.341 932.274 378.005 925.276 C 379.078 923.225 383.09 922.375 385.494 921.628 z" fill="rgb(243,232,204)" transform="translate(0,0)"></path>
<path d="M 1274.81 1072.41 C 1287 1071.07 1303.1 1074.54 1311.69 1083.78 C 1318.03 1090.59 1320.3 1099.18 1319.99 1108.28 C 1318.71 1145.1 1279.43 1150.87 1253.01 1163.11 C 1245.55 1166.61 1238.97 1171.64 1233.01 1177.19 L 1231.98 1178.17 C 1242.15 1206.77 1260.22 1221.84 1274.63 1247.53 C 1287.58 1270.61 1290.3 1299.64 1274.69 1322.33 C 1273.09 1325.04 1261.43 1338.7 1261.73 1340.84 C 1264.86 1363.11 1261.58 1387.53 1246.96 1405.35 C 1241.78 1411.68 1236.75 1414.37 1229.68 1418.14 C 1220.35 1421.88 1210.71 1419.36 1204.74 1412.5 C 1184.71 1389.49 1203.77 1361.77 1225.09 1348.51 C 1232.86 1343.67 1241.14 1335.7 1246.37 1330.14 C 1232.09 1292.18 1190.62 1282.96 1187.39 1238.34 C 1185.51 1212.21 1195.01 1192.96 1211.46 1173.28 C 1202.44 1145.46 1204.99 1120.19 1224.92 1097.38 C 1238.67 1081.64 1253.9 1073.85 1274.81 1072.41 z" fill="rgb(83,29,29)" transform="translate(0,0)"></path>
<path d="M 1219.15 1189.57 C 1223.57 1195.21 1228.28 1207.98 1233.23 1215.08 C 1251.14 1240.75 1278.08 1268.98 1266.91 1303.09 C 1265.71 1306.76 1261.78 1315.89 1258.47 1317.57 L 1256.94 1315.5 C 1239.06 1280.16 1207.89 1274.96 1202.59 1236.57 C 1200.53 1221.64 1209.55 1201.16 1219.15 1189.57 z" fill="rgb(243,232,204)" transform="translate(0,0)"></path>
<path d="M 1281.24 1086.63 C 1288.12 1087.09 1298.66 1091.24 1301.93 1097.66 C 1318.57 1130.37 1258.21 1142.6 1239.66 1152.08 L 1238.3 1152.78 C 1234.85 1155.05 1227.53 1160.67 1224.38 1160.42 C 1222.61 1157.53 1222.89 1156.51 1222.58 1153.31 C 1219.18 1118.38 1244.54 1087.44 1281.24 1086.63 z" fill="rgb(243,232,204)" transform="translate(0,0)"></path>
<path d="M 1245.8 1351.97 L 1246.65 1352.87 C 1247.55 1358.83 1246.51 1366.58 1244.99 1372.44 C 1241.15 1387.2 1234.31 1406.5 1215.72 1402.05 C 1201.93 1380 1231.31 1362.8 1245.8 1351.97 z" fill="rgb(243,232,204)" transform="translate(0,0)"></path>
<path d="M 1283.8 277.72 L 1286.18 279.844 C 1288.39 285.833 1283.42 307.751 1282.07 315.396 C 1290.63 314.823 1295.2 315.818 1303.19 315.721 C 1309.85 315.64 1325.22 310.57 1331.73 312.433 C 1335.76 319.893 1338.39 355.391 1340.32 367.581 C 1351.22 349.551 1346.92 331.818 1360.69 317.522 C 1364.95 313.098 1383.72 312.799 1388.03 314.902 C 1388.03 315.231 1388.01 316.882 1387.91 317.132 C 1376.51 348.15 1361.57 381.329 1344.21 409.416 C 1339.37 417.251 1331.27 425.888 1324.33 431.217 C 1322.03 432.82 1312.22 439.527 1309.66 438.514 C 1301.22 435.175 1297.86 422.3 1300.74 414.256 C 1301.86 411.152 1304.91 410.219 1307.49 409.009 C 1314.66 405.101 1318.31 401.285 1323.76 395.536 C 1320.18 383.876 1317.64 374.24 1315.15 362.371 C 1313.03 352.3 1311.25 337.95 1308.12 328.636 C 1305.39 326.498 1301.59 323.117 1298.48 322.02 C 1296.54 325.033 1296.86 331.049 1296.59 335.234 C 1290.86 335.326 1285.15 335.744 1279.43 336.107 C 1276.44 348.769 1275.5 372.035 1272.88 386.862 C 1274.47 390.688 1275.27 393.161 1279.05 394.798 C 1283.35 395.131 1286.24 393.141 1290.26 391.212 C 1289.68 406.327 1291.1 419.981 1268.59 419.045 C 1232.09 417.526 1256.77 344.452 1251.72 337.573 C 1248.68 337.151 1247.46 337.209 1244.82 335.587 C 1244 332.451 1246.43 321.215 1247.66 318.111 L 1248.72 317.827 C 1259.94 314.62 1258.45 303.363 1259.09 292.522 C 1264.82 288.181 1276.65 282.199 1283.8 277.72 z" fill="rgb(83,29,29)" transform="translate(0,0)"></path>
<path d="M 733.89 503.07 C 744.493 504.914 753.995 498.811 762.874 506.873 C 767.611 509.886 776.54 500.968 782.358 501.954 C 826.119 509.37 819.079 575.888 793.005 598.764 C 783.154 607.407 775.319 607.532 764.493 606.879 L 752.342 603.667 C 752.257 603.986 752.172 604.305 752.087 604.625 L 751.704 606.231 C 748.893 617.591 750.938 634.775 748.866 638.536 C 742.376 638.192 721.562 637.75 717.616 635.684 C 717.518 632.867 723.411 613.726 724.416 607.995 C 728.929 582.254 731.806 556.861 734.877 530.943 C 736.07 520.879 731.497 510.173 733.89 503.07 z" fill="rgb(83,29,29)" transform="translate(0,0)"></path>
<path d="M 765.403 526.929 C 770.036 526.645 776.245 526.224 779.499 529.874 C 793.13 545.167 785.548 569.701 773.318 582.509 C 767.393 584.206 754.182 584.659 755.736 576.033 C 757.763 564.784 757.591 533.892 765.403 526.929 z" fill="rgb(243,232,204)" transform="translate(0,0)"></path>
<path d="M 983.512 272.393 C 1018.39 273.26 1066.01 268.171 1064.61 320.518 C 1063.79 351.51 1040.84 367.002 1012.15 367.292 C 1009.26 367.321 1009.56 366.676 1006.04 367.532 C 1003.52 370.352 1004.35 369.966 1004 374.75 C 1003.41 380.903 1001.9 413.802 1000.59 416.248 C 996.226 419.806 976.387 418.868 968.448 419.448 C 978.293 386.44 980.798 342.146 984.06 307.4 C 984.571 299.936 984.286 292.5 983.712 285.058 C 983.345 280.306 981.16 276.394 983.512 272.393 z" fill="rgb(83,29,29)" transform="translate(0,0)"></path>
<path d="M 1019.05 297.354 C 1039.95 297.398 1043.87 330.109 1022.45 343.531 C 1018.33 345.347 1009.91 347.606 1005.81 345.051 C 1005.2 341.497 1009.64 304.362 1010.91 299.802 C 1014.15 297.263 1014.26 298.016 1019.05 297.354 z" fill="rgb(243,232,204)" transform="translate(0,0)"></path>
<path d="M 284.446 1085.63 C 310.958 1079.22 337.604 1095.68 343.749 1122.25 C 349.894 1148.83 333.178 1175.31 306.545 1181.19 C 280.28 1187 254.241 1170.56 248.18 1144.35 C 242.12 1118.15 258.299 1091.95 284.446 1085.63 z" fill="rgb(144,95,91)" transform="translate(0,0)"></path>
<path d="M 676.717 457.314 C 685.951 455.837 713.714 464.557 717.653 473.135 C 717.243 479.418 709.722 488.027 705.832 493.181 C 695.92 487.2 691.153 483.82 680.06 480.853 C 658.183 488.47 660.673 501.559 678.414 512.257 C 701.17 525.979 723.106 546.847 713.63 576.183 C 706.208 599.158 693.691 609.577 669.891 612.016 C 659.336 611.571 630.725 608.058 627.556 591.231 C 627.101 588.814 632.493 571.228 634.188 569.572 C 646.097 568.499 663.349 601.506 679.64 576.788 C 692.17 558.288 670.011 543.249 655.633 534.314 C 630.753 518.851 629.805 496.926 644.99 473.852 C 651.74 463.595 664.714 459.028 676.717 457.314 z" fill="rgb(83,29,29)" transform="translate(0,0)"></path>
<path d="M 747.205 270.993 C 755.469 270.426 769.57 270.736 778.256 270.682 C 775.386 287.028 772.454 306.237 771.419 322.729 C 780.734 313.248 785.989 312.791 798.73 310.727 C 836.82 324.368 810.386 366.278 813.452 393.711 C 814.224 400.623 839.056 403.144 815.304 419.09 C 774.795 417.638 788.631 395.433 789.648 367.342 C 793.536 360.513 793.948 340.104 785.56 335.086 C 783.082 334.774 780.87 334.842 778.651 336.67 C 762.52 349.958 766.697 381.943 763.804 401.112 C 763.205 405.085 769.502 412.293 762.358 415.169 C 755.756 417.827 739.236 418.467 733.042 416.898 C 730.382 412.224 735.711 401.528 736.453 395.682 C 740.97 360.094 748.213 322.713 747.884 286.965 C 747.824 280.357 745.381 279.257 747.205 270.993 z" fill="rgb(83,29,29)" transform="translate(0,0)"></path>
<path d="M 474.109 1709.76 C 475.681 1710.09 478.571 1710.88 478.221 1712.94 C 476.216 1724.78 466.245 1748.87 459.321 1758.06 C 466.605 1761.51 500.348 1778.17 502.216 1784.64 L 501.188 1786.23 C 493.03 1790.21 467.136 1787.81 453.808 1790.17 L 452.372 1790.43 C 450.908 1800.14 445.39 1826.96 439.912 1834.5 C 433.662 1837.05 430.807 1825.55 429.262 1820.73 C 426.683 1812.69 423.993 1803.98 422.467 1795.69 L 420.74 1794.85 C 412.436 1796.77 378.697 1805.17 374.681 1797.55 C 376.244 1788.57 397.641 1771.49 405.065 1764.54 C 401.115 1755.11 389.501 1731.21 391.29 1722.33 C 397.538 1715.95 423.126 1737.51 428.096 1743.05 C 443.385 1734.03 456.386 1719.57 474.109 1709.76 z" fill="rgb(144,95,91)" transform="translate(0,0)"></path>
<path d="M 1096.21 499.024 C 1149.59 501.571 1136.53 546.998 1133.48 582.708 C 1137.94 588.545 1137.27 585.136 1141.23 587.954 C 1146.5 591.714 1142.27 602.033 1138.97 605.115 C 1135.53 608.292 1130.97 609.961 1126.3 609.749 C 1117.98 609.407 1114.19 604.838 1109.19 599.084 C 1096.08 610.35 1087.86 615.227 1071.45 607.582 C 1049.32 588.908 1060.29 564.451 1083.68 554.12 C 1093.31 549.868 1101.22 548.329 1111.63 547.282 C 1111.43 539.037 1111.93 528.24 1103.65 524.127 C 1088.25 524.466 1076.6 554.377 1066.02 520.85 C 1075.86 507.702 1081.39 504.644 1096.21 499.024 z" fill="rgb(83,29,29)" transform="translate(0,0)"></path>
<path d="M 1103.74 566.991 L 1108.08 567.152 L 1109.23 568.643 C 1109.33 576.683 1100.86 586.026 1093.87 589.245 C 1089.56 588.418 1085.86 586.762 1084.76 582.04 C 1085.74 573.233 1096.67 569.93 1103.74 566.991 z" fill="rgb(243,232,204)" transform="translate(0,0)"></path>
<path d="M 877.475 501.434 C 922.186 499.053 923.222 569.335 853.362 569.016 C 857.165 578.363 859.671 580.146 868.017 585.021 C 873.882 585.132 886.956 582.92 890.034 583.721 C 893.614 586.19 898.792 596.228 901.174 600.568 C 896.291 605.267 887.726 608.977 881.265 609.922 C 828.651 617.617 811.704 557.466 839.631 521.747 C 850.902 507.331 860.446 503.616 877.475 501.434 z" fill="rgb(83,29,29)" transform="translate(0,0)"></path>
<path d="M 870.729 524.881 C 886.911 522.873 885.073 541.996 867.069 547.963 C 861.904 548.95 859.251 550.662 855.828 546.507 C 855.063 540.906 859.648 534.052 862.43 528.947 L 870.729 524.881 z" fill="rgb(243,232,204)" transform="translate(0,0)"></path>
<path d="M 884.657 311.125 C 901.409 311.586 916.593 315.448 919.45 334.951 C 920.715 343.594 918.4 352.379 913.039 359.276 C 900.639 375.463 884.027 377.072 865.87 379.814 C 871.274 392.794 877.565 394.439 890.489 396.434 C 896.625 394.418 898.873 393.301 904.556 390.399 C 907.094 396.236 908.879 402.568 910.787 408.666 C 910.992 409.429 911.155 410.85 911.278 411.68 C 901.699 424.332 872.355 420.029 860.39 412.722 C 849.403 405.944 841.592 395.045 838.705 382.463 C 831.446 350.072 851.485 317.681 884.657 311.125 z" fill="rgb(83,29,29)" transform="translate(0,0)"></path>
<path d="M 882.299 331.853 C 901.422 333.243 891.644 353.577 875.691 359.509 C 871.75 360.807 869.808 362.251 866.752 359.212 C 864.008 349.329 873.153 335.837 882.299 331.853 z" fill="rgb(243,232,204)" transform="translate(0,0)"></path>
<path d="M 1098.39 311.447 C 1108.04 310.83 1113.86 310.139 1122.86 314.355 C 1155.33 329.567 1132.84 384.692 1136.24 394.529 C 1141.02 398.038 1139.85 395.161 1145.96 397.422 C 1150.44 410.632 1131.47 431.309 1114.09 409.208 C 1100.18 416.933 1093.17 422.445 1077.41 418.037 C 1052.24 402 1065.19 366.244 1091.94 361.467 C 1098.17 360.356 1106.12 358.76 1112.13 357.31 C 1116.19 352.854 1113.87 341.047 1109.27 337.262 C 1107.56 335.851 1105.38 335.133 1103.16 335.249 C 1094.89 335.724 1089.33 342.779 1083.96 348.375 C 1079 343.213 1075.54 337.65 1072.07 331.471 C 1072.67 330.235 1073.31 329.021 1073.99 327.829 C 1079.34 318.661 1088.59 314.091 1098.39 311.447 z" fill="rgb(83,29,29)" transform="translate(0,0)"></path>
<path d="M 1111.93 375.192 L 1112.43 375.992 C 1112.85 380.266 1110.31 386.325 1107.56 389.382 C 1101.52 396.082 1101.13 397.042 1092.54 397.917 C 1081.22 384.331 1102.72 377.928 1111.93 375.192 z" fill="rgb(243,232,204)" transform="translate(0,0)"></path>
<path d="M 650.669 271.263 C 670.942 274.249 685.792 275.953 706.661 274.949 C 713.007 274.644 730.967 271.848 735.875 273.55 C 738.845 279.428 733.44 299.688 729.877 305.131 C 726.737 305.745 724.606 304.153 721.085 302.674 C 714.912 300.081 710.315 300.592 703.67 300.676 C 700.464 320.898 693.222 375.368 692.968 395.195 C 690.995 403.853 697.621 411.422 690.406 416.861 C 684.663 417.721 664.418 418.111 658.858 416.034 C 656.09 410.872 660.948 403.735 662.03 397.821 C 667.977 365.319 672.427 332.213 675.333 299.291 C 653.944 300.736 638.77 314.906 648.109 285.708 C 649.491 281.387 647.712 277.729 650.669 271.263 z" fill="rgb(83,29,29)" transform="translate(0,0)"></path>
<path d="M 1829.36 783.348 C 1851.17 778.74 1872.61 792.616 1877.33 814.4 C 1882.05 836.184 1868.28 857.69 1846.52 862.523 C 1824.6 867.393 1802.91 853.504 1798.15 831.56 C 1793.4 809.616 1807.4 787.99 1829.36 783.348 z" fill="rgb(144,95,91)" transform="translate(0,0)"></path>
<path d="M 1304.15 501.472 C 1319.23 504.806 1319.56 502.037 1332.21 514.798 L 1331.78 516.071 C 1318.64 554.049 1296.92 500.776 1290.85 533.346 C 1293.18 540.502 1313.79 545.163 1320.14 552.669 C 1347.98 585.548 1319.73 613.797 1282.58 610.982 C 1270.8 608.756 1251.48 601.334 1259.83 585.561 C 1261.69 582.042 1266.55 577.332 1269.42 574.335 C 1275.68 582.539 1290.17 595.107 1301.67 586.273 C 1304.58 584.037 1304.92 582.925 1305.33 579.362 C 1301.39 567.601 1281.41 563.382 1269.13 552.26 L 1268.04 551.258 C 1267.25 548.597 1266.35 545.622 1265.84 542.907 C 1264.2 534.079 1266.31 524.966 1271.66 517.758 C 1280.24 506.266 1291.11 503.675 1304.15 501.472 z" fill="rgb(83,29,29)" transform="translate(0,0)"></path>
<path d="M 170.668 953.415 C 184.619 950.423 199.097 955.209 208.514 965.927 C 217.932 976.646 220.816 991.619 216.054 1005.07 C 211.292 1018.52 199.628 1028.34 185.565 1030.74 C 164.442 1034.36 144.308 1020.42 140.255 999.373 C 136.202 978.331 149.716 957.91 170.668 953.415 z" fill="rgb(144,95,91)" transform="translate(0,0)"></path>
<path d="M 1100.55 981.099 C 1119.54 978.882 1139.02 990.793 1145.47 1008.77 C 1148.69 1017.86 1148.13 1027.87 1143.92 1036.54 C 1137.76 1049.44 1129.71 1053.27 1117.53 1057.89 C 1080.33 1071.22 1045.17 1007.95 1100.55 981.099 z" fill="rgb(144,95,91)" transform="translate(0,0)"></path>
<path d="M 966.138 501.147 C 977.445 500.303 981.347 500.752 992.31 503.655 C 995.074 506.911 997.319 509.409 1000.32 512.449 C 997.772 519.388 995.777 525.604 991.986 531.966 C 987.78 534.402 982.039 537.062 977.594 539.281 L 975.043 528.609 C 972.283 525.985 972.059 525.922 968.939 524.069 C 948.468 522.27 940.595 564.829 951.644 577.78 C 958.055 585.295 961.783 585.154 970.766 586.069 C 976.403 583.433 980.984 578.595 984.477 578.244 L 985.836 582.351 C 988.31 587.308 990.979 595.417 992.933 600.841 C 941.289 639.089 900.414 569.415 929.039 525.931 C 939.643 509.822 948.289 505.842 966.138 501.147 z" fill="rgb(83,29,29)" transform="translate(0,0)"></path>
<path d="M 1786.25 1541.67 C 1806.18 1536.83 1826.24 1549.11 1831 1569.05 C 1835.77 1589 1823.42 1609.02 1803.45 1613.71 C 1783.6 1618.37 1763.7 1606.1 1758.96 1586.26 C 1754.22 1566.42 1766.42 1546.48 1786.25 1541.67 z" fill="rgb(144,95,91)" transform="translate(0,0)"></path>
<path d="M 1388.33 474.793 L 1390.92 476.076 C 1394.2 484.701 1381.83 498.599 1389.64 507.597 C 1393.39 509.599 1397.05 508.495 1401.51 507.938 C 1401.08 514.455 1400.23 521.061 1399.49 527.557 C 1394.44 527.826 1389.57 527.625 1385.04 529.635 C 1380.95 535.505 1378.04 570.007 1378.83 578.581 C 1379.18 582.437 1379.43 583.32 1382.35 585.823 C 1385.7 586.955 1387.07 586.121 1390.48 585.06 L 1391.74 584.656 L 1393.12 585.604 C 1393.58 589.889 1391.38 600.959 1390.94 606.718 C 1386.27 609.048 1385.13 609.615 1380.09 610.783 C 1378.36 610.873 1376.62 610.934 1374.88 610.966 C 1337.11 611.541 1356.42 551.195 1356.29 530.993 C 1353.2 526.474 1351.46 531.466 1346.94 527.65 C 1345.37 521.79 1348.12 515.771 1350.15 510.117 C 1359.02 503.253 1363.84 500.103 1367.54 489.731 L 1368.03 488.321 C 1375.33 483.94 1381.36 479.709 1388.33 474.793 z" fill="rgb(83,29,29)" transform="translate(0,0)"></path>
<path d="M 1171.05 457.164 C 1178.13 457.409 1193.12 456.673 1199.03 457.888 C 1201.56 463.256 1183.67 578.149 1186.76 593.806 C 1187.1 595.528 1188.35 606.44 1188.04 607.431 L 1184.42 609.029 C 1177.55 609.052 1159.46 610.404 1154.6 607.692 C 1153.84 600.873 1160.2 589.542 1160.75 581.99 C 1163.14 548.7 1168.37 515.183 1171.78 481.917 C 1172.76 472.29 1169.79 465.685 1171.05 457.164 z" fill="rgb(83,29,29)" transform="translate(0,0)"></path>
<path d="M 1226.9 311.375 C 1243.63 310.451 1230.31 342.819 1221.24 345.488 C 1186.97 322.458 1191.43 401.78 1192.09 418.203 C 1184.76 418.891 1165.74 420.482 1159.87 417.063 C 1158.73 413.554 1159.18 414.464 1160.41 410.203 C 1166.72 392.98 1167.65 353.171 1169.87 333.931 C 1170.04 332.504 1153.45 320.498 1172.07 316.608 C 1179.14 315.131 1182.65 314.655 1189.3 313 L 1190.95 314.238 C 1194.32 321.204 1193.78 326.435 1192.91 333.701 C 1205.66 320.475 1206.42 312.03 1226.9 311.375 z" fill="rgb(83,29,29)" transform="translate(0,0)"></path>
<path d="M 1691.58 1703.81 C 1701.5 1705.65 1706.95 1716.67 1716.62 1723.86 C 1722.46 1720 1741.64 1706.3 1747.35 1706.13 C 1749.19 1710.45 1739.32 1731.18 1737.63 1738.23 C 1742.26 1744.42 1760.58 1756.24 1759.7 1761.04 C 1753.79 1763.66 1742.78 1760.84 1736.09 1759.64 L 1728.52 1757.88 C 1723.06 1766.28 1716.49 1786.39 1710.3 1789.7 C 1703.15 1787.17 1706.09 1763.4 1704.87 1760.11 C 1702.47 1753.68 1678.24 1760.28 1672.08 1754.33 C 1673.6 1749.75 1690.07 1739.52 1695.76 1735.03 C 1694.2 1727.09 1689.6 1710.6 1691.58 1703.81 z" fill="rgb(144,95,91)" transform="translate(0,0)"></path>
<path d="M 1038.53 504.689 C 1044.16 502.678 1047.53 508.681 1046.84 513.785 C 1043.55 538.06 1040.17 562.287 1038.14 586.71 C 1037.65 592.609 1039.62 603.826 1037.42 608.448 C 1031.57 609.683 1018.13 609.052 1010.24 609.696 L 1006.96 609.051 C 1004.69 607.066 1005.47 608.313 1004.98 604.94 C 1014.82 582.244 1015.58 548.457 1018.19 523.667 C 1018.56 520.09 1011.28 512.476 1013.66 505.579 C 1018.1 504.339 1032.77 504.784 1038.53 504.689 z" fill="rgb(83,29,29)" transform="translate(0,0)"></path>
<path d="M 1224.51 505.125 C 1227.26 505.59 1242.26 505.859 1246.68 506.17 C 1249.5 522.419 1240.14 562.017 1239.6 580.723 C 1239.4 587.481 1240.57 603.543 1238.69 608.145 C 1235.64 609.548 1231.8 609.156 1228.33 609.134 C 1220.95 608.63 1215.63 610.148 1207.75 609.059 C 1207.04 607.378 1206.55 606.278 1207.05 604.372 C 1213.67 579.134 1215.87 552.983 1219.65 527.238 C 1220.83 519.158 1216.31 511.211 1218.84 506.468 L 1224.51 505.125 z" fill="rgb(83,29,29)" transform="translate(0,0)"></path>
<path d="M 982.353 1367.27 C 998.278 1364.57 1013.4 1375.24 1016.19 1391.15 C 1018.99 1407.05 1008.41 1422.24 992.519 1425.12 C 976.495 1428.04 961.162 1417.35 958.344 1401.31 C 955.525 1385.27 966.296 1370 982.353 1367.27 z" fill="rgb(144,95,91)" transform="translate(0,0)"></path>
<path d="M 1603.52 1521.01 C 1609.31 1520.88 1611.28 1521.86 1616.6 1523.75 C 1625.93 1535.74 1622.9 1542.95 1610.5 1550.96 C 1596.07 1549.77 1589.63 1554.66 1576.05 1556.32 C 1562.91 1557.93 1553.24 1557.36 1539.93 1560.66 C 1537.48 1560.64 1535.06 1560.24 1532.74 1559.46 C 1529.27 1558.27 1524.99 1555.14 1523.82 1551.73 C 1517.36 1533.02 1539.01 1530.74 1551.91 1531.75 C 1558.87 1532.3 1568.81 1531.85 1575.27 1530.98 C 1584.49 1529.75 1595.2 1524.72 1603.52 1521.01 z" fill="rgb(144,95,91)" transform="translate(0,0)"></path>
<path d="M 1689.48 611.744 C 1690.31 611.805 1692.47 611.9 1692.93 612.276 C 1703.7 621.036 1731.31 664.559 1734.74 675.107 C 1729.41 678.952 1723.86 684.069 1718.85 688.459 L 1716.09 687.854 C 1709.98 683.245 1678.01 633.768 1675.36 626.514 C 1675.94 620.777 1684.48 615.928 1689.48 611.744 z" fill="rgb(144,95,91)" transform="translate(0,0)"></path>
<path d="M 1849.74 1031.63 C 1858.28 1029.51 1867.31 1032.23 1873.25 1038.72 C 1879.2 1045.21 1881.12 1054.43 1878.26 1062.76 C 1875.4 1071.08 1868.21 1077.17 1859.53 1078.63 C 1846.8 1080.77 1834.66 1072.47 1832.03 1059.84 C 1829.4 1047.21 1837.22 1034.75 1849.74 1031.63 z" fill="rgb(144,95,91)" transform="translate(0,0)"></path>
<path d="M 146.789 1234.1 C 154.003 1232.73 161.444 1234.78 166.937 1239.66 C 172.43 1244.53 175.354 1251.67 174.853 1259 C 174.153 1269.23 166.95 1277.85 157.004 1280.36 C 146.268 1283.06 135.09 1277.98 130.081 1268.1 C 125.073 1258.23 127.569 1246.2 136.094 1239.14 C 139.177 1236.58 142.856 1234.85 146.789 1234.1 z" fill="rgb(144,95,91)" transform="translate(0,0)"></path>
<path d="M 1188.77 884.939 C 1196.42 883.448 1204.31 885.856 1209.83 891.365 C 1215.35 896.875 1217.76 904.765 1216.28 912.419 C 1214.52 921.54 1207.53 928.759 1198.48 930.826 C 1190.22 932.711 1181.59 929.998 1175.89 923.729 C 1170.2 917.461 1168.33 908.609 1171 900.572 C 1173.66 892.535 1180.46 886.559 1188.77 884.939 z" fill="rgb(144,95,91)" transform="translate(0,0)"></path>
<path d="M 589.287 965.69 C 601.656 964.764 612.546 973.774 613.953 986.097 C 615.359 998.42 606.779 1009.65 594.521 1011.54 C 586.155 1012.83 577.755 1009.43 572.631 1002.69 C 567.507 995.958 566.48 986.957 569.954 979.239 C 573.428 971.52 580.847 966.321 589.287 965.69 z" fill="rgb(144,95,91)" transform="translate(0,0)"></path>
<path d="M 225.581 1601.53 C 233.588 1599.76 241.93 1602.41 247.452 1608.47 C 252.975 1614.53 254.836 1623.08 252.331 1630.89 C 249.835 1638.67 243.383 1644.54 235.399 1646.28 C 223.052 1648.97 210.858 1641.15 208.149 1628.81 C 205.441 1616.46 213.241 1604.26 225.581 1601.53 z" fill="rgb(144,95,91)" transform="translate(0,0)"></path>
<path d="M 1652.32 852.149 C 1664.74 853.146 1674.07 863.912 1673.3 876.35 C 1672.52 888.789 1661.93 898.314 1649.48 897.763 C 1641.22 897.398 1633.81 892.605 1630.08 885.228 C 1626.36 877.852 1626.91 869.04 1631.52 862.182 C 1636.13 855.324 1644.08 851.488 1652.32 852.149 z" fill="rgb(144,95,91)" transform="translate(0,0)"></path>
<path d="M 1033.05 460.042 C 1057.58 459.484 1059.96 482.749 1038.32 494.087 C 1027.14 493.26 1023.59 487.474 1019.25 478.286 C 1021.93 468.28 1024.32 465.798 1033.05 460.042 z" fill="rgb(83,29,29)" transform="translate(0,0)"></path>
<path d="M 1233.12 461.079 C 1244.17 460.046 1254.43 464.149 1253.04 477.128 C 1252.16 485.266 1246.92 488.233 1240.84 492.588 C 1233.58 493.703 1227.15 491.075 1223.85 484.244 C 1221.83 480.037 1221.56 475.203 1223.09 470.796 C 1225.17 464.944 1227.79 463.423 1233.12 461.079 z" fill="rgb(83,29,29)" transform="translate(0,0)"></path>
<metadata><recraft-signature>{"signed_by": "recraft", "signature_b64": "PJzqAPpnGiiDXt1tJB4y724cARAG1jxzyb9HHnHOcF40FMiGTJQq8vhzgW2ufrxwWYa+xIYwQpjpFStUXDn5Bg==", "signing_algo": "Ed25519", "generation_timestamp": 1772546766, "identifier": "a12c6ca8-d20d-470f-bf5a-e235a9de2b84"}</recraft-signature></metadata></svg>