<svg xmlns="http://www.w3.org/2000/svg" height="1024" preserveAspectRatio="none" style="display: block;" version="1.1" viewBox="0 0 2048 2048" width="1024">
<path d="M 0 0 L 2048 0 L 2048 2048 L 0 2048 L 0 0 z" fill="rgb(248,248,246)" transform="translate(0,0)"></path>
<path d="M 1024.19 397.666 C 1026.65 402.069 1037.67 434.936 1039.87 441.371 C 1051.1 474.996 1062.74 508.484 1074.79 541.827 C 1125.47 542.271 1172.57 541.798 1223.58 544.103 C 1188.88 570.085 1153.96 595.774 1118.83 621.167 C 1104.62 631.483 1080.01 647.167 1068.73 658.827 C 1063.34 679.83 1065.24 693.867 1064.23 715.07 C 1063.98 720.426 1057.57 731.308 1057.28 735.857 C 1055.87 757.429 1056.7 781.08 1056.73 802.724 C 1047.07 815.508 1022.05 837.928 1009.5 849.99 C 1003.8 855.517 998.102 861.379 992.484 867.019 C 993.311 842.058 992.579 815.884 992.844 790.809 C 993.017 774.5 993.04 755.249 991.75 739.085 C 991.246 732.768 984.896 721.479 984.208 712.851 C 982.842 695.71 984.764 675.425 980.867 658.916 C 974.832 652.152 950.019 634.966 941.645 628.874 L 876.427 581.411 C 860.1 569.667 840.858 556.627 825.94 543.623 C 867.831 540.407 930.108 541.974 973.305 542 C 991.901 497.793 1005.58 441.132 1024.19 397.666 z" fill="rgb(4,3,89)" transform="translate(0,0)"></path>
<path d="M 1228.94 578.049 C 1230.15 577.973 1231.36 577.932 1232.57 577.927 C 1238.06 577.938 1244.09 579.884 1247.84 584.051 C 1252.82 589.574 1253.26 596.335 1250.24 602.959 C 1244.03 616.584 1182.29 671.745 1167.14 685.605 C 1158.47 693.532 1147.94 701.52 1141.01 711.023 C 1138.47 714.508 1136.84 718.315 1136.65 722.661 C 1136.42 727.8 1137.68 735.237 1141.63 738.926 C 1146.79 743.759 1154.67 743.068 1161.19 742.912 C 1171.72 736.488 1180.78 725.649 1189.56 717.047 C 1207.3 699.645 1225.49 682.741 1243.41 665.533 C 1254.2 655.171 1265.51 641.467 1278.1 633.618 C 1281.04 631.789 1284.01 630.923 1287.47 630.926 C 1292.47 630.929 1297.44 632.89 1300.79 636.665 C 1305.17 641.614 1307.14 648.81 1304.55 655.061 C 1301.37 662.742 1226.43 731.835 1212.6 744.993 C 1205.05 752.169 1194.73 760.066 1188.77 768.479 C 1186.82 771.219 1185.78 774.495 1185.78 777.855 C 1185.74 783.398 1188.61 788.9 1192.72 792.588 C 1208.61 806.848 1224.18 786.601 1235.82 775.643 C 1256.74 755.87 1277.49 735.926 1298.07 715.815 C 1304.7 709.391 1321.99 691.773 1328.08 687.012 C 1331.2 684.579 1335.01 683.199 1338.97 683.071 C 1344.21 682.888 1349.29 684.84 1353.06 688.478 C 1369.64 704.565 1343.41 722.424 1332.79 732.696 C 1308.74 755.676 1284.39 777.941 1260.56 801.721 C 1229.14 833.063 1195.58 871.7 1146 854.769 C 1134.93 850.23 1115.03 836.927 1103.43 847.489 C 1063.71 883.638 1024.87 923.954 985.738 960.627 C 985.783 939.585 985.688 918.542 985.452 897.501 C 1006.02 879.144 1025.01 856.997 1045.6 838.377 C 1054.88 829.983 1064.83 820.324 1073.21 811.052 C 1072.86 792.307 1073.06 773.44 1072.94 754.698 C 1072.74 721.517 1095.68 703.617 1118.03 682.112 L 1160.32 641.445 L 1202.34 601.501 C 1209.33 594.93 1221.28 583.225 1228.94 578.049 z" fill="rgb(213,167,84)" transform="translate(0,0)"></path>
<path d="M 812.643 577.06 C 815.584 577.021 819.065 576.615 821.343 578.724 C 864.636 618.805 907.449 659.585 950.232 700.234 C 958.905 708.971 971.495 724.68 973.991 737.171 C 977.408 754.28 976.081 778.316 976.006 796.023 L 975.492 873.11 C 964.323 864.371 948.152 840.569 933.588 843.491 C 914.3 847.362 900.94 859.594 879.624 858.568 C 837.134 856.524 805.782 816.871 776.22 789.23 C 759.158 773.3 742.199 757.259 725.345 741.108 C 715.854 732.073 706.642 723.397 697.192 713.816 C 688.675 705.182 689.744 694.111 698.595 685.854 C 703.125 681.628 709.524 682.554 715.281 683.218 C 722.873 687.735 745.011 709.964 752.563 717.304 C 764.425 729.033 827.236 791.063 837.968 795.858 C 842.118 797.712 846.532 798.18 850.8 796.435 C 855.836 794.376 859.552 789.77 861.588 784.833 C 863.311 780.656 863.957 775.739 861.972 771.538 C 857.712 762.52 845.832 753.354 838.727 746.478 C 826.554 734.7 748.396 663.344 745.326 655.095 C 743.589 650.429 744.162 644.408 746.35 639.993 C 748.321 636.014 752.056 632.839 756.287 631.496 C 761.158 629.949 766.428 630.647 770.848 633.155 C 780.769 638.784 798.108 658.688 807.363 667.528 C 825.846 685.181 844.933 702.214 863.309 719.976 C 870.094 726.535 878.496 737.538 886.849 741.75 C 890.834 743.76 896.389 743.248 900.469 741.832 C 905.147 740.21 910.073 736.448 912.141 731.857 C 914.688 726.203 913.689 719.942 910.796 714.626 C 905.488 704.873 894.514 696.79 886.417 689.231 C 870.953 674.793 855.686 660.21 839.978 646.03 C 828.479 635.649 815.521 625.533 805.315 613.937 C 801.924 610.084 798.872 605.985 797.273 601.048 C 795.909 596.836 795.504 591.702 797.739 587.702 C 800.872 582.096 806.73 578.877 812.643 577.06 z" fill="rgb(213,167,84)" transform="translate(0,0)"></path>
<path d="M 1062.92 908.772 C 1064.33 914.508 1063.76 931.731 1063.79 938.471 L 1063.91 1001.27 L 1063.75 1105.22 C 1063.81 1122.59 1065.99 1151.84 1063.09 1168.23 C 1057.31 1200.84 1021.76 1207.37 997.638 1188.78 C 997.089 1188.27 996.55 1187.75 996.02 1187.23 C 991.63 1182.84 986.776 1175.32 986.136 1169.22 C 984.146 1150.25 984.989 1127.56 985.005 1108.37 L 985.213 986.328 C 1007.34 962.492 1039.18 931.816 1062.92 908.772 z" fill="rgb(4,3,89)" transform="translate(0,0)"></path>
<path d="M 1176.21 1311.49 C 1200.63 1310.56 1239.62 1308 1262.62 1316.96 C 1281.13 1324.17 1282.45 1346.26 1273.28 1361.5 C 1266.76 1372.36 1255.77 1374.3 1244.23 1376.99 C 1271.05 1387.1 1270.32 1388.83 1274.65 1415.78 C 1275.4 1420.44 1277.87 1428.77 1281.35 1431.98 C 1287.79 1437.92 1292.94 1428.84 1296.22 1424.49 L 1297.72 1424.29 C 1306.05 1441.11 1272.11 1442.69 1257.58 1429.35 C 1249.76 1419.23 1252.24 1399.58 1245.42 1383.44 C 1242.66 1381.17 1238.84 1378.98 1235.75 1377.07 C 1229.03 1376.79 1221.31 1376.94 1214.51 1376.92 C 1214.13 1391.03 1212.44 1414.74 1216.12 1428.82 C 1216.89 1431.75 1227.36 1432.68 1230.67 1434.26 L 1230.31 1435.8 C 1225.22 1437.91 1179.14 1436.99 1171.3 1435.87 C 1177.3 1433.65 1186.15 1432.27 1193.35 1430.04 C 1191.99 1395.41 1193.02 1352.74 1192.95 1317.66 C 1187.46 1316.6 1181.42 1316.62 1176.62 1314.22 L 1176.21 1311.49 z" fill="rgb(4,3,89)" transform="translate(0,0)"></path>
<path d="M 1215 1315.12 C 1225.1 1314.87 1238.15 1313.5 1246.79 1319.28 C 1260.87 1328.69 1259.26 1355.15 1250.61 1367.6 C 1239.71 1375.65 1228.97 1373.39 1214.63 1373.16 C 1214.56 1355.51 1213.79 1332.12 1215 1315.12 z" fill="rgb(248,248,246)" transform="translate(0,0)"></path>
<path d="M 619.998 1515.42 C 627.426 1515.03 639.866 1515.34 647.608 1515.44 C 667.589 1515.69 693.338 1511.36 709.808 1524.58 C 717.407 1530.65 722.077 1539.65 722.659 1549.36 C 725.293 1589.05 683.728 1587.11 657.045 1587.08 L 656.998 1609.5 C 656.98 1631.36 652.68 1634.96 676.752 1637.84 L 677.31 1638.81 C 671.855 1642.34 628.79 1641.59 621.78 1639.83 L 621.453 1638.03 C 623.875 1636.36 628.007 1636.36 631.672 1635.5 C 633.279 1634.2 634.146 1633.34 635 1631.4 C 636.684 1627.58 636.381 1527.21 634.802 1523.3 C 632.595 1517.83 625.354 1520.19 620.829 1518.13 L 619.998 1515.42 z" fill="rgb(4,3,89)" transform="translate(0,0)"></path>
<path d="M 656.991 1518.77 C 666.644 1518.45 680.273 1517.4 688.596 1522.83 C 703.823 1532.76 702.972 1563.39 693.775 1577.11 C 682.583 1585.29 670.84 1583.97 657.077 1583.52 C 656.831 1562.14 656.952 1540.18 656.991 1518.77 z" fill="rgb(248,248,246)" transform="translate(0,0)"></path>
<path d="M 967.26 1311.65 C 995.452 1311.43 1060.02 1303.58 1060.3 1345.67 C 1060.3 1355.35 1056.42 1364.62 1049.53 1371.41 C 1041.13 1379.73 1029.84 1383.17 1018.2 1382.95 C 1010.39 1383.1 1002.59 1383.11 994.779 1382.99 C 995.322 1394.91 993.291 1419.33 996.109 1428.94 C 998.555 1431.05 1007.13 1433.33 1011.49 1435.38 L 1011.2 1436.25 C 1004.28 1437.33 963.756 1437.37 957.673 1435.83 C 958.754 1433.19 973.202 1431.18 973.23 1426.54 C 973.315 1412.1 974.727 1327.4 972.777 1319.23 C 970.561 1316.24 969.709 1316.28 966.18 1315.2 L 967.26 1311.65 z" fill="rgb(4,3,89)" transform="translate(0,0)"></path>
<path d="M 994.832 1315 C 1019.54 1314.93 1037.71 1316.64 1037.55 1347.49 C 1037.45 1368.64 1032.38 1377.05 1011.2 1380.21 C 1013.54 1381.54 1015.68 1382.04 1018.2 1382.95 C 1010.39 1383.1 1002.59 1383.11 994.779 1382.99 C 994.724 1382.03 994.728 1381.17 994.722 1380.21 C 995.787 1361.96 994.903 1334.06 994.832 1315 z" fill="rgb(248,248,246)" transform="translate(0,0)"></path>
<path d="M 994.722 1380.21 C 999.843 1380.08 1006.16 1379.81 1011.2 1380.21 C 1013.54 1381.54 1015.68 1382.04 1018.2 1382.95 C 1010.39 1383.1 1002.59 1383.11 994.779 1382.99 C 994.724 1382.03 994.728 1381.17 994.722 1380.21 z" fill="rgb(9,9,93)" transform="translate(0,0)"></path>
<path d="M 737.149 1372.87 C 737.092 1359.06 739.85 1331.42 734.184 1318.83 C 732.437 1314.95 726.631 1316.35 723.202 1314.12 L 723.374 1312.84 C 726.938 1310.99 767.581 1311.32 773.656 1312.4 L 774.496 1314.09 L 772.787 1315.41 C 767.302 1316.05 763.632 1316.09 759.791 1320.1 C 755.198 1335.13 761.304 1400.07 759.491 1419.1 C 758.186 1432.79 765.343 1430.63 774.476 1434.58 C 769.879 1438.46 731.205 1437.11 723.306 1436.26 C 724.023 1434.77 734.186 1430.92 736.52 1429.87 C 738.917 1424.93 737.315 1385 737.24 1376.61 C 719.798 1376.5 702.355 1376.57 684.914 1376.8 C 684.976 1390.96 682.392 1415.4 687.244 1429.08 C 688.923 1433.81 694.127 1431.46 697.441 1435.48 L 696.508 1436.75 C 690.517 1437.49 652.368 1437.92 648.594 1435.89 C 650.564 1432.23 653.592 1434.79 660.194 1430.91 C 664.03 1425.41 662.82 1334.19 661.757 1321.1 C 656.626 1312.53 649.77 1317.98 644.656 1312.47 C 652.354 1311.12 696.443 1311.64 705.235 1312.58 C 697.609 1315.33 692.205 1314.49 686.307 1319.28 C 683.419 1326.75 684.681 1362.17 684.769 1372.41 L 737.149 1372.87 z" fill="rgb(9,9,93)" transform="translate(0,0)"></path>
<path d="M 780.873 1312.19 C 790.779 1310.56 812.922 1311.16 823.865 1311.24 C 844.517 1311.41 865.17 1311.44 885.822 1311.32 C 886.29 1323.27 888.208 1335.84 889.157 1347.95 L 885.414 1349.24 C 878.943 1315.25 853.361 1314.67 825.368 1315.2 C 825.398 1332.95 825.093 1351.95 825.659 1369.61 C 864.013 1370.75 848.456 1342.94 857.874 1342.85 C 859.425 1345.42 859.482 1396.71 858.556 1400.81 L 857.094 1401.62 C 855.313 1399.85 854.824 1397.73 854.048 1395.32 C 847.951 1376.37 846.651 1374.5 825.599 1373.99 L 825.995 1432.51 C 854.408 1433.9 883.917 1433.54 889.414 1398 L 893.341 1398.81 C 893.149 1411.23 891.855 1424.45 890.808 1436.87 C 868.53 1437.19 845.878 1436.86 823.572 1437.02 C 816.972 1437.06 793.702 1437.48 788.533 1436.32 L 787.839 1434.69 C 793.018 1430.67 797.642 1434.7 802.48 1428.54 C 804.758 1419.9 804.006 1330.25 802.532 1320.36 C 798.952 1316.07 786.916 1314.69 780.873 1312.19 z" fill="rgb(4,3,89)" transform="translate(0,0)"></path>
<path d="M 727.71 1639.83 C 733.193 1637.59 747.767 1635.22 747.992 1632.7 C 749.849 1611.98 749.715 1540.94 748.803 1524.17 C 745.138 1516.45 739.522 1520.7 732.624 1517.02 L 733.061 1515.53 C 741.393 1514.4 760.132 1514.92 769.478 1514.96 C 789.098 1515.03 810.162 1514.5 829.659 1515.39 C 830.883 1531.16 833.641 1546.27 834.054 1562.3 C 828.666 1550.52 828.162 1538.58 816.9 1527.93 C 804.497 1516.21 786.824 1518.29 770.803 1518.55 C 770.724 1532.71 769.859 1560.69 771.327 1573.87 C 799.823 1573.22 795.249 1561.63 803.493 1540.45 C 804.385 1556.7 804.636 1593.82 803.386 1609.88 L 802.959 1608.74 C 798.754 1597.35 798.726 1584.73 787.651 1579.7 C 781.145 1576.75 778.287 1577.58 771.591 1576.22 C 769.359 1583.58 770.204 1626.44 770.247 1636.85 C 775.97 1636.93 781.694 1636.92 787.417 1636.84 C 808.452 1636.38 826.982 1630.26 833.213 1607.18 C 834.49 1602.44 833.999 1597.06 836.893 1594.03 L 838.189 1594.8 C 840.122 1600.6 837.026 1632.21 836.684 1640.96 L 769.255 1640.88 C 756.767 1640.83 739.798 1641.18 727.71 1639.83 z" fill="rgb(4,3,89)" transform="translate(0,0)"></path>
<path d="M 1058.78 1596.97 C 1055.64 1605.5 1051.25 1615.77 1050.15 1624.71 C 1048.75 1636.09 1063.09 1634.12 1067.5 1639.36 L 1066.35 1640.34 C 1060.43 1641.07 1028 1642.07 1024.52 1639.7 L 1024.59 1638.17 C 1028.71 1634.6 1033.93 1634.43 1037.53 1632.27 C 1044.67 1628 1049.58 1608.6 1052.46 1600.86 L 1071.58 1549.66 C 1073.75 1543.67 1083.36 1513.38 1087.64 1511.66 C 1094.1 1519.18 1096.1 1532.16 1100.32 1540.59 C 1112.9 1565.72 1122.56 1609.94 1138.02 1632.3 L 1138.82 1633.44 C 1142.97 1635.13 1145.5 1636.19 1149.39 1638.37 L 1147.42 1640.54 C 1134.13 1640.66 1104.41 1641.64 1092.06 1639.33 C 1114.14 1632.96 1114.88 1632.95 1105.14 1610.06 C 1103.4 1605.98 1101.58 1601.16 1099.91 1596.98 L 1058.78 1596.97 z" fill="rgb(4,3,89)" transform="translate(0,0)"></path>
<path d="M 1078.59 1542.72 C 1081.37 1545.43 1095.68 1586.09 1098.26 1593.02 L 1081.15 1593.06 L 1060.23 1593.11 C 1066.62 1576.82 1072.21 1559.11 1078.59 1542.72 z" fill="rgb(248,248,246)" transform="translate(0,0)"></path>
<path d="M 1044.05 1436.6 C 1068.58 1425.14 1063.22 1426.47 1072.58 1404.37 C 1078.78 1389.74 1101.86 1317.09 1107.87 1309.42 L 1109.93 1308.68 C 1118.54 1316.38 1145.82 1412.55 1160.71 1430.87 L 1161.94 1431.26 C 1165.19 1432.31 1166.77 1432.46 1168.96 1435.05 C 1166.72 1438.45 1125.01 1437.51 1120.56 1435.28 L 1120.8 1433.93 C 1127.03 1432.25 1127.52 1434.1 1131.77 1430.96 C 1134.73 1422.87 1125.65 1401.91 1121.66 1393.86 C 1111.41 1394.15 1093.18 1394.1 1083.23 1392.93 C 1077.34 1397.09 1069.83 1422.04 1073.75 1428.4 C 1079.07 1430.73 1085.47 1432.25 1089.86 1435.21 L 1089.23 1436.38 C 1082.76 1437.63 1051.71 1437.22 1044.05 1436.6 z" fill="rgb(4,3,89)" transform="translate(0,0)"></path>
<path d="M 1101.31 1337.41 C 1107.79 1354.25 1113.94 1373.58 1120.67 1389.98 C 1120.92 1391.85 1121.04 1392.05 1121.66 1393.86 C 1111.41 1394.15 1093.18 1394.1 1083.23 1392.93 C 1084.33 1391.82 1084.49 1391.89 1084.85 1390.59 C 1084.62 1390.39 1083.1 1389.2 1083.18 1388.88 C 1086.24 1376.66 1097.3 1347.09 1101.31 1337.41 z" fill="rgb(248,248,246)" transform="translate(0,0)"></path>
<path d="M 1120.67 1389.98 C 1120.92 1391.85 1121.04 1392.05 1121.66 1393.86 C 1111.41 1394.15 1093.18 1394.1 1083.23 1392.93 C 1084.33 1391.82 1084.49 1391.89 1084.85 1390.59 C 1093.67 1389.41 1110.8 1390.14 1120.67 1389.98 z" fill="rgb(9,9,93)" transform="translate(0,0)"></path>
<path d="M 528.077 1311.18 C 563.958 1311.44 599.938 1310.88 635.805 1311.39 C 635.628 1327.94 638.548 1344.99 637.91 1362.39 C 625.264 1335.64 632.794 1316.61 591.759 1315.08 C 592.904 1352.34 592.473 1391.29 593.066 1428.78 C 599.52 1433.75 605.536 1432.09 609.6 1435.27 L 609.035 1436.26 C 604.59 1437.48 558.59 1437.53 553.873 1436.35 L 553.533 1434.59 C 558.592 1431.33 560.042 1435.45 568.715 1430.43 C 573.362 1423.92 570.985 1329.94 570.938 1314.89 C 537.374 1315.69 533.365 1334.86 526.177 1362.44 C 524.826 1352.28 527.407 1323.06 528.077 1311.18 z" fill="rgb(4,3,89)" transform="translate(0,0)"></path>
<path d="M 1434.44 1514.99 L 1497.97 1515.11 L 1540.89 1515.27 C 1542.41 1527.57 1545.16 1553.75 1544.58 1565.53 C 1535.69 1550.42 1538.38 1527.56 1516.9 1521.17 C 1510.53 1519.27 1505.43 1519.06 1498.94 1518.86 C 1498.16 1548.57 1499.43 1578.76 1498.5 1608.54 C 1498.27 1615.77 1498.11 1625.53 1500.08 1632.35 C 1503.74 1634.98 1510.08 1635.33 1515.63 1638.26 L 1515.94 1639.97 L 1514.5 1640.82 C 1507.18 1640.86 1463.92 1641.43 1459.01 1639.94 C 1461.35 1633.54 1476.2 1640.75 1476.95 1625.88 C 1477.62 1612.63 1477.41 1599.17 1477.4 1585.92 C 1477.4 1563.6 1477.53 1541.28 1477.79 1518.96 C 1441.66 1519.4 1442.56 1537.66 1432.27 1564.99 C 1431.43 1552.06 1433.91 1529.43 1434.44 1514.99 z" fill="rgb(4,3,89)" transform="translate(0,0)"></path>
<path d="M 1297.78 1311.26 C 1333.58 1311.11 1369.38 1311.27 1405.19 1311.76 C 1405.37 1317.45 1407.79 1354.84 1406.11 1357.13 C 1392.28 1345 1413.45 1319.32 1361.05 1314.88 C 1361.05 1349.7 1360.79 1394.59 1362.14 1428.74 C 1366.7 1432.68 1372.28 1432.69 1378.19 1434.73 L 1378.58 1435.84 L 1377.34 1436.82 C 1369.57 1437.07 1327.95 1438.13 1323.6 1435.81 L 1323.2 1434.17 C 1328.08 1431.4 1339.6 1435.33 1340.39 1423.07 C 1341.12 1411.6 1340.76 1399.47 1340.73 1387.99 L 1340.55 1314.82 C 1305.81 1316.69 1303.23 1332.73 1296.53 1362.68 C 1294.53 1348.26 1296.96 1326.2 1297.78 1311.26 z" fill="rgb(4,3,89)" transform="translate(0,0)"></path>
<path d="M 1363.61 1512.29 C 1381.16 1511.27 1389.54 1513.59 1402.51 1525.6 C 1405.11 1522.18 1408.15 1516.66 1411.43 1515.07 L 1412.57 1516.12 C 1413.37 1528.63 1413.08 1549.16 1412.34 1561.68 C 1405.57 1540.26 1402.69 1522.88 1375.69 1516.4 C 1350.87 1510.44 1328.68 1536.75 1348.66 1551.76 C 1363.65 1561.12 1406.04 1564.88 1415.94 1581.96 C 1437.19 1618.57 1409.22 1649.1 1369.52 1642.79 C 1357.12 1639.71 1350.79 1633.55 1341 1625.87 C 1337.75 1630.86 1336.17 1635.86 1332.75 1641.47 L 1331.41 1640.83 C 1330.01 1632.68 1330.37 1592.14 1331.58 1582.94 C 1337.03 1600.37 1339.19 1617.89 1354.24 1630.6 C 1368.39 1642.54 1394.96 1643.96 1407.59 1628.91 C 1411.08 1624.75 1413.82 1614.63 1412.58 1609.17 C 1409.56 1595.34 1390.7 1589.01 1376.77 1586.37 C 1343.71 1580.1 1318.33 1561.25 1338.49 1525.03 C 1342.75 1517.38 1354.54 1513.66 1363.61 1512.29 z" fill="rgb(4,3,89)" transform="translate(0,0)"></path>
<path d="M 1408.3 1312.43 C 1414.81 1311.19 1456.75 1311.51 1464.18 1312.31 L 1465.1 1313.65 C 1462.82 1317.3 1456.26 1314.64 1451.62 1318.51 C 1449.4 1326.35 1474.79 1368.36 1479.69 1377.54 C 1485.57 1366.67 1507.47 1333.18 1504.88 1321.6 C 1504.09 1318.09 1497.11 1315.93 1493.61 1314.59 L 1493.06 1313.02 C 1497.15 1311.13 1527.78 1312.14 1533.84 1312.38 C 1530.35 1314.06 1525.54 1315.53 1522.31 1317.58 C 1512.13 1324.03 1506.18 1338.01 1500.58 1348.61 C 1494.49 1360.46 1480.78 1380.12 1481.32 1392.26 C 1481.57 1397.88 1479.61 1426.64 1484.16 1430.56 C 1486.96 1432.98 1492.58 1431.72 1495.42 1434.81 L 1494.21 1436.53 C 1484.59 1437.9 1446.8 1437.32 1437.51 1435.71 C 1446.06 1432.2 1451.25 1433.47 1457.53 1430.03 C 1460.27 1423.82 1459.08 1393.04 1458.99 1384.1 C 1446.18 1363.35 1436.07 1340.53 1422.19 1320.51 C 1419.15 1316.14 1411.49 1316.67 1408.3 1312.43 z" fill="rgb(4,3,89)" transform="translate(0,0)"></path>
<path d="M 513.46 1582.62 C 520.886 1600.06 517.58 1615.98 536.216 1630.43 C 546.194 1638.12 558.937 1641.3 571.36 1639.18 C 586.945 1636.61 599.158 1623.83 594.196 1608.18 C 586.867 1585.08 546.489 1588.92 528.155 1575.77 C 502.437 1557.32 511.242 1516.22 543.495 1513.31 C 563.537 1511.38 570.678 1514.63 586.345 1526.39 C 587.852 1522.42 588.814 1517.57 593.102 1516.29 C 596.392 1520.45 594.991 1542.47 595.418 1550.34 L 591.401 1550.88 C 589.425 1541.8 582.894 1530.68 575.738 1524.57 C 542.753 1496.41 490.085 1542.46 547.059 1558.59 C 568.017 1564.52 601.596 1570.55 604.867 1597.41 C 609.525 1635.65 575.241 1652.3 542.738 1639.8 C 536.998 1637.58 526.196 1627.72 522.827 1627.97 C 518.658 1631.77 518.655 1636.48 514.554 1641.32 L 513.354 1640.52 C 512.107 1631.97 512.428 1591.32 513.46 1582.62 z" fill="rgb(4,3,89)" transform="translate(0,0)"></path>
<path d="M 1148.74 1516.34 C 1156.21 1515.16 1201.1 1514.08 1206.43 1516.29 C 1204.53 1520.12 1194.8 1519.16 1191.53 1523.11 C 1190.23 1528.65 1190.95 1551.35 1190.95 1558.62 L 1190.93 1636.37 C 1209.16 1635.91 1226.53 1637.57 1240.49 1624.36 C 1252.29 1613.19 1251.33 1599.4 1254.31 1595.58 L 1255.73 1596.47 C 1256.54 1605.05 1255.01 1630.01 1254.97 1640.9 L 1200.58 1640.59 C 1190.96 1640.46 1173.31 1639.62 1164.44 1640.8 L 1162.93 1639.68 C 1160.06 1638.28 1158.88 1638.76 1156.05 1637.03 C 1161.11 1636.31 1164.35 1636.58 1167.67 1632.97 C 1169.73 1624.9 1170.3 1527.25 1167.9 1522.41 C 1161.59 1517.93 1157.04 1519.69 1148.74 1516.34 z" fill="rgb(4,3,89)" transform="translate(0,0)"></path>
<path d="M 907.598 1512.4 C 912.883 1512.43 920.528 1512.32 925.363 1514.2 C 931.266 1516.49 938.619 1524.47 945.202 1524.36 C 948.882 1521.74 947.442 1518.69 951.024 1514.27 L 952.774 1514.42 C 954.765 1517.45 955.164 1550.6 954.738 1555.92 L 953.001 1556.23 C 946.567 1546.44 943.239 1528.28 933.007 1522.46 C 896.476 1502.94 878.371 1531.15 875.808 1564.48 C 873.156 1598.95 880.279 1648.2 928.137 1638 C 949.52 1630.95 953.049 1615.18 957.117 1595.86 L 958.543 1595.63 C 959.841 1596.9 960.495 1597.19 960.344 1599.23 C 958.598 1622.81 947.966 1640.11 923.014 1643.22 C 886.415 1647.77 856.515 1620.65 853.19 1584.91 C 851.319 1565.53 857.327 1546.21 869.861 1531.31 C 879.987 1519.49 892.238 1513.55 907.598 1512.4 z" fill="rgb(4,3,89)" transform="translate(0,0)"></path>
<path d="M 976.199 1636.74 C 979.539 1636.11 981.405 1636.21 983.802 1633.59 C 987.014 1623.27 987.622 1527.52 982.05 1521.41 C 978.29 1520.49 972.353 1519.72 970.362 1516.9 L 971.144 1515.67 C 979.82 1514.87 1013.04 1514.51 1021.86 1515.42 L 1022.97 1516.64 L 1021.83 1518.55 C 1015.2 1520.02 1007.35 1519.19 1007.41 1529.01 C 1007.58 1557.49 1007.83 1586.97 1007.31 1615.37 C 1006.76 1645.7 1017.16 1631.46 1022.04 1637.95 L 1021.45 1639.85 C 1015.89 1641.29 1006.81 1640.7 1000.73 1640.57 C 996.767 1640.63 971.021 1641.62 970.085 1639.2 C 970.562 1636.4 974.049 1636.46 976.199 1636.74 z" fill="rgb(4,3,89)" transform="translate(0,0)"></path>
<path d="M 1000.73 1640.57 C 996.767 1640.63 971.021 1641.62 970.085 1639.2 C 970.562 1636.4 974.049 1636.46 976.199 1636.74 L 977.066 1637.5 C 982.096 1642.8 996.513 1636.96 1000.73 1640.57 z" fill="rgb(9,9,93)" transform="translate(0,0)"></path>
<path d="M 1264.67 1515.3 C 1278.71 1515.27 1309.49 1514.27 1321.62 1515.82 C 1316.63 1517.48 1311.12 1518.26 1306.29 1520.16 C 1304.97 1520.68 1302.79 1521.66 1302.33 1523.03 C 1300.07 1529.8 1300.14 1627.33 1302.87 1632.62 C 1305.08 1636.89 1311.71 1635.87 1315.57 1637.51 C 1317.35 1638.27 1317.19 1639.19 1317.9 1640.9 C 1308.61 1641.21 1273 1641.57 1264.69 1640.16 L 1264.43 1638.3 C 1268.66 1634.56 1274.16 1637.78 1278.51 1633.45 C 1281.17 1624.33 1280.3 1539.55 1279.12 1524.17 C 1278.76 1519.48 1270.01 1520.18 1265.52 1518.26 L 1264.67 1515.3 z" fill="rgb(4,3,89)" transform="translate(0,0)"></path>
<path d="M 1150.27 1638.32 C 1153.25 1637.06 1153.06 1636.96 1156.05 1637.03 C 1158.88 1638.76 1160.06 1638.28 1162.93 1639.68 L 1164.44 1640.8 C 1159.34 1642.47 1152.6 1641.08 1147.42 1640.54 L 1149.39 1638.37 L 1150.27 1638.32 z" fill="rgb(9,9,93)" transform="translate(0,0)"></path>
<path d="M 1150.27 1638.32 C 1153.89 1641.81 1158.2 1640.7 1162.93 1639.68 L 1164.44 1640.8 C 1159.34 1642.47 1152.6 1641.08 1147.42 1640.54 L 1149.39 1638.37 L 1150.27 1638.32 z" fill="rgb(233,226,243)" transform="translate(0,0)"></path>
<path d="M 966.18 1315.2 C 963.304 1315.34 956.903 1316.87 956.112 1313.32 C 957.228 1311.77 958 1311.39 959.964 1311.45 L 967.26 1311.65 L 966.18 1315.2 z" fill="rgb(9,9,93)" transform="translate(0,0)"></path>
<path d="M 889.414 1398 L 889.806 1396.5 C 891.862 1387.77 893.177 1393.69 893.341 1398.81 L 889.414 1398 z" fill="rgb(9,9,93)" transform="translate(0,0)"></path>
<path d="M 885.414 1349.24 L 889.157 1347.95 C 889.084 1355.32 888.367 1357.33 885.414 1349.24 z" fill="rgb(9,9,93)" transform="translate(0,0)"></path>
<path d="M 595.418 1550.34 L 595.297 1552.15 C 594.996 1559.13 592.653 1553.31 591.401 1550.88 L 595.418 1550.34 z" fill="rgb(9,9,93)" transform="translate(0,0)"></path>
<metadata><recraft-signature>{"signed_by": "recraft", "signature_b64": "onCenaRVw3TskRrPLB3t+tCWgH9Rsgpj5wzgcJHIrd5Cfu0lZmgpxrK0IOJnC7S8e4ll7FRAZxjbcpPDomOqBg==", "signing_algo": "Ed25519", "generation_timestamp": 1772546428, "identifier": "7e0a5961-58ae-47eb-a838-e458f15e2c8f"}</recraft-signature></metadata></svg>