<svg xmlns="http://www.w3.org/2000/svg" height="1024" preserveAspectRatio="none" style="display: block;" version="1.1" viewBox="0 0 2048 2048" width="1024">
<defs>
	<linearGradient gradientUnits="userSpaceOnUse" id="Gradient1" x1="1392.56" x2="1343.48" y1="618.249" y2="634.062">
		<stop class="stop0" offset="0" stop-color="rgb(0,0,0)" stop-opacity="1"></stop>
		<stop class="stop1" offset="1" stop-color="rgb(16,27,17)" stop-opacity="1"></stop>
	</linearGradient>
	<linearGradient gradientUnits="userSpaceOnUse" id="Gradient2" x1="1058.75" x2="1024.83" y1="628.835" y2="607.038">
		<stop class="stop0" offset="0" stop-color="rgb(3,3,4)" stop-opacity="1"></stop>
		<stop class="stop1" offset="1" stop-color="rgb(10,25,15)" stop-opacity="1"></stop>
	</linearGradient>
	<linearGradient gradientUnits="userSpaceOnUse" id="Gradient3" x1="736.914" x2="689.507" y1="1041.51" y2="1046.93">
		<stop class="stop0" offset="0" stop-color="rgb(0,0,0)" stop-opacity="1"></stop>
		<stop class="stop1" offset="1" stop-color="rgb(13,27,20)" stop-opacity="1"></stop>
	</linearGradient>
	<linearGradient gradientUnits="userSpaceOnUse" id="Gradient4" x1="1115.3" x2="1055.72" y1="1035.65" y2="1040.6">
		<stop class="stop0" offset="0" stop-color="rgb(0,0,0)" stop-opacity="1"></stop>
		<stop class="stop1" offset="1" stop-color="rgb(9,30,26)" stop-opacity="1"></stop>
	</linearGradient>
	<linearGradient gradientUnits="userSpaceOnUse" id="Gradient5" x1="593.164" x2="532.44" y1="1028.34" y2="1051.2">
		<stop class="stop0" offset="0" stop-color="rgb(5,7,3)" stop-opacity="1"></stop>
		<stop class="stop1" offset="1" stop-color="rgb(17,40,32)" stop-opacity="1"></stop>
	</linearGradient>
	<linearGradient gradientUnits="userSpaceOnUse" id="Gradient6" x1="854.334" x2="843.49" y1="1079.81" y2="1010.73">
		<stop class="stop0" offset="0" stop-color="rgb(1,2,3)" stop-opacity="1"></stop>
		<stop class="stop1" offset="1" stop-color="rgb(9,25,19)" stop-opacity="1"></stop>
	</linearGradient>
	<linearGradient gradientUnits="userSpaceOnUse" id="Gradient7" x1="650.123" x2="547.676" y1="633.6" y2="553.739">
		<stop class="stop0" offset="0" stop-color="rgb(6,9,7)" stop-opacity="1"></stop>
		<stop class="stop1" offset="1" stop-color="rgb(12,26,20)" stop-opacity="1"></stop>
	</linearGradient>
</defs>
<path d="M 0 0 L 2048 0 L 2048 2048 L 0 2048 L 0 0 z" fill="rgb(245,242,219)" transform="translate(0,0)"></path>
<path d="M 1641.72 668.612 C 1646.27 678.246 1653.28 689.87 1658.46 699.533 C 1666.84 715.061 1674.5 730.967 1681.41 747.202 C 1729.28 859.461 1747.31 982.19 1733.75 1103.47 C 1711.85 1292.46 1616.08 1465.11 1467.35 1583.74 C 1316.86 1701.73 1125.62 1755.03 935.792 1731.89 C 751.174 1709.94 582.662 1616.07 466.836 1470.64 C 347.301 1319.69 293.367 1127.08 317.132 936.007 C 340.688 750.068 436.266 580.797 583.317 464.59 C 737.688 343.7 918.291 292.034 1113.25 315.839 C 1250.35 333.486 1379.63 389.661 1486.07 477.84 C 1498.95 488.489 1530.69 515.155 1540.63 527.84 C 1532.75 526.09 1525.21 524.915 1517.13 525.006 C 1418.11 431.954 1306.82 369.769 1173.19 340.669 C 993.158 300.831 804.669 334.702 649.767 434.725 C 492.497 535.77 381.832 695.175 342.137 877.845 C 302.751 1062 338.835 1254.26 442.315 1411.61 C 526.125 1539.4 650.11 1635.64 794.697 1685.14 C 832.454 1698.14 861.482 1704.35 900.248 1712.67 C 924.496 1677.22 955.573 1605 968.951 1564.35 C 958.981 1565.49 944.241 1566.56 934.316 1564.87 C 898.287 1558.77 846.589 1536.97 814.887 1519.76 C 807.423 1501.77 807.54 1492.48 814.651 1474.4 C 807.889 1470.06 772.379 1448.64 766.9 1446.63 C 734.938 1434.9 724.538 1443.76 698.812 1414.98 C 681.576 1414.41 574.161 1407.87 570.234 1391.49 C 575.689 1377.68 648.559 1374.41 663.91 1373.83 C 662.226 1371.09 658.682 1364.82 658.65 1361.76 C 659.178 1348.53 658.224 1334.45 659.181 1321.33 C 660.327 1305.62 655.075 1245.84 664.637 1234.97 C 674.372 1223.91 715.406 1220.79 730.959 1219.57 C 728.046 1198.37 731.861 1160.8 757.681 1188.72 C 760.757 1192.05 770.632 1200.33 774.192 1202.92 L 775.617 1203.94 C 780.874 1201.16 800.429 1189.91 804.956 1190.97 C 808.897 1197.05 792.45 1213.54 787.639 1217.2 C 791.638 1218.86 803.332 1218.92 808.528 1219.57 C 826.007 1221.78 844.686 1223.22 861.274 1229.4 C 870.852 1232.96 875.814 1242.43 875.64 1252.34 C 875.015 1287.9 876.016 1323.52 875.601 1359.04 C 875.549 1363.44 873.457 1367.9 871.594 1371.78 C 889.489 1373.25 958.794 1378.23 965.805 1393.23 L 965.062 1395.1 C 939.382 1413.63 835.445 1415.12 801.37 1416.01 C 808.823 1423.51 818.753 1431.58 828.168 1436.65 C 838.537 1442.23 849.629 1438.25 859.702 1442.24 C 872.124 1447.15 884.97 1453.78 897.012 1459.71 C 914.893 1468.34 932.622 1477.28 950.19 1486.53 C 965.13 1459.89 970.035 1449.03 978.887 1419.5 C 987.604 1390.41 1017.41 1359.62 1041.83 1341.47 C 1040.06 1333.32 1038.65 1328.7 1035.92 1320.77 C 992.669 1330.5 1002.35 1319.3 989.747 1282.79 C 989.256 1281.37 990.905 1275.47 991.353 1273.77 C 986.116 1271.32 977.402 1268.33 976.53 1262.04 C 978.893 1255.06 991.924 1250.76 991.16 1239.93 C 990.693 1233.32 990.035 1226.73 990.239 1220.1 C 981.842 1214.78 950.6 1195.84 949.667 1186.05 C 955.187 1176.95 997.53 1174.45 1009.26 1176.16 C 1036.33 1132.35 1141.09 1141.43 1165.65 1185.02 C 1176.76 1200.66 1165.45 1230.14 1168.82 1244.54 C 1181.65 1299.37 1199.06 1319.26 1126.91 1294.55 L 1136.71 1308.31 C 1151.16 1311.2 1157.51 1312.96 1161.84 1327.92 C 1193.11 1343.62 1184.1 1358.85 1161.19 1376.71 C 1167.63 1393.05 1183.91 1401.83 1160.15 1409.38 C 1167.47 1437.8 1162.82 1463.24 1150.35 1489.11 C 1146.87 1496.33 1140.54 1510.58 1139.49 1518.27 C 1130.71 1582.74 1169.38 1648.02 1203.81 1698.34 C 1272.34 1679.06 1321.41 1660.66 1383.68 1623.61 C 1513.22 1545.72 1614.02 1427.94 1670.96 1287.92 C 1754.3 1086.64 1737.55 860.299 1625.85 673.429 C 1631.21 671.993 1636.43 670.285 1641.72 668.612 z" fill="rgb(10,46,41)" transform="translate(0,0)"></path>
<path d="M 775.617 1203.94 C 780.874 1201.16 800.429 1189.91 804.956 1190.97 C 808.897 1197.05 792.45 1213.54 787.639 1217.2 C 785.238 1214.3 785.19 1214.5 781.783 1213.3 C 780.779 1213.93 780.187 1214.05 779.066 1214.45 C 777.106 1211.67 777.7 1209.05 777.552 1205.13 L 775.617 1203.94 z" fill="rgb(3,7,4)" transform="translate(0,0)"></path>
<path d="M 777.552 1205.13 C 784.666 1203 790.827 1201.23 797.691 1198.42 C 794.144 1201.67 784.488 1210.11 781.783 1213.3 C 780.779 1213.93 780.187 1214.05 779.066 1214.45 C 777.106 1211.67 777.7 1209.05 777.552 1205.13 z" fill="rgb(252,252,249)" transform="translate(0,0)"></path>
<path d="M 999.397 1226.09 C 1006.83 1229.26 1036.84 1248.78 1042.51 1254.32 C 1060.02 1271.4 1057.97 1280.81 1084.58 1287.84 C 1085.24 1290.69 1090.01 1303.3 1089.11 1304.95 C 1085.32 1311.97 1082.43 1317.96 1079.43 1325.48 C 1067.93 1329.9 1060.57 1332.65 1049.32 1338.13 C 1049.04 1331.24 1048.22 1323.77 1047.59 1316.85 C 1051.45 1308.2 1064.46 1294.27 1070.72 1284.66 C 1044.72 1301.59 1043.54 1310.79 1008.26 1311.34 C 1006.42 1306.78 1001.12 1296.13 1004.2 1291.39 C 1006.07 1288.5 1006.21 1292.54 1007.39 1287.25 L 1005.71 1285.43 C 1000.7 1284.15 999.239 1284.43 996.859 1280.43 C 996.352 1276.13 997.739 1273.77 999.338 1269.64 L 989.409 1261.56 C 995.119 1255.06 997.983 1251.39 1001.42 1243.6 C 1001.17 1237.97 1000.15 1231.73 999.397 1226.09 z" fill="rgb(245,242,219)" transform="translate(0,0)"></path>
<path d="M 763.731 1308.45 C 781.569 1307.67 861.818 1313.77 867.562 1329.18 C 867.607 1332.95 867.199 1333.12 865.493 1336.42 C 861.072 1338.29 846.096 1333.5 840.756 1332.27 C 818.62 1327.14 794.89 1325.31 772.219 1324.95 C 731.153 1324.37 708 1329.31 668.446 1338.11 C 668.108 1333.74 668.028 1328.96 667.861 1324.54 C 702.782 1314.33 727.411 1309.74 763.731 1308.45 z" fill="rgb(245,242,219)" transform="translate(0,0)"></path>
<path d="M 769.226 1407.7 C 785.729 1407.56 794.904 1423.78 807.396 1433.56 C 815.269 1439.72 822.098 1444.84 830.229 1450.62 C 827.271 1455.14 823.973 1459.79 820.901 1464.27 C 810.509 1457.73 797.646 1450.95 786.755 1444.92 C 778.706 1440.26 767.99 1433.96 759.164 1431.48 C 740.542 1426.23 730.42 1427.09 713.725 1417 C 734.12 1417 748.68 1418.09 768.818 1420.64 C 770.046 1416.27 767.359 1414.02 769.226 1407.7 z" fill="rgb(245,242,219)" transform="translate(0,0)"></path>
<path d="M 744.043 1292.42 C 766.876 1290.54 853.411 1292.4 866.552 1308.25 L 866.266 1310.08 C 862.474 1311.29 854.996 1309.4 850.811 1308.55 C 830.523 1304.43 810.442 1301.32 789.775 1299.81 C 757.21 1296.65 722.615 1301.22 690.746 1308.18 C 683.334 1309.8 672.11 1314.36 667.523 1306.8 L 668.549 1305.31 C 694.017 1297.44 717.647 1294.38 744.043 1292.42 z" fill="rgb(245,242,219)" transform="translate(0,0)"></path>
<path d="M 844.797 1453.03 C 853.323 1452.64 856.639 1453.39 864.525 1455.64 C 850.661 1471.53 840.338 1492.9 834.1 1512.95 L 833.307 1515.29 L 831.134 1515.7 C 819.403 1512.29 816.611 1505.65 820.139 1493.93 C 824.103 1480.76 832.697 1460.26 844.797 1453.03 z" fill="rgb(245,242,219)" transform="translate(0,0)"></path>
<path d="M 992.298 1578.19 C 994.56 1581.99 993.679 1586.83 994.125 1591.42 C 994.304 1629.15 985.764 1684.46 975.998 1721.09 C 971.47 1720.41 966.692 1720.17 962.109 1719.83 C 966.826 1706.78 969.994 1691.56 973.601 1678.06 C 982.891 1643.29 988.852 1613.85 992.298 1578.19 z" fill="rgb(245,242,219)" transform="translate(0,0)"></path>
<path d="M 750.899 1262.23 C 770.867 1261.47 777.52 1272 793.339 1282.86 C 776.642 1283.13 759.943 1283.04 743.25 1282.59 C 735.047 1282.59 709.328 1284.12 703.552 1280.32 C 707.513 1271.37 718.599 1277.46 725.067 1279.89 C 734.239 1269.09 736.72 1265.34 750.899 1262.23 z" fill="rgb(245,242,219)" transform="translate(0,0)"></path>
<path d="M 1003.79 1582.7 L 1005.98 1584.42 C 1009.94 1617.09 1019.73 1651.85 1030.97 1682.79 C 1033.67 1690.23 1047.05 1715.94 1045.57 1721.49 C 1042.34 1722.38 1042.44 1722.08 1039.22 1720.89 C 1022.39 1699.36 1005.92 1610.52 1003.79 1582.7 z" fill="rgb(252,252,249)" transform="translate(0,0)"></path>
<path d="M 1084.62 1349.17 C 1089.89 1348.63 1090.57 1348.99 1094.04 1352.64 L 1093.49 1353.98 C 1085.52 1357.47 1074.81 1357.84 1066.47 1360.22 C 1061.32 1361.69 1054.65 1365.31 1049.74 1367.62 C 1022.18 1380.58 1010.51 1394.07 996.553 1420.3 C 994.655 1423.99 992.053 1428.31 989.97 1432 C 1005.19 1384.17 1036.37 1360.06 1084.62 1349.17 z" fill="rgb(252,252,249)" transform="translate(0,0)"></path>
<path d="M 844.161 1273.34 C 850.082 1271.07 856.721 1274.02 859.009 1279.93 C 861.297 1285.84 858.372 1292.49 852.468 1294.8 C 846.534 1297.12 839.843 1294.18 837.543 1288.24 C 835.244 1282.29 838.211 1275.61 844.161 1273.34 z" fill="rgb(245,242,219)" transform="translate(0,0)"></path>
<path d="M 678.886 1273.04 C 693.745 1271.09 702.618 1284.37 686.47 1293.81 C 670.229 1295.49 665.492 1283.56 678.886 1273.04 z" fill="rgb(245,242,219)" transform="translate(0,0)"></path>
<path d="M 740.231 1187.64 C 746.341 1192.61 751.746 1209.25 752.493 1216.89 L 750.966 1218.08 L 738.075 1217.08 C 735.61 1204.72 735.07 1199.62 740.231 1187.64 z" fill="rgb(245,242,219)" transform="translate(0,0)"></path>
<path d="M 716.058 1250.03 C 720.865 1248.71 725.846 1251.47 727.285 1256.24 C 728.725 1261.01 726.099 1266.06 721.366 1267.63 C 718.194 1268.67 714.703 1267.92 712.249 1265.65 C 709.795 1263.38 708.763 1259.96 709.555 1256.72 C 710.346 1253.47 712.836 1250.91 716.058 1250.03 z" fill="rgb(245,242,219)" transform="translate(0,0)"></path>
<path d="M 799.062 1250.89 C 811.187 1251.43 816.014 1264.77 802.695 1270.59 C 792.103 1266.99 787.789 1258.3 799.062 1250.89 z" fill="rgb(245,242,219)" transform="translate(0,0)"></path>
<path d="M 815.732 1274.25 C 820.581 1274.28 823.461 1274.32 826.995 1277.81 C 827.266 1284.95 816.587 1283.19 811.951 1282.95 C 808.357 1282.75 803.891 1282.16 800.236 1281.78 C 806.547 1276.34 807.565 1275.44 815.732 1274.25 z" fill="rgb(252,252,249)" transform="translate(0,0)"></path>
<path d="M 1003.79 1582.7 C 1002.42 1576.66 1001.49 1565.58 1002.74 1559.57 L 1003.45 1559.22 C 1005.49 1565.13 1004.84 1577.11 1005.98 1584.42 L 1003.79 1582.7 z" fill="rgb(191,199,202)" transform="translate(0,0)"></path>
<path d="M 992.298 1578.19 C 992.705 1572.45 992.875 1566.38 994.213 1560.83 L 994.054 1561.75 C 995.782 1565.34 994.99 1586.94 994.125 1591.42 C 993.679 1586.83 994.56 1581.99 992.298 1578.19 z" fill="rgb(252,252,249)" transform="translate(0,0)"></path>
<path d="M 757.091 1199.35 C 764.296 1203.48 766.746 1209.31 767.791 1217.23 C 764.312 1214.98 759.277 1203.67 757.091 1199.35 z" fill="rgb(252,252,249)" transform="translate(0,0)"></path>
<path d="M 1001.07 259.433 C 1040.13 258.411 1079.21 260.22 1118.01 264.847 C 1309.12 287.754 1483.61 384.746 1603.96 534.965 L 1576.88 536.025 C 1570.58 530.185 1561.18 518.668 1555.11 511.898 C 1545.45 501.165 1535.27 490.917 1524.59 481.192 C 1446.31 410.138 1353.94 356.379 1253.49 323.422 C 1071.6 262.731 873.074 276.595 701.386 361.979 C 519.128 453.069 381.554 614.119 320.062 808.372 C 261.58 989.03 282.924 1192.16 369.34 1360.4 C 457.038 1533.5 610.067 1664.55 794.601 1724.57 C 983.858 1785.57 1189.68 1768.03 1365.89 1675.88 C 1539.52 1586.19 1670.04 1430.76 1728.38 1244.25 C 1736.54 1216.4 1744.42 1187.43 1749.59 1158.87 C 1774.7 1025.04 1761.6 886.842 1711.79 760.111 C 1698.63 725.867 1675.87 677.605 1655.01 647.511 C 1660.37 635.818 1663.85 625.86 1667.18 613.481 C 1682.45 639.341 1700.85 670.411 1714.08 697.496 C 1757.01 786.355 1782.26 882.713 1788.42 981.208 C 1799.34 1181.53 1731.34 1378.15 1599.01 1528.93 C 1463.9 1681.48 1273.63 1773.99 1070.21 1786.04 C 868.931 1799.19 670.698 1731.67 519.284 1598.41 C 364.598 1460.5 271.127 1266.73 259.487 1059.82 C 248.844 856.742 327.296 658.484 462.771 508.53 C 576.72 381.71 730.353 297.338 898.512 269.228 C 936.159 262.966 963.245 261.379 1001.07 259.433 z" fill="rgb(10,46,41)" transform="translate(0,0)"></path>
<path d="M 291.751 370.517 C 295.654 373.094 302.091 384.746 305.039 389.373 C 326.736 423.425 343.871 464.229 347.598 504.984 C 355.143 587.478 336.433 680.954 287.131 748.629 C 264.596 778.466 239.692 786.353 204.778 790.179 C 205.817 790.716 206.851 791.262 207.88 791.819 C 286.194 834.251 279.847 963.829 193.465 988.385 C 101.166 1014.62 37.6318 904.898 86.8007 829.676 C 105.523 801.034 123.667 788.993 155.949 780.996 C 149.566 775.329 144.631 770.354 138.669 764.212 C 132.878 757.846 127.998 750.709 124.168 743.003 C 103.626 702.33 97.0743 611.244 147.816 586.512 C 207.383 557.479 243.285 658.131 211.5 698.554 C 205.499 706.186 198.215 719.752 185.685 715.459 C 184.303 714.985 184.188 713.512 183.683 712.2 C 185.019 695.494 210.346 684.503 204.091 660.268 C 194.829 624.386 159.609 634.315 147.65 661.868 C 139.687 681.69 142.153 705.854 149.397 725.429 C 163.285 762.962 198.529 784.404 237.431 768.922 C 262.203 759.064 273.99 739.064 274.858 713.033 C 277.295 639.977 248.701 569.49 252.081 496.151 C 254.094 452.659 274.932 410.154 291.751 370.517 z" fill="rgb(10,46,41)" transform="translate(0,0)"></path>
<path d="M 155.271 797.234 C 265.367 788.694 281.862 959.457 176.331 976.737 C 97.7739 983.94 61.0268 890.895 103.196 832.185 C 116.506 813.655 132.773 801.564 155.271 797.234 z" fill="rgb(245,242,219)" transform="translate(0,0)"></path>
<path d="M 171.318 892.159 C 187.153 889.099 202.479 899.427 205.588 915.252 C 208.698 931.078 198.419 946.436 182.603 949.595 C 166.717 952.768 151.275 942.433 148.152 926.537 C 145.029 910.641 155.412 895.232 171.318 892.159 z" fill="rgb(10,46,41)" transform="translate(0,0)"></path>
<path d="M 294.307 403.654 C 302.999 411.796 316.741 444.919 320.817 456.639 C 345.893 528.749 331.236 632.836 297.759 700.6 L 291.959 712.564 C 291.365 686.042 288.826 659.6 284.363 633.45 C 276.235 583.904 261.822 526.837 270.702 476.432 C 274.79 453.224 285.741 425.985 294.307 403.654 z" fill="rgb(245,242,219)" transform="translate(0,0)"></path>
<path d="M 889.264 68.4105 C 949.133 68.7772 1001.15 120.348 991.901 181.772 C 983.423 238.089 925.117 271.402 871.23 262.011 C 838.061 256.231 810.066 235.609 790.734 208.362 C 788.46 228.22 783.809 243.745 772.656 260.372 C 759.965 279.203 737.761 299.708 716.967 309.454 C 620.025 354.889 497.661 372.454 402.467 312.719 C 392.698 306.589 383.45 300.544 373.999 294.359 C 414.367 272.59 459.471 251.777 506.502 251.556 C 526.019 251.465 552.137 256.249 571.43 259.742 C 612.06 266.835 653.903 277.758 695.007 279.126 C 718.389 279.905 743.947 275.105 757.926 254.499 C 781.366 219.948 780.939 184.78 744.816 159.26 C 709.503 134.312 634.393 133.314 639.952 193.35 C 642.301 215.474 714.932 212.588 700.302 170.581 L 701.767 170.41 C 708.477 175.126 711.595 182.513 710.843 190.203 C 707.097 244.868 612.299 222.267 592.404 193.996 C 550.652 134.666 646.267 100.439 690.418 108.253 C 731.801 115.578 753.141 127.486 777.466 158.507 C 792.72 105.431 834.345 72.1846 889.264 68.4105 z" fill="rgb(10,46,41)" transform="translate(0,0)"></path>
<path d="M 883.34 83.3805 C 952.416 73.9695 1009.57 165.846 957.123 219.517 C 937.523 239.571 917.631 247.28 890.206 248.459 C 865.381 247.825 848.394 241.455 828.457 226.667 C 757.834 174.282 809.785 91.9814 883.34 83.3805 z" fill="rgb(245,242,219)" transform="translate(0,0)"></path>
<path d="M 920.122 149.198 C 936.722 148.585 950.688 161.518 951.35 178.116 C 952.012 194.713 939.12 208.717 922.525 209.428 C 905.86 210.142 891.785 197.185 891.12 180.518 C 890.455 163.852 903.454 149.814 920.122 149.198 z" fill="rgb(10,46,41)" transform="translate(0,0)"></path>
<path d="M 499.501 267.425 C 526.916 265.41 564.35 274.848 591.746 279.309 C 633.365 286.088 672.465 296.622 715.215 293.156 C 683.414 310.056 648.325 320.365 613.259 327.773 C 535.95 343.905 474.186 336.983 406.075 296.317 C 434.128 281.685 467.96 269.643 499.501 267.425 z" fill="rgb(245,242,219)" transform="translate(0,0)"></path>
<path d="M 156.625 1056.37 C 188.769 1051.14 223.55 1068.57 242.2 1094.48 C 259.023 1117.75 265.725 1146.83 260.783 1175.11 C 254.037 1213.86 232.949 1238.06 202.07 1259.82 C 222.539 1260.03 238.375 1264.19 256.159 1274.71 C 302.905 1302.36 323.949 1361.06 336.841 1411.01 C 353.49 1475.51 357.332 1551.44 329.724 1613.13 C 320.579 1633.56 306.029 1656.53 294.211 1676.03 C 282.285 1646.94 265.989 1618.33 257.449 1588.19 C 244.429 1542.25 255.61 1492.93 263.125 1446.71 C 269.947 1404.76 277.293 1368.4 276.801 1325.43 C 276.585 1323.28 275.994 1317.21 275.222 1315.45 C 262.942 1287.53 217.838 1267.57 189.746 1278.49 C 150.673 1293.43 133.493 1344.61 148.194 1382.21 C 152.365 1392.88 158.807 1404.75 170.478 1408.06 C 175.723 1409.25 182.188 1409.48 187.256 1406.69 C 202.79 1398.14 202.016 1385.79 201.915 1372.05 C 201.762 1351.1 176.195 1347.46 173.14 1340.7 C 176.232 1336.28 178.558 1334.8 184.064 1335 C 216.447 1338.15 221.002 1372.22 221.056 1398.59 C 221.154 1445.97 170.696 1489.98 131.332 1447.76 C 112.142 1427.17 107.565 1381.85 110.366 1353.96 C 114.2 1315.79 129.905 1291.5 159.587 1267.49 C 35.8523 1245.5 42.0056 1070.42 156.625 1056.37 z" fill="rgb(10,46,41)" transform="translate(0,0)"></path>
<path d="M 164.48 1070.44 C 181.797 1070.55 197.324 1074.79 211.494 1085.04 C 275.617 1131.41 245.744 1242.36 168.483 1253.16 C 148.487 1253.43 132.413 1246.86 117.32 1233.84 C 97.7299 1216.77 85.7877 1192.57 84.1576 1166.63 C 80.5639 1115.05 111.688 1073.75 164.48 1070.44 z" fill="rgb(245,242,219)" transform="translate(0,0)"></path>
<path d="M 171.739 1098.48 C 187.844 1095.35 203.409 1105.95 206.403 1122.08 C 209.397 1138.21 198.671 1153.69 182.517 1156.55 C 166.549 1159.38 151.287 1148.8 148.327 1132.86 C 145.368 1116.91 155.819 1101.57 171.739 1098.48 z" fill="rgb(10,46,41)" transform="translate(0,0)"></path>
<path d="M 292.298 1340.81 C 300.275 1349.31 314.334 1391.97 317.967 1405.46 C 339.977 1487.18 345.015 1556.8 302.113 1633.28 C 300.377 1636.3 297.621 1639.9 295.548 1642.79 C 287.684 1625.79 274.659 1594.53 270.977 1576.71 C 260.498 1525.99 275.689 1469.07 283.792 1418.88 C 287.903 1393.42 291.295 1366.5 292.298 1340.81 z" fill="rgb(245,242,219)" transform="translate(0,0)"></path>
<path d="M 1756.6 367.649 C 1761.91 372.482 1772.55 400.222 1775.56 408.85 C 1784.96 435.704 1794 465.697 1795.21 494.352 C 1796.69 529.407 1789.4 563.042 1785.26 598.129 C 1780.35 639.797 1763.87 697.286 1777.03 737.516 C 1781.38 750.836 1797.83 763.297 1810.63 768.049 C 1826.59 774.296 1846.83 775.452 1862.72 768.168 C 1899.64 751.123 1912.19 692.192 1895.85 657.541 C 1889.61 644.302 1871.71 631.879 1857.06 640.164 C 1850.28 644.001 1847.07 649.717 1845.06 656.852 C 1838.35 681.211 1852.3 689.25 1864.57 705.887 C 1870.41 713.802 1858.57 721.87 1847.85 712.253 C 1835.71 701.367 1829.22 687.894 1827.45 671.922 C 1823.81 638.988 1835.86 588.134 1874.53 582.193 C 1885.23 580.624 1899.28 586.438 1907.59 593.449 C 1926.95 609.789 1934.2 636.283 1936.71 660.564 C 1940.39 701.421 1931.13 738.574 1904.8 770.298 C 1900.82 775.047 1895.89 779.29 1891.3 783.498 C 1896.62 784.631 1902.55 785.82 1907.66 787.51 C 1934.45 796.083 1956.68 815.053 1969.37 840.164 C 1981.64 865.047 1983.65 896.673 1974.51 923.478 C 1945.57 1006.98 1832.73 1016.07 1795.64 933.201 C 1776.18 889.725 1783.18 846.662 1815.49 810.885 C 1824.79 800.597 1834.43 795.746 1847.1 790.18 C 1824.6 788.469 1805.86 785.768 1786.63 772.689 C 1745.26 744.554 1721.64 684.587 1711.78 637.173 C 1689.69 530.844 1697.17 460.031 1756.6 367.649 z" fill="rgb(10,46,41)" transform="translate(0,0)"></path>
<path d="M 1872.82 799.336 C 1889.86 797.452 1908.37 802.682 1922.81 811.692 C 1943.16 824.373 1957.49 844.781 1962.5 868.232 C 1967.9 892.071 1963.55 917.083 1950.4 937.691 C 1936.65 958.792 1919.26 969.751 1894.99 974.78 C 1815.01 984.586 1775.31 892.095 1817.8 832.957 C 1830.87 814.81 1850.7 802.691 1872.82 799.336 z" fill="rgb(245,242,219)" transform="translate(0,0)"></path>
<path d="M 1866.78 889.558 C 1883.39 886.767 1899.09 898.026 1901.78 914.651 C 1904.47 931.276 1893.11 946.912 1876.47 949.497 C 1859.97 952.06 1844.51 940.824 1841.84 924.344 C 1839.18 907.865 1850.31 892.326 1866.78 889.558 z" fill="rgb(10,46,41)" transform="translate(0,0)"></path>
<path d="M 1754.61 404.661 C 1758.76 409.085 1764.06 426.565 1766.4 432.687 C 1801.02 523.593 1752 622.426 1756.85 715.108 C 1755.23 711.386 1753.64 707.646 1752.1 703.889 C 1740.83 677.834 1730.74 651.19 1725.64 623.141 C 1716.98 575.508 1712.24 524.439 1723.94 477.009 C 1730.17 451.771 1741.89 427.271 1754.61 404.661 z" fill="rgb(245,242,219)" transform="translate(0,0)"></path>
<path d="M 1477.96 1699.43 C 1552.51 1695.22 1617.42 1715.93 1680.01 1754.71 C 1661.81 1764.25 1641.36 1772.45 1622 1779.45 C 1591.1 1790.48 1558.12 1797.01 1525.23 1794.89 C 1463.75 1790.92 1404.75 1766.82 1342.83 1768.63 C 1325.14 1769.15 1308.09 1773.13 1295.82 1786.82 C 1282.65 1801.5 1275.29 1822.12 1276.33 1841.85 C 1277.24 1859.12 1285.06 1875.3 1298.05 1886.73 C 1323.8 1909.05 1381.82 1915.45 1405.34 1886.74 C 1423.91 1864.06 1399.75 1835.83 1373.04 1842.69 C 1355.6 1847.17 1360.23 1854.6 1351.27 1868.34 C 1349.41 1871.18 1347.2 1871.62 1344.24 1871.97 C 1327.88 1865.27 1343.33 1841.17 1355.07 1834.71 C 1395.46 1812.47 1480.21 1837.59 1463.72 1895.49 C 1460.56 1902.9 1455.3 1909.67 1449.06 1914.99 C 1403.2 1954.08 1327.18 1944.03 1282.59 1908.13 C 1277.4 1903.96 1272.3 1897.96 1267.86 1892.84 L 1267.6 1893.97 C 1253.61 1951.63 1190.16 1992.04 1131.79 1977.98 C 1107.3 1972.08 1080.74 1952.43 1067.98 1930.64 C 1054.99 1908.85 1051.35 1882.75 1057.86 1858.24 C 1065.02 1832.55 1082.16 1810.79 1105.45 1797.79 C 1160.92 1766.5 1227.81 1792.76 1257.72 1846.31 C 1260.32 1819.52 1266.98 1792.88 1286.26 1773.16 C 1332.67 1725.71 1413.97 1703.31 1477.96 1699.43 z" fill="rgb(10,46,41)" transform="translate(0,0)"></path>
<path d="M 1144.79 1800.36 C 1204 1792.49 1277.47 1855.02 1241.63 1916.05 C 1226.73 1941.43 1204.68 1955.92 1176.71 1963.79 C 1151.74 1968.73 1127.29 1965.07 1106.37 1949.87 C 1043.32 1904.07 1067.31 1811.65 1144.79 1800.36 z" fill="rgb(245,242,219)" transform="translate(0,0)"></path>
<path d="M 1118.37 1839.52 C 1129.06 1837.04 1140.25 1840.5 1147.69 1848.57 C 1155.12 1856.64 1157.65 1868.08 1154.3 1878.53 C 1150.96 1888.98 1142.27 1896.82 1131.53 1899.08 C 1115.16 1902.52 1099.08 1892.14 1095.47 1875.81 C 1091.86 1859.48 1102.08 1843.29 1118.37 1839.52 z" fill="rgb(10,46,41)" transform="translate(0,0)"></path>
<path d="M 1482.52 1714.42 C 1537.74 1710.39 1595.87 1726.75 1644.13 1752.77 C 1600.86 1775.71 1556.01 1782.93 1507.8 1777.62 C 1467.85 1772.69 1430.45 1761.77 1390.68 1755.76 C 1372.96 1753.08 1358.48 1752.62 1340.68 1752.05 C 1384.83 1729.78 1433.14 1716.97 1482.52 1714.42 z" fill="rgb(245,242,219)" transform="translate(0,0)"></path>
<path d="M 1153.97 68.4151 C 1177.66 67.6059 1200.96 74.5742 1220.32 88.2554 C 1243.86 104.688 1262.32 127.812 1267.43 156.56 C 1271.58 151.768 1276.75 145.504 1281.53 141.402 C 1319.8 108.555 1385.14 97.9886 1430.3 122.11 C 1455.05 135.329 1476.51 159.453 1458.89 187.806 C 1437.88 221.593 1352.94 241.853 1337.68 193.195 C 1336.37 188.992 1340.83 180.41 1346.1 181.332 C 1356.92 182.273 1355 195.779 1362.01 201.642 C 1367.6 206.423 1374.15 207.792 1381.31 207.463 C 1389.86 207.109 1397.92 203.338 1403.68 196.995 C 1415.07 184.445 1413.02 164.079 1398.23 155.278 C 1346.58 123.614 1266.13 154.502 1276.26 222.617 C 1289.92 314.481 1430.36 267.014 1488.07 258.236 C 1533.33 250.433 1570.03 248.978 1614 264.991 C 1636.56 273.207 1657.03 279.981 1677.99 292.43 C 1638.47 317.001 1589.7 343.084 1541.69 346.793 C 1465.6 352.673 1364.43 339.605 1303.04 291.453 C 1274.6 269.137 1261.1 243.393 1257.45 208.563 C 1254.62 212.455 1251.65 216.239 1248.54 219.908 C 1228.98 243.026 1195.64 260.715 1165.39 263.02 C 1136.92 265.229 1108.73 256.025 1087.05 237.435 C 1019.11 178.496 1065.58 74.4843 1153.97 68.4151 z" fill="rgb(10,46,41)" transform="translate(0,0)"></path>
<path d="M 1151.66 83.4022 C 1204.76 78.8502 1268.69 133.417 1248.5 189.972 C 1237.51 220.779 1203.06 240.144 1172.24 246.75 C 1170.17 247.109 1168.08 247.394 1165.99 247.605 C 1090.67 255.403 1041.91 175.272 1090.23 115.598 C 1106.06 96.053 1126.94 85.8994 1151.66 83.4022 z" fill="rgb(245,242,219)" transform="translate(0,0)"></path>
<path d="M 1122.48 149.107 C 1138.91 146.809 1154.08 158.301 1156.32 174.74 C 1158.56 191.179 1147.01 206.306 1130.56 208.482 C 1114.2 210.646 1099.17 199.172 1096.94 182.819 C 1094.72 166.466 1106.14 151.393 1122.48 149.107 z" fill="rgb(10,46,41)" transform="translate(0,0)"></path>
<path d="M 1533.57 268.418 C 1573.41 264.926 1608.85 279.254 1644.9 293.708 C 1572.59 333.818 1526.11 339.376 1445.22 327.988 C 1410.27 325.6 1359.56 307.496 1328.45 291.943 C 1394.86 300.38 1464.61 273.146 1533.57 268.418 z" fill="rgb(245,242,219)" transform="translate(0,0)"></path>
<path d="M 545.506 1700.46 C 634.659 1701.48 783.15 1733.88 789.167 1843.89 C 808.854 1815.59 824.786 1802.68 857.406 1790.58 C 939.546 1760.12 1027.46 1845.98 982.707 1927.33 C 969.243 1951.52 946.826 1969.46 920.274 1977.29 C 870.132 1991.59 815.192 1964.78 789.933 1920.52 C 783.982 1910.1 780.827 1901.27 777.581 1889.8 C 735.486 1946.08 643.351 1959.83 593.345 1908.03 C 579.411 1889.46 577.21 1871.04 594.054 1852.85 C 610.624 1835.91 635.401 1827.71 658.753 1825.99 C 681.622 1824.3 710.837 1833.81 711.71 1861.09 C 711.995 1869.99 705.298 1876.3 699.345 1882.16 C 703.155 1869.52 703.064 1859.2 692.065 1849.9 C 678.942 1838.81 650.221 1837.7 640.663 1854.11 C 632.814 1867.58 645.686 1892.1 658.896 1898.31 C 708.341 1919.97 792.848 1881.33 768.918 1818.22 C 746.528 1754.97 693.117 1764.8 638.687 1775.76 C 595.055 1784.36 549.166 1797.97 504.379 1797.09 C 458.771 1796.2 415.586 1775.9 375.466 1756.5 C 435.178 1715.88 473.621 1702.56 545.506 1700.46 z" fill="rgb(10,46,41)" transform="translate(0,0)"></path>
<path d="M 882.551 1800.35 C 906.118 1797.66 932.004 1805.56 950.098 1820.86 C 966.547 1834.9 976.805 1854.85 978.649 1876.39 C 981.75 1915.11 953.008 1952.11 916.588 1962.64 C 907.929 1965.14 901.817 1965.94 892.798 1966.71 C 869.386 1966.93 851.274 1958.87 832.485 1945.42 C 780.364 1908.08 783.783 1851.35 836.439 1816.82 C 851.145 1807.18 864.903 1802.64 882.551 1800.35 z" fill="rgb(245,242,219)" transform="translate(0,0)"></path>
<path d="M 917.239 1839.26 C 933.652 1836.61 949.137 1847.67 951.954 1864.06 C 954.772 1880.44 943.87 1896.04 927.516 1899.02 C 916.786 1900.98 905.831 1897.03 898.826 1888.67 C 891.822 1880.3 889.849 1868.83 893.658 1858.61 C 897.467 1848.39 906.471 1841 917.239 1839.26 z" fill="rgb(10,46,41)" transform="translate(0,0)"></path>
<path d="M 531.471 1716.42 C 578.201 1711.86 663.887 1728.47 703.839 1751.79 C 658.653 1753.53 616.451 1765.08 572.198 1774.22 C 507.217 1786.08 469.961 1784.67 408.409 1753.38 C 446.42 1728.74 486.974 1719.33 531.471 1716.42 z" fill="rgb(245,242,219)" transform="translate(0,0)"></path>
<path d="M 1876.28 1056.39 C 1895.04 1054.01 1917.1 1060.24 1932.76 1070.77 C 1956.08 1086.66 1972.14 1111.17 1977.41 1138.89 C 1982.94 1169.01 1976.1 1200.08 1958.45 1225.1 C 1941.01 1250.17 1919.36 1262.97 1889.87 1268.37 C 1924.96 1292.81 1937.16 1326.93 1938.65 1371.6 C 1940.23 1418.76 1898.61 1501.41 1843.65 1447.9 C 1819.92 1424.81 1820.44 1362.07 1847.36 1340.6 C 1860.74 1329.94 1870.16 1333.39 1880.23 1345.11 C 1872.07 1346.13 1860.95 1347.09 1855.21 1353.42 C 1843.94 1365.83 1840.15 1392.36 1852.88 1404.57 C 1857.38 1408.9 1863.43 1411.24 1869.67 1411.08 C 1877.85 1410.81 1886.48 1405.59 1891.32 1399.34 C 1915.21 1368.57 1908.74 1315.14 1878.93 1290.22 C 1845.63 1262.38 1803.83 1277.15 1778.54 1307.3 C 1760.27 1337.94 1789.7 1461.6 1794.98 1499.51 C 1805.02 1571.62 1785.75 1615.87 1753.78 1677.84 C 1724.89 1629.98 1706.62 1592.66 1701.05 1535.48 C 1695.05 1468.82 1710.53 1403.66 1738.31 1343.35 C 1762.09 1291.71 1788.54 1263.99 1846.62 1258.99 C 1787.7 1224.71 1763.08 1146.54 1809.34 1091.62 C 1827.7 1069.82 1848.02 1059.4 1876.28 1056.39 z" fill="rgb(10,46,41)" transform="translate(0,0)"></path>
<path d="M 1874.52 1071.32 C 1890.88 1069.46 1911.01 1074.04 1924.89 1083.06 C 1990.14 1125.47 1969.82 1236.81 1893.57 1252.53 C 1874.54 1253.98 1859.9 1250.85 1843.92 1239.61 C 1779.94 1194.62 1789.51 1083.84 1874.52 1071.32 z" fill="rgb(245,242,219)" transform="translate(0,0)"></path>
<path d="M 1867.16 1096.45 C 1883.79 1093.93 1899.33 1105.34 1901.91 1121.97 C 1904.48 1138.6 1893.12 1154.17 1876.49 1156.8 C 1859.8 1159.43 1844.15 1148.01 1841.56 1131.31 C 1838.98 1114.61 1850.45 1098.99 1867.16 1096.45 z" fill="rgb(10,46,41)" transform="translate(0,0)"></path>
<path d="M 1756.49 1340.62 C 1757.18 1342.64 1759.71 1392.32 1761.55 1402.79 C 1779.3 1503.8 1799.41 1545.65 1753.29 1644.11 L 1748.58 1636.03 C 1740.82 1621.33 1735.46 1609.9 1729.97 1593.96 C 1702.62 1514.53 1718.89 1414.84 1756.49 1340.62 z" fill="rgb(245,242,219)" transform="translate(0,0)"></path>
<path d="M 416.127 744.36 L 1625 744.743 L 1624.78 770.976 L 416.018 771.139 L 416.127 744.36 z" fill="rgb(10,46,41)" transform="translate(0,0)"></path>
<path d="M 1531.61 838.976 C 1562.82 834.441 1591.78 856.13 1596.2 887.358 C 1600.63 918.586 1578.84 947.467 1547.59 951.783 C 1516.5 956.079 1487.8 934.42 1483.39 903.345 C 1478.99 872.271 1500.55 843.488 1531.61 838.976 z" fill="rgb(10,46,41)" transform="translate(0,0)"></path>
<path d="M 944.795 859.102 C 969.053 855.174 991.886 871.706 995.724 895.979 C 999.562 920.252 982.944 943.023 958.657 946.771 C 934.497 950.499 911.872 933.987 908.054 909.842 C 904.236 885.696 920.664 863.01 944.795 859.102 z" fill="rgb(10,46,41)" transform="translate(0,0)"></path>
<path d="M 624.825 867.213 C 664.774 865.22 666.759 895.579 653.154 925.445 C 647.177 938.566 634.367 946.348 620.849 950.475 C 567.378 957.77 575.855 880.853 624.825 867.213 z" fill="rgb(10,46,41)" transform="translate(0,0)"></path>
<path d="M 626.349 874.061 C 649.318 873.527 643.76 900.487 639.596 915.147 C 636.292 926.776 629.981 937.308 618.969 943.002 C 589.365 944.77 605.007 896.653 614.24 883.215 C 617.767 878.082 620.819 876.52 626.349 874.061 z" fill="rgb(245,242,219)" transform="translate(0,0)"></path>
<path d="M 1248.52 868.365 C 1293.58 869.714 1275.93 926.884 1251.53 942.898 C 1242.86 948.583 1239.43 949.347 1229.66 950.946 C 1182.25 951.288 1196.94 873.194 1248.52 868.365 z" fill="rgb(10,46,41)" transform="translate(0,0)"></path>
<path d="M 1241.13 875.064 C 1266.19 874.139 1259.43 902.421 1255.03 918.383 C 1252.05 929.226 1246.08 938.243 1235.9 943.448 C 1206.58 946.349 1219.63 898 1229.24 884.733 C 1233.14 879.342 1235.23 877.898 1241.13 875.064 z" fill="rgb(245,242,219)" transform="translate(0,0)"></path>
<path d="M 1649.22 1619.37 C 1669.8 1614.05 1690.76 1626.54 1695.87 1647.17 C 1700.99 1667.79 1688.3 1688.63 1667.63 1693.55 C 1647.24 1698.4 1626.74 1685.92 1621.69 1665.58 C 1616.65 1645.23 1628.93 1624.62 1649.22 1619.37 z" fill="rgb(10,46,41)" transform="translate(0,0)"></path>
<path d="M 1650.29 353.289 C 1670.99 349.724 1690.68 363.562 1694.34 384.247 C 1697.99 404.932 1684.25 424.683 1663.58 428.435 C 1642.78 432.21 1622.87 418.355 1619.19 397.537 C 1615.51 376.72 1629.45 356.877 1650.29 353.289 z" fill="rgb(10,46,41)" transform="translate(0,0)"></path>
<path d="M 560.058 830.166 C 568.493 830.469 591.604 830.603 597.931 831.887 L 598.814 833.329 C 597.942 841.78 588.816 833.435 582.417 842.351 C 572.547 856.105 559.287 941.842 552.329 949.125 C 548.226 950.682 550.226 950.587 546.127 949.662 C 543.12 945.304 536.144 927.045 533.596 920.993 L 505.786 854.891 C 500.775 873.368 496.271 891.978 492.277 910.701 C 490.868 917.305 489.348 923.759 488.424 930.465 C 487.272 938.826 494.102 942.46 496.171 947.535 C 494.081 949.742 494.333 949.051 490.571 949.599 C 482.366 949.592 473.863 949.738 465.714 949.067 L 465.155 947.578 C 467.646 941.396 476.277 942.02 478.857 931.346 C 481.476 920.402 483.872 909.079 485.951 898.002 C 489.11 881.166 496.631 861.795 497.739 845.004 C 494.815 837.944 491.233 841.18 483.862 836.688 C 482.997 833.594 483.026 835.216 484.604 831.707 C 488.243 830.367 507.678 830.987 512.977 831.042 C 526.719 860.513 539.79 890.292 552.18 920.356 C 556.866 896.308 563.761 872.622 568.982 848.704 C 570.565 841.454 564.818 837.981 559.074 836.036 L 557.245 835.434 C 557.098 832.518 557.48 833.154 560.058 830.166 z" fill="rgb(10,46,41)" transform="translate(0,0)"></path>
<path d="M 383.274 354.159 C 403.999 350.806 423.479 365.005 426.631 385.761 C 429.782 406.518 415.395 425.859 394.609 428.808 C 374.107 431.717 355.087 417.569 351.979 397.096 C 348.87 376.623 362.833 357.467 383.274 354.159 z" fill="rgb(10,46,41)" transform="translate(0,0)"></path>
<path d="M 384.848 1619.03 C 405.18 1615.42 424.571 1629.02 428.098 1649.37 C 431.626 1669.71 417.945 1689.05 397.586 1692.5 C 377.34 1695.93 358.133 1682.34 354.626 1662.11 C 351.118 1641.87 364.63 1622.61 384.848 1619.03 z" fill="rgb(10,46,41)" transform="translate(0,0)"></path>
<path d="M 600.989 567.362 C 594.721 564.733 577.019 563.029 570.013 563.141 C 535.035 563.701 543.712 587.705 537.654 593.89 L 535.63 593.736 C 534.495 592.782 533.112 591.477 532.955 589.862 C 527.349 532.535 618.281 557.62 648.456 563.453 C 654.034 564.531 661.484 564.759 666.991 563.523 C 669.952 562.859 671.168 556.299 672.519 553.326 C 678.017 551.399 676.165 560.444 681.789 562.824 L 682.068 563.366 C 675.011 567.329 676.304 581.757 669.098 584.252 L 666.557 583.431 C 666.274 580.064 670.117 574.623 672.083 571.007 C 649.336 578.548 630.63 570.763 607.704 568.351 C 605.925 568.163 605.353 568.713 604.034 569.646 C 587.577 578.23 579.487 584.932 570.703 601.831 C 564.473 613.817 559.9 634.56 564.598 647.369 C 566.982 654.024 571.944 659.439 578.365 662.394 C 594.258 669.748 620.333 663.998 628.018 646.575 C 632.199 637.097 626.894 634.1 628.015 629.739 C 631.548 628.35 631.987 627.975 635.838 628.537 C 642.232 633.495 640.742 641.144 638.427 648.097 C 635.485 656.935 626.946 662.631 618.608 666.043 C 577.696 682.785 530.435 661.845 553.584 610.773 C 562.955 590.554 580.025 574.922 600.989 567.362 z" fill="url(#Gradient7)" transform="translate(0,0)"></path>
<path d="M 831.266 827.225 C 831.776 827.154 833.39 827.382 833.983 827.445 C 835.263 832.476 821.076 884.684 819.031 893.458 C 825.517 883.804 847.043 856.198 862.899 869.352 C 874.168 878.699 846.432 929.356 855.553 937.872 C 861.183 936.562 866.242 927.975 871.481 929.173 C 873.23 939.582 855.458 952.551 845.475 950.301 C 843.28 949.829 841.36 948.51 840.133 946.63 C 835.775 939.968 838.639 927.441 840.025 919.987 C 842.544 909.52 851.286 887.808 846.906 879.77 C 837.17 875.155 820.176 899.558 817.282 907.444 C 812.646 920.076 809.638 934.937 806.472 948.09 C 800.8 948.498 794.758 948.696 789.055 948.967 C 797.113 928.628 802.037 901.477 807.304 880.042 C 810.381 867.518 814.526 852.633 816.673 840.223 C 813.1 838.838 809.141 837.901 807.21 834.821 L 807.953 832.887 C 812.381 830.329 825.526 828.371 831.266 827.225 z" fill="rgb(10,46,41)" transform="translate(0,0)"></path>
<path d="M 1157.48 827.468 C 1158.42 827.388 1157.73 827.39 1159.43 828.114 C 1159.26 829.777 1159.2 830.161 1158.63 831.737 C 1150.47 854.26 1147.33 877.753 1140.33 900.624 C 1148.95 887.714 1158.2 873.614 1174.07 869.245 C 1176.76 868.505 1180.84 868.311 1182.73 870.16 C 1194.96 882.086 1172.14 924.98 1174.47 940.026 C 1178.77 943.778 1182.4 932.745 1190.08 932.628 L 1191.58 934.832 C 1189.66 939.362 1185.14 944.543 1180.85 946.725 C 1155.56 959.592 1159.05 938.41 1162.13 923.74 C 1165.15 912.787 1168.23 901.525 1170.88 890.478 C 1171.91 886.197 1171.7 885.109 1169.65 881.958 C 1166.64 881.61 1166.5 881.459 1163.47 883.363 C 1155.36 888.47 1140.39 907.554 1137.29 916.106 C 1134.84 922.872 1131.39 940.033 1129.7 947.733 L 1112.52 948.212 C 1122.19 918.422 1129.14 888.393 1136.66 858.02 C 1138.02 852.53 1139.57 848.11 1139.77 842.422 C 1138.01 838.579 1133.66 836.72 1129.84 834.425 L 1129.49 832.649 C 1133.44 829.478 1151.46 828.16 1157.48 827.468 z" fill="rgb(10,46,41)" transform="translate(0,0)"></path>
<path d="M 1937.9 990.734 C 1955.99 987.43 1973.32 999.47 1976.53 1017.58 C 1979.75 1035.69 1967.62 1052.95 1949.5 1056.08 C 1931.5 1059.18 1914.38 1047.16 1911.19 1029.18 C 1908 1011.19 1919.94 994.015 1937.9 990.734 z" fill="rgb(10,46,41)" transform="translate(0,0)"></path>
<path d="M 1015.92 1915.47 C 1027.48 1912.7 1039.64 1916.36 1047.75 1925.04 C 1055.86 1933.72 1058.69 1946.1 1055.14 1957.44 C 1051.6 1968.78 1042.23 1977.35 1030.61 1979.86 C 1012.92 1983.7 995.443 1972.58 991.417 1954.93 C 987.391 1937.28 998.321 1919.68 1015.92 1915.47 z" fill="rgb(10,46,41)" transform="translate(0,0)"></path>
<path d="M 99.738 990.815 C 117.762 988.489 134.273 1001.18 136.661 1019.2 C 139.05 1037.21 126.417 1053.77 108.409 1056.22 C 90.3126 1058.68 73.6591 1045.97 71.2589 1027.87 C 68.8586 1009.76 81.6251 993.152 99.738 990.815 z" fill="rgb(10,46,41)" transform="translate(0,0)"></path>
<path d="M 1020.14 73.6725 C 1031.77 72.2271 1043.27 77.1367 1050.27 86.5293 C 1057.27 95.9219 1058.68 108.35 1053.97 119.074 C 1049.26 129.799 1039.16 137.168 1027.5 138.371 C 1009.75 140.204 993.828 127.399 991.81 109.664 C 989.792 91.9286 1002.43 75.875 1020.14 73.6725 z" fill="rgb(10,46,41)" transform="translate(0,0)"></path>
<path d="M 1076.31 830.155 C 1088.29 828.922 1093.32 830.753 1103.89 835.114 C 1107.14 832.327 1109.51 829.459 1113.82 831.412 C 1114.75 834.66 1109.06 862.837 1105.76 865.506 C 1101.21 860.515 1101.91 843.233 1092.26 839.317 C 1084.47 834.501 1064.11 840.544 1061.79 850.454 C 1057.19 870.173 1093.2 889.159 1099.61 908.066 C 1107.8 932.202 1089.88 944.753 1070.66 949.769 C 1054.7 952.334 1052.22 948.402 1037.67 947.566 C 1034.78 948.871 1034.36 949.114 1031.16 949.87 L 1029.35 948.609 C 1028.76 944.553 1029.84 939.295 1030.76 935.258 C 1032.09 929.38 1030.58 916.811 1035.78 913.774 C 1040.58 918.838 1035.24 931.273 1049.98 940.258 C 1055.3 943.561 1061.74 944.571 1067.82 943.058 C 1073.12 941.704 1079.94 937.004 1082.28 932.202 C 1093.66 905.782 1050.35 890.266 1046.14 867.245 C 1042.27 846.07 1057.71 834.041 1076.31 830.155 z" fill="rgb(10,46,41)" transform="translate(0,0)"></path>
<path d="M 635.688 1013.14 C 673.167 1011.49 677.408 1067.8 642.63 1078.22 C 603.063 1079.66 600.453 1021.96 635.688 1013.14 z" fill="rgb(3,7,4)" transform="translate(0,0)"></path>
<path d="M 635.031 1019.05 C 659.431 1019.99 662.946 1062.5 641.752 1072.01 C 618.575 1072.38 613.688 1028.69 635.031 1019.05 z" fill="rgb(245,242,219)" transform="translate(0,0)"></path>
<path d="M 1263.58 594.255 L 1265.98 594.381 C 1267.2 597.232 1264.67 604.079 1263.73 607.663 C 1268.42 602.936 1273.47 597.706 1280.23 596.184 C 1289.09 594.033 1294.55 601.527 1295.02 609.623 C 1296.08 627.997 1284.5 646.746 1267.66 654.178 C 1261.44 656.924 1257.27 657.132 1250.72 657.544 L 1244.37 676.344 C 1247.95 677.003 1248.08 676.925 1251.52 678.57 L 1251.84 680.064 C 1246.72 682.88 1226.76 683.393 1221.97 680.087 L 1222.09 678.337 L 1224.35 676.966 C 1227.56 677.1 1228.54 677.3 1231.71 676.424 C 1237.93 668.339 1252.15 614.539 1253.88 603.239 L 1238.5 602.469 C 1248.16 597.635 1252.94 596.038 1263.58 594.255 z" fill="rgb(3,7,4)" transform="translate(0,0)"></path>
<path d="M 1273.48 605.064 C 1287.38 602.929 1284.17 617.686 1281.26 625.987 C 1277.17 637.662 1271.41 645.788 1260.24 651.381 C 1256.94 652.454 1256.74 652.701 1253.17 652.656 C 1252.06 649.991 1255.56 637.722 1256.77 634.302 C 1261.69 620.311 1260.3 612.437 1273.48 605.064 z" fill="rgb(245,242,219)" transform="translate(0,0)"></path>
<path d="M 1396.07 869.178 C 1431.9 867.07 1412.44 908.965 1388.28 910.909 C 1368.29 912.518 1359.37 924.306 1375.58 939.651 C 1382.39 946.101 1400.45 933.724 1406.38 932.521 L 1407.61 934.365 C 1402.25 949.603 1375.43 954.644 1363.18 946.988 C 1346.19 936.377 1354 906.645 1362.69 892.471 C 1370.93 879.018 1381.18 872.855 1396.07 869.178 z" fill="rgb(10,46,41)" transform="translate(0,0)"></path>
<path d="M 1391.46 875.98 C 1401.24 874.672 1404.43 880.818 1400.46 889.115 C 1395.83 898.793 1389.84 903.038 1380.12 906.943 C 1376.51 908.112 1374.73 909.421 1371.8 906.842 C 1369.35 896.291 1382.94 881.12 1391.46 875.98 z" fill="rgb(245,242,219)" transform="translate(0,0)"></path>
<path d="M 1020.46 1795.03 C 1030.83 1793.43 1041.25 1797.6 1047.66 1805.91 C 1054.07 1814.22 1055.46 1825.35 1051.28 1834.98 C 1047.1 1844.6 1038.02 1851.19 1027.57 1852.18 C 1012.06 1853.65 998.187 1842.52 996.265 1827.06 C 994.342 1811.59 1005.06 1797.4 1020.46 1795.03 z" fill="rgb(10,46,41)" transform="translate(0,0)"></path>
<path d="M 1818.29 996.894 C 1833.87 993.712 1849.07 1003.81 1852.19 1019.4 C 1855.3 1035 1845.14 1050.16 1829.53 1053.2 C 1814.01 1056.23 1798.97 1046.15 1795.88 1030.64 C 1792.78 1015.14 1802.8 1000.06 1818.29 996.894 z" fill="rgb(10,46,41)" transform="translate(0,0)"></path>
<path d="M 1016.11 198.093 C 1031.32 193.757 1047.15 202.604 1051.43 217.827 C 1055.71 233.05 1046.81 248.853 1031.57 253.076 C 1016.41 257.278 1000.71 248.429 996.448 233.286 C 992.19 218.142 1000.98 202.407 1016.11 198.093 z" fill="rgb(10,46,41)" transform="translate(0,0)"></path>
<path d="M 218.198 994.983 C 233.633 993.043 247.781 1003.81 250.022 1019.21 C 252.263 1034.6 241.771 1048.96 226.424 1051.5 C 216.227 1053.18 205.913 1049.23 199.457 1041.16 C 193.002 1033.09 191.411 1022.16 195.298 1012.58 C 199.185 1003 207.943 996.273 218.198 994.983 z" fill="rgb(10,46,41)" transform="translate(0,0)"></path>
<path d="M 1219.79 558.335 C 1252.74 555.455 1239.44 593.664 1225.57 585.57 C 1225.15 579.369 1239.01 567.14 1220.22 563.923 C 1211.94 562.505 1197.78 570.26 1197.43 579.609 C 1197.02 594.703 1211.85 604.485 1220.2 615.323 C 1245.19 647.721 1213.63 675.41 1178.72 670.045 C 1162.27 664.777 1152.5 652.71 1164.38 637.675 C 1166.3 635.246 1167.25 634.098 1170.37 633.549 C 1171.06 633.959 1171.75 634.37 1172.44 634.78 C 1172.1 639.607 1170.16 648.426 1172.34 652.736 C 1174.95 657.888 1179.27 662.39 1184.79 663.901 C 1191.13 665.635 1199.36 664.467 1204.87 661.066 C 1213.92 655.48 1215.06 652.047 1217.44 642.688 C 1211.33 620.509 1190.34 613.676 1185.52 593.469 C 1180.88 574.001 1203.46 560.65 1219.79 558.335 z" fill="rgb(3,7,4)" transform="translate(0,0)"></path>
<path d="M 1464.2 595.18 C 1470.92 595.439 1474.24 595.882 1481.39 595.511 C 1481.58 596.03 1481.77 596.548 1481.97 597.067 C 1476.28 613.686 1469.87 633.248 1466.06 649.946 L 1479.73 646.328 C 1459.9 663.614 1452.2 660.945 1458.81 634.052 C 1456.91 634.038 1457.87 634.369 1456.63 636.365 C 1416.33 700.97 1407.65 606.494 1464.2 595.18 z" fill="rgb(3,7,4)" transform="translate(0,0)"></path>
<path d="M 1458.55 601.712 C 1461.81 601.899 1461.6 601.92 1464.54 603.403 C 1470.67 613.287 1449.94 640.963 1442.21 648.05 C 1437.55 649.185 1439.48 649.626 1436.03 647.819 C 1432.86 641.289 1436.2 631.777 1439.13 625.495 C 1443.95 615.156 1448.06 606.951 1458.55 601.712 z" fill="rgb(245,242,219)" transform="translate(0,0)"></path>
<path d="M 946.485 596.131 C 951.94 596.076 958.939 600.191 960.274 600.132 C 962.469 600.034 965.403 595.628 969.066 595.242 L 970.41 596.476 C 971.065 605.994 952.529 640.016 956.191 647.801 C 959.511 647.217 963.488 643.274 966.412 640.916 L 967.187 641.699 C 965.465 651.052 953.359 660.356 943.781 655.191 C 944.122 649.142 945.597 641.951 946.662 635.852 C 942.207 642.289 928.903 661.15 918.737 656.202 C 906.733 650.359 915.161 627.858 920.292 619.009 C 926.62 608.097 933.695 599.774 946.485 596.131 z" fill="rgb(3,7,4)" transform="translate(0,0)"></path>
<path d="M 947.669 600.678 C 951.034 601.768 950.906 601.557 953.33 604.077 C 958.592 617.256 939.428 638.814 929.957 646.805 C 927.825 647.751 927.884 647.621 925.517 647.631 L 924.348 646 C 922.417 632.574 936.157 607.834 947.669 600.678 z" fill="rgb(245,242,219)" transform="translate(0,0)"></path>
<path d="M 775.282 845.771 L 777.707 846.421 C 779.797 851.102 775.053 863.376 773.31 869.063 C 777.918 868.867 786.416 867.196 787.748 872.666 C 784.179 877.565 777.356 876.244 771.762 876.136 C 768.975 886.358 754.809 930.698 758.271 937.501 C 765.322 940.222 773.21 931.5 779.431 931.793 C 778.654 936.775 775.588 939.181 772.057 942.786 C 765.869 947.375 747.41 955.382 743.736 946.508 C 736.944 930.1 751.833 892.892 756.283 876.191 C 751.57 876.15 749.432 876.75 745.852 874.581 L 746.242 872.857 C 750.089 869.842 753.27 869.618 758.078 868.56 C 759.964 862.834 761.341 856.788 762.806 850.925 C 766.8 849.43 771.292 847.429 775.282 845.771 z" fill="rgb(10,46,41)" transform="translate(0,0)"></path>
<path d="M 879.341 560.403 C 954.204 557.526 924.229 646.298 862.867 635.008 C 877.82 631.516 892.814 628.844 901.931 615.053 C 912.679 598.797 912.663 581.376 896.116 569.992 C 872.99 560.405 841.008 569.129 830.138 594.039 C 826.044 603.419 823.452 620.797 836.963 623.158 C 838.857 623.489 838.701 624.022 839.732 625.517 L 838.578 628.056 L 836.016 628.913 C 814.36 625.011 810.966 599.34 825.758 584.355 C 841.8 568.105 857.082 562.371 879.341 560.403 z" fill="rgb(3,7,4)" transform="translate(0,0)"></path>
<path d="M 723.341 865.045 C 738.295 864.607 743.731 878.143 729.635 885.856 C 726.806 887.404 722.588 881.632 718.907 879.952 C 699.207 881.54 690.98 932.125 687.8 947.939 C 681.291 947.943 676.106 948.361 669.637 948.903 L 673.411 939.079 C 675.588 930.165 687.728 885.389 685.485 880.395 C 681.119 877.137 675.354 877.125 669.812 876.471 C 683.245 870.058 688.152 869.092 703.142 866.178 C 703.011 872.224 701.905 878.727 701.486 884.961 C 708.574 874.648 711.566 870.234 723.341 865.045 z" fill="rgb(10,46,41)" transform="translate(0,0)"></path>
<path d="M 1312.49 902.475 C 1319.64 890.858 1327.14 878.154 1338.95 870.645 C 1343.4 867.819 1351.28 866.126 1353.61 872.256 C 1351.44 877.385 1344.18 897.283 1338.11 896.477 C 1335.02 890.025 1340.74 891.118 1336.81 884.584 L 1334.63 884.069 C 1326.99 887.022 1321.03 897.019 1317.08 903.969 C 1310.03 918.121 1305.02 933.199 1302.2 948.755 L 1286.33 948.918 C 1289.14 939.097 1305.01 888.473 1302.74 882.875 C 1299.7 880.415 1295.52 880.897 1291.14 880.436 L 1290.37 879.176 L 1291.35 877.636 C 1298.53 873.681 1310.85 870.468 1319.09 869.367 L 1320.22 869.74 C 1321.37 874.923 1314.33 896.235 1312.49 902.475 z" fill="rgb(10,46,41)" transform="translate(0,0)"></path>
<path d="M 1429.4 1011.02 C 1441.42 1011.68 1463.04 1009.41 1468.16 1022.38 C 1473.69 1036.41 1467.89 1041.83 1456.77 1046.81 C 1462.78 1053.47 1466.01 1060.68 1471.39 1067.81 C 1474.56 1072.02 1478.47 1073.03 1481.17 1076.53 C 1475.97 1078.93 1468.22 1076.69 1464.25 1072.42 C 1460.4 1067.06 1451.33 1050.06 1444.44 1049.15 C 1442.06 1052.12 1442.73 1061.77 1442.6 1066.15 C 1442.44 1071.38 1443.6 1072.24 1446.89 1075.39 L 1447.92 1076.36 C 1444.74 1077.7 1433.87 1076.83 1430.2 1076.39 C 1430.83 1075.82 1433.96 1072.92 1434 1072.36 C 1435.04 1056.09 1434.75 1039.45 1434.41 1023.15 C 1434.27 1016.75 1434.09 1015.16 1429.4 1011.02 z" fill="rgb(3,7,4)" transform="translate(0,0)"></path>
<path d="M 1442.24 1016.98 C 1458.85 1016.41 1466.2 1028.25 1456.48 1041.69 C 1450.82 1044.15 1448.23 1044.14 1442.22 1044.71 L 1442.24 1016.98 z" fill="rgb(245,242,219)" transform="translate(0,0)"></path>
<path d="M 756.354 1013.5 C 769.267 1013.64 799.864 1008.57 796.678 1030.7 C 795.281 1040.41 790.97 1043.83 783.508 1049.08 C 793.566 1056.34 795.952 1062.2 801.856 1072.89 L 813.888 1077.69 C 807.872 1077.63 798.342 1078.19 793.484 1075.35 C 787.419 1068.66 779.716 1052.34 772.737 1050.79 C 766.136 1054.62 768.673 1071.2 772.12 1077.29 C 768.452 1077.78 761.71 1078.5 758.567 1076.75 C 758.659 1076.63 760.745 1073.96 760.747 1073.49 C 760.814 1055.86 762.611 1034.98 760.301 1017.69 C 760.149 1016.56 758.301 1017.82 756.354 1013.5 z" fill="rgb(3,7,4)" transform="translate(0,0)"></path>
<path d="M 769.592 1018.36 C 785.909 1019.25 792.335 1028.13 783.202 1043 C 778.69 1045.51 776.502 1046.77 771.687 1045.72 C 767.564 1040.83 769.52 1025.95 769.592 1018.36 z" fill="rgb(245,242,219)" transform="translate(0,0)"></path>
<path d="M 828.866 1010.37 C 834.074 1013.91 849.096 1050.73 853.265 1059.68 C 859.205 1045.92 865.772 1028.65 871.977 1014.83 C 872.652 1013.33 872.817 1013.63 874.777 1013.27 C 879.848 1019.06 881.927 1057.51 883.685 1067.41 C 884.441 1071.67 887.047 1073.07 890.623 1075.59 L 891.668 1076.32 C 888.427 1077.48 880.141 1077.11 876.285 1077.11 L 872.792 1049.77 C 871.688 1043.1 871.161 1037.57 870.567 1030.83 C 864.22 1045.98 860.532 1061.72 853.992 1076.96 C 844.403 1066.98 836.826 1047.42 831.365 1034.35 C 830.663 1042.59 829.831 1072.9 825.968 1077.4 C 822.86 1077.71 820.933 1078.16 817.949 1077.21 C 817.968 1073.36 821.556 1070.05 822.299 1063.5 C 824.027 1048.26 825.071 1024.62 828.866 1010.37 z" fill="url(#Gradient6)" transform="translate(0,0)"></path>
<path d="M 1309.02 1012.37 C 1316.02 1011.85 1329.38 1011.71 1335.92 1013.61 C 1354.33 1018.93 1355.35 1040.2 1337.63 1048.23 C 1348.04 1062.96 1346.35 1067.33 1363.23 1076.94 C 1354.4 1076.55 1350.25 1077.71 1343.69 1071.84 C 1335.56 1060.76 1334.79 1054.69 1322.99 1046.32 C 1322.66 1058.13 1323.19 1064 1324.4 1075.62 L 1323.52 1076.47 C 1319.5 1076.68 1315.07 1077.2 1311.22 1076.27 C 1313.35 1073.09 1315.03 1070.88 1314.82 1067.01 C 1314.16 1054.85 1316.09 1027.11 1313.53 1016.55 C 1311.02 1015.09 1310.33 1014.96 1309.02 1012.37 z" fill="rgb(3,7,4)" transform="translate(0,0)"></path>
<path d="M 1323.07 1016.97 C 1338.82 1018.04 1345.92 1029.09 1336.86 1042.65 C 1333.12 1044.06 1328.88 1045.94 1325.09 1044.02 C 1320.79 1038.99 1322.88 1024.42 1323.07 1016.97 z" fill="rgb(245,242,219)" transform="translate(0,0)"></path>
<path d="M 564.26 999.284 C 571.951 999.171 578.796 1000.44 586.35 1001.67 C 585.844 1007.27 584.999 1013.38 584.341 1019.01 C 573.929 997.313 553.034 1002.43 543.713 1021.31 C 534.015 1040.95 547.559 1081.34 575.664 1069.43 C 576.945 1063.08 576.365 1052.56 575.58 1046.07 L 574.082 1044.94 C 571.431 1045.11 569.703 1045.16 567.049 1045.1 C 564.74 1042.73 565.367 1042.24 564.646 1038.23 C 571.886 1038.29 585.433 1038.04 592.062 1039.21 L 591.964 1040.76 C 591.079 1041.33 587.314 1043.77 587.139 1044.34 C 585.222 1050.56 586.92 1067.77 587.171 1073.87 C 585.157 1074.57 583.118 1075.18 581.058 1075.72 C 538.316 1087.33 517.55 1049.98 537.536 1013.69 C 542.414 1004.84 554.49 1000.76 564.26 999.284 z" fill="url(#Gradient5)" transform="translate(0,0)"></path>
<path d="M 1111.14 592.261 C 1116.2 594.634 1119.37 597.391 1117.61 603.496 C 1112.3 621.853 1097.44 639.328 1087.53 655.412 C 1079.35 668.695 1061.79 689.198 1044.9 686.455 C 1039.38 685.558 1037.21 680.3 1038.7 675.221 C 1048.96 666.909 1054.56 697.285 1074.64 660.767 C 1080.91 645.181 1078.35 618.555 1073.5 602.739 C 1070.1 605.268 1067 608.453 1063.09 607.911 C 1062.44 602.586 1073.37 595.128 1079.04 594.586 C 1092.77 599.729 1089.33 634.582 1087.61 646.397 C 1092.92 637.516 1100.99 626.602 1104.99 617.508 C 1109.83 606.485 1101.57 602.861 1111.14 592.261 z" fill="rgb(3,7,4)" transform="translate(0,0)"></path>
<path d="M 750.486 596.154 C 755.231 595.485 767.674 595.847 767.036 603.235 C 765.516 620.822 748.373 628.426 733.245 631.857 C 730.444 648.682 734.753 654.466 751.715 644.034 C 753.909 642.684 753.787 642.135 756.456 641.344 L 758.436 642.626 C 736.982 673.505 710.834 650.398 724.627 620.485 C 730.834 607.024 736.422 600.727 750.486 596.154 z" fill="rgb(3,7,4)" transform="translate(0,0)"></path>
<path d="M 751.595 599.534 C 754.048 599.899 753.958 600.055 756.059 601.466 C 760.469 611.589 748.881 621.526 740.511 625.407 C 737.067 625.7 738.239 626.289 736.198 624.757 C 734.868 616.279 745.472 604.468 751.595 599.534 z" fill="rgb(245,242,219)" transform="translate(0,0)"></path>
<path d="M 1329.47 595.12 C 1356.82 593.777 1338.4 620.377 1326.44 626.686 C 1321.31 629.391 1319.28 630.038 1314 631.886 C 1305.72 634.779 1311.01 650.778 1319.78 649.82 C 1327.83 649.718 1328.18 644.784 1334.37 641.285 L 1335.83 642.181 L 1335.68 644.64 C 1296.98 689.314 1280.79 614.003 1329.47 595.12 z" fill="rgb(3,7,4)" transform="translate(0,0)"></path>
<path d="M 1326.77 599.541 C 1330.46 599.75 1330.52 600.173 1332.73 602.653 C 1334.24 612.846 1325.42 620.538 1317.69 625.454 L 1314.45 626.418 L 1313.76 624.896 C 1315.32 616.321 1320.78 605.993 1326.77 599.541 z" fill="rgb(245,242,219)" transform="translate(0,0)"></path>
<path d="M 1607.76 569.434 L 1611.49 569.979 C 1614.01 574.529 1609.46 588.635 1608.1 594.277 C 1613.09 594.183 1627.74 592.704 1630.07 597.739 C 1624.46 603.215 1610.63 601.821 1603.52 601.435 C 1605.29 614.4 1610.98 637.967 1604.11 648.935 C 1601.63 652.879 1597.68 655.671 1593.13 656.692 C 1581.24 659.359 1574.66 652.682 1572.45 641.666 C 1574.43 625.399 1589.17 620.96 1591.17 635 C 1589.79 639.452 1575.99 649.244 1587.72 652.654 C 1603.38 647.78 1594.19 616.593 1594.81 602.684 L 1594.89 601.186 C 1590.47 601.606 1587 602.93 1584.45 598.916 C 1587.25 593.977 1593.66 594.449 1598.76 594.04 C 1602.05 586.467 1604.41 577.567 1607.76 569.434 z" fill="rgb(3,7,4)" transform="translate(0,0)"></path>
<path d="M 1155.49 1010.51 C 1161.08 1014.44 1175.94 1063.99 1181.76 1072.65 C 1181.68 1072.54 1187.46 1076.13 1187.81 1076.36 C 1184.78 1077.95 1178.33 1077.4 1174.87 1077.42 C 1163.67 1077.47 1175.53 1058.83 1161.25 1056.71 L 1144.35 1056.73 C 1141.95 1062.47 1139.85 1067.19 1139.81 1073.54 C 1139.77 1078.65 1129.15 1077.84 1125.99 1076.83 C 1127.03 1071.96 1131.37 1071.34 1132.44 1068.69 C 1140.24 1049.36 1148.26 1030.07 1155.49 1010.51 z" fill="rgb(3,7,4)" transform="translate(0,0)"></path>
<path d="M 1154.22 1028.54 C 1157.43 1031.41 1163.63 1047.45 1161.86 1051.75 L 1158.25 1052.13 C 1153.1 1052.35 1150.44 1053.71 1148.04 1049.1 C 1147.8 1045.07 1152.57 1033.69 1154.22 1028.54 z" fill="rgb(245,242,219)" transform="translate(0,0)"></path>
<path d="M 1522.56 551.191 C 1524.03 550.937 1524.21 551.112 1525.74 551.284 C 1526.27 559.18 1498.29 630.457 1495.21 649.32 C 1498.39 648.105 1502.43 646.045 1505.51 646.708 L 1505.19 648.341 C 1500.38 653.053 1498.39 653.882 1492.61 656.926 C 1488.53 657.777 1488.31 658.053 1485.39 655.718 C 1481.15 643.842 1506.45 580.83 1510.86 562.08 L 1511.21 560.566 C 1507.73 560.171 1504.51 560.371 1502.17 558.076 L 1503.1 556.475 C 1508.56 554.009 1516.53 552.546 1522.56 551.191 z" fill="rgb(3,7,4)" transform="translate(0,0)"></path>
<path d="M 1089.88 998.39 C 1101.4 997.77 1118.36 998.491 1114.56 1014.51 L 1109.63 1007.94 C 1048.43 985.919 1053.55 1082.82 1104.17 1071.18 C 1110.48 1067.85 1112.44 1065.74 1117.52 1060.98 C 1115.41 1072 1114.61 1074.14 1103.62 1076.68 C 1048.54 1089.43 1032.85 1004.11 1089.88 998.39 z" fill="url(#Gradient4)" transform="translate(0,0)"></path>
<path d="M 682.679 1014.29 C 687.201 1014.02 696.761 1013.28 700.775 1014.86 C 695.338 1023.97 698.351 1038.7 697.981 1048.85 C 697.054 1074.27 723.165 1083.58 725.307 1053.55 C 726.108 1042.32 725.795 1029.31 724.714 1018.13 C 724.714 1018.13 721.61 1014.58 721.323 1014.25 C 724.645 1013.15 733.437 1013.55 737.375 1013.57 L 737.243 1014.7 C 725.466 1027.53 744.889 1073.21 715.381 1077.86 C 680.048 1083.42 691.544 1040.74 688.636 1020.43 C 688.116 1016.8 685.53 1016.09 682.679 1014.29 z" fill="url(#Gradient3)" transform="translate(0,0)"></path>
<path d="M 681.789 562.824 C 689.133 559.351 694.079 559.039 702.165 558.321 C 698.725 565.438 679.602 616.364 678.87 622.597 L 678.68 626.363 L 680.148 627.807 C 676.835 633.382 669.958 650.663 665.581 655.336 C 665.202 655.74 659.075 656.387 656.534 654.929 C 657.03 649.231 660.144 643.341 662.201 636.963 C 669.398 614.636 679.082 591.606 684.75 568.95 C 685.394 566.375 683.502 564.94 682.068 563.366 L 681.789 562.824 z" fill="rgb(3,7,4)" transform="translate(0,0)"></path>
<path d="M 889.831 575.21 C 889.709 576.475 888.55 578.279 887.789 579.382 C 881.563 588.224 879.356 598.746 875.601 608.593 C 868.153 628.122 852.24 668.989 829.545 673.721 C 831.84 667.127 842.843 657.605 844.045 647.666 C 844.997 639.746 846.223 640.446 849.673 635.772 C 863.264 617.357 864.032 582.183 889.831 575.21 z" fill="rgb(3,7,4)" transform="translate(0,0)"></path>
<path d="M 1052.62 573.64 L 1053.74 574.835 C 1053.48 578.957 1049.63 591.442 1048.3 596.117 C 1053.24 595.961 1056.95 594.865 1060.34 598.767 L 1059.27 600.563 C 1055.27 603.008 1051.65 602.402 1046.81 602.396 C 1044.53 614.584 1035.57 638.518 1036 647.952 L 1037.07 648.851 C 1042.78 645.972 1044.44 642.689 1050.46 640.667 L 1051.38 641.687 C 1050.14 645.878 1049.77 645.982 1046.38 649.008 C 1040.79 653.169 1034.45 657.726 1027.36 656.982 C 1014.83 649.387 1038.67 611.155 1035.28 602.968 C 1032.56 602.669 1030.06 602.777 1028 601.152 L 1028.41 599.648 C 1031.28 596.407 1034.98 595.431 1039.1 593.745 L 1041.04 585.319 C 1045.08 581.784 1048.9 577.551 1052.62 573.64 z" fill="url(#Gradient2)" transform="translate(0,0)"></path>
<path d="M 1375.89 594.242 C 1397.1 595.004 1389.45 612.853 1381.57 613.23 C 1380.34 610.507 1381.34 607.439 1381.79 604.03 C 1380.35 601.419 1376.99 599.378 1374.33 600.369 C 1360.52 605.517 1354.62 630.953 1358.83 643.471 C 1362.68 654.891 1372.87 649.815 1379.5 645.83 L 1382.24 644.377 L 1383.72 645.022 C 1382.83 650.496 1372.75 656.779 1367.94 657.741 C 1336.08 664.108 1342.68 625.176 1353.93 609.095 C 1360.64 599.504 1365.26 596.172 1375.89 594.242 z" fill="url(#Gradient1)" transform="translate(0,0)"></path>
<path d="M 996.965 616.776 C 1001.29 609.822 1011.73 591.299 1021.18 594.901 C 1024.52 599.314 1023.88 605.762 1021 610.235 C 1017.6 609.85 1014.03 607.03 1010.84 605.054 C 1002.38 614.436 998.356 622.285 993.624 633.752 C 991.062 640.655 988.575 648.668 986.196 655.723 L 975.995 656.671 C 978.772 642.503 987.73 618.583 988.389 607.136 C 986.145 604.779 983.634 605.417 979.55 605.252 L 979.897 603.629 C 984.474 599.754 994.05 595.423 999.923 594.03 C 1003.68 596.95 998.1 612.593 996.965 616.776 z" fill="rgb(3,7,4)" transform="translate(0,0)"></path>
<path d="M 1408.05 1011.53 L 1409.33 1012.05 C 1409.16 1015.07 1409.38 1017.51 1407.87 1020.05 C 1398.12 1018.85 1402.68 1016.51 1388.73 1017.01 L 1386.72 1017.09 L 1386.64 1042.25 C 1398.43 1042.53 1396.13 1040.59 1405.28 1039.78 C 1405.63 1042.47 1404.72 1044.5 1403.92 1047.13 C 1401.1 1048.21 1390.68 1047.27 1386.36 1047.23 C 1386.21 1056.04 1386.21 1062.97 1386.74 1071.75 C 1394.5 1071.84 1399.82 1072.14 1407.47 1070.75 C 1410.3 1068.64 1410.45 1067.79 1413.47 1067.44 C 1413.93 1070.25 1412.68 1072.59 1411.67 1075.37 C 1405.12 1076.66 1378.91 1079.44 1374.81 1074.53 C 1379.38 1065.78 1378.62 1027.59 1377.69 1016.5 L 1374.35 1013.71 L 1374.95 1012.52 C 1381.49 1011.37 1399.51 1012.04 1408.05 1011.53 z" fill="rgb(3,7,4)" transform="translate(0,0)"></path>
<path d="M 1288.79 1011.59 L 1289.66 1012.15 L 1288.8 1020.2 C 1279.56 1016.87 1275.28 1017.05 1265.74 1017.12 L 1266.01 1042.07 C 1270.48 1042.15 1281.37 1043.02 1284.4 1040.54 C 1286.38 1038.91 1285.78 1039.47 1287.55 1039.16 L 1287.99 1040.61 C 1287.33 1043.91 1287.41 1044.76 1285.12 1047.29 C 1282.79 1048.16 1271.16 1046.88 1266.06 1046.97 C 1266.03 1055.42 1266.39 1063.66 1266.73 1072.09 C 1273.61 1072.28 1279.35 1072.09 1286.22 1071.8 C 1287.76 1070.25 1289.32 1068.72 1290.9 1067.22 L 1291.84 1068 L 1290.7 1076.82 C 1282.59 1077 1262.17 1077.85 1255.12 1076.86 L 1254.71 1075.07 C 1259.52 1068.56 1258.22 1021.02 1255.81 1012.7 C 1264.52 1010.98 1278.56 1012.81 1288.79 1011.59 z" fill="rgb(3,7,4)" transform="translate(0,0)"></path>
<path d="M 938.444 1012.58 C 938.854 1012.7 939.264 1012.81 939.674 1012.93 C 938.91 1016.27 938.828 1017.69 937.35 1020.77 C 931.42 1020.81 926.186 1018.54 918.843 1018.55 L 917.181 1018.55 L 917.211 1043.07 C 918.805 1043.1 923.702 1042.98 924.989 1043.19 C 930.601 1044.11 931.491 1039.46 936.61 1039.95 C 937.197 1043.47 936.761 1047.31 934.602 1050.19 C 927.706 1047.74 926.172 1047.19 918.831 1047.54 L 917.212 1047.63 C 917.22 1055.98 917.029 1063.5 918.247 1071.8 C 925.307 1072.37 930.163 1072.88 936.888 1070.6 C 939.037 1068.68 941.825 1065.72 943.939 1063.62 L 940.21 1077.05 C 930.458 1077.17 914.172 1077.84 904.955 1076.8 L 904.559 1075.84 C 905.257 1075.29 908.732 1072.57 908.765 1071.85 C 909.508 1055.45 908.851 1038.11 909.105 1021.59 C 909.129 1020 907.239 1015.04 906.872 1014.02 C 909.481 1013.21 931.024 1013.52 938.444 1012.58 z" fill="rgb(3,7,4)" transform="translate(0,0)"></path>
<path d="M 678.87 622.597 C 686.385 612.588 698.756 596.653 711.789 594.376 C 722.537 598.785 700.963 639.642 698.318 649.59 L 714.129 639.254 C 708.941 648.191 704.4 658.145 692.378 656.762 C 680.453 647.97 704.552 617.012 701.39 608.626 C 693.691 607.45 684.579 621.998 680.148 627.807 L 678.68 626.363 L 678.87 622.597 z" fill="rgb(3,7,4)" transform="translate(0,0)"></path>
<path d="M 1570.24 595.262 C 1572.03 595.485 1571.18 595.317 1572.92 597.027 C 1573.98 605.677 1560.45 638.632 1556.9 647.952 C 1560.09 645.207 1563.23 641.296 1567.43 643.308 C 1567.65 650.233 1554.98 660.381 1548.09 658.856 C 1546.63 658.533 1545.25 655.811 1544.37 654.55 C 1546.47 644.135 1562.08 609.994 1559.55 604.255 L 1557.77 604.175 C 1552.77 606.902 1549.86 610.26 1545.8 614.249 L 1545.06 613.9 C 1546.09 599.211 1558.22 597.406 1570.24 595.262 z" fill="rgb(3,7,4)" transform="translate(0,0)"></path>
<path d="M 1189.62 1011.3 C 1199.76 1013.36 1233.25 1010.57 1237.29 1012.04 C 1237.66 1015.44 1237.95 1016.78 1237.44 1020.23 C 1228.22 1018.02 1229.59 1016.62 1218.9 1016.98 L 1217.19 1017.05 L 1217.39 1071.41 C 1218.1 1073.02 1220.29 1075.15 1221.52 1076.66 L 1220.68 1076.51 C 1217.4 1078.34 1207.36 1077.98 1204.01 1076.48 C 1204.77 1075.87 1206.14 1074.8 1206.76 1074.11 C 1210.91 1069.4 1208.61 1026.01 1208.55 1017.29 C 1199.76 1017.15 1198.99 1016.36 1190.31 1019.65 L 1188.57 1020.32 C 1187.63 1018.13 1189.02 1014.14 1189.62 1011.3 z" fill="rgb(3,7,4)" transform="translate(0,0)"></path>
<path d="M 956.427 1011.09 C 969.657 1015.86 997.81 1009.31 1003.54 1016.46 C 1003 1019.28 1003.72 1018.18 1001.84 1020.09 C 992.502 1017.43 993.169 1017.32 983.451 1017.72 C 983.991 1034.48 983.764 1052.4 983.83 1069.25 C 984.244 1073.99 985.453 1073.86 989.064 1076.98 C 983.577 1077.06 976.929 1077.45 971.643 1076.5 C 977.893 1065.89 974.088 1046.54 975.221 1034.06 C 975.604 1029.84 974.899 1022.5 973.676 1018.45 C 967.634 1013.26 964.805 1022.68 956.433 1020.82 C 954.941 1017 955.843 1015.54 956.427 1011.09 z" fill="rgb(3,7,4)" transform="translate(0,0)"></path>
<path d="M 1416.14 594.866 C 1418.73 595.034 1417.9 594.793 1420.11 595.911 C 1424.09 604.17 1405.15 637.252 1406.79 647.851 C 1409.65 650.729 1409.13 649.866 1413.79 650.958 L 1413.42 652.263 C 1409.09 654.972 1401.3 658.058 1396.09 657.612 C 1393.85 651.435 1394.04 649.074 1396.03 642.821 C 1400.02 630.296 1405.1 618.425 1408.91 605.806 C 1405.17 607.206 1401.43 609.131 1397.82 607.754 L 1397.61 606.022 C 1403.76 598.949 1407.31 598.391 1416.14 594.866 z" fill="rgb(3,7,4)" transform="translate(0,0)"></path>
<path d="M 815.18 647.057 C 818.496 646.981 818.454 646.445 820.933 647.867 C 818.57 651.075 813.981 655.371 813.469 659.332 C 811.231 677.537 837.778 683.014 851.093 679.523 C 856.697 678.054 863.012 669.91 868.109 670.905 C 869.383 673.848 869.017 674.239 868.517 677.4 C 864.189 680.932 861.287 682.74 855.034 685.224 C 837.687 692.117 800.965 684.122 803.72 659.993 C 804.336 654.601 810.126 649.85 815.18 647.057 z" fill="rgb(3,7,4)" transform="translate(0,0)"></path>
<path d="M 1537.71 592.702 C 1538.81 593.465 1539.06 593.98 1539.96 595.047 C 1540.71 605.876 1522.89 640.308 1526.53 647.278 C 1529.81 646.984 1531.31 646.761 1534.65 647.102 L 1534.49 648.578 C 1532.09 651.876 1530.76 652.449 1527.29 654.793 C 1523.6 656.398 1523.24 656.719 1519.32 656.864 C 1507.84 649.907 1526.42 612.555 1529.03 602.048 C 1530.33 596.811 1533.11 594.841 1537.71 592.702 z" fill="rgb(3,7,4)" transform="translate(0,0)"></path>
<path d="M 1544.39 559.547 C 1555.12 561.491 1554.23 570.736 1546.45 576.327 C 1541.67 575.702 1542.05 576.156 1538.77 573.477 C 1536.11 566.714 1539.27 563.572 1544.39 559.547 z" fill="rgb(3,7,4)" transform="translate(0,0)"></path>
<path d="M 1417.89 566.583 C 1420.55 565.815 1423.42 566.567 1425.36 568.543 C 1427.31 570.518 1428.01 573.398 1427.2 576.046 C 1426.39 578.694 1424.19 580.684 1421.47 581.231 C 1417.5 582.029 1413.61 579.555 1412.65 575.624 C 1411.69 571.693 1414 567.704 1417.89 566.583 z" fill="rgb(3,7,4)" transform="translate(0,0)"></path>
<metadata><recraft-signature>{"signed_by": "recraft", "signature_b64": "QBPhOQAaui4droOb7TqDy6xDBOvMgrSDSZO91UnFKm7bVpoMJeHPeDvtKFvVWvbSG0G6SKPFxKJUna4Pv8tsDg==", "signing_algo": "Ed25519", "generation_timestamp": 1772546613, "identifier": "25e15d54-d0d4-419f-bb44-fea365e2f1c2"}</recraft-signature></metadata></svg>