<svg xmlns="http://www.w3.org/2000/svg" height="1024" preserveAspectRatio="none" style="display: block;" version="1.1" viewBox="0 0 2048 2048" width="1024">
<path d="M 0 0 L 2048 0 L 2048 2048 L 0 2048 L 0 0 z" fill="rgb(255,255,255)" transform="translate(0,0)"></path>
<path d="M 1451.19 517.96 C 1459.93 472.983 1494.22 442.906 1541.18 451.801 C 1561.06 455.369 1578.67 466.812 1590 483.538 C 1618.26 525.099 1608.31 588.213 1576.53 624.747 C 1568.67 633.79 1561.57 639.363 1551.71 646.003 C 1552.72 654.399 1553.75 663.208 1552.85 671.602 C 1556.75 720.792 1556.51 772.545 1560.65 820.019 C 1563.91 837.5 1568.68 839.18 1576.89 854.418 C 1580.16 860.497 1580.07 859.807 1586.21 864.073 C 1588.5 875.099 1591.47 877.247 1594.14 886.799 C 1591.83 892.894 1592.69 885.5 1588.93 890.375 C 1588.83 894.169 1588.84 894.86 1588.07 898.513 C 1585.01 901.275 1584.14 900.699 1579.89 901.054 C 1576.05 909.568 1591.22 946.648 1593.75 957.909 C 1599.06 981.551 1608.84 1007.65 1611.39 1031.78 L 1612.1 1030.61 C 1620.37 1017.19 1625.99 1014.43 1640.57 1011.01 L 1643.38 1000.42 C 1630.51 994.782 1624.41 989.491 1619.34 976.863 C 1624.98 969.324 1625.84 966.303 1628.48 957.588 C 1619.56 941.587 1629.8 941.593 1642.62 939.093 C 1643.48 932.238 1643.82 930.328 1645.97 923.734 C 1650.79 918.498 1656.76 915.762 1663 912.598 C 1655.34 893.728 1648.32 884.199 1672.99 876.384 C 1681.41 873.716 1692.33 865.013 1700.3 871.393 C 1704.24 881.774 1695.02 891.951 1685.07 890.126 L 1684.33 888.574 C 1686.33 884.402 1692.8 879.972 1696.7 876.827 C 1688.11 879.761 1680.67 883.324 1672.53 887.3 C 1682.49 899.679 1687.37 918.982 1698.41 930.463 C 1706.93 939.322 1739.29 964.653 1751.14 960.505 L 1751.83 959.052 L 1750.95 957.333 C 1722.08 948.394 1696.96 925.981 1687.25 897.011 L 1686.77 895.583 C 1694.51 895.647 1702.34 895.575 1709.97 896.893 C 1728.61 899.932 1745.23 910.393 1756.02 925.889 C 1768.04 943.397 1767.11 956.003 1749.62 967.32 C 1752.49 1006.73 1773.8 1024.75 1781.94 1061.98 C 1788.17 1090.52 1787.27 1120.56 1764.03 1141.18 C 1750.92 1137.54 1742.06 1133.12 1729.98 1127.21 C 1732.65 1140.74 1736.54 1147.22 1727.68 1159.1 C 1748.08 1233.1 1803.35 1282.27 1841.69 1342.16 C 1820.98 1390.57 1778.01 1398.5 1729.98 1395.03 C 1767.12 1436.46 1766.21 1486.79 1772.03 1538.28 C 1772.99 1546.79 1786.8 1561.9 1789.44 1571.09 C 1792.21 1580.78 1787.41 1578.77 1785.05 1583.54 C 1789.61 1583.49 1790.61 1582.73 1793.59 1584.99 C 1795.27 1599.68 1766.91 1596.68 1762.63 1599.05 C 1741.8 1610.58 1720.12 1620.24 1695.67 1618.23 C 1689.13 1617.69 1687.83 1605.68 1690.32 1601.04 C 1693.63 1595.09 1703.7 1591.27 1709.33 1587.55 C 1727.4 1580.69 1731.47 1560.14 1747.29 1553.59 C 1733.17 1520.74 1714.43 1486.05 1696.99 1454.97 C 1688.02 1438.99 1678.61 1421.36 1668.81 1406.13 C 1641.76 1407.72 1618.65 1405.05 1592.55 1398.72 C 1580.8 1451.54 1545.46 1492.68 1519.54 1538.81 C 1517.01 1543.3 1506.98 1584.54 1497.49 1581.07 C 1468 1570.27 1433.22 1541.99 1410.29 1520.14 C 1418.23 1498.26 1420.64 1505.19 1440.4 1511.16 C 1457.72 1516.39 1474.47 1522.51 1491.38 1528.95 C 1495.96 1518.59 1500.75 1503.15 1504.33 1492.38 C 1516.9 1454.58 1526.45 1415.45 1536.28 1376.83 C 1533.72 1375.62 1531.93 1374.45 1529.54 1372.92 C 1521.27 1367.61 1511.39 1363.59 1502.34 1359.6 C 1504.95 1345.47 1509.42 1331.79 1513.34 1318.09 C 1532.81 1250.01 1564.13 1186.02 1592.52 1121.44 C 1595.7 1114.21 1595.91 1087.46 1596.21 1078.76 C 1591.07 1073.79 1586.67 1068.44 1582.4 1062.7 C 1577.4 1055.95 1532.45 983.596 1533.58 979.496 C 1534.73 975.268 1540.7 972.27 1544.18 970.012 C 1545.12 934.444 1538.33 897.054 1539.47 861.377 C 1539.7 854.277 1550.93 850.344 1554.92 847.016 C 1543.73 810.664 1515.36 759.824 1499.03 722.219 C 1493.99 725.437 1485.57 731.182 1480.93 725.372 C 1479.75 718.474 1482.39 712.947 1484.55 706.053 C 1445.01 706.723 1412.18 690.869 1387.16 658.921 C 1357.53 621.087 1350.38 561.696 1392.33 529.359 C 1408.8 516.67 1430.86 514.675 1451.19 517.96 z" fill="rgb(31,49,83)" transform="translate(0,0)"></path>
<path d="M 1429.1 524.357 C 1449.05 522.383 1472.28 533.137 1486.24 547.063 C 1507.37 568.136 1515.97 597.348 1515.46 626.668 C 1514.98 654.388 1512.21 676.357 1491.82 696.723 C 1478.28 698.451 1473.78 698.111 1460.06 696.428 C 1359.4 673.096 1337.22 535.678 1429.1 524.357 z" fill="rgb(255,255,255)" transform="translate(0,0)"></path>
<path d="M 1440.01 544.126 C 1469.87 542.637 1492.73 576.821 1495.25 603.4 C 1495.76 608.838 1496.65 613.743 1494.09 618.711 L 1492.56 618.049 C 1490.3 615.09 1489.63 605.787 1488.67 601.259 C 1484.37 580.855 1476.26 562.927 1456.3 553.705 C 1451.39 551.44 1442.41 549.204 1439.13 546.991 L 1440.01 544.126 z" fill="rgb(31,49,83)" transform="translate(0,0)"></path>
<path d="M 1393.03 621.654 L 1395.36 622.988 C 1401.68 633.588 1408.74 643.843 1416.91 653.118 C 1417.08 654.369 1417.25 655.62 1417.43 656.871 C 1406.91 653.589 1390.85 632.487 1393.03 621.654 z" fill="rgb(31,49,83)" transform="translate(0,0)"></path>
<path d="M 1624.6 1168.94 C 1620.37 1174.02 1603.35 1194.03 1608.3 1200.05 C 1611.37 1199.18 1610.26 1199.58 1612.93 1197.41 L 1613.87 1199.61 C 1630.71 1214.01 1654.66 1219.94 1676.47 1220.81 C 1677.58 1205.28 1677.12 1201.23 1674.48 1185.72 C 1678.73 1184.67 1684.34 1182.7 1688.64 1181.34 C 1699.33 1242.65 1720.22 1291.21 1755.2 1343.04 C 1737.19 1346.78 1726 1350.68 1709.27 1359.13 C 1678.28 1374.79 1660.77 1391.14 1624.19 1389.78 C 1610.94 1335.57 1602.11 1286 1602.49 1229.96 C 1602.58 1216.7 1601.97 1204.61 1604.88 1191.49 C 1607.84 1178.14 1613.24 1175.89 1624.6 1168.94 z" fill="rgb(255,255,255)" transform="translate(0,0)"></path>
<path d="M 1520.6 458.365 C 1528.12 457.709 1538.78 459.322 1546.04 461.281 C 1593.65 474.129 1606.31 531.016 1594.1 573.214 C 1584.62 605.943 1567.14 629.77 1537.35 646.478 C 1532.21 644.858 1529.31 643.407 1524.53 641.104 C 1524.56 636.662 1524.28 631.769 1524.12 627.292 C 1523.39 586.19 1512.89 558.395 1480.86 531.73 C 1480.82 528.507 1480.77 522.699 1481.15 519.514 C 1481.84 513.683 1485.43 504.949 1484.67 499.029 L 1483.15 499.337 C 1475.19 508.989 1475.85 515.988 1474.79 528.325 C 1469.66 525.724 1464.88 523.06 1459.87 520.26 C 1462.99 486.379 1486.99 462.246 1520.6 458.365 z" fill="rgb(255,255,255)" transform="translate(0,0)"></path>
<path d="M 1539.21 475.915 C 1555.01 474.622 1568.96 491.74 1574.42 505.111 C 1582.63 525.218 1581.53 547.512 1573.24 567.312 L 1569.93 566.166 C 1568.93 563.36 1573.02 547.955 1573.73 543.395 C 1576.87 523.324 1571.04 499.138 1553.33 487.292 C 1548.91 484.337 1541.91 480.242 1539.21 475.915 z" fill="rgb(31,49,83)" transform="translate(0,0)"></path>
<path d="M 1721.62 1164.85 C 1722.95 1166.1 1727.48 1180.45 1728.43 1183.09 C 1748.47 1238.89 1788.39 1281.79 1823.35 1328.69 C 1814.14 1336.58 1806.51 1339.04 1795.14 1342.22 C 1784.94 1344.2 1775.45 1345.15 1765.15 1346.28 C 1727.39 1283.11 1708.65 1251.42 1695.65 1178.11 C 1705.65 1174.05 1712.65 1170.78 1721.62 1164.85 z" fill="rgb(255,255,255)" transform="translate(0,0)"></path>
<path d="M 1681.7 1028 C 1708.21 1028.83 1713.17 1080.86 1717.06 1100.87 C 1719.83 1115.17 1724.72 1135.75 1725.55 1149.71 C 1715.33 1162.41 1688.84 1172.34 1673.83 1178.93 C 1667.95 1171.32 1660.34 1164.87 1652.8 1158.97 C 1665.11 1153.89 1670.6 1147.39 1681.34 1140.89 C 1682.93 1139.93 1695.18 1138.09 1700.18 1136.05 C 1701.47 1133.28 1701.27 1134.72 1700.6 1131.58 C 1698.22 1129.42 1695.56 1129.48 1692.27 1128.97 C 1690.57 1129.25 1690.95 1129.12 1689.16 1128.78 C 1681.01 1117.09 1673.89 1068.14 1672.59 1052.2 C 1667.23 1075.82 1668.62 1089.06 1675.01 1112.9 C 1676.07 1116.84 1679.68 1128.38 1679.65 1131.95 C 1676.18 1134.52 1660.72 1135.49 1656.41 1134.58 C 1657.54 1132.98 1658 1132.31 1658.91 1130.59 C 1656.44 1121.87 1650.48 1115.1 1648.02 1107.74 C 1642.67 1091.8 1643.96 1071.89 1651.18 1056.75 C 1658.17 1042.07 1666.71 1033.69 1681.7 1028 z" fill="rgb(255,255,255)" transform="translate(0,0)"></path>
<path d="M 1698.51 1372.99 C 1713.55 1388.84 1727.94 1400.9 1739.02 1420.04 C 1746.62 1433.22 1752.11 1447.51 1755.3 1462.39 C 1760.98 1487.88 1762.17 1513.73 1765.19 1539.52 C 1765.6 1543.05 1766.82 1549.27 1769.03 1551.99 C 1771.51 1551.76 1770.35 1551.75 1772.5 1551.92 C 1771.99 1560 1763.15 1568.13 1755.43 1564.45 C 1753.59 1561.02 1754.18 1562.07 1754.89 1557.33 C 1741.58 1512.1 1693.25 1430.52 1667.3 1389.93 C 1675.8 1386.46 1689.98 1377.9 1698.51 1372.99 z" fill="rgb(255,255,255)" transform="translate(0,0)"></path>
<path d="M 1543.58 1377.29 C 1549.57 1377.35 1567.77 1376.7 1571.49 1380.38 C 1577.21 1386.04 1574.29 1386.48 1583.71 1389.5 L 1585.09 1389.93 C 1585.19 1429.57 1540.31 1489.99 1518.9 1526.16 C 1514.59 1533.48 1508.16 1545.88 1497.32 1541.59 C 1496.48 1539.12 1496.28 1537.87 1497.35 1535.26 C 1514.39 1493.5 1524.69 1449.66 1536.72 1406.31 C 1539.19 1397.42 1541.62 1387.64 1543.34 1378.58 L 1543.58 1377.29 z" fill="rgb(255,255,255)" transform="translate(0,0)"></path>
<path d="M 1597.96 1145.33 L 1602.34 1147.46 C 1602.7 1148.13 1603.07 1148.79 1603.44 1149.46 C 1599.79 1177.88 1591.46 1215.5 1586.13 1242.51 C 1581.97 1263.75 1578.35 1285.1 1575.28 1306.52 C 1572.69 1326 1570.61 1351.42 1571.75 1370.88 C 1561.95 1370.16 1554.5 1370.08 1544.75 1370.12 C 1541.6 1370.24 1541.51 1370.27 1538.44 1369.63 L 1537.41 1367.67 C 1545.46 1296.63 1573.77 1212.53 1597.96 1145.33 z" fill="rgb(255,255,255)" transform="translate(0,0)"></path>
<path d="M 1579.82 963.739 L 1581.15 964.451 C 1584.78 971.854 1589.7 988.673 1592.86 997.515 C 1597.45 1010.35 1604.93 1026.93 1607.64 1039.66 C 1603.97 1050.13 1600.85 1059.08 1597.94 1069.82 C 1593.4 1065.02 1589.44 1059.71 1585.37 1054.49 C 1570.45 1033.54 1557.6 1005.06 1543.06 982.127 C 1560.21 975.841 1564.55 973.732 1579.82 963.739 z" fill="rgb(255,255,255)" transform="translate(0,0)"></path>
<path d="M 1594.78 1236.03 C 1596.91 1292.17 1601.6 1332.64 1615.97 1387.56 L 1602.24 1385.25 L 1601.39 1385.13 C 1596.62 1384.41 1581.72 1382.54 1580.7 1378.76 C 1574.24 1354.8 1588.81 1255.63 1594.78 1236.03 z" fill="rgb(255,255,255)" transform="translate(0,0)"></path>
<path d="M 1661.8 919.792 C 1662.44 919.795 1663.67 920.111 1664.36 920.254 C 1664.41 925.273 1652.17 930.267 1657.33 936.521 C 1660.99 937.038 1662.91 930.011 1668.42 927.871 C 1667.75 935.819 1667.53 935.053 1670.98 942.263 L 1672.33 942.734 L 1674.89 940.476 L 1675.63 941.138 C 1677.75 952.822 1674.08 972.82 1671.8 984.552 C 1667.14 989.511 1664.06 990.777 1657.68 992.848 C 1649.42 993.525 1632.79 991.366 1629.66 984.912 C 1622.58 970.278 1642.62 970.628 1633.05 947.047 C 1639.39 945.067 1641.34 944.375 1648.02 943.75 C 1649.98 938.085 1651.19 931.522 1652.48 925.609 L 1661.8 919.792 z" fill="rgb(255,255,255)" transform="translate(0,0)"></path>
<path d="M 1580.97 1166.66 L 1582.35 1168.44 C 1560.53 1221.53 1537.84 1307.01 1530.16 1363.06 C 1523.62 1360.32 1517.28 1357.78 1511.01 1354.45 C 1528.06 1288.07 1552.89 1228.98 1580.97 1166.66 z" fill="rgb(255,255,255)" transform="translate(0,0)"></path>
<path d="M 1545.09 781.178 C 1540.27 767.809 1514.53 682.63 1517.17 672.402 C 1517.58 670.834 1517.85 669.585 1519.39 668.903 C 1522.53 667.5 1525.95 668.695 1529.04 669.646 L 1532.37 672.124 L 1535.43 673.006 C 1536.91 673.487 1539.79 674.026 1539.86 675.07 C 1542.05 709.511 1557.93 790.043 1558.11 820.193 L 1557.11 820.082 C 1553.9 814.872 1554.33 808.725 1553.1 802.48 C 1552.21 797.692 1551.29 792.909 1550.35 788.132 C 1547.81 785.04 1547.65 784.308 1546.06 780.542 L 1545.09 781.178 z" fill="rgb(255,255,255)" transform="translate(0,0)"></path>
<path d="M 1545.09 781.178 C 1540.27 767.809 1514.53 682.63 1517.17 672.402 C 1517.58 670.834 1517.85 669.585 1519.39 668.903 C 1522.53 667.5 1525.95 668.695 1529.04 669.646 C 1529.6 686.976 1535.39 713.222 1538.63 731.31 C 1541.4 746.807 1543.22 765.928 1546.06 780.542 L 1545.09 781.178 z" fill="rgb(255,255,255)" transform="translate(0,0)"></path>
<path d="M 1529.04 669.646 L 1532.37 672.124 C 1537.54 711.041 1545.86 748.818 1550.35 788.132 C 1547.81 785.04 1547.65 784.308 1546.06 780.542 C 1543.22 765.928 1541.4 746.807 1538.63 731.31 C 1535.39 713.222 1529.6 686.976 1529.04 669.646 z" fill="rgb(31,49,83)" transform="translate(0,0)"></path>
<path d="M 1567.26 851.138 C 1568.79 851.975 1568.17 851.325 1568.81 853.357 C 1564.6 859.015 1553.82 859.264 1552.32 864.852 C 1556.73 867.197 1568.16 861.845 1575.65 864.529 C 1570.9 870.815 1555.46 868.635 1550.3 873.62 C 1550.2 878.049 1559.69 887.47 1560.83 892.52 C 1564.9 910.516 1568.55 927.908 1573.92 945.598 L 1577.82 956.671 L 1553.8 969.008 C 1550.88 936.353 1551.17 902.758 1546.88 870.155 C 1545.13 856.886 1556.67 855.288 1567.26 851.138 z" fill="rgb(255,255,255)" transform="translate(0,0)"></path>
<path d="M 1638.93 1061.98 L 1640.38 1063.29 C 1630.95 1091.37 1641.06 1111.66 1654.64 1135.38 C 1638.95 1137.09 1631.62 1137.53 1616.64 1132.87 C 1625.03 1109.44 1629.4 1086.76 1638.93 1061.98 z" fill="rgb(255,255,255)" transform="translate(0,0)"></path>
<path d="M 1772.11 1557.82 C 1775.12 1559.98 1781.4 1567.29 1781.43 1571.29 C 1774.8 1577.82 1757.45 1583.43 1748.57 1587.13 C 1739.36 1590.96 1704.94 1611.11 1696.55 1605.81 L 1696.54 1603.72 C 1720.55 1591.66 1725.79 1587.06 1742.65 1567.16 C 1754.2 1583.35 1761.71 1572.2 1776.3 1566.53 C 1774.43 1563.16 1773.58 1561.37 1772.11 1557.82 z" fill="rgb(255,255,255)" transform="translate(0,0)"></path>
<path d="M 1425.52 1512.85 C 1438.67 1514.43 1466.07 1527.16 1479.78 1531.24 C 1487.82 1533.63 1484.99 1560.7 1507.02 1549.3 L 1507.6 1549.95 L 1503.97 1558.94 C 1503.12 1561.6 1503.36 1561.88 1501.25 1563.56 C 1488.13 1558.26 1465.8 1540.35 1453.69 1531.88 C 1444.38 1525.37 1435 1519.19 1425.52 1512.85 z" fill="rgb(255,255,255)" transform="translate(0,0)"></path>
<path d="M 1500.12 701.956 C 1505.82 695.972 1508.98 691.999 1513.07 684.628 C 1517.17 701.205 1522.65 717.528 1527.59 733.892 C 1531.38 746.449 1534.7 759.503 1538.77 771.884 L 1535.05 773.472 C 1528.94 758.087 1509.23 714.58 1500.12 701.956 z" fill="rgb(255,255,255)" transform="translate(0,0)"></path>
<path d="M 1639.12 1025.88 L 1646.86 1030.51 C 1630.65 1056.53 1623.16 1078.34 1616.09 1107.65 C 1613.81 1107.68 1611 1105.42 1608.6 1104.01 C 1613.75 1075.64 1621.58 1049.14 1639.12 1025.88 z" fill="rgb(255,255,255)" transform="translate(0,0)"></path>
<path d="M 1644.51 1163.96 C 1653.85 1168.88 1660.1 1175.26 1666.63 1183.53 C 1658.28 1187.51 1656.52 1189.82 1650.61 1197.02 L 1649.53 1196.48 C 1641.03 1192.2 1632.88 1183.86 1624.17 1184.67 L 1622.47 1183.97 L 1633.75 1168.42 C 1637.36 1166.84 1640.78 1165.28 1644.51 1163.96 z" fill="rgb(255,255,255)" transform="translate(0,0)"></path>
<path d="M 1671.88 997.056 L 1672.9 997.209 C 1674.64 999.157 1676.03 1009.36 1676.82 1013.03 C 1668.35 1015.61 1663.1 1017.96 1654.25 1018.79 L 1651.42 1017.52 C 1649.18 1014.15 1649.34 1006.75 1649.06 1002.29 C 1658.36 1001.86 1663.26 1000.04 1671.88 997.056 z" fill="rgb(255,255,255)" transform="translate(0,0)"></path>
<path d="M 1543.18 673.622 C 1546.74 672.026 1546.8 671.18 1549.49 672.138 C 1550.75 676.819 1549.93 678.432 1550.87 682.472 C 1550.67 703.911 1556.01 738.373 1553.42 758.199 C 1551.12 754.449 1544.27 683.653 1543.18 673.622 z" fill="rgb(255,255,255)" transform="translate(0,0)"></path>
<path d="M 1613.98 1140.91 C 1620.28 1143.51 1621.55 1143.68 1628.23 1144.68 L 1629.03 1159.61 C 1623.24 1161.32 1621.8 1162.28 1616.68 1165.26 L 1607.33 1172.42 C 1609.36 1160.92 1611.01 1152.23 1613.98 1140.91 z" fill="rgb(255,255,255)" transform="translate(0,0)"></path>
<path d="M 1503.7 721.513 C 1503.96 721.606 1504.24 721.669 1504.5 721.792 C 1512.31 725.572 1539.45 791.372 1544.09 802.301 C 1538.68 798.798 1505.91 730.113 1503.7 721.513 z" fill="rgb(255,255,255)" transform="translate(0,0)"></path>
<path d="M 1633.45 1018.83 C 1634.96 1018.98 1634.19 1018.74 1635.71 1019.74 C 1612.65 1049 1612.44 1056.27 1603 1093.5 L 1601.57 1093.49 C 1602.2 1086.44 1605.94 1071.35 1607.99 1064.15 C 1613.15 1046 1615.87 1028.98 1633.45 1018.83 z" fill="rgb(255,255,255)" transform="translate(0,0)"></path>
<path d="M 1620.74 1192.91 C 1633.15 1192.48 1634.67 1200.05 1645.98 1203.25 C 1651.22 1204.73 1663.66 1204.52 1669.09 1207.02 C 1670 1207.45 1670.26 1210.51 1670.53 1211.87 C 1651.11 1210.08 1633.94 1207.49 1620.74 1192.91 z" fill="rgb(255,255,255)" transform="translate(0,0)"></path>
<path d="M 1661.88 1142.4 L 1661.88 1143.19 C 1657.57 1150.12 1643.95 1155.02 1636.51 1157.54 C 1635.56 1153.78 1634.47 1151.34 1635.55 1147.67 C 1639.25 1143.56 1653.9 1143.75 1661.88 1142.4 z" fill="rgb(255,255,255)" transform="translate(0,0)"></path>
<path d="M 1569.76 895.577 C 1572.55 898.325 1574.47 911.633 1575.33 916.387 C 1578.95 936.511 1592.27 967.121 1594.9 986.187 C 1587.81 970.946 1570.52 912.013 1569.76 895.577 z" fill="rgb(147,149,171)" transform="translate(0,0)"></path>
<path d="M 1654.88 1029.06 C 1663.3 1024.98 1669.01 1022.74 1678.19 1020.35 C 1659.41 1029.76 1647.83 1040.44 1641.04 1061.16 C 1640.81 1061.86 1640.59 1062.57 1640.38 1063.29 L 1638.93 1061.98 C 1643.11 1050.58 1647.36 1038.79 1654.88 1029.06 z" fill="rgb(255,255,255)" transform="translate(0,0)"></path>
<path d="M 1779.48 1582.06 L 1780.06 1582.22 L 1780.58 1583.21 C 1776.01 1586.99 1765.49 1588.91 1759.87 1591.68 C 1748.4 1597.32 1740.75 1603.11 1727.91 1605.77 L 1727.23 1605.67 L 1726.98 1604.89 C 1745.76 1594.91 1759.05 1588.52 1779.48 1582.06 z" fill="rgb(255,255,255)" transform="translate(0,0)"></path>
<path d="M 1546.06 780.542 C 1547.65 784.308 1547.81 785.04 1550.35 788.132 C 1551.29 792.909 1552.21 797.692 1553.1 802.48 C 1551.62 800.451 1551.81 800.625 1549.99 798.85 L 1548.86 800.542 L 1546.79 799.912 C 1547.02 796.685 1544.58 790.241 1543.5 786.841 C 1545.01 784.126 1544.63 784.422 1545.09 781.178 L 1546.06 780.542 z" fill="rgb(50,70,102)" transform="translate(0,0)"></path>
<path d="M 1535.05 773.472 L 1538.77 771.884 C 1540.43 776.844 1542 781.83 1543.5 786.841 C 1544.58 790.241 1547.02 796.685 1546.79 799.912 L 1546.38 799.185 L 1545.73 797.966 C 1541.48 790.253 1538.35 781.681 1535.05 773.472 z" fill="rgb(255,255,255)" transform="translate(0,0)"></path>
<path d="M 1522.02 648.454 C 1525.08 649.848 1526.36 650.38 1529.2 652.321 C 1529.57 655.382 1528.97 654.985 1526.79 658.326 C 1522.84 659.788 1524.46 660.075 1521.5 658.86 C 1520.35 655.689 1521.43 651.925 1522.02 648.454 z" fill="rgb(255,255,255)" transform="translate(0,0)"></path>
<path d="M 1575.93 873.18 C 1574.96 878.43 1567.89 882.7 1562.81 883.264 L 1561.4 880.617 C 1564.06 875.891 1570.6 874.799 1575.93 873.18 z" fill="rgb(255,255,255)" transform="translate(0,0)"></path>
<path d="M 1598.15 1127.66 C 1601.3 1133.02 1606.57 1137.1 1603.43 1142.54 C 1600.84 1140.58 1599.21 1139.25 1596.79 1137.08 C 1595.63 1132.69 1596.52 1132.86 1598.15 1127.66 z" fill="rgb(255,255,255)" transform="translate(0,0)"></path>
<path d="M 1580.97 1166.66 C 1582.95 1161.52 1588.18 1146.86 1590.91 1143.41 L 1591.72 1143.43 C 1591.15 1148 1584.52 1163.67 1582.35 1168.44 L 1580.97 1166.66 z" fill="rgb(184,188,200)" transform="translate(0,0)"></path>
<path d="M 1612.93 1197.41 C 1616.23 1192.32 1618.75 1188.76 1622.47 1183.97 L 1624.17 1184.67 C 1622.17 1187.57 1614.84 1197.16 1613.87 1199.61 L 1612.93 1197.41 z" fill="rgb(184,188,200)" transform="translate(0,0)"></path>
<path d="M 1544.12 652.482 L 1545.72 653.852 C 1546.69 657.602 1545.92 662.184 1545.56 666.145 L 1544.74 665.319 C 1543.48 660.879 1543.96 657.12 1544.12 652.482 z" fill="rgb(50,70,102)" transform="translate(0,0)"></path>
<path d="M 793.913 794.204 C 796.982 795.153 799.104 796.125 800.51 799.205 C 827.817 859.028 849.731 921.306 875.829 981.707 C 886.207 1005.72 890.671 1023 916.804 1033.67 C 919.234 1032.9 921.718 1032.15 924.078 1031.18 C 928.674 1029.28 931.356 1025.84 933.135 1021.3 C 935.934 1014.15 935.922 1004.67 936.302 997.059 C 937.291 977.238 938.95 823.974 932.883 813.52 C 928.399 805.793 916.909 803.01 909.13 800.132 L 996.225 799.978 C 1022.09 800.003 1042.99 801.613 1062.57 820.844 C 1073.15 831.229 1078.52 846.765 1077.99 861.564 C 1076.97 889.74 1057.55 909.919 1038.45 928.015 C 1075.36 978.771 1125.66 1056.38 1191.75 1071.71 C 1195.91 1072.68 1210.25 1070.88 1212.67 1073.18 C 1209.42 1086.74 1161.36 1085.64 1149.98 1084.41 C 1087.14 1066.94 1040.79 991.075 1006.81 939.066 C 994.908 939.15 984.5 937.56 972.742 936.066 C 972.707 957.012 969.658 1002.45 978.116 1019.9 C 984.501 1033.07 1000.36 1032.81 1012.73 1036.13 C 1000.38 1037.41 976.894 1036.07 963.054 1036.16 C 921.223 1036.43 879.558 1034.7 837.672 1035.29 C 840.707 1032.82 848.532 1026.92 848.558 1023.65 C 848.671 1009.55 827.735 963.254 822.248 953.108 L 753.102 952.94 C 746.038 971.873 739.919 994.443 733.123 1013.78 C 728.322 1027.45 747.675 1031.94 749.346 1034.9 C 744.895 1036.75 682.801 1036.11 674.009 1036.15 C 706.766 1026.16 706.861 1014.41 719.046 984.746 C 725.959 967.913 732.235 950.424 738.871 933.477 C 751.025 903.314 762.876 873.031 774.421 842.63 C 778.543 831.509 787.965 801.488 793.913 794.204 z" fill="rgb(31,49,83)" transform="translate(0,0)"></path>
<path d="M 987.4 814.469 C 991.57 814.497 998.11 814.447 1002.06 815.226 C 1034.77 821.674 1046.04 861.79 1040.48 890.603 C 1037.96 903.659 1032.05 911.129 1021.51 918.209 C 1006.47 925.135 987.511 925.14 972.247 918.683 C 970.109 889.188 971.29 845.614 971.317 814.935 C 976.599 814.896 982.101 814.637 987.4 814.469 z" fill="rgb(255,255,255)" transform="translate(0,0)"></path>
<path d="M 786.65 858.585 C 790.194 861.452 813.925 926.735 817.364 935.974 L 790.22 935.983 L 759.694 936.033 C 768.396 910.12 777.382 884.302 786.65 858.585 z" fill="rgb(255,255,255)" transform="translate(0,0)"></path>
<path d="M 1421.44 798.445 C 1428.52 797.796 1484.83 798.475 1490.4 800.865 L 1490.68 802.336 C 1480.77 810.633 1469.04 809.441 1458.89 826.996 C 1437.97 863.175 1417.07 897.97 1400.21 936.685 C 1395.96 946.439 1396.63 1011.61 1401.93 1023.72 C 1407.76 1031.63 1421.21 1033.85 1431.3 1036.67 C 1400.35 1036.65 1369.4 1036.4 1338.45 1035.93 C 1368.94 1024.44 1362.49 1011.84 1363.36 982.477 C 1363.14 975.271 1363.79 948.495 1361.89 943.204 C 1355.65 925.902 1296.9 815.673 1284.87 812.464 C 1281.3 818.828 1286.24 839.265 1283.6 849.111 C 1280.07 847.577 1275.35 828.84 1269.82 824.733 C 1259.38 816.976 1224.05 819.065 1210.52 818.996 L 1209.97 922.678 C 1209.91 946.527 1209.44 973.941 1210.75 997.555 C 1211.37 1022.44 1215.93 1029.96 1239.85 1036.88 C 1210.36 1036.86 1176.18 1037.5 1147.06 1035.74 C 1164.15 1029.01 1172.08 1027.52 1173.78 1007 C 1175.61 984.875 1174.85 962.374 1174.83 940.148 L 1174.68 819.028 C 1163.09 819.042 1150.83 818.833 1139.26 818.767 C 1114.12 818.624 1106.16 826.162 1099.64 849.279 C 1097.94 830.527 1100.2 817.459 1103.27 798.712 C 1126.82 802.181 1162.97 800.825 1187.51 801.045 C 1242.83 801.542 1298.86 799.822 1354.2 800.973 C 1351.2 802.31 1348.22 803.699 1345.27 805.138 C 1338.24 808.651 1330.86 814.172 1334.55 822.896 C 1339.87 835.463 1346.55 847.397 1352.92 859.464 C 1363.47 879.312 1373.78 899.285 1383.85 919.38 C 1396.91 897.809 1410.44 872.656 1422.3 850.088 C 1426.74 839.086 1436.82 824.128 1436.67 812.257 C 1436.59 806.403 1423.34 803.907 1421.44 798.445 z" fill="rgb(31,49,83)" transform="translate(0,0)"></path>
<path d="M 555.31 798.315 C 561.83 797.895 571.185 798.394 578.029 798.793 C 616.64 801.046 666.101 789.826 699.353 813.9 C 729.321 835.596 726.94 881.551 704.179 907.184 C 684.931 928.86 649.221 940.106 624.387 920.947 C 660.477 928.278 682.651 914.636 684.652 874.884 C 685.491 858.23 680.276 839.413 668.602 827.202 C 656.226 814.256 639.399 815.086 622.75 815.145 C 621.671 815.264 620.122 815.711 619.017 815.981 C 614.112 825.78 620.451 977.275 618.225 999.306 C 615.8 1023.29 633.419 1029.67 652.985 1036.03 C 622.85 1037.32 586.197 1035.4 554.727 1035.77 C 556.6 1035 558.461 1034.21 560.311 1033.39 C 567.272 1030.29 573.747 1025.86 576.269 1018.27 C 578.21 1012.42 578.624 1005.23 578.919 999.103 C 579.936 977.958 581.381 825.7 578.306 817.095 C 573.95 804.909 558.424 804.575 555.31 798.315 z" fill="rgb(31,49,83)" transform="translate(0,0)"></path>
<path d="M 699.082 1171.35 L 705.675 1165.78 C 745.849 1132.34 779.355 1175.58 771.71 1216.81 C 764.288 1256.84 734.982 1268.62 698.803 1263.86 L 699.026 1283.25 C 699.631 1295.78 707.304 1294.01 715.428 1300.9 L 714.311 1301.93 C 707.492 1302.87 668.205 1303.07 661.983 1302.21 L 661.641 1300.58 C 664.144 1295.5 672.462 1295.82 675.122 1290.3 C 678.111 1284.08 677.642 1187.1 675.069 1177.42 C 673.975 1173.31 672.661 1171.52 668.901 1169.43 C 667.503 1168.66 666.106 1167.97 664.796 1167.05 C 662.852 1165.68 662.765 1165.93 662.306 1163.44 C 668.887 1160.95 689.682 1156.53 698.205 1154.22 C 699.828 1157.06 699.114 1167.25 699.082 1171.35 z" fill="rgb(31,49,83)" transform="translate(0,0)"></path>
<path d="M 714.553 1171.11 C 754.205 1168.18 758.125 1233.64 730.676 1251.46 C 723.469 1254.44 701.476 1257.82 699.377 1246.2 C 698.377 1240.67 699.011 1229.38 699.031 1223.41 L 698.959 1180.38 C 705.396 1175.47 707.41 1174.47 714.553 1171.11 z" fill="rgb(255,255,255)" transform="translate(0,0)"></path>
<path d="M 596.353 1111.33 C 612.729 1109.37 626.161 1112.95 641.557 1117.74 C 641.219 1126.57 641.721 1138.25 640.431 1146.41 C 634.7 1147.67 624.629 1125.5 611.493 1124.08 C 602.5 1123.11 592.4 1122.05 583.763 1128.63 C 579.631 1131.77 577.052 1136.53 576.688 1141.7 C 574.675 1166.77 653.686 1179.7 648.124 1229.7 C 647.002 1240.51 641.608 1250.42 633.14 1257.24 C 618.25 1269.05 600.446 1268.78 582.76 1266.77 C 570.453 1265.85 552.977 1260.84 550.395 1246.74 C 549.348 1241.02 543.299 1219.98 551.853 1218.96 C 556.328 1220.66 559.241 1227.33 561.222 1231.34 C 568.475 1246.02 580.201 1257.29 597.651 1255.31 C 604.999 1254.48 616.288 1251.21 620.412 1244.31 C 637.024 1216.29 592.484 1197.84 574.587 1184.37 C 555.435 1169.95 547.737 1148.07 562.743 1126.84 C 569.967 1116.62 584.254 1112.9 596.353 1111.33 z" fill="rgb(31,49,83)" transform="translate(0,0)"></path>
<path d="M 1113.7 1155.21 C 1170.5 1149.64 1146.96 1211.94 1153.18 1246.22 C 1154.08 1251.22 1163.24 1252.36 1166.75 1254.33 C 1164.21 1260.92 1159.44 1264.87 1152.53 1266.04 C 1136.16 1268.83 1131.61 1260.1 1128.48 1247.1 C 1114.28 1262.11 1100.74 1271.15 1079.92 1263.05 C 1078.59 1262.09 1077.28 1261.1 1076.01 1260.07 C 1069.84 1254.98 1066.79 1248.15 1066.25 1241.04 C 1062.44 1201.03 1107.52 1212.66 1127.36 1195.59 C 1132.7 1191.01 1126 1175.16 1119.64 1172.8 C 1104.22 1167.08 1090.13 1180.19 1077.84 1184.63 L 1076.83 1183.21 C 1074.33 1169.83 1103.65 1158.38 1113.7 1155.21 z" fill="rgb(31,49,83)" transform="translate(0,0)"></path>
<path d="M 1128.72 1206.07 C 1130.89 1209.04 1129.46 1231.41 1129.15 1236.34 C 1119.56 1247.34 1109.65 1252.89 1096.38 1244.97 C 1074.82 1221.3 1112.57 1212.6 1128.72 1206.07 z" fill="rgb(255,255,255)" transform="translate(0,0)"></path>
<path d="M 834.262 1155.13 C 884.84 1151.32 894.154 1203.73 842.757 1207.72 C 831.326 1208.61 825.044 1209.61 813.364 1207.66 C 816.016 1244.18 839.531 1258.06 872.648 1243.67 L 874.067 1243.55 L 874.89 1244.99 C 874.202 1256.14 861.082 1262.83 851.697 1264.92 C 801.237 1276.2 778.513 1225.05 796.07 1184.85 C 803.569 1167.67 817.023 1159.19 834.262 1155.13 z" fill="rgb(31,49,83)" transform="translate(0,0)"></path>
<path d="M 827.847 1168.07 C 841.18 1167.36 857.839 1174.07 852.461 1192.66 C 851.455 1196.14 843.578 1196.53 840.16 1196.83 C 831.316 1197.88 822.445 1198.7 813.557 1199.27 C 814.989 1186.45 816.089 1175.51 827.847 1168.07 z" fill="rgb(255,255,255)" transform="translate(0,0)"></path>
<path d="M 700.382 617.862 L 702.116 618.877 C 703.312 623.986 701.048 674.897 700.957 683.503 C 710.217 674.2 718.196 667.441 731.996 665.13 C 775.38 657.864 755.506 724.955 760.752 749.158 C 762.387 756.701 765.76 756.09 771.522 760.451 L 771.405 762.514 C 766.363 763.567 735.701 763.24 729.961 762.694 L 729.228 761.492 C 732.04 757.103 740.528 755.545 740.876 750.409 C 741.892 735.414 746.007 699.047 738.33 686.923 C 726.621 678.303 709.588 682.679 700.863 693.778 C 700.963 711.473 700.329 732.04 701.474 749.795 C 701.837 755.434 710.497 758.417 715.468 761.363 L 715.093 762.777 C 708.921 763.674 671.987 764.622 668.212 761.212 C 670.715 757.488 675.519 756.703 680.1 755.206 C 683.78 738.184 681.916 659.764 680.945 639.032 C 680.824 636.44 672.416 634.553 668.348 632.855 L 667.739 631.315 C 671.009 629.239 694.648 620.37 700.382 617.862 z" fill="rgb(31,49,83)" transform="translate(0,0)"></path>
<path d="M 825.832 665.174 C 854.814 662.275 868.838 678.415 865.733 706.724 C 845.729 709.204 826.708 710.609 806.302 713.379 C 807.071 717.074 808.001 720.734 809.089 724.349 C 817.5 751.577 840.5 751.978 863.218 744.025 L 864.982 743.494 L 866.637 744.692 C 867.416 747.597 867.235 747.51 866.677 750.525 C 863.435 755.372 857.558 758.076 852.261 760.084 C 782.509 786.529 759.498 683.722 825.832 665.174 z" fill="rgb(31,49,83)" transform="translate(0,0)"></path>
<path d="M 823.058 679.015 C 831.357 678.394 849.481 682.345 842.728 695.231 C 840.261 699.94 829.399 700.896 824.244 701.667 L 806.928 704.296 C 809.16 691.156 811.148 685.434 823.058 679.015 z" fill="rgb(255,255,255)" transform="translate(0,0)"></path>
<path d="M 542.392 629.703 C 565.858 635.603 635.356 632.989 660.591 629.443 C 659.916 633.765 655.929 658.541 652.569 659.938 C 649.387 657.276 647.463 649.393 643.48 643.974 C 638.142 641.125 615.404 642.632 608.216 642.813 C 607.392 667.489 608.353 692.747 607.947 717.485 C 607.781 727.621 607.805 738.59 608.579 748.63 C 614.17 758.475 623.975 757.425 626.031 761.987 C 621.217 763.314 579.877 763.4 573.515 762.878 L 572.376 761.488 L 573.159 759.622 C 581.834 757.012 586.178 755.321 587.034 745.405 C 587.992 734.315 587.526 723.108 587.519 711.975 L 587.303 643.097 C 555.832 642.719 559.34 636.241 537.695 661.365 C 538.027 651.459 540.583 639.619 542.392 629.703 z" fill="rgb(31,49,83)" transform="translate(0,0)"></path>
<path d="M 1344.81 1156.27 C 1353.29 1155.6 1366.73 1157.54 1376.1 1158.1 C 1375.84 1167.53 1376.03 1176.16 1376.27 1185.56 C 1370.03 1178.06 1361.61 1168.56 1351.66 1168.86 C 1322.33 1169.75 1337.06 1194.37 1354.91 1200.55 C 1368.93 1207.42 1383.74 1217.39 1384.14 1234.22 C 1384.88 1265.07 1363.23 1268.1 1337.72 1266.91 C 1326.24 1264.96 1320.06 1262.69 1310.18 1256.94 C 1312.5 1248.31 1313.91 1242.29 1315.43 1233.51 C 1320.28 1248.55 1330.02 1255.89 1346.12 1255.59 C 1355.2 1255.42 1366.11 1245.15 1362.27 1236.86 C 1353.34 1217.57 1318.71 1218.45 1315.23 1192.21 C 1312.34 1171.61 1325.61 1159.54 1344.81 1156.27 z" fill="rgb(31,49,83)" transform="translate(0,0)"></path>
<path d="M 1435.02 1131.31 C 1437.1 1131.02 1436.01 1130.92 1438.27 1131.84 C 1439.57 1137.16 1438.9 1152.75 1438.84 1158.84 L 1470.21 1159 L 1467.19 1173.43 C 1457.82 1173.81 1448.46 1173.68 1439.08 1173.63 C 1439 1189.91 1438.93 1207.25 1438.91 1223.43 C 1438.87 1266.52 1455.26 1246.17 1471.67 1250.49 L 1472.14 1252.4 C 1470.76 1256.05 1468.61 1257.99 1466.03 1260.92 C 1449.31 1271.61 1420.97 1272.33 1418.16 1247.45 C 1415.56 1224.34 1417.14 1196.91 1417.25 1173.27 L 1399.11 1173.11 C 1407.44 1160.2 1420.49 1149.12 1426.79 1134 C 1427.7 1131.83 1432.69 1131.7 1435.02 1131.31 z" fill="rgb(31,49,83)" transform="translate(0,0)"></path>
<path d="M 1212.65 1107.14 L 1214.49 1107.31 C 1215.47 1110.38 1214.98 1127.79 1214.98 1131.93 L 1215.04 1206.71 C 1215.05 1220.66 1214.4 1234.91 1216.32 1248.73 C 1217.67 1258.45 1229.08 1256.88 1230.38 1263.87 C 1226.71 1266.39 1186.25 1265.25 1178.26 1265.15 C 1177.95 1263.15 1177.98 1263.95 1178.64 1261.88 C 1183.08 1259.16 1192.6 1253.9 1192.89 1248.03 C 1193.52 1235.29 1193.51 1222.19 1193.44 1209.41 C 1193.3 1181.69 1194.14 1153.7 1192.97 1126.02 C 1187.72 1124.23 1177.73 1122.88 1175.88 1117.3 C 1178.82 1113.64 1205.32 1109.21 1212.65 1107.14 z" fill="rgb(31,49,83)" transform="translate(0,0)"></path>
<path d="M 954.52 1155.4 C 964.623 1155.81 969.47 1157.18 978.972 1160.1 C 979.043 1169.45 978.867 1178.8 978.443 1188.15 C 973.884 1180.75 968.166 1171.81 959.108 1169.75 C 939.871 1165.38 925.89 1175.82 921.833 1194.67 C 913.456 1233.62 943.555 1267.96 981.507 1240.51 C 982.856 1243.96 984.411 1247.19 981.278 1250.53 C 947.923 1286.15 898.068 1258.31 897.039 1213.39 C 896.24 1178.52 922.754 1159.11 954.52 1155.4 z" fill="rgb(31,49,83)" transform="translate(0,0)"></path>
<path d="M 1035.84 1155.36 C 1040.09 1159.07 1030.14 1246.06 1041.98 1255.68 C 1045.7 1258.7 1051.91 1261.78 1056.13 1264.44 C 1044.73 1266 1014.27 1265.1 1001.96 1265.03 C 1000.76 1264.65 1001.43 1264.99 1000.25 1263.56 C 1001.53 1260.35 1013.45 1252.99 1013.73 1249.86 C 1015.62 1228.83 1014.9 1197.69 1014.13 1176.54 C 1013.99 1172.67 1002.23 1165.63 1000.38 1161.66 C 1004.73 1160.33 1029.31 1156.62 1035.84 1155.36 z" fill="rgb(31,49,83)" transform="translate(0,0)"></path>
<path d="M 1277.3 1154.1 L 1278.53 1153.97 C 1283.52 1157.82 1276.82 1238.58 1282.45 1249.69 C 1285.62 1255.95 1292.49 1259.07 1294.63 1263.71 C 1288.48 1266.62 1258.97 1265.35 1249.75 1265.31 L 1245.97 1264.84 L 1244.82 1263.31 C 1247.18 1258.14 1257.47 1256.07 1258.09 1248.87 C 1259.97 1227.2 1259.61 1195.16 1258.22 1173.43 C 1258.04 1170.58 1247.48 1167.92 1244.82 1163.74 L 1245.37 1161.63 C 1250.32 1159.79 1269.91 1156.14 1277.3 1154.1 z" fill="rgb(31,49,83)" transform="translate(0,0)"></path>
<path d="M 1020.72 1103.78 C 1028.31 1101.66 1036.18 1106.09 1038.31 1113.67 C 1040.44 1121.25 1036.02 1129.13 1028.44 1131.27 C 1020.84 1133.41 1012.95 1128.99 1010.82 1121.39 C 1008.68 1113.79 1013.12 1105.9 1020.72 1103.78 z" fill="rgb(31,49,83)" transform="translate(0,0)"></path>
<path d="M 1265.09 1103 C 1284.58 1103.26 1286.73 1121.89 1270.78 1132.4 C 1251.82 1132.57 1248.61 1111.56 1265.09 1103 z" fill="rgb(31,49,83)" transform="translate(0,0)"></path>
<metadata><recraft-signature>{"signed_by": "recraft", "signature_b64": "3O8tW0Bg4cJcQpN9FE0iRPme0ZUhKfj9t2REzYQOHDeE/AhqaeMJlKQZMdGYJOuU+pF89dTjIf7VF2ZPU8t3Dw==", "signing_algo": "Ed25519", "generation_timestamp": 1772546174, "identifier": "34b203fe-9efb-42fe-bdf4-182c0e5c0809"}</recraft-signature></metadata></svg>