<svg xmlns="http://www.w3.org/2000/svg" height="1024" preserveAspectRatio="none" style="display: block;" version="1.1" viewBox="0 0 2048 2048" width="1024">
<defs>
	<linearGradient gradientUnits="userSpaceOnUse" id="Gradient1" x1="633.71" x2="648.942" y1="818.599" y2="790.186">
		<stop class="stop0" offset="0" stop-color="rgb(163,20,36)" stop-opacity="1"></stop>
		<stop class="stop1" offset="1" stop-color="rgb(127,14,44)" stop-opacity="1"></stop>
	</linearGradient>
</defs>
<path d="M 0 0 L 2048 0 L 2048 2048 L 0 2048 L 0 0 z" fill="rgb(255,255,255)" transform="translate(0,0)"></path>
<path d="M 909.368 457.048 C 930.016 409.026 983.181 393.962 1030.89 410.25 C 1037.88 412.635 1044.1 415.659 1050.04 420.092 L 1051.76 421.305 C 1090.35 403.399 1137.83 412.708 1147.82 458.908 C 1148.8 467.911 1148.1 467.432 1156.31 466.371 C 1253.34 453.501 1245.77 597.868 1157.52 606.231 C 1152.79 606.654 1148.02 606.688 1143.28 606.334 C 1144.01 632.28 1143.89 658.243 1142.91 684.181 L 1143.35 690.865 C 1142.77 694.237 1143.21 695.282 1140.11 697.529 C 1132.58 702.979 1120.57 703.365 1111.57 703.496 C 1078.82 703.973 1048.22 696.153 1015.24 696.71 C 999.309 696.98 986.033 697.54 969.712 698.967 C 951.615 700.55 930.741 703.085 912.613 700.643 C 909.345 700.202 904.263 696.566 902.275 693.687 L 901.285 691.813 C 900.74 683.979 900.799 661.181 901.895 653.608 C 902.14 640.362 902.158 613.917 904.281 601.951 C 863.459 601.843 819.357 583.546 818.527 536.512 C 818.038 516.716 825.518 497.552 839.288 483.321 C 858.481 463.685 882.734 457.188 909.368 457.048 z" fill="rgb(252,178,39)" transform="translate(0,0)"></path>
<path d="M 914.688 605.907 C 989.496 578.588 1061.93 576.26 1137 604.238 C 1137.14 623.882 1139.8 643.762 1140.93 663.387 C 1141.33 670.339 1141.69 677.323 1142.91 684.181 L 1143.35 690.865 C 1142.77 694.237 1143.21 695.282 1140.11 697.529 C 1132.58 702.979 1120.57 703.365 1111.57 703.496 C 1078.82 703.973 1048.22 696.153 1015.24 696.71 C 999.309 696.98 986.033 697.54 969.712 698.967 C 951.615 700.55 930.741 703.085 912.613 700.643 C 909.345 700.202 904.263 696.566 902.275 693.687 C 903.729 691.64 905.291 689.534 906.341 687.248 C 906.406 684.924 906.517 682.822 906.91 680.5 C 909.695 663.964 909.623 647.135 911.889 630.498 C 912.465 626.269 912.569 622.252 912.243 617.985 C 912.991 613.691 913.605 610.149 914.688 605.907 z" fill="rgb(252,178,39)" transform="translate(0,0)"></path>
<path d="M 906.341 687.248 C 948.266 651.698 1106.92 649.05 1143.35 690.865 C 1142.77 694.237 1143.21 695.282 1140.11 697.529 C 1132.58 702.979 1120.57 703.365 1111.57 703.496 C 1078.82 703.973 1048.22 696.153 1015.24 696.71 C 999.309 696.98 986.033 697.54 969.712 698.967 C 951.615 700.55 930.741 703.085 912.613 700.643 C 909.345 700.202 904.263 696.566 902.275 693.687 C 903.729 691.64 905.291 689.534 906.341 687.248 z" fill="rgb(123,6,36)" transform="translate(0,0)"></path>
<path d="M 909.368 457.048 C 930.016 409.026 983.181 393.962 1030.89 410.25 C 1037.88 412.635 1044.1 415.659 1050.04 420.092 L 1046.21 419.603 C 1037.2 420.476 1027.7 417.884 1018.46 418.054 C 979.926 418.759 944.213 437.194 926.777 472.451 C 924.125 477.813 920.744 495.7 917.952 498.917 L 916.534 499.119 C 909.605 490.324 907.714 472.716 908.139 461.783 C 881.136 467.149 839.291 490.747 835.339 520.859 C 837.501 525.679 837.598 534.281 839.874 540.527 C 847.981 562.77 864.845 576.171 884.606 587.738 C 892.308 592.246 899.467 592.211 906.215 595.392 C 910.117 591.757 916.048 589.004 920.85 586.491 C 903.624 577.281 895.539 571.959 889.35 552.528 L 891.669 547.708 C 898.622 567.724 909.183 575.434 927.604 583.854 C 936.019 580.658 943.913 578.474 952.536 575.999 C 944.61 565.642 938.693 557.722 935.651 544.706 C 933.954 537.447 932.364 520.655 936.185 514.529 C 937.345 516.389 937.112 521.698 937.485 524.47 C 939.937 542.688 944.574 560.842 958.398 573.704 L 959.48 574.693 C 968.845 572.949 978.253 571.451 987.696 570.2 C 976.432 543.011 982.298 524.547 1003.55 505.363 C 991.399 530.921 988.173 541.716 999.275 569.165 C 1012.07 568.524 1024.88 568.274 1037.69 568.415 C 1045.24 538.426 1055.22 527.182 1083.97 516.071 C 1063.48 532.565 1053.71 543.442 1045.08 568.451 C 1058.48 568.841 1070.31 569.171 1083.58 571.162 C 1095.03 550.461 1117.41 529.896 1139.79 521.621 C 1124.89 541.534 1116.27 547.908 1102.95 572.001 L 1114.91 575.338 C 1117.25 574.808 1119.57 574.228 1121.88 573.597 C 1144.3 567.446 1162.13 556.627 1173.76 536.107 C 1178.13 539.599 1175.05 538.415 1176 542.95 C 1167.42 567.776 1143.03 580.661 1141.31 588.252 C 1145.74 597.814 1162.58 589.684 1169.25 586.631 C 1230.27 558.702 1234.97 467.11 1152.34 469.112 L 1156.31 466.371 C 1253.34 453.501 1245.77 597.868 1157.52 606.231 C 1152.79 606.654 1148.02 606.688 1143.28 606.334 C 1144.01 632.28 1143.89 658.243 1142.91 684.181 C 1141.69 677.323 1141.33 670.339 1140.93 663.387 C 1139.8 643.762 1137.14 623.882 1137 604.238 C 1061.93 576.26 989.496 578.588 914.688 605.907 C 913.605 610.149 912.991 613.691 912.243 617.985 C 912.569 622.252 912.465 626.269 911.889 630.498 C 909.623 647.135 909.695 663.964 906.91 680.5 C 906.517 682.822 906.406 684.924 906.341 687.248 C 905.291 689.534 903.729 691.64 902.275 693.687 L 901.285 691.813 C 900.74 683.979 900.799 661.181 901.895 653.608 C 902.14 640.362 902.158 613.917 904.281 601.951 C 863.459 601.843 819.357 583.546 818.527 536.512 C 818.038 516.716 825.518 497.552 839.288 483.321 C 858.481 463.685 882.734 457.188 909.368 457.048 z" fill="rgb(123,6,36)" transform="translate(0,0)"></path>
<path d="M 917.952 498.917 C 915.496 489.939 917.753 473.979 921.439 465.5 C 942.724 416.546 999.211 401.345 1046.21 419.603 C 1037.2 420.476 1027.7 417.884 1018.46 418.054 C 979.926 418.759 944.213 437.194 926.777 472.451 C 924.125 477.813 920.744 495.7 917.952 498.917 z" fill="rgb(255,255,255)" transform="translate(0,0)"></path>
<path d="M 835.339 520.859 C 837.501 525.679 837.598 534.281 839.874 540.527 C 847.981 562.77 864.845 576.171 884.606 587.738 C 892.308 592.246 899.467 592.211 906.215 595.392 C 902.689 598.51 895.422 596.257 890.985 595.328 C 857.205 588.253 824.652 558.028 835.339 520.859 z" fill="rgb(255,255,255)" transform="translate(0,0)"></path>
<path d="M 912.243 617.985 C 912.569 622.252 912.465 626.269 911.889 630.498 C 909.623 647.135 909.695 663.964 906.91 680.5 C 906.517 682.822 906.406 684.924 906.341 687.248 C 905.291 689.534 903.729 691.64 902.275 693.687 L 901.285 691.813 C 903.362 687.493 903.384 683.601 903.651 678.784 C 904.382 670.538 906.09 656.304 907.296 648.006 L 909.937 629.992 C 910.544 626.058 911.28 621.832 912.243 617.985 z" fill="rgb(251,250,239)" transform="translate(0,0)"></path>
<path d="M 901.285 691.813 C 900.74 683.979 900.799 661.181 901.895 653.608 C 902.534 660.887 901.062 674.105 903.651 678.784 C 903.384 683.601 903.362 687.493 901.285 691.813 z" fill="rgb(162,73,82)" transform="translate(0,0)"></path>
<path d="M 1051.76 421.305 C 1090.35 403.399 1137.83 412.708 1147.82 458.908 C 1145.96 460.172 1145.84 460.475 1143.55 460.352 L 1142.57 458.676 C 1139.23 457.516 1138.7 455.455 1136.26 452.185 C 1135.36 451.581 1135.38 451.62 1134.86 450.685 C 1116.99 434.763 1092.79 427.215 1068.99 430.807 C 1063.17 431.686 1059.7 432.932 1053.76 432.623 C 1046.34 435.014 1035.13 442.813 1028.24 447.329 C 1035.52 435.552 1040.58 429.415 1051.76 421.305 z" fill="rgb(123,6,36)" transform="translate(0,0)"></path>
<path d="M 1053.76 432.623 C 1086.55 419.049 1126.48 422.984 1142.57 458.676 C 1139.23 457.516 1138.7 455.455 1136.26 452.185 C 1135.36 451.581 1135.38 451.62 1134.86 450.685 C 1116.99 434.763 1092.79 427.215 1068.99 430.807 C 1063.17 431.686 1059.7 432.932 1053.76 432.623 z" fill="rgb(255,255,255)" transform="translate(0,0)"></path>
<path d="M 1134.86 450.685 C 1136.17 450.916 1135.99 450.927 1136.26 452.185 C 1135.36 451.581 1135.38 451.62 1134.86 450.685 z" fill="rgb(249,224,175)" transform="translate(0,0)"></path>
<path d="M 1173.76 536.107 C 1175.83 530.376 1178.17 524.745 1180.77 519.232 C 1181.05 518.597 1181.32 517.963 1181.59 517.328 C 1181.06 521.39 1180.48 525.445 1179.85 529.492 C 1178.9 534.187 1178.27 537.515 1176.4 541.965 L 1176 542.95 C 1175.05 538.415 1178.13 539.599 1173.76 536.107 z" fill="rgb(153,25,34)" transform="translate(0,0)"></path>
<path d="M 1147.82 458.908 C 1148.8 467.911 1148.1 467.432 1156.31 466.371 L 1152.34 469.112 C 1144.33 470.625 1145.56 468.999 1143.55 460.352 C 1145.84 460.475 1145.96 460.172 1147.82 458.908 z" fill="rgb(141,17,40)" transform="translate(0,0)"></path>
<path d="M 889.35 552.528 C 888.253 544.533 888.156 543.24 887.96 535.407 C 888.493 537.007 889.095 538.671 889.58 540.274 C 890.344 542.732 891.04 545.211 891.669 547.708 L 889.35 552.528 z" fill="rgb(153,25,34)" transform="translate(0,0)"></path>
<path d="M 1023.72 144.546 C 1026.93 146.111 1036.4 157.618 1039.92 161.289 C 1051.09 172.93 1072.41 197.584 1085.74 205.305 C 1105.4 216.69 1137.23 226.79 1159.06 234 C 1231.45 257.906 1302.55 286.311 1349.32 349.973 C 1385.23 350.704 1421.14 350.939 1457.06 350.676 C 1451.94 477.275 1550.34 541.891 1664.15 553.282 C 1675.47 554.414 1686.53 555.263 1697.89 555.977 C 1692.08 574.713 1683.5 593.712 1677.28 612.515 C 1661.72 659.58 1646.58 706.95 1640.65 756.369 C 1636.18 793.527 1641.06 829.232 1650.84 865.07 L 1616.62 864.713 C 1592.86 778.016 1609.83 717.901 1633.96 634.025 C 1638.48 618.336 1644.4 603.224 1648.74 587.4 C 1535.23 570.784 1435.38 507.234 1421.73 384.255 C 1393.17 384.21 1362.54 383.799 1334.16 384.954 C 1283.34 310.563 1211.34 289.849 1131.13 262.015 C 1084.31 245.768 1061.12 236.865 1026.75 199.427 L 1025.95 198.672 L 1024.2 198.741 C 1008.55 212.135 990.103 232.171 971.426 240.777 C 873.756 285.777 780.69 288.531 714.192 384.044 C 685.44 384.904 655.819 384.462 626.978 384.302 C 609.25 505.526 513.808 573.404 397.902 587.305 C 421.219 652.364 442.955 730.32 441.504 800.021 C 441.053 821.703 437.426 841.88 433.417 863.081 L 398.33 862.661 C 416.551 789.362 407.326 737.48 387.246 666.316 C 375.755 625.59 365.096 595.442 349.305 556.153 C 474.907 553.398 594.68 491.223 592.912 350.401 L 697.594 350.157 C 746.163 288.966 819.657 254.513 892.734 232.322 C 964.026 210.674 975.791 199.667 1023.72 144.546 z" fill="rgb(123,6,36)" transform="translate(0,0)"></path>
<path d="M 443.45 889.417 C 443.671 889.397 443.893 889.377 444.114 889.357 C 501.144 888.908 574.605 887.792 620.504 925.999 C 672.796 969.527 677.795 1049.05 630.007 1098.1 C 591.921 1137.2 553.664 1145.52 500.803 1148.09 C 500.721 1175.07 497.282 1251.69 504.656 1272.39 C 507.812 1281.25 514.201 1283.74 522.151 1287.42 C 513.058 1290.74 491.21 1294.34 481.069 1296.27 L 407.885 1310.1 C 423.131 1299.19 426.932 1293.04 428.878 1273.96 C 430.699 1256.11 430.187 1238.72 430.194 1220.82 L 430.306 1144.2 L 430.617 1061.53 C 430.691 1041.73 430.806 1020.6 429.294 1000.92 C 427.972 983.711 423.441 978.117 410.907 967.842 C 428.87 964.321 455.153 962.152 474.272 959.619 L 523.097 953.637 C 522.232 954.434 521.383 955.248 520.55 956.078 C 492.681 983.867 500.663 1088.84 500.843 1129.1 C 581.457 1106.84 606.558 993.344 539.781 941.163 C 491.284 903.267 403.572 914.01 367.234 963.756 C 360.941 972.371 355.45 986.035 357.402 997.054 C 363.65 1026.13 394.309 996.444 400.133 1025.9 C 401.261 1034.24 396.799 1045.62 390.929 1051.63 C 351.82 1091.68 296.697 1057.93 292.905 1008.42 C 291.075 984.269 298.95 960.388 314.784 942.064 C 346.2 906.028 397.522 892.567 443.45 889.417 z" fill="rgb(123,6,36)" transform="translate(0,0)"></path>
<path d="M 904.265 937.443 C 922.988 935.407 949.264 936.973 969.024 936.93 C 1030.07 936.796 1109.21 927.186 1135.74 997.956 C 1151.52 1040.04 1128.75 1089.6 1085.94 1103.86 C 1085.98 1103.99 1086.01 1104.11 1086.05 1104.24 L 1086.42 1105.67 C 1089.94 1119.13 1101.18 1142.04 1107.54 1155.83 C 1122.51 1186.64 1135.21 1221.65 1155.82 1249.26 C 1175.28 1275.32 1200.83 1291.22 1233.59 1282.3 C 1232.88 1283.93 1232.31 1285.24 1231.49 1286.81 C 1223.43 1302.21 1209.48 1313.67 1192.81 1318.58 C 1170.03 1325.3 1148.84 1321.27 1128.41 1310.2 C 1074.98 1276.93 1039.79 1170.71 1011.22 1113.08 L 990.807 1113.3 L 990.861 1171.27 C 990.893 1187 990.268 1204.15 993.339 1219.51 C 996.349 1234.56 1002.63 1238.25 1014.63 1245.96 C 977.167 1244.77 938.047 1248.3 900.436 1247.95 C 924.981 1234.64 925.553 1217.03 924.888 1190.14 C 922.948 1111.75 928.827 1031.42 921.263 953.612 C 920.523 945.999 908.032 941.931 904.265 937.443 z" fill="rgb(123,6,36)" transform="translate(0,0)"></path>
<path d="M 990.556 959.885 C 1011.94 959.438 1028.12 961.386 1045.4 975.452 C 1058.49 986.179 1066.69 1001.75 1068.12 1018.61 C 1070.08 1039.78 1063.1 1055.99 1049.72 1071.86 C 1049.1 1072.48 1048.46 1073.08 1047.82 1073.68 C 1029.56 1090.58 1014.07 1091.33 991.008 1090.52 C 991.204 1046.97 991.054 1003.43 990.556 959.885 z" fill="rgb(255,255,255)" transform="translate(0,0)"></path>
<path d="M 704.39 937.345 C 743.889 936.878 783.392 936.799 822.893 937.108 C 811.798 944.881 805.068 952.359 806.5 967.053 C 808.299 985.519 814.473 1003.8 819.382 1021.68 C 830.008 1060.02 841.143 1098.21 852.782 1136.26 C 860.65 1162.69 868.028 1193.15 878.323 1218.46 C 882.783 1229.43 894.341 1240.43 903.258 1247.91 C 864.079 1250.3 824.917 1252.96 785.775 1255.91 C 801.496 1245.43 808.613 1232.06 801.331 1212.5 C 795.963 1198.09 779.342 1190 765.786 1184.39 C 723.581 1171.28 673.214 1187.56 684.965 1244.29 C 687.003 1254.13 695.048 1259.28 703.476 1263.69 C 672.062 1269.96 630.58 1270.66 597.731 1276.59 C 603.323 1272.67 609.458 1268.83 614.19 1263.87 C 622.38 1255.28 627.774 1242.66 632.511 1231.91 C 647.882 1197.01 659.409 1159.46 672.02 1123.48 C 683.13 1091.79 720.443 995.254 719.423 966.151 C 718.836 949.363 714.044 948.471 703.378 938.919 L 704.39 937.345 z" fill="rgb(123,6,36)" transform="translate(0,0)"></path>
<path d="M 745.531 1018.79 C 747.508 1021.81 751.656 1039.68 752.956 1044.08 C 765.994 1088.2 779.315 1131.98 791.794 1176.28 C 785.325 1167.04 781.989 1163.15 773.852 1155.43 C 751.61 1138.6 735.425 1133.02 708.21 1128.66 C 721.029 1092.33 732.342 1054.42 745.531 1018.79 z" fill="rgb(255,255,255)" transform="translate(0,0)"></path>
<path d="M 1624.65 1471.58 L 1626.3 1473.34 C 1613.26 1502.95 1599.58 1530.12 1577.21 1554.18 C 1530.24 1604.7 1470.65 1628.32 1402.27 1629.08 C 1388.04 1653.68 1373.88 1675.36 1353.14 1695.35 C 1303.14 1743.52 1235.41 1763.84 1172.2 1788.51 C 1146.48 1798.55 1123.44 1806.63 1099.95 1821.86 C 1068.29 1842.8 1042.5 1871.49 1025.05 1905.2 C 1012.12 1885.01 999.599 1866.82 982.102 1850.01 C 904.707 1775.69 784.763 1774.74 704.423 1703.94 C 680.386 1682.76 662.26 1656.07 645.378 1629.13 C 541.75 1626.42 462.681 1572.87 423.745 1476.31 L 425.286 1473.86 C 439.68 1496.36 449.307 1510.24 469.113 1529.31 C 507.558 1566.94 557.384 1590.79 610.811 1597.12 C 630.798 1599.36 648.316 1598.81 668.34 1598.48 C 675.796 1614.33 685.369 1628.24 695.563 1642.32 C 757.802 1728.28 862.242 1736.23 948.136 1783.24 C 976.941 1798.87 1002.79 1819.42 1024.5 1843.96 C 1083.54 1775.8 1160.7 1758.39 1240.45 1725.06 C 1306.14 1697.61 1346.86 1662.81 1380.28 1598.89 C 1410.85 1598.73 1436.77 1599.04 1466.92 1591.76 C 1538.83 1574.41 1586.51 1532.92 1624.65 1471.58 z" fill="rgb(123,6,36)" transform="translate(0,0)"></path>
<path d="M 1546.81 1098.85 C 1555.57 1080.96 1561.24 1062.3 1569.52 1043.59 C 1593.73 988.843 1626.26 918.473 1685.83 895.599 C 1712.02 885.545 1747.99 890.403 1755.9 920.742 C 1760.48 938.329 1755.24 959.533 1736.08 966.343 C 1729.75 968.417 1721.11 964.969 1715.98 961.517 C 1703.14 953.231 1695.32 942.582 1678.29 946.176 C 1657.5 950.564 1637.07 974.216 1626.81 991.646 C 1605.02 1028.88 1588.82 1069.03 1574.68 1109.71 C 1570.84 1120.77 1565.77 1133.32 1563.64 1144.94 C 1562.86 1149.14 1562.85 1154.5 1562.85 1158.76 C 1562.85 1176.92 1562.65 1195.07 1562.77 1213.24 C 1562.89 1231.91 1561.92 1251.12 1566.24 1269.41 C 1568.79 1280.44 1575.36 1285.82 1583.53 1292.68 C 1554.41 1289.14 1525.05 1282.5 1496.05 1277.89 C 1490.1 1276.94 1483.93 1275.76 1478.08 1274.39 C 1492.71 1266.43 1495.83 1261.19 1496.78 1244.17 C 1498.07 1221.32 1496.23 1196.47 1497.05 1173.82 C 1497.91 1149.69 1491.11 1137.54 1482.54 1116.36 L 1456.73 1053.37 C 1445.11 1025.1 1434.53 996.228 1421.9 968.422 C 1415.85 955.089 1409.57 946.858 1396.75 939.473 C 1395.84 939.315 1392.77 939.064 1392.65 937.467 C 1392.64 937.366 1392.75 937.061 1392.88 936.985 C 1395.53 935.372 1408.18 936.6 1410.3 936.78 C 1442.07 935.753 1477.91 936.646 1509.84 937.106 C 1495.92 949.571 1493.97 958.078 1499.84 976.426 C 1504.64 991.44 1511 1006.3 1516.74 1021.01 C 1526.96 1046.88 1536.98 1072.83 1546.81 1098.85 z" fill="rgb(123,6,36)" transform="translate(0,0)"></path>
<path d="M 1396.75 939.473 C 1395.84 939.315 1392.77 939.064 1392.65 937.467 C 1392.64 937.366 1392.75 937.061 1392.88 936.985 C 1395.53 935.372 1408.18 936.6 1410.3 936.78 C 1403.63 937.548 1399.79 935.922 1396.75 939.473 z" fill="rgb(141,17,40)" transform="translate(0,0)"></path>
<path d="M 1168.8 927.771 C 1188.25 940.211 1191.56 937.447 1214.52 937.63 C 1241.68 937.622 1268.83 937.435 1295.98 937.069 C 1317.92 936.976 1341.32 937.565 1363.27 936.606 C 1369.13 936.35 1378.11 930.363 1383.19 927.128 C 1383.28 944.354 1383.92 964.808 1383.16 981.785 C 1383.72 986.936 1384.73 1006.32 1383.54 1012.39 C 1383.52 1012.49 1382.98 1012.81 1382.58 1012.74 C 1380.88 1012.44 1379.27 1010.15 1378.44 1008.97 C 1358.48 981.64 1344.01 972.384 1309.84 970.36 C 1308.49 985.831 1309.07 1008.09 1309.05 1023.86 L 1309.25 1123.68 L 1309.05 1190.39 C 1309 1203.86 1308.35 1220.32 1310.45 1233.4 C 1312.64 1247.14 1321.43 1253.14 1331.8 1260.31 C 1294.62 1257.76 1257.48 1254.74 1220.39 1251.26 C 1234.43 1242.88 1239.58 1238.75 1241.09 1221.57 C 1243.77 1191.17 1242.62 1159.5 1242.6 1129.01 L 1242.49 970.675 C 1203.73 971.659 1187.82 985.233 1169.17 1017.14 C 1168.37 987.867 1168.79 957.16 1168.8 927.771 z" fill="rgb(123,6,36)" transform="translate(0,0)"></path>
<path d="M 1383.16 981.785 C 1383.72 986.936 1384.73 1006.32 1383.54 1012.39 C 1383.52 1012.49 1382.98 1012.81 1382.58 1012.74 C 1380.88 1012.44 1379.27 1010.15 1378.44 1008.97 C 1379.29 1008.76 1382.1 1007.62 1382.14 1007.37 C 1383.36 1000.71 1382.3 988.178 1383.16 981.785 z" fill="rgb(141,17,40)" transform="translate(0,0)"></path>
<path d="M 1035.39 755.139 C 1051.06 756.003 1076.4 754.132 1090.21 755.795 C 1091.6 755.817 1092.07 755.715 1093.27 756.345 L 1093.57 757.412 C 1091.93 760.058 1087.62 759.158 1084.97 758.922 C 1080.84 760.213 1077.52 761.446 1075.08 765.234 C 1072.25 769.621 1073.37 871.97 1076.49 879.323 C 1077.49 881.682 1079.46 883.237 1081.86 884.052 C 1085.21 885.19 1091.96 884.208 1093.89 886.455 L 1093.39 888.476 C 1083.29 889.746 1042.72 889.247 1030.69 888.641 L 1030.08 887.991 C 1038.54 883.415 1047.06 884.536 1048.29 876.859 C 1050.77 861.313 1049.45 841.003 1049.6 825.076 L 998.618 825.017 C 998.511 836.652 996.232 874.537 1002.27 881.722 C 1005.39 882.876 1017 886.656 1018.31 888.485 C 1010.08 890.028 975.976 889.025 965.268 889.408 L 963.077 885.281 C 968.798 884.53 974.385 881.798 974.511 875.164 C 975.193 839.462 975.915 803.319 974.445 767.661 C 974.05 758.083 960.634 761.674 955.444 757.975 L 955.783 756.447 C 961.548 755.19 1014.49 755.082 1018.98 756.8 C 1017.87 758.12 1005.66 760.969 1003.12 761.607 C 996.396 768.628 998.876 804.477 998.992 816.17 C 1015.79 816.363 1032.59 816.411 1049.38 816.314 C 1049.21 800.944 1051.1 783.455 1048.72 768.559 C 1047.91 763.468 1045.19 761.889 1041.18 759.359 C 1038.41 759.213 1034.05 759.304 1031.52 758.689 C 1029.71 758.248 1029.46 756.108 1032.11 755.665 L 1035.39 755.139 z" fill="rgb(123,6,36)" transform="translate(0,0)"></path>
<path d="M 1090.21 755.795 C 1091.6 755.817 1092.07 755.715 1093.27 756.345 L 1093.57 757.412 C 1091.93 760.058 1087.62 759.158 1084.97 758.922 C 1083.99 758.36 1079.99 756.881 1079.83 756.52 C 1080.29 756.677 1080.76 756.833 1081.22 756.99 L 1081.85 756.16 C 1085.52 756.492 1086.45 756.234 1090.21 755.795 z" fill="rgb(153,25,34)" transform="translate(0,0)"></path>
<path d="M 1041.18 759.359 C 1038.41 759.213 1034.05 759.304 1031.52 758.689 C 1029.71 758.248 1029.46 756.108 1032.11 755.665 L 1035.39 755.139 L 1037.16 755.653 C 1040.72 756.353 1040.74 755.948 1041.18 759.359 z" fill="rgb(153,25,34)" transform="translate(0,0)"></path>
<path d="M 572.976 1526.09 L 988.088 1521.92 C 1126.57 1521.98 1265.04 1523.01 1403.51 1525 C 1405.93 1528.61 1400.89 1526.99 1398.35 1527.89 C 1126.02 1535.79 854.824 1530.62 582.594 1527.87 C 578.312 1526.7 577.462 1526.68 572.976 1526.09 z" fill="rgb(252,178,39)" transform="translate(0,0)"></path>
<path d="M 1100.11 756.614 C 1112.9 755.391 1128.44 755.739 1141.6 755.653 L 1208.38 755.074 C 1208.54 763.486 1209.37 779.636 1207.4 787.091 L 1205.96 788.354 C 1202.77 785.337 1202.44 780.375 1201.74 775.379 C 1199.41 758.593 1162.99 762.237 1148.93 762.372 L 1148.77 817.099 C 1159.5 817.091 1177.33 818.688 1185.22 811.102 C 1192.09 804.498 1187.29 794.724 1192.63 791.343 C 1197.11 796.538 1194.63 845.873 1192.83 854.858 C 1190.7 846.109 1190.17 832.256 1182.16 826.807 C 1175.11 822.009 1157.38 823.984 1148.83 824.213 C 1148.77 836.227 1147.46 868.48 1150.88 878.018 C 1156.99 883.865 1194.79 881.922 1201.28 873.163 C 1204.17 869.272 1213.89 854.718 1217.36 854.006 C 1218.37 860.072 1210.61 882.219 1208.43 889.175 C 1185.56 889.275 1148.9 890.391 1126.55 888.824 C 1123.47 888.906 1106.74 889.618 1105.15 888.343 C 1104.88 886.28 1107.93 886.357 1109.24 886.384 C 1114.47 884.859 1119.89 883.457 1122.58 878.221 C 1125.79 871.964 1125.89 775.818 1123.69 765.057 C 1117.21 758.072 1109.66 759.327 1100.11 756.614 z" fill="rgb(123,6,36)" transform="translate(0,0)"></path>
<path d="M 1126.55 888.824 C 1123.47 888.906 1106.74 889.618 1105.15 888.343 C 1104.88 886.28 1107.93 886.357 1109.24 886.384 C 1113.67 888.62 1119.97 887.482 1126.55 888.824 z" fill="rgb(141,17,40)" transform="translate(0,0)"></path>
<path d="M 937.004 755.501 L 937.688 755.741 C 939.116 758.155 940.837 787.966 940.019 790.068 L 938.394 790.006 C 921.943 778.668 946.708 762.722 894.579 763.102 C 894.317 781.06 891.284 870.355 897.641 880.785 C 900.974 886.252 908.15 884.976 913.764 886.34 L 914.606 887.785 C 910.696 890.736 855.13 889.042 846.429 888.718 C 851.802 885.943 859.098 885.501 865.7 883.669 C 873.646 876.327 871.128 846.675 871.122 835.615 L 871.019 763.753 C 863.863 763.404 844.977 762.218 839.517 767.407 C 835.47 771.253 830.402 787.333 826.373 790.309 C 824.092 784.768 827.102 762.722 827.813 755.67 C 864.21 755.805 900.608 755.749 937.004 755.501 z" fill="rgb(123,6,36)" transform="translate(0,0)"></path>
<path d="M 750.111 449.77 C 758.334 428.548 767.775 425.196 790.074 426.735 C 778.334 446.752 776.508 445.932 754.274 451.073 C 744.185 453.406 730.042 469.309 722.288 477.232 L 723.748 478.921 C 720.451 481.919 719.024 484.318 716.142 487.549 L 714.417 487.388 C 704.669 499.2 700.864 506.51 693.408 519.833 C 706.911 506.136 712.413 504.087 731.938 503.924 C 732.923 503.917 733.908 503.915 734.893 503.918 C 724.324 523.74 715.749 531.13 693.75 520.841 C 689.815 529.519 687.209 536.929 684.047 545.864 L 686.851 548.225 C 684.166 553.441 683.354 555.952 682.141 561.583 L 679.844 562.286 C 679.373 567.84 678.935 572.166 679.136 577.788 C 680.086 582.746 679.453 589.02 681.274 592.867 C 689.872 577.206 696.388 572.296 711.595 563.404 C 710.492 575.509 709.425 590.948 699.08 598.977 C 693.246 603.506 688.669 604.985 681.775 602.601 L 679.433 603.269 C 675.81 615.25 691.096 662.12 696.108 675.545 C 697.218 678.927 698.601 681.874 699.652 685.143 C 703.4 693.658 707.196 702.68 711.289 710.992 C 712.495 713.398 713.724 715.776 714.898 718.197 C 716.953 722.765 718.575 725.408 721.454 729.521 C 729.871 747.111 751.481 773.048 762.604 790.76 L 754.892 797.01 C 747.95 780.984 731.042 749.148 719.977 735.335 C 718.909 731.78 718.163 729.767 715.497 726.966 C 709.656 715.742 704.109 704.367 698.861 692.853 C 698.203 693.09 697.637 693.456 697.022 693.805 C 695.83 688.578 695.89 688.751 693.215 684.019 L 694.291 682.074 C 692.649 678.568 685.955 656.82 683.704 650.831 C 659.232 663.591 646.899 633.741 643.852 614.443 C 669.89 620.514 673.55 631.476 684.576 653.472 C 678.589 632.954 676.95 626.12 675.971 604.949 C 675.922 600.835 676.459 595.536 675.402 591.827 L 674.954 589.21 C 675.045 557.283 679.911 543.754 693.284 514.535 C 695.026 511.794 696.846 508.526 698.338 505.64 C 701.52 498.251 706.988 493.452 709.699 486.951 L 708.662 486.021 C 712.359 483.008 712.507 480.054 717.152 477.644 C 718.967 477.328 729.924 465.46 732.067 463.239 L 731.437 461.615 C 734.309 458.812 735.787 457.131 738.293 454.02 L 741.309 455.251 L 750.111 449.77 z" fill="rgb(252,178,39)" transform="translate(0,0)"></path>
<path d="M 679.844 562.286 C 680.821 555.986 682.495 551.804 684.047 545.864 L 686.851 548.225 C 684.166 553.441 683.354 555.952 682.141 561.583 L 679.844 562.286 z" fill="rgb(251,250,239)" transform="translate(0,0)"></path>
<path d="M 714.417 487.388 C 716.587 484.096 719.502 479.975 722.288 477.232 L 723.748 478.921 C 720.451 481.919 719.024 484.318 716.142 487.549 L 714.417 487.388 z" fill="rgb(249,224,175)" transform="translate(0,0)"></path>
<path d="M 738.293 454.02 L 741.309 455.251 L 739.873 456.394 C 737.124 458.523 734.652 460.919 732.067 463.239 L 731.437 461.615 C 734.309 458.812 735.787 457.131 738.293 454.02 z" fill="rgb(249,224,175)" transform="translate(0,0)"></path>
<path d="M 694.291 682.074 C 696.07 684.998 697.646 689.505 698.861 692.853 C 698.203 693.09 697.637 693.456 697.022 693.805 C 695.83 688.578 695.89 688.751 693.215 684.019 L 694.291 682.074 z" fill="rgb(249,224,175)" transform="translate(0,0)"></path>
<path d="M 679.136 577.788 C 680.086 582.746 679.453 589.02 681.274 592.867 L 681.006 594.462 L 680.174 595.2 L 680.333 595.488 C 678.195 595.495 679.075 579.535 679.136 577.788 z" fill="rgb(249,224,175)" transform="translate(0,0)"></path>
<path d="M 644.193 1365.23 C 658.623 1365.14 673.074 1365.09 687.494 1365.44 C 705.755 1365.89 712.951 1371.02 717.363 1388.61 L 716.424 1392.6 C 712.502 1409.66 698.479 1412.09 683.25 1411.67 C 673.863 1411.52 664.591 1411.58 655.228 1411.5 C 655.156 1416.79 655.472 1438.27 654.616 1444.44 C 654.488 1445.36 648.526 1444.92 648.519 1444.93 C 648.289 1445.1 644.69 1445.03 644.647 1444.34 C 643.635 1428.08 644.4 1378.44 644.193 1365.23 z" fill="rgb(252,178,39)" transform="translate(0,0)"></path>
<path d="M 655.973 1374.77 C 671.896 1374.56 718.36 1368.17 701.894 1398.24 C 692.564 1404.7 668.969 1402.23 655.833 1402.2 C 655.926 1393.06 655.973 1383.91 655.973 1374.77 z" fill="rgb(255,255,255)" transform="translate(0,0)"></path>
<path d="M 1259.54 426.684 C 1276.88 426.344 1295.36 426.198 1297.57 447.645 C 1302.81 449.201 1305.73 451.928 1309.74 455.654 C 1311.7 458.015 1314.16 460.168 1316.51 462.156 C 1323.94 468.224 1330.72 475.04 1336.75 482.496 C 1332.69 471.873 1329.63 460.896 1334.67 449.908 C 1335.73 447.654 1336.86 445.434 1338.06 443.251 C 1344.1 451.218 1351.28 460.897 1349.87 471.525 C 1349.1 477.008 1346.11 481.936 1341.62 485.166 C 1341.01 485.576 1340.39 485.987 1339.78 486.397 C 1355.18 504.973 1365.99 524.551 1372.44 547.74 C 1372.97 551.442 1373.84 555.307 1374.61 558.987 C 1375.61 570.937 1375.97 579.957 1376.04 591.947 L 1378.92 592.882 C 1378.46 595.085 1378.26 596.346 1378.02 598.543 C 1377.57 601.38 1377.17 603.043 1376.44 605.795 C 1375.97 606.886 1375.49 607.972 1375 609.053 C 1374.82 617.635 1373 629.61 1371.41 638.185 L 1373.52 640.733 C 1372.74 643.107 1372.14 643.994 1371.02 646.175 L 1369.61 645.87 L 1358.26 677.849 C 1356.64 681.135 1355.16 684.462 1353.5 687.705 C 1352.56 689.344 1352.37 689.843 1351.67 691.609 C 1347.04 702.207 1339.3 718.521 1333.57 728.443 L 1335.25 729.224 C 1333.87 731.63 1332.48 733.243 1331.02 735.697 L 1329.52 735.829 C 1320.66 747.219 1303.25 781.641 1296.66 794.796 C 1293.06 792.524 1291.24 792.089 1289.51 788.776 C 1296.65 775.01 1319.4 744.317 1329.46 728.273 C 1331.53 725.413 1332.57 723.412 1334.06 720.211 C 1354.46 680.613 1368.39 651.965 1371.92 606.021 C 1372.07 601.36 1372.49 598.632 1372.07 593.919 C 1372.15 576.156 1371.75 531.571 1356.74 520.21 C 1339.99 535.377 1316.07 517.312 1319.33 505.004 C 1326.66 499.344 1345.91 508.293 1351.76 514.082 L 1354.48 512.667 C 1341.46 496.415 1332.27 475.422 1312.81 462.251 C 1309.72 459.274 1306.65 456.52 1303.49 453.63 C 1300.16 450.966 1299.96 450.68 1296.01 449.365 C 1277.27 452.64 1267.46 442.224 1259.54 426.684 z" fill="rgb(252,178,39)" transform="translate(0,0)"></path>
<path d="M 1371.41 638.185 L 1373.52 640.733 C 1372.74 643.107 1372.14 643.994 1371.02 646.175 L 1369.61 645.87 C 1370.02 643.091 1370.4 640.841 1371.41 638.185 z" fill="rgb(251,250,239)" transform="translate(0,0)"></path>
<path d="M 1375.62 599.74 L 1378.02 598.543 C 1377.57 601.38 1377.17 603.043 1376.44 605.795 C 1375.97 606.886 1375.49 607.972 1375 609.053 C 1375.02 605.645 1374.83 603.064 1375.62 599.74 z" fill="rgb(249,224,175)" transform="translate(0,0)"></path>
<path d="M 1376.04 591.947 L 1378.92 592.882 C 1378.46 595.085 1378.26 596.346 1378.02 598.543 L 1375.62 599.74 C 1375.8 597.088 1375.95 594.605 1376.04 591.947 z" fill="rgb(251,250,239)" transform="translate(0,0)"></path>
<path d="M 1333.57 728.443 L 1335.25 729.224 C 1333.87 731.63 1332.48 733.243 1331.02 735.697 L 1329.52 735.829 C 1330.87 732.433 1331.2 731.312 1333.57 728.443 z" fill="rgb(249,224,175)" transform="translate(0,0)"></path>
<path d="M 1354.48 512.667 C 1355.5 514.679 1355.33 514.987 1355.63 517.413 C 1353.7 515.998 1353.49 515.83 1351.76 514.082 L 1354.48 512.667 z" fill="rgb(249,224,175)" transform="translate(0,0)"></path>
<path d="M 1089.95 1365.47 C 1091.48 1365.42 1098.03 1364.45 1098.92 1366.55 C 1109.99 1392.66 1122.64 1418.56 1132.72 1444.9 C 1132.79 1445.09 1132.15 1445.69 1131.97 1445.68 C 1129.62 1446.15 1123.06 1446.78 1121.55 1444.11 C 1118.63 1438.95 1115.3 1432.08 1112.77 1426.9 L 1094.41 1426.95 L 1069.52 1427.06 C 1067.3 1432.52 1065.42 1439.62 1062.36 1444.36 C 1061.48 1445.72 1053.4 1445.59 1052.39 1444.61 C 1051.66 1442.23 1082.14 1375.46 1085.29 1367.37 C 1085.69 1366.35 1087.47 1365.88 1088.55 1365.72 L 1089.95 1365.47 z" fill="rgb(252,178,39)" transform="translate(0,0)"></path>
<path d="M 1092.56 1375.81 C 1094.2 1377.47 1107.18 1412.65 1109.34 1418.04 C 1103.39 1418.1 1097.45 1418.11 1091.5 1418.09 L 1073.72 1418.06 C 1080.69 1403.58 1086.13 1390.16 1092.56 1375.81 z" fill="rgb(255,255,255)" transform="translate(0,0)"></path>
<path d="M 1370.48 1363.4 C 1386.3 1363.73 1396.05 1366.95 1406.5 1378.86 C 1403.81 1381.59 1401.47 1384.04 1398.9 1386.89 C 1387.51 1372.02 1372.93 1370.44 1354.18 1376.35 C 1343.24 1379.79 1344.71 1393.3 1358.48 1395.19 C 1374.64 1397.41 1408.69 1397.86 1409.02 1420.49 C 1409.23 1446.49 1382.1 1447.37 1363.95 1447.05 C 1346.86 1444.97 1342.64 1440.47 1332.04 1428.2 L 1332.74 1427.57 C 1336.24 1424.43 1337.01 1423.97 1340.89 1421.32 C 1342.6 1423.8 1345.03 1427.6 1347.38 1429.62 C 1358.76 1439.42 1385.83 1442.34 1396.02 1429.51 C 1397.59 1427.53 1399.07 1422.95 1398.39 1420.43 C 1394.95 1408.93 1378.15 1409.01 1367.01 1407.86 C 1347.81 1405.88 1325.75 1396.21 1340.75 1373.8 C 1345.96 1366.01 1361.02 1364.14 1370.48 1363.4 z" fill="rgb(252,178,39)" transform="translate(0,0)"></path>
<path d="M 553.507 1364.19 C 567.23 1362.86 579.749 1364.2 591.029 1372.82 C 593.854 1374.93 598.035 1379.02 594.3 1382.27 C 592.239 1384.02 590.177 1387.58 587.728 1384.31 C 581.154 1375.59 572.955 1373.6 562.499 1373.28 C 555.103 1373.05 540.747 1374.35 537.922 1382.99 C 534.752 1392.69 545.146 1395.45 552.509 1396.85 C 560.947 1398.45 570.047 1399.15 578.513 1400.86 C 590.165 1402.78 598.031 1406.99 599.466 1419.74 C 601.545 1438.19 583.655 1445.66 568.166 1447.3 C 545.655 1448.17 537.966 1444.79 522.524 1428.85 C 526.171 1425.91 527.144 1424.68 530.312 1421.67 C 536.432 1429.05 540.305 1433.4 550.502 1435.94 C 560.926 1438.49 584.143 1439.71 587.119 1425.51 C 590.225 1410.69 568.575 1408.95 559.476 1407.56 C 548.825 1405.93 528.821 1403.88 526.374 1391.41 C 522.814 1373.26 538.823 1366.94 553.507 1364.19 z" fill="rgb(252,178,39)" transform="translate(0,0)"></path>
<path d="M 1053.5 1728.99 C 1011.6 1670.87 1048.85 1603.76 1110.03 1580.68 C 1130.12 1573.1 1145.24 1573.69 1164.73 1582.58 C 1163.56 1583.1 1161.91 1583.49 1160.98 1584.12 C 1160.93 1584.27 1160.84 1584.35 1160.92 1584.49 C 1161.15 1584.92 1162.17 1585.11 1162.38 1585.18 C 1165.37 1585.57 1167.62 1586.5 1169.98 1588.45 L 1169.18 1591.32 C 1180.31 1603.77 1186.59 1617.61 1185.74 1634.57 C 1185.23 1646.75 1179.88 1658.23 1170.89 1666.47 C 1153.65 1681.96 1122.74 1682.51 1108.33 1663.22 C 1099.41 1651.28 1095.91 1633.25 1109.38 1623.35 C 1114.33 1619.66 1120.56 1618.14 1126.65 1619.13 C 1138.38 1621.13 1142.12 1631.08 1139.54 1641.78 C 1139.01 1643.41 1138.14 1644.72 1137.27 1646.2 L 1135.64 1645.55 C 1137.55 1641.5 1137.17 1639.52 1137.51 1634.9 C 1126.35 1607.11 1093.92 1630.61 1108.34 1654.89 C 1120.38 1675.18 1143.6 1677.85 1163.15 1665.91 C 1184.92 1650.51 1184.46 1619.96 1170.22 1599.89 C 1147.1 1567.33 1107.5 1583.25 1081.76 1602.54 C 1041.37 1632.8 1024.84 1683.79 1055.3 1727.55 L 1053.5 1728.99 z" fill="rgb(141,17,40)" transform="translate(0,0)"></path>
<path d="M 1137.51 1634.9 C 1138.16 1637.83 1138.16 1639.14 1139.54 1641.78 C 1139.01 1643.41 1138.14 1644.72 1137.27 1646.2 L 1135.64 1645.55 C 1137.55 1641.5 1137.17 1639.52 1137.51 1634.9 z" fill="rgb(162,73,82)" transform="translate(0,0)"></path>
<path d="M 1162.38 1585.18 C 1165.37 1585.57 1167.62 1586.5 1169.98 1588.45 L 1169.18 1591.32 C 1166.93 1589.25 1164.66 1587.21 1162.38 1585.18 z" fill="rgb(221,204,212)" transform="translate(0,0)"></path>
<path d="M 762.727 1365.29 C 780.261 1365.18 804.915 1364.77 822.929 1365.57 C 823.853 1365.61 823.779 1374.37 822.756 1374.41 C 806.431 1375.13 789.636 1374.69 773.164 1374.87 C 773.056 1383.25 773.036 1391.63 773.104 1400.01 C 788.347 1399.91 804.358 1399.42 819.348 1400.44 C 820.146 1401.04 820.049 1408.41 819.034 1408.49 C 806.869 1409.36 790.882 1408.95 778.75 1408.94 C 778.281 1408.95 773.817 1408.76 773.693 1409.58 C 772.586 1416.91 773.216 1429.31 773.282 1436.41 C 790.435 1436.52 808.445 1436.05 825.449 1436.87 C 826.837 1437.45 826.173 1445.53 825.485 1445.56 C 805.252 1446.42 782.879 1446 762.682 1446.01 C 762.707 1425.25 760.963 1383.91 762.727 1365.29 z" fill="rgb(252,178,39)" transform="translate(0,0)"></path>
<path d="M 881.972 1583.14 C 895.685 1576.92 906.825 1573.42 922.18 1576.37 C 958.47 1583.32 990.718 1607.9 1005.47 1641.9 C 1014.51 1662.39 1014.99 1685.65 1006.78 1706.5 C 1004.22 1712.93 1001.56 1717.42 997.791 1723.15 L 996.479 1720.63 C 1020.2 1678 1006.85 1638.14 971.518 1606.03 C 955.758 1591.71 929.384 1579.16 907.678 1580.92 C 881.115 1583.06 863.326 1613.6 867.381 1638.63 C 869.122 1649.83 875.531 1659.76 885.015 1665.96 C 895.052 1672.66 903.205 1674.45 916.757 1672.35 C 936.791 1670.28 956.61 1635.52 934.294 1624.16 C 922.824 1618.32 914.01 1625.43 910.258 1635.8 C 908.905 1635.36 909.015 1635.31 908.119 1634.08 C 908.913 1631.4 909.689 1628.97 911.08 1626.45 C 915.349 1616.77 934.816 1616.9 940.909 1623.36 C 960.44 1644.08 936.576 1678.07 911.345 1677.97 C 896.445 1677.92 886.102 1675.23 876.034 1665.82 C 866.795 1657.04 861.506 1644.89 861.371 1632.15 C 861.106 1615.94 868.131 1601.66 879.056 1590.14 L 877.698 1587.63 C 880.402 1586.03 880.268 1585.98 883.218 1585.31 L 881.972 1583.14 z" fill="rgb(141,17,40)" transform="translate(0,0)"></path>
<path d="M 883.218 1585.31 C 882.798 1587.36 880.718 1588.66 879.056 1590.14 L 877.698 1587.63 C 880.402 1586.03 880.268 1585.98 883.218 1585.31 z" fill="rgb(221,204,212)" transform="translate(0,0)"></path>
<path d="M 905.779 1364.25 C 927.5 1361.86 939.633 1366.85 951.413 1384.63 C 948.531 1386.63 946.964 1387.62 944.176 1389.95 C 937.569 1382.41 934.286 1377.72 924.002 1375.12 C 909.097 1371.35 893.455 1374.52 884.146 1387.6 C 879.667 1393.89 877.703 1404.85 879.294 1412.47 C 880.95 1420.57 885.914 1427.62 892.988 1431.9 C 903.04 1437.97 913.802 1437.99 924.865 1435.18 C 936.208 1430.99 936.899 1429.63 943.052 1419.95 L 951.236 1426.35 C 929.443 1466.96 855.654 1445.29 868.35 1395.56 C 873.503 1375.38 886.532 1367.97 905.779 1364.25 z" fill="rgb(252,178,39)" transform="translate(0,0)"></path>
<path d="M 1329.37 867.723 C 1393.35 886.781 1492.01 783.649 1546.2 806.701 C 1553.84 809.913 1560.22 815.559 1564.33 822.764 C 1576.29 844.013 1559.69 868.851 1535.59 862.606 C 1525.04 859.872 1519.37 840.155 1532.85 836.816 C 1537.23 835.381 1541.8 837.394 1544.1 842.007 C 1544.08 845.834 1544.7 844.244 1542.5 847.05 C 1539.47 847.996 1537.27 846.739 1534.15 845.661 C 1530.63 847.123 1530.19 849.076 1530.73 852.878 C 1542.14 872.235 1576.67 847.687 1559.14 825.398 C 1527.06 784.617 1464.97 836.025 1430.35 849.931 C 1403.11 861.567 1356.5 884.845 1328.61 869.468 L 1329.37 867.723 z" fill="rgb(123,6,36)" transform="translate(0,0)"></path>
<path d="M 514.657 802.294 C 575.498 798.143 658.157 887.553 723.869 864.105 C 720.089 866.594 715.721 869.407 711.409 870.717 C 678.421 880.737 627.728 853.671 598.41 838.7 C 573.236 825.748 520.706 793.785 493.572 816.333 C 487.855 821.091 484.4 828.031 484.05 835.461 C 482.901 861.98 517.079 862.889 515.579 846.837 C 511.348 842.496 506.384 848.221 502.343 843.311 C 504.401 831.975 520.24 834.004 521.981 843.781 C 523.189 850.502 519.543 858.727 512.596 860.553 C 485.916 867.564 468.529 838.983 485.193 817.583 C 493.443 806.989 502.108 804.019 514.657 802.294 z" fill="rgb(123,6,36)" transform="translate(0,0)"></path>
<path d="M 1798.47 1111.47 C 1802.09 1116.45 1806.07 1122.64 1807.15 1128.46 C 1819.57 1195.27 1721.64 1210.6 1690.96 1162.6 C 1676.35 1139.72 1673.72 1105.6 1698.42 1089.3 C 1718.77 1076.6 1745.82 1079.93 1757.91 1102.11 C 1762.45 1110.27 1763.33 1119.97 1760.32 1128.81 C 1758.35 1134.62 1754.71 1139.78 1749.1 1142.55 C 1743.63 1145.21 1737.32 1145.59 1731.57 1143.62 C 1718.62 1139.11 1712.71 1124.53 1722.83 1113.97 L 1724.96 1115.2 C 1714.03 1131.09 1731.72 1144.73 1744.79 1139.75 C 1766.87 1130.96 1756.41 1094.36 1738.12 1089.12 C 1696.68 1077.26 1673.71 1115.94 1690.75 1151.31 C 1697.96 1165.93 1710.77 1177.02 1726.27 1182.06 C 1771.03 1196.86 1823.31 1161.52 1797 1113.93 L 1798.47 1111.47 z" fill="rgb(141,17,40)" transform="translate(0,0)"></path>
<path d="M 357.722 1309.49 C 331.203 1314.03 329.464 1284.39 345.803 1273.66 C 351.391 1269.92 358.289 1268.69 364.825 1270.27 C 399.506 1278.64 397.835 1328.57 367.265 1341.94 C 351.586 1348.8 336.628 1349.17 320.515 1344.3 C 289.81 1335.03 279.874 1298.78 290.243 1271.22 C 303.247 1236.66 336.634 1220.82 371.747 1219.65 C 384.859 1219.21 393.792 1220.45 406.073 1224.93 L 404.748 1226.22 C 364.529 1214.17 306.578 1232.66 294.258 1276.51 C 286.781 1303.06 297.19 1333.31 326.552 1340.27 C 340.638 1343.6 354.271 1342.68 367.522 1335.8 C 384.677 1326.89 392.487 1303.86 381.321 1286.76 C 377.498 1280.88 371.447 1276.8 364.557 1275.47 C 334.857 1269.64 328.315 1309.45 357.566 1307.83 L 357.722 1309.49 z" fill="rgb(141,17,40)" transform="translate(0,0)"></path>
<path d="M 1496.72 692.3 C 1508.14 698.378 1511.07 708.327 1504.67 719.251 C 1490.75 743.031 1460.6 730.998 1455.38 707.186 C 1453.14 696.59 1455.29 685.538 1461.36 676.564 C 1477.26 653.42 1513.76 652.051 1535.39 667.651 C 1547.5 676.405 1555.52 689.715 1557.6 704.513 C 1564.19 750.257 1516.89 785.275 1475.73 789.26 L 1474.24 787.413 C 1492.4 783.536 1504.05 777.978 1519.14 767.146 C 1519.66 766.496 1520.19 765.846 1520.71 765.195 C 1538.83 756.375 1552.66 729.899 1551.76 710.012 C 1551.13 697.159 1545.38 685.093 1535.8 676.501 C 1518.06 660.341 1484.18 656.785 1467.62 676.36 C 1461.63 683.376 1458.68 692.483 1459.4 701.679 C 1461.42 724.77 1485.22 737.205 1500.8 718.01 C 1507.59 709.64 1502.81 699.519 1494.96 694.109 L 1496.72 692.3 z" fill="rgb(141,17,40)" transform="translate(0,0)"></path>
<path d="M 324.251 1113.62 C 328.865 1118.74 330.456 1123.94 328.265 1130.71 C 326.57 1135.85 322.825 1140.06 317.918 1142.34 C 306.329 1147.74 291.115 1143 287.771 1130.91 C 273.113 1077.91 347.608 1062.71 364.517 1111.26 C 373.574 1142.9 353.157 1177.47 322.857 1187.24 C 276.009 1202.34 219.918 1166.52 248.958 1113.84 L 250.157 1116.2 C 228.353 1159.35 274.318 1195.2 314.931 1183.51 C 332.008 1178.59 344.065 1171.27 353.425 1155.53 C 360.255 1144.04 363.819 1129.88 360.367 1116.96 C 352.668 1085.58 309.794 1073.1 293.116 1104.45 C 286.767 1112.88 289.442 1135.35 300.839 1138.95 C 316.977 1144.04 331.722 1131.8 323.142 1115.09 L 324.251 1113.62 z" fill="rgb(141,17,40)" transform="translate(0,0)"></path>
<path d="M 572.342 787.118 C 548.679 785.276 520.139 768.993 505.8 750.076 C 486.354 724.423 484.905 686.848 513.793 666.771 C 527.174 657.524 543.698 654.017 559.681 657.032 C 596.221 664.242 608.71 708.819 579.894 726.143 C 573.125 730.158 565.016 731.251 557.426 729.173 C 539.752 724.299 533.042 699.897 554.224 690.517 L 555.961 692.3 C 546.46 697.641 541.703 705.852 548.002 716.086 C 551.12 721.044 556.159 724.48 561.913 725.571 C 597.454 732.155 606.045 663.699 551.128 661.56 C 536.383 660.846 522.01 666.319 511.475 676.661 C 502.21 685.821 497.135 698.398 497.449 711.423 C 497.746 727.108 511.72 757.893 527.411 761.986 L 527.902 763.967 C 539.196 774.031 558.976 782.584 573.685 785.427 L 572.342 787.118 z" fill="rgb(141,17,40)" transform="translate(0,0)"></path>
<path d="M 1673.71 1219.83 C 1692.02 1219.63 1700.29 1221.17 1717.54 1228.15 C 1774.42 1251.16 1781.04 1347.63 1706.08 1347.24 C 1679.7 1347.1 1658.08 1328.79 1660.08 1301.46 C 1660.76 1271.38 1703.45 1254.15 1717.01 1284.31 C 1718.8 1288.3 1717.38 1294.87 1715.66 1299.14 C 1713 1294.93 1715.07 1295.19 1713.94 1290.64 C 1707.65 1261.05 1665.36 1270.51 1664.83 1302.2 C 1664.13 1343.51 1717.84 1352.73 1742.14 1329.1 C 1764.6 1307.27 1757.57 1268.27 1736.41 1248.15 C 1719.11 1230.94 1698.35 1223.45 1674.65 1222.96 L 1673.71 1219.83 z" fill="rgb(141,17,40)" transform="translate(0,0)"></path>
<path d="M 1023.65 298.536 C 1026.78 300.562 1031.85 312.284 1034.35 316.771 L 1034.76 317.494 C 1042.01 317.982 1048.49 318.141 1055.82 318.788 C 1050.67 324.068 1045.5 329.089 1040.31 334.303 C 1041.34 341.891 1041.96 349.554 1043.05 357.252 C 1037.65 354.019 1032.17 350.914 1026.63 347.939 C 1021.52 348.454 1010.54 353.908 1005.41 356.258 C 1006.58 349.085 1007.84 342.256 1008.77 335.028 C 1002.84 329.347 998.675 325.336 992.994 319.297 C 1000.23 318.569 1007.54 317.474 1014.72 316.775 L 1023.65 298.536 z" fill="rgb(252,178,39)" transform="translate(0,0)"></path>
<path d="M 1443.03 1365.37 C 1449.54 1365.33 1505.6 1364.56 1514.26 1366.27 C 1514.26 1366.27 1518.08 1376.02 1510.97 1375.67 C 1504.55 1375.37 1492.6 1375.63 1484.08 1375.7 C 1484.23 1389.48 1484.28 1403.26 1484.23 1417.04 L 1484.31 1445.07 C 1480.51 1445.22 1478.64 1445.2 1474.8 1445.65 L 1473.06 1445.85 L 1473.28 1374.95 C 1464.75 1374.9 1452.08 1375.43 1443.52 1374.39 C 1442.51 1374.27 1442.99 1366.41 1443.03 1365.37 z" fill="rgb(252,178,39)" transform="translate(0,0)"></path>
<path d="M 1120.37 320.691 C 1122.57 323.27 1125.58 334.785 1126.7 338.5 C 1132.86 341.541 1137.43 342.932 1143.56 345.541 C 1139.26 349.091 1132.33 354.123 1128.78 357.957 C 1128.49 364.164 1128.01 370.359 1127.32 376.535 C 1121 372.9 1117.1 370.217 1111.71 365.419 C 1105.3 366.977 1098.99 369.037 1092.71 371.06 C 1095.55 363.894 1097.77 357.814 1100.34 350.624 C 1093.45 344.196 1092.4 342.687 1088.02 334.518 C 1095.17 334.803 1102.32 335.026 1109.47 335.186 L 1109.88 334.561 C 1112.78 330.025 1116.87 324.793 1120.37 320.691 z" fill="rgb(252,178,39)" transform="translate(0,0)"></path>
<path d="M 926.275 320.411 C 929.847 323.111 935.835 332.292 938.382 336.289 C 945.596 335.719 951.575 335.128 958.874 334.849 C 954.645 340.924 951.849 346.307 948.095 352.498 C 950.501 359.405 951.852 364.887 953.628 371.936 C 947.803 369.716 942.149 367.856 936.3 365.845 C 930.831 369.532 927.141 372.348 921.902 376.383 L 920.421 377.501 C 919.924 370.592 919.248 364.224 918.786 357.248 C 912.308 351.257 908.848 349.903 901.658 345.031 L 903.09 344.604 C 909.505 342.751 915.888 340.979 922.177 338.738 C 922.728 336.157 923.209 333.567 923.758 330.986 C 924.49 327.437 925.329 323.91 926.275 320.411 z" fill="rgb(252,178,39)" transform="translate(0,0)"></path>
<path d="M 527.411 761.986 C 546.608 761.51 565.846 763.659 584.851 766.13 C 652.1 774.873 691.459 826.989 754.828 847.299 L 750.593 849.545 C 703.993 837.956 686.149 819.786 646.623 795.107 C 611.919 773.439 568.558 765.885 527.902 763.967 L 527.411 761.986 z" fill="url(#Gradient1)" transform="translate(0,0)"></path>
<path d="M 1284.3 850.383 C 1362.31 835.818 1388.94 766.65 1490.67 765.901 C 1495.44 766.478 1500.22 765.497 1503.98 767.716 C 1474.05 770.719 1441.51 775.529 1414.46 789.474 C 1362.06 816.479 1347.05 843.089 1284.63 852.543 L 1284.3 850.383 z" fill="rgb(123,6,36)" transform="translate(0,0)"></path>
<path d="M 1178.39 1365.22 C 1180.19 1365.3 1184.9 1364.75 1186.45 1366.06 C 1187.63 1367.06 1186.95 1429.51 1186.96 1436.19 C 1202.11 1435.96 1218.3 1435.59 1233.29 1436.38 C 1233.16 1436.37 1235.73 1443.28 1232.01 1445.11 L 1175.99 1445.39 C 1175.97 1425.61 1175.56 1387.84 1176.21 1366.6 C 1176.22 1366.11 1177.96 1365.42 1178.39 1365.22 z" fill="rgb(252,178,39)" transform="translate(0,0)"></path>
<path d="M 844.957 354.895 C 849.838 359.393 850.081 360.933 853.334 365.818 C 860.201 365.77 865.674 365.565 872.483 365.01 C 870.33 370.57 868.288 375.27 865.914 380.706 C 868.554 386.042 870.102 389.954 872.253 395.464 C 865.08 394.281 861.08 393.046 853.761 394.013 C 850.334 397.174 847.107 400.388 843.642 403.528 C 842.679 398.202 841.471 392.959 840.24 387.691 C 836.105 384.647 830.823 381.369 826.43 378.517 C 848.85 367.805 837.573 372.604 844.957 354.895 z" fill="rgb(252,178,39)" transform="translate(0,0)"></path>
<path d="M 1202.88 355.854 C 1205.57 358.692 1205.96 367.049 1206.4 370.896 C 1211.58 373.383 1215.77 375.6 1220.73 378.402 C 1214.95 382.92 1212.67 384.135 1207.2 389.327 C 1204.96 405.852 1207.64 408.169 1194.33 393.598 C 1188.19 394.041 1181.94 394.841 1175.85 395.719 L 1182.84 380.34 C 1180.66 375.327 1178.48 370.314 1176.23 365.339 C 1181.56 365.941 1186.91 366.448 1192.26 366.858 C 1196.79 362.733 1198.9 360.617 1202.88 355.854 z" fill="rgb(252,178,39)" transform="translate(0,0)"></path>
<path d="M 1276.46 1365.02 C 1278.25 1365.02 1287.14 1364.35 1287.18 1365.97 C 1287.74 1389.34 1287.28 1423.86 1287.77 1446.17 C 1285.41 1446.17 1277.1 1447.17 1277.03 1444.55 C 1276.4 1419.68 1276.59 1389.46 1276.46 1365.02 z" fill="rgb(252,178,39)" transform="translate(0,0)"></path>
<path d="M 997.963 1365.2 C 1000.23 1365.23 1006.8 1364.36 1008.45 1366.09 C 1010.06 1367.76 1008.64 1438.27 1008.38 1445.95 L 997.42 1445.47 C 997.733 1418.94 997.244 1391.54 997.963 1365.2 z" fill="rgb(252,178,39)" transform="translate(0,0)"></path>
<path d="M 669.607 707.817 L 686.508 709.03 C 697.26 709.874 706.394 720.005 712.928 727.648 L 715.497 726.966 C 718.163 729.767 718.909 731.78 719.977 735.335 L 719.194 735.328 C 714.396 738.914 701.119 738.192 695.262 737.885 C 682.384 729.695 675.989 721.733 669.607 707.817 z" fill="rgb(252,178,39)" transform="translate(0,0)"></path>
<path d="M 715.497 726.966 C 718.163 729.767 718.909 731.78 719.977 735.335 L 719.194 735.328 C 716.677 732.407 715.252 731.012 712.928 727.648 L 715.497 726.966 z" fill="rgb(249,224,175)" transform="translate(0,0)"></path>
<path d="M 714.252 708.895 C 714.29 693.633 717.983 685.695 728.454 675.03 C 738.759 697.412 742.257 710.099 722.255 728.367 L 721.454 729.521 C 718.575 725.408 716.953 722.765 714.898 718.197 C 713.724 715.776 712.495 713.398 711.289 710.992 C 712.282 710.301 713.27 709.602 714.252 708.895 z" fill="rgb(252,178,39)" transform="translate(0,0)"></path>
<path d="M 716.54 717.633 C 718.574 720.429 719.846 724.171 721.792 727.548 L 722.255 728.367 L 721.454 729.521 C 718.575 725.408 716.953 722.765 714.898 718.197 L 716.54 717.633 z" fill="rgb(249,224,175)" transform="translate(0,0)"></path>
<path d="M 714.252 708.895 C 715.063 712.171 715.47 714.376 716.54 717.633 L 714.898 718.197 C 713.724 715.776 712.495 713.398 711.289 710.992 C 712.282 710.301 713.27 709.602 714.252 708.895 z" fill="rgb(251,250,239)" transform="translate(0,0)"></path>
<path d="M 1328.11 727.488 C 1323.41 726.847 1317.53 717.744 1316.05 713.494 C 1311.99 704.285 1314.51 687.969 1319.99 679.45 C 1327.77 669.189 1335.53 693.899 1335.93 699.001 C 1336.57 707.273 1337.37 710.707 1332.64 718.538 L 1334.06 720.211 C 1332.57 723.412 1331.53 725.413 1329.46 728.273 L 1328.11 727.488 z" fill="rgb(252,178,39)" transform="translate(0,0)"></path>
<path d="M 1328.11 727.488 C 1329.54 724.32 1330.9 721.533 1332.64 718.538 L 1334.06 720.211 C 1332.57 723.412 1331.53 725.413 1329.46 728.273 L 1328.11 727.488 z" fill="rgb(249,224,175)" transform="translate(0,0)"></path>
<path d="M 674.722 604.916 C 654.051 609.354 643.913 585.948 644.35 568.986 C 644.839 549.95 668.815 581.202 671.34 587.046 L 671.955 588.416 L 674.954 589.21 L 675.402 591.827 C 676.459 595.536 675.922 600.835 675.971 604.949 L 674.722 604.916 z" fill="rgb(252,178,39)" transform="translate(0,0)"></path>
<path d="M 675.402 591.827 C 676.459 595.536 675.922 600.835 675.971 604.949 L 674.722 604.916 C 674.879 601.56 674.134 597.938 673.881 594.487 L 675.402 591.827 z" fill="rgb(249,224,175)" transform="translate(0,0)"></path>
<path d="M 671.955 588.416 L 674.954 589.21 L 675.402 591.827 L 673.881 594.487 C 673.286 592.449 672.643 590.425 671.955 588.416 z" fill="rgb(251,250,239)" transform="translate(0,0)"></path>
<path d="M 1335.25 729.224 C 1346.85 712.263 1362.02 708.928 1381.07 707.906 C 1368.22 733.72 1359.98 741.395 1331.02 735.697 C 1332.48 733.243 1333.87 731.63 1335.25 729.224 z" fill="rgb(252,178,39)" transform="translate(0,0)"></path>
<path d="M 1361.15 678.826 C 1369.48 670.248 1379.59 662.813 1392 662.341 C 1394.11 662.26 1397.48 661.9 1396.54 664.979 C 1390.75 683.991 1373.9 700.518 1352.84 693.026 L 1351.67 691.609 C 1352.37 689.843 1352.56 689.344 1353.5 687.705 C 1355.16 684.462 1356.64 681.135 1358.26 677.849 L 1361.15 678.826 z" fill="rgb(252,178,39)" transform="translate(0,0)"></path>
<path d="M 1358.26 677.849 L 1361.15 678.826 C 1359.53 681.054 1357.36 683.668 1356.59 686.215 L 1353.5 687.705 C 1355.16 684.462 1356.64 681.135 1358.26 677.849 z" fill="rgb(251,250,239)" transform="translate(0,0)"></path>
<path d="M 1353.5 687.705 L 1356.59 686.215 C 1354.99 688.803 1354.14 690.273 1352.84 693.026 L 1351.67 691.609 C 1352.37 689.843 1352.56 689.344 1353.5 687.705 z" fill="rgb(243,188,96)" transform="translate(0,0)"></path>
<path d="M 653.899 661.961 C 674.055 664.27 681.29 664.139 693.215 684.019 C 695.89 688.751 695.83 688.578 697.022 693.805 C 688.801 696.042 680.033 694.999 672.567 690.897 C 664.669 686.523 657.409 674.466 655.012 665.997 L 653.899 661.961 z" fill="rgb(252,178,39)" transform="translate(0,0)"></path>
<path d="M 698.331 673.712 C 695.335 654.236 704.001 646.298 715.985 633.254 C 723.207 657.301 724.987 670.45 701.834 684.632 L 699.652 685.143 C 698.601 681.874 697.218 678.927 696.108 675.545 L 698.331 673.712 z" fill="rgb(252,178,39)" transform="translate(0,0)"></path>
<path d="M 698.331 673.712 C 699.351 677.771 700.626 680.711 701.834 684.632 L 699.652 685.143 C 698.601 681.874 697.218 678.927 696.108 675.545 L 698.331 673.712 z" fill="rgb(251,250,239)" transform="translate(0,0)"></path>
<path d="M 1373.52 640.733 C 1379.27 629.288 1387.17 621.306 1399.62 617.435 C 1400.86 617.052 1406.37 614.745 1406.1 617.961 C 1404.74 633.891 1395.13 654.148 1376.51 653.984 C 1369.97 653.926 1368.8 652.049 1371.02 646.175 C 1372.14 643.994 1372.74 643.107 1373.52 640.733 z" fill="rgb(252,178,39)" transform="translate(0,0)"></path>
<path d="M 1334.98 634.459 C 1345.69 641.225 1352.52 656.512 1352.94 669 C 1353.11 674.188 1350.51 680.987 1348.93 685.895 C 1328.16 679.282 1328.52 651.239 1334.98 634.459 z" fill="rgb(252,178,39)" transform="translate(0,0)"></path>
<path d="M 1374.54 539.408 C 1380.48 524.064 1376.42 522.766 1390.74 508.586 C 1394.98 520.544 1400.21 533.92 1392.45 545.749 C 1389.35 550.469 1382.95 558.437 1376.92 558.713 L 1374.61 558.987 C 1373.84 555.307 1372.97 551.442 1372.44 547.74 C 1373.77 544.989 1373.76 542.442 1374.54 539.408 z" fill="rgb(252,178,39)" transform="translate(0,0)"></path>
<path d="M 1372.44 547.74 C 1373.77 544.989 1373.76 542.442 1374.54 539.408 C 1375.3 547.781 1374.85 550.127 1376.92 558.713 L 1374.61 558.987 C 1373.84 555.307 1372.97 551.442 1372.44 547.74 z" fill="rgb(251,250,239)" transform="translate(0,0)"></path>
<path d="M 1378.92 592.882 C 1386.02 572.754 1387.12 573.648 1404.71 561.084 C 1406.12 582.317 1403.32 606.939 1376.44 605.795 C 1377.17 603.043 1377.57 601.38 1378.02 598.543 C 1378.26 596.346 1378.46 595.085 1378.92 592.882 z" fill="rgb(252,178,39)" transform="translate(0,0)"></path>
<path d="M 1342.3 598.586 C 1346.76 601.215 1353.22 608.451 1356.87 612.573 C 1366.7 623.688 1365.07 633.876 1363.81 647.689 C 1342.46 639.73 1336.42 619.221 1342.3 598.586 z" fill="rgb(252,178,39)" transform="translate(0,0)"></path>
<path d="M 1339.65 565.145 C 1357.3 569.861 1363.23 575.546 1370.08 593.1 L 1372.07 593.919 C 1372.49 598.632 1372.07 601.36 1371.92 606.021 L 1370.48 605.7 C 1343.45 598.513 1344.48 589.629 1339.65 565.145 z" fill="rgb(252,178,39)" transform="translate(0,0)"></path>
<path d="M 1370.08 593.1 L 1372.07 593.919 C 1372.49 598.632 1372.07 601.36 1371.92 606.021 L 1370.48 605.7 C 1370.24 601.504 1370.11 597.303 1370.08 593.1 z" fill="rgb(249,224,175)" transform="translate(0,0)"></path>
<path d="M 708.853 598.898 C 712.327 602.702 711.449 619.311 710.358 624.016 C 708.155 633.514 697.677 642.172 689.422 646.708 C 686.767 643.364 687.178 642.536 686.801 638.541 C 685.05 620.007 696.722 610.417 708.853 598.898 z" fill="rgb(252,178,39)" transform="translate(0,0)"></path>
<path d="M 660.903 509.382 C 673.124 517.58 682.961 547.838 672.871 558.563 L 672.461 558.353 C 650.898 547.588 655.238 527.915 660.903 509.382 z" fill="rgb(252,178,39)" transform="translate(0,0)"></path>
<path d="M 1332 533.737 C 1353.97 536.938 1364.55 542.312 1369.83 564.322 C 1342.08 561.706 1338.97 559.216 1332 533.737 z" fill="rgb(252,178,39)" transform="translate(0,0)"></path>
<path d="M 686.851 548.225 C 701.11 537.4 705.044 537.742 720.763 532.099 C 715.567 548.105 714.441 554.438 699.606 562.88 C 691.576 563.007 689.965 563.09 682.141 561.583 C 683.354 555.952 684.166 553.441 686.851 548.225 z" fill="rgb(252,178,39)" transform="translate(0,0)"></path>
<path d="M 691.768 514.354 C 668.715 507.428 680.438 480.481 689.309 467.056 C 693.58 476.944 700.253 493.102 696.96 503.903 L 698.338 505.64 C 696.846 508.526 695.026 511.794 693.284 514.535 L 691.768 514.354 z" fill="rgb(252,178,39)" transform="translate(0,0)"></path>
<path d="M 696.96 503.903 L 698.338 505.64 C 696.846 508.526 695.026 511.794 693.284 514.535 L 691.768 514.354 C 693.561 511.226 695.231 507.218 696.96 503.903 z" fill="rgb(249,224,175)" transform="translate(0,0)"></path>
<path d="M 1310.99 452.427 C 1307.21 440.585 1303.27 430.704 1309.85 418.974 C 1310.94 416.078 1313.31 418.261 1314.67 420.315 C 1319.94 428.22 1328.51 438.871 1327.17 449 C 1326.26 455.862 1324.11 459.186 1317.75 461.569 L 1316.51 462.156 C 1314.16 460.168 1311.7 458.015 1309.74 455.654 L 1310.99 452.427 z" fill="rgb(252,178,39)" transform="translate(0,0)"></path>
<path d="M 1310.99 452.427 C 1313.33 456.113 1316.16 458.702 1317.75 461.569 L 1316.51 462.156 C 1314.16 460.168 1311.7 458.015 1309.74 455.654 L 1310.99 452.427 z" fill="rgb(251,250,239)" transform="translate(0,0)"></path>
<path d="M 1360.28 470.256 C 1361.38 470.667 1363.04 471.221 1363.79 472.174 C 1373.48 484.559 1378.79 499.688 1366.64 511.511 C 1357.44 513.787 1357.61 511.624 1354.63 501.001 C 1352.87 494.715 1356.1 479.144 1358.86 473.229 L 1360.28 470.256 z" fill="rgb(252,178,39)" transform="translate(0,0)"></path>
<path d="M 1669.4 1391.24 L 1673.36 1392.42 C 1675.03 1395.96 1674.26 1493.18 1673.67 1503.76 L 1669.98 1502.86 C 1667.25 1499.14 1668.72 1401.12 1669.4 1391.24 z" fill="rgb(141,17,40)" transform="translate(0,0)"></path>
<path d="M 708.662 486.021 C 693.351 471.91 702.605 454.652 712.199 440.708 C 719.652 457.203 722.183 460.336 717.152 477.644 C 712.507 480.054 712.359 483.008 708.662 486.021 z" fill="rgb(252,178,39)" transform="translate(0,0)"></path>
<path d="M 731.437 461.615 C 715.01 447.871 728.059 428.577 737.312 415.482 L 738.502 418.574 C 743.459 431.61 744.185 440.984 738.293 454.02 C 735.787 457.131 734.309 458.812 731.437 461.615 z" fill="rgb(252,178,39)" transform="translate(0,0)"></path>
<path d="M 1164.73 1582.58 C 1184.75 1591.55 1206.78 1615.82 1230.62 1608.38 C 1240 1605.46 1243.67 1594.56 1239.81 1585.59 C 1233.25 1570.31 1210.11 1578.37 1217.34 1592.72 C 1217.91 1593.86 1220.02 1595.26 1220.44 1596.47 C 1216.06 1597.37 1211.77 1590.67 1211.98 1586.5 C 1213.03 1574.28 1226.21 1569.58 1236.01 1575.18 C 1247.64 1581.84 1248.35 1599.7 1239.07 1608.05 C 1218.75 1626.33 1186.46 1595.95 1169.98 1588.45 C 1167.62 1586.5 1165.37 1585.57 1162.38 1585.18 C 1162.17 1585.11 1161.15 1584.92 1160.92 1584.49 C 1160.84 1584.35 1160.93 1584.27 1160.98 1584.12 C 1161.91 1583.49 1163.56 1583.1 1164.73 1582.58 z" fill="rgb(153,25,34)" transform="translate(0,0)"></path>
<path d="M 372.571 1392.24 L 376.403 1393.33 C 378.058 1397.48 377.357 1493.67 376.736 1504.17 L 372.626 1502.55 C 371.694 1496.59 372.017 1469.93 372.154 1462.39 C 372.564 1439.78 371.451 1414.57 372.571 1392.24 z" fill="rgb(141,17,40)" transform="translate(0,0)"></path>
<path d="M 877.698 1587.63 C 860.959 1598.77 837.12 1618 815.993 1612.96 C 810.452 1611.6 805.729 1607.99 802.956 1603 C 794.404 1587.38 807.32 1569.1 825.456 1574.14 C 839.83 1578.13 832.632 1598.74 827.355 1595.75 C 827.234 1595.21 835.627 1583.51 824.332 1578.58 C 821.172 1577.23 817.608 1577.19 814.415 1578.46 C 799.398 1584.5 802.232 1605.08 815.977 1609.17 C 839.328 1616.12 861.565 1593.33 881.972 1583.14 L 883.218 1585.31 C 880.268 1585.98 880.402 1586.03 877.698 1587.63 z" fill="rgb(153,25,34)" transform="translate(0,0)"></path>
<path d="M 1312.73 477.398 C 1323.4 475.751 1330.55 483.388 1336.99 490.566 C 1329.94 494.429 1329.24 495.102 1321.36 496.887 C 1307.76 494.827 1304.54 491.137 1295.09 480.366 C 1301.89 478.832 1305.83 478.244 1312.73 477.398 z" fill="rgb(252,178,39)" transform="translate(0,0)"></path>
<path d="M 723.748 478.921 C 735.565 478.847 766.325 476.082 742.655 492.411 C 737.838 495.734 734.78 498.069 728.514 496.749 C 721.523 495.21 717.432 494.86 716.142 487.549 C 719.024 484.318 720.451 481.919 723.748 478.921 z" fill="rgb(252,178,39)" transform="translate(0,0)"></path>
<path d="M 1303.49 453.63 C 1306.65 456.52 1309.72 459.274 1312.81 462.251 L 1311.55 463.788 C 1311.16 464.69 1310.81 465.795 1310.11 466.507 C 1298.2 478.765 1286.32 472.315 1275.46 463.472 C 1286.75 457.134 1287.86 456.531 1300.8 456.169 L 1303.49 453.63 z" fill="rgb(252,178,39)" transform="translate(0,0)"></path>
<path d="M 1303.49 453.63 C 1306.65 456.52 1309.72 459.274 1312.81 462.251 L 1311.55 463.788 C 1307.03 460.191 1306.12 458.455 1300.8 456.169 L 1303.49 453.63 z" fill="rgb(249,224,175)" transform="translate(0,0)"></path>
<path d="M 748.936 457.088 C 762.864 456.141 759.916 457.36 772.978 462.26 C 767.185 468.174 766.805 468.737 759.688 473.253 C 758.74 473.634 755.623 475.242 754.523 474.817 C 740.363 469.342 730.187 465.678 748.936 457.088 z" fill="rgb(252,178,39)" transform="translate(0,0)"></path>
<path d="M 1461.71 536.283 C 1461.86 536.373 1464.69 537.843 1464.64 538.334 C 1462.67 556.43 1468.49 616.357 1463.59 630.375 C 1462.99 629.935 1460.72 628.395 1460.72 628.115 C 1460.68 613.552 1459.93 545.9 1461.71 536.283 z" fill="rgb(153,25,34)" transform="translate(0,0)"></path>
<path d="M 586.252 537.368 C 586.485 537.464 586.718 537.559 586.951 537.654 C 586.84 537.418 588.837 538.382 588.839 538.649 C 588.948 553.333 590.468 620.205 588.685 629.891 C 588.417 629.736 588.149 629.582 587.881 629.427 C 587.822 629.554 585.357 628.026 585.359 627.673 C 585.415 615.669 583.947 545.54 586.252 537.368 z" fill="rgb(153,25,34)" transform="translate(0,0)"></path>
<path d="M 1403.51 1525 C 1430.03 1523.77 1462.68 1526.35 1490.02 1526.17 C 1482.21 1526.97 1472.5 1526.69 1465.47 1527.83 C 1450.29 1527.54 1411.44 1529.36 1398.35 1527.89 C 1400.89 1526.99 1405.93 1528.61 1403.51 1525 z" fill="rgb(243,188,96)" transform="translate(0,0)"></path>
<path d="M 1632.54 1235.53 C 1642.07 1227.89 1653.44 1222.9 1665.5 1221.06 C 1668.3 1220.67 1670.93 1220.16 1673.71 1219.83 L 1674.65 1222.96 C 1659.33 1223.87 1646.9 1227.38 1634.32 1236.47 L 1632.54 1235.53 z" fill="rgb(153,25,34)" transform="translate(0,0)"></path>
<path d="M 1713.94 1290.64 C 1715.07 1295.19 1713 1294.93 1715.66 1299.14 C 1710.63 1310.4 1701.67 1310.78 1690.75 1307.42 L 1691.34 1305.79 C 1708.4 1311.17 1711.04 1303.58 1713.94 1290.64 z" fill="rgb(153,25,34)" transform="translate(0,0)"></path>
<path d="M 1490.02 1526.17 C 1492.9 1525.77 1514.92 1525.93 1516.3 1526.76 L 1516.28 1526.88 L 1515.3 1527.27 L 1515.82 1526.89 C 1513.15 1528.36 1470.16 1528.16 1465.47 1527.83 C 1472.5 1526.69 1482.21 1526.97 1490.02 1526.17 z" fill="rgb(249,224,175)" transform="translate(0,0)"></path>
<path d="M 582.594 1527.87 C 566.229 1528.74 549.069 1526.74 532.668 1526.5 C 544.848 1526.48 560.957 1524.45 572.976 1526.09 C 577.462 1526.68 578.312 1526.7 582.594 1527.87 z" fill="rgb(249,224,175)" transform="translate(0,0)"></path>
<path d="M 1490.67 765.901 C 1498.69 764.582 1512.48 764.786 1520.71 765.195 C 1520.19 765.846 1519.66 766.496 1519.14 767.146 C 1512.53 766.716 1509.67 767.74 1503.98 767.716 C 1500.22 765.497 1495.44 766.478 1490.67 765.901 z" fill="rgb(153,25,34)" transform="translate(0,0)"></path>
<path d="M 910.258 1635.8 C 912.122 1641.68 911.304 1646.75 918.241 1649.66 C 919.266 1650.09 922.721 1651.42 922.075 1652.94 C 913.908 1651.98 906.755 1642.46 908.119 1634.08 C 909.015 1635.31 908.905 1635.36 910.258 1635.8 z" fill="rgb(189,125,127)" transform="translate(0,0)"></path>
<path d="M 997.791 1723.15 C 996.587 1725.63 985.538 1739.89 983.71 1740.09 C 983.32 1738.95 984.709 1737.43 985.381 1736.64 C 988.715 1732.77 991.69 1728.61 994.269 1724.2 C 995.217 1722.56 995.346 1722.24 996.479 1720.63 L 997.791 1723.15 z" fill="rgb(171,101,107)" transform="translate(0,0)"></path>
<path d="M 754.828 847.299 C 758.718 847.812 761.575 848.831 765.82 849.324 L 766.102 851.312 C 760.858 850.767 755.851 850.355 750.593 849.545 L 754.828 847.299 z" fill="rgb(153,25,34)" transform="translate(0,0)"></path>
<path d="M 1493.14 693.851 C 1490.72 693.37 1478.66 692.867 1478.41 692.427 L 1478.89 692.541 C 1481.37 689.743 1490.23 690.987 1493.72 691.864 L 1493.14 693.851 z" fill="rgb(189,125,127)" transform="translate(0,0)"></path>
<path d="M 965.268 889.408 C 954.504 890.133 952.919 887.549 963.077 885.281 L 965.268 889.408 z" fill="rgb(153,25,34)" transform="translate(0,0)"></path>
<path d="M 248.958 1113.84 C 253.178 1107.66 254.113 1107.11 259.895 1102.4 C 256.456 1107.09 253.467 1111.53 250.157 1116.2 L 248.958 1113.84 z" fill="rgb(189,125,127)" transform="translate(0,0)"></path>
<path d="M 573.685 785.427 C 575.246 785.618 583.61 785.972 584.238 787.555 C 581.813 788.721 575.157 787.824 572.342 787.118 L 573.685 785.427 z" fill="rgb(189,125,127)" transform="translate(0,0)"></path>
<path d="M 559.63 689.482 C 562.533 688.638 568.787 688.409 571.206 690.474 C 570.231 691.122 562.046 691.145 560.268 691.235 L 559.63 689.482 z" fill="rgb(189,125,127)" transform="translate(0,0)"></path>
<path d="M 1055.3 1727.55 C 1057.23 1730.3 1059.16 1732.96 1061.41 1735.47 L 1059.16 1735.98 C 1057.16 1733.51 1055.46 1731.58 1053.5 1728.99 L 1055.3 1727.55 z" fill="rgb(162,73,82)" transform="translate(0,0)"></path>
<path d="M 317.973 1111.9 C 316.864 1111.58 307.589 1109.76 307.587 1108.47 C 310.778 1108.02 315.514 1109.28 318.564 1110.37 L 317.973 1111.9 z" fill="rgb(201,167,167)" transform="translate(0,0)"></path>
<path d="M 1788.24 1102.68 C 1792.47 1105.98 1794.66 1107.65 1798.47 1111.47 L 1797 1113.93 C 1793.96 1109.95 1791.39 1106.62 1788.24 1102.68 z" fill="rgb(162,73,82)" transform="translate(0,0)"></path>
<path d="M 1284.63 852.543 C 1282.13 853.007 1278.45 853.718 1276.25 852.463 L 1276.06 852.701 C 1275.98 852.637 1275.91 852.574 1275.83 852.51 C 1276.7 850.863 1282.84 850.608 1284.3 850.383 L 1284.63 852.543 z" fill="rgb(201,167,167)" transform="translate(0,0)"></path>
<path d="M 1632.54 1235.53 L 1634.32 1236.47 C 1633.13 1237.51 1628.3 1242.13 1626.82 1241.47 C 1626.48 1239.61 1631.03 1236.49 1632.54 1235.53 z" fill="rgb(189,125,127)" transform="translate(0,0)"></path>
<path d="M 1475.73 789.26 C 1472.57 789.897 1470.67 789.979 1467.46 790.127 L 1466.55 789.224 C 1466.28 789.376 1466.01 789.529 1465.74 789.681 L 1465.59 789.587 C 1465.98 788.225 1473.12 787.592 1474.24 787.413 L 1475.73 789.26 z" fill="rgb(153,25,34)" transform="translate(0,0)"></path>
<path d="M 1730.33 1110.58 C 1732.13 1110.01 1736.99 1109.13 1738.3 1110.88 C 1738.36 1112.29 1732.36 1111.83 1730.89 1111.91 L 1730.33 1110.58 z" fill="rgb(201,167,167)" transform="translate(0,0)"></path>
<path d="M 357.566 1307.83 C 359.053 1307.4 365.105 1304.87 365.599 1305.5 C 364.927 1307.63 360.225 1308.95 358.262 1309.37 L 357.722 1309.49 L 357.566 1307.83 z" fill="rgb(171,101,107)" transform="translate(0,0)"></path>
<path d="M 423.745 1476.31 C 423.326 1475.22 420.505 1469.33 421.562 1468.45 C 422.764 1468.65 424.72 1472.84 425.286 1473.86 L 423.745 1476.31 z" fill="rgb(162,73,82)" transform="translate(0,0)"></path>
<path d="M 1730.33 1110.58 L 1730.89 1111.91 C 1728.78 1112.8 1726.94 1114.05 1724.96 1115.2 L 1722.83 1113.97 C 1725.8 1112.1 1726.91 1111.68 1730.33 1110.58 z" fill="rgb(153,25,34)" transform="translate(0,0)"></path>
<path d="M 1624.65 1471.58 C 1625.19 1470.55 1627.25 1466.3 1628.45 1465.73 C 1629.66 1466.29 1626.67 1472.5 1626.3 1473.34 L 1624.65 1471.58 z" fill="rgb(171,101,107)" transform="translate(0,0)"></path>
<path d="M 1690.75 1307.42 C 1689.64 1306.71 1685.61 1304.46 1685.81 1302.73 C 1687.4 1302.13 1690.26 1304.8 1691.34 1305.79 L 1690.75 1307.42 z" fill="rgb(189,125,127)" transform="translate(0,0)"></path>
<path d="M 318.564 1110.37 C 320.524 1111.38 322.494 1112.28 324.251 1113.62 L 323.142 1115.09 C 321.326 1113.94 319.879 1112.98 317.973 1111.9 L 318.564 1110.37 z" fill="rgb(171,101,107)" transform="translate(0,0)"></path>
<path d="M 1061.41 1735.47 C 1066.38 1741.31 1063.48 1740.91 1059.16 1735.98 L 1061.41 1735.47 z" fill="rgb(201,167,167)" transform="translate(0,0)"></path>
<path d="M 410.527 1227.14 C 415.499 1229.66 416.442 1232.36 410.259 1228.97 L 408.9 1228.24 L 410.527 1227.14 z" fill="rgb(201,167,167)" transform="translate(0,0)"></path>
<path d="M 554.224 690.517 C 556.064 690.141 557.772 689.8 559.63 689.482 L 560.268 691.235 C 558.808 691.635 557.432 691.955 555.961 692.3 L 554.224 690.517 z" fill="rgb(153,25,34)" transform="translate(0,0)"></path>
<path d="M 1328.61 869.468 C 1328.2 869.205 1323.41 866.402 1323.89 865.555 C 1324.99 865.2 1328.54 867.308 1329.37 867.723 L 1328.61 869.468 z" fill="rgb(162,73,82)" transform="translate(0,0)"></path>
<path d="M 765.82 849.324 C 767.185 849.431 770.211 849.691 771.252 850.494 C 770.611 851.16 766.786 851.244 766.102 851.312 L 765.82 849.324 z" fill="rgb(189,125,127)" transform="translate(0,0)"></path>
<path d="M 406.073 1224.93 L 410.527 1227.14 L 408.9 1228.24 C 407.523 1227.55 406.139 1226.88 404.748 1226.22 L 406.073 1224.93 z" fill="rgb(171,101,107)" transform="translate(0,0)"></path>
<path d="M 1137.27 1646.2 C 1135.37 1648.16 1131.13 1650.61 1134.46 1646.94 L 1135.64 1645.55 L 1137.27 1646.2 z" fill="rgb(189,125,127)" transform="translate(0,0)"></path>
<path d="M 1493.72 691.864 C 1495 692.151 1495.39 692.173 1496.72 692.3 L 1494.96 694.109 L 1493.14 693.851 L 1493.72 691.864 z" fill="rgb(153,25,34)" transform="translate(0,0)"></path>
<metadata><recraft-signature>{"signed_by": "recraft", "signature_b64": "RoiFPamcH3DXTiMcdRXV5k98xgszOk4BRUMxJot+ziyQh6oxQ53ZQqoYKIyOjCC2fxpPVYaHakMldPel3rYCBg==", "signing_algo": "Ed25519", "generation_timestamp": 1772546603, "identifier": "0dedbbca-5a3b-4fde-ba47-c3b131536eef"}</recraft-signature></metadata></svg>