<svg xmlns="http://www.w3.org/2000/svg" height="1024" preserveAspectRatio="none" style="display: block;" version="1.1" viewBox="0 0 2048 2048" width="1024">
<path d="M 0 0 L 2048 0 L 2048 2048 L 0 2048 L 0 0 z" fill="rgb(241,240,233)" transform="translate(0,0)"></path>
<path d="M 1664.19 1082.19 C 1693.22 1077.35 1712.35 1113.6 1691.99 1137.59 C 1670.01 1163.47 1644.24 1179.86 1613.7 1194.24 C 1601.18 1200.13 1588.29 1204.08 1575.71 1209.73 C 1566.36 1214.14 1556.77 1219.84 1547.79 1224.86 C 1673.23 1222.81 1807.33 1215.88 1924.87 1267.14 C 1933 1270.69 1965.95 1284.78 1970.64 1289.6 C 1964.81 1288.34 1956.04 1284.88 1950.24 1282.69 C 1864.61 1250.26 1781 1238.71 1689.5 1235.34 C 1729.54 1252.99 1770.16 1272.54 1804.4 1300.49 C 1827.12 1319.04 1864.84 1352.62 1869.37 1383.52 C 1870.33 1392.55 1866.9 1403.24 1860.43 1409.59 C 1817.92 1451.35 1800.03 1389.41 1785.88 1359.61 C 1779.78 1346.75 1774.73 1335.52 1768.25 1324.22 C 1757.17 1305.14 1743.58 1287.63 1727.84 1272.16 C 1711.23 1256.07 1680.13 1239.99 1657.26 1236.78 C 1648.29 1235.52 1624.47 1236.02 1614.22 1236.06 L 1532.57 1236.45 L 1238.49 1236.18 L 642.773 1235.97 L 484.776 1235.92 C 455.418 1235.85 426.054 1235.89 396.697 1235.81 C 363.964 1235.72 332.692 1259.89 311.026 1282.48 C 298.738 1296.05 288 1310.95 279.009 1326.9 C 265.15 1351.67 256.677 1378 240.987 1402.68 C 225.137 1427.6 199.358 1427.78 183.267 1402.93 C 168.891 1380.73 192.313 1351.03 206.814 1334.3 C 246.467 1288.57 300.369 1261.2 353.79 1235.8 C 288.686 1236.6 223.948 1245.68 161.136 1262.83 C 140.985 1268.5 121.534 1274.56 101.911 1281.83 C 95.8159 1284.08 88.3063 1286.77 81.9459 1287.7 C 89.5744 1284.23 95.9002 1280.57 103.236 1276.79 C 221.854 1215.75 364.697 1222.49 493.276 1224.61 C 493.045 1224.48 492.815 1224.35 492.584 1224.22 L 491.421 1223.59 C 472.016 1213.03 447.911 1206.97 427.694 1195.73 C 403.694 1182.39 355.059 1152.91 347.597 1126.05 C 345.307 1117.83 346.457 1109.03 350.784 1101.67 C 358.544 1088.19 378.301 1079.43 391.526 1090.05 C 401.095 1097.73 411.616 1117.06 418.487 1128.21 C 444.603 1170.57 469.73 1198.3 512.867 1224.1 L 1278.92 1224.05 L 1425.83 1224.11 C 1441.9 1224.13 1516.84 1225.68 1526.63 1222.19 C 1575.9 1204.62 1607.94 1163.24 1633.01 1119.32 C 1640.57 1106.07 1649.19 1090.01 1662.88 1082.86 L 1664.19 1082.19 z" fill="rgb(36,67,56)" transform="translate(0,0)"></path>
<path d="M 1749.4 1277.85 C 1753.6 1279.2 1769.55 1288.62 1774.26 1292.08 C 1803.57 1313.6 1847.68 1347.28 1857.54 1383.27 C 1859.58 1390.72 1854.54 1398.51 1850.55 1403.98 C 1838.64 1414.3 1829.06 1416.16 1818.94 1401.1 C 1810.02 1387.83 1804.93 1370.04 1797.33 1355.76 C 1788.51 1339.18 1780.57 1321.79 1770.6 1305.83 C 1765.51 1297.69 1755.46 1285.98 1749.4 1277.85 z" fill="rgb(241,240,233)" transform="translate(0,0)"></path>
<path d="M 297.841 1278.08 C 297.371 1281.09 274.866 1310.16 271.134 1316.51 C 254.978 1344.01 245.806 1375.02 227.566 1401.13 C 219.031 1413.36 208.377 1411.36 198.002 1403.06 C 184.519 1388.83 192.053 1373.59 201.805 1359.65 C 226.021 1325.03 261.04 1298.23 297.841 1278.08 z" fill="rgb(241,240,233)" transform="translate(0,0)"></path>
<path d="M 371.06 1098.07 C 377.606 1097.24 384.289 1097.65 388.574 1103.4 C 397.96 1116.01 405.024 1130.08 413.682 1143.3 C 426.387 1162.69 440.905 1179.41 456.209 1196.76 L 444.833 1191.17 C 424.549 1181.61 323.2 1126.26 371.06 1098.07 z" fill="rgb(241,240,233)" transform="translate(0,0)"></path>
<path d="M 1669.14 1094.07 C 1673.89 1094.84 1678.59 1095.77 1682.05 1099.33 C 1699.8 1117.56 1676.49 1138.87 1663.02 1150.14 C 1646.77 1163.74 1629.66 1173.21 1611.29 1182.46 C 1606.52 1184.64 1601.71 1186.76 1596.88 1188.82 C 1614.97 1170.63 1627.35 1150.54 1641.02 1129.1 C 1647.93 1118.26 1657.06 1098.25 1669.14 1094.07 z" fill="rgb(241,240,233)" transform="translate(0,0)"></path>
<path d="M 1040.57 731.394 C 1065.73 727.067 1113.13 733.25 1131.18 753.677 C 1154.21 779.444 1139.08 821.523 1115.34 841.519 C 1087.52 864.957 1055.75 866.431 1021.35 863.787 C 1011.62 889.319 1003.13 917.924 995.944 944.273 C 994.604 949.185 992.786 967.425 991.552 968.812 C 981.09 970.645 963.505 961.447 957.843 952.409 C 952.443 943.791 956.238 933.699 958.671 924.756 C 960.44 918.855 962.511 913.052 964.653 907.275 C 984.617 853.422 1008.69 801.455 1031.3 748.788 C 1006.98 756.39 980.206 771.511 965.979 794.239 C 962.26 800.18 963.205 812.573 959.303 815.281 C 957.047 815.427 954.666 815.699 952.965 813.848 C 940.721 800.522 938.807 782.081 950.71 768.565 C 972.576 743.735 1009.52 734.894 1040.57 731.394 z" fill="rgb(36,67,56)" transform="translate(0,0)"></path>
<path d="M 1064.27 745.871 C 1102.66 746.432 1109.45 775.073 1098.81 806.103 C 1091.86 826.407 1079.58 838.245 1060.62 847.236 C 1047.6 851.796 1039.37 852.515 1025.84 852.164 C 1034.97 823.509 1062.09 775.751 1064.27 745.871 z" fill="rgb(241,240,233)" transform="translate(0,0)"></path>
<path d="M 1775.3 990.494 C 1795.06 990.322 1814.86 990.071 1834.62 990.116 C 1839.77 990.128 1846.28 990.894 1849.35 995.472 C 1849.66 998.455 1849.24 998.546 1847.88 1001.34 C 1845.56 1003.25 1843.56 1003.21 1840.54 1003.2 C 1794.98 1003 1749.33 1003.05 1703.77 1003.06 L 1389.35 1003.1 L 273.5 1003.18 C 253.897 1003.21 234.24 1003.61 214.634 1003.54 C 208.323 1003.52 199.979 1003.57 196.503 997.641 C 196.937 994.662 197.12 994.812 198.981 992.358 C 205.636 988.972 234.071 990.949 243.03 990.915 L 348.623 990.776 L 670.339 991.012 L 1775.3 990.494 z" fill="rgb(196,175,97)" transform="translate(0,0)"></path>
<path d="M 1284.42 790.926 C 1292.54 792.267 1302.71 794.446 1299.11 804.363 C 1292.23 823.297 1251 914.473 1257.25 927.834 C 1266.75 932.276 1281.17 913.94 1288.43 913.685 C 1289.82 917.437 1289.15 922.066 1288.94 926.179 C 1276.52 938.03 1252.06 958.823 1233.13 956.116 C 1211.22 952.985 1219.09 917.822 1221.83 903.181 C 1215.75 913.501 1210.8 920.328 1203.02 929.34 C 1191.79 940.893 1173.69 957.249 1156.49 953.41 C 1130.94 947.705 1122.51 923.404 1128.64 900.193 C 1138.57 862.558 1165.54 826.357 1197.99 805.157 C 1210.82 796.774 1229.51 789.725 1244.81 793.394 C 1255.5 795.978 1260.44 803.254 1265.49 812.093 C 1271.98 804.417 1277.44 798.229 1284.42 790.926 z" fill="rgb(36,67,56)" transform="translate(0,0)"></path>
<path d="M 1236.53 810.974 C 1237.76 810.929 1240.98 810.819 1242.07 810.999 C 1245.05 811.503 1247.64 813.335 1249.11 815.979 C 1255.68 827.605 1241.53 851.337 1235.28 861.682 C 1223.43 881.319 1208.55 909.145 1187.49 919.545 C 1162.24 921.837 1176.82 887.855 1182.22 876.089 C 1192.82 853 1211.46 820.543 1236.53 810.974 z" fill="rgb(241,240,233)" transform="translate(0,0)"></path>
<path d="M 1615.84 1281.5 L 1679.92 1281.15 L 1679.76 1294.81 L 440.25 1294.76 C 421.983 1294.86 403.667 1295.05 385.401 1294.89 C 380.396 1294.85 375.033 1294.18 371.999 1289.97 C 371.942 1286.53 371.662 1286.59 373.599 1283.84 C 381.258 1280.63 414.384 1281.89 424.642 1281.87 L 513.676 1281.77 L 780.35 1282.12 L 1615.84 1281.5 z" fill="rgb(196,175,97)" transform="translate(0,0)"></path>
<path d="M 576.898 724.365 C 581.373 724.12 586.237 724.241 590.486 725.823 C 593.511 726.949 596.415 729.073 597.71 732.12 C 605.509 750.467 567.627 838.662 559.311 858.294 C 576.402 834.121 598.65 803.011 627.806 792.467 C 634.299 790.119 648.211 788.581 653.297 792.513 C 687.167 818.7 618.98 898.745 626.61 928.298 C 635.439 939.019 662.827 911.833 671.852 905.384 C 660.08 939.636 604.764 980.668 588.02 932.475 C 582.635 900.667 630.511 829.426 622.635 817.517 C 620.229 816.716 618.184 816.845 615.795 817.631 C 590.612 825.914 550.577 893.789 539.708 919.029 C 534.901 930.191 532.857 943.743 526.868 954.194 C 525.496 956.588 524.077 958.148 521.172 958.5 C 517.63 958.928 513.063 956.642 510.149 954.869 C 503.959 951.106 498.234 945.575 497.4 938.009 C 495.949 924.84 511.415 889.996 516.75 876.686 C 525.919 853.811 566.614 759.476 560.764 742.644 C 559.275 738.362 552.962 736.058 549.215 734.144 C 558.258 727.437 566.193 725.706 576.898 724.365 z" fill="rgb(36,67,56)" transform="translate(0,0)"></path>
<path d="M 357.629 734.435 C 389.314 732.417 429.518 740.118 461.653 742.608 C 493.801 745.1 499.681 745.577 531.04 737.655 C 534.416 739.997 536.263 745.295 535.233 748.996 C 528.603 772.812 474.026 767.409 458.016 765.027 C 433.329 820.767 406.812 877.23 389.489 935.806 C 386.375 946.336 384.023 957.273 381.193 967.917 C 369.9 967.86 364.772 966.894 354.815 961.995 C 344.405 954.337 341.59 945.934 346.007 933.455 C 366.846 874.592 395.542 817.997 414.335 758.297 C 382.313 751.443 327.646 746.416 319.323 789.122 C 317.656 797.675 318.489 804.084 319.354 812.611 C 303.251 806.643 290.95 791.605 289.847 774.598 C 287.54 739.022 333.669 735.713 357.629 734.435 z" fill="rgb(36,67,56)" transform="translate(0,0)"></path>
<path d="M 792.302 790.352 C 801.378 789.126 813.891 789.482 821.904 794.091 C 827.064 797.003 830.694 802.025 831.842 807.838 C 837.265 834.643 805.921 859.516 785.364 870.531 C 769.343 879.115 753.489 882.217 735.939 885.317 C 728.027 932.489 765.785 933.88 795.251 913.573 C 801.973 908.94 812.536 899.969 820.086 898.762 L 821.527 899.817 C 821.567 905.35 815.728 911.762 812.294 916.132 C 798.878 933.452 775.919 949.433 753.931 952.621 C 724.734 956.855 698.285 939.305 695.386 908.924 C 689.935 851.797 735.798 797.147 792.302 790.352 z" fill="rgb(36,67,56)" transform="translate(0,0)"></path>
<path d="M 788.491 805.002 C 802.839 803.662 803.861 814.062 799.052 824.8 C 788.86 847.56 771.826 861.925 749.247 871.369 L 739.512 874.919 C 748.957 847.106 760.961 819.158 788.491 805.002 z" fill="rgb(241,240,233)" transform="translate(0,0)"></path>
<path d="M 1694.77 783.682 C 1705.63 786.38 1716.57 794.765 1715.75 806.821 C 1712.94 848.604 1676.22 894.11 1651.5 926.349 C 1626.54 957.087 1596.65 980.851 1555.84 984.292 C 1547.33 985.01 1517.7 983.54 1521.02 969.788 C 1527.44 943.135 1553.4 959.723 1569.04 961.799 C 1597.43 965.567 1602.05 938.879 1603.44 917.247 C 1605.82 894.412 1599.47 849.551 1588.37 828.794 C 1583.34 819.399 1578.33 816.454 1568.64 813.84 C 1573.77 804.715 1577 798.141 1581.2 788.56 C 1595.77 783.342 1610.21 783.415 1618.69 797.997 C 1637.19 829.812 1637.54 891.118 1630.64 926.296 C 1657.64 895.311 1681.78 853.34 1688.45 812.181 C 1689.97 802.807 1692.34 792.869 1694.77 783.682 z" fill="rgb(36,67,56)" transform="translate(0,0)"></path>
<path d="M 1542.51 753.885 L 1545.01 754.474 C 1545.38 760.659 1533.21 789.899 1530.3 797.658 C 1537.33 797.861 1571.52 793.439 1558.46 811.016 C 1552.94 813.767 1530.53 812.582 1522.31 812.626 C 1515.37 835.322 1487.65 905.823 1495.55 924.975 C 1497.1 928.717 1499.77 931.627 1503.59 933.067 C 1514.55 937.182 1526.24 929.617 1535.93 925.493 L 1537.01 926.293 C 1541.25 936.559 1521 946.136 1513.31 949.723 C 1497.47 957.353 1467.77 965.567 1460.56 944.402 C 1448.69 909.509 1477.13 844.674 1489.2 811.054 L 1466.56 811.189 C 1466.78 805.513 1467.64 801.406 1468.67 795.879 L 1496.2 795.872 C 1499.71 786.37 1502.84 776.827 1506.42 767.274 C 1516.94 762.77 1531.58 757.872 1542.51 753.885 z" fill="rgb(36,67,56)" transform="translate(0,0)"></path>
<path d="M 1379.42 843.113 C 1390.42 826.97 1398.18 810.857 1413.98 797.771 C 1429.22 785.147 1452.75 790.108 1447.12 813.332 C 1444.71 823.282 1436.88 829.996 1428.1 835.068 C 1425.64 831.979 1418.87 822.618 1414.45 825.495 C 1397.15 836.75 1381.94 867.924 1372.52 885.67 C 1366.23 898.242 1360.35 911.287 1355.78 924.595 C 1352.52 934.113 1350.38 944.165 1346.6 953.483 C 1345.88 955.242 1345 957.306 1343.02 957.897 C 1338.53 959.236 1330.95 956.956 1326.81 955.006 C 1319.92 951.76 1315.34 945.733 1314.83 938.056 C 1313.16 913.08 1357.68 835.458 1349.6 815.383 C 1347.44 810.028 1342.52 808.337 1337.67 806.109 C 1349.6 797.502 1357.2 794.597 1371.42 791.125 C 1376.58 790.99 1384.56 790.846 1387.01 796.409 C 1392.26 808.33 1382.97 831.274 1379.42 843.113 z" fill="rgb(36,67,56)" transform="translate(0,0)"></path>
<path d="M 1818.14 1096.02 C 1845.24 1095.29 1857.01 1129.04 1841.81 1150.52 C 1816.93 1185.69 1768.06 1196.31 1728.44 1204.78 C 1720.13 1206.32 1711.23 1207.52 1702.77 1208.99 C 1730.33 1189.96 1756.62 1169 1778.08 1143.1 C 1787.99 1131.15 1794.64 1117.5 1804.54 1105.68 C 1808.5 1100.96 1812.61 1098.54 1818.14 1096.02 z" fill="rgb(196,175,97)" transform="translate(0,0)"></path>
<path d="M 1820.34 1107.86 C 1832.1 1109.8 1834.64 1117.8 1837.62 1127.98 C 1828.24 1162.53 1797.45 1172.56 1766.51 1182.32 L 1750.62 1186.44 C 1764.1 1175.71 1774.25 1166.01 1785.32 1152.82 C 1797.18 1138.7 1804.86 1116.88 1820.34 1107.86 z" fill="rgb(241,240,233)" transform="translate(0,0)"></path>
<path d="M 226.521 1097.14 C 246.906 1099.45 257.746 1129.36 269.271 1144.35 C 288.087 1168.81 311.531 1188.04 335.61 1207.02 C 328.976 1205.69 320.57 1204.65 313.755 1203.61 C 289.654 1200.03 258.737 1191.43 237.595 1180.17 C 222.04 1171.71 206.066 1158.48 201.13 1140.8 C 195.693 1121.32 207.112 1102.31 226.521 1097.14 z" fill="rgb(196,175,97)" transform="translate(0,0)"></path>
<path d="M 225.005 1109.85 C 238.323 1113.09 243.139 1128.5 250.393 1139.25 C 263.123 1158.11 276.456 1172.88 293.628 1187.72 L 281.252 1183.53 C 258.405 1175.93 207.893 1160.42 212.757 1125.19 C 213.687 1118.45 219.349 1113.31 225.005 1109.85 z" fill="rgb(241,240,233)" transform="translate(0,0)"></path>
<path d="M 1071.9 1066.96 C 1074.77 1066.94 1076.72 1067.09 1079.54 1067.33 C 1083.92 1070.56 1087.66 1083.93 1089.59 1089.39 C 1099.77 1118.24 1110.42 1146.92 1120.98 1175.64 L 1107.09 1175.58 C 1104.01 1166.56 1099.6 1155.87 1096.13 1146.84 L 1079.25 1146.47 C 1070.49 1146.27 1062.25 1146.51 1053.52 1146.77 C 1050 1155.69 1046.48 1165.86 1043.15 1174.93 L 1029.89 1174.99 C 1043.29 1138.75 1057.29 1102.74 1071.9 1066.96 z" fill="rgb(36,67,56)" transform="translate(0,0)"></path>
<path d="M 1075.53 1087.77 C 1078.52 1090.98 1088.58 1126.7 1091.82 1135.12 L 1078.25 1135.12 L 1058.63 1135.06 C 1063.96 1119.4 1069.94 1103.38 1075.53 1087.77 z" fill="rgb(241,240,233)" transform="translate(0,0)"></path>
<path d="M 715.562 1066.9 C 732.778 1066.59 758.009 1063.95 768.099 1081.15 C 772.446 1088.69 773.484 1097.69 770.969 1106.03 C 764.903 1126.38 744.801 1122.32 729.889 1126.06 C 728.833 1126.32 728.993 1129.2 728.86 1130.75 L 728.915 1175 L 715.51 1175.11 C 715.311 1139.04 715.329 1102.97 715.562 1066.9 z" fill="rgb(36,67,56)" transform="translate(0,0)"></path>
<path d="M 728.673 1078.7 C 746.941 1078.82 771.278 1086.03 754.147 1107.85 C 744.748 1113.55 739.269 1113.16 728.689 1113.15 L 728.673 1078.7 z" fill="rgb(241,240,233)" transform="translate(0,0)"></path>
<path d="M 805.41 1066.51 C 814.64 1066.44 845.133 1065.6 853.045 1067.45 C 854.598 1070.9 854.092 1075.05 854.024 1078.93 L 812.851 1078.72 L 812.799 1110.05 L 851.993 1109.91 L 851.978 1123.08 C 838.752 1122.78 825.523 1122.63 812.293 1122.61 L 812.228 1148.25 L 812.229 1162.73 L 857.041 1162.94 L 856.927 1174.92 L 799.323 1175 C 799.365 1163.68 798.85 1069.59 801 1066.78 L 805.41 1066.51 z" fill="rgb(36,67,56)" transform="translate(0,0)"></path>
<path d="M 921.767 1065.26 C 936.292 1063.7 965.018 1065.34 959.59 1086.96 C 952.036 1087.25 939.389 1072.29 920.671 1078.15 C 869.927 1094.02 886.876 1181.21 946.188 1161.47 C 952.755 1158.02 955.788 1155.25 961.496 1150.52 C 962.075 1154.57 963.244 1160.17 961.706 1164.04 C 959.612 1169.3 945.683 1174.55 940.755 1175.8 C 927.972 1178.91 914.479 1176.92 903.139 1170.25 C 867.904 1149.35 868.469 1087.14 906.468 1069.92 C 911.992 1067.42 915.965 1066.45 921.767 1065.26 z" fill="rgb(36,67,56)" transform="translate(0,0)"></path>
<path d="M 651.098 1065.13 L 652.387 1065.07 C 666.579 1064.51 671.891 1067.36 681.881 1076.51 C 679.684 1080.93 678.293 1082.76 675.343 1086.77 C 671.023 1082.56 668.389 1079.5 662.071 1077.39 C 655.466 1073.98 640.431 1080.9 640.581 1088.83 C 640.896 1105.55 671.14 1112.72 680.431 1125.58 C 690.437 1139.44 690.226 1154.7 679.588 1167.23 C 670.891 1177.47 657.724 1179.08 645.328 1177.01 C 634.622 1173.04 622.056 1163.9 624.13 1151.06 C 626.763 1147.52 626.959 1148.29 631.629 1146.19 C 634.968 1153.56 637.014 1158.5 644.293 1162.9 C 654.753 1169.23 667.403 1164.89 672.643 1154.04 C 682.407 1134.78 656.237 1124.15 643.727 1115.65 C 620.372 1099.78 621.73 1072.5 651.098 1065.13 z" fill="rgb(36,67,56)" transform="translate(0,0)"></path>
<path d="M 1288.29 1065.16 C 1303.87 1063.77 1309.61 1065.89 1322.07 1074.14 C 1320.27 1078.13 1318.01 1082.4 1316.04 1086.35 C 1305.36 1077.19 1281.73 1066.43 1279.07 1093.24 C 1280.74 1105.24 1302.64 1113.91 1310.26 1119.26 C 1337.18 1138.17 1328.37 1173.68 1295.25 1177.72 C 1280.3 1176.83 1273.65 1173.2 1263.02 1163.03 L 1271.24 1151.3 C 1274.95 1155.72 1278.6 1160.45 1283.98 1163.13 C 1295.19 1168.71 1307.94 1163.58 1311.95 1151.67 C 1316.77 1137.38 1296.32 1127.06 1286.08 1121.33 C 1270.46 1112.58 1262.04 1098.78 1269.29 1081.06 C 1272.87 1072.32 1279.89 1068.45 1288.29 1065.16 z" fill="rgb(36,67,56)" transform="translate(0,0)"></path>
<path d="M 1342.55 1066.55 C 1356.84 1066.7 1399.75 1065.57 1411.39 1067.71 L 1412.28 1069 C 1412.33 1072.49 1412.67 1073 1410.82 1075.95 C 1405.36 1080.08 1391.16 1078.12 1383.12 1078.03 C 1383.22 1101.44 1383.2 1124.84 1383.06 1148.25 L 1382.99 1175.08 L 1370.73 1175.41 L 1370.58 1077.96 L 1342.5 1077.93 L 1342.55 1066.55 z" fill="rgb(36,67,56)" transform="translate(0,0)"></path>
<path d="M 1146.01 1067.01 L 1158.33 1067.14 L 1158.3 1163.99 C 1166.8 1163.91 1186.65 1163.34 1194.18 1164.36 C 1195.46 1167.33 1195.04 1171.89 1195 1175.32 L 1145.94 1175.36 L 1146.01 1067.01 z" fill="rgb(36,67,56)" transform="translate(0,0)"></path>
<path d="M 1222.12 1066.92 L 1234.48 1066.88 C 1234.55 1103.07 1234.39 1139.25 1234 1175.43 C 1230.32 1175.64 1225.77 1175.59 1222.02 1175.65 L 1222.12 1066.92 z" fill="rgb(36,67,56)" transform="translate(0,0)"></path>
<path d="M 992.059 1066.99 C 996.147 1066.93 999.557 1066.57 1003.46 1067.73 C 1004.6 1075.63 1004.3 1092.69 1004.38 1101.12 C 1004.66 1125.77 1004.64 1150.43 1004.32 1175.07 L 991.938 1175.07 L 992.059 1066.99 z" fill="rgb(36,67,56)" transform="translate(0,0)"></path>
<metadata><recraft-signature>{"signed_by": "recraft", "signature_b64": "Bxd49aPx5FlGX8REiduj0iM5Z4gHjX925eK3fEdOP1xe+kwuogIgz5kbJ1cWNRjHp+bFzpWcboOQi6iU2EyxAw==", "signing_algo": "Ed25519", "generation_timestamp": 1772546260, "identifier": "3a2a1010-34e9-4ebb-ba13-83b36145ae1f"}</recraft-signature></metadata></svg>