<svg xmlns="http://www.w3.org/2000/svg" height="1024" preserveAspectRatio="none" style="display: block;" version="1.1" viewBox="0 0 2048 2048" width="1024">
<defs>
	<linearGradient gradientUnits="userSpaceOnUse" id="Gradient1" x1="1120.94" x2="1093.91" y1="534.165" y2="519.587">
		<stop class="stop0" offset="0" stop-color="rgb(242,240,219)" stop-opacity="1"></stop>
		<stop class="stop1" offset="1" stop-color="rgb(255,255,255)" stop-opacity="1"></stop>
	</linearGradient>
</defs>
<path d="M 0 0 L 2048 0 L 2048 2048 L 0 2048 L 0 0 z" fill="rgb(248,250,249)" transform="translate(0,0)"></path>
<path d="M 1052.3 668.519 C 1060.15 676.113 1068.74 682.414 1068.67 693.832 C 1068.59 707.859 1054.63 737.909 1045.02 747.095 C 1036.04 755.682 1016.48 766.311 1005.68 774.524 C 1065.39 767.705 1130.15 773.568 1189.97 768.755 C 1192.36 768.808 1193.58 768.604 1195.8 767.694 L 1197.4 767.077 C 1203.69 765.988 1214.32 766.519 1220.78 767.213 C 1217.65 771.329 1212.01 779.33 1207.64 781.62 C 1189.65 791.054 1170.56 798.407 1152.73 808.392 C 1139.63 815.734 1129.6 825.572 1116.44 832.368 C 1109.97 835.542 1095.9 835.573 1089.69 837.822 C 1076.09 842.749 1062.66 848.872 1048.98 853.846 C 1036.01 858.483 1023.02 863.03 1009.99 867.485 C 1007.28 868.41 990.589 873.975 988.956 875.124 C 966.704 890.772 945.292 919.406 924.217 936.3 C 922.874 911.938 906.689 889.578 889.06 873.797 C 879.485 865.33 868.861 858.13 857.449 852.375 C 865.642 845.91 881.138 834.424 886.903 826.844 C 897.965 812.297 906.209 789.991 919.639 777.433 C 928.558 769.094 941.354 759.212 951.755 752.466 C 958.698 747.964 969.975 744.489 976.593 740.67 C 991.577 732.022 1014.14 719.765 1025.91 707.526 C 1035.71 697.338 1043.51 680.236 1052.3 668.519 z" fill="rgb(4,4,3)" transform="translate(0,0)"></path>
<path d="M 890.846 631.191 C 940.768 543.744 1050.91 611.455 1125.85 613 C 1194.51 615.143 1260.78 573.529 1329.42 589.843 C 1352.43 595.311 1365.02 611.632 1376.03 630.96 C 1317.67 591.779 1230.04 635.604 1168.5 650.196 C 1137.2 657.619 1145.03 706.313 1154.05 728.803 C 1154.04 734.986 1168.85 747.075 1170.76 754.093 C 1171.25 755.034 1171.74 755.975 1172.23 756.916 C 1185.25 756.984 1210.07 761.139 1223.89 763.1 L 1220.78 767.213 C 1214.32 766.519 1203.69 765.988 1197.4 767.077 L 1195.8 767.694 C 1193.58 768.604 1192.36 768.808 1189.97 768.755 C 1188.93 765.403 1162.55 766.783 1156.98 766.156 C 1132.23 766.198 1108.25 765.598 1083.55 764.954 C 1067.5 764.536 1051.33 765.344 1035.07 764.81 C 1050.95 759.834 1083.81 756.612 1095.58 749.982 C 1115.42 738.807 1121.75 681.607 1110.17 663.366 C 1100.25 647.745 1077.56 645.841 1062.28 640.739 C 1016.65 625.5 967.518 605.299 918.992 618.163 C 909.607 620.673 899.347 626.477 890.846 631.191 z" fill="rgb(180,150,79)" transform="translate(0,0)"></path>
<path d="M 1156.98 766.156 C 1164.78 765.543 1190 765.274 1197.4 767.077 L 1195.8 767.694 C 1193.58 768.604 1192.36 768.808 1189.97 768.755 C 1188.93 765.403 1162.55 766.783 1156.98 766.156 z" fill="rgb(210,198,171)" transform="translate(0,0)"></path>
<path d="M 687.25 1337.2 C 700.573 1327.31 710.262 1323.41 727.632 1325.78 C 740.811 1327.52 754.382 1334.11 762.243 1345.12 C 775.505 1363.7 778.675 1392.06 775.116 1414.07 C 770.866 1440.35 755.644 1463.85 727.834 1468.56 C 725.236 1469.27 713.903 1469.95 711.349 1469.15 C 707.335 1469.09 706.21 1469.14 702.256 1468.37 C 688.607 1463.79 684.44 1460.67 674.186 1450.95 C 674.378 1472.58 673.758 1497.11 675.158 1518.39 C 678.578 1524.01 680.039 1525.69 685.027 1529.91 C 672.765 1534.37 652.668 1540.25 640.077 1543.78 C 644.644 1540.59 650.047 1537.49 652.903 1532.56 C 655.529 1528.03 655.647 1520.48 655.916 1515.29 C 656.933 1495.66 657.965 1362.69 654.409 1352.63 C 652.592 1347.48 647.404 1345.33 642.956 1342.96 C 652.397 1338.02 664.516 1330.24 674.024 1326.76 C 673.985 1334.15 673.584 1344.64 674.74 1351.69 C 680.289 1345.19 680.087 1344.05 687.25 1337.2 z" fill="rgb(248,250,249)" transform="translate(0,0)"></path>
<path d="M 642.956 1342.96 C 652.397 1338.02 664.516 1330.24 674.024 1326.76 C 673.985 1334.15 673.584 1344.64 674.74 1351.69 L 676.665 1353.14 C 671.802 1361.47 673.599 1375.58 673.723 1385.46 L 674.298 1439.03 C 682.312 1452.61 687.708 1459.73 702.861 1466.26 L 702.256 1468.37 C 688.607 1463.79 684.44 1460.67 674.186 1450.95 C 674.378 1472.58 673.758 1497.11 675.158 1518.39 C 678.578 1524.01 680.039 1525.69 685.027 1529.91 C 672.765 1534.37 652.668 1540.25 640.077 1543.78 C 644.644 1540.59 650.047 1537.49 652.903 1532.56 C 655.529 1528.03 655.647 1520.48 655.916 1515.29 C 656.933 1495.66 657.965 1362.69 654.409 1352.63 C 652.592 1347.48 647.404 1345.33 642.956 1342.96 z" fill="rgb(4,4,3)" transform="translate(0,0)"></path>
<path d="M 687.25 1337.2 C 700.573 1327.31 710.262 1323.41 727.632 1325.78 C 740.811 1327.52 754.382 1334.11 762.243 1345.12 C 775.505 1363.7 778.675 1392.06 775.116 1414.07 C 770.866 1440.35 755.644 1463.85 727.834 1468.56 L 728.787 1465.09 C 762.559 1441.87 763.443 1384.08 745.377 1350.39 C 734.07 1329.3 708.622 1326.39 688.916 1339.02 L 687.25 1337.2 z" fill="rgb(4,4,3)" transform="translate(0,0)"></path>
<path d="M 728.787 1465.09 L 727.834 1468.56 C 725.236 1469.27 713.903 1469.95 711.349 1469.15 C 707.335 1469.09 706.21 1469.14 702.256 1468.37 L 702.861 1466.26 C 704.838 1466.63 706.327 1467.01 708.26 1467.51 C 716.918 1466.87 720.192 1467.84 728.787 1465.09 z" fill="rgb(71,71,71)" transform="translate(0,0)"></path>
<path d="M 702.861 1466.26 C 704.838 1466.63 706.327 1467.01 708.26 1467.51 C 710.3 1468.35 710.237 1468.03 712.214 1468.56 L 712.214 1468.64 C 711.926 1468.81 711.637 1468.98 711.349 1469.15 C 707.335 1469.09 706.21 1469.14 702.256 1468.37 L 702.861 1466.26 z" fill="rgb(50,48,50)" transform="translate(0,0)"></path>
<path d="M 687.25 1337.2 L 688.916 1339.02 C 680.51 1346.59 682.586 1346.25 676.665 1353.14 L 674.74 1351.69 C 680.289 1345.19 680.087 1344.05 687.25 1337.2 z" fill="rgb(22,22,23)" transform="translate(0,0)"></path>
<path d="M 797.74 868.991 C 835.826 891.432 893.817 951.146 918.402 987.601 C 897.61 1001.74 869.768 1023.99 850.457 1040.27 C 812.285 997.355 772.731 947.921 727.046 913.803 C 746.376 899.258 776.629 881.854 797.74 868.991 z" fill="rgb(4,4,3)" transform="translate(0,0)"></path>
<path d="M 867.899 964.772 C 876.392 962.088 885.456 966.784 888.161 975.271 C 890.867 983.757 886.193 992.833 877.713 995.559 C 869.203 998.294 860.089 993.601 857.375 985.084 C 854.66 976.568 859.376 967.466 867.899 964.772 z" fill="rgb(180,150,79)" transform="translate(0,0)"></path>
<path d="M 1135.01 478.443 C 1168.9 475.05 1199.14 499.741 1202.58 533.624 C 1206.03 567.507 1181.39 597.781 1147.51 601.283 C 1113.56 604.794 1083.2 580.083 1079.74 546.122 C 1076.29 512.162 1101.05 481.843 1135.01 478.443 z" fill="rgb(180,150,79)" transform="translate(0,0)"></path>
<path d="M 1104.28 581.244 C 1077.43 545.551 1086.63 496.522 1135.2 487.773 L 1135.01 490.854 C 1106.97 502.929 1092.32 527.184 1096.35 558.458 C 1097.4 566.641 1100.98 573.775 1104.28 581.244 z" fill="url(#Gradient1)" transform="translate(0,0)"></path>
<path d="M 1135.2 487.773 L 1136.07 487.707 C 1139.06 487.458 1147.07 486.063 1149.42 487.586 L 1149.57 487.424 C 1149.99 488.336 1148.14 488.738 1147.55 488.747 C 1143.27 488.818 1139.13 489.74 1135.01 490.854 L 1135.2 487.773 z" fill="rgb(210,198,171)" transform="translate(0,0)"></path>
<path d="M 1177.16 1325.86 C 1223.96 1334.2 1220.06 1366.59 1219.96 1403.55 L 1219.8 1474.43 C 1219.78 1487.27 1219.04 1501.97 1222.01 1514.4 C 1226.16 1531.76 1241.29 1548.7 1259.35 1552.05 C 1260.07 1552.18 1260.8 1552.3 1261.52 1552.41 C 1261.13 1554.33 1259.31 1554.03 1257.39 1554.62 C 1227.9 1549.11 1206.21 1527.19 1202.22 1497.01 C 1201.04 1488.09 1201.3 1478.89 1201.25 1469.89 L 1201.13 1432.94 C 1194.68 1447.35 1189.16 1457.14 1172.9 1465.01 C 1142.84 1479.61 1097.24 1464.74 1111.81 1424.55 C 1118.92 1404.95 1153.8 1400.66 1171.88 1394.51 C 1180.38 1390.72 1189.69 1387.18 1195.56 1379.57 C 1196.22 1378.72 1196.47 1378.36 1197.29 1377.71 C 1197.6 1376.98 1197.89 1376.25 1198.17 1375.51 C 1205.12 1356.7 1196.89 1334.7 1177.13 1327.79 L 1177.16 1325.86 z" fill="rgb(4,4,3)" transform="translate(0,0)"></path>
<path d="M 1171.88 1394.51 C 1180.38 1390.72 1189.69 1387.18 1195.56 1379.57 C 1196.22 1378.72 1196.47 1378.36 1197.29 1377.71 C 1199.07 1377.65 1199.32 1377.78 1201.18 1378.13 C 1200.47 1402.46 1206.94 1430.98 1187.1 1449.61 C 1167.82 1467.72 1127.03 1463.46 1129.08 1430.5 C 1130.33 1410.44 1157.42 1402.04 1173.2 1396.38 L 1171.88 1394.51 z" fill="rgb(248,250,249)" transform="translate(0,0)"></path>
<path d="M 1171.88 1394.51 C 1180.38 1390.72 1189.69 1387.18 1195.56 1379.57 C 1196.22 1378.72 1196.47 1378.36 1197.29 1377.71 C 1199.07 1377.65 1199.32 1377.78 1201.18 1378.13 C 1192.67 1388.52 1184.81 1391.15 1173.2 1396.38 L 1171.88 1394.51 z" fill="rgb(22,22,23)" transform="translate(0,0)"></path>
<path d="M 966.607 1060.23 C 966.382 1058.41 968.002 1058.96 969.511 1058.98 C 981.012 1059.13 992.788 1058.66 1004.26 1058.98 C 1006.26 1059.65 1008.25 1060.32 1010.24 1061.02 C 1012.81 1061.1 1014.5 1061.45 1016.96 1061.63 C 1020.79 1059.54 1022.87 1060.28 1027.32 1059.91 C 1058.6 1061.95 1071 1082.18 1069.45 1110.57 C 1067.92 1138.67 1047.78 1149.96 1022.83 1153.59 C 1018.14 1155.4 996.572 1154.52 990.773 1154.45 C 990.471 1176.69 987.022 1198.43 997.61 1217.15 L 966.903 1217.17 C 970.561 1211.2 973.925 1204.22 974.175 1197.16 C 974.925 1175.98 974.638 1154.66 974.573 1133.37 C 974.513 1114.03 975.144 1092.99 973.498 1073.82 C 973.061 1068.72 969.739 1064.03 966.607 1060.23 z" fill="rgb(248,250,249)" transform="translate(0,0)"></path>
<path d="M 966.607 1060.23 C 973.228 1059.51 983.372 1059.83 990.181 1059.93 C 990.02 1082.18 989.99 1104.43 990.091 1126.68 C 990.135 1135.62 989.439 1145.78 990.773 1154.45 C 990.471 1176.69 987.022 1198.43 997.61 1217.15 L 966.903 1217.17 C 970.561 1211.2 973.925 1204.22 974.175 1197.16 C 974.925 1175.98 974.638 1154.66 974.573 1133.37 C 974.513 1114.03 975.144 1092.99 973.498 1073.82 C 973.061 1068.72 969.739 1064.03 966.607 1060.23 z" fill="rgb(4,4,3)" transform="translate(0,0)"></path>
<path d="M 1027.32 1059.91 C 1058.6 1061.95 1071 1082.18 1069.45 1110.57 C 1067.92 1138.67 1047.78 1149.96 1022.83 1153.59 L 1021.92 1151.38 C 1052.07 1140.8 1061.66 1108.29 1046.74 1080.61 C 1040.54 1069.12 1029.01 1064.87 1016.96 1061.63 C 1020.79 1059.54 1022.87 1060.28 1027.32 1059.91 z" fill="rgb(4,4,3)" transform="translate(0,0)"></path>
<path d="M 966.607 1060.23 C 966.382 1058.41 968.002 1058.96 969.511 1058.98 C 981.012 1059.13 992.788 1058.66 1004.26 1058.98 C 1006.26 1059.65 1008.25 1060.32 1010.24 1061.02 C 1003.65 1060.97 997.69 1060.89 991.081 1060.98 L 991.019 1152.93 C 1005.38 1153.16 1008.16 1152.94 1021.92 1151.38 L 1022.83 1153.59 C 1018.14 1155.4 996.572 1154.52 990.773 1154.45 C 989.439 1145.78 990.135 1135.62 990.091 1126.68 C 989.99 1104.43 990.02 1082.18 990.181 1059.93 C 983.372 1059.83 973.228 1059.51 966.607 1060.23 z" fill="rgb(98,96,95)" transform="translate(0,0)"></path>
<path d="M 1154.05 728.803 C 1167.69 714.757 1180.69 689.58 1191.65 672.757 C 1203.87 654.006 1210.81 641.333 1236.62 640.584 C 1239.21 640.509 1238.95 640.979 1240.41 642.766 C 1239.65 653.199 1206.83 709.569 1199.44 719.617 C 1201.21 719.52 1201.99 719.259 1203.43 718.237 L 1204.89 717.273 C 1223.38 701.325 1249.51 677.166 1269.85 663.658 C 1272.81 661.691 1292.28 657.938 1297.92 656.145 L 1304.14 663.236 C 1287.4 689.497 1268.77 706.638 1248.17 729.241 C 1241.65 736.395 1229.35 754.299 1223.89 763.1 C 1210.07 761.139 1185.25 756.984 1172.23 756.916 C 1171.74 755.975 1171.25 755.034 1170.76 754.093 C 1168.85 747.075 1154.04 734.986 1154.05 728.803 z" fill="rgb(4,4,3)" transform="translate(0,0)"></path>
<path d="M 1199.44 719.617 C 1201.21 719.52 1201.99 719.259 1203.43 718.237 L 1204.89 717.273 C 1199.35 723.355 1195.64 726.787 1188.82 731.304 C 1190.96 728.906 1197.38 721.346 1199.44 719.617 z" fill="rgb(166,168,167)" transform="translate(0,0)"></path>
<path d="M 918.427 1412.77 C 913.622 1431.59 902.831 1453.25 885.436 1461.6 C 822.37 1491.88 776.559 1433.09 795.525 1372.69 C 807.26 1335.32 840.876 1316.96 876.34 1328.67 C 888.828 1332.83 899.159 1341.77 905.079 1353.53 C 908.888 1361.1 910.539 1369.5 912.432 1377.72 C 905.858 1377.83 898.847 1378.08 892.314 1378.03 C 869.717 1377.87 832.489 1379.29 811.356 1377.81 C 808.364 1381.27 809.007 1390.12 809.309 1394.78 C 810.472 1412.77 816.424 1430.82 830.467 1442.93 C 840.845 1451.79 854.395 1456.03 867.975 1454.66 C 893.797 1452.05 907.376 1433.83 918.427 1412.77 z" fill="rgb(4,4,3)" transform="translate(0,0)"></path>
<path d="M 811.351 1375.86 C 808.361 1347.58 843.447 1313.85 871.02 1333.11 C 886.604 1344 889.485 1358.67 891.263 1376.02 L 892.314 1378.03 C 869.717 1377.87 832.489 1379.29 811.356 1377.81 L 811.351 1375.86 z" fill="rgb(248,250,249)" transform="translate(0,0)"></path>
<path d="M 891.263 1376.02 L 892.314 1378.03 C 869.717 1377.87 832.489 1379.29 811.356 1377.81 L 811.351 1375.86 C 837.351 1376.69 865.098 1375.55 891.263 1376.02 z" fill="rgb(22,22,23)" transform="translate(0,0)"></path>
<path d="M 575.228 1517.38 C 615.469 1509.29 635.084 1463.73 613.755 1428.83 C 585.683 1380.81 488.858 1378.42 506.087 1306.49 C 519.512 1250.44 580.564 1265.47 620.378 1274.47 C 621.235 1291.92 620.285 1309.65 621.414 1327.34 L 619.283 1327.73 C 612.041 1296.48 599.469 1271.09 563.701 1267.65 C 560.79 1268.09 560.629 1268.01 557.724 1267.43 C 544.664 1269.37 529.004 1273.64 521.896 1285.24 C 504.494 1313.65 518.295 1332.54 541.437 1347.54 C 577.154 1370.68 624.546 1383.21 634.113 1429.84 C 638.274 1450.08 635.738 1472.78 624.064 1490.11 C 613.961 1505.02 598.278 1515.24 580.553 1518.46 C 579.084 1518.73 577.528 1519.03 576.052 1519.2 L 575.228 1517.38 z" fill="rgb(4,4,3)" transform="translate(0,0)"></path>
<path d="M 557.724 1267.43 C 560.056 1266.27 561.683 1265.78 563.701 1267.65 C 560.79 1268.09 560.629 1268.01 557.724 1267.43 z" fill="rgb(71,71,71)" transform="translate(0,0)"></path>
<path d="M 1051.47 1420.58 C 1044.99 1437.17 1033.6 1457.27 1016.33 1463.97 C 923.318 1500.06 896.059 1363.69 968.912 1329.06 C 991.726 1319.99 1027.9 1327.35 1035.97 1352.81 C 1045.2 1381.95 993.948 1383.53 1019.3 1344.83 C 1016.76 1340.05 1013.61 1334.83 1008.91 1332.24 C 989.233 1321.99 966.503 1329.76 954.8 1348.75 C 928.928 1390.74 950.272 1465.02 1010.58 1451.21 C 1029.9 1446.78 1040.07 1434.75 1050.08 1418.26 L 1051.47 1420.58 z" fill="rgb(4,4,3)" transform="translate(0,0)"></path>
<path d="M 1271.35 1260.84 C 1274.47 1261.58 1273.29 1277.24 1273.29 1281.57 L 1273.54 1391.32 C 1273.62 1410.73 1270.35 1453.29 1282.02 1468.16 L 1245.64 1468.04 C 1248.22 1464.85 1250.9 1461.12 1252.41 1457.3 C 1256.44 1447.07 1256.58 1294.76 1251.52 1283.94 C 1249.32 1279.26 1247.14 1278.86 1242.59 1277.31 C 1248.65 1272.65 1264.01 1264.82 1271.35 1260.84 z" fill="rgb(4,4,3)" transform="translate(0,0)"></path>
<path d="M 1459.56 1329.42 C 1473.25 1320.95 1486.95 1312.87 1495.58 1298.4 C 1496.85 1296.27 1498.73 1291.11 1500.34 1287.98 C 1501.6 1290.02 1501.12 1290.96 1501.15 1293.79 C 1502 1303.92 1501.66 1316.63 1501.64 1326.98 C 1507.93 1326.96 1531.3 1326.32 1535.74 1328.46 C 1524.86 1329.77 1512.7 1329.54 1501.58 1329.81 L 1501.95 1400.4 C 1501.98 1406.54 1502.38 1428.76 1501.53 1433.79 C 1502.21 1446.54 1507.08 1457.92 1520.62 1461.33 C 1526.9 1462.86 1533.52 1461.86 1539.06 1458.55 C 1552.95 1450.25 1549.42 1440.42 1554.42 1434.25 L 1555.32 1435.35 C 1553.14 1465.52 1515.75 1482.06 1493.59 1462.04 C 1480.37 1450.09 1482.98 1414.38 1483.01 1396.11 L 1483.15 1330.07 L 1459.56 1329.42 z" fill="rgb(4,4,3)" transform="translate(0,0)"></path>
<path d="M 1501.15 1293.79 C 1502 1303.92 1501.66 1316.63 1501.64 1326.98 C 1507.93 1326.96 1531.3 1326.32 1535.74 1328.46 C 1524.86 1329.77 1512.7 1329.54 1501.58 1329.81 L 1501.95 1400.4 C 1501.98 1406.54 1502.38 1428.76 1501.53 1433.79 C 1499.75 1428.88 1500.47 1306.25 1501.15 1293.79 z" fill="rgb(98,96,95)" transform="translate(0,0)"></path>
<path d="M 1150.33 1145.02 C 1151.46 1145.98 1152.27 1146.55 1153.49 1147.43 C 1154.51 1154.53 1154.03 1181 1152.13 1187.58 L 1153.26 1190.9 C 1150.32 1194.6 1148.47 1199.56 1145.88 1202.29 C 1131.37 1219.76 1095.74 1228.87 1082.5 1204.03 C 1079.54 1198.47 1080.69 1187.33 1083.37 1181.62 C 1091.02 1165.28 1115.39 1162.83 1131.22 1157.18 C 1140.72 1152.91 1142.96 1152.22 1150.33 1145.02 z" fill="rgb(248,250,249)" transform="translate(0,0)"></path>
<path d="M 1131.22 1157.18 L 1131.89 1158.91 C 1118.75 1164.42 1105.01 1165.61 1098.56 1180.37 C 1094.12 1190.53 1097.1 1203.94 1107.99 1208.22 C 1120.5 1213.14 1133.15 1209.68 1142.75 1201.12 L 1145.88 1202.29 C 1131.37 1219.76 1095.74 1228.87 1082.5 1204.03 C 1079.54 1198.47 1080.69 1187.33 1083.37 1181.62 C 1091.02 1165.28 1115.39 1162.83 1131.22 1157.18 z" fill="rgb(4,4,3)" transform="translate(0,0)"></path>
<path d="M 1150.33 1145.02 C 1151.46 1145.98 1152.27 1146.55 1153.49 1147.43 C 1144.89 1152.57 1142.12 1155.4 1131.89 1158.91 L 1131.22 1157.18 C 1140.72 1152.91 1142.96 1152.22 1150.33 1145.02 z" fill="rgb(22,22,23)" transform="translate(0,0)"></path>
<path d="M 1152.13 1187.58 L 1153.26 1190.9 C 1150.32 1194.6 1148.47 1199.56 1145.88 1202.29 L 1142.75 1201.12 C 1147.53 1195.52 1147.84 1194.27 1151.66 1188.3 L 1152.13 1187.58 z" fill="rgb(22,22,23)" transform="translate(0,0)"></path>
<path d="M 826.875 858.239 C 866.633 853.767 907.929 899.954 915.012 936.496 C 917.289 948.242 915.838 951.284 907.187 959.358 C 897.426 958.312 883.898 932.411 878.253 923.385 C 862.748 898.598 838.905 890.128 818.316 870.978 C 820.244 866.746 821.845 862.438 825.518 859.391 L 826.875 858.239 z" fill="rgb(180,150,79)" transform="translate(0,0)"></path>
<path d="M 569.875 1059.72 C 580.115 1057.87 680.328 1057.98 688.904 1059.55 C 688.882 1069.66 688.428 1082.98 689.374 1092.78 L 686.843 1091.02 C 680.931 1074.78 673.4 1067.29 657.284 1061.61 C 650.312 1061 644.182 1060.9 637.18 1060.79 L 637.112 1149.59 C 637.071 1171.18 633.638 1198.69 645.247 1217.1 L 613.295 1216.94 C 619.023 1209.33 621.02 1204.9 621.161 1195.09 C 620.376 1180.51 620.891 1161.38 620.909 1146.64 L 621.043 1060.47 C 615.224 1061.1 611.573 1061.03 605.671 1060.77 L 604.177 1060.64 C 584.452 1065.84 578.772 1071.87 572.445 1090.79 C 572.219 1091.91 572.087 1092.94 571.927 1094.06 L 569.346 1095.52 C 570.817 1086.36 569.497 1069.59 570.935 1063.31 L 569.875 1059.72 z" fill="rgb(4,4,3)" transform="translate(0,0)"></path>
<path d="M 688.904 1059.55 C 688.882 1069.66 688.428 1082.98 689.374 1092.78 L 686.843 1091.02 C 680.931 1074.78 673.4 1067.29 657.284 1061.61 C 658.456 1059.14 683.868 1060.06 688.904 1059.55 z" fill="rgb(4,4,3)" transform="translate(0,0)"></path>
<path d="M 569.875 1059.72 C 581.138 1060.38 593.126 1059.38 604.177 1060.64 C 584.452 1065.84 578.772 1071.87 572.445 1090.79 C 572.219 1091.91 572.087 1092.94 571.927 1094.06 L 569.346 1095.52 C 570.817 1086.36 569.497 1069.59 570.935 1063.31 L 569.875 1059.72 z" fill="rgb(4,4,3)" transform="translate(0,0)"></path>
<path d="M 570.935 1063.31 C 572.209 1071.41 569.987 1086.13 572.445 1090.79 C 572.219 1091.91 572.087 1092.94 571.927 1094.06 L 569.346 1095.52 C 570.817 1086.36 569.497 1069.59 570.935 1063.31 z" fill="rgb(22,22,23)" transform="translate(0,0)"></path>
<path d="M 569.875 1059.72 C 580.115 1057.87 680.328 1057.98 688.904 1059.55 C 683.868 1060.06 658.456 1059.14 657.284 1061.61 C 650.312 1061 644.182 1060.9 637.18 1060.79 C 632.645 1059.62 626.879 1060.05 622.068 1060.11 L 621.758 1150.42 C 621.757 1159.48 622.291 1188.22 621.161 1195.09 C 620.376 1180.51 620.891 1161.38 620.909 1146.64 L 621.043 1060.47 C 615.224 1061.1 611.573 1061.03 605.671 1060.77 L 604.177 1060.64 C 593.126 1059.38 581.138 1060.38 569.875 1059.72 z" fill="rgb(98,96,95)" transform="translate(0,0)"></path>
<path d="M 605.671 1060.77 C 611.448 1059.63 615.206 1059.5 621.043 1060.47 C 615.224 1061.1 611.573 1061.03 605.671 1060.77 z" fill="rgb(166,168,167)" transform="translate(0,0)"></path>
<path d="M 1428.54 1463.59 C 1432.37 1461.58 1439.89 1455.91 1441.28 1451.69 C 1456.55 1405.35 1370.88 1412.17 1359.67 1374.98 C 1353 1352.85 1364.13 1333.97 1384.6 1327.36 L 1385.34 1329.23 C 1371.9 1336.07 1367.46 1350.43 1375.27 1363.47 C 1394.38 1395.42 1464.7 1388.86 1451.51 1440.22 C 1448.35 1452.79 1441.49 1459.6 1430.3 1465.39 L 1428.54 1463.59 z" fill="rgb(4,4,3)" transform="translate(0,0)"></path>
<path d="M 720.984 1046.17 C 720.734 1072.59 721.875 1105.18 720.571 1130.99 L 722.929 1132.56 C 722.418 1133.59 721.893 1134.61 721.355 1135.63 L 723.317 1137.03 L 722.745 1138.44 C 718.725 1148.13 721.34 1173.81 720.655 1185.48 C 719.973 1197.1 720.943 1207.38 727.925 1217.01 L 697.893 1217.01 C 700.28 1214.29 704.473 1208.81 704.646 1205.13 C 706.713 1161.35 704.666 1117.05 705.165 1073.16 C 705.248 1065.92 703.404 1065.05 698.517 1060.58 L 697.417 1059.58 C 701.15 1055.61 715.631 1048.69 720.984 1046.17 z" fill="rgb(4,4,3)" transform="translate(0,0)"></path>
<path d="M 720.571 1130.99 L 722.929 1132.56 C 722.418 1133.59 721.893 1134.61 721.355 1135.63 C 720.997 1133.9 720.821 1132.77 720.571 1130.99 z" fill="rgb(248,250,249)" transform="translate(0,0)"></path>
<path d="M 844.519 1105.29 C 849.307 1103.48 858.883 1101.47 863.765 1102.61 C 891.5 1104.52 900.787 1119.62 906.975 1144.21 C 902.412 1144.42 894.023 1144.91 889.621 1144.3 C 869.816 1143.84 846.847 1145.28 825.339 1144.8 L 825.509 1142.87 C 823.99 1130.78 835.318 1113.95 845.561 1107.39 L 844.519 1105.29 z" fill="rgb(248,250,249)" transform="translate(0,0)"></path>
<path d="M 863.765 1102.61 C 891.5 1104.52 900.787 1119.62 906.975 1144.21 C 902.412 1144.42 894.023 1144.91 889.621 1144.3 L 889.153 1142.17 C 888.821 1124.27 880.807 1108.89 862.404 1104.59 C 862.86 1103.29 862.717 1103.35 863.765 1102.61 z" fill="rgb(4,4,3)" transform="translate(0,0)"></path>
<path d="M 825.509 1142.87 C 844.073 1142.6 861.2 1143.12 880 1142.5 L 889.153 1142.17 L 889.621 1144.3 C 869.816 1143.84 846.847 1145.28 825.339 1144.8 L 825.509 1142.87 z" fill="rgb(98,96,95)" transform="translate(0,0)"></path>
<path d="M 844.519 1105.29 C 849.307 1103.48 858.883 1101.47 863.765 1102.61 C 862.717 1103.35 862.86 1103.29 862.404 1104.59 L 859.226 1104.78 C 858.557 1104.72 857.887 1104.67 857.218 1104.62 C 851.621 1105.12 851.066 1105.12 845.561 1107.39 L 844.519 1105.29 z" fill="rgb(50,48,50)" transform="translate(0,0)"></path>
<path d="M 1327.63 1333 C 1331.81 1338.04 1325.49 1443.34 1330.49 1456.58 C 1332.05 1460.71 1335.11 1464.36 1337.67 1467.88 C 1325.04 1467.61 1311.22 1468.02 1298.51 1468.17 C 1303.08 1463.33 1308.68 1456.81 1309.27 1449.91 C 1310.91 1430.56 1309.94 1410.82 1310.21 1391.38 C 1310.36 1380.7 1310.5 1369.5 1309.26 1358.92 C 1308.71 1354.26 1302.62 1351.04 1298.98 1348.65 C 1306.52 1342.83 1318.78 1337.27 1327.63 1333 z" fill="rgb(4,4,3)" transform="translate(0,0)"></path>
<path d="M 1084.73 1330.74 C 1093.25 1361.73 1074.13 1445.54 1095.45 1467.92 C 1082.05 1467.6 1070.08 1467.53 1056.71 1468.19 C 1060.71 1464.28 1066.91 1457.79 1066.93 1451.7 C 1067.02 1420.77 1068.86 1388.95 1066 1358.19 C 1065.59 1353.71 1058.36 1350.44 1054.86 1348.65 C 1064.78 1343.14 1075.03 1336.7 1084.73 1330.74 z" fill="rgb(4,4,3)" transform="translate(0,0)"></path>
<path d="M 1302.85 1070.42 C 1302.74 1081.58 1302.79 1092.74 1303.01 1103.9 L 1302.91 1106.27 L 1302.9 1158.33 C 1302.85 1173.18 1300.79 1191.23 1307.95 1204.57 C 1314.36 1216.5 1328.06 1215.15 1336.93 1206.68 L 1339.11 1207.59 C 1326.32 1223.91 1308.28 1220.94 1293.27 1209.76 C 1285.64 1192.17 1287.45 1177.79 1287.45 1159.07 L 1287.38 1107.34 L 1272.04 1104.44 C 1288.39 1092.79 1294.62 1089.07 1302.85 1070.42 z" fill="rgb(4,4,3)" transform="translate(0,0)"></path>
<path d="M 911.73 1172.61 C 901.495 1203.28 878.791 1227.71 843.593 1216.58 C 831.418 1212.8 821.383 1204.09 815.93 1192.57 C 800.929 1161.25 810.814 1120.17 844.519 1105.29 L 845.561 1107.39 C 835.318 1113.95 823.99 1130.78 825.509 1142.87 L 825.339 1144.8 C 822.938 1149.98 824.068 1161.49 824.992 1167.2 C 829.054 1192.26 848.831 1212.41 875.61 1205.69 C 894.214 1201.02 902.439 1187.5 911.73 1172.61 z" fill="rgb(4,4,3)" transform="translate(0,0)"></path>
<path d="M 728.97 1123.44 C 749.886 1097.37 788.962 1091.34 789.426 1134.07 C 789.677 1157.25 787.229 1183.65 790.829 1206.62 C 791.301 1209.63 794.93 1214.47 796.776 1216.95 L 766.683 1217.29 C 775.385 1206.58 774.293 1190.63 774.166 1177.35 C 774.006 1160.74 775.109 1142.51 773.79 1126.09 C 772.01 1103.93 741.705 1114.27 731.115 1124.3 L 728.97 1123.44 z" fill="rgb(4,4,3)" transform="translate(0,0)"></path>
<path d="M 1348.76 1103.55 C 1359.56 1102.87 1373.08 1103.4 1384.58 1102.95 C 1382.88 1105.84 1378.22 1113.15 1378.68 1115.96 C 1382.74 1140.68 1405.33 1180.59 1410.94 1203.47 L 1411.29 1204.95 L 1412.79 1205.07 L 1414.33 1206.31 L 1409.25 1220.73 C 1408.24 1219.61 1407.98 1219.46 1407.31 1218.14 C 1406.54 1217.93 1402.04 1216.64 1401.67 1216.15 C 1396.64 1209.49 1394.51 1202.41 1391.27 1194.83 C 1379.7 1167.72 1371.75 1138.07 1357.76 1112.2 C 1356.15 1109.22 1351.41 1105.61 1348.76 1103.55 z" fill="rgb(4,4,3)" transform="translate(0,0)"></path>
<path d="M 1191.27 1118.96 C 1199.15 1114.79 1206.84 1109.79 1214.96 1105.45 C 1215 1114.17 1214.67 1126.95 1215.81 1135.28 L 1217.76 1137.3 C 1217.28 1138.75 1215.63 1143.67 1215.54 1145.24 C 1214.46 1164.93 1213.16 1189.03 1216.38 1208.37 C 1216.7 1210.32 1220.21 1215.58 1221.27 1217.16 C 1215.96 1217.23 1195.28 1218.18 1192.04 1215.83 C 1205.8 1202.27 1198.54 1148.53 1199.38 1128.66 C 1199.55 1124.54 1194.39 1121.33 1191.27 1118.96 z" fill="rgb(4,4,3)" transform="translate(0,0)"></path>
<path d="M 1139.03 1103.36 C 1180.92 1112.8 1166.79 1154.98 1169.2 1186.88 C 1170.29 1201.28 1164.95 1202.04 1176.45 1212.92 C 1163.29 1230.05 1154.48 1208.82 1153.65 1196.5 L 1153.26 1190.9 L 1152.13 1187.58 C 1154.03 1181 1154.51 1154.53 1153.49 1147.43 C 1152.27 1146.55 1151.46 1145.98 1150.33 1145.02 C 1157.77 1130.66 1152.8 1113.36 1138.47 1105.53 L 1139.03 1103.36 z" fill="rgb(4,4,3)" transform="translate(0,0)"></path>
<path d="M 1298.9 1538.52 C 1292.97 1533.22 1289.07 1530.77 1288.14 1522.5 C 1287.16 1513.69 1294.48 1506.16 1302.99 1505.94 C 1317.81 1505.56 1320.86 1526.98 1310.29 1535.29 C 1298.8 1544.32 1288.3 1553.03 1273.27 1554.09 C 1267.43 1555.31 1263.44 1555.25 1257.39 1554.62 C 1259.31 1554.03 1261.13 1554.33 1261.52 1552.41 C 1264.96 1552.03 1265.55 1551.84 1268.9 1552.62 C 1271.95 1552.15 1274.99 1551.58 1278 1550.92 C 1286.72 1549.02 1292.59 1544.41 1298.9 1538.52 z" fill="rgb(4,4,3)" transform="translate(0,0)"></path>
<path d="M 1261.52 1552.41 C 1264.96 1552.03 1265.55 1551.84 1268.9 1552.62 C 1267.54 1553.44 1265.48 1554.02 1263.96 1553.49 C 1264.42 1553.69 1264.04 1553.59 1265.59 1553.6 L 1265.68 1553.4 C 1268.5 1553.54 1270.46 1553.73 1273.27 1554.09 C 1267.43 1555.31 1263.44 1555.25 1257.39 1554.62 C 1259.31 1554.03 1261.13 1554.33 1261.52 1552.41 z" fill="rgb(71,71,71)" transform="translate(0,0)"></path>
<path d="M 540.655 1418.91 C 546.978 1411.62 555.329 1403.95 565.843 1410.55 C 569.408 1412.78 571.877 1416.4 572.652 1420.54 C 574.081 1428.09 568.293 1436.31 560.499 1437.08 C 546.217 1438.51 545.214 1430.81 540.161 1420.89 L 540.655 1418.91 z" fill="rgb(4,4,3)" transform="translate(0,0)"></path>
<path d="M 1150.01 1328.35 L 1150.72 1330.79 C 1143.99 1336.58 1143.61 1337.95 1140.28 1345.84 C 1144.5 1352.24 1149.21 1356.22 1147.18 1364.52 C 1144.92 1373.76 1129.18 1377.3 1125.03 1367.48 C 1118.07 1351.04 1132.05 1335.75 1146.49 1329.77 L 1150.01 1328.35 z" fill="rgb(4,4,3)" transform="translate(0,0)"></path>
<path d="M 1315.42 1283.1 C 1326.36 1284.06 1336.46 1292.09 1331.08 1303.52 C 1329.41 1307.12 1326.34 1309.88 1322.58 1311.17 C 1322.28 1311.26 1321.99 1311.35 1321.69 1311.44 L 1319.93 1312.01 C 1294.57 1309.92 1300.23 1287.23 1313.46 1283.67 L 1315.42 1283.1 z" fill="rgb(4,4,3)" transform="translate(0,0)"></path>
<path d="M 1069.9 1284.03 C 1091.32 1283.46 1094.64 1303.93 1079.95 1310.47 L 1078.54 1311.12 C 1067.63 1311.23 1056.65 1309.17 1059.8 1293.45 C 1060.67 1289.09 1066.03 1285.91 1069.9 1284.03 z" fill="rgb(4,4,3)" transform="translate(0,0)"></path>
<path d="M 1352.85 1439.07 C 1352.55 1436.44 1351.35 1414.71 1352.61 1413.91 C 1353.96 1414.61 1354.15 1416.84 1354.49 1418.14 C 1364.35 1440.81 1370.43 1459.87 1397.22 1467.53 L 1395.74 1469.49 C 1378.19 1466.73 1367.06 1462.85 1352.42 1452.76 C 1352.4 1448.63 1352.53 1443.18 1352.85 1439.07 z" fill="rgb(4,4,3)" transform="translate(0,0)"></path>
<path d="M 1352.85 1439.07 C 1352.55 1436.44 1351.35 1414.71 1352.61 1413.91 C 1353.96 1414.61 1354.15 1416.84 1354.49 1418.14 C 1352.4 1422.52 1353.77 1431.99 1352.85 1439.07 z" fill="rgb(22,22,23)" transform="translate(0,0)"></path>
<path d="M 1223.53 1119.67 C 1230.28 1110.45 1234.97 1105.68 1246.84 1103.55 C 1252.67 1102.5 1261.49 1106.19 1262.04 1112.49 C 1262.31 1115.5 1261.36 1118.49 1259.41 1120.8 C 1257.51 1123.05 1254.82 1123.65 1252.01 1123.74 C 1238.36 1124.19 1237.63 1110.02 1225.03 1120.95 L 1223.53 1119.67 z" fill="rgb(4,4,3)" transform="translate(0,0)"></path>
<path d="M 1116.78 1105.48 C 1109.47 1110.16 1102.4 1114.37 1108.93 1123.55 C 1118.38 1136.83 1098.56 1150.4 1092.42 1134.38 C 1086.15 1118.04 1102.76 1108.57 1116.2 1103.79 L 1116.78 1105.48 z" fill="rgb(4,4,3)" transform="translate(0,0)"></path>
<path d="M 1384.72 1276.53 C 1380.97 1280.59 1376.27 1286.19 1370.51 1286.83 C 1362.99 1287.24 1354.91 1282.03 1354.53 1274 C 1353.03 1268.22 1361.5 1262.43 1366.49 1263.69 C 1377.68 1266.53 1371.77 1272.35 1384.9 1272.95 L 1384.72 1276.53 z" fill="rgb(4,4,3)" transform="translate(0,0)"></path>
<path d="M 1394.49 1324.84 C 1421.92 1325.99 1418.04 1324.22 1443.39 1334.02 C 1443.15 1345.2 1443.89 1358.26 1443.29 1368.75 C 1433.06 1345.13 1426.7 1323.1 1394.29 1327.46 L 1394.49 1324.84 z" fill="rgb(4,4,3)" transform="translate(0,0)"></path>
<path d="M 524.101 1509.22 C 486.354 1485.25 489.727 1419.1 540.655 1418.91 L 540.161 1420.89 C 510.361 1423.61 498.9 1441.76 502.041 1471.5 C 503.656 1486.8 512.079 1497.75 524.384 1506.7 L 524.101 1509.22 z" fill="rgb(22,22,23)" transform="translate(0,0)"></path>
<path d="M 1443.5 1113.61 C 1444.77 1116.24 1445.09 1115.37 1448.05 1115.76 C 1442.93 1123.5 1441.73 1131.22 1438.44 1139.87 C 1430.51 1160.73 1423.39 1186.11 1414.33 1206.31 L 1412.79 1205.07 L 1433.46 1147.63 C 1437.59 1135.89 1441.76 1126.78 1443.38 1114.47 L 1443.5 1113.61 z" fill="rgb(50,48,50)" transform="translate(0,0)"></path>
<path d="M 1438.15 1104.22 C 1438.04 1104.57 1438.32 1103.36 1438.5 1103.35 C 1441.33 1103.06 1468.45 1102.63 1469.24 1103.63 C 1469.12 1104.97 1464.55 1105.23 1463.84 1105.34 C 1456.62 1108.55 1453.74 1109.99 1448.05 1115.76 C 1445.09 1115.37 1444.77 1116.24 1443.5 1113.61 C 1441.63 1108.42 1441.55 1108.73 1438.15 1104.22 z" fill="rgb(4,4,3)" transform="translate(0,0)"></path>
<path d="M 1438.15 1104.22 C 1438.04 1104.57 1438.32 1103.36 1438.5 1103.35 C 1441.33 1103.06 1468.45 1102.63 1469.24 1103.63 C 1469.12 1104.97 1464.55 1105.23 1463.84 1105.34 C 1459.9 1103.38 1443 1103.96 1438.15 1104.22 z" fill="rgb(71,71,71)" transform="translate(0,0)"></path>
<path d="M 1407.31 1218.14 C 1407.98 1219.46 1408.24 1219.61 1409.25 1220.73 C 1408.93 1222.51 1408.34 1224.14 1407.64 1225.82 C 1398.71 1247.46 1400.07 1258.9 1384.72 1276.53 L 1384.9 1272.95 C 1386.38 1270.25 1390.45 1267.7 1391.77 1264.38 C 1395.51 1254.95 1406.18 1226.33 1407.31 1218.14 z" fill="rgb(50,48,50)" transform="translate(0,0)"></path>
<path d="M 524.384 1506.7 L 525.894 1507.62 C 537.563 1514.95 546.714 1517.35 560.252 1518.29 C 561.926 1518.08 562.033 1518.11 563.749 1518.29 C 567.753 1518.05 571.219 1517.83 575.228 1517.38 L 576.052 1519.2 C 558.328 1522.8 539.181 1519.25 524.101 1509.22 L 524.384 1506.7 z" fill="rgb(22,22,23)" transform="translate(0,0)"></path>
<path d="M 560.252 1518.29 C 561.926 1518.08 562.033 1518.11 563.749 1518.29 C 562.209 1519.41 561.792 1519.41 560.252 1518.29 z" fill="rgb(98,96,95)" transform="translate(0,0)"></path>
<path d="M 1428.54 1463.59 L 1430.3 1465.39 C 1418.74 1470.19 1408.15 1471.06 1395.74 1469.49 L 1397.22 1467.53 C 1412.1 1467.99 1414.1 1468.74 1428.54 1463.59 z" fill="rgb(22,22,23)" transform="translate(0,0)"></path>
<path d="M 1150.01 1328.35 C 1157.21 1324.75 1169.36 1324.38 1177.16 1325.86 L 1177.13 1327.79 C 1166.18 1326.5 1160.89 1326.63 1150.72 1330.79 L 1150.01 1328.35 z" fill="rgb(50,48,50)" transform="translate(0,0)"></path>
<path d="M 1303.01 1103.9 C 1307.24 1103.94 1327.8 1103.43 1330.17 1104.42 C 1330.65 1106.57 1323.87 1105.91 1323.5 1105.92 C 1316.63 1106 1309.77 1106.08 1302.91 1106.27 L 1303.01 1103.9 z" fill="rgb(98,96,95)" transform="translate(0,0)"></path>
<path d="M 1116.2 1103.79 C 1122.79 1102.12 1132.49 1101.26 1139.03 1103.36 L 1138.47 1105.53 C 1126.82 1103.82 1128.48 1103.61 1116.78 1105.48 L 1116.2 1103.79 z" fill="rgb(71,71,71)" transform="translate(0,0)"></path>
<path d="M 1215.81 1135.28 C 1218.95 1129.77 1218.83 1126.68 1223.53 1119.67 L 1225.03 1120.95 C 1222.08 1126.89 1220.31 1131.31 1217.76 1137.3 L 1215.81 1135.28 z" fill="rgb(22,22,23)" transform="translate(0,0)"></path>
<path d="M 1004.26 1058.98 C 1011.73 1059.02 1020.1 1058.55 1027.32 1059.91 C 1022.87 1060.28 1020.79 1059.54 1016.96 1061.63 C 1014.5 1061.45 1012.81 1061.1 1010.24 1061.02 C 1008.25 1060.32 1006.26 1059.65 1004.26 1058.98 z" fill="rgb(22,22,23)" transform="translate(0,0)"></path>
<path d="M 1336.93 1206.68 C 1338.84 1203.7 1344.89 1191.77 1345.15 1191.6 C 1345.23 1191.62 1345.32 1191.64 1345.41 1191.67 C 1346.34 1194.39 1340.97 1205.26 1339.11 1207.59 L 1336.93 1206.68 z" fill="rgb(50,48,50)" transform="translate(0,0)"></path>
<path d="M 722.929 1132.56 C 724.931 1129.53 726.635 1126.24 728.97 1123.44 L 731.115 1124.3 C 727.078 1129.76 726.397 1131.24 723.317 1137.03 L 721.355 1135.63 C 721.893 1134.61 722.418 1133.59 722.929 1132.56 z" fill="rgb(22,22,23)" transform="translate(0,0)"></path>
<path d="M 621.414 1327.34 C 621.709 1328.88 622.865 1335.33 621.459 1336.26 C 619.637 1335.67 619.52 1329.44 619.283 1327.73 L 621.414 1327.34 z" fill="rgb(71,71,71)" transform="translate(0,0)"></path>
<path d="M 1384.6 1327.36 C 1387.42 1326.43 1388.58 1326.09 1391.45 1325.53 L 1391 1327.93 C 1389.11 1328.32 1387.22 1328.75 1385.34 1329.23 L 1384.6 1327.36 z" fill="rgb(22,22,23)" transform="translate(0,0)"></path>
<path d="M 686.843 1091.02 L 689.374 1092.78 C 690.006 1094.71 690.318 1096.3 690.213 1098.37 L 689.809 1098.29 L 689.872 1098.45 C 688.521 1098.54 687.162 1092.04 686.843 1091.02 z" fill="rgb(71,71,71)" transform="translate(0,0)"></path>
<path d="M 1050.08 1418.26 C 1050.08 1418.26 1051.94 1413.7 1052.69 1414.54 C 1053.71 1415.69 1051.9 1419.37 1051.47 1420.58 L 1050.08 1418.26 z" fill="rgb(50,48,50)" transform="translate(0,0)"></path>
<path d="M 1391.45 1325.53 L 1394.49 1324.84 L 1394.29 1327.46 C 1393.18 1327.64 1392.12 1327.78 1391 1327.93 L 1391.45 1325.53 z" fill="rgb(71,71,71)" transform="translate(0,0)"></path>
<path d="M 571.927 1094.06 C 571.791 1095.2 571.656 1098.88 570.418 1099.31 C 569.676 1098.69 569.49 1096.37 569.346 1095.52 L 571.927 1094.06 z" fill="rgb(166,168,167)" transform="translate(0,0)"></path>
<metadata><recraft-signature>{"signed_by": "recraft", "signature_b64": "922KdWy1wdyo7o9Bn3QkwWmFav+h6kx78NLhJycYXoNx5OIaatFjN6ULm4RUNz4oNxDor19oVxibz76miJKACw==", "signing_algo": "Ed25519", "generation_timestamp": 1772546400, "identifier": "012c2dae-aead-4489-8517-44b93a0a4ada"}</recraft-signature></metadata></svg>