<svg xmlns="http://www.w3.org/2000/svg" height="1024" preserveAspectRatio="none" style="display: block;" version="1.1" viewBox="0 0 2048 2048" width="1024">
<path d="M 0 0 L 2048 0 L 2048 2048 L 0 2048 L 0 0 z" fill="rgb(247,251,250)" transform="translate(0,0)"></path>
<path d="M 989.619 197.348 C 1258.11 178.675 1490.97 381.037 1509.93 649.509 C 1528.88 917.981 1326.76 1151.05 1058.31 1170.29 C 789.461 1189.56 555.966 987.073 536.983 718.202 C 517.999 449.332 720.728 216.049 989.619 197.348 z" fill="rgb(8,147,158)" transform="translate(0,0)"></path>
<path d="M 1002.95 220.973 C 1259.03 209.367 1475.92 407.779 1487.12 663.879 C 1498.31 919.979 1299.54 1136.55 1043.43 1147.33 C 787.895 1158.08 571.921 959.875 560.756 704.36 C 549.59 448.845 747.45 232.551 1002.95 220.973 z" fill="rgb(247,251,250)" transform="translate(0,0)"></path>
<path d="M 993.771 237.785 C 1240.15 221.326 1453.16 407.86 1469.35 654.258 C 1485.55 900.656 1298.78 1113.46 1052.37 1129.39 C 806.327 1145.29 593.915 958.877 577.747 712.854 C 561.578 466.831 747.766 254.218 993.771 237.785 z" fill="rgb(8,147,158)" transform="translate(0,0)"></path>
<path d="M 981.705 337.313 C 985.934 317.592 1003.43 303.554 1023.6 303.703 C 1043.77 303.852 1061.06 318.147 1065 337.928 C 1164.47 355.916 1245.15 400.515 1303.68 484.873 C 1356.83 561.872 1377.15 656.867 1360.13 748.872 C 1342.59 840.012 1289.67 920.5 1212.96 972.74 C 1198.04 982.905 1162.54 1003.19 1145.14 1007.6 C 1142.03 1009.61 1127.39 1025.35 1122.08 1029.55 C 1091.81 1053.57 1062.54 1064.06 1025.51 1071.71 C 1025.69 1052.78 1027.41 1001.73 1025.32 985.473 C 1025.1 958.003 1025.05 930.533 1025.15 903.063 C 1025.18 899.226 1025.06 895.425 1025.01 891.59 C 1025.34 883.571 1025.23 876.169 1025.1 868.137 C 1009.34 869.011 984.31 868.285 967.851 868.287 L 850.93 868.055 L 850.183 983.72 C 840.942 978.398 832.031 972.522 823.499 966.125 C 749.664 910.635 697.132 829.878 684.064 737.72 C 671.11 644.048 695.529 549.04 752.044 473.222 C 807.381 399.073 890.076 350.136 981.705 337.313 z" fill="rgb(247,251,250)" transform="translate(0,0)"></path>
<path d="M 1203.13 530.171 C 1284.55 535.832 1357.35 605.149 1357.96 688.197 C 1357.74 692.932 1357.5 697.669 1357.23 702.398 C 1352.09 792.192 1287.33 847.756 1203.92 868.174 C 1203.85 868.995 1203.62 872.407 1203.47 872.985 C 1198.25 929.317 1181.76 965.271 1145.14 1007.6 C 1142.03 1009.61 1127.39 1025.35 1122.08 1029.55 C 1091.81 1053.57 1062.54 1064.06 1025.51 1071.71 C 1025.69 1052.78 1027.41 1001.73 1025.32 985.473 C 1025.1 958.003 1025.05 930.533 1025.15 903.063 C 1025.18 899.226 1025.06 895.425 1025.01 891.59 C 1025.34 883.571 1025.23 876.169 1025.1 868.137 C 1024.9 865.087 1025.06 861.287 1025.11 858.156 C 1027.88 849.766 1028.62 836.834 1030.99 827.53 C 1051.48 747.205 1120.84 691.947 1203.19 687.624 L 1203.13 530.171 z" fill="rgb(196,168,106)" transform="translate(0,0)"></path>
<path d="M 1025.1 868.137 C 1042.25 867.907 1198.78 866.726 1202.98 869.011 L 1203.47 872.985 C 1198.25 929.317 1181.76 965.271 1145.14 1007.6 C 1142.03 1009.61 1127.39 1025.35 1122.08 1029.55 C 1091.81 1053.57 1062.54 1064.06 1025.51 1071.71 C 1025.69 1052.78 1027.41 1001.73 1025.32 985.473 C 1025.1 958.003 1025.05 930.533 1025.15 903.063 C 1025.18 899.226 1025.06 895.425 1025.01 891.59 C 1025.34 883.571 1025.23 876.169 1025.1 868.137 z" fill="rgb(11,63,83)" transform="translate(0,0)"></path>
<path d="M 1203.24 687.881 C 1254.81 688.25 1306.38 688.355 1357.96 688.197 C 1357.74 692.932 1357.5 697.669 1357.23 702.398 C 1352.09 792.192 1287.33 847.756 1203.92 868.174 C 1202.67 857.818 1203.55 822.586 1203.55 810.618 C 1203.66 769.705 1203.55 728.793 1203.24 687.881 z" fill="rgb(11,63,83)" transform="translate(0,0)"></path>
<path d="M 690.913 686.146 C 692.053 644.155 709.554 604.271 739.683 575.001 C 769.968 545.733 809.949 528.61 852.03 526.883 L 852.113 686.587 C 947.312 697.757 1013.52 763.043 1025.11 858.156 C 1025.06 861.287 1024.9 865.087 1025.1 868.137 C 1009.34 869.011 984.31 868.285 967.851 868.287 L 850.93 868.055 L 850.948 857.026 L 850.089 857.039 C 813.57 857.252 767.422 834.348 741.784 809.046 C 709.315 776.37 691.037 732.211 690.913 686.146 z" fill="rgb(11,63,83)" transform="translate(0,0)"></path>
<path d="M 690.913 686.146 C 744.316 686.083 797.718 686.317 851.118 686.849 C 850.83 743.417 851.58 800.559 850.948 857.026 L 850.089 857.039 C 813.57 857.252 767.422 834.348 741.784 809.046 C 709.315 776.37 691.037 732.211 690.913 686.146 z" fill="rgb(196,168,106)" transform="translate(0,0)"></path>
<path d="M 981.705 337.313 C 985.934 317.592 1003.43 303.554 1023.6 303.703 C 1043.77 303.852 1061.06 318.147 1065 337.928 C 1068.37 354.874 1061.16 372.176 1046.74 381.706 C 1032.33 391.235 1013.58 391.096 999.312 381.355 C 985.041 371.614 978.082 354.207 981.705 337.313 z" fill="rgb(196,168,106)" transform="translate(0,0)"></path>
<path d="M 923.172 393.595 C 990.09 394.103 1057.01 394.156 1123.93 393.755 C 1122.88 446.949 1090.84 483.486 1039.39 494.427 C 1022.26 496.682 1022.29 494.794 1009.16 495.102 C 957.276 485.275 924.314 446.377 923.172 393.595 z" fill="rgb(11,63,83)" transform="translate(0,0)"></path>
<path d="M 1009.16 495.102 C 1022.29 494.794 1022.26 496.682 1039.39 494.427 L 1039.94 495.983 C 1046.36 497.428 1063.42 497.172 1070.55 497.179 L 1121.33 497.165 C 1121.19 526.982 1113.92 548.241 1092.07 569.738 C 1073.74 588.045 1048.81 598.194 1022.9 597.892 C 996.061 597.818 970.386 586.916 951.691 567.656 C 933.822 549.153 924.794 523.234 925.29 497.695 L 925.315 496.822 C 936.638 496.787 1002.31 497.108 1009.16 495.102 z" fill="rgb(196,168,106)" transform="translate(0,0)"></path>
<path d="M 1018.37 620.596 C 1032.53 618.214 1045.97 627.694 1048.47 641.835 C 1050.97 655.976 1041.61 669.49 1027.49 672.114 C 1013.2 674.769 999.482 665.266 996.949 650.953 C 994.416 636.639 1004.04 623.006 1018.37 620.596 z" fill="rgb(196,168,106)" transform="translate(0,0)"></path>
<path d="M 850.93 868.055 L 967.851 868.287 C 984.31 868.285 1009.34 869.011 1025.1 868.137 C 1025.23 876.169 1025.34 883.571 1025.01 891.59 C 1025.06 895.425 1025.18 899.226 1025.15 903.063 C 1025.05 930.533 1025.1 958.003 1025.32 985.473 L 1025.35 1035.67 C 988.847 1034.59 971.826 1031.34 936.031 1023.16 C 906.984 1038.55 883.863 1046.37 850.768 1047.29 C 850.335 1026.1 850.14 1004.91 850.183 983.72 L 850.93 868.055 z" fill="rgb(196,168,106)" transform="translate(0,0)"></path>
<path d="M 1021.62 905.485 L 1025.15 903.063 C 1025.05 930.533 1025.1 958.003 1025.32 985.473 L 1025.35 1035.67 C 988.847 1034.59 971.826 1031.34 936.031 1023.16 C 939.852 1020.43 943.689 1017.74 947.542 1015.06 C 984.318 989.344 1013.66 950.233 1021.62 905.485 z" fill="rgb(247,251,250)" transform="translate(0,0)"></path>
<path d="M 1025.01 891.59 C 1025.06 895.425 1025.18 899.226 1025.15 903.063 L 1021.62 905.485 C 1022.3 902.3 1023.05 895.106 1024.35 892.831 L 1025.01 891.59 z" fill="rgb(241,237,228)" transform="translate(0,0)"></path>
<path d="M 389.141 548.658 C 406.784 551.246 421.312 553.809 437.658 561.636 C 492.791 588.034 521.34 637.848 523.879 697.604 C 518.508 774.902 467.248 832.611 388.982 840.143 L 388.991 697.133 C 389.032 647.915 388.564 597.796 389.141 548.658 z" fill="rgb(11,63,83)" transform="translate(0,0)"></path>
<path d="M 388.991 697.133 C 433.954 696.931 478.918 697.088 523.879 697.604 C 518.508 774.902 467.248 832.611 388.982 840.143 L 388.991 697.133 z" fill="rgb(196,168,106)" transform="translate(0,0)"></path>
<path d="M 1524.84 683.962 C 1525.9 657.21 1540.37 623.851 1557.59 603.388 C 1584.99 570.812 1615.03 553.936 1657.38 549.889 C 1659 576.84 1657.71 615.344 1657.77 643.001 C 1657.89 708.635 1657.64 774.269 1657.03 839.9 C 1615.54 835.68 1585.72 818.957 1558.15 787.298 C 1537.09 763.125 1520.99 719.886 1524.28 687.824 C 1524.4 686.529 1524.59 685.24 1524.84 683.962 z" fill="rgb(11,63,83)" transform="translate(0,0)"></path>
<path d="M 1657.38 549.889 C 1659 576.84 1657.71 615.344 1657.77 643.001 C 1657.89 708.635 1657.64 774.269 1657.03 839.9 C 1615.54 835.68 1585.72 818.957 1558.15 787.298 C 1537.09 763.125 1520.99 719.886 1524.28 687.824 C 1524.4 686.529 1524.59 685.24 1524.84 683.962 C 1524.78 687.856 1524.33 692.041 1525.68 695.606 C 1536.06 696.72 1560.94 696.09 1572.2 696.142 L 1657.2 696.843 C 1657.6 650.54 1655.22 595.205 1657.38 549.889 z" fill="rgb(196,168,106)" transform="translate(0,0)"></path>
<path d="M 566.32 1667.83 C 571.935 1653.33 579.317 1640.2 592.543 1631.67 C 619.866 1614.05 652.24 1616.58 670.747 1645.53 C 698.337 1688.7 688.68 1752.86 646.193 1782.46 C 633.485 1790.5 617.097 1791.26 602.957 1787.6 C 583.88 1782.67 574.105 1771.22 564.86 1755.26 L 564.783 1821.19 C 564.777 1836.24 562.889 1853.58 569.394 1867.15 C 557.466 1867.83 545.614 1867.8 533.671 1867.88 C 539.782 1853.15 537.808 1824.05 537.781 1807.4 L 537.406 1715.82 C 537.183 1693.2 537.533 1669.87 536.816 1647.25 C 536.679 1642.94 533.883 1639.56 531.38 1636.06 C 536.275 1633.61 560.918 1621.36 564.487 1622.52 L 564.834 1627.69 C 565.667 1636.37 564.041 1663.41 566.32 1667.83 z" fill="rgb(11,63,83)" transform="translate(0,0)"></path>
<path d="M 566.32 1667.83 C 566.168 1668.67 566.053 1669.63 565.614 1670.38 C 565.424 1670.7 565.38 1670.81 565.071 1670.86 C 565.011 1670.86 564.632 1670.91 564.61 1670.77 C 563.483 1663.66 564.234 1632.89 564.834 1627.69 C 565.667 1636.37 564.041 1663.41 566.32 1667.83 z" fill="rgb(201,214,221)" transform="translate(0,0)"></path>
<path d="M 609.026 1629.19 C 676.363 1624.56 675.393 1769.46 615.242 1783.92 C 604.678 1784.63 598.148 1783.15 588.515 1777.82 C 578.499 1772.27 567.725 1759.36 564.776 1748.16 C 563.904 1744.85 564.372 1731.36 564.342 1727.16 C 564.149 1700.25 562.547 1676.04 577.598 1652.16 C 585.797 1639.16 594.191 1632.75 609.026 1629.19 z" fill="rgb(247,251,250)" transform="translate(0,0)"></path>
<path d="M 959.391 1255.25 L 1009.13 1255.07 C 1041.33 1255.06 1066.07 1253.77 1093.7 1274.14 C 1124.71 1296.42 1129.55 1344.66 1106.71 1374.32 C 1088.64 1397.79 1058.25 1406.28 1030.25 1409.91 C 1018.14 1410.28 1004.55 1409.87 992.31 1409.72 C 992.154 1425.48 991.934 1441.26 991.919 1457.02 C 991.906 1470.31 990.839 1479.9 997.861 1491.77 L 959.392 1491.74 C 961.09 1489.26 964.947 1483.88 965.254 1481 C 966.559 1468.79 966.111 1453.93 966.043 1441.72 L 965.505 1358.99 C 965.456 1329.61 966.67 1299.48 965.743 1270.1 C 965.559 1264.29 962.482 1260.01 959.391 1255.25 z" fill="rgb(11,63,83)" transform="translate(0,0)"></path>
<path d="M 992.225 1259.08 C 1019.5 1258.91 1048.79 1255.92 1070.63 1274.9 C 1083.94 1286.46 1090.96 1303.5 1091.78 1320.83 C 1093.04 1347.05 1084.99 1364.43 1068.05 1383.39 C 1044.64 1406.34 1023.13 1407.14 992.356 1406.86 C 991.905 1357.6 991.861 1308.34 992.225 1259.08 z" fill="rgb(247,251,250)" transform="translate(0,0)"></path>
<path d="M 778.2 1621.35 C 824.87 1618.27 850.902 1634.9 867.459 1678.61 C 833.21 1720.16 783.333 1729.81 731.777 1723.53 C 738.867 1752.06 764.727 1781 795.757 1781.46 C 817.343 1781.78 831.213 1773.57 846.308 1759.22 C 856.842 1748.03 858.02 1740.51 865.526 1730.1 L 866.043 1732.09 C 855.463 1762.77 831.11 1784.16 798.944 1789.63 C 777.383 1793.46 755.194 1788.31 737.523 1775.38 C 677.411 1731.72 701.492 1631.8 778.2 1621.35 z" fill="rgb(11,63,83)" transform="translate(0,0)"></path>
<path d="M 786.69 1623.42 C 820.195 1623.39 835.052 1649.24 844.014 1677.69 C 826.771 1701.23 811.573 1708.96 783.669 1717.2 C 764.938 1721.5 750.35 1721.29 731.365 1720.31 C 725.279 1695.02 728.69 1661.43 746.387 1641.12 C 757.92 1627.89 770.124 1624.62 786.69 1623.42 z" fill="rgb(247,251,250)" transform="translate(0,0)"></path>
<path d="M 785.561 1325.4 C 828.727 1322.95 857.83 1342.31 870.789 1383.79 C 868.035 1386.58 865.236 1389.32 862.393 1392.02 C 823.199 1429.14 785.912 1430.17 735.457 1428.69 C 746.172 1467.81 785.601 1498.57 826.409 1479.79 C 836.96 1474.93 843.273 1469.3 851.437 1461.2 C 859.722 1451.76 863.04 1441.73 869.884 1433.69 C 867.759 1442.76 859.885 1456.09 854.069 1463.36 C 839.912 1480.73 819.427 1491.76 797.131 1494.01 C 688.305 1505.92 672.989 1336.4 785.561 1325.4 z" fill="rgb(11,63,83)" transform="translate(0,0)"></path>
<path d="M 780.437 1328.21 C 820.337 1325.17 836.274 1346.58 846.994 1381.79 C 835.792 1401.83 815.609 1411.95 794.982 1419.44 C 770.729 1425.44 759.169 1426.3 733.714 1424.36 C 729.016 1386.16 733.857 1336.19 780.437 1328.21 z" fill="rgb(247,251,250)" transform="translate(0,0)"></path>
<path d="M 1189.63 1325.24 C 1254.2 1319.38 1261.85 1351.25 1261.99 1406.68 L 1261.86 1450.94 C 1261.78 1465.37 1260.07 1478.71 1267.75 1491.04 C 1256.99 1491.04 1246.23 1491.14 1235.48 1491.35 L 1235.22 1404.97 C 1226.41 1425.78 1223.03 1449.31 1209.53 1468.49 C 1191.6 1493.96 1159.87 1503.42 1133.11 1484.34 C 1124.56 1476.21 1119.51 1466.19 1118.04 1454.49 C 1108.54 1378.47 1222.67 1389.03 1243.73 1359.37 C 1245.63 1356.7 1246.23 1353.93 1245.65 1350.68 C 1244.51 1344.41 1237.2 1337.74 1232.12 1334.48 C 1221.63 1327.73 1207.5 1326.1 1195.47 1328.89 C 1179.01 1332.71 1168.15 1345.61 1161.07 1360.16 C 1159.18 1364.04 1157.24 1369.69 1154.52 1372.99 C 1152.95 1374.89 1151.54 1375.73 1149 1375.49 C 1143.57 1374.96 1138.09 1367.66 1134.68 1363.81 C 1135.98 1361.25 1137.43 1358.77 1139.04 1356.4 C 1151.94 1337.04 1167.41 1329.62 1189.63 1325.24 z" fill="rgb(11,63,83)" transform="translate(0,0)"></path>
<path d="M 1246.93 1364.95 C 1246.83 1370.98 1238.6 1384.53 1235.54 1392.75 C 1224.42 1422.64 1216.27 1477.87 1177.94 1484.04 C 1170.45 1485.25 1160.51 1478.41 1155.16 1473.35 C 1143.86 1460.33 1140.2 1441.95 1144.69 1425.47 C 1156.92 1380.62 1211.9 1386.01 1246.93 1364.95 z" fill="rgb(247,251,250)" transform="translate(0,0)"></path>
<path d="M 1191.73 1621.33 C 1252.68 1616.22 1259.77 1651.28 1260.75 1702.15 C 1260.92 1717.37 1260.91 1732.59 1260.72 1747.8 C 1260.63 1763.32 1258.6 1774.85 1266.19 1788.13 L 1235.25 1788.48 C 1235.12 1762.63 1233.87 1722.52 1235.84 1697.52 C 1227.26 1719.93 1222.46 1745.05 1208.23 1764.59 C 1189.25 1790.67 1157.41 1798.61 1130.69 1778.21 C 1124.51 1771.32 1120.45 1765.22 1117.91 1756.03 C 1115.55 1747.2 1115.55 1737.91 1117.9 1729.08 C 1132.06 1675.55 1231.05 1680.29 1244.01 1654.33 C 1245.7 1650.94 1245.9 1647.16 1244.65 1643.6 C 1242.19 1636.56 1235.05 1631.56 1228.49 1628.73 C 1215.62 1623.15 1199.9 1622.57 1186.99 1628.28 C 1166.86 1637.18 1157.36 1655.92 1150.15 1675.43 C 1145.87 1671.14 1136.78 1664.11 1131.77 1659.96 C 1146.53 1634.98 1163.77 1625.7 1191.73 1621.33 z" fill="rgb(11,63,83)" transform="translate(0,0)"></path>
<path d="M 1245.77 1662.04 L 1246.96 1664 C 1243.94 1674.33 1237.79 1681.84 1233.37 1693.31 C 1222.07 1722.65 1215.14 1773.18 1177.43 1780.23 C 1169.39 1781.74 1159.87 1775.59 1153.85 1770.5 C 1137.51 1750.43 1136.66 1710.04 1159.92 1694.86 C 1183.89 1679.23 1218.29 1675.96 1244.39 1662.75 L 1245.77 1662.04 z" fill="rgb(247,251,250)" transform="translate(0,0)"></path>
<path d="M 579.068 1255.19 L 579.07 1371.96 C 579.689 1375.16 580.072 1377.55 580.862 1380.77 C 589.752 1351.31 609.627 1317.57 645.766 1325.71 C 686.13 1334.79 686.273 1370.84 686.585 1403.44 C 686.714 1419.1 686.675 1434.76 686.468 1450.41 C 686.347 1465.01 684.63 1477.42 692.748 1489.7 L 693.538 1490.88 L 654.088 1491.02 C 655.631 1489.05 657.111 1487.04 658.085 1484.72 C 662.703 1473.67 661.771 1389.64 660.185 1373.69 C 659.404 1365.85 657.857 1357.41 654.56 1350.21 C 651.117 1342.69 645.332 1335.35 637.206 1332.7 C 629.845 1330.29 621.063 1331.46 614.277 1335.02 C 599.198 1342.91 590.102 1362.09 585.368 1377.68 C 578.3 1400.95 578.973 1424.38 578.954 1448.39 C 578.946 1458.23 578.098 1468.22 580.074 1477.93 C 581.034 1482.64 583.668 1487.01 585.928 1491.2 C 573.719 1491.86 558.664 1491.51 546.204 1491.5 C 550.532 1484.79 551.974 1480.61 552.143 1472.7 C 553.033 1431.09 552.739 1389.07 552.748 1347.48 L 552.763 1304.34 C 552.794 1291.6 555.399 1280.31 546.571 1270.57 C 558.069 1263.6 566.657 1260.3 579.068 1255.19 z" fill="rgb(11,63,83)" transform="translate(0,0)"></path>
<path d="M 579.07 1371.96 C 579.689 1375.16 580.072 1377.55 580.862 1380.77 C 580.713 1381.85 580.715 1382.63 579.944 1383.39 C 578.397 1383.13 579.034 1373.6 579.07 1371.96 z" fill="rgb(201,214,221)" transform="translate(0,0)"></path>
<path d="M 422.554 1548.31 C 461.818 1543.24 493.032 1555.62 515.302 1588.08 C 509.443 1595.06 504.588 1600.57 498.191 1607.01 C 486.923 1579.99 467.078 1551.63 434.831 1551.37 C 421.527 1550.52 399.823 1558.56 390.751 1569.13 C 350.47 1616.06 428.989 1641.81 457.389 1657.93 C 485.033 1673.25 514.207 1692.1 515.395 1727.07 C 516.139 1748.94 511.286 1764.21 493.016 1777.7 C 476.157 1790.15 458.889 1792.11 438.651 1792.77 C 402.958 1790.06 366.509 1773.93 353.29 1738.03 C 362.354 1734.73 369.345 1731.81 378.146 1727.83 C 390.558 1761.86 411.106 1793.44 452.887 1788.5 C 474.662 1786.84 507.56 1767.54 500.22 1741.13 C 485.904 1689.62 411.215 1680.29 377.942 1644.53 C 359.435 1624.64 357.776 1600.94 371.009 1579 C 382.352 1560.2 401.938 1551.54 422.554 1548.31 z" fill="rgb(11,63,83)" transform="translate(0,0)"></path>
<path d="M 365.559 1255.24 C 419.878 1254.91 474.198 1254.88 528.517 1255.15 C 529.399 1264.91 531.456 1283.79 533.519 1293.17 C 508.66 1266.61 494.562 1264.9 459.046 1260.84 C 461.104 1333.29 457.182 1407 459.711 1479.5 C 459.797 1481.98 464.1 1488.6 465.581 1491.01 L 428.005 1490.99 C 435.082 1479.94 434.336 1463.75 434.033 1450.78 C 432.566 1388.02 436.155 1323.21 433.592 1260.68 C 412.312 1261.61 382.938 1268.47 368.034 1284.76 C 367.23 1285.64 366.46 1286.56 365.726 1287.5 C 361.075 1293.15 360.957 1289.5 362.494 1284.29 C 363.534 1274.69 364.733 1264.83 365.559 1255.24 z" fill="rgb(11,63,83)" transform="translate(0,0)"></path>
<path d="M 362.494 1284.29 C 363.736 1285.62 364.402 1286.28 365.726 1287.5 C 361.075 1293.15 360.957 1289.5 362.494 1284.29 z" fill="rgb(20,64,85)" transform="translate(0,0)"></path>
<path d="M 1463.65 1620.4 C 1494.84 1617.87 1522.95 1628.84 1538.45 1656.96 C 1533.24 1662.6 1527.9 1668.13 1522.45 1673.55 C 1513.19 1653.39 1503.66 1633.61 1480.56 1625.73 C 1462.25 1617.89 1423.93 1631.1 1430.07 1655.76 C 1441.29 1700.76 1536.48 1690.11 1540.93 1739.76 C 1542.01 1751.07 1538.34 1762.33 1530.8 1770.83 C 1515.8 1787.54 1493.6 1789.66 1472.77 1790.71 C 1433.93 1789.53 1423.77 1781.34 1400.31 1751.41 C 1406.42 1745.25 1412.15 1739.2 1418.99 1733.84 C 1433.04 1765.06 1445.62 1792.06 1486 1787.11 C 1500.78 1787.09 1525.09 1771.48 1519.93 1753.04 C 1511.11 1721.52 1455.59 1720.81 1432.65 1702.76 C 1421.09 1693.66 1412.98 1686.8 1410.97 1672.78 C 1405.69 1635.92 1433.05 1623.72 1463.65 1620.4 z" fill="rgb(11,63,83)" transform="translate(0,0)"></path>
<path d="M 1319.98 1551.16 C 1321.24 1554.8 1320.59 1586.94 1320.58 1592.58 L 1320.72 1710.73 C 1320.68 1732.57 1320.1 1755.56 1321.31 1777.3 C 1321.51 1780.88 1323.86 1785.29 1325.5 1788.52 C 1314.49 1789.04 1300.62 1788.76 1289.39 1788.82 C 1297.24 1774.33 1294.85 1763.02 1294.81 1746.85 L 1294.68 1690.68 L 1294.75 1615.96 C 1294.78 1602.8 1295.15 1588.68 1294.11 1575.59 C 1293.84 1572.21 1290.59 1568.7 1288.36 1565.88 C 1298.5 1561.5 1309.73 1555.84 1319.98 1551.16 z" fill="rgb(11,63,83)" transform="translate(0,0)"></path>
<path d="M 962.578 1621.37 C 996.403 1619.35 1021.19 1631.05 1037.66 1661.08 L 1020.69 1677.18 C 1008.74 1646.76 988.335 1614.94 951.479 1626.17 C 892.213 1644.23 902.386 1748.78 949.961 1775.07 C 965.766 1783.81 978.815 1783.74 994.74 1779.46 C 995.493 1779.12 996.24 1778.77 996.981 1778.41 C 1017.19 1768.47 1023.81 1748.98 1030.65 1729.18 C 1035.63 1732.46 1037.11 1733.74 1041.47 1737.73 C 1021.92 1788.12 961.945 1807.24 917.773 1774.95 C 878.617 1746.32 876.942 1687.87 905.313 1651.3 C 919.659 1632.8 939.618 1624.04 962.578 1621.37 z" fill="rgb(11,63,83)" transform="translate(0,0)"></path>
<path d="M 1527.94 1326.99 C 1538.34 1327.3 1555.52 1326.18 1564.63 1327.47 C 1567.3 1329.58 1564.39 1331.98 1565.12 1334.47 C 1573.82 1364.24 1588.57 1394.34 1600.41 1422.98 C 1605.91 1436.3 1610.85 1449.87 1616.87 1461.51 L 1617.41 1462.54 L 1620.92 1464.28 C 1616.93 1474.35 1613.2 1485.04 1608.7 1494.87 C 1587.49 1541.15 1593.64 1565.61 1535.22 1569.03 C 1533.94 1556.43 1532.51 1543.85 1530.91 1531.29 C 1571.12 1572.79 1592.7 1537 1601.91 1496.42 C 1599.26 1488.47 1595.93 1479.77 1592.62 1472.05 C 1573.65 1427.79 1555.6 1383.1 1536.5 1338.93 C 1535.08 1335.65 1530.29 1329.93 1527.94 1326.99 z" fill="rgb(11,63,83)" transform="translate(0,0)"></path>
<path d="M 1323.24 1371.39 C 1337.7 1338.97 1360.76 1324.29 1396.54 1327.75 C 1397.75 1338.61 1398.74 1347.94 1399.24 1358.91 C 1344.34 1320.09 1314.7 1373.57 1319.68 1423.18 C 1321.95 1445.79 1313.83 1469.97 1325.9 1491.05 L 1288.03 1491.12 C 1289.29 1488.75 1290.65 1486.29 1291.49 1483.74 C 1294.67 1474.14 1294.41 1365.3 1292.58 1350.99 C 1292.08 1347.05 1290.44 1343.82 1288.59 1340.35 C 1298.56 1335.71 1309.34 1330.39 1319.57 1326.59 C 1320.21 1340.84 1319.84 1358.03 1319.87 1372.42 L 1323.24 1371.39 z" fill="rgb(11,63,83)" transform="translate(0,0)"></path>
<path d="M 1319.87 1372.42 L 1323.24 1371.39 C 1322.91 1372.23 1321.15 1378.12 1320.12 1378.07 C 1319.43 1377.06 1319.82 1373.55 1319.87 1372.42 z" fill="rgb(241,237,228)" transform="translate(0,0)"></path>
<path d="M 1457.66 1282 L 1461.21 1282.02 C 1461.14 1289.08 1460.02 1323.13 1462.32 1326.78 L 1463.81 1327.47 C 1460.56 1330.82 1464.96 1329.56 1469.02 1330.16 C 1465.52 1330.39 1465.2 1330.35 1461.69 1331.37 C 1460.53 1336.03 1460.95 1348.61 1461 1353.98 C 1461.29 1385.58 1460.42 1417.29 1461.74 1448.86 C 1462.11 1457.7 1463.76 1467.44 1466.21 1475.97 C 1467.53 1480.59 1472.13 1485.55 1476.53 1487.44 C 1503.63 1499.06 1515.13 1466.73 1522.91 1447.42 C 1525.61 1449.12 1528.92 1450.92 1531.73 1452.54 C 1523.1 1472.13 1506.09 1495.44 1482.98 1494.48 C 1431.51 1492.35 1434.23 1438.09 1434.15 1403.62 L 1434.45 1334.77 C 1424.58 1334.79 1415.98 1334.71 1406.07 1334.17 C 1436.2 1324.24 1448.38 1312.73 1457.66 1282 z" fill="rgb(11,63,83)" transform="translate(0,0)"></path>
<path d="M 1594.11 1575.15 L 1597.43 1577.03 C 1597.33 1584.6 1596.38 1617.29 1598.24 1622.37 C 1599.68 1623.09 1599.73 1623.07 1600.89 1624.14 L 1598.61 1624.93 C 1595.58 1631.16 1597.5 1737.77 1597.65 1753.62 C 1598.03 1791.84 1633.75 1803.43 1652.34 1758 C 1654.22 1753.35 1655.94 1748.64 1657.5 1743.87 L 1666.7 1750.09 C 1652.66 1778.23 1631.03 1802.75 1597.03 1786.8 C 1565.03 1771.8 1571.25 1718.15 1571.27 1689.63 L 1570.99 1630.81 C 1565.58 1630.29 1560.66 1629.78 1555.19 1629.65 L 1553.62 1629.61 C 1548.68 1629.53 1538.95 1627.75 1550.59 1626.22 C 1576.58 1618.26 1586 1599.1 1594.11 1575.15 z" fill="rgb(11,63,83)" transform="translate(0,0)"></path>
<path d="M 1555.19 1629.65 L 1553.62 1629.61 C 1548.68 1629.53 1538.95 1627.75 1550.59 1626.22 C 1552.56 1628.6 1552.36 1628.46 1555.19 1629.65 z" fill="rgb(20,64,85)" transform="translate(0,0)"></path>
<path d="M 1378.38 1622.83 C 1381.38 1623.77 1380.71 1626.18 1380.72 1628.88 L 1380.72 1726.59 C 1380.64 1744.06 1377.61 1773.96 1385.25 1788.56 C 1373.75 1788.5 1362.25 1788.58 1350.75 1788.81 C 1349.17 1788.76 1350.05 1788.92 1348.18 1788.05 C 1349.05 1786.66 1352.09 1781.59 1352.27 1779.7 C 1356.32 1737.63 1353.56 1691.37 1353.68 1648.78 C 1353.69 1647.19 1349.49 1639.42 1348.76 1638.02 C 1359.16 1631.45 1367.02 1627.45 1378.38 1622.83 z" fill="rgb(11,63,83)" transform="translate(0,0)"></path>
<path d="M 1091.79 1622.93 L 1093.41 1623.49 C 1094.04 1625.93 1093.03 1652.4 1093.14 1657.57 C 1094.02 1697.2 1091.58 1740.96 1093.58 1780.25 L 1099.97 1788.86 L 1063.75 1788.95 C 1062.23 1788.83 1062.99 1789.07 1061.56 1787.99 C 1062.44 1786.51 1066.64 1779.51 1066.66 1778.23 C 1067.48 1734.92 1067.38 1691.07 1066.44 1647.74 C 1066.4 1645.75 1062.34 1639.4 1061.14 1637.47 C 1071.32 1632.55 1081.54 1627.71 1091.79 1622.93 z" fill="rgb(11,63,83)" transform="translate(0,0)"></path>
<path d="M 1360.32 1567.34 C 1369.49 1564.15 1379.52 1568.92 1382.83 1578.04 C 1386.14 1587.17 1381.5 1597.26 1372.41 1600.69 C 1366.43 1602.95 1359.7 1601.81 1354.79 1597.72 C 1349.88 1593.62 1347.55 1587.21 1348.7 1580.92 C 1349.84 1574.63 1354.28 1569.44 1360.32 1567.34 z" fill="rgb(11,63,83)" transform="translate(0,0)"></path>
<path d="M 1077.5 1566.26 C 1087.01 1566.61 1094.54 1574.42 1094.55 1583.94 C 1094.55 1593.46 1087.03 1601.28 1077.52 1601.65 C 1071.04 1601.9 1064.94 1598.58 1061.62 1593.01 C 1058.31 1587.43 1058.3 1580.49 1061.61 1574.92 C 1064.92 1569.34 1071.02 1566.02 1077.5 1566.26 z" fill="rgb(11,63,83)" transform="translate(0,0)"></path>
<path d="M 1617.41 1462.54 C 1629.99 1438.19 1638.88 1409.65 1650.28 1384.57 C 1656.67 1370.49 1662 1355.34 1668.22 1341.14 C 1669.58 1338.04 1667.96 1329.94 1669.75 1327.43 C 1674.03 1327.07 1676.69 1326.96 1680.98 1327.06 C 1669.8 1342.74 1655.35 1380.91 1647.62 1399.89 C 1639.66 1419.42 1628.14 1444.74 1620.92 1464.28 L 1617.41 1462.54 z" fill="rgb(20,64,85)" transform="translate(0,0)"></path>
<path d="M 1463.81 1327.47 C 1468.45 1326.91 1513.28 1326.33 1516.25 1327.22 L 1516.98 1328.15 L 1517.17 1327.88 C 1514.96 1332.17 1495.59 1329.76 1489.91 1330.23 C 1484.99 1330.64 1474.03 1330.56 1469.02 1330.16 C 1464.96 1329.56 1460.56 1330.82 1463.81 1327.47 z" fill="rgb(20,64,85)" transform="translate(0,0)"></path>
<path d="M 1598.24 1622.37 C 1603.79 1621.76 1650.45 1620.19 1651.94 1623.33 L 1651.59 1624.32 C 1647.68 1625.55 1606.92 1624.62 1600.89 1624.14 C 1599.73 1623.07 1599.68 1623.09 1598.24 1622.37 z" fill="rgb(20,64,85)" transform="translate(0,0)"></path>
<path d="M 1594.11 1575.15 C 1594.44 1574.05 1596.02 1567.28 1596.64 1566.85 C 1596.69 1566.91 1596.74 1566.98 1596.79 1567.04 C 1596.61 1567.45 1596.42 1567.86 1596.24 1568.26 L 1597.19 1569.02 C 1597.23 1571.69 1597.37 1574.36 1597.43 1577.03 L 1594.11 1575.15 z" fill="rgb(50,84,93)" transform="translate(0,0)"></path>
<path d="M 1460.95 1274.22 L 1461.21 1282.02 L 1457.66 1282 C 1458.37 1279.61 1458.94 1277.42 1459.56 1275 L 1460.95 1274.22 z" fill="rgb(50,84,93)" transform="translate(0,0)"></path>
<path d="M 1459.56 1275 C 1459.5 1273.97 1459.27 1272.93 1460.02 1272.1 C 1460.99 1272.19 1460.74 1273.52 1460.95 1274.22 L 1459.56 1275 z" fill="rgb(132,147,159)" transform="translate(0,0)"></path>
<metadata><recraft-signature>{"signed_by": "recraft", "signature_b64": "6N6CXjjVbW4SkBe9JJBbEu/hkZbHanDtc7ARJS5D0UDB5lijutDNaZ9uPwkLYopqvGZKPB4CL6tQDPPqIzXGBg==", "signing_algo": "Ed25519", "generation_timestamp": 1772546371, "identifier": "d5ea1134-4da8-4405-b15c-7c2c7e38b1bf"}</recraft-signature></metadata></svg>