<svg xmlns="http://www.w3.org/2000/svg" height="1024" preserveAspectRatio="none" style="display: block;" version="1.1" viewBox="0 0 2048 2048" width="1024">
<path d="M 0 0 L 2048 0 L 2048 2048 L 0 2048 L 0 0 z" fill="rgb(255,255,255)" transform="translate(0,0)"></path>
<path d="M 207.877 597.541 C 241.222 597.055 276.52 597.804 310.046 597.916 L 484.404 598.021 L 1071.71 597.589 C 1067.57 612.516 1064.04 630.011 1060.42 645.268 L 1040.37 728.412 C 1033.73 756.174 1023.45 791.28 1018.3 818.345 C 1060.77 819.891 1116.13 809.301 1148.54 842.249 C 1197.48 892.006 1166.3 974.8 1103.03 994.487 C 1074.94 1003.23 1058.88 1001.34 1029.8 1001.26 L 965.322 1001.02 L 985.915 921.828 L 766.963 921.587 C 759.723 947.945 752.797 978.441 746.195 1005.23 L 710.61 1148.72 L 623.562 1499.2 C 618.625 1501.43 579.78 1499.62 570.832 1500.65 C 575.283 1485.07 579.081 1466.49 583.185 1450.45 L 619.078 1307.68 L 727.64 870.044 L 1004.19 870.262 C 1007.83 857.229 1011.32 844.156 1014.67 831.045 L 695.556 830.956 C 694.208 837.928 692.488 845.157 690.787 852.069 C 680.505 893.831 669.821 935.542 659.541 977.306 L 570.897 1339.99 L 545.328 1445.57 C 541.035 1463.15 535.428 1482.82 532.049 1500.34 C 452.269 1502.42 366.125 1500.84 285.871 1500.76 L 394.12 1066.44 L 430.091 921.296 C 437.425 891.816 446.168 860.341 451.986 830.705 L 149.691 830.797 C 166.742 755.324 188.623 672.502 207.877 597.541 z" fill="rgb(0,0,0)" transform="translate(0,0)"></path>
<path d="M 1553.33 593.416 C 1685.16 584.381 1817.97 644.105 1909.07 737.575 C 1857.28 794.515 1797.89 853.307 1744.48 909.921 C 1739.75 905.449 1734.9 901.099 1729.95 896.876 C 1689.5 862.687 1621.99 828.004 1567.38 830.342 C 1538.29 831.312 1517.83 852.392 1522.21 882.041 C 1527.72 919.381 1584.18 938.024 1612.97 952.88 C 1656.93 975.559 1703 995.453 1741.99 1026.01 C 1789.37 1063.15 1821.71 1114.03 1827.65 1174.41 C 1836.25 1254.86 1813.2 1325.78 1764.49 1388.61 C 1717.25 1449.54 1660.41 1487.16 1585.48 1505.72 C 1567.5 1510.17 1553.8 1513.64 1534.98 1515.93 C 1524.82 1517.25 1513.78 1517.95 1503.5 1518.33 C 1393.19 1522.18 1284.85 1488.41 1196.27 1422.56 C 1169.07 1402.72 1152.09 1386.91 1127.62 1364.22 L 1190.93 1305.86 C 1203.34 1294.32 1221.86 1275.84 1235.59 1266.75 C 1239.05 1264.45 1263.33 1257.04 1270.17 1254.26 C 1292.94 1244.85 1314.94 1233.68 1335.96 1220.84 C 1373.27 1251.21 1431.51 1274.46 1478.1 1285.43 C 1505.93 1291.98 1553.82 1295.9 1568 1264.19 C 1573.47 1251.97 1573.34 1235.67 1568.28 1223.32 C 1565.13 1215.68 1560.37 1208.8 1554.34 1203.14 C 1532.52 1182.95 1454.93 1148.8 1425.63 1135.91 C 1486.19 1052.27 1520.82 956.972 1508.94 851.502 C 1499.08 764.015 1459.25 700.932 1389.75 646.894 C 1438.85 612.628 1494.31 597.507 1553.33 593.416 z" fill="rgb(0,0,0)" transform="translate(0,0)"></path>
<path d="M 1137.79 599.487 C 1214.75 604.849 1272.78 615.98 1339.47 657.288 C 1437.46 717.98 1479.69 817.399 1470.62 930.778 C 1463.02 1025.84 1415.09 1103.28 1343.62 1164.74 C 1314.9 1189.54 1282.32 1209.49 1247.17 1223.81 C 1142.06 1267.48 1069.17 1249.92 960.699 1254.6 C 948.874 1297.42 938.247 1343.05 927.109 1386.3 L 907.961 1462.78 C 905.14 1474.08 900.617 1489.58 898.396 1500.56 C 893.474 1501.51 865.173 1501.16 858.295 1501.15 L 764.368 1501.07 L 632.613 1501.02 C 619.417 1501.02 581.848 1502.06 570.832 1500.65 C 579.78 1499.62 618.625 1501.43 623.562 1499.2 L 630.048 1498.26 C 670.224 1491.13 721.786 1470.88 756.87 1449.84 C 819.693 1412.17 865.532 1351.6 891.728 1283.81 C 902.178 1256.76 909.708 1227.18 916.852 1199.13 C 1036.36 1199.88 1144.87 1210.63 1248.88 1139.19 C 1316.57 1092.68 1370.07 1013.39 1385.31 932.836 C 1399.55 859.558 1383.76 783.63 1341.48 722.108 C 1291.84 650.021 1217.23 616.875 1134.19 601.578 C 1135.45 600.813 1136.49 600.201 1137.79 599.487 z" fill="rgb(0,0,0)" transform="translate(0,0)"></path>
<path d="M 623.562 1499.2 L 630.048 1498.26 L 630.958 1499.87 C 693.524 1501.19 760.115 1500.15 823.029 1500.3 L 870.472 1500.21 C 877.753 1500.17 891.721 1499.72 898.396 1500.56 C 893.474 1501.51 865.173 1501.16 858.295 1501.15 L 764.368 1501.07 L 632.613 1501.02 C 619.417 1501.02 581.848 1502.06 570.832 1500.65 C 579.78 1499.62 618.625 1501.43 623.562 1499.2 z" fill="rgb(129,137,127)" transform="translate(0,0)"></path>
<path d="M 1127.56 601.178 L 1126.43 600.984 C 1124.08 600.562 1106.71 598.984 1106.46 597.827 C 1107.67 596.983 1122.19 597.864 1124.28 598.441 L 1127.56 601.178 z" fill="rgb(161,159,161)" transform="translate(0,0)"></path>
<path d="M 1124.28 598.441 C 1128.2 598.9 1135 598.868 1137.79 599.487 C 1136.49 600.201 1135.45 600.813 1134.19 601.578 C 1131.78 601.461 1130.03 601.139 1127.56 601.178 L 1124.28 598.441 z" fill="rgb(41,40,41)" transform="translate(0,0)"></path>
<metadata><recraft-signature>{"signed_by": "recraft", "signature_b64": "MWsDDPhjLe0Ffsl8gOeiJnU63Ou6cvTZ0WZZ0Y5FaIv2B6cI4sSb7w7jtu2xuMO+tc3RzyWxGhMUaAjWweTWBQ==", "signing_algo": "Ed25519", "generation_timestamp": 1772546165, "identifier": "59670239-64ff-434e-bd4c-92598ca515c0"}</recraft-signature></metadata></svg>