<svg xmlns="http://www.w3.org/2000/svg" height="1024" preserveAspectRatio="none" style="display: block;" version="1.1" viewBox="0 0 2048 2048" width="1024">
<path d="M 0 0 L 2048 0 L 2048 2048 L 0 2048 L 0 0 z" fill="rgb(251,251,251)" transform="translate(0,0)"></path>
<path d="M 540.156 1156.98 L 541.702 1156.92 C 544.986 1161.56 541.466 1199.65 540.998 1208.09 C 548.278 1189.9 556.997 1179.1 575.004 1170.09 C 591.645 1161.92 610.86 1160.72 628.385 1166.77 C 719.8 1197.8 683.664 1391.94 574.93 1359.76 C 557.512 1354.61 547.125 1338.11 540.124 1322.39 C 538.494 1327.65 540.996 1375.67 542.84 1383.56 C 547.33 1402.77 552.294 1411.22 568.386 1422.19 L 461.856 1422.51 C 463.203 1421.23 464.522 1419.92 465.811 1418.58 C 473.533 1410.76 479.018 1401.01 481.694 1390.34 C 487.045 1369.7 485.031 1337.61 485.201 1315.39 C 485.4 1289.32 485.568 1262.34 485.266 1236.24 C 484.984 1211.81 482.849 1200.24 465.139 1183.15 C 489.709 1176.06 515.96 1165.82 540.156 1156.98 z" fill="rgb(28,27,27)" transform="translate(0,0)"></path>
<path d="M 568.69 1188.19 C 629.414 1191.11 636.773 1325.21 590.425 1348.74 C 566.385 1355.73 551.971 1342.01 546.562 1319.17 C 541.142 1296.28 541.632 1272.23 541.606 1248.85 C 541.595 1238.54 540.166 1226.5 541.605 1216.38 C 542.244 1211.6 543.903 1207.01 546.468 1202.93 C 551.869 1194.31 559.023 1190.24 568.69 1188.19 z" fill="rgb(251,251,251)" transform="translate(0,0)"></path>
<path d="M 1026.3 697.402 C 1031.59 696.688 1043.09 696.74 1048.79 696.596 C 1087.76 695.877 1131.24 701.72 1164.93 722.326 C 1207.64 748.447 1228.93 808.113 1200.19 852.081 C 1184.7 875.594 1160.48 891.975 1132.89 897.609 C 1107.91 902.644 1085.66 899.465 1064.43 885.554 C 1064.52 909.323 1063.9 937.007 1065.92 960.446 C 1067.65 980.417 1076.53 994.538 1092.3 1006.77 C 1056.58 1005.61 1020.55 1006.69 984.722 1006.5 C 995.839 996.137 1005.02 979.33 1006.5 964.047 C 1010.13 920.625 1008.05 876.179 1008.14 832.508 C 1008.2 803.897 1012.86 771.869 987.858 752.827 C 1015.54 747.453 1043.03 734.334 1070.37 725.664 C 1066.57 752.429 1065.25 775.235 1064.73 802.214 C 1063.68 823.84 1063.63 858.966 1064.7 880.617 C 1082.81 893.977 1101.89 903.007 1121.45 885.331 C 1142.61 865.515 1151.72 833.816 1152.79 805.961 C 1154.92 751.035 1128.36 707.532 1071 701.206 C 1028.6 696.53 988.142 708.39 956.208 737.472 C 940.631 751.658 928.393 771.816 927.201 793.092 C 926.708 805.705 932.611 819.116 947.086 818.561 C 955.719 818.229 959.982 812.686 965.444 806.832 C 977.298 812.079 987.001 817.393 988.791 831.792 C 994.432 877.178 941.815 894.925 910.879 868.136 C 875.475 837.477 881.724 781.505 910.48 748.302 C 940.322 713.845 982.097 701.421 1026.3 697.402 z" fill="rgb(28,27,27)" transform="translate(0,0)"></path>
<path d="M 345.938 1068.75 C 357.634 1068.54 368.358 1068.56 379.963 1070.42 C 399.486 1074.77 410.364 1078.96 427.655 1087.8 C 460.68 1104.67 465.507 1152.2 423.715 1160.02 C 414.979 1161.67 405.948 1159.69 398.7 1154.54 C 392.174 1149.97 387.772 1142.96 386.494 1135.1 C 383.631 1116.68 393.794 1113.7 400.491 1103.84 C 402.311 1101.21 402.946 1097.94 402.241 1094.82 C 397.623 1073.84 326.466 1066.43 315.175 1093.62 C 299.521 1131.32 341.728 1151.06 366.191 1166.01 C 402.258 1188.04 452.947 1217.17 463.97 1260 C 470.882 1286.6 466.912 1314.86 452.939 1338.52 C 416.199 1399.84 318.176 1410.02 260.047 1375.93 C 225.312 1355.56 202.608 1317.62 213.267 1276.99 C 225.376 1230.83 283.692 1222.22 322.766 1235.26 C 353.998 1245.53 380.336 1279.33 360.158 1311.67 C 354.822 1320.18 334.225 1334.85 323.908 1327.37 C 320.342 1324.75 323.061 1313.32 322.237 1309.17 C 322.437 1287.06 303.921 1242.8 276.761 1245.91 C 250.378 1248.92 246.529 1288.02 248.281 1307.24 C 250.477 1330.43 261.891 1351.77 279.963 1366.47 C 312.149 1392.96 356.546 1397.61 390.929 1372.57 C 424.782 1347.91 425.646 1311 404.481 1277.74 C 379.285 1238.14 335.992 1228.69 300.848 1201.55 C 281.364 1186.53 265.916 1165.76 263.342 1140.53 C 261.735 1124.82 266.532 1109.12 276.646 1096.99 C 293.668 1076.81 320.886 1070.85 345.938 1068.75 z" fill="rgb(28,27,27)" transform="translate(0,0)"></path>
<path d="M 1640.68 744.044 C 1640.87 742.915 1641.12 740.364 1641.96 739.545 C 1643.74 739.101 1643.01 747.974 1643 748.983 C 1642.75 770.054 1642.68 791.127 1642.8 812.2 C 1660.92 811.927 1675.24 814 1692.52 814.406 C 1718.4 815.013 1745.18 814.859 1771.13 814.974 C 1748.45 840.057 1767.6 868.603 1776 896 C 1782.82 918.237 1790.65 944.248 1798.93 965.865 C 1810.59 931.291 1821.98 890.71 1832.33 855.297 C 1837.68 836.99 1825.83 824.623 1811.15 814.704 C 1828.15 814.93 1859.06 815.91 1875.37 814.748 L 1877.08 818.11 C 1853.38 830.075 1836.93 855.901 1828.77 880.969 C 1811.21 934.935 1796.81 998.991 1773.09 1049.95 C 1759.53 1079.09 1719.28 1096.53 1690.17 1086.39 C 1662.91 1079.17 1657.05 1043.47 1681.22 1033.07 C 1709.67 1020.82 1741.73 1060.52 1773.54 1039.05 C 1779.57 1029.58 1781.66 1023.81 1783.83 1012.62 C 1779.57 1012.27 1774.27 1011.98 1770.4 1010.28 C 1750.4 1001.51 1742.55 974.487 1736.35 955.686 L 1717.3 897.1 C 1705.97 861.596 1702.6 841.062 1672.19 816.069 L 1642.93 816.228 L 1642.78 910.726 C 1642.76 926.777 1641.98 943.935 1643.9 959.852 C 1644.8 967.354 1649.74 972.409 1655.7 976.608 C 1666.08 978.044 1670.61 979.382 1678.92 971.945 L 1681.45 974.361 C 1673.52 986.334 1666.01 997.617 1652.85 1004.4 C 1635.75 1013.23 1612.61 1011.56 1598.52 997.827 C 1592.17 991.523 1586.61 981.698 1584.69 972.757 C 1580.44 952.958 1582.12 930.06 1582.12 909.8 L 1581.98 815.189 C 1571.7 815.588 1561.4 815.152 1551.18 813.887 C 1595.11 801.016 1623.76 790.182 1640.68 744.044 z" fill="rgb(28,27,27)" transform="translate(0,0)"></path>
<path d="M 1640.68 744.044 C 1640.87 742.915 1641.12 740.364 1641.96 739.545 C 1643.74 739.101 1643.01 747.974 1643 748.983 C 1642.21 746.349 1642.19 746.395 1640.68 744.044 z" fill="rgb(53,48,48)" transform="translate(0,0)"></path>
<path d="M 1438.74 1048.91 C 1439.24 1054.39 1435.75 1083.47 1435.4 1092.39 C 1433.82 1144.31 1433.09 1196.26 1433.24 1248.22 C 1433.21 1257.05 1433.17 1266.09 1433.16 1274.9 C 1433.1 1311.07 1429.77 1330.4 1451.5 1360.58 C 1457.72 1355.38 1460.95 1349.99 1464.08 1342.59 C 1467.01 1335.52 1469 1328.09 1470.01 1320.51 C 1473.02 1297.72 1471.29 1245.89 1468.77 1221.92 C 1467.84 1212.99 1462.82 1199.04 1459.49 1190.66 C 1479.78 1181.41 1509.57 1167.85 1529.55 1159.86 L 1530.01 1261.5 C 1529.84 1299.81 1524.44 1332.6 1549.68 1362.31 C 1486.57 1361.2 1419.74 1363.86 1357.3 1361.69 C 1364.73 1354.07 1372.37 1342.4 1374.46 1331.98 C 1377.93 1311.56 1378.18 1285.34 1377.37 1264.63 C 1375.43 1214.78 1384.02 1121.99 1358.6 1079.27 C 1385.72 1079.57 1417.54 1065.78 1438.74 1048.91 z" fill="rgb(28,27,27)" transform="translate(0,0)"></path>
<path d="M 530.054 737.108 C 531.886 739.154 528.555 752.385 527.988 756.105 C 523.206 787.509 522.873 818.47 523.004 850.086 C 536.435 831.072 556.675 812.646 581.071 810.526 C 592.931 809.495 608.229 813.143 616.915 821.534 C 663.878 866.902 613.648 964.876 661.8 1006.67 C 633.855 1006.04 586.598 1004.98 558.984 1006.63 C 580.468 983.35 581.409 953.734 581.194 923.599 C 581.073 906.726 582.109 890.634 577.972 874.07 C 569.411 847.028 545.544 833.54 522.994 855.516 C 522.768 862.894 522.629 870.275 522.578 877.656 C 522.473 893.99 522.488 910.323 522.623 926.657 C 522.828 959.727 521.596 982.069 545.627 1006.56 C 510.998 1006.2 476.367 1006.1 441.737 1006.26 C 466.757 985.718 466.783 953.71 465.875 923.832 C 464.105 865.603 469.937 799.161 457.31 742.485 C 483.24 754.678 506.28 752.608 530.054 737.108 z" fill="rgb(28,27,27)" transform="translate(0,0)"></path>
<path d="M 1250.75 1162.44 C 1266.72 1161.04 1288.15 1165.33 1301.04 1173.36 C 1356.32 1207.83 1334.76 1279.4 1342.4 1332.82 C 1343.87 1343.08 1353.65 1338.21 1358.79 1340.94 C 1354.07 1352.97 1342.64 1360.72 1330.29 1363.02 C 1298.77 1368.87 1286 1352.63 1280.09 1325.42 C 1274.62 1336.51 1269.59 1343.5 1259.37 1350.77 C 1245.1 1361 1227.28 1364.98 1210.01 1361.82 C 1192.24 1358.59 1179.7 1349.12 1169.61 1334.53 C 1164.95 1326.29 1162.47 1317 1162.41 1307.53 C 1162.34 1297.57 1164.32 1291.09 1169.21 1281.07 C 1191.78 1234.81 1282.96 1246.99 1285.67 1190.5 C 1286.48 1173.53 1273.25 1162.39 1256.8 1165.37 C 1229.32 1170.33 1242.2 1204.97 1227.58 1220.93 C 1217.77 1231.86 1200.6 1233.98 1189.47 1225.06 C 1178.04 1215.9 1180.66 1193.79 1190.43 1184.36 C 1205.93 1167.95 1229.1 1163.85 1250.75 1162.44 z" fill="rgb(28,27,27)" transform="translate(0,0)"></path>
<path d="M 1285.69 1207.82 L 1286.43 1208.65 C 1287.02 1218.05 1285.56 1237.08 1284.38 1246.98 C 1281.44 1271.75 1290.41 1368.6 1238.34 1329.01 C 1222.11 1312.29 1223.5 1291.88 1233.69 1272.55 C 1246.87 1247.52 1272.48 1232.33 1285.69 1207.82 z" fill="rgb(251,251,251)" transform="translate(0,0)"></path>
<path d="M 1274.74 810.414 C 1295.25 807.532 1324.78 813.955 1340.79 827.059 C 1383.45 861.97 1367.41 926.49 1371.22 974.611 C 1372.39 989.457 1380.74 987.407 1391.07 984.287 C 1384.12 996.101 1378.79 1002.89 1364.81 1007.85 C 1354.25 1011.59 1339.14 1011.66 1329.23 1006.02 C 1315.33 998.119 1313.49 987.753 1309.29 973.98 C 1304.86 981.923 1301.6 986.962 1295.02 993.101 C 1282.57 1004.62 1266.01 1010.64 1249.08 1009.79 C 1229.54 1008.94 1216.59 1001.35 1203.72 987.125 C 1187.07 965.165 1189.18 934.327 1209.33 915.214 C 1232.96 892.793 1267.56 889.551 1294.81 872.927 C 1309.41 864.778 1319.12 849.65 1316.36 832.599 C 1312.31 807.594 1275.42 805.284 1269.19 829.871 C 1266 842.417 1268.27 854.684 1260.91 866.028 C 1253.23 877.858 1232.39 880.829 1221.34 872.455 C 1210.42 863.98 1211.79 842.2 1220.54 832.464 C 1233.93 816.83 1255.15 812.268 1274.74 810.414 z" fill="rgb(28,27,27)" transform="translate(0,0)"></path>
<path d="M 1316.59 855.726 C 1318.12 863.575 1314.39 896.306 1313.44 906.684 C 1311.54 927.328 1314.73 958.969 1304.23 976.708 C 1295.6 991.28 1277.3 983.239 1266.79 975.254 C 1262.01 970.183 1258.64 963.946 1257.03 957.166 C 1247.22 916.169 1297.92 887.078 1316.59 855.726 z" fill="rgb(251,251,251)" transform="translate(0,0)"></path>
<path d="M 752.201 810.436 C 767.84 809.206 787.981 813.803 801.588 821.559 C 827.967 836.596 838.156 858.319 846.035 886.106 L 714.181 886.344 C 717.547 937.171 757.096 991.225 815.442 964.874 C 828.315 959.06 840.473 939.849 843.865 926.115 C 845.029 927.177 846.094 927.593 845.717 929.466 C 837.353 970.954 805.45 1007.55 761.363 1010.07 C 735.741 1011.54 713.592 1005.45 694.099 988.606 C 674.055 971.359 661.803 946.767 660.107 920.379 C 656.947 875.911 681.071 828.579 725.452 814.519 C 734.692 811.592 742.551 811.071 752.201 810.436 z" fill="rgb(28,27,27)" transform="translate(0,0)"></path>
<path d="M 752.214 812.31 C 753.872 811.403 754.236 811.363 755.739 812.45 L 757.1 812.692 C 785.643 817.565 790.056 859.04 790.756 882.197 C 765.19 882.039 739.453 882.291 713.917 881.943 C 714.285 853.93 720.16 819.159 752.214 812.31 z" fill="rgb(251,251,251)" transform="translate(0,0)"></path>
<path d="M 752.214 812.31 C 753.872 811.403 754.236 811.363 755.739 812.45 C 753.847 812.799 753.98 812.837 752.214 812.31 z" fill="rgb(95,98,98)" transform="translate(0,0)"></path>
<path d="M 775.997 1161.76 C 782.37 1160.54 790.971 1160.73 797.359 1161.88 C 838.012 1163.7 863.113 1197.89 870.697 1234.86 C 829.763 1234.85 787.486 1234.43 746.654 1235.23 C 746.948 1242.83 748.082 1250.37 750.035 1257.72 C 755.86 1279.52 768.461 1299.35 788.498 1310.9 C 813.402 1325.26 845.878 1320.57 861.538 1294.82 C 865.673 1288.02 868.015 1280.35 871.814 1273.12 C 868.564 1292.61 862.756 1309.43 850.77 1325.23 C 821.064 1363.68 771.484 1373 732.114 1343.07 C 667.893 1294.24 692.71 1172.45 775.997 1161.76 z" fill="rgb(28,27,27)" transform="translate(0,0)"></path>
<path d="M 777.562 1163.5 C 781.843 1163.21 784.521 1163.5 788.295 1163.33 C 816 1172.99 819.446 1205.14 820.159 1230.76 L 746.759 1231.1 C 747.162 1206.15 751.874 1174.78 777.562 1163.5 z" fill="rgb(251,251,251)" transform="translate(0,0)"></path>
<path d="M 775.997 1161.76 C 782.37 1160.54 790.971 1160.73 797.359 1161.88 C 794.013 1162.25 791.384 1162.04 788.295 1163.33 C 784.521 1163.5 781.843 1163.21 777.562 1163.5 L 775.997 1161.76 z" fill="rgb(53,48,48)" transform="translate(0,0)"></path>
<path d="M 979.591 1163.31 C 1004.79 1159.76 1043.8 1165.65 1060.17 1187.66 C 1073.25 1205.25 1067.12 1230.17 1048.51 1241.55 C 1039.63 1246.97 1028.9 1248.49 1018.86 1245.75 C 1010.33 1243.38 1003.12 1237.65 998.879 1229.88 C 993.18 1219.52 992.001 1203.3 998.711 1192.75 C 1001.85 1188.14 1008.41 1184.03 1009.74 1178.53 C 1011.85 1169.87 1002.92 1166.73 995.696 1166.71 C 956.524 1166.65 945.2 1207.73 945.934 1239.7 C 946.623 1269.7 959.377 1300.72 986.313 1316.13 C 998.509 1323.11 1009.49 1324.33 1023.23 1323.93 C 1052.22 1319.59 1060.36 1305.04 1072.21 1281.5 L 1072.88 1282.02 C 1071.94 1294.91 1061.56 1315.93 1054.38 1326.46 C 1041.72 1345.03 1022.12 1357.74 1000 1361.74 C 975.406 1366.14 950.07 1360.56 929.597 1346.23 C 872.205 1306.28 880.479 1214.17 937.113 1177.67 C 950.433 1169.08 964.182 1165.89 979.591 1163.31 z" fill="rgb(28,27,27)" transform="translate(0,0)"></path>
<path d="M 508.113 632.248 C 509.772 632.206 510.197 632.174 511.474 632.214 C 522.121 632.53 532.165 637.229 539.23 645.2 C 560.105 669.129 548.029 710.432 525.078 727.893 C 485.218 757.288 445.609 726.608 408.499 710.275 C 348.537 683.884 269.654 699.976 235.924 759.394 C 226.652 775.728 219.891 810.198 244.845 814.525 C 251.316 815.647 260.526 807.412 264.745 802.949 C 265.678 803.22 266.607 803.503 267.532 803.8 C 288.68 810.647 293.578 831.129 286.69 850.562 C 280.074 863.577 268.27 873.945 253.423 876.063 C 219.629 880.884 192.238 851.983 188.019 820.141 C 184.538 796.227 192.074 767.754 207.312 748.611 C 266.695 674.007 375.711 695.476 458.169 703.254 C 469.628 704.335 496.228 708.791 503.426 698.571 C 503.109 690.668 483.072 687.888 481.121 671.642 C 478.733 651.773 487.532 635.568 508.113 632.248 z" fill="rgb(28,27,27)" transform="translate(0,0)"></path>
<path d="M 1616.3 1164.48 C 1608.68 1167.14 1600.62 1170.24 1596.86 1178.03 C 1594.01 1183.9 1594.27 1191.42 1596.76 1197.37 C 1612.93 1236.02 1693.07 1226.75 1706.41 1287.42 C 1709.02 1299.26 1708.51 1311.98 1704.14 1323.35 C 1698.51 1338 1687.37 1347.92 1673.17 1353.93 C 1647.53 1364.76 1613.93 1365.15 1588.21 1354.46 C 1573.51 1348.35 1557.17 1337.36 1551.17 1321.98 C 1547.8 1313.37 1547.7 1303.16 1551.74 1294.74 C 1554.61 1288.76 1560.67 1283.42 1567.05 1281.49 C 1573.53 1279.53 1583.44 1281.06 1589.25 1284.43 C 1594.67 1287.58 1597.74 1293.08 1599.09 1299.07 C 1602.94 1316.17 1594.19 1343.27 1611.52 1355 C 1618.74 1359.88 1629 1359.67 1637.15 1357.8 C 1646.47 1355.67 1655.45 1350.71 1660.33 1342.22 C 1664.34 1335.26 1665.5 1325.69 1663.04 1318.01 C 1652.52 1285.05 1562.49 1282.25 1556.02 1223.61 C 1554.95 1213.87 1556.12 1203.84 1560.46 1195 C 1567.87 1179.9 1582.6 1171.04 1598.16 1166.13 C 1621.63 1158.73 1654.89 1162.45 1676.5 1174.07 C 1687.49 1179.99 1697.59 1189.22 1701.05 1201.59 C 1702.68 1207.4 1702.71 1213.34 1699.39 1218.58 C 1696.1 1223.76 1689.68 1227.87 1683.74 1229.2 C 1679.85 1230.06 1675.87 1229.54 1672.53 1227.33 C 1650.91 1213.05 1666.22 1174.19 1627.07 1164.6 C 1621.9 1165.02 1621.42 1165.06 1616.3 1164.48 z" fill="rgb(28,27,27)" transform="translate(0,0)"></path>
<path d="M 1616.3 1164.48 C 1621.25 1163.16 1622.11 1163.3 1627.07 1164.6 C 1621.9 1165.02 1621.42 1165.06 1616.3 1164.48 z" fill="rgb(95,98,98)" transform="translate(0,0)"></path>
<path d="M 1467.77 799.097 C 1468.86 801.447 1466.27 852.996 1466.62 861.786 C 1469.51 848.367 1471.14 842.291 1479.87 830.879 C 1495.15 810.915 1529.8 802.849 1550.02 819.668 C 1565.99 832.954 1567.14 860.419 1552.3 875.357 C 1542.28 885.437 1530.69 884.149 1524.65 870.717 C 1522.97 867.035 1517.68 859.763 1515.14 857.06 C 1505.07 846.308 1484.03 848.01 1474.73 858.997 C 1468.21 866.533 1465.66 879.029 1464.67 888.998 C 1462.74 908.39 1462.23 929.248 1463.77 948.755 C 1464.82 971.471 1470.42 992.652 1489.96 1006.33 C 1456.72 1006.97 1422.03 1006.03 1388.55 1006.05 C 1390.7 1003.88 1393.23 1001.34 1395.1 998.961 C 1400.17 992.413 1403.8 984.867 1405.75 976.817 C 1411.31 953.498 1409.33 889.569 1407.35 863.243 C 1406.13 847.01 1401.05 837.606 1388.2 827.776 C 1413.62 820.698 1443.39 809.414 1467.77 799.097 z" fill="rgb(28,27,27)" transform="translate(0,0)"></path>
<path d="M 1786.23 1101.65 L 1789.09 1103.99 C 1789.03 1112.04 1787.7 1162.47 1790.15 1166.16 L 1791.71 1166.62 C 1796.55 1166.68 1817.91 1164.96 1818.97 1169.11 C 1812.75 1170.49 1796.02 1170.03 1788.96 1170.01 C 1788.05 1214.15 1789.34 1258.86 1788.94 1303.03 C 1788.82 1316.52 1794.73 1333.24 1810.93 1331.96 C 1820.7 1331.19 1825.66 1324.9 1831.54 1318.1 C 1821.79 1341.42 1806.26 1362.52 1778.35 1363.45 C 1765.67 1363.97 1753.32 1359.27 1744.19 1350.46 C 1726.78 1333.65 1728.64 1306.66 1728.24 1284.38 C 1727.57 1246.09 1728.62 1207.75 1728.16 1169.47 C 1723.12 1168.99 1716.75 1169.08 1711.59 1169.01 C 1710.16 1169.03 1700.8 1169.82 1701.59 1167.8 C 1701.82 1167.22 1705.36 1166.6 1705.98 1166.48 C 1744.47 1155.69 1771.05 1139.97 1786.23 1101.65 z" fill="rgb(28,27,27)" transform="translate(0,0)"></path>
<path d="M 1791.71 1166.62 C 1796.55 1166.68 1817.91 1164.96 1818.97 1169.11 C 1815.63 1168.87 1791.15 1168.82 1790.1 1168.42 L 1790.09 1168.19 C 1790.48 1167.45 1791.01 1167.18 1791.71 1166.62 z" fill="rgb(20,16,14)" transform="translate(0,0)"></path>
<path d="M 1711.59 1169.01 C 1710.16 1169.03 1700.8 1169.82 1701.59 1167.8 C 1701.82 1167.22 1705.36 1166.6 1705.98 1166.48 C 1708.59 1168.18 1708.53 1168.13 1711.59 1169.01 z" fill="rgb(53,48,48)" transform="translate(0,0)"></path>
<path d="M 336.507 706.399 C 342.351 737.912 336.202 776.225 338.615 808.539 C 339.224 816.693 336.11 833.176 342.957 838.181 C 344.327 838.044 345.661 838.32 346.635 837.21 C 352.612 830.394 348.294 716.695 351.97 712.165 L 355.614 712.167 C 356.03 712.593 356.446 713.018 356.862 713.444 C 357.8 754.608 357.617 795.824 358.998 836.974 C 359.061 838.849 362.282 838.989 363.403 839.159 C 369.944 836.609 367.442 833.017 368.198 827.65 C 370.05 814.499 367.052 719.356 371.344 711.877 C 373.006 712.575 375.181 714.308 375.269 716.178 C 377.017 753.554 376.118 791.463 377.794 828.927 C 377.941 832.222 379.246 836.013 381.479 838.481 C 384.438 839.308 382.952 839.369 386.039 837.794 C 393.818 824.757 383.222 717.531 391.098 712.355 L 392.525 712.693 C 394.957 721.305 395.159 739.289 396.284 749.179 C 399.389 776.471 401.85 804.177 404.257 831.545 C 405.351 845.325 406.188 861.581 399.088 874.014 C 388.31 892.888 372.505 892.182 373.078 917.809 C 373.912 955.031 376.022 991.98 377.661 1029.16 C 378.267 1042.92 378.842 1056.72 379.963 1070.42 C 368.358 1068.56 357.634 1068.54 345.938 1068.75 C 346.202 1016.44 352.939 959.845 351.708 907.823 C 351.348 892.622 318.696 884.057 321.211 847.155 C 323.884 807.936 326.852 767.482 332.557 728.158 C 333.442 721.198 334.218 712.94 336.507 706.399 z" fill="rgb(225,183,98)" transform="translate(0,0)"></path>
<path d="M 1145.93 1159.91 C 1146.76 1163.79 1146.18 1183.83 1146.22 1189.31 L 1146.23 1265.32 C 1146.22 1298.32 1142.7 1335.43 1165.94 1361.79 C 1137.27 1362.71 1104.77 1361.99 1075.8 1362.02 C 1073.01 1362.09 1072.79 1362.06 1070.04 1361.53 C 1069.77 1358.33 1074.81 1354.37 1076.76 1351.02 C 1087.99 1331.81 1088.48 1309.5 1088.04 1287.86 C 1087.34 1253.29 1090.77 1223.1 1075.15 1191.19 C 1097.37 1180.38 1122.76 1171.05 1145.93 1159.91 z" fill="rgb(28,27,27)" transform="translate(0,0)"></path>
<path d="M 1495.63 1089.48 C 1507.67 1087.84 1519.66 1092.8 1527.03 1102.46 C 1534.4 1112.12 1536.01 1124.99 1531.25 1136.17 C 1526.49 1147.35 1516.09 1155.11 1504.02 1156.49 C 1485.63 1158.59 1468.97 1145.5 1466.67 1127.13 C 1464.38 1108.77 1477.29 1091.97 1495.63 1089.48 z" fill="rgb(28,27,27)" transform="translate(0,0)"></path>
<path d="M 1113.08 1089.56 C 1125.17 1088.2 1137.05 1093.47 1144.17 1103.33 C 1151.28 1113.2 1152.52 1126.14 1147.41 1137.18 C 1142.3 1148.22 1131.64 1155.64 1119.51 1156.61 C 1101.18 1158.07 1085.06 1144.55 1083.31 1126.24 C 1081.55 1107.94 1094.81 1091.61 1113.08 1089.56 z" fill="rgb(28,27,27)" transform="translate(0,0)"></path>
<path d="M 1786.23 1101.65 C 1786.86 1099.6 1787.63 1096.32 1788.68 1094.66 C 1789.19 1095.12 1789.02 1096.05 1789.07 1096.61 L 1789.07 1096.18 C 1789.11 1098.78 1789.12 1101.38 1789.09 1103.99 L 1786.23 1101.65 z" fill="rgb(53,48,48)" transform="translate(0,0)"></path>
<path d="M 1678.92 971.945 C 1679.64 971.163 1682.18 967.874 1683.36 967.909 C 1684.36 968.998 1681.91 973.38 1681.45 974.361 L 1678.92 971.945 z" fill="rgb(53,48,48)" transform="translate(0,0)"></path>
<path d="M 1875.37 814.748 L 1878.58 814.846 C 1883.41 814.987 1878.5 817.367 1877.08 818.11 L 1875.37 814.748 z" fill="rgb(53,48,48)" transform="translate(0,0)"></path>
<metadata><recraft-signature>{"signed_by": "recraft", "signature_b64": "rDAQt0cmqJK29rjFDx8Yt1KgQ1kJYsYF9GmR+qv/VpKHggYwjF16jSfuQ3LkEh1TFiRjf81Pa/hqaHMP4Ww2Bg==", "signing_algo": "Ed25519", "generation_timestamp": 1772546279, "identifier": "bb46a2d6-475e-49b7-bc82-f75c4ff4b096"}</recraft-signature></metadata></svg>