<svg xmlns="http://www.w3.org/2000/svg" height="1024" preserveAspectRatio="none" style="display: block;" version="1.1" viewBox="0 0 2048 2048" width="1024">
<path d="M 0 0 L 2048 0 L 2048 2048 L 0 2048 L 0 0 z" fill="rgb(246,247,242)" transform="translate(0,0)"></path>
<path d="M 1213.05 684.695 C 1256.73 657.301 1310.75 642.772 1362.27 647.804 C 1434.7 648.736 1507.46 647.387 1579.67 648.352 L 1579.17 803.524 C 1580.82 821.394 1580.06 866.644 1579.77 885.492 C 1579.69 891.825 1579.55 895.727 1578.81 902.018 L 1430.31 902.721 C 1417.82 902.742 1364.55 901.994 1356.68 904.027 C 1352.77 903.897 1349.26 903.853 1345.35 903.311 C 1342.93 981.889 1309.53 1051.46 1246.13 1100.22 C 1241.38 1103.87 1225.44 1114.46 1222.85 1117.76 L 1222.22 1117.81 C 1190.79 1135.11 1172.15 1144.17 1136.01 1151.45 C 1130.64 1151.99 1125.46 1152.81 1120.02 1153.28 C 1111.74 1153.57 1103.2 1154.26 1094.9 1154.82 L 1094.86 1056.65 C 1094 1053.89 1094.44 1041.28 1094.21 1037.64 C 1093.12 1019.9 1096.7 964.043 1093.07 950.441 C 1080.15 1019.59 1048.91 1071.18 990.478 1112.56 C 953.492 1138.75 921.061 1147.21 877.019 1152.99 L 877.056 1402.55 C 837.032 1401.97 797.004 1401.78 756.977 1401.97 C 749.513 1401.96 710.196 1401.4 704.583 1402.83 L 702.157 1401.97 C 680.36 1403.2 649.816 1402.18 627.054 1402.18 L 478.503 1402.03 C 478.297 1382.69 477.769 1351.97 478.834 1333.29 C 477.612 1319.81 478.437 1291.43 478.433 1276.52 C 478.522 1239.21 478.404 1201.9 478.077 1164.6 C 477.704 1159.58 478.441 1153.37 478.461 1148.27 C 478.732 1079.91 507.12 1014.58 558.2 967.841 C 589.083 939.597 626.437 919.38 666.972 908.972 C 675.263 906.786 688.345 903.753 696.889 904.137 C 697.883 903.487 698.817 902.863 699.837 902.253 C 638.291 901.857 576.744 901.824 515.198 902.153 C 503.289 902.215 491.383 902.463 479.48 902.859 C 478.974 902.425 478.469 901.992 477.963 901.558 L 478.243 897.007 C 478.164 882.551 477.953 866.823 478.311 852.39 C 477.394 831.42 478.239 803.462 478.242 782.027 L 478.284 649.06 L 881.153 649.054 C 952.614 649.108 1026.64 650.352 1097.99 648.942 C 1135.55 647.33 1181.11 665.877 1213.05 684.695 z" fill="rgb(0,0,0)" transform="translate(0,0)"></path>
<path d="M 1213.05 684.695 C 1256.73 657.301 1310.75 642.772 1362.27 647.804 C 1434.7 648.736 1507.46 647.387 1579.67 648.352 L 1579.17 803.524 C 1580.82 821.394 1580.06 866.644 1579.77 885.492 C 1579.69 891.825 1579.55 895.727 1578.81 902.018 L 1430.31 902.721 C 1417.82 902.742 1364.55 901.994 1356.68 904.027 C 1352.77 903.897 1349.26 903.853 1345.35 903.311 C 1342.93 981.889 1309.53 1051.46 1246.13 1100.22 C 1241.38 1103.87 1225.44 1114.46 1222.85 1117.76 L 1222.22 1117.81 C 1213.24 1109.66 1197.89 1100.16 1187.42 1091.31 C 1144.22 1055 1114.54 1005.17 1103.18 949.894 C 1100.09 934.639 1098.82 918.776 1097.48 903.269 L 877.053 903.025 L 876.992 655.254 C 927.51 662.586 978.885 690.526 1016.13 724.973 C 1065.63 771.306 1094.88 835.263 1097.58 903.005 C 1178.68 901.842 1263.85 902.772 1345.18 902.887 C 1344.98 815.091 1287.66 725.303 1207.08 689.812 C 1194.88 698.752 1183.3 708.512 1172.42 719.024 C 1140.38 750.217 1116.67 791.103 1106 834.317 C 1103.63 843.878 1100.23 855.248 1100.1 865.05 L 1097.93 867.524 C 1097.07 795.103 1097.85 721.464 1097.99 648.942 C 1135.55 647.33 1181.11 665.877 1213.05 684.695 z" fill="rgb(205,163,81)" transform="translate(0,0)"></path>
<path d="M 1362.27 647.804 C 1434.7 648.736 1507.46 647.387 1579.67 648.352 L 1579.17 803.524 C 1580.82 821.394 1580.06 866.644 1579.77 885.492 C 1579.65 886.515 1579.27 892.994 1578.43 893.448 L 1578.27 893.307 L 1578.84 892.154 L 1577.8 891.473 C 1577.87 887.609 1577.12 885.748 1577.11 882.107 C 1577.42 850.666 1552.09 790.895 1534.28 764.803 C 1491.43 702.063 1432.4 665.358 1359.05 650.465 C 1358.3 648.67 1357.3 648.992 1355.38 648.618 L 1353.78 648.135 L 1362.27 647.804 z" fill="rgb(0,0,0)" transform="translate(0,0)"></path>
<path d="M 1579.17 803.524 C 1580.82 821.394 1580.06 866.644 1579.77 885.492 C 1579.65 886.515 1579.27 892.994 1578.43 893.448 L 1578.27 893.307 L 1578.84 892.154 L 1577.8 891.473 C 1577.87 887.609 1577.12 885.748 1577.11 882.107 C 1577.78 882.832 1577.86 883.073 1578.55 883.709 C 1579.7 881.013 1578.48 813.1 1579.17 803.524 z" fill="rgb(127,99,57)" transform="translate(0,0)"></path>
<path d="M 1354.11 650.251 C 1353.09 650.13 1340.24 648.667 1339.94 648.466 C 1341.22 646.952 1349.13 647.584 1351.11 647.645 L 1354.11 650.251 z" fill="rgb(127,99,57)" transform="translate(0,0)"></path>
<path d="M 1351.11 647.645 C 1352 647.809 1352.89 647.972 1353.78 648.135 L 1355.38 648.618 C 1357.3 648.992 1358.3 648.67 1359.05 650.465 C 1356.75 650.225 1356.33 650.151 1354.11 650.251 L 1351.11 647.645 z" fill="rgb(16,14,8)" transform="translate(0,0)"></path>
<path d="M 481.049 881.429 C 495.482 802.189 528.28 746.206 595.66 698.842 C 626.511 677.156 667.641 659.692 705.172 654.482 L 705.549 1220.12 L 705.216 1347.4 C 705.218 1357.35 705.915 1395.58 704.583 1402.83 L 702.157 1401.97 C 680.36 1403.2 649.816 1402.18 627.054 1402.18 L 478.503 1402.03 C 478.297 1382.69 477.769 1351.97 478.834 1333.29 C 477.612 1319.81 478.437 1291.43 478.433 1276.52 C 478.522 1239.21 478.404 1201.9 478.077 1164.6 C 477.704 1159.58 478.441 1153.37 478.461 1148.27 C 478.732 1079.91 507.12 1014.58 558.2 967.841 C 589.083 939.597 626.437 919.38 666.972 908.972 C 675.263 906.786 688.345 903.753 696.889 904.137 C 697.883 903.487 698.817 902.863 699.837 902.253 C 638.291 901.857 576.744 901.824 515.198 902.153 C 503.289 902.215 491.383 902.463 479.48 902.859 C 478.974 902.425 478.469 901.992 477.963 901.558 L 478.243 897.007 C 478.609 897.159 479.026 897.399 479.306 897.351 C 480.145 895.998 481.047 883.098 481.049 881.429 z" fill="rgb(205,163,81)" transform="translate(0,0)"></path>
<path d="M 478.077 1164.6 L 479.356 1163.73 C 480.615 1169.4 480.924 1174.4 481.446 1180.16 C 497.06 1286.71 574.164 1365.51 675.082 1395.4 C 683.94 1398.03 693.758 1399.3 702.157 1401.97 C 680.36 1403.2 649.816 1402.18 627.054 1402.18 L 478.503 1402.03 C 478.297 1382.69 477.769 1351.97 478.834 1333.29 C 477.612 1319.81 478.437 1291.43 478.433 1276.52 C 478.522 1239.21 478.404 1201.9 478.077 1164.6 z" fill="rgb(0,0,0)" transform="translate(0,0)"></path>
<path d="M 478.077 1164.6 L 479.356 1163.73 C 480.615 1169.4 480.924 1174.4 481.446 1180.16 C 480.887 1180.82 480.119 1181.34 479.767 1182.13 C 476.953 1188.41 481.632 1312.01 478.834 1333.29 C 477.612 1319.81 478.437 1291.43 478.433 1276.52 C 478.522 1239.21 478.404 1201.9 478.077 1164.6 z" fill="rgb(16,14,8)" transform="translate(0,0)"></path>
<path d="M 699.837 902.253 C 702.109 902.155 701.624 902.02 703.786 902.497 C 705.122 904.344 697.065 904.127 696.889 904.137 C 697.883 903.487 698.817 902.863 699.837 902.253 z" fill="rgb(232,207,154)" transform="translate(0,0)"></path>
<path d="M 1093.07 950.441 C 1092.58 944.035 1093.45 938.29 1094.1 931.9 C 1096.41 960.024 1094.79 991.22 1095.34 1019.69 C 1095.44 1025.15 1095.54 1053.16 1094.86 1056.65 C 1094 1053.89 1094.44 1041.28 1094.21 1037.64 C 1093.12 1019.9 1096.7 964.043 1093.07 950.441 z" fill="rgb(77,72,74)" transform="translate(0,0)"></path>
<path d="M 478.311 852.39 C 481.393 863.336 477.08 873.903 481.049 881.429 C 481.047 883.098 480.145 895.998 479.306 897.351 C 479.026 897.399 478.609 897.159 478.243 897.007 C 478.164 882.551 477.953 866.823 478.311 852.39 z" fill="rgb(16,14,8)" transform="translate(0,0)"></path>
<path d="M 1097.93 867.524 L 1100.1 865.05 C 1100.04 868.256 1100.26 874.016 1098.53 876.657 L 1098.7 876.896 L 1098.5 877.073 L 1098.32 876.861 C 1098.47 876.531 1098.62 876.202 1098.76 875.873 L 1097.96 875.061 C 1097.98 872.548 1097.93 870.037 1097.93 867.524 z" fill="rgb(77,72,74)" transform="translate(0,0)"></path>
<path d="M 1345.35 903.311 C 1349.26 903.853 1352.77 903.897 1356.68 904.027 C 1428.6 914.79 1487.1 944.555 1531.15 1003.89 C 1571.44 1057.21 1588.51 1124.53 1578.51 1190.6 C 1568.28 1256.1 1532.88 1315.01 1479.86 1354.8 C 1444.85 1380.76 1393.13 1403.04 1349.03 1403.09 C 1343.23 1404.14 1324.46 1403.84 1317.76 1403.85 L 1253.06 1403.89 L 1150.14 1403.83 C 1135.43 1403.82 1108.68 1404.44 1094.98 1403.03 C 1094.97 1330 1093.01 1250.77 1094.93 1178.34 C 1094.62 1175.6 1095.02 1169.82 1095.07 1166.73 C 1094.83 1163.56 1094.94 1158.18 1094.9 1154.82 C 1103.2 1154.26 1111.74 1153.57 1120.02 1153.28 C 1125.46 1152.81 1130.64 1151.99 1136.01 1151.45 C 1172.15 1144.17 1190.79 1135.11 1222.22 1117.81 L 1222.85 1117.76 C 1225.44 1114.46 1241.38 1103.87 1246.13 1100.22 C 1309.53 1051.46 1342.93 981.889 1345.35 903.311 z" fill="rgb(0,0,0)" transform="translate(0,0)"></path>
<path d="M 1222.22 1117.81 L 1222.85 1117.76 C 1255.47 1136.68 1271.87 1144.56 1308.93 1152.36 C 1311.19 1152.56 1312.84 1152.92 1315.06 1153.36 C 1322.39 1154.28 1330.04 1155.11 1337.32 1156.17 L 1338.09 1402.56 C 1341.71 1402.67 1345.45 1402.68 1349.03 1403.09 C 1343.23 1404.14 1324.46 1403.84 1317.76 1403.85 L 1253.06 1403.89 L 1150.14 1403.83 C 1135.43 1403.82 1108.68 1404.44 1094.98 1403.03 C 1094.97 1330 1093.01 1250.77 1094.93 1178.34 C 1094.62 1175.6 1095.02 1169.82 1095.07 1166.73 C 1094.83 1163.56 1094.94 1158.18 1094.9 1154.82 C 1103.2 1154.26 1111.74 1153.57 1120.02 1153.28 C 1125.46 1152.81 1130.64 1151.99 1136.01 1151.45 C 1172.15 1144.17 1190.79 1135.11 1222.22 1117.81 z" fill="rgb(205,163,81)" transform="translate(0,0)"></path>
<path d="M 1094.93 1178.34 C 1095.81 1180.75 1096.15 1185.29 1097.65 1185.98 C 1123.56 1301.27 1200.02 1377.99 1316.96 1400.6 C 1323.89 1401.28 1331.17 1402.12 1338.09 1402.56 C 1341.71 1402.67 1345.45 1402.68 1349.03 1403.09 C 1343.23 1404.14 1324.46 1403.84 1317.76 1403.85 L 1253.06 1403.89 L 1150.14 1403.83 C 1135.43 1403.82 1108.68 1404.44 1094.98 1403.03 C 1094.97 1330 1093.01 1250.77 1094.93 1178.34 z" fill="rgb(0,0,0)" transform="translate(0,0)"></path>
<path d="M 1316.96 1400.6 C 1323.89 1401.28 1331.17 1402.12 1338.09 1402.56 C 1341.71 1402.67 1345.45 1402.68 1349.03 1403.09 C 1343.23 1404.14 1324.46 1403.84 1317.76 1403.85 L 1253.06 1403.89 L 1150.14 1403.83 C 1135.43 1403.82 1108.68 1404.44 1094.98 1403.03 C 1109.18 1401.57 1141.46 1402.57 1157.04 1402.59 L 1281.12 1402.72 C 1290.49 1402.73 1305.01 1402.96 1314.71 1402.33 C 1315.46 1401.75 1316.21 1401.18 1316.96 1400.6 z" fill="rgb(16,14,8)" transform="translate(0,0)"></path>
<path d="M 1222.22 1117.81 L 1222.85 1117.76 C 1255.47 1136.68 1271.87 1144.56 1308.93 1152.36 C 1305.48 1154.28 1304.65 1153.93 1300.69 1154.95 C 1277.42 1154.9 1253.99 1155.87 1230.67 1156.01 C 1200.84 1155.98 1171.02 1155.62 1141.2 1154.94 C 1139.76 1154.37 1136.39 1153.71 1135.8 1153.27 C 1135.87 1152.66 1135.94 1152.05 1136.01 1151.45 C 1172.15 1144.17 1190.79 1135.11 1222.22 1117.81 z" fill="rgb(246,247,242)" transform="translate(0,0)"></path>
<path d="M 1120.02 1153.28 C 1125.46 1152.81 1130.64 1151.99 1136.01 1151.45 C 1135.94 1152.05 1135.87 1152.66 1135.8 1153.27 C 1136.39 1153.71 1139.76 1154.37 1141.2 1154.94 C 1135.25 1155.12 1124.68 1156.05 1120.02 1153.28 z" fill="rgb(236,226,209)" transform="translate(0,0)"></path>
<path d="M 1095.07 1166.73 C 1096.86 1173.68 1097 1178.78 1097.65 1185.98 C 1096.15 1185.29 1095.81 1180.75 1094.93 1178.34 C 1094.62 1175.6 1095.02 1169.82 1095.07 1166.73 z" fill="rgb(76,60,30)" transform="translate(0,0)"></path>
<path d="M 1308.93 1152.36 C 1311.19 1152.56 1312.84 1152.92 1315.06 1153.36 C 1310.77 1155.8 1305.94 1155.03 1300.69 1154.95 C 1304.65 1153.93 1305.48 1154.28 1308.93 1152.36 z" fill="rgb(236,226,209)" transform="translate(0,0)"></path>
<metadata><recraft-signature>{"signed_by": "recraft", "signature_b64": "/hmrtb40gAKAkijlffO9c6ua+AjzeIv3sibXmkys1v3zV2rlt8TxnCBkG/qvEelLAWlsoDKsDenEhXYwxk+2CQ==", "signing_algo": "Ed25519", "generation_timestamp": 1772546075, "identifier": "ba8caa6b-d3fc-4a0a-a031-4911cc1b4843"}</recraft-signature></metadata></svg>