<svg xmlns="http://www.w3.org/2000/svg" height="1024" preserveAspectRatio="none" style="display: block;" version="1.1" viewBox="0 0 2048 2048" width="1024">
<path d="M 0 0 L 2048 0 L 2048 2048 L 0 2048 L 0 0 z" fill="rgb(253,252,253)" transform="translate(0,0)"></path>
<path d="M 1527.89 826.271 C 1530.36 800.033 1537.17 788.213 1556.19 769.76 C 1562.77 763.369 1578.41 743.889 1586.94 742.236 C 1588.17 742.836 1590.03 743.386 1590.02 744.429 C 1589.59 770.031 1570.9 826.492 1565.2 849.585 C 1571.16 866.988 1588.44 917.614 1596.63 932.245 C 1649.24 931.185 1651.07 910.829 1670.45 869.577 C 1664.75 874.805 1658.12 881.227 1652.11 885.882 C 1644.81 877.506 1634.52 874.277 1624.26 869.989 C 1622.1 858.906 1623.83 859.485 1614.75 853.418 C 1614.77 847.067 1614.71 840.622 1614.96 834.284 C 1610.39 834.499 1606.73 835.152 1602.59 833.451 C 1598.3 828.045 1609.26 820.915 1613.42 817.342 C 1612.05 807.54 1609.38 796.336 1608.31 787.263 C 1619.7 779.822 1649.6 773.115 1663.55 770.214 C 1665.59 781.121 1667.62 789.334 1671.3 799.893 C 1680.52 800.706 1691.44 801.065 1700.26 802.14 C 1692.72 808.097 1685.41 812.948 1677.46 818.295 C 1680.67 829.324 1680.94 833.624 1682.25 844.959 C 1685.87 846.855 1690.62 848.688 1692.61 852.012 C 1693.08 855.483 1692.89 855.672 1692.3 859.01 C 1696.22 866.122 1703.62 872.788 1706.84 879.32 C 1713.33 892.451 1720.18 906.034 1726.16 919.377 C 1742.66 956.172 1763.78 986.482 1761.93 1028.5 C 1760.26 1066.51 1757.03 1104.83 1759.09 1142.81 C 1762.94 1148.42 1766.73 1154.08 1770.58 1159.68 C 1790.3 1188.32 1801.32 1222.07 1814.72 1253.89 C 1819.48 1265.21 1821.26 1269.96 1821.38 1282.34 L 1820.49 1285.05 C 1813.38 1286.6 1758.59 1285.74 1750.65 1284.57 L 1748.81 1282.62 L 1748.03 1283.87 C 1739.38 1282.57 1653.3 1282.49 1647.32 1283.84 C 1641.54 1286.09 1581.44 1285.3 1573.14 1283.99 C 1588.52 1271.21 1596.19 1272.24 1613.56 1253.64 C 1615.35 1238.59 1616.07 1221.76 1617.7 1206.29 C 1620.33 1183.57 1623.88 1160.97 1628.34 1138.54 C 1636.09 1098.97 1648.41 1061.99 1657.39 1022.82 C 1659.76 1013.19 1660.09 1003.09 1659.18 993.251 C 1659.44 990.351 1656.89 982.817 1659.15 980.616 C 1664.38 975.57 1672.11 972.867 1678.4 968.878 C 1707.34 950.531 1712.71 937.492 1707.61 904.184 C 1705.93 937.787 1705.95 948.284 1673.71 966.045 C 1657.8 974.811 1644.7 983.109 1626.47 987.988 C 1622.31 980.978 1619.48 973.824 1616.94 966.121 C 1639.83 957.203 1651.58 950.528 1667.54 931.827 C 1666.51 928.581 1665.97 925.402 1663.8 923.083 C 1663.54 925.684 1663.18 930.149 1661.83 932.18 C 1651.18 948.181 1625.38 956.287 1608.87 962.159 C 1613.85 971.239 1618.38 979.298 1623.84 988.143 C 1619.99 992.435 1618.87 993.982 1615.83 998.891 C 1620.26 1021.01 1628.74 1041.65 1635.19 1063.42 C 1631.14 1070.9 1629.36 1074.44 1626.46 1082.36 C 1623.68 1069.77 1618.92 1055.68 1615.06 1043.19 C 1610.74 1029.2 1606.45 1013.45 1601.09 999.971 C 1597.78 998.374 1594.25 996.446 1590.96 994.738 L 1590.94 981.802 C 1588.74 977.995 1589.7 974.515 1590.21 970.067 C 1584.92 959.821 1575.89 946.72 1581.11 935.079 C 1573.17 908.102 1562.43 876.864 1555.7 850.337 C 1546.5 842.93 1534.21 835.676 1527.89 826.271 z" fill="rgb(80,80,80)" transform="translate(0,0)"></path>
<path d="M 1647.32 1283.84 C 1646.68 1277.21 1645.33 1266.14 1646.6 1259.75 C 1655.01 1217.64 1663.85 1172.3 1683.64 1133.95 C 1689.38 1122.81 1695.24 1111.92 1701.06 1100.96 C 1708.58 1143.12 1710.36 1149.36 1735.96 1181.97 C 1749.8 1199.59 1777 1241.18 1783.96 1261.32 C 1773.68 1266.98 1756.16 1274.68 1748.81 1282.62 L 1748.03 1283.87 C 1739.38 1282.57 1653.3 1282.49 1647.32 1283.84 z" fill="rgb(253,252,253)" transform="translate(0,0)"></path>
<path d="M 1590.21 970.067 C 1597.23 970.713 1602.61 970.34 1609.47 970.544 C 1599.52 973.856 1597.47 973.423 1590.94 981.802 C 1588.74 977.995 1589.7 974.515 1590.21 970.067 z" fill="rgb(253,252,253)" transform="translate(0,0)"></path>
<path d="M 1743.58 983.875 L 1745.37 984.244 C 1747.08 988.066 1747.01 987.848 1746.78 992.047 C 1743.36 997.586 1688.11 1013.12 1677.23 1015.81 C 1676.06 1015.84 1675.59 1015.62 1674.42 1015.36 C 1673.39 1012.1 1672.66 1010.88 1673.49 1007.56 C 1676.95 1005.52 1690.46 1002.24 1695.26 1000.63 C 1710.11 995.675 1728.17 990.847 1742.29 984.467 L 1743.58 983.875 z" fill="rgb(253,252,253)" transform="translate(0,0)"></path>
<path d="M 1671.65 805.254 L 1672.68 805.936 C 1668.45 809.393 1619.24 823.836 1610.44 826.526 L 1610.09 826.524 L 1609.73 825.906 C 1622.94 816.086 1655.44 808.334 1671.65 805.254 z" fill="rgb(253,252,253)" transform="translate(0,0)"></path>
<path d="M 1821.38 1282.34 C 1822.01 1289.86 1821.97 1296.21 1821.94 1303.77 C 1750.12 1304.58 1678.29 1304.68 1606.47 1304.07 L 1158.35 1304.52 L 603.699 1304.72 C 544.223 1305.98 480.96 1304.6 421.065 1304.71 L 278.367 1305.04 C 262.513 1305.12 246.629 1305.74 230.785 1305.9 C 226.882 1305.94 223.861 1306.46 221.397 1304.32 C 222.329 1297.75 220.907 1289.22 223.072 1284.24 C 240.127 1283.5 263.247 1283.72 280.476 1284.18 C 331.662 1283.1 386.194 1284.06 437.728 1284.08 L 725.065 1284 L 1573.14 1283.99 C 1581.44 1285.3 1641.54 1286.09 1647.32 1283.84 C 1653.3 1282.49 1739.38 1282.57 1748.03 1283.87 L 1748.81 1282.62 L 1750.65 1284.57 C 1758.59 1285.74 1813.38 1286.6 1820.49 1285.05 L 1821.38 1282.34 z" fill="rgb(232,183,85)" transform="translate(0,0)"></path>
<path d="M 221.397 1304.32 C 228.319 1297.88 246.628 1299.95 256.538 1299.91 C 276.842 1299.83 297.146 1299.87 317.448 1300.03 C 366.081 1300.38 420.274 1299.29 468.35 1301.28 C 480.538 1299.38 516.185 1300.34 530.176 1300.43 L 634.135 1300.38 C 624.98 1303.36 616.866 1298.74 603.514 1302.12 C 629.256 1302.9 656.151 1302.4 682.007 1302.45 C 735.116 1302.84 788.228 1302.63 841.332 1301.84 L 993.495 1301.47 C 1043.27 1301.04 1104.78 1300.62 1155.59 1303.82 C 1155.97 1303.84 1158.09 1304.45 1158.35 1304.52 L 603.699 1304.72 C 544.223 1305.98 480.96 1304.6 421.065 1304.71 L 278.367 1305.04 C 262.513 1305.12 246.629 1305.74 230.785 1305.9 C 226.882 1305.94 223.861 1306.46 221.397 1304.32 z" fill="rgb(219,176,92)" transform="translate(0,0)"></path>
<path d="M 1080.69 896.618 C 1123.34 896.722 1179.16 888.25 1200.61 935.891 C 1208.64 953.247 1209.31 973.109 1202.47 990.967 C 1195.14 1010 1183.92 1020.12 1165.73 1028.34 C 1181.02 1049.21 1195.76 1070.49 1209.91 1092.16 C 1202.62 1092.87 1192.9 1092.69 1185.39 1092.75 C 1178.38 1092.75 1171.36 1092.64 1164.35 1092.42 C 1159.78 1087.4 1151.57 1074.63 1147.49 1068.57 L 1120.03 1027.97 L 1120.02 1092.31 C 1107.16 1092.76 1093.18 1092.56 1080.23 1092.59 C 1079.72 1027.67 1080.67 961.689 1080.69 896.618 z" fill="rgb(80,80,80)" transform="translate(0,0)"></path>
<path d="M 1120.88 934.01 C 1135.06 933.677 1147.92 933.494 1159.13 943.698 C 1173.19 956.5 1170.72 974.868 1158.88 987.902 C 1146.65 996.904 1135.15 996.703 1120.79 996.603 L 1120.88 934.01 z" fill="rgb(253,252,253)" transform="translate(0,0)"></path>
<path d="M 789.783 897.053 C 816.361 896.919 867.117 892.962 887.839 908.777 C 937.722 946.848 922.078 1024.32 859.22 1036.89 C 848.556 1037.77 839.822 1038.12 829.143 1038.41 L 829.094 1092.95 L 789.309 1092.62 C 789.019 1027.43 789.177 962.241 789.783 897.053 z" fill="rgb(80,80,80)" transform="translate(0,0)"></path>
<path d="M 829.047 934.903 C 841.83 934.566 854.085 933.929 864.901 942.293 C 871.133 947.114 875.192 954.217 876.182 962.034 C 877.5 973.097 872.908 982.209 866.243 990.508 C 854.502 1001.16 844.279 1000.67 829.196 1000.28 L 829.047 934.903 z" fill="rgb(253,252,253)" transform="translate(0,0)"></path>
<path d="M 427.158 896.907 L 467.164 896.675 C 467.484 923.327 467.245 950.468 467.266 977.159 L 532.368 977.027 C 532.655 950.336 532.194 923.585 532.62 896.992 L 572.006 896.985 L 571.531 1089.75 L 570.755 1092.13 C 566.324 1093.73 539.023 1093.02 532.671 1092.94 C 532.153 1068.01 532.656 1041.41 532.604 1016.32 C 511.156 1015.94 488.924 1016.4 467.312 1016.21 L 467.219 1092.94 L 427.255 1092.6 C 425.884 1029.12 427.156 960.805 427.158 896.907 z" fill="rgb(80,80,80)" transform="translate(0,0)"></path>
<path d="M 979.276 888.654 C 983.496 893.109 1003.56 943.74 1007.98 954.159 L 1048.17 1047.73 C 1054.64 1062.47 1061.25 1078.51 1068.42 1092.79 L 1023.63 1092.84 C 1020.3 1083.88 1016.68 1075.03 1012.77 1066.3 L 981.106 1066.05 L 942.567 1065.93 C 938.696 1074.48 934.908 1084.2 931.283 1092.94 C 917.921 1092.89 904.56 1092.77 891.2 1092.56 C 914.186 1036.61 940.178 981.566 963.107 925.551 C 968.036 913.511 973.375 900.11 979.276 888.654 z" fill="rgb(80,80,80)" transform="translate(0,0)"></path>
<path d="M 978.35 980.444 C 982.112 983.515 997.238 1022.65 1000.91 1030.83 L 980.5 1030.98 L 957.906 1030.99 C 962.036 1017.79 972.748 993.996 978.35 980.444 z" fill="rgb(253,252,253)" transform="translate(0,0)"></path>
<path d="M 640.745 896.497 C 665.167 896.53 689.589 896.399 714.009 896.104 C 713.951 908.808 713.615 922.162 714.823 934.747 C 691.94 934.245 667.565 934.626 644.572 934.626 L 644.812 979.676 L 702.931 979.692 C 703.189 992.015 703.108 1004.72 703.184 1017.08 L 644.676 1017.17 L 644.611 1055.28 L 663.25 1055.2 L 717.998 1055.02 L 718.003 1092.98 L 604.96 1092.81 L 605.222 896.553 L 640.745 896.497 z" fill="rgb(80,80,80)" transform="translate(0,0)"></path>
<path d="M 1452.74 896.123 L 1495.72 896.012 C 1484.57 921.831 1468.95 952.057 1456.41 977.75 C 1451.01 989.004 1436.54 1016.33 1436.16 1026.78 C 1435.43 1047.08 1435.8 1072.09 1435.43 1092.82 L 1394.79 1092.86 C 1394.82 1073.86 1395.6 1041.86 1393.76 1023.84 C 1393.01 1016.48 1374.15 979.689 1369.42 970.018 C 1357.23 945.109 1345.99 922.111 1335.01 896.371 L 1376.07 896.147 C 1388.96 919.763 1403.17 950.825 1415.88 975.561 C 1426.73 951.797 1444.07 919.233 1452.74 896.123 z" fill="rgb(80,80,80)" transform="translate(0,0)"></path>
<path d="M 292.748 896.916 L 407.023 896.668 L 406.961 935.824 C 394.439 935.529 381.484 935.622 368.925 935.559 L 368.773 1056.25 C 368.734 1068.39 368.596 1080.53 368.359 1092.67 C 355.101 1092.48 341.843 1092.37 328.584 1092.36 L 328.912 935.071 L 292.804 934.986 L 292.748 896.916 z" fill="rgb(80,80,80)" transform="translate(0,0)"></path>
<path d="M 1297.75 896.497 L 1333.07 896.296 L 1333.45 934.585 C 1320.7 934.433 1308.59 934.182 1295.84 934.871 L 1296.19 1092.55 C 1289.86 1092.56 1261.24 1093.33 1257.5 1091.75 C 1256.86 1074.36 1257.37 1054 1257.37 1036.46 L 1257.52 934.491 L 1217.31 934.071 L 1217.48 896.838 C 1243.79 896.28 1271.34 896.594 1297.75 896.497 z" fill="rgb(80,80,80)" transform="translate(0,0)"></path>
<path d="M 293.192 1163.47 C 338.26 1162.16 388.745 1163.16 434.049 1163.2 L 695.991 1163.09 L 695.885 1184.71 L 293.281 1184.85 C 293.105 1177.72 293.076 1170.6 293.192 1163.47 z" fill="rgb(80,80,80)" transform="translate(0,0)"></path>
<path d="M 1306.14 1160 L 1446.84 1159.83 L 1446.87 1183.14 L 1305.85 1183.15 L 1306.14 1160 z" fill="rgb(80,80,80)" transform="translate(0,0)"></path>
<path d="M 802.406 1144.98 C 812.818 1144.71 828.601 1143.21 836.606 1150.34 C 850.644 1162.84 838.387 1179.71 822.247 1180.92 C 816.96 1181.02 817.044 1180.14 813.514 1182.63 C 811.185 1187.38 812.374 1194.73 812.593 1200.59 L 802.371 1200.51 L 802.406 1144.98 z" fill="rgb(80,80,80)" transform="translate(0,0)"></path>
<path d="M 812.675 1153.92 C 824.041 1153.75 837.302 1155.33 827.16 1170.09 C 822.358 1172.43 817.394 1174.5 813.259 1170.66 C 811.473 1165.9 812.405 1159.24 812.675 1153.92 z" fill="rgb(253,252,253)" transform="translate(0,0)"></path>
<path d="M 1036.7 1143.98 C 1039.76 1143.93 1041.81 1143.53 1044.41 1145.06 C 1049.09 1153.48 1064.26 1190.07 1066.22 1198.59 C 1064.28 1201.13 1065.52 1200.33 1062.37 1201.02 C 1052.81 1197.43 1058.11 1188.67 1046.34 1187.45 L 1028.94 1187.02 C 1027.1 1192.96 1026.97 1196.41 1022.02 1199.71 C 1019.35 1200 1018.14 1200.49 1015.81 1199.31 C 1016.06 1193.34 1032.93 1154.31 1036.7 1143.98 z" fill="rgb(80,80,80)" transform="translate(0,0)"></path>
<path d="M 1040.17 1159.52 C 1043.76 1162.82 1049.18 1173.76 1047.44 1178.7 L 1043.25 1179.07 C 1039.18 1179.24 1036.07 1180.19 1033.33 1177.09 C 1032.86 1172.64 1037.9 1164.28 1040.17 1159.52 z" fill="rgb(253,252,253)" transform="translate(0,0)"></path>
<path d="M 864.39 1144.47 C 871.773 1144.31 891.813 1143.17 897.685 1145.66 C 898.471 1148.52 898.378 1148.32 897.486 1151.19 C 892.543 1155.82 879.019 1153.88 871.279 1153.78 L 871.346 1168.48 C 877.048 1168.54 888.819 1167.31 893.275 1168.99 C 895.941 1171.97 895.229 1170.29 895.671 1174.11 C 891.299 1180.39 879.924 1174.51 872.101 1177.74 L 871.393 1180.04 L 871.594 1191.89 C 880.036 1192.07 893.862 1188.53 898.897 1195.35 C 899.162 1199.12 899.776 1197.65 898.05 1200.26 C 889.642 1201.68 871.2 1201 861.762 1200.95 C 861.72 1191.57 861.035 1152.05 862.392 1145.66 L 864.39 1144.47 z" fill="rgb(80,80,80)" transform="translate(0,0)"></path>
<path d="M 1195.01 1143.4 C 1202.33 1143.96 1206.08 1145.02 1210.95 1150.45 L 1210.79 1152.93 C 1200.91 1159.07 1189.11 1145.37 1185.03 1159.5 C 1189.02 1169.01 1213.63 1168.13 1213.14 1184.05 C 1212.65 1200.07 1200.51 1201.39 1187.54 1201.01 C 1180.51 1198.63 1178.45 1197.66 1172.01 1193.98 L 1175.95 1189.31 C 1182.53 1187.03 1187.39 1192.43 1195.38 1193.73 C 1199.74 1192.39 1203.11 1188.1 1201.63 1183.5 C 1199.19 1175.82 1186.41 1177.78 1181.49 1173.58 C 1165.32 1159.77 1177.83 1145.32 1195.01 1143.4 z" fill="rgb(80,80,80)" transform="translate(0,0)"></path>
<path d="M 756.973 1144.12 C 763.525 1143.55 780.165 1143.04 779.408 1152.52 C 772.218 1157.44 766.376 1149.58 758.123 1153.59 C 756.021 1156.35 756.146 1156.14 755.892 1159.61 C 758.979 1169.24 780.184 1170.51 781.444 1182.11 C 782.976 1196.21 773.558 1199.5 762.695 1201.06 C 752.712 1199.8 750.354 1198.39 741.859 1193.6 C 752.178 1178.93 756.005 1196.28 767.075 1192.18 C 774.812 1183.39 765.123 1179.63 757.541 1175.46 C 741.376 1166.57 734.534 1153.52 756.973 1144.12 z" fill="rgb(80,80,80)" transform="translate(0,0)"></path>
<path d="M 938.421 1144.16 C 949.469 1142.95 952.65 1144.62 962.099 1149.51 C 960.579 1152.31 959.934 1153.94 957.581 1156.14 C 954.695 1156.78 947.372 1153.56 942.913 1152.47 L 941.789 1152.79 C 935.247 1154.75 931.136 1156.97 927.922 1163.46 C 925.484 1168.38 925.114 1174.08 926.895 1179.28 C 932.049 1194.4 945.323 1192.78 957.232 1188.16 L 958.344 1187.51 C 960.698 1189.77 962.759 1191.57 965.244 1193.69 C 954.822 1199.81 944.065 1203.84 932.227 1198.53 C 925.122 1195.27 919.71 1189.18 917.303 1181.74 C 911.226 1163.51 921.262 1149.8 938.421 1144.16 z" fill="rgb(80,80,80)" transform="translate(0,0)"></path>
<path d="M 1270.97 1143.77 C 1271.19 1147.01 1271.72 1148.96 1270.05 1151.68 C 1265.99 1154.14 1258.79 1153.19 1253.65 1153.05 C 1253.69 1163.1 1254.82 1191.11 1253.51 1198.82 L 1251.87 1199.95 C 1249.31 1200.17 1247.22 1200.65 1244.89 1199.7 C 1243.26 1195.87 1243.86 1190.18 1243.96 1185.82 L 1243.95 1152.99 C 1239.36 1153.08 1230.17 1153.95 1226.89 1151.11 C 1227.02 1147.24 1226.39 1148.92 1228.88 1145.91 C 1236.54 1142.48 1260.6 1144.03 1270.97 1143.77 z" fill="rgb(80,80,80)" transform="translate(0,0)"></path>
<path d="M 1086.89 1144.91 C 1090.34 1144.72 1093.87 1144.2 1096.54 1146.2 C 1097.76 1155.12 1097.03 1181.61 1096.98 1191.86 C 1105.44 1191.96 1114.61 1189.82 1121.68 1192.8 C 1123.59 1195.96 1122.81 1195.93 1122.47 1200.52 L 1086.42 1200.55 L 1086.89 1144.91 z" fill="rgb(80,80,80)" transform="translate(0,0)"></path>
<path d="M 1141.25 1144.42 C 1144.46 1144.32 1148.49 1143.81 1150.76 1146.16 C 1151.7 1154.48 1151.54 1191.91 1150.76 1200.62 C 1147.33 1200.7 1144.31 1201.25 1141.47 1199.58 C 1140.1 1189.26 1141.11 1156.72 1141.25 1144.42 z" fill="rgb(80,80,80)" transform="translate(0,0)"></path>
<path d="M 985.24 1144.14 C 988.84 1144.08 992.041 1143.59 994.562 1145.76 C 995.992 1156.72 995.065 1187.82 994.997 1200.25 C 991.476 1200.42 988.115 1200.93 985.582 1198.71 C 984.194 1187.31 985.159 1156.92 985.24 1144.14 z" fill="rgb(80,80,80)" transform="translate(0,0)"></path>
<metadata><recraft-signature>{"signed_by": "recraft", "signature_b64": "hV96POPzuvl4m8D+ZBer2LI4yek9tbrmWlDx/25b7hZlrrDZFuIwiGPFhBOwDBuUt2f7NSoo1Hhi46Ft/BoIDw==", "signing_algo": "Ed25519", "generation_timestamp": 1772546202, "identifier": "05a8cbb0-35f3-489f-81fc-d59c62f01c75"}</recraft-signature></metadata></svg>