<svg xmlns="http://www.w3.org/2000/svg" height="1024" preserveAspectRatio="none" style="display: block;" version="1.1" viewBox="0 0 2048 2048" width="1024">
<path d="M 0 0 L 2048 0 L 2048 2048 L 0 2048 L 0 0 z" fill="rgb(255,255,255)" transform="translate(0,0)"></path>
<path d="M 996.499 265.757 C 1414.69 250.432 1766.17 576.946 1781.63 995.134 C 1797.1 1413.32 1470.7 1764.91 1052.52 1780.51 C 634.136 1796.13 282.348 1469.54 266.875 1051.15 C 251.402 632.766 578.106 281.088 996.499 265.757 z" fill="rgb(49,66,139)" transform="translate(0,0)"></path>
<path d="M 1005 280.736 C 1414.66 270.076 1755.53 593.246 1766.7 1002.89 C 1777.88 1412.52 1455.14 1753.8 1045.51 1765.49 C 635.158 1777.21 293.14 1453.76 281.944 1043.39 C 270.748 633.024 594.621 291.415 1005 280.736 z" fill="rgb(255,255,255)" transform="translate(0,0)"></path>
<path d="M 355.198 1146 C 358.295 1111.57 366.137 1071.71 405.422 1061.79 C 391.698 1075.93 387.498 1079.87 385.537 1099.7 C 386.292 1098.85 387.056 1098.01 387.83 1097.17 C 388.847 1089.95 391.269 1082.17 397.576 1078.36 C 419.387 1065.17 427.065 1090.23 422.022 1107.34 C 414.446 1133.04 400.931 1152.79 394.602 1178.48 C 381.526 1238.77 415.365 1331.12 446.292 1383.04 C 504.66 1481.03 612.48 1582.75 724.543 1613.76 C 777.208 1628.34 835.369 1622.73 881.393 1593.77 C 894.994 1585.21 907.384 1575.75 918.421 1563.77 L 920.007 1566.09 C 783.786 1713.24 578.738 1574.35 482.16 1451.68 C 469.693 1435.85 459.493 1419.71 448.53 1402.91 C 406.062 1337.82 364.37 1270.75 342.689 1195.1 C 349.168 1195.65 356.037 1195.88 362.56 1196.21 C 343.105 1177.24 337.909 1159.36 341.944 1132.9 C 346.778 1136.79 350.917 1141.48 355.198 1146 z" fill="rgb(49,66,139)" transform="translate(0,0)"></path>
<path d="M 385.537 1099.7 C 386.292 1098.85 387.056 1098.01 387.83 1097.17 C 388.006 1102.49 386.809 1107.24 385.537 1099.7 z" fill="rgb(160,163,188)" transform="translate(0,0)"></path>
<path d="M 1662.59 1087.57 C 1657.54 1074.12 1651.53 1069.66 1641.64 1059.33 C 1680.95 1075.1 1692.48 1103.91 1693.13 1144.77 C 1697.68 1141.42 1703.14 1137.16 1707.73 1134.06 C 1711.69 1160.34 1704.07 1175.94 1689.28 1197.12 C 1695.64 1196.26 1699.4 1195.88 1705.83 1195.69 C 1695.54 1236.18 1666.86 1294.04 1646.21 1330.7 C 1640.07 1341.59 1629.7 1354.98 1622.8 1366.03 C 1610.16 1386.26 1598.64 1407.95 1584.74 1427.35 C 1540.11 1489.66 1480.92 1544.28 1415.48 1584.07 C 1357.65 1619.23 1291.57 1639.93 1224.02 1623.58 C 1188.14 1614.91 1150.47 1593.29 1127.39 1564.06 C 1126.83 1563.71 1126.89 1563.62 1126.43 1562.93 L 1122.53 1558.31 L 1123.59 1556.28 C 1144.86 1582.9 1167.91 1596.76 1198.8 1609.34 C 1254.56 1632.06 1318.72 1621.39 1372.48 1595.87 C 1479.88 1544.9 1588.94 1436.06 1630.55 1323.59 C 1645.18 1284.05 1666.96 1219.14 1656.29 1177.83 C 1651.98 1161.12 1640.8 1142.15 1633.6 1126.05 C 1629.22 1116.18 1622.14 1096.09 1627.68 1085.76 C 1639.65 1063.45 1655.25 1076.05 1660.62 1093.85 C 1661.49 1092.33 1662.07 1091.02 1662.32 1089.26 L 1662.59 1087.57 z" fill="rgb(49,66,139)" transform="translate(0,0)"></path>
<path d="M 1662.59 1087.57 C 1663.17 1092.69 1663.03 1095.6 1662.88 1100.73 L 1660.73 1100.28 C 1660.82 1097.61 1660.84 1096.54 1660.62 1093.85 C 1661.49 1092.33 1662.07 1091.02 1662.32 1089.26 L 1662.59 1087.57 z" fill="rgb(243,240,247)" transform="translate(0,0)"></path>
<path d="M 1660.73 1100.28 L 1662.88 1100.73 C 1661.19 1108.78 1659.25 1106.64 1660.73 1100.28 z" fill="rgb(129,137,175)" transform="translate(0,0)"></path>
<path d="M 342.023 843.299 C 355.238 799.507 386.875 742.107 410.778 704.105 C 425.561 680.601 439.926 652.188 454.585 629.829 C 488.609 577.643 529.747 536.068 577.279 496.645 C 683.161 408.826 833.753 366.981 933.07 492.499 L 931.712 494.05 C 876.231 427.402 790.756 404.037 708.508 433.025 C 592.078 474.061 488.77 577.978 432.84 686.475 C 407.856 734.941 384.233 817.349 393.177 872.234 C 398.843 894.497 408.804 907.438 416.713 930.034 C 421.444 943.554 417.804 973.708 395.615 965.056 C 388.886 962.432 384.638 947.427 383.472 939.416 L 382.556 940.034 C 378.572 957.348 392.915 970.298 403.658 981.069 C 359.96 962.42 357.041 941.133 352.822 897.328 C 347.708 900.531 344.01 903.847 339.419 907.71 C 337.131 877.651 341.844 864.54 361.392 841.945 C 354.887 843.033 348.607 843.076 342.023 843.299 z" fill="rgb(49,66,139)" transform="translate(0,0)"></path>
<path d="M 1126.52 478.625 C 1164.59 438.545 1213.34 414.674 1268.92 413.571 C 1360.24 411.758 1449.58 471.872 1512.87 532.974 C 1547.62 566.289 1578.06 603.836 1603.47 644.735 C 1612.72 659.809 1620.09 674.973 1628.91 689.861 C 1635.66 701.24 1644.74 712.904 1651.51 724.9 C 1671.23 759.862 1692.84 804.481 1704.94 842.64 C 1699.89 842.317 1694.01 842.09 1689.06 841.503 C 1702.17 854.743 1709.37 874.019 1709.21 892.586 C 1709.14 897.235 1708.97 901.881 1708.67 906.52 L 1694.04 896.384 C 1691.76 930.57 1688.53 960.096 1653.25 975.825 L 1650.98 972.826 C 1661.74 962.078 1662.77 955.663 1664.36 941.337 C 1663.68 942.194 1662.98 943.043 1662.28 943.884 C 1661.05 960.222 1644.72 974.027 1633.8 961.414 C 1614.38 938.992 1646.77 896.789 1653.64 873.937 C 1656.65 863.932 1659.62 853.574 1658.98 842.498 C 1652.19 730.541 1591.37 625.478 1514.25 547.743 C 1412.8 445.488 1251.47 358.768 1128.38 480.285 L 1126.52 478.625 z" fill="rgb(49,66,139)" transform="translate(0,0)"></path>
<path d="M 1662.28 943.884 C 1662.17 942.803 1661.39 937.278 1662.25 936.523 L 1662.44 936.542 C 1663.45 937.515 1663.96 939.967 1664.36 941.337 C 1663.68 942.194 1662.98 943.043 1662.28 943.884 z" fill="rgb(160,163,188)" transform="translate(0,0)"></path>
<path d="M 1092.56 541.117 C 1121.14 502.261 1150.03 471.816 1200.5 464.203 C 1221.02 461.108 1240.33 463.657 1260.72 465.959 C 1250.77 480.276 1242.16 485.284 1225.42 490.275 C 1219.85 491.935 1215.85 491.941 1210.91 495.032 C 1213.82 501.941 1217.42 503.652 1212.96 512.751 C 1194.68 550.058 1144.57 564.801 1113.01 589.272 C 1078.74 615.844 1046.54 652.496 1035.01 694.049 C 1033.1 702.425 1033.37 688.758 1033.86 685.948 C 1038.21 634.338 1074.85 575.422 1118.56 548.489 C 1132.83 539.363 1149.28 533.384 1162.64 522.926 C 1173.37 514.526 1162.41 500.739 1151.91 503.005 C 1131.76 507.36 1107.06 526.215 1094.39 542.14 L 1092.56 541.117 z" fill="rgb(212,212,212)" transform="translate(0,0)"></path>
<path d="M 1033.86 685.948 C 1034.18 688.658 1034.56 691.359 1035.01 694.049 C 1033.1 702.425 1033.37 688.758 1033.86 685.948 z" fill="rgb(243,240,247)" transform="translate(0,0)"></path>
<path d="M 1012.83 695.06 C 1010.46 683.81 1000.43 664.57 994.916 654.39 C 972.268 611.233 933.364 586.232 892.866 562.295 C 870.828 549.269 832.965 527.839 834.716 498.626 C 834.907 495.437 835.162 496.433 837.685 494.282 C 832.021 489.077 788.545 479.523 792.207 467.483 C 797.754 464.083 804.864 463.996 811.097 463.028 C 860.811 455.3 907.932 483.526 939.021 520.329 C 943.887 526.089 949.752 531.867 953.917 538.378 L 952.884 538.454 L 953.529 537.518 C 948.087 539.067 916.265 502.171 898.316 503.792 C 866.498 506.665 885.649 524.489 903.517 533.395 C 970.411 566.736 1002.44 617.492 1014.47 690.156 C 1014.7 691.6 1016.4 699.93 1012.83 695.06 z" fill="rgb(212,212,212)" transform="translate(0,0)"></path>
<path d="M 1014.47 690.156 C 1014.7 691.6 1016.4 699.93 1012.83 695.06 C 1013.35 693.37 1013.78 691.789 1014.47 690.156 z" fill="rgb(243,240,247)" transform="translate(0,0)"></path>
<path d="M 1030.46 857.444 C 1054.76 858.122 1087.12 870.208 1078.52 902.586 C 1073.54 921.321 1046.84 929.284 1030.27 936.622 C 1059.4 946.502 1062.04 970.246 1085.36 986.612 C 1085.21 986.509 1091.85 987.257 1092.49 987.333 C 1092.12 989.467 1091.67 991.006 1089.79 992.346 C 1073.84 1003.76 1062.96 992.68 1054.09 981.324 C 1042.24 963.842 1035.46 951.128 1014.26 944.613 C 1006.35 947.661 1003.29 950.829 997.212 956.44 C 996.698 970.435 997.243 982.108 998.232 995.923 L 979.892 996.108 C 980.55 968.504 980.835 940.893 980.747 913.282 C 980.797 899.278 981.546 876.662 980.081 863.496 C 997.599 860.784 1012.7 858.175 1030.46 857.444 z" fill="rgb(49,66,139)" transform="translate(0,0)"></path>
<path d="M 1024.21 861.373 C 1037.35 860.891 1051.87 866.324 1056.46 879.258 C 1067.66 910.792 1044.2 925.253 1020.71 935.716 C 1012.45 939.442 1005.41 943.73 997.963 948.811 L 997.955 869.621 C 1010.02 863.291 1011.13 862.933 1024.21 861.373 z" fill="rgb(255,255,255)" transform="translate(0,0)"></path>
<path d="M 1003.76 1398.89 C 1003.84 1404.72 995.785 1418.42 992.609 1423.58 C 976.282 1450.11 955.604 1475.39 929.306 1492.52 C 915.442 1501.55 900.258 1505.93 886.517 1514.5 C 884.34 1516.13 882.06 1521.8 882.462 1524.23 C 887.128 1552.47 928.528 1520.18 938.321 1512.27 C 942.636 1508.79 952.96 1498.31 956.163 1497.5 L 956.509 1498.87 C 950.028 1505.33 942.709 1516.13 936.579 1523.57 C 921.341 1542.05 905.068 1553.28 884.338 1564.45 C 859.468 1575.61 828.552 1579.62 801.482 1574.91 C 796.883 1574.11 792.82 1573.05 790.13 1569.16 C 789.577 1556.24 829.722 1546.37 839.68 1544.18 C 830.597 1536 832.92 1526.77 840.447 1518.15 C 868.971 1485.47 916.672 1472.51 951.817 1447.1 C 975.332 1430.09 984.788 1418.05 1003.76 1398.89 z" fill="rgb(212,212,212)" transform="translate(0,0)"></path>
<path d="M 634.575 1042.38 C 660.144 1039.62 698.532 1046.72 697.204 1080.5 C 695.558 1122.38 640.995 1119.04 617.799 1141.56 L 616.812 1142.54 C 613.285 1152.08 615.801 1171.25 616.702 1181.85 L 596.905 1181.76 C 598.653 1144.25 597.623 1106.35 598.167 1068.79 C 598.266 1061.9 598.107 1054.46 597.318 1047.65 C 608.442 1047.55 622.626 1043.81 634.575 1042.38 z" fill="rgb(49,66,139)" transform="translate(0,0)"></path>
<path d="M 638.49 1046.21 C 643.486 1045.63 650.136 1045.63 654.839 1047.52 C 673.46 1055 683.001 1075.25 675.106 1094.01 C 668.643 1109.37 657.244 1115.13 642.884 1120.99 C 629.806 1126.54 626.413 1127.92 615.23 1136.89 C 614.731 1111.39 614.598 1081.42 615.154 1055.85 C 624.229 1049.45 627.599 1048.12 638.49 1046.21 z" fill="rgb(255,255,255)" transform="translate(0,0)"></path>
<path d="M 757.95 858.371 C 786.942 854.389 833.27 862.037 824.614 903.852 C 818.425 933.748 773.274 937.554 749.896 951.897 C 747.414 953.653 745.123 955.756 742.82 957.755 C 742.802 969.883 742.531 984.145 744.094 996.019 L 724.915 995.893 C 726.427 953.05 725.653 906.098 725.746 862.926 C 735.956 861.926 747.681 859.89 757.95 858.371 z" fill="rgb(49,66,139)" transform="translate(0,0)"></path>
<path d="M 768.563 861.282 C 793.259 858.933 812.696 884.971 803.497 907.983 C 797.03 924.161 783.82 930.642 768.866 936.989 C 756.944 942.164 752.788 943.871 742.958 952.258 C 742.765 924.632 742.762 897.005 742.948 869.379 C 752.699 864.641 757.862 862.916 768.563 861.282 z" fill="rgb(255,255,255)" transform="translate(0,0)"></path>
<path d="M 1040.01 1394.59 C 1071.23 1429.77 1094.26 1449.5 1136.66 1471.99 C 1153.37 1480.85 1174.46 1491.96 1189.49 1502.81 C 1197.74 1508.77 1210.39 1522.02 1210.96 1532.44 C 1211.31 1538.76 1209.43 1540.27 1205.56 1544.92 C 1216.39 1548.38 1252.93 1558.33 1254.41 1570.16 C 1247.71 1580.27 1204.41 1576.76 1192.92 1574.33 C 1145.49 1564.31 1118.48 1539.55 1092.43 1500.24 L 1095.39 1500.69 C 1108.7 1515.49 1133.45 1535.63 1154.69 1534.82 C 1160.6 1534.6 1167.94 1526.71 1165.14 1520.37 C 1160.09 1509.67 1144.83 1506.91 1134.78 1502.32 C 1096.43 1484.79 1055.49 1434.78 1040.01 1394.59 z" fill="rgb(212,212,212)" transform="translate(0,0)"></path>
<path d="M 1086.15 387.883 C 1119.83 390.488 1112.25 433.445 1107.58 455.413 C 1101.13 485.805 1094.54 519.143 1081.46 547.529 C 1064.13 585.123 1045.5 619.77 1033.73 659.791 C 1032.45 663.592 1030.65 671.31 1029.56 675.433 C 1027.14 649.649 1027.59 562.737 1041.74 541.157 C 1054.72 521.357 1073.09 504.652 1079.95 474.997 C 1083.24 460.424 1083.88 445.378 1081.84 430.578 C 1079.35 413.396 1069.82 398.755 1086.15 387.883 z" fill="rgb(212,212,212)" transform="translate(0,0)"></path>
<path d="M 1018.76 675.531 C 1013.41 635.964 982.192 578.625 966.505 541.914 C 959.01 519.626 950.2 496.864 945.804 473.57 C 941.975 453.277 932.403 419.273 944.074 401.147 C 946.665 397.123 954.215 389.397 959.18 389.361 C 984.688 389.178 966.836 423.947 967.094 437.638 C 966.744 450.154 966.582 456.039 968.46 467.591 C 971.619 485.96 979.397 503.223 991.063 517.759 C 998.622 527.247 1008.94 538.165 1012.56 549.848 C 1024.57 588.6 1018.98 635.553 1020.28 673.779 L 1018.76 675.531 z" fill="rgb(212,212,212)" transform="translate(0,0)"></path>
<path d="M 1027.01 1384.46 C 1031.56 1387.66 1046.11 1423.55 1049.69 1431.61 C 1065.79 1467.86 1086.52 1502.18 1095.45 1541.25 C 1101.52 1567.78 1109.1 1594.74 1110.94 1621.92 C 1111.91 1636.25 1107.87 1641.06 1098.45 1651.06 C 1083.54 1661.14 1071.98 1652.77 1076.07 1637.11 C 1086.38 1601.04 1082.38 1553.3 1056.32 1524.48 C 1033.92 1499.71 1031.79 1485.88 1029.51 1452.72 C 1027.96 1430.15 1027.05 1407.61 1027.01 1384.46 z" fill="rgb(212,212,212)" transform="translate(0,0)"></path>
<path d="M 1019.29 1383.65 C 1023.91 1401.68 1018.8 1490.38 1009.46 1502.86 C 973.019 1551.51 955.58 1572.05 973.312 1641.62 C 968.114 1655.05 964.082 1659.14 950.364 1650.79 C 930.933 1635.33 937.926 1607.75 942.168 1586.52 C 949.301 1550.82 959.914 1515.25 975.033 1482.1 C 989.638 1450.08 1009.66 1417.66 1019.29 1383.65 z" fill="rgb(212,212,212)" transform="translate(0,0)"></path>
<path d="M 871.949 859.276 L 892.041 859.174 C 912.538 902.739 934.873 953.798 956.843 995.94 L 935.349 995.837 C 931.09 982.498 925.862 971.779 919.609 959.41 C 912.1 958.277 903.076 956.262 895.503 954.784 C 874.921 951.47 865.635 950.106 845.851 956.743 C 838.972 971.299 834.158 980.308 830.397 996.072 L 818.202 995.705 C 839.576 959.312 858.443 906.848 877.434 868.135 L 871.949 859.276 z" fill="rgb(49,66,139)" transform="translate(0,0)"></path>
<path d="M 881.336 876.672 C 883.181 879.17 887.807 889.945 889.486 893.528 C 898.115 911.871 906.572 930.295 914.855 948.797 L 915.645 950.523 C 902.231 947.373 893.467 946.154 879.774 945.731 C 865.279 946.007 861.332 946.642 847.962 952.273 C 854.912 934.188 872.749 893.939 881.336 876.672 z" fill="rgb(255,255,255)" transform="translate(0,0)"></path>
<path d="M 1080.13 1044.13 L 1099.86 1044.61 C 1120.59 1089.67 1141.28 1136.71 1162.49 1181.29 L 1141.84 1181.31 C 1140.39 1171.45 1131.59 1155.2 1126.96 1145.68 C 1118.67 1143.53 1110.74 1142 1102.36 1140.35 C 1084.55 1137.07 1071.31 1136.89 1053.75 1140.21 C 1047.19 1154.18 1042.21 1165.23 1037.53 1180.11 C 1034.17 1181.59 1030.12 1181.17 1026.34 1181.14 C 1041.58 1152.72 1053.48 1119.83 1068.04 1090.75 C 1073.99 1078.87 1078.19 1066.11 1084.78 1054.35 C 1083.27 1050.92 1081.72 1047.52 1080.13 1044.13 z" fill="rgb(49,66,139)" transform="translate(0,0)"></path>
<path d="M 1087.88 1062.64 C 1089.26 1063.58 1118.41 1126.55 1122.68 1135.11 C 1110.71 1132.38 1103.19 1131.97 1091.07 1131.82 C 1077.22 1132.14 1068.88 1133.35 1055.4 1136.6 C 1064.89 1114.19 1077.58 1084.33 1087.88 1062.64 z" fill="rgb(255,255,255)" transform="translate(0,0)"></path>
<path d="M 1025.49 364.628 C 1038.76 376.231 1052.91 413.952 1054.84 431.525 C 1059 469.289 1049.08 493.222 1026.88 522.064 C 1025.53 522.883 1026.38 522.585 1024.18 522.383 C 1018.87 517.244 1006.15 492.026 1003.32 484.399 C 989.023 445.959 1002.5 397.048 1025.49 364.628 z" fill="rgb(212,212,212)" transform="translate(0,0)"></path>
<path d="M 1022.42 1519.58 C 1030.59 1527.57 1038.3 1544.6 1043.81 1554.64 C 1062.93 1589.54 1047.11 1645.3 1023.01 1674.54 C 1012.15 1670.01 999.947 1633.19 997.235 1622.4 C 986.708 1580.53 1000.61 1554.14 1022.42 1519.58 z" fill="rgb(212,212,212)" transform="translate(0,0)"></path>
<path d="M 969.722 677.81 L 989.719 678.019 C 986.847 699.867 988.029 739.614 987.796 763.19 C 1009.86 735.49 1038.41 752.575 1060.82 735.728 C 1069.16 729.468 1065.38 690.936 1064.86 677.988 L 1083.54 677.959 C 1082.42 693.3 1082.87 712.831 1082.83 728.496 C 1082.63 754.414 1082.67 780.333 1082.95 806.251 L 1083.73 815.107 L 1064.63 815.104 C 1065.76 791.332 1065.16 764.536 1065.48 740.409 C 1039.76 757.916 1013.34 745.368 993.581 763.916 C 984.313 772.618 988.523 802.368 989.953 815.224 L 970.174 815.419 C 971.766 800.52 971.142 771.979 971.079 756.022 C 970.982 731.426 971.985 701.836 969.722 677.81 z" fill="rgb(49,66,139)" transform="translate(0,0)"></path>
<path d="M 1156.59 1614.99 C 1171.89 1620.87 1188.68 1635.68 1206.02 1638.3 C 1245.68 1644.3 1270.28 1638.54 1308.62 1656.76 C 1303.83 1659.71 1297.63 1662.59 1292.52 1665.15 C 1258.08 1680.49 1224.16 1691.76 1189.29 1670.67 C 1165.33 1656.18 1162.73 1639.72 1156.59 1614.99 z" fill="rgb(49,66,139)" transform="translate(0,0)"></path>
<path d="M 509.677 1044.19 C 533.278 1041.99 547.245 1045.22 568.208 1055.45 C 566.203 1062.63 564.26 1069.82 562.381 1077.02 C 557.041 1069.93 553.493 1065.39 546.996 1059.39 C 533.476 1046.92 504.02 1041.79 491.285 1058.22 C 487.906 1062.6 486.436 1068.15 487.207 1073.62 C 489.99 1093.78 521.572 1100.28 537.066 1107.74 C 549.772 1113.46 574.548 1126.14 574.477 1142.77 C 574.334 1176.4 542.274 1183.17 517.8 1183.97 C 496.291 1182.5 483.863 1176.46 467.313 1162.92 C 469.89 1156 472.289 1147.49 474.497 1140.33 C 487.518 1160.4 507.475 1182.57 534.001 1178.04 C 559.014 1173.76 567.032 1148.47 543.971 1133.62 C 523.447 1120.4 477.668 1116.67 471.77 1087.95 C 466.143 1060.56 487.17 1048.89 509.677 1044.19 z" fill="rgb(49,66,139)" transform="translate(0,0)"></path>
<path d="M 1222.13 362.261 C 1224.57 361.917 1227.03 361.714 1229.49 361.652 C 1250.17 360.952 1270.29 369.293 1289.12 376.782 C 1294 378.72 1303.08 381.616 1306.65 384.953 C 1306.2 400.441 1234.79 403.56 1222.75 404.12 C 1204.41 406.083 1190.13 410.381 1174.15 420.972 C 1170.72 423.245 1166.56 427.794 1162.87 428.343 C 1162.46 427.579 1161.91 426.696 1161.91 425.81 C 1161.93 401.795 1176.13 380.034 1197.81 369.836 C 1206.39 365.801 1212.83 364.055 1222.13 362.261 z" fill="rgb(49,66,139)" transform="translate(0,0)"></path>
<path d="M 807.008 363.339 C 852.801 359.134 881.531 385.963 887.341 430.488 C 867.271 420.401 866.991 416.699 841.85 407.738 C 805.939 397.753 775.866 412.784 737.066 386.765 C 758.381 378.395 785.005 366.593 807.008 363.339 z" fill="rgb(49,66,139)" transform="translate(0,0)"></path>
<path d="M 888.568 1615.91 C 889.598 1622.27 885.749 1635.25 883.13 1641.38 C 875.695 1658.79 864.835 1669.02 847.657 1676.06 C 815.816 1689.11 786.467 1677.77 756.413 1664.99 C 749.649 1662.17 744.529 1659.69 737.992 1656.34 C 757.361 1646.26 783.903 1640.77 805.603 1641.41 C 841.109 1642.46 858.746 1633.91 888.568 1615.91 z" fill="rgb(49,66,139)" transform="translate(0,0)"></path>
<path d="M 1391 1043.42 C 1410.67 1043.1 1423.38 1045.68 1440.34 1055.03 C 1438.55 1062.4 1436.94 1069.81 1435.49 1077.25 C 1428.84 1064.74 1423.51 1059.04 1410.3 1052.51 C 1393.59 1044.26 1362.77 1046.14 1360.85 1069.65 C 1359.74 1091.15 1387.53 1097.13 1402.86 1103.94 C 1415.89 1109.74 1428.95 1114.23 1438.86 1124.85 C 1452.17 1139.1 1448 1159.75 1433.77 1171.62 C 1418.56 1184.3 1398.8 1184.41 1380.12 1182.82 C 1363.25 1179.4 1353.55 1173.14 1340.87 1161.99 C 1343.73 1154.14 1346.05 1147.54 1348.34 1139.54 C 1354.81 1150.94 1360.11 1159.85 1371.31 1168.19 C 1386.77 1179.69 1413.54 1184.75 1426.89 1166.91 C 1430.02 1162.72 1431.28 1156.51 1430.17 1151.3 C 1426.47 1134.89 1407.75 1127.65 1391.89 1122.55 C 1363.08 1113.29 1328.7 1096.05 1351.73 1060.08 C 1358.76 1049.1 1377.7 1044.71 1391 1043.42 z" fill="rgb(49,66,139)" transform="translate(0,0)"></path>
<path d="M 1015.69 1324.44 C 1038.25 1322.19 1067.94 1325.23 1081.93 1345.71 C 1095.33 1365.32 1080.35 1400.47 1055.18 1391.37 C 1039.42 1385.67 1033.01 1368.54 1040.57 1353.08 L 1041.22 1351.8 C 1066.99 1334.76 1062.56 1359.31 1062.5 1374.47 C 1086.68 1348.76 1059.45 1331.44 1033.74 1327.22 C 1014.92 1326.66 994.828 1327.3 981.575 1342.83 C 970.882 1355.36 977.836 1365.28 987.973 1373.93 C 987.501 1368.72 984.258 1356.22 986.334 1352.93 C 995.485 1338.46 1018.87 1354.47 1012.35 1371.05 C 1008.7 1380.33 1000.19 1391.91 989.54 1391.68 C 950.078 1390.83 956.248 1337.76 989.439 1328.82 C 1001.21 1325.44 1003.65 1325.01 1015.69 1324.44 z" fill="rgb(212,212,212)" transform="translate(0,0)"></path>
<path d="M 902.62 1043.46 C 922.377 1044.08 939.639 1045.88 955.339 1058.83 C 953.419 1066.69 951.925 1073.53 948.893 1081.1 C 934.973 1059.69 915.408 1042.73 887.718 1048.97 C 875.298 1051.69 864.502 1059.3 857.784 1070.1 C 838.462 1101.02 849.536 1149.44 881.433 1168.01 C 898.164 1177.75 913.555 1176 931.249 1171.35 C 952.893 1162.71 948.031 1161.11 961.127 1147.25 L 961.344 1148.51 C 952.006 1170.7 933.222 1181.24 909.978 1183.58 C 888.89 1185.6 867.86 1179.19 851.481 1165.76 C 837.453 1154.09 828.734 1137.24 827.301 1119.05 C 823.608 1071.5 858.541 1045.85 902.62 1043.46 z" fill="rgb(49,66,139)" transform="translate(0,0)"></path>
<path d="M 1110.86 678.083 L 1197.74 678.087 L 1197.81 695.599 C 1183.26 686.086 1170.74 683.902 1153.59 683.234 C 1146.17 682.945 1136.75 681.113 1130.56 685.933 C 1128.85 692.87 1129.54 737.547 1129.55 747.377 C 1147.72 749.238 1160.2 749.054 1177.01 742.457 L 1176.96 760.777 C 1161.47 753.189 1146.58 752.871 1129.54 751.318 L 1129.34 759.75 C 1129.24 770.463 1127.55 800.309 1131.08 808.359 C 1134.95 811.709 1139.25 811.739 1144.27 811.625 C 1166.73 811.113 1184.12 811.505 1200.89 794.762 L 1200.08 815.038 C 1170.44 814.939 1140.8 815.046 1111.16 815.36 C 1113.52 801.469 1113.08 692.541 1110.86 678.083 z" fill="rgb(49,66,139)" transform="translate(0,0)"></path>
<path d="M 778.475 1584.14 C 743.594 1585.99 704.927 1580.53 677.96 1556.3 C 663.275 1543.29 654.491 1524.88 653.612 1505.28 C 651.046 1452.15 713.94 1412.77 753.353 1453.34 C 762.41 1462.56 767.348 1475.06 767.042 1487.98 C 766.343 1521.63 733.543 1545.22 708.404 1517.34 C 699.729 1507.72 698.996 1493.02 715.199 1494.78 C 717.596 1495.04 719.094 1497.77 720.14 1499.47 C 720.828 1505.85 719.132 1507.17 715.098 1512.16 L 714.134 1513.34 C 722.231 1519.73 733.95 1526.49 743.293 1519.29 C 776.807 1494.66 748.781 1443.04 711.255 1447.32 C 659.502 1453.23 646.298 1512.26 679.833 1546.88 C 705.747 1573.63 741.466 1578.93 775.773 1580.93 L 778.475 1584.14 z" fill="rgb(49,66,139)" transform="translate(0,0)"></path>
<path d="M 1274.58 1580.46 C 1309.28 1577.64 1349.32 1571.27 1373.26 1543.18 C 1384.09 1530.45 1390.39 1512.76 1388.59 1495.98 C 1386.99 1480.95 1379.23 1467.27 1367.15 1458.19 C 1356.38 1449.93 1342.61 1445.2 1329 1447.22 C 1316.73 1449.06 1305.79 1455.92 1298.8 1466.16 C 1270.54 1507.31 1322.78 1541.42 1334.3 1512.02 C 1331.92 1506.55 1329.7 1502.73 1329.78 1496.86 C 1333.75 1488.84 1349.3 1494.85 1347.09 1505.87 C 1344.06 1520.93 1326.9 1530.36 1312.52 1528.51 C 1303.88 1527.41 1296.06 1522.82 1290.89 1515.8 C 1274.4 1493.57 1281.76 1460.95 1304.46 1445.54 C 1316.11 1437.7 1330.46 1434.99 1344.16 1438.04 C 1390.29 1448.62 1410.79 1499.23 1385.44 1539.05 C 1359.39 1579.96 1303.52 1588.56 1259.09 1582.68 C 1263.83 1580.16 1267.19 1582.18 1274.58 1580.46 z" fill="rgb(49,66,139)" transform="translate(0,0)"></path>
<path d="M 777.63 456.943 C 771.1 456.926 764.565 457.618 758.052 458.161 C 737.537 459.946 718.952 463.738 700.632 473.385 C 669.298 489.885 647.007 526.617 664.472 561.255 C 671.445 575.084 684.629 586.723 699.907 590.726 C 712.207 594.078 725.348 592.124 736.141 585.338 C 754.52 573.642 764.238 546.107 751.456 526.947 C 746.003 518.772 727.092 510.796 718.459 518.261 C 710.179 525.42 719.78 529.674 719.544 538.657 C 714.717 547.904 702.096 545.922 701.351 536.634 C 700.161 521.805 715.253 509.852 728.715 509.38 C 751.678 508.576 765.305 530.025 765.399 550.54 C 765.444 564.541 759.747 577.949 749.635 587.634 C 739.767 597.249 726.44 602.481 712.666 602.148 C 695.78 601.882 679.958 594.326 668.389 582.185 C 656.517 569.634 650.181 552.841 650.803 535.575 C 651.357 514.959 661.956 494.72 676.993 480.995 C 708.276 452.441 742.788 452.883 781.843 454.224 L 777.63 456.943 z" fill="rgb(49,66,139)" transform="translate(0,0)"></path>
<path d="M 1264.17 454.28 C 1301.5 451.812 1338.44 453.539 1368.26 479.386 C 1397.84 505.022 1406 551.61 1378.19 581.619 C 1366.92 593.825 1353.13 601.678 1336.44 602.58 C 1321.49 603.242 1306.91 597.794 1296.06 587.487 C 1285.58 577.542 1279.76 563.649 1280.03 549.205 C 1280.24 537.425 1285.09 526.204 1293.55 517.996 C 1311.09 501.239 1339.42 507.979 1344.69 533.344 C 1347.31 545.962 1315.64 550.359 1331.89 523.977 L 1330.87 522.964 C 1318.36 510.753 1307.42 513.102 1296.58 525.991 C 1280.9 544.643 1288.72 570.246 1307.07 583.601 C 1330.86 600.665 1362.35 591.176 1378.23 568.134 C 1400.05 536.465 1382.93 496.789 1353.51 477.315 C 1331.15 462.519 1298.01 456.492 1271.51 456.972 C 1268.31 456.063 1266.97 455.994 1264.17 454.28 z" fill="rgb(49,66,139)" transform="translate(0,0)"></path>
<path d="M 884.821 330.112 C 915.567 328.541 926.024 347.951 926.181 375.619 C 909.391 387.373 904.831 392.032 894.428 410.622 C 894.009 411.272 893.839 411.915 892.998 411.905 C 892.373 411.465 892.445 411.324 892.131 410.536 C 882.984 387.596 873.978 377.261 854.696 363.648 C 860.513 345.117 864.948 335.549 884.821 330.112 z" fill="rgb(49,66,139)" transform="translate(0,0)"></path>
<path d="M 1153.09 328.242 C 1176.19 327.701 1185.26 342.404 1190.21 362.586 C 1169.6 377.901 1165 386.303 1154.9 408.452 C 1154.01 413.498 1147.95 400.515 1146.98 398.998 C 1139.82 387.792 1131.61 379.793 1119.71 373.846 C 1119.61 349.281 1126.71 333.201 1153.09 328.242 z" fill="rgb(49,66,139)" transform="translate(0,0)"></path>
<path d="M 894.576 1632.76 C 896.657 1634.89 898.937 1640.21 900.796 1643.01 C 907.914 1653.77 917.685 1662.15 928.14 1669.52 C 927.26 1695.27 919.501 1713.6 890.711 1715.22 C 869.93 1711.38 862.942 1701.84 856.737 1682.44 C 877.174 1666.46 885.567 1658.39 894.576 1632.76 z" fill="rgb(49,66,139)" transform="translate(0,0)"></path>
<path d="M 718.293 1044.87 C 747.144 1045.03 775.996 1045.03 804.848 1044.89 L 805.072 1063.16 C 785.809 1047.95 762.475 1048.73 739.439 1049.26 C 737.28 1061.39 737.791 1098.59 737.643 1113.2 C 737.686 1115.01 737.756 1116.46 737.882 1118.25 C 738.479 1137.06 737.581 1156.48 738.1 1175.58 C 748.11 1177.34 763.85 1177.68 774.044 1176.81 C 790.564 1175.41 798.102 1172.83 808.654 1160.66 L 808.796 1181.43 L 718.85 1181.21 C 720.961 1165.52 720.227 1131.67 720.262 1114.78 C 720.296 1098.1 721.397 1059.54 718.293 1044.87 z" fill="rgb(49,66,139)" transform="translate(0,0)"></path>
<path d="M 1151.47 1635.12 C 1158.11 1647.54 1159.68 1655.19 1171.11 1667.5 C 1171.99 1670.32 1189.2 1682.8 1189.21 1682.85 C 1190.03 1696.02 1172.62 1712.09 1162.5 1714.96 L 1158.27 1716.13 C 1128.42 1715.85 1118.82 1697.99 1118.66 1670.65 C 1134.26 1661.12 1142.57 1650.9 1151.47 1635.12 z" fill="rgb(49,66,139)" transform="translate(0,0)"></path>
<path d="M 1219.07 858.836 C 1226.59 858.812 1234.49 859.107 1242.04 859.269 C 1256.3 880.736 1270.09 902.513 1283.39 924.586 C 1293.94 909.73 1314.06 882.71 1321.36 865.854 C 1322.3 863.688 1320.89 863.77 1323.83 859.907 C 1327.28 858.194 1333.74 858.928 1337.9 859.05 C 1324.84 873.95 1316.78 886.7 1305.85 903.223 C 1298.88 912.958 1292.25 922.152 1285.79 932.252 C 1286.22 951.172 1284.8 978.025 1287.09 995.998 L 1267.21 996.198 C 1269.64 977.08 1268.55 951.379 1267.92 932.226 C 1251.61 907.714 1235.87 883.015 1219.07 858.836 z" fill="rgb(49,66,139)" transform="translate(0,0)"></path>
<path d="M 1099.08 859.095 C 1135.73 859.277 1172.38 859.204 1209.03 858.877 L 1209.02 877.152 C 1193.54 865.153 1181.73 864.583 1163.02 864.092 L 1162.84 950.5 C 1162.72 963.513 1162.17 983.369 1163.85 995.812 L 1144.61 996.08 C 1145.85 977.655 1145.23 959.438 1145.15 941.001 L 1144.97 863.887 C 1126 864.24 1114.58 865.396 1099.05 876.617 L 1099.08 859.095 z" fill="rgb(49,66,139)" transform="translate(0,0)"></path>
<path d="M 1463.23 1044.79 C 1499.5 1045.19 1536.52 1044.9 1572.82 1044.8 L 1572.96 1062.15 C 1557.64 1050.25 1545.12 1050.41 1526.45 1049.03 L 1526.71 1134.5 C 1526.76 1149.82 1526.56 1165.98 1527.57 1181.18 L 1508.36 1181.62 C 1509.53 1165.83 1509.1 1146.09 1509.09 1130.08 L 1508.99 1049.35 C 1488.53 1049.6 1480.42 1050.43 1463.37 1062.02 L 1463.23 1044.79 z" fill="rgb(49,66,139)" transform="translate(0,0)"></path>
<path d="M 840.287 677.775 C 876.518 677.945 912.749 677.89 948.979 677.608 L 949.005 696.173 C 932.973 682.81 922.862 683.329 902.855 682.777 L 902.954 770.5 C 902.934 785.088 902.629 800.595 903.691 815.065 L 884.794 815.194 C 886.635 799.356 886.017 778.008 885.974 761.722 L 885.906 682.413 C 865 683.084 859.2 683.75 840.674 694.178 C 840.358 688.74 840.359 683.227 840.287 677.775 z" fill="rgb(49,66,139)" transform="translate(0,0)"></path>
<path d="M 1184.04 1045.03 L 1204.12 1044.7 C 1202.8 1083.54 1203.72 1122.8 1203.74 1161.73 C 1202.83 1176.76 1220.71 1175.31 1231.71 1175.39 C 1253.1 1175.56 1257.62 1179.5 1270.5 1162.03 L 1271.56 1162.2 L 1271.88 1165.75 L 1272.83 1181.1 L 1185.94 1181.03 C 1186.09 1153.32 1185.97 1125.61 1185.57 1097.9 C 1185.52 1086.28 1185.98 1055.31 1184.04 1045.03 z" fill="rgb(49,66,139)" transform="translate(0,0)"></path>
<path d="M 983.213 1044.76 C 990.013 1044.55 997.837 1044.82 1004.72 1044.9 C 1002.38 1062.42 1003.07 1092.42 1003.09 1111.18 C 1003.11 1132.16 1002.09 1161.76 1004.32 1181.69 C 999.308 1182.11 990.272 1181.81 984.948 1181.79 L 985.502 1104.65 C 985.6 1089.1 986.75 1058.4 983.213 1044.76 z" fill="rgb(49,66,139)" transform="translate(0,0)"></path>
<path d="M 1296.11 1044.47 L 1315.71 1044.39 C 1313.72 1065.48 1314.96 1094.9 1314.66 1116.84 C 1314.44 1132.2 1313.6 1168.35 1316.2 1181.19 L 1295.77 1181.19 C 1298.1 1162.27 1297.03 1129.02 1297.12 1108.8 C 1297.2 1091.46 1297.88 1060.4 1296.11 1044.47 z" fill="rgb(49,66,139)" transform="translate(0,0)"></path>
<path d="M 411.398 784.557 L 413.383 786.253 C 409.35 816.451 412.173 844.027 425.92 871.014 C 427.876 874.477 427.902 884.198 422.452 884.818 C 405.83 886.711 404.944 849.959 404.507 840.788 C 403.578 821.261 407.046 803.003 411.398 784.557 z" fill="rgb(49,66,139)" transform="translate(0,0)"></path>
<path d="M 591.327 1237.13 C 605.229 1236.29 615.174 1241.46 612.524 1258.55 C 611.66 1264.12 605.981 1267.1 601.248 1269.4 L 600.74 1269.42 C 592.414 1269.79 582.461 1268.2 579.726 1259.6 C 575.624 1246.68 581.498 1241.37 591.327 1237.13 z" fill="rgb(49,66,139)" transform="translate(0,0)"></path>
<path d="M 592.128 1244.17 C 595.401 1242.75 599.184 1243.21 602.022 1245.37 C 604.859 1247.54 606.308 1251.06 605.812 1254.59 C 605.316 1258.12 602.951 1261.11 599.629 1262.41 C 594.62 1264.36 588.97 1261.94 586.925 1256.97 C 584.881 1252 587.195 1246.31 592.128 1244.17 z" fill="rgb(255,255,255)" transform="translate(0,0)"></path>
<path d="M 1638.86 1256.51 C 1643.02 1234.82 1641.75 1209.75 1635.48 1188.53 C 1633.99 1183.49 1623.46 1161.02 1632.99 1158.8 C 1640.15 1157.14 1646.71 1174.54 1647.26 1179.99 C 1650.7 1199.2 1649.34 1218.88 1645.82 1237.98 C 1644.63 1244.43 1642.05 1250.78 1641.06 1257.09 L 1638.86 1256.51 z" fill="rgb(49,66,139)" transform="translate(0,0)"></path>
<path d="M 1250.47 1237.17 C 1262.7 1237.15 1278.58 1235.7 1279.01 1253 C 1279.15 1258.69 1277.49 1261.5 1274.09 1265.9 L 1272.9 1266.49 C 1264.98 1270.49 1259.45 1269.36 1250.22 1269.4 C 1251.01 1259.33 1250.64 1247.37 1250.47 1237.17 z" fill="rgb(49,66,139)" transform="translate(0,0)"></path>
<path d="M 1257.2 1243.94 C 1267.9 1243.94 1275.81 1246.58 1269.66 1259.67 L 1268.91 1261.35 C 1252.84 1266.65 1257.15 1258.26 1257.2 1243.94 z" fill="rgb(255,255,255)" transform="translate(0,0)"></path>
<path d="M 338.149 965.614 C 346.559 963.288 355.281 968.132 357.75 976.5 C 360.22 984.869 355.526 993.672 347.201 996.285 C 341.687 998.015 335.669 996.637 331.459 992.679 C 327.249 988.721 325.501 982.799 326.888 977.189 C 328.274 971.579 332.58 967.154 338.149 965.614 z" fill="rgb(49,66,139)" transform="translate(0,0)"></path>
<path d="M 1638.55 790.494 L 1640.62 788.211 C 1643.75 797.9 1646.28 810.316 1647.12 820.496 C 1648.68 838.298 1650.29 869.66 1634.29 881.63 C 1629.91 884.911 1625.01 879.922 1628.15 873.549 C 1640.77 847.867 1643.02 818.489 1638.55 790.494 z" fill="rgb(49,66,139)" transform="translate(0,0)"></path>
<path d="M 714.617 1249.58 C 714.253 1254.54 717.885 1274.52 707.389 1268.6 C 708.853 1269.42 701.66 1229.31 713.438 1237.47 C 715.152 1238.66 722.125 1251.1 723.948 1254.09 C 727.612 1248.43 730.836 1243.51 733.976 1237.48 C 742.222 1237.57 742.194 1237.82 740.933 1248.44 C 739.636 1259.36 746.261 1272.11 733.286 1268.46 C 732.373 1263.55 733.9 1258.67 730.661 1255.91 C 723.598 1265.84 721.183 1264.78 716.204 1253.1 C 715.689 1251.92 715.16 1250.75 714.617 1249.58 z" fill="rgb(49,66,139)" transform="translate(0,0)"></path>
<path d="M 730.661 1255.91 C 735.444 1243.24 733.366 1267.55 733.286 1268.46 C 732.373 1263.55 733.9 1258.67 730.661 1255.91 z" fill="rgb(243,240,247)" transform="translate(0,0)"></path>
<path d="M 1711.53 1046.69 C 1719.29 1044.58 1727.33 1048.97 1729.76 1056.64 C 1732.18 1064.31 1728.13 1072.52 1720.57 1075.26 C 1715.39 1077.14 1709.6 1076.03 1705.49 1072.37 C 1701.37 1068.71 1699.6 1063.09 1700.86 1057.73 C 1702.12 1052.37 1706.22 1048.13 1711.53 1046.69 z" fill="rgb(49,66,139)" transform="translate(0,0)"></path>
<path d="M 995.416 1237.29 C 1004.64 1237.1 1021.77 1234.54 1020.86 1249.02 C 1020.59 1253.29 1017.51 1254.79 1014.77 1257.33 C 1018.94 1265.34 1023.55 1268.04 1015.53 1269.8 L 1013.68 1270.31 C 1011.09 1266.54 1010.17 1262.76 1007.28 1259.69 C 1006.9 1259.18 1005.13 1258.34 1004.52 1258.61 C 1000.28 1260.49 1006.79 1270.04 999.44 1269.47 C 996.518 1269.24 995.153 1269.39 995.335 1266.09 C 995.862 1256.48 995.44 1246.87 995.416 1237.29 z" fill="rgb(49,66,139)" transform="translate(0,0)"></path>
<path d="M 1002.85 1244.03 C 1010.26 1243.81 1014.34 1242.09 1013.26 1251 C 1001.84 1254.52 1002.93 1254.07 1002.85 1244.03 z" fill="rgb(255,255,255)" transform="translate(0,0)"></path>
<path d="M 667.339 1237.06 C 672.895 1237.04 684.089 1235.96 688.538 1239.89 C 699.54 1249.62 683.427 1256.58 689.155 1261.99 C 689.692 1262.5 693.815 1267.99 693.511 1268.61 C 692.653 1269.18 688.61 1269.94 687.315 1270.26 C 683.377 1267.21 681.821 1260.46 679.511 1259.49 C 671.027 1255.94 678.526 1269.22 672.649 1269.36 C 668.606 1269.45 667.352 1268.94 667.487 1265.55 C 667.865 1256.04 667.42 1246.56 667.339 1237.06 z" fill="rgb(49,66,139)" transform="translate(0,0)"></path>
<path d="M 675.012 1243.05 C 683.948 1243.58 685.853 1243.26 684.446 1252.58 C 673.421 1253.79 674.842 1253.61 675.012 1243.05 z" fill="rgb(255,255,255)" transform="translate(0,0)"></path>
<path d="M 544.985 1237.15 C 549.017 1236.94 555.607 1236.06 559.376 1238.23 C 560.817 1238.33 567.165 1245.81 564.533 1247.17 C 557.61 1250.74 551.01 1235.25 542.411 1248.35 C 539.153 1253.32 542.774 1260.4 547.72 1262.47 C 550.992 1263.83 560.605 1262.57 559.101 1257.77 C 558.941 1257.46 551.838 1256.73 550.334 1256.31 C 552.868 1249.13 558.556 1251.84 566.481 1251.73 C 566.559 1256.35 566.631 1260.89 566.527 1265.5 C 566.393 1271.45 560.778 1266.2 558.421 1267.51 C 550.754 1271.78 539.37 1268.93 535.251 1260.95 C 533.236 1257.04 533.377 1252.08 534.671 1247.98 C 536.582 1241.78 539.552 1239.95 544.985 1237.15 z" fill="rgb(49,66,139)" transform="translate(0,0)"></path>
<path d="M 337.718 1048.53 C 342.706 1047.8 347.699 1049.81 350.793 1053.79 C 353.888 1057.77 354.607 1063.1 352.677 1067.76 C 350.748 1072.41 346.466 1075.67 341.464 1076.3 C 333.84 1077.25 326.874 1071.88 325.847 1064.27 C 324.819 1056.65 330.115 1049.63 337.718 1048.53 z" fill="rgb(49,66,139)" transform="translate(0,0)"></path>
<path d="M 1109.83 1237.11 C 1117.17 1236.76 1128.97 1237.21 1129.99 1245.5 C 1131.22 1255.53 1112.41 1234.39 1107.94 1247.02 C 1105.43 1254.09 1106.38 1258.71 1112.37 1262.54 C 1116.92 1265.46 1127.41 1259.03 1121 1257.29 C 1115.53 1256.96 1116.39 1257.6 1115.24 1252.03 C 1120.57 1251.86 1125.74 1251.46 1130.98 1251.23 C 1130.93 1256.05 1131.38 1263.02 1130.64 1267.56 C 1130.03 1271.31 1125.44 1266.63 1123.84 1267.74 C 1120.59 1269.99 1115.79 1270.59 1111.98 1269.73 C 1107.78 1268.82 1104.15 1266.2 1101.98 1262.49 C 1095.75 1252.05 1099.74 1242.64 1109.83 1237.11 z" fill="rgb(49,66,139)" transform="translate(0,0)"></path>
<path d="M 416.28 1171.35 C 421.015 1172.48 424.977 1175.22 421.628 1180.35 C 405.288 1205.36 407.567 1239.66 410.939 1268.12 L 411.033 1268.98 C 409.769 1268.96 409.402 1268.24 409.046 1267.06 C 402.189 1244.21 401.477 1218.88 405.832 1195.49 C 407.797 1184.94 408.55 1178.99 416.28 1171.35 z" fill="rgb(49,66,139)" transform="translate(0,0)"></path>
<path d="M 1206.07 1236.31 C 1216 1237.98 1220.46 1248.47 1227.51 1256.66 C 1227.59 1251.51 1227.12 1242.71 1228.25 1238.04 C 1228.39 1237.46 1234.78 1234.79 1234.49 1240.96 C 1234.05 1250.22 1235.21 1260.35 1234.46 1269.67 C 1231.64 1269.31 1228.3 1269.78 1226.61 1267.47 C 1222.19 1261.42 1218.11 1255.65 1212.8 1250.36 C 1212.83 1255.05 1213.68 1264.79 1212.22 1269.27 C 1211.74 1270.42 1206.62 1269.61 1206.55 1269.01 C 1205.56 1259.57 1205.9 1245.66 1206.07 1236.31 z" fill="rgb(49,66,139)" transform="translate(0,0)"></path>
<path d="M 1444.98 1258.38 C 1445.02 1253.16 1444.2 1242.62 1445.78 1237.74 C 1446.12 1236.67 1451.28 1237.02 1451.35 1237.62 C 1452.5 1247.68 1451.91 1259 1452.06 1269.39 C 1451.4 1269.36 1445.54 1269.2 1445.4 1269.08 C 1441.87 1266.21 1433.06 1252.16 1430.65 1248.79 C 1430.75 1254.65 1431.28 1262.97 1430.4 1268.73 C 1430.27 1269.56 1423.94 1270.14 1423.86 1269.06 C 1423.12 1258.86 1423.17 1247.28 1423.16 1236.88 C 1433.35 1237.85 1433.32 1242.76 1440.17 1251.97 L 1444.98 1258.38 z" fill="rgb(49,66,139)" transform="translate(0,0)"></path>
<path d="M 1057.36 1236.54 C 1064.82 1237.35 1063.04 1236.09 1067.65 1242.61 C 1070.74 1246.99 1074.4 1252.77 1078.14 1256.57 C 1078.14 1255.46 1074.8 1229.37 1084.88 1238.03 C 1085.36 1238.44 1085.45 1265.12 1085.6 1269.29 C 1077.7 1268.81 1079.67 1270.13 1074.83 1263.41 C 1071.44 1258.69 1067.56 1253.69 1064.04 1249.02 C 1064.07 1254.82 1064.71 1262.81 1063.69 1268.32 C 1063.59 1268.82 1057 1270.94 1057.25 1266.54 C 1057.79 1256.68 1057.3 1246.46 1057.36 1236.54 z" fill="rgb(49,66,139)" transform="translate(0,0)"></path>
<path d="M 898.112 1237.05 C 899.474 1237.06 905.193 1236.8 905.441 1237.39 C 908.5 1244.62 911.559 1255.94 914.594 1263.64 C 914.919 1264.47 915.903 1267.11 915.919 1267.96 C 915.922 1268.15 915.752 1268.38 915.587 1268.48 C 913.74 1269.61 912.005 1269.45 909.977 1268.87 C 909.168 1268.64 908.476 1267.71 908.18 1266.96 C 907.743 1265.87 907.413 1264.45 906.386 1263.7 C 906.171 1263.57 905.955 1263.44 905.739 1263.31 C 903.359 1263.31 893.763 1261.89 894.177 1265.53 C 894.708 1270.21 887.789 1270.25 885.894 1268.35 C 885.779 1265.87 896.506 1240.72 898.112 1237.05 z" fill="rgb(49,66,139)" transform="translate(0,0)"></path>
<path d="M 901.117 1246.61 C 903.104 1251.48 905.54 1254.2 901.659 1257.65 C 895.556 1254.94 898.05 1252.89 901.117 1246.61 z" fill="rgb(255,255,255)" transform="translate(0,0)"></path>
<path d="M 1174.98 1237.59 C 1175.67 1237.63 1181.23 1237.66 1181.63 1238.34 C 1186.95 1247.53 1189.69 1258.54 1193.76 1268.36 C 1194.38 1269.87 1187.72 1269.51 1187 1268.96 C 1185.07 1267.48 1185.84 1265.4 1183.67 1263.27 C 1180.87 1263.4 1172.3 1262.79 1171.55 1266.35 C 1170.79 1270.02 1161.85 1271.54 1163.84 1266.49 C 1167.67 1256.73 1170.53 1247.15 1174.98 1237.59 z" fill="rgb(49,66,139)" transform="translate(0,0)"></path>
<path d="M 1178.56 1246.81 C 1181.46 1250.18 1182.81 1254.85 1180.07 1258.65 C 1174.12 1256.7 1174.69 1256.72 1176.93 1250.99 L 1178.56 1246.81 z" fill="rgb(243,240,247)" transform="translate(0,0)"></path>
<path d="M 625.08 1237.07 C 626.021 1237.08 632.033 1236.9 632.29 1237.5 C 634.649 1241.44 630.304 1259.23 635.333 1261.52 C 647.644 1267.98 646.96 1251.17 645.963 1243.74 C 644.834 1235.33 653.202 1232.78 653.172 1242.75 C 653.165 1247.63 654.492 1261.28 650.578 1265.35 C 644.126 1272.06 629.926 1271.86 626.271 1261.95 C 624.288 1256.57 624.942 1243.75 625.08 1237.07 z" fill="rgb(49,66,139)" transform="translate(0,0)"></path>
<path d="M 1507.74 1237.11 C 1510.69 1236.86 1527.89 1235.45 1523.95 1248.01 C 1522.01 1248.91 1518.4 1248.77 1517.78 1246.61 C 1515.05 1237.08 1502.43 1247.14 1511.98 1249.88 L 1513.43 1250.29 C 1527.28 1254.22 1530.73 1264.27 1517.26 1269.87 C 1514.48 1269.94 1498.5 1270.4 1501.65 1259.07 C 1501.99 1257.83 1508.24 1257.41 1508.46 1260.33 C 1508.55 1261.53 1510.79 1263.53 1512.53 1263.76 C 1513.71 1263.92 1514.9 1263.56 1515.78 1262.78 C 1523.92 1255.59 1484.93 1255.34 1507.74 1237.11 z" fill="rgb(58,74,148)" transform="translate(0,0)"></path>
<path d="M 855.279 1237.15 C 863.232 1236.56 871.812 1236.63 875.515 1245.75 C 876.803 1248.93 876.222 1249.08 873.415 1249.15 C 869.633 1249.98 867.559 1244.52 864.616 1243.99 C 843.638 1240.16 852.101 1273.41 867.647 1261.39 C 875.305 1252.6 880.973 1258.8 871.195 1266.26 C 867.501 1269.06 862.83 1270.25 858.248 1269.55 C 853.452 1268.8 849.345 1266.75 846.557 1262.66 C 844.03 1258.96 843.147 1254.38 844.117 1250 C 845.143 1245.3 848.508 1241.5 852.462 1238.94 L 855.279 1237.15 z" fill="rgb(49,66,139)" transform="translate(0,0)"></path>
<path d="M 1050.71 333.75 C 1055.05 332.065 1059.95 332.859 1063.54 335.825 C 1067.12 338.791 1068.82 343.465 1067.97 348.039 C 1067.13 352.614 1063.87 356.373 1059.47 357.863 C 1052.86 360.097 1045.68 356.644 1043.3 350.089 C 1040.92 343.533 1044.21 336.277 1050.71 333.75 z" fill="rgb(49,66,139)" transform="translate(0,0)"></path>
<path d="M 1709.6 974.531 C 1714.05 973.148 1718.91 974.298 1722.27 977.533 C 1725.64 980.768 1726.97 985.576 1725.76 990.083 C 1724.55 994.59 1720.99 998.082 1716.46 999.199 C 1709.73 1000.86 1702.91 996.869 1701.05 990.196 C 1699.2 983.523 1702.98 976.584 1709.6 974.531 z" fill="rgb(49,66,139)" transform="translate(0,0)"></path>
<path d="M 385.914 1008.85 C 392.298 1006.01 399.775 1008.85 402.665 1015.21 C 405.556 1021.57 402.777 1029.07 396.441 1032.02 C 390.031 1034.99 382.423 1032.18 379.499 1025.74 C 376.574 1019.31 379.455 1011.72 385.914 1008.85 z" fill="rgb(49,66,139)" transform="translate(0,0)"></path>
<path d="M 1048.73 1692.61 C 1053.16 1691.21 1057.99 1692.35 1061.34 1695.57 C 1064.68 1698.79 1065.99 1703.59 1064.75 1708.06 C 1063.52 1712.54 1059.94 1715.98 1055.42 1717.03 C 1048.78 1718.58 1042.12 1714.61 1040.32 1708.04 C 1038.52 1701.47 1042.23 1694.66 1048.73 1692.61 z" fill="rgb(49,66,139)" transform="translate(0,0)"></path>
<path d="M 992.796 332.55 C 999.386 330.413 1006.46 334.034 1008.58 340.63 C 1010.7 347.226 1007.05 354.289 1000.45 356.388 C 993.877 358.479 986.85 354.856 984.74 348.286 C 982.63 341.717 986.233 334.679 992.796 332.55 z" fill="rgb(49,66,139)" transform="translate(0,0)"></path>
<path d="M 1313.23 1237.47 C 1319.26 1237.4 1325.71 1237.22 1331.64 1237.53 C 1333.63 1237.76 1333.17 1242.9 1332.57 1243.39 C 1330.58 1245.32 1320.72 1242.42 1319.86 1244.98 C 1315.77 1256.69 1335.96 1244.65 1331.54 1255.67 C 1330.03 1259.44 1322.69 1252.22 1318.25 1260.68 C 1324.06 1265.51 1331.05 1261.67 1333 1263.44 C 1342.64 1272.19 1314.28 1269.25 1312 1269.24 C 1312.07 1263.73 1311.29 1240.19 1313.23 1237.47 z" fill="rgb(49,66,139)" transform="translate(0,0)"></path>
<path d="M 755.94 1237.14 C 761.302 1237.09 780.22 1234.73 777.648 1240.39 C 774.828 1246.6 770.22 1241.74 764.623 1244.09 C 764.158 1244.28 764.105 1245.14 764.023 1245.49 C 762.286 1254.12 771.609 1248.14 775.728 1251.17 C 777.25 1252.33 776.619 1256.22 773.508 1256.03 C 770.496 1255.84 766.5 1256.01 763.48 1256.04 C 763.669 1257.65 763.393 1256.52 764.124 1261.55 C 764.766 1265.97 782.156 1258.62 777.117 1268.43 C 776.376 1269.87 759.293 1269.23 756.189 1269.23 C 756.379 1258.43 756.493 1247.93 755.94 1237.14 z" fill="rgb(49,66,139)" transform="translate(0,0)"></path>
<path d="M 1652.95 1007.57 C 1659.63 1007.3 1665.31 1012.41 1665.73 1019.09 C 1666.14 1025.76 1661.15 1031.55 1654.49 1032.11 C 1650.05 1032.48 1645.75 1030.43 1643.26 1026.73 C 1640.77 1023.04 1640.47 1018.29 1642.48 1014.31 C 1644.49 1010.33 1648.5 1007.76 1652.95 1007.57 z" fill="rgb(49,66,139)" transform="translate(0,0)"></path>
<path d="M 1387.99 1237.59 C 1390.18 1237.58 1407.52 1236.43 1408.92 1238.93 C 1409.16 1239.35 1409.25 1242.8 1408.57 1243.32 C 1406.12 1245.2 1400.52 1243.37 1397.48 1243.97 C 1397.09 1243.98 1395.82 1244.25 1395.67 1244.75 C 1393.03 1253.66 1401.68 1248.85 1406.27 1250.65 C 1407.18 1251.01 1407.88 1254.73 1406.76 1255.46 C 1404.28 1257.09 1397.44 1256.48 1394.37 1256.78 C 1394.38 1256.81 1394.93 1259.1 1394.93 1259.18 C 1394.94 1259.74 1395.41 1261.59 1395.59 1262.05 C 1396.67 1264.89 1406.26 1262.2 1408.88 1263.58 C 1409.4 1263.85 1409.75 1264.39 1409.87 1264.95 C 1410.34 1266.98 1409.33 1269.34 1407.01 1269.32 C 1400.72 1269.27 1394.43 1269.32 1388.14 1269.3 C 1388.23 1258.73 1388.18 1248.16 1387.99 1237.59 z" fill="rgb(49,66,139)" transform="translate(0,0)"></path>
<path d="M 1359.94 1258.85 L 1360.52 1257.22 C 1362.83 1250.93 1364.94 1244.52 1367.36 1238.29 C 1367.68 1237.46 1375.06 1237.49 1375.94 1238.58 C 1375.85 1239.41 1373.14 1245.49 1372.64 1246.75 C 1370.03 1253.94 1366.42 1274.3 1356.57 1268.63 C 1354.22 1267.27 1346.04 1242.26 1344.3 1237.86 C 1358.28 1237.66 1352.55 1240.55 1358.8 1256 L 1359.94 1258.85 z" fill="rgb(49,66,139)" transform="translate(0,0)"></path>
<path d="M 994.509 1693.81 C 1000.98 1692.33 1007.45 1696.3 1009.06 1702.74 C 1010.67 1709.18 1006.84 1715.73 1000.43 1717.48 C 996.168 1718.64 991.607 1717.41 988.511 1714.25 C 985.415 1711.09 984.267 1706.51 985.512 1702.27 C 986.757 1698.03 990.199 1694.79 994.509 1693.81 z" fill="rgb(49,66,139)" transform="translate(0,0)"></path>
<path d="M 960.751 1237.24 C 963.503 1237.24 980.755 1236.49 981.307 1238.27 C 984.275 1247.86 973.676 1242.24 969.154 1244.33 C 968.371 1244.69 968.206 1249.57 968.036 1250.69 C 967.555 1253.18 967.252 1254.02 967.431 1256.49 C 967.694 1257.85 967.732 1259.19 968.282 1261.58 C 969.303 1266.02 985.561 1258.95 980.774 1268.64 C 980.129 1269.94 963.725 1269.46 960.835 1269.48 C 960.91 1258.74 960.882 1247.99 960.751 1237.24 z" fill="rgb(49,66,139)" transform="translate(0,0)"></path>
<path d="M 737.643 1113.2 C 749.218 1114.72 760.947 1114.62 772.495 1112.91 C 776.776 1112.25 782.022 1110.28 786.112 1108.68 L 785.976 1127.37 C 768.749 1119.17 756.566 1120.09 737.882 1118.25 C 737.756 1116.46 737.686 1115.01 737.643 1113.2 z" fill="rgb(58,74,148)" transform="translate(0,0)"></path>
<path d="M 788.131 1237.02 C 792.532 1237.04 808.864 1236.59 813.587 1237.52 C 814.998 1238.67 814.447 1243.07 813.404 1244.06 C 812.17 1245.22 806.573 1243.94 806.211 1245.3 C 805.09 1249.53 805.818 1260.01 805.865 1264.25 C 806.017 1269.61 804.787 1271.05 798.867 1269.37 C 796.901 1266.27 798.939 1248.99 798.144 1246.94 C 794.552 1237.64 788.816 1252.55 788.131 1237.02 z" fill="rgb(49,66,139)" transform="translate(0,0)"></path>
<path d="M 1463.31 1237.25 C 1469.46 1237.16 1491.45 1234.33 1489.77 1241.06 C 1488.59 1245.78 1481.84 1242.25 1481.12 1244.26 C 1479.85 1247.85 1480.56 1257.42 1480.6 1261.25 C 1480.72 1266.11 1482.58 1272.3 1473.93 1269.41 C 1472.11 1268.8 1473.66 1248.09 1472.94 1245.51 C 1472.05 1242.33 1466.36 1245.1 1464.63 1243.68 C 1463.62 1242.85 1463.49 1238.51 1463.31 1237.25 z" fill="rgb(49,66,139)" transform="translate(0,0)"></path>
<path d="M 920.972 1237.3 C 923.969 1237.28 943.635 1236.61 947.161 1237.96 C 947.83 1238.21 947.361 1240.96 947.28 1242.04 C 946.971 1246.11 940.785 1242.4 938.578 1244.24 C 937.512 1245.66 938.034 1259.45 938.034 1261.25 C 938.052 1265.81 939.969 1270.97 931.581 1268.63 C 930.033 1268.2 931.617 1246.39 930.922 1245.42 C 926.233 1238.85 921.009 1250.75 920.972 1237.3 z" fill="rgb(49,66,139)" transform="translate(0,0)"></path>
<path d="M 1034.79 1236.89 C 1035.11 1236.91 1041.34 1236.93 1041.43 1237.7 C 1042.54 1247.57 1042.01 1259.02 1042.09 1269.13 C 1033.04 1268.9 1034.96 1270.24 1034.86 1260.66 C 1034.79 1252.76 1034.82 1244.79 1034.79 1236.89 z" fill="rgb(49,66,139)" transform="translate(0,0)"></path>
<path d="M 918.421 1563.77 C 920.76 1560.9 942.135 1535.74 942.581 1535.69 C 943.732 1538.25 922.568 1563.34 920.007 1566.09 L 918.421 1563.77 z" fill="rgb(104,113,158)" transform="translate(0,0)"></path>
<path d="M 1103.07 511.743 C 1108.45 500.032 1117.71 488.049 1126.52 478.625 L 1128.38 480.285 C 1118.78 491.565 1112.2 500.118 1103.07 511.743 z" fill="rgb(104,113,158)" transform="translate(0,0)"></path>
<path d="M 968.036 1250.69 C 971.895 1250.85 978.273 1249.62 980.567 1252.74 C 980.365 1258.27 972.147 1256.5 967.431 1256.49 C 967.252 1254.02 967.555 1253.18 968.036 1250.69 z" fill="rgb(58,74,148)" transform="translate(0,0)"></path>
<path d="M 1104.93 1531.6 C 1110.54 1538.33 1118.53 1549.04 1123.59 1556.28 L 1122.53 1558.31 C 1115.1 1550.41 1109.84 1541.15 1104.93 1531.6 z" fill="rgb(129,137,175)" transform="translate(0,0)"></path>
<path d="M 775.773 1580.93 C 783.308 1580.8 788.818 1580.27 796.184 1579.89 L 797.824 1581.66 L 796.885 1581.79 C 790.57 1582.67 784.889 1583.47 778.475 1584.14 L 775.773 1580.93 z" fill="rgb(58,74,148)" transform="translate(0,0)"></path>
<path d="M 1242.52 1578.83 C 1253.94 1579.61 1263.02 1580.29 1274.58 1580.46 C 1267.19 1582.18 1263.83 1580.16 1259.09 1582.68 C 1252.18 1582.2 1248.8 1580.94 1242.52 1578.83 z" fill="rgb(104,113,158)" transform="translate(0,0)"></path>
<path d="M 781.843 454.224 C 786.263 454.461 793.213 455.007 797.479 455.86 L 795.61 457.398 C 789.913 456.754 783.384 456.909 777.63 456.943 L 781.843 454.224 z" fill="rgb(58,74,148)" transform="translate(0,0)"></path>
<path d="M 1251.52 455.845 C 1255.09 454.99 1260.51 454.445 1264.17 454.28 C 1266.97 455.994 1268.31 456.063 1271.51 456.972 C 1265.04 456.936 1258.67 456.77 1252.21 457.326 L 1251.52 455.845 z" fill="rgb(104,113,158)" transform="translate(0,0)"></path>
<path d="M 933.07 492.499 C 934.609 494.216 940.522 502.001 940.7 503.915 C 940.621 504.004 940.541 504.094 940.461 504.184 C 939.074 503.724 932.962 495.626 931.712 494.05 L 933.07 492.499 z" fill="rgb(104,113,158)" transform="translate(0,0)"></path>
<path d="M 1650.98 972.826 L 1653.25 975.825 C 1651.44 976.495 1646.41 978.985 1644.88 978.194 C 1644.31 976.644 1649.71 973.751 1650.98 972.826 z" fill="rgb(58,74,148)" transform="translate(0,0)"></path>
<path d="M 1638.55 790.494 C 1638.55 790.489 1638.12 788.376 1638.12 788.358 C 1638.35 787.59 1636.25 781.026 1637.53 780.456 L 1637.71 780.542 L 1638.64 782.071 L 1638.4 781.548 C 1639 783.009 1639.54 784.495 1640.01 786.002 C 1640.21 786.739 1640.41 787.475 1640.62 788.211 L 1638.55 790.494 z" fill="rgb(104,113,158)" transform="translate(0,0)"></path>
<path d="M 1092.43 1500.24 C 1086.72 1495.69 1087.9 1491.78 1095.39 1500.69 L 1092.43 1500.24 z" fill="rgb(243,240,247)" transform="translate(0,0)"></path>
<path d="M 796.184 1579.89 C 797.876 1579.46 804.004 1578.01 805.452 1579.31 C 805.31 1580.72 798.9 1581.45 797.824 1581.66 L 796.184 1579.89 z" fill="rgb(160,163,188)" transform="translate(0,0)"></path>
<path d="M 412.943 778.552 L 414.359 779.083 C 414.094 781.821 413.913 783.551 413.383 786.253 L 411.398 784.557 C 411.864 782.519 412.278 780.539 412.943 778.552 z" fill="rgb(104,113,158)" transform="translate(0,0)"></path>
<path d="M 1252.21 457.326 C 1251.31 457.561 1246.16 458.988 1245.77 457.343 C 1246.54 455.479 1250 455.873 1251.52 455.845 L 1252.21 457.326 z" fill="rgb(212,212,212)" transform="translate(0,0)"></path>
<path d="M 1638.86 1256.51 L 1641.06 1257.09 C 1639.36 1264.42 1636.71 1264.75 1638.86 1256.51 z" fill="rgb(160,163,188)" transform="translate(0,0)"></path>
<path d="M 797.479 455.86 C 799.165 455.945 802.07 455.742 803.204 457.352 C 802.957 458.72 796.482 457.54 795.61 457.398 L 797.479 455.86 z" fill="rgb(160,163,188)" transform="translate(0,0)"></path>
<path d="M 1094.39 542.14 C 1090.28 547.313 1088.47 546.262 1091.42 542.589 L 1092.56 541.117 L 1094.39 542.14 z" fill="rgb(243,240,247)" transform="translate(0,0)"></path>
<path d="M 1018.76 675.531 L 1020.28 673.779 C 1020.47 674.623 1021.48 677.656 1020.06 678.218 C 1018.99 678.022 1018.96 676.318 1018.76 675.531 z" fill="rgb(243,240,247)" transform="translate(0,0)"></path>
<path d="M 412.943 778.552 C 413.934 773.612 415.644 774.325 414.359 779.083 L 412.943 778.552 z" fill="rgb(160,163,188)" transform="translate(0,0)"></path>
<path d="M 1024.14 1853.68 C 1033.76 1879.26 1031.5 1910.73 1060.03 1926.62 C 1053.39 1956.57 1039.53 1978.48 1024.93 2005 C 1009.3 1985.45 995.372 1950.01 988.331 1926.22 C 989.812 1925.38 991.278 1924.52 992.728 1923.63 C 1014.69 1910.03 1018.61 1876.25 1024.14 1853.68 z" fill="rgb(49,66,139)" transform="translate(0,0)"></path>
<path d="M 1023.67 42.5809 C 1035.48 52.1239 1055.35 104.647 1058.89 120.63 C 1035.27 136.513 1030.8 167.115 1024.58 193.811 C 1017.27 169.958 1014.7 132.959 988.237 122.102 C 995.326 93.659 1008.35 67.4686 1023.67 42.5809 z" fill="rgb(49,66,139)" transform="translate(0,0)"></path>
<path d="M 122.887 987.154 C 128.2 986.314 131.082 995.62 136.937 1000.25 C 154.871 1014.44 176.866 1016.46 195.919 1023.55 L 196.844 1023.91 C 188.752 1025.51 180.723 1027.41 172.773 1029.61 C 154.459 1034.73 136.409 1042.27 126.705 1059.49 C 105.65 1052.08 69.0308 1035.9 51.3056 1021.84 C 73.882 1007.56 97.0796 994.412 122.887 987.154 z" fill="rgb(49,66,139)" transform="translate(0,0)"></path>
<path d="M 1923.77 985.801 C 1946.01 992.104 1977.14 1010.38 1997.38 1022.14 C 1976.92 1036.73 1950.05 1050.98 1926.22 1058.15 C 1923.99 1057.52 1917.11 1048.24 1912.43 1044.91 C 1895.93 1033.17 1871.11 1029.68 1853.42 1023.32 L 1852.54 1022.99 C 1877.36 1019.56 1913.62 1011.44 1923.77 985.801 z" fill="rgb(49,66,139)" transform="translate(0,0)"></path>
<path d="M 1022.94 1792.83 C 1025.04 1793.17 1025.41 1792.98 1026.6 1794.85 C 1027.47 1797.04 1028.26 1799.25 1029 1801.48 C 1035.71 1815.93 1041.97 1827.41 1052.57 1839.42 C 1056.32 1843.67 1067.87 1852.25 1068.53 1854.3 C 1064.64 1858.24 1058.81 1855.85 1053.65 1854.96 C 1056.62 1858.01 1060.34 1861.89 1063.88 1864.13 C 1078.16 1873.16 1095.92 1875.79 1095.36 1896.95 C 1095.19 1904.04 1092.11 1910.75 1086.86 1915.51 C 1081.82 1920.08 1075.1 1922.34 1068.32 1921.76 C 1036.93 1919.06 1027.53 1855.17 1025.89 1831.32 C 1024.81 1827.19 1025.4 1824.71 1023.18 1821.18 C 1022.88 1814.91 1023.06 1806.48 1023.03 1800.01 L 1020.76 1797.84 C 1021.48 1795.94 1022.07 1794.65 1022.94 1792.83 z" fill="rgb(49,66,139)" transform="translate(0,0)"></path>
<path d="M 1022.94 1792.83 C 1025.04 1793.17 1025.41 1792.98 1026.6 1794.85 C 1027.47 1797.04 1028.26 1799.25 1029 1801.48 L 1025.79 1801.51 C 1026.26 1810.43 1026.13 1822.34 1025.89 1831.32 C 1024.81 1827.19 1025.4 1824.71 1023.18 1821.18 C 1022.88 1814.91 1023.06 1806.48 1023.03 1800.01 L 1020.76 1797.84 C 1021.48 1795.94 1022.07 1794.65 1022.94 1792.83 z" fill="rgb(243,240,247)" transform="translate(0,0)"></path>
<path d="M 1026.6 1794.85 C 1027.47 1797.04 1028.26 1799.25 1029 1801.48 L 1025.79 1801.51 C 1025.96 1798.91 1026.17 1797.41 1026.6 1794.85 z" fill="rgb(58,74,148)" transform="translate(0,0)"></path>
<path d="M 1020.76 1797.84 C 1021.48 1795.94 1022.07 1794.65 1022.94 1792.83 C 1022.98 1795.22 1023.01 1797.61 1023.03 1800.01 L 1020.76 1797.84 z" fill="rgb(58,74,148)" transform="translate(0,0)"></path>
<path d="M 1020.76 1797.84 L 1023.03 1800.01 C 1023.06 1806.48 1022.88 1814.91 1023.18 1821.18 C 1021.77 1843.67 1019.75 1865.74 1011.92 1887.23 C 1006.61 1902.03 996.467 1921.87 978.276 1921.85 C 963.814 1921.83 952.066 1907.72 952.531 1893.62 C 953.16 1874.57 972.19 1871.78 985.649 1864.37 C 989.859 1862.05 993.452 1858.55 996.959 1855.28 C 991.283 1856.24 984.282 1858.66 979.554 1854.92 C 979.35 1851.67 985.922 1847.26 989.301 1844.87 C 1004.73 1833.97 1014.67 1815.76 1020.76 1797.84 z" fill="rgb(49,66,139)" transform="translate(0,0)"></path>
<path d="M 1025.75 244.479 C 1024.6 210.468 1028.1 162.228 1051.73 134.316 C 1074.11 107.878 1114.55 146.493 1085.87 170.67 C 1077.25 177.836 1065.51 180.539 1055.26 188.8 L 1054.23 189.615 L 1053.61 190.11 C 1059.66 189.963 1066.61 189.645 1072.57 189.762 L 1071.7 190.661 C 1066.5 195.932 1061.95 199.021 1056.44 203.818 C 1043.23 215.312 1036.07 227.521 1029.42 243.428 C 1028.28 245.943 1027.98 248.014 1026.08 248.866 L 1025.75 244.479 z" fill="rgb(49,66,139)" transform="translate(0,0)"></path>
<path d="M 971.974 126.149 L 973.1 126.023 C 1001.94 123.006 1010.5 154.283 1016.79 176.524 C 1023.54 200.384 1021.52 226.863 1023.19 251.575 C 1019.4 242.532 1016.54 235.492 1011.72 226.892 C 1000.25 208.187 992.446 205.068 976.267 191.868 C 982.991 190.036 987.155 189.75 994.083 189.069 C 976.917 174.894 943.266 171.229 955.142 141.045 C 958.332 132.937 964.319 129.396 971.974 126.149 z" fill="rgb(49,66,139)" transform="translate(0,0)"></path>
<path d="M 218.35 1022 C 191.596 1019.01 168.611 1014.38 144.827 1000.19 C 120.788 985.848 126.999 955.33 154.64 952.855 C 181.432 950.456 178.626 980.636 193.203 993.397 L 194.259 993.267 C 194.507 988.775 193.678 981.598 198.002 979.768 C 201.806 981.815 205.819 990.069 209.262 993.603 C 219.48 1004.09 232.786 1012.44 246.123 1018 L 245.216 1021.57 C 235.798 1022.21 227.747 1022.02 218.35 1022 z" fill="rgb(49,66,139)" transform="translate(0,0)"></path>
<path d="M 1801.09 1025.09 C 1831.77 1023.71 1857.06 1024.16 1886.01 1036.36 C 1903.52 1043.73 1915.98 1048.24 1919.19 1068.66 C 1912 1091.72 1890.85 1097.61 1872.22 1082.62 C 1866.49 1066.76 1864.54 1061.87 1853.86 1048.68 C 1854.38 1053.54 1855.81 1061.41 1852.54 1065.31 L 1850.93 1065.35 C 1847.58 1061.43 1843.95 1056.25 1840.91 1052.74 C 1833.8 1044.52 1810.29 1029.68 1800.59 1027.66 L 1801.09 1025.09 z" fill="rgb(49,66,139)" transform="translate(0,0)"></path>
<path d="M 246.123 1018 C 248.597 1018.95 251.108 1019.62 253.666 1020.58 C 253.593 1022.26 253.612 1023.77 253.626 1025.44 C 253.319 1027.37 250.792 1027.16 248.978 1027.58 C 223.326 1037.64 215.045 1046.3 197.469 1065.96 C 195.473 1058.49 195.652 1055.69 196.039 1048.22 C 183.633 1060.98 180.762 1083.77 166.29 1088.41 C 148.521 1094.11 135.319 1082.7 130.667 1067.15 C 139.248 1036.19 188.959 1027.71 216.344 1024.81 C 218.684 1022.12 221.199 1024.17 222.251 1023.45 L 221.41 1023.05 L 222.172 1023.37 L 220.868 1023.29 L 219.988 1022.46 C 219.442 1022.31 218.896 1022.15 218.35 1022 C 227.747 1022.02 235.798 1022.21 245.216 1021.57 L 246.123 1018 z" fill="rgb(49,66,139)" transform="translate(0,0)"></path>
<path d="M 246.123 1018 C 248.597 1018.95 251.108 1019.62 253.666 1020.58 C 253.593 1022.26 253.612 1023.77 253.626 1025.44 C 253.319 1027.37 250.792 1027.16 248.978 1027.58 C 245.61 1025.84 242.412 1026.29 238.4 1025.21 C 231.417 1024.45 222.856 1025.63 216.344 1024.81 C 218.684 1022.12 221.199 1024.17 222.251 1023.45 L 221.41 1023.05 L 222.172 1023.37 L 220.868 1023.29 L 219.988 1022.46 C 219.442 1022.31 218.896 1022.15 218.35 1022 C 227.747 1022.02 235.798 1022.21 245.216 1021.57 L 246.123 1018 z" fill="rgb(243,240,247)" transform="translate(0,0)"></path>
<path d="M 253.626 1025.44 C 253.319 1027.37 250.792 1027.16 248.978 1027.58 C 245.61 1025.84 242.412 1026.29 238.4 1025.21 C 243.38 1025.12 248.787 1024.71 253.626 1025.44 z" fill="rgb(58,74,148)" transform="translate(0,0)"></path>
<path d="M 246.123 1018 C 248.597 1018.95 251.108 1019.62 253.666 1020.58 C 250.844 1020.91 248.03 1021.19 245.216 1021.57 L 246.123 1018 z" fill="rgb(58,74,148)" transform="translate(0,0)"></path>
<path d="M 1852.47 996.445 L 1853.66 995.538 C 1870.91 982.203 1867.72 953.362 1896.45 956.356 C 1903.05 957.012 1909.07 960.401 1913.05 965.702 C 1941.43 1003.48 1859.26 1020.96 1836.36 1021.11 C 1832.12 1021.97 1795.77 1023.19 1794.34 1021.21 L 1794.59 1021.45 L 1795.2 1020.43 C 1796.69 1020.05 1798.13 1020.03 1799.65 1020.15 C 1826.6 1011.06 1836.54 996.857 1854.41 978.413 C 1853.8 984.428 1853.15 990.439 1852.47 996.445 z" fill="rgb(49,66,139)" transform="translate(0,0)"></path>
<path d="M 1836.36 1021.11 C 1832.12 1021.97 1795.77 1023.19 1794.34 1021.21 L 1794.59 1021.45 L 1795.2 1020.43 C 1796.69 1020.05 1798.13 1020.03 1799.65 1020.15 C 1809.24 1022.39 1825.77 1020.75 1836.36 1021.11 z" fill="rgb(160,163,188)" transform="translate(0,0)"></path>
<path d="M 898.678 185.384 C 943.683 179.708 980.055 199.438 1003.81 236.905 C 974.882 209.035 956.967 200.095 915.577 197.292 C 868.571 196.485 846.283 214.711 806.572 234.621 C 830.84 205.27 861.093 189.677 898.678 185.384 z" fill="rgb(49,66,139)" transform="translate(0,0)"></path>
<path d="M 805.766 1810.81 C 844.064 1831.74 873.117 1850.88 918.964 1848.85 C 944.28 1847.72 978.489 1836.36 995.806 1817.51 L 997.348 1819.43 C 962.825 1873.47 875.926 1871.09 830.297 1834.73 C 819.93 1826.47 814.421 1821.01 805.766 1810.81 z" fill="rgb(49,66,139)" transform="translate(0,0)"></path>
<path d="M 1052.25 1816.68 C 1069.31 1833.48 1081.14 1838.81 1104.1 1844.64 C 1158.34 1858.4 1195.67 1837.77 1241.14 1811.46 C 1206.95 1860.68 1125.26 1878.5 1075.48 1842.86 C 1065.04 1835.38 1058.61 1828.41 1050.55 1818.51 L 1052.25 1816.68 z" fill="rgb(49,66,139)" transform="translate(0,0)"></path>
<path d="M 1816.8 1047.59 C 1822.57 1049.74 1826.5 1052.84 1830.89 1057.05 C 1863.52 1088.39 1867.56 1137.29 1854.61 1178.68 C 1847.76 1200.6 1836.71 1217.42 1820.73 1233.9 C 1818.63 1235.88 1815.6 1238.23 1813.31 1240.11 C 1816.25 1232.78 1823.05 1220.44 1827.01 1213.1 C 1839.35 1190.25 1847.51 1168.07 1848.8 1141.91 C 1850.72 1103.35 1842.15 1076.38 1816.8 1047.59 z" fill="rgb(49,66,139)" transform="translate(0,0)"></path>
<path d="M 228.497 1049.28 L 229.429 1051.36 C 196.931 1080.37 193.309 1143.62 207.631 1182.2 C 214.655 1201.13 226.622 1223.22 235.725 1241.58 C 188.981 1203.16 169.461 1124.16 205.527 1072.2 C 212.236 1062.54 219.366 1056.55 228.497 1049.28 z" fill="rgb(49,66,139)" transform="translate(0,0)"></path>
<path d="M 226.035 995.549 C 220.921 992.172 216.245 988.174 212.115 983.648 C 169.067 936.961 184.157 853.472 228.666 812.957 L 230.495 816.4 C 205.734 864.187 189.159 898.964 205.639 955.394 C 209.714 969.346 215.322 983.733 226.973 993.048 L 226.035 995.549 z" fill="rgb(49,66,139)" transform="translate(0,0)"></path>
<path d="M 1052.1 226.304 C 1099.11 164.01 1196.46 176.088 1240.9 234.417 C 1192.55 208.745 1158.77 185.871 1098.97 202.598 C 1083.89 206.818 1064.58 217.107 1053.32 228.122 L 1052.1 226.304 z" fill="rgb(49,66,139)" transform="translate(0,0)"></path>
<path d="M 1811.62 806.448 C 1866.19 845.531 1883.39 947.771 1826.2 992.187 L 1823.3 991.357 C 1869.05 944.923 1846.52 853.146 1811.62 806.448 z" fill="rgb(49,66,139)" transform="translate(0,0)"></path>
<path d="M 1836.79 1089.61 C 1840.11 1094.05 1841.53 1099.15 1842.77 1104.52 C 1851.15 1140.79 1838.59 1162.93 1812.64 1186.51 C 1811.42 1187.45 1809.13 1189.73 1807.56 1189.86 C 1807.21 1189.69 1807.35 1189.82 1807.15 1189.47 C 1807.15 1188.67 1807.32 1188.48 1807.73 1187.82 C 1821.47 1165.61 1828.7 1141.87 1833.87 1116.49 C 1835.91 1106.49 1835.58 1099.2 1836.79 1089.61 z" fill="rgb(49,66,139)" transform="translate(0,0)"></path>
<path d="M 1193.76 1804.47 C 1174.63 1832.76 1133.09 1858.3 1100.13 1837.39 L 1101.3 1833.54 C 1137.27 1834.31 1163.45 1820.17 1193.76 1804.47 z" fill="rgb(49,66,139)" transform="translate(0,0)"></path>
<path d="M 1808.41 861.119 C 1803.8 854.746 1807.98 856.105 1811.25 860.023 C 1841.06 884.061 1852.85 914.016 1839.73 950.98 C 1836.45 957.876 1836.76 953.879 1836.5 948.912 C 1837.33 933.199 1826.99 906.439 1822.5 890.935 C 1819.81 881.622 1813.14 870.702 1808.81 861.941 L 1808.41 861.119 z" fill="rgb(49,66,139)" transform="translate(0,0)"></path>
<path d="M 1808.41 861.119 C 1803.8 854.746 1807.98 856.105 1811.25 860.023 C 1809.78 860.282 1809.79 860.361 1808.41 861.119 z" fill="rgb(58,74,148)" transform="translate(0,0)"></path>
<path d="M 916.398 202.318 C 933.351 201.387 944.444 205 959.668 211.779 C 938.978 212.413 934.449 212.938 914.515 217.282 C 905.054 219.246 895.766 221.97 886.743 225.427 L 885.138 226.04 C 871.534 231.149 866.402 234.977 854.126 241.583 C 871.493 220.541 888.609 205.992 916.398 202.318 z" fill="rgb(49,66,139)" transform="translate(0,0)"></path>
<path d="M 240.711 857.9 C 242.706 859.909 236.21 868.266 234.615 871.38 C 228.177 884.037 223.049 897.318 219.311 911.017 C 218.623 913.685 217.858 916.337 217.22 919.018 L 216.267 923.016 C 216.166 923.457 214.184 932.524 214.205 932.513 C 212.018 933.61 213.47 959.203 209.774 953.611 C 194.964 917.218 208.208 879.125 240.711 857.9 z" fill="rgb(49,66,139)" transform="translate(0,0)"></path>
<path d="M 856.323 1804.69 C 874.342 1813.86 887.253 1822.74 908.515 1827.81 L 912.522 1828.74 C 925.227 1831.55 937.834 1834.8 951.003 1834.25 C 951.794 1834.22 953.487 1834.01 954.173 1834.61 L 954.182 1834.99 C 953.491 1836.28 950.944 1837.66 949.739 1838.46 C 937.84 1843.83 921.246 1845.85 908.526 1842.75 C 891.369 1838.57 866.941 1822.9 857.955 1807.53 L 856.323 1804.69 z" fill="rgb(49,66,139)" transform="translate(0,0)"></path>
<path d="M 211.362 1090.75 C 213.902 1093.24 212.557 1102.49 213.089 1106.5 C 216.736 1133.99 224.638 1160.58 239.127 1184.38 C 241.247 1187.86 242.712 1189.6 238.241 1187.76 L 236.883 1186.87 C 205.138 1163.27 194.991 1127.2 211.362 1090.75 z" fill="rgb(49,66,139)" transform="translate(0,0)"></path>
<path d="M 1124.72 202.411 C 1152.88 200.386 1178.97 220.287 1193.85 242.649 C 1186.62 238.1 1179.22 233.812 1171.67 229.792 C 1158.12 223.802 1150.91 220.738 1135.99 217.254 C 1132.99 216.561 1130 215.893 1126.99 215.25 C 1110.58 211.845 1108.67 212.403 1092 212.694 L 1093.62 211.85 C 1106.63 204.93 1110.38 203.724 1124.72 202.411 z" fill="rgb(49,66,139)" transform="translate(0,0)"></path>
<path d="M 228.289 921.731 C 228.531 921.759 232.006 921.92 231.94 922.629 C 231.421 928.262 227.982 933.127 227.034 939.502 C 225.252 949.678 225.438 960.438 227.754 970.515 C 227.99 971.539 230.043 978.88 228.563 979.361 C 227.956 979.09 227.505 978.568 227.012 978.094 C 216.351 960.805 208.106 935.855 228.289 921.731 z" fill="rgb(58,74,148)" transform="translate(0,0)"></path>
<path d="M 918.89 1814.7 L 919.852 1815.14 C 936.658 1823.1 949.851 1823.57 967.508 1819.1 L 971.008 1818.34 L 972.503 1818.02 C 974.265 1817.64 978.771 1816.78 975.524 1819.99 L 974.271 1821.27 C 957.703 1832.41 943.407 1835.33 924.966 1826.01 C 921.834 1821.42 920.947 1819.83 918.89 1814.7 z" fill="rgb(49,66,139)" transform="translate(0,0)"></path>
<path d="M 937.684 215.173 C 955.987 214.02 964.891 219.188 978.419 230.516 L 979.636 231.515 C 973.601 229.865 967.208 227.716 961.449 226.242 C 960.749 226.119 960.05 225.991 959.352 225.856 C 947.948 223.62 936.157 224.395 925.568 229.229 C 924.746 229.604 922.353 230.745 921.455 230.71 C 920.616 229.434 922.144 225.075 922.705 223.968 C 925.394 218.667 932.554 216.775 937.684 215.173 z" fill="rgb(58,74,148)" transform="translate(0,0)"></path>
<path d="M 1819.68 974.459 C 1824.57 952.963 1823.67 943.262 1817.12 923.18 C 1817.02 922.901 1818.24 922.276 1818.47 922.438 C 1833.07 924.677 1832.75 945.16 1831.24 956.008 C 1830.12 964.089 1826.68 969.741 1822.5 976.376 L 1819.68 974.459 z" fill="rgb(49,66,139)" transform="translate(0,0)"></path>
<path d="M 1128.13 1815.2 C 1130.6 1817.3 1125.12 1823.99 1123.16 1825.24 C 1107.92 1834.94 1092.48 1831.24 1078.23 1822.56 C 1074.85 1819.91 1073.18 1818.63 1069.93 1815.68 C 1091.25 1820.68 1105.98 1826.04 1128.13 1815.2 z" fill="rgb(49,66,139)" transform="translate(0,0)"></path>
<path d="M 228.464 1068.74 C 230.761 1072.5 221.404 1098 225.719 1106.01 C 226.002 1106.54 231.59 1123.63 230.707 1124.56 C 229.822 1124.78 226.771 1124.22 225.89 1124.1 C 208.583 1113.28 216.785 1080.8 228.464 1068.74 z" fill="rgb(49,66,139)" transform="translate(0,0)"></path>
<path d="M 1823.83 1072.22 C 1832.08 1090.06 1835.24 1096.68 1829.99 1116.67 C 1827.7 1119.12 1822.21 1125.36 1818.29 1124.43 C 1817.78 1123.69 1820.92 1114.09 1821.3 1112.53 C 1824.6 1099.04 1822.44 1087.37 1820.55 1074.04 L 1823.83 1072.22 z" fill="rgb(58,74,148)" transform="translate(0,0)"></path>
<path d="M 1099.55 216.289 C 1108.16 215.344 1121.08 215.215 1126.17 224.004 C 1127.25 225.868 1130.39 233.135 1125.03 230.021 C 1117.7 225.757 1110.84 224.856 1102.6 224.056 C 1087.09 225.365 1084.01 226.69 1069.03 230.95 C 1081.16 221.442 1084.39 218.507 1099.55 216.289 z" fill="rgb(58,74,148)" transform="translate(0,0)"></path>
<path d="M 778.009 1772.71 C 783.959 1771.08 790.115 1774.52 791.853 1780.43 C 793.592 1786.35 790.273 1792.57 784.389 1794.42 C 780.482 1795.65 776.217 1794.67 773.235 1791.87 C 770.253 1789.06 769.019 1784.86 770.01 1780.89 C 771 1776.91 774.059 1773.78 778.009 1772.71 z" fill="rgb(49,66,139)" transform="translate(0,0)"></path>
<path d="M 1266.48 1772.49 C 1272.48 1771.21 1278.41 1775 1279.77 1780.99 C 1281.13 1786.98 1277.42 1792.95 1271.45 1794.4 C 1267.51 1795.35 1263.37 1794.11 1260.6 1791.15 C 1257.84 1788.19 1256.88 1783.97 1258.09 1780.11 C 1259.31 1776.24 1262.51 1773.33 1266.48 1772.49 z" fill="rgb(49,66,139)" transform="translate(0,0)"></path>
<path d="M 259.753 1256.4 C 263.525 1254.91 267.807 1255.58 270.945 1258.14 C 274.083 1260.71 275.586 1264.78 274.873 1268.77 C 274.16 1272.76 271.343 1276.05 267.51 1277.38 C 261.759 1279.36 255.476 1276.39 253.366 1270.68 C 251.257 1264.98 254.094 1258.63 259.753 1256.4 z" fill="rgb(49,66,139)" transform="translate(0,0)"></path>
<path d="M 781.014 250.5 C 787.126 250.718 791.928 255.81 791.787 261.924 C 791.647 268.038 786.617 272.904 780.501 272.841 C 776.475 272.8 772.783 270.596 770.835 267.073 C 768.888 263.549 768.986 259.25 771.094 255.819 C 773.201 252.388 776.991 250.356 781.014 250.5 z" fill="rgb(49,66,139)" transform="translate(0,0)"></path>
<path d="M 260.547 768.712 C 266.488 767.116 272.601 770.627 274.217 776.563 C 275.833 782.499 272.343 788.624 266.412 790.26 C 260.453 791.904 254.292 788.393 252.669 782.428 C 251.045 776.464 254.577 770.315 260.547 768.712 z" fill="rgb(49,66,139)" transform="translate(0,0)"></path>
<path d="M 1265.5 251.107 C 1269.41 250.107 1273.56 251.305 1276.34 254.238 C 1279.11 257.17 1280.09 261.377 1278.88 265.232 C 1277.67 269.086 1274.47 271.983 1270.51 272.802 C 1264.59 274.029 1258.76 270.3 1257.4 264.405 C 1256.04 258.509 1259.63 252.604 1265.5 251.107 z" fill="rgb(49,66,139)" transform="translate(0,0)"></path>
<path d="M 1784.62 768.519 C 1790.53 767.996 1795.8 772.234 1796.56 778.12 C 1797.32 784.006 1793.29 789.44 1787.44 790.429 C 1783.44 791.105 1779.4 789.539 1776.89 786.348 C 1774.39 783.158 1773.84 778.854 1775.45 775.135 C 1777.06 771.416 1780.58 768.877 1784.62 768.519 z" fill="rgb(49,66,139)" transform="translate(0,0)"></path>
<path d="M 1783.47 1255.7 C 1789.32 1254.71 1794.89 1258.59 1795.98 1264.43 C 1797.08 1270.26 1793.31 1275.9 1787.49 1277.11 C 1783.63 1277.92 1779.64 1276.57 1777.05 1273.6 C 1774.46 1270.62 1773.68 1266.48 1775.01 1262.77 C 1776.34 1259.05 1779.58 1256.35 1783.47 1255.7 z" fill="rgb(49,66,139)" transform="translate(0,0)"></path>
<path d="M 228.497 1049.28 C 229.801 1047.49 236.598 1041.1 239.082 1040.26 C 239.169 1040.3 239.256 1040.35 239.344 1040.4 C 239.516 1041.31 230.67 1050.14 229.429 1051.36 L 228.497 1049.28 z" fill="rgb(212,212,212)" transform="translate(0,0)"></path>
<path d="M 1814.14 1000.13 C 1817.1 997.251 1820.24 994.098 1823.3 991.357 L 1826.2 992.187 C 1821.91 996.265 1819.36 997.22 1814.14 1000.13 z" fill="rgb(129,137,175)" transform="translate(0,0)"></path>
<path d="M 228.666 812.957 C 229.797 811.742 231.646 809.769 233.346 809.652 C 234.503 810.594 231.09 815.493 230.495 816.4 L 228.666 812.957 z" fill="rgb(58,74,148)" transform="translate(0,0)"></path>
<path d="M 1100.13 1837.39 C 1099.27 1836.92 1094.33 1834.59 1094.37 1833.43 C 1095.59 1832.38 1099.87 1833.26 1101.3 1833.54 L 1100.13 1837.39 z" fill="rgb(58,74,148)" transform="translate(0,0)"></path>
<path d="M 1053.32 228.122 C 1052.84 228.666 1047.86 235.232 1047.36 235.154 L 1047.22 234.815 C 1047.77 231.483 1049.87 228.715 1052.1 226.304 L 1053.32 228.122 z" fill="rgb(104,113,158)" transform="translate(0,0)"></path>
<path d="M 226.973 993.048 C 234.442 998.636 234.86 1001.34 226.035 995.549 L 226.973 993.048 z" fill="rgb(129,137,175)" transform="translate(0,0)"></path>
<path d="M 1820.55 1074.04 C 1820.43 1073.18 1819.36 1068.12 1820.72 1067.63 C 1821.9 1068.01 1823.28 1071.22 1823.83 1072.22 L 1820.55 1074.04 z" fill="rgb(58,74,148)" transform="translate(0,0)"></path>
<path d="M 1050.55 1818.51 C 1045.9 1812.13 1045.97 1809.95 1052.25 1816.68 L 1050.55 1818.51 z" fill="rgb(104,113,158)" transform="translate(0,0)"></path>
<path d="M 995.806 1817.51 C 996.08 1817.05 998.327 1812.72 999.405 1813.66 C 999.952 1815.16 997.955 1818.21 997.348 1819.43 L 995.806 1817.51 z" fill="rgb(104,113,158)" transform="translate(0,0)"></path>
<path d="M 1819.68 974.459 L 1822.5 976.376 C 1822 977.098 1820.26 980.2 1819.47 980.322 C 1818.44 979.397 1819.48 975.613 1819.68 974.459 z" fill="rgb(58,74,148)" transform="translate(0,0)"></path>
<path d="M 1800.59 1027.66 C 1799.58 1027.28 1796.93 1026.7 1796.48 1025.61 C 1796.92 1024.71 1800.5 1025.08 1801.09 1025.09 L 1800.59 1027.66 z" fill="rgb(104,113,158)" transform="translate(0,0)"></path>
<metadata><recraft-signature>{"signed_by": "recraft", "signature_b64": "0X6pKH3L1T9qcbU1HyPku+qVlKKfRq+nn/ApmVY7yVzRaqIdbQaDE3G26ElEFKMOQndgrv3pcUrJeQ5MJsBiAw==", "signing_algo": "Ed25519", "generation_timestamp": 1772546691, "identifier": "650f2922-000c-4ea3-ad55-40f8a90d7c78"}</recraft-signature></metadata></svg>