<svg xmlns="http://www.w3.org/2000/svg" height="1024" preserveAspectRatio="none" style="display: block;" version="1.1" viewBox="0 0 2048 2048" width="1024">
<path d="M 0 0 L 2048 0 L 2048 2048 L 0 2048 L 0 0 z" fill="rgb(248,248,247)" transform="translate(0,0)"></path>
<path d="M 253.483 1639.25 C 239.831 1638.61 229.54 1637.42 214.673 1640.35 C 198.135 1643.61 175.976 1667.02 197.711 1680.04 C 203.994 1683.81 214.25 1672.29 219.717 1669.69 C 234.82 1662.5 244.278 1683.24 239.456 1695.39 C 234.527 1708.43 215.673 1714.98 203.26 1709.73 C 194.509 1706.13 187.652 1699.04 184.334 1690.18 C 180.692 1680.17 181.608 1668.54 186.099 1658.96 C 214.759 1597.83 321.542 1655.46 347.726 1641.85 C 355.417 1637.85 340.651 1620.84 345.196 1609.03 C 346.606 1605.37 349.952 1602.58 353.51 1601.12 C 359.057 1598.85 365.77 1598.83 371.261 1601.3 C 376.107 1603.47 378.691 1607.33 380.413 1612.26 C 382.243 1617.35 381.826 1622.97 379.265 1627.73 C 372.563 1640.05 356.134 1644.06 343.803 1647.55 L 344.971 1704.95 L 347.349 1708.79 C 350.935 1699.45 355.556 1689.34 365.532 1685.14 C 371.922 1682.45 382.543 1682.93 389.08 1685.88 C 397.221 1689.56 401.898 1697.03 404.93 1705.81 C 415.204 1735.57 394.051 1801.74 424.109 1821 C 428.246 1823.65 436.183 1824.53 441.348 1823.31 C 449.963 1815.9 433.48 1799.14 443.961 1791.57 C 465.951 1775.7 484.706 1810.26 464.342 1820.42 C 421.458 1841.84 375.943 1815.15 373.416 1766.86 C 372.135 1742.37 375.062 1724.59 370.77 1701.71 C 370.04 1698.73 367.319 1697.72 364.933 1697.01 C 343.734 1700.66 339.878 1763.1 348.327 1777.79 C 345.138 1779.93 311.072 1778.96 304.443 1778.91 L 302.527 1779.17 C 288.457 1778.11 256.464 1778.88 241.213 1778.83 C 252.766 1767.35 253.281 1762.73 253.481 1746.75 C 253.587 1738.33 253.675 1729.49 253.732 1721.01 C 254.1 1693.76 254.016 1666.5 253.483 1639.25 z" fill="rgb(20,11,123)" transform="translate(0,0)"></path>
<path d="M 300.987 1777.16 C 296.022 1773.36 289.823 1767.09 289.783 1760.83 C 289.645 1739.46 286.648 1658.2 290.629 1642.37 C 305.893 1642.36 321.953 1647.33 343.034 1647.22 C 327.631 1655.41 321.744 1657.75 304.309 1658.35 C 308.741 1662.24 311.121 1664.02 311.075 1670.41 C 310.839 1702.72 312.319 1735.32 310.514 1767.54 C 310.33 1770.83 308.768 1774.49 306.488 1776.83 L 304.443 1778.91 L 302.527 1779.17 L 300.987 1777.16 z" fill="rgb(248,248,247)" transform="translate(0,0)"></path>
<path d="M 300.987 1777.16 L 306.488 1776.83 L 304.443 1778.91 L 302.527 1779.17 L 300.987 1777.16 z" fill="rgb(149,149,185)" transform="translate(0,0)"></path>
<path d="M 344.971 1704.95 L 347.349 1708.79 L 346.505 1710.65 C 346.186 1711.37 345.953 1712 345.392 1712.52 C 344.55 1711.63 344.951 1706.27 344.971 1704.95 z" fill="rgb(219,217,224)" transform="translate(0,0)"></path>
<path d="M 1018.07 899.769 C 1018.42 898.679 1018.65 897.516 1019.52 896.806 C 1020.94 896.981 1019.37 909.204 1019.18 910.48 C 1019 977.644 987.245 1134.88 938.696 1182.81 C 913.599 1207.25 879.939 1220.91 844.906 1220.87 C 814.851 1220.62 759.566 1207.7 727.542 1201.57 L 728.828 1199.02 C 753.933 1199.2 781.165 1195.34 804.709 1186.62 C 871.153 1162.02 941.106 1053.82 974.027 992.477 C 990.259 962.231 1003.66 930.876 1018.07 899.769 z" fill="rgb(20,11,123)" transform="translate(0,0)"></path>
<path d="M 1018.07 899.769 C 1018.42 898.679 1018.65 897.516 1019.52 896.806 C 1020.94 896.981 1019.37 909.204 1019.18 910.48 C 1018.82 906.561 1018.76 903.689 1018.07 899.769 z" fill="rgb(46,46,161)" transform="translate(0,0)"></path>
<path d="M 1028.9 821.645 C 1029.11 801.977 1031.73 782.003 1034.13 762.501 C 1041.94 699.098 1067.23 576.377 1119.48 536.058 C 1188.52 482.772 1250.09 516.362 1326.07 526.256 L 1326.11 528.129 C 1323.03 528.227 1321.84 528.357 1318.8 528.883 C 1260.4 529.357 1224.25 539.738 1183.02 582.865 C 1116.52 652.435 1070.39 735.396 1032.13 822.727 L 1028.9 821.645 z" fill="rgb(20,11,123)" transform="translate(0,0)"></path>
<path d="M 723.267 526.313 C 796.512 515.708 859.858 483.603 927.08 534.613 C 936.954 542.106 947.714 552.314 954.33 563.133 C 987.533 617.437 1004.12 693.382 1013.8 755.926 C 1016.38 772.613 1021.12 814.49 1021.01 829.936 C 1006.21 801.193 990.373 764.383 976.135 737.406 C 947.701 683.533 886.875 594.111 838.646 558.601 C 827.077 549.967 814.137 543.341 800.369 539.001 C 782.022 533.122 752.617 528.792 733.232 528.906 C 730.266 528.287 723.686 528.68 723.267 526.313 z" fill="rgb(20,11,123)" transform="translate(0,0)"></path>
<path d="M 1028.61 905.812 C 1028.2 901.916 1028.17 901.201 1028.41 897.297 L 1029.23 897.263 L 1031.56 901.628 L 1032.23 902.857 C 1037.49 912.608 1042.1 923.987 1046.62 934.24 C 1081.55 1013.51 1128.06 1087.64 1188.94 1149.56 C 1223.1 1184.3 1261.3 1196.66 1309.6 1199.11 C 1313.39 1199.85 1322.14 1199.13 1322.96 1201.72 C 1289.58 1206.49 1242.78 1218.62 1211.97 1220.51 C 1176.21 1222.64 1141.06 1210.55 1114.18 1186.86 C 1058.91 1137.78 1032.89 977.139 1028.61 905.812 z" fill="rgb(20,11,123)" transform="translate(0,0)"></path>
<path d="M 1326.94 562.037 C 1327.62 559.362 1327.24 557.081 1329.74 556.037 C 1333.29 575.784 1337.23 595.46 1341.55 615.054 C 1352.25 664.789 1359.45 701.391 1328.3 747.291 C 1320.96 758.104 1309.49 770.804 1298.12 778.097 C 1242.25 813.942 1166.8 828.808 1102.55 841.88 C 1087.46 844.95 1071.56 846.003 1056.83 848.578 L 1057.2 844.705 C 1137.69 803.393 1247.13 739.317 1300.91 662.846 C 1315.1 642.674 1327.53 587.581 1326.94 562.037 z" fill="rgb(20,11,123)" transform="translate(0,0)"></path>
<path d="M 718.925 563.531 L 722.17 564.919 C 723.233 578.997 725.11 593.001 727.791 606.862 C 730.877 622.565 739.27 650.778 748.644 664.605 C 793.394 730.611 872.127 775.592 938.931 816.035 C 957.497 827.276 981.536 837.876 998.053 849.101 L 998.91 849.695 C 964.546 845.179 930.409 839.071 896.61 831.391 C 833.209 817.009 752.576 798.709 715.387 740.079 C 682.672 688.502 706.244 619.399 718.925 563.531 z" fill="rgb(20,11,123)" transform="translate(0,0)"></path>
<path d="M 985.468 877.807 C 987.415 877.446 997.509 875.734 998.597 876.838 C 998.724 878.307 995.711 879.089 994.698 879.431 C 918.5 915.428 844.036 963.289 781.974 1020.4 C 739.067 1059.89 725.008 1104.74 721.99 1161.98 L 718.677 1161.22 C 713.266 1116.19 691.493 1075.23 699.7 1026.92 C 713.863 943.555 795.586 918.714 866.838 900.932 C 904.111 891.631 947.057 880.683 985.468 877.807 z" fill="rgb(20,11,123)" transform="translate(0,0)"></path>
<path d="M 985.468 877.807 C 987.415 877.446 997.509 875.734 998.597 876.838 C 998.724 878.307 995.711 879.089 994.698 879.431 C 991.076 877.867 989.481 878.218 985.468 877.807 z" fill="rgb(46,46,161)" transform="translate(0,0)"></path>
<path d="M 1057.09 877.077 C 1108.12 880.22 1234.63 911.437 1278.93 934.872 C 1295.14 943.326 1309.64 954.724 1321.68 968.484 C 1376.73 1031.3 1337.76 1098.92 1329.68 1167.65 C 1329.38 1171.64 1328.8 1175.59 1328.04 1179.51 C 1327.28 1171.54 1326.65 1167.15 1327.09 1158.96 C 1327.16 1132.18 1313.2 1076.27 1296.4 1055.01 C 1238.21 981.403 1139.95 922.027 1057.09 880.011 L 1057.09 877.077 z" fill="rgb(20,11,123)" transform="translate(0,0)"></path>
<path d="M 1327.09 1158.96 C 1327.58 1161.58 1327.2 1167.37 1329.68 1167.65 C 1329.38 1171.64 1328.8 1175.59 1328.04 1179.51 C 1327.28 1171.54 1326.65 1167.15 1327.09 1158.96 z" fill="rgb(149,149,185)" transform="translate(0,0)"></path>
<path d="M 1022.89 1057.92 L 1024.84 1058.03 C 1026.98 1074.79 1029.49 1091.5 1032.34 1108.15 C 1038.47 1143.82 1044.87 1173.62 1075.15 1197.24 C 1096.35 1213.79 1127.72 1224.28 1153.95 1230.42 C 1156.9 1230.8 1159.81 1231.18 1162.7 1231.87 L 1160.25 1233.44 C 1154.09 1232.53 1144.61 1233.04 1137.93 1232.88 C 1107.95 1235.49 1078.1 1242.62 1058.05 1267.05 C 1027.1 1304.74 1028.16 1370.11 1026.83 1416.49 C 1026.23 1437.27 1024.75 1459.37 1025.01 1479.88 L 1022.72 1482.61 C 1022.77 1480.9 1022.79 1479.19 1022.8 1477.48 C 1022.86 1455.79 1021.15 1433.25 1020.81 1411.66 C 1019.19 1311.61 1015.57 1231.77 893.915 1233.08 L 892.895 1230.36 C 921.99 1223.23 948.038 1216.69 972.661 1198.27 C 1012.89 1168.19 1016.95 1105.12 1022.89 1057.92 z" fill="rgb(20,11,123)" transform="translate(0,0)"></path>
<path d="M 1153.95 1230.42 C 1156.9 1230.8 1159.81 1231.18 1162.7 1231.87 L 1160.25 1233.44 C 1154.09 1232.53 1144.61 1233.04 1137.93 1232.88 C 1145.06 1231.22 1149.28 1233.02 1153.95 1230.42 z" fill="rgb(72,66,138)" transform="translate(0,0)"></path>
<path d="M 1022.95 222.141 L 1025.07 222.166 L 1027.53 314.699 C 1028.97 364.373 1025.76 429.049 1063.44 466.798 C 1082.61 486.006 1115.78 494.657 1142.24 495.309 C 1148.62 494.753 1155.84 495.358 1162.89 494.763 C 1165.32 495.115 1167.76 495.411 1170.21 495.651 C 1166.2 496.21 1162.31 496.944 1158.27 497.489 L 1157.78 497.55 C 1119.12 504.702 1079.31 512.421 1055.83 547.221 C 1038.16 573.401 1033.9 605.321 1029.11 635.897 C 1027.87 643.861 1025.34 659.273 1024.92 667.089 L 1022.96 667.948 C 1019.39 634.186 1012.88 575.758 993.977 548.363 C 970.48 514.319 931.051 505.265 893.594 497.879 L 892.806 494.984 C 1021.04 496.381 1019.53 407.931 1020.71 306.1 C 1021.03 278.545 1022.53 249.88 1022.95 222.141 z" fill="rgb(20,11,123)" transform="translate(0,0)"></path>
<path d="M 1162.89 494.763 C 1165.32 495.115 1167.76 495.411 1170.21 495.651 C 1166.2 496.21 1162.31 496.944 1158.27 497.489 L 1157.78 497.55 C 1151.76 494.336 1146.15 497.906 1142.24 495.309 C 1148.62 494.753 1155.84 495.358 1162.89 494.763 z" fill="rgb(72,66,138)" transform="translate(0,0)"></path>
<path d="M 1356.77 734.268 L 1358.51 736.727 C 1351.73 758.94 1352.94 788.345 1364.32 808.942 C 1392.58 860.104 1462.66 859.482 1513.56 861.723 C 1525.85 862.263 1538.76 863.284 1551.11 863.101 L 1551.17 865.022 C 1534.55 865.064 1517.88 866.788 1501.41 866.981 C 1442.66 867.668 1356.28 878.908 1356.67 955.908 C 1356.65 960.641 1356.9 965.372 1357.4 970.078 C 1356.77 973.144 1356.64 973.96 1355.47 976.81 C 1334.85 930.362 1313.3 897.428 1262.23 882.283 C 1230.43 872.851 1197.66 868.791 1164.99 864.318 L 1165.71 862.28 C 1201.57 858.594 1247.18 853.082 1280.38 838.688 C 1325.24 819.235 1340.67 777.477 1356.77 734.268 z" fill="rgb(20,11,123)" transform="translate(0,0)"></path>
<path d="M 693.519 736.749 C 710.795 781.166 722.791 818.695 769.721 838.897 C 797.436 850.827 824.229 853.681 853.684 858.518 C 858.89 859.372 877.499 862.141 882.532 861.881 C 883.913 862.573 885.29 863.274 886.663 863.983 C 850.276 867.917 789.023 876.297 757.528 893.935 C 744.773 901.219 733.496 910.83 724.283 922.269 C 709.407 940.554 699.386 964.622 689.585 986.113 C 694.172 960.017 696.062 934.271 679.214 911.507 C 642.033 861.271 568.52 869.916 513.379 865.338 C 508.545 864.939 502.667 864.742 498.001 865.011 L 496.727 862.978 C 511.057 863.468 526.088 861.138 540.252 861.155 C 620.566 861.25 714.489 844.188 691.521 738.501 L 693.519 736.749 z" fill="rgb(20,11,123)" transform="translate(0,0)"></path>
<path d="M 804.374 1706.22 C 806.098 1702.55 809.045 1696.52 811.419 1693.43 C 816.165 1687.25 823.252 1683.3 831.006 1682.52 C 858.751 1679.59 862.378 1719.33 834.906 1718.89 C 822.392 1718.69 824.743 1701.71 818.965 1695.82 C 811.793 1695.2 807.575 1711.43 806.101 1717.21 C 804.605 1724.58 804.312 1733.51 804.288 1741.12 C 804.242 1756.02 801.788 1766.11 810.807 1778.9 C 797.53 1778.91 739.58 1780.4 731.146 1777.49 C 728.34 1774.89 728.105 1772.41 727.06 1768.68 C 706.351 1790.07 661.911 1784.25 666.016 1749.06 C 669.156 1722.14 706.656 1724.79 722.377 1713.04 C 734.803 1703.75 723.628 1688.2 708.623 1687.64 C 699.593 1691.64 707.06 1706.11 701.971 1713.23 C 691.509 1727.88 663.362 1710.81 677.474 1693.35 C 683.514 1685.88 685.562 1685.08 695.006 1683.18 C 733.637 1680.94 754.151 1703.13 758.941 1739.69 C 759.997 1747.74 756.453 1774.67 766.266 1776.21 C 767.344 1775.34 767.609 1775.21 768.549 1773.99 C 773.88 1767.08 771.832 1712.5 770.873 1701.99 C 769.117 1699.14 766.662 1695.96 764.64 1693.2 C 781.687 1692.77 788.553 1690 804.356 1683.11 L 804.374 1706.22 z" fill="rgb(20,11,123)" transform="translate(0,0)"></path>
<path d="M 726.046 1721.2 C 728.274 1723.16 726.316 1743.06 726.951 1747 C 729.18 1760.84 722.283 1780.93 704.114 1771.67 C 698.811 1763.41 697.288 1755.3 699.76 1745.48 C 703.432 1730.9 714.178 1727.77 726.046 1721.2 z" fill="rgb(248,248,247)" transform="translate(0,0)"></path>
<path d="M 1622.29 1648.94 C 1663.45 1649.42 1662.17 1681.02 1661.91 1712.16 L 1661.74 1748.64 C 1661.74 1759.73 1660.82 1768.66 1666.44 1778.46 C 1660.16 1779.51 1646.1 1779.08 1639.19 1779.11 L 1590.64 1779.39 C 1588.02 1775.45 1587.03 1772.78 1585.21 1768.51 C 1579.75 1774.27 1574.77 1777.71 1566.99 1779.83 C 1557.26 1782.49 1545.27 1781.8 1536.51 1776.47 C 1530.47 1772.79 1526.08 1767.41 1524.74 1760.37 C 1516.53 1717.18 1572.32 1728.89 1584.03 1711.42 C 1584.22 1711.13 1584.4 1710.85 1584.59 1710.56 C 1585.48 1704.87 1586.41 1700.13 1582.98 1695 C 1579.49 1689.77 1568.7 1685.05 1563.17 1689.13 C 1560.79 1693.6 1563.42 1700.83 1563.39 1705.97 C 1564.94 1721.12 1541.26 1721.74 1536.22 1712.25 C 1522.06 1685.61 1556.86 1680.81 1573.59 1684.45 C 1600.39 1689.03 1612.26 1711.42 1616.82 1735.77 C 1618.35 1743.93 1614.53 1775.16 1623.95 1775.63 C 1628.8 1772.09 1629.24 1759.65 1628.77 1753.95 C 1626.44 1725.9 1633.97 1673.17 1622.29 1648.94 z" fill="rgb(20,11,123)" transform="translate(0,0)"></path>
<path d="M 1584.34 1720.88 C 1585.81 1722.19 1592.28 1788.82 1562.49 1771.6 L 1562.24 1771.25 C 1557.43 1764.68 1556.28 1759.15 1557.1 1751 C 1559.21 1730 1572.05 1730.98 1584.34 1720.88 z" fill="rgb(248,248,247)" transform="translate(0,0)"></path>
<path d="M 894.443 1660.82 L 897.428 1661.92 C 897.155 1666.37 896.909 1670.81 896.689 1675.26 C 896.788 1678.91 896.768 1682.54 896.873 1686.23 C 904.703 1686.47 912.313 1686.43 920.106 1686.61 L 961.458 1686.1 C 963.545 1691.68 958.888 1692.98 961.672 1701.34 C 966.487 1715.79 972.738 1727.42 979.806 1740.75 C 981.913 1740.45 982.032 1740.89 983.714 1742.24 C 975.257 1765.79 967.346 1791.05 956.222 1813.37 C 949.208 1827.43 931.193 1833.26 917.652 1824.61 C 902.608 1815.01 908.748 1793.85 925.204 1791.48 C 942.322 1789.17 939.135 1811.63 945.886 1817.63 L 947.739 1817.46 C 955.761 1810.61 962.336 1789.7 965.793 1779.45 C 959.218 1766.57 951.957 1752.15 946.213 1738.91 C 942.55 1739.18 942.176 1738.93 938.667 1738.17 C 921.391 1744.47 925.506 1758.48 914.384 1772.17 C 903.838 1785.15 881.839 1783.44 871.525 1772.68 C 859.421 1760.05 864.025 1717.41 864.333 1699.75 C 864.237 1697.72 864.669 1692.04 864.125 1690.61 C 863.274 1688.39 853.808 1691.32 853.133 1688.41 C 852.273 1684.69 863.143 1685.94 864.697 1685.97 C 880.768 1682.54 888.337 1675.63 894.443 1660.82 z" fill="rgb(20,11,123)" transform="translate(0,0)"></path>
<path d="M 896.785 1703.59 C 895.927 1700.24 894.933 1677.46 896.689 1675.26 C 896.788 1678.91 896.768 1682.54 896.873 1686.23 C 904.703 1686.47 912.313 1686.43 920.106 1686.61 L 918.89 1689.77 C 929.889 1703.82 935.584 1719.42 943.781 1735 C 940.144 1736.14 938.001 1735.99 934.185 1736.18 C 918.693 1744.46 923.081 1756.52 913.3 1767.28 C 910.885 1769.93 907.684 1771.9 904.005 1771.96 C 902.327 1771.99 900.949 1771.41 899.778 1770.21 C 894.152 1764.43 897.327 1715.94 896.885 1705.22 C 896.863 1704.68 896.819 1704.13 896.785 1703.59 z" fill="rgb(248,248,247)" transform="translate(0,0)"></path>
<path d="M 896.785 1703.59 C 895.927 1700.24 894.933 1677.46 896.689 1675.26 C 896.788 1678.91 896.768 1682.54 896.873 1686.23 C 904.703 1686.47 912.313 1686.43 920.106 1686.61 L 918.89 1689.77 C 911.856 1689.51 904.016 1689.75 896.825 1689.66 C 896.814 1694.32 896.875 1698.92 896.785 1703.59 z" fill="rgb(46,46,161)" transform="translate(0,0)"></path>
<path d="M 864.333 1699.75 C 864.237 1697.72 864.669 1692.04 864.125 1690.61 C 863.274 1688.39 853.808 1691.32 853.133 1688.41 C 852.273 1684.69 863.143 1685.94 864.697 1685.97 C 865.106 1689.35 866.345 1697.1 864.333 1699.75 z" fill="rgb(46,46,161)" transform="translate(0,0)"></path>
<path d="M 1113.7 1634.39 C 1132.24 1634.04 1153.13 1638.15 1161.42 1657.26 C 1168.84 1674.35 1154.76 1685.41 1138.27 1681.1 C 1132.33 1679.55 1130.84 1672.71 1130.89 1667.03 C 1130.96 1658.37 1138.71 1642.66 1126.08 1638.96 C 1113.98 1636.48 1101.88 1641.07 1099.27 1654.09 C 1096.05 1668.52 1109.81 1678.5 1120.57 1685.39 C 1137.1 1695.98 1156.93 1703.49 1168.12 1720.72 C 1187 1749.8 1164.95 1783.71 1135.36 1793.2 C 1097.25 1805.42 1045.36 1787.43 1057.6 1738.37 C 1064.95 1722.7 1077.58 1715.84 1095.82 1717.03 C 1122.3 1718.75 1142.99 1750.8 1121.59 1771.9 C 1106.73 1786.55 1093.01 1749.21 1079.24 1750.51 C 1061.34 1752.2 1064.44 1772.87 1075.55 1782 C 1097.78 1804.55 1152.75 1787.21 1146.81 1752.44 C 1140.46 1715.31 1078.24 1718.15 1074.05 1676.59 C 1071.26 1648.98 1088.67 1636.74 1113.7 1634.39 z" fill="rgb(20,11,123)" transform="translate(0,0)"></path>
<path d="M 1227.48 1684.18 C 1251.05 1682.57 1270.2 1692.79 1277.4 1716.34 C 1281.5 1729.33 1280.07 1743.43 1273.47 1755.34 C 1262.52 1775 1235.69 1787.54 1215.3 1775.15 L 1214.5 1776 C 1213.18 1783.7 1214.57 1803.38 1215.2 1811.39 C 1216.26 1813.75 1218.56 1817.61 1219.88 1819.98 L 1176.22 1819.96 C 1180.22 1811.39 1181.14 1805.52 1181.11 1796.14 C 1181.03 1765.87 1181.44 1735.46 1180.17 1705.23 C 1179.98 1700.69 1176.65 1698.69 1175.73 1694.57 C 1178.19 1693.26 1188.21 1692.52 1192.03 1691.77 C 1197.17 1690.75 1209.72 1685.14 1213.14 1685.09 L 1213.32 1688.22 L 1214.4 1688.57 C 1220.17 1685.72 1221.09 1685.23 1227.48 1684.18 z" fill="rgb(20,11,123)" transform="translate(0,0)"></path>
<path d="M 1224.07 1688.12 C 1227.84 1688.04 1232.83 1687.75 1235.87 1690.55 C 1242.68 1697.74 1244.22 1715 1244.5 1724.26 C 1244.93 1738.68 1244.96 1764.63 1234.45 1775.25 L 1233.25 1776.49 C 1214.78 1776.88 1211.93 1762.8 1213.62 1747 C 1215.7 1727.63 1205.18 1696.71 1224.07 1688.12 z" fill="rgb(248,248,247)" transform="translate(0,0)"></path>
<path d="M 555.638 1646.48 C 583.356 1648.27 612.545 1643.72 639.745 1649.29 C 656.108 1652.64 670.022 1668.05 669.434 1685.17 C 668.154 1722.46 628.226 1722.63 600.838 1722.33 L 600.716 1734.98 C 600.338 1753.18 597.331 1767.07 613.528 1778.72 C 593.858 1778.85 572.194 1778.57 552.715 1779.8 C 564.768 1768.52 565.216 1760.45 565.161 1744.73 C 565.067 1718.05 565.789 1691.2 564.716 1664.55 C 564.455 1658.09 557.22 1651.22 555.638 1646.48 z" fill="rgb(20,11,123)" transform="translate(0,0)"></path>
<path d="M 606.708 1650.93 C 641.731 1647.75 639.375 1696.13 624.487 1715.32 C 616.575 1720.93 610.657 1719.87 600.834 1719.93 C 600.533 1705.51 598.333 1662.86 605.644 1652.5 L 606.708 1650.93 z" fill="rgb(248,248,247)" transform="translate(0,0)"></path>
<path d="M 1428.53 1684.18 C 1441.9 1682.73 1476.65 1684.77 1471.42 1706.63 C 1468.5 1715.55 1460.73 1723.14 1450.26 1718.96 C 1436.09 1713.31 1454.65 1677.52 1424.77 1690.23 C 1412.44 1695.47 1413.38 1722.96 1417.44 1734.19 C 1424.23 1752.93 1443.77 1764.97 1464.11 1760.46 C 1487.42 1754.8 1482.68 1731.89 1482.69 1713.89 C 1482.7 1705.29 1482.12 1699.96 1476.35 1693.5 C 1493.86 1691.78 1498.38 1690.4 1515.04 1685.4 C 1518.3 1711.27 1510.21 1759.09 1519.9 1778.95 L 1477.29 1779.09 C 1483.93 1770.31 1482.96 1764.66 1482.66 1753.98 C 1473.1 1766.76 1464.64 1774.59 1448.59 1779.04 C 1434.81 1782.83 1420.08 1780.93 1407.7 1773.78 C 1375.22 1754.84 1376.91 1705.86 1410.7 1689.84 C 1417.37 1686.67 1421.47 1685.63 1428.53 1684.18 z" fill="rgb(20,11,123)" transform="translate(0,0)"></path>
<path d="M 1686.27 785.718 C 1688.15 791.328 1689.17 798.041 1690.87 803.908 C 1701.45 840.438 1730.6 860.576 1767.68 863.772 C 1721.04 871.872 1694.76 894.32 1687.12 942.128 L 1686.96 942.11 C 1684.57 940.253 1683.47 930.552 1682.28 926.211 C 1680.02 918.255 1676.74 910.624 1672.52 903.508 C 1658.23 879.4 1634.11 870.435 1608.45 863.978 C 1654.48 856.086 1678.33 831.185 1686.27 785.718 z" fill="rgb(196,173,116)" transform="translate(0,0)"></path>
<path d="M 364.492 790.713 L 366.877 791.031 C 370.562 831.46 405.959 858.99 444.422 863.903 C 429.357 868.361 416.329 870.552 402.936 879.502 C 377.008 896.827 371.065 915.838 365.134 944.32 C 363.255 929.998 359.428 914.786 351.188 902.769 C 333.076 876.353 315.33 870.348 286.286 863.975 C 329.976 859.13 355.528 833.02 364.492 790.713 z" fill="rgb(196,173,116)" transform="translate(0,0)"></path>
<path d="M 453.387 1685.13 C 468.281 1684.23 480.253 1685.07 492.688 1694.35 C 504.844 1703.41 505.824 1713.69 507.981 1727.29 L 439.564 1726.92 C 443.561 1742.94 448.194 1754.67 465.498 1760.01 C 478.138 1763.92 487.701 1764.15 499.606 1758.12 C 500.476 1757.54 505.522 1753.81 506.621 1754.28 C 506.771 1754.8 506.313 1755.6 506.05 1756.01 C 498.836 1767.14 488.472 1775.72 475.431 1778.67 C 460.647 1781.95 445.562 1779.66 432.619 1771.69 C 411.053 1758.41 403.87 1729.24 418.071 1707.99 C 427.108 1694.47 437.703 1688.61 453.387 1685.13 z" fill="rgb(20,11,123)" transform="translate(0,0)"></path>
<path d="M 454.842 1688.11 L 455.745 1688.01 C 478.463 1685.23 479.087 1706.7 479.381 1723.57 C 474.178 1723.62 469.853 1723.47 464.669 1723.23 C 456.256 1722.95 447.837 1722.9 439.422 1723.08 C 440.528 1707.95 440.696 1696.65 454.842 1688.11 z" fill="rgb(248,248,247)" transform="translate(0,0)"></path>
<path d="M 1325.14 1685.32 C 1329.66 1684.24 1334.27 1684.36 1338.85 1684.61 C 1368.5 1688.08 1375.99 1700.53 1381.61 1727.37 C 1361.51 1727.39 1330.94 1725.82 1311.8 1727.11 C 1315.17 1741.71 1318.63 1751.75 1333.15 1758.48 C 1352.84 1767.63 1364.42 1764.37 1381.06 1752.82 C 1365.29 1780.73 1332.3 1789.39 1305.37 1772.31 C 1294.88 1765.76 1287.59 1755.14 1285.25 1743 C 1279.5 1714.43 1297.33 1691.25 1325.14 1685.32 z" fill="rgb(20,11,123)" transform="translate(0,0)"></path>
<path d="M 1325.14 1685.32 C 1329.66 1684.24 1334.27 1684.36 1338.85 1684.61 C 1339.01 1685.65 1339.15 1686.68 1339.28 1687.72 C 1351.2 1695.56 1351.56 1710 1352.04 1722.98 L 1312.63 1723.02 C 1313.25 1708.41 1314.21 1695.96 1327.73 1687.65 C 1326.88 1686.86 1326.01 1686.08 1325.14 1685.32 z" fill="rgb(248,248,247)" transform="translate(0,0)"></path>
<path d="M 1325.14 1685.32 C 1329.66 1684.24 1334.27 1684.36 1338.85 1684.61 C 1339.01 1685.65 1339.15 1686.68 1339.28 1687.72 C 1333.92 1686.51 1332.99 1687.19 1327.73 1687.65 C 1326.88 1686.86 1326.01 1686.08 1325.14 1685.32 z" fill="rgb(46,46,161)" transform="translate(0,0)"></path>
<path d="M 1759.56 1686.21 C 1754.17 1688.45 1744.82 1693.02 1747.42 1700.81 C 1752.88 1717.16 1779.57 1718.96 1792.43 1728.08 C 1798.96 1732.72 1805.14 1737.42 1807.03 1746.01 C 1810.91 1772.22 1777.39 1782.25 1757 1780.84 C 1745.05 1780.02 1730.14 1778.36 1722.41 1768.36 C 1712.49 1755.55 1724.11 1737.94 1739.51 1741.97 C 1747 1743.93 1750.82 1753.23 1748.55 1760.09 C 1738.77 1782.96 1780.58 1783.32 1779.24 1763.48 C 1778.54 1753.12 1762.66 1748.81 1754.7 1744.47 C 1742.22 1737.66 1722.34 1730.14 1720.99 1713.5 C 1720.06 1696.68 1734.96 1685.43 1750.69 1684.92 C 1753.73 1685.28 1756.72 1685.2 1759.56 1686.21 z" fill="rgb(20,11,123)" transform="translate(0,0)"></path>
<path d="M 1138.24 1067.36 C 1144.02 1053.7 1157.66 1017.09 1129.74 1018.86 L 1128.2 1018.97 L 1126.56 1017.28 C 1129.84 1012.27 1131.78 1012.7 1133.62 1006.71 C 1132.78 992.363 1078.1 935.17 1066.24 918.428 C 1070.88 917.631 1134.59 987.472 1146.66 993.306 C 1164.88 1002.11 1166.47 996.796 1170.87 979.884 C 1171.59 981.562 1172.19 982.638 1173.08 984.257 C 1174.09 1006.45 1184.58 1008.65 1204.13 1001.94 C 1197.18 1009.09 1191.52 1014.99 1191.56 1025.97 C 1191.63 1043.59 1208.65 1063.66 1219.2 1076.76 L 1217.63 1078.44 C 1200.25 1064.89 1186.66 1051.89 1164.87 1047.62 C 1152.2 1050.97 1147.04 1058.1 1138.24 1067.36 z" fill="rgb(46,46,161)" transform="translate(0,0)"></path>
<path d="M 879.356 982.969 C 889.244 1009.72 903.177 994.671 917.434 981.096 C 940.888 958.763 962.486 933.529 987.452 912.877 C 967.628 938.536 943.887 962.338 924.393 988.481 C 916.391 999.211 908.203 1009.97 925.004 1017.95 L 924.538 1019.27 C 890.542 1009.81 904.733 1052.79 910.601 1068.15 C 887.539 1037.94 872.268 1046.33 845.843 1067.08 C 837.362 1073.74 828.863 1080.81 820.399 1087.49 C 839.895 1063.53 876.709 1029.45 843.259 1001.66 C 860.354 1007.39 877.538 1008.62 876.785 985.11 C 877.652 984.408 878.509 983.694 879.356 982.969 z" fill="rgb(46,46,161)" transform="translate(0,0)"></path>
<path d="M 1220.17 647.227 L 1221.01 649.125 C 1197.13 676.585 1171.93 709.767 1199.57 744.14 C 1188.3 735.564 1176.69 727.37 1161.69 729.138 C 1138.76 731.84 1089.57 789.188 1070.56 807.59 L 1069.11 806.27 L 1108.49 759.269 C 1115.61 750.645 1123.53 741.89 1129.27 732.311 C 1136.49 720.261 1135.9 713.414 1125.97 704.158 L 1129.09 702.362 C 1150.24 700.826 1150.34 684.816 1143.78 668.131 L 1145.22 664.361 C 1146.36 665.873 1147.51 667.378 1148.67 668.876 C 1153.21 674.72 1155.58 678.485 1163.6 679.273 C 1180.9 680.972 1206.78 658.145 1220.17 647.227 z" fill="rgb(46,46,161)" transform="translate(0,0)"></path>
<path d="M 827.977 647.239 C 839.605 657.708 866.379 679.366 882.296 680.576 C 892.234 681.331 902.271 666.414 907.515 658.783 C 904.206 669.517 894.077 697.338 911.164 701.69 C 915.557 702.81 920.927 700.508 925.411 702.686 C 920.073 707.595 915.263 711.25 914.706 719.008 C 913.507 735.683 965.368 788.583 977.584 804.335 L 975.715 805.25 L 933.652 763.896 C 912.421 742.999 889.794 714.597 858.241 736.77 L 855.241 735.73 C 858.847 729.849 860.951 723.172 861.368 716.286 C 862.619 693.665 841.592 665.318 827.056 648.895 L 827.977 647.239 z" fill="rgb(46,46,161)" transform="translate(0,0)"></path>
<path d="M 1844.59 1661.06 L 1847.02 1662.9 L 1847.03 1685.96 C 1847.02 1687.36 1847.04 1688.54 1847.09 1689.94 C 1847.2 1702.79 1845.67 1762.12 1848.89 1769.25 C 1854.31 1773.84 1860.2 1771.53 1864.72 1766.8 L 1866.66 1768.63 C 1862.07 1774.09 1856.28 1779.56 1849.17 1780.38 C 1813.88 1784.49 1814.47 1759.84 1814.91 1733.69 C 1815.12 1721.32 1815.85 1701.14 1814.12 1690.17 C 1814.23 1688.92 1814.35 1687.66 1814.49 1686.4 C 1829.66 1682.34 1838.54 1675.54 1844.59 1661.06 z" fill="rgb(20,11,123)" transform="translate(0,0)"></path>
<path d="M 1706.62 1685.09 C 1709.51 1687.49 1707.86 1760.74 1707.89 1770.33 C 1709.86 1773.31 1711.93 1776.07 1714.03 1778.97 C 1699.42 1779.05 1684.01 1779.27 1669.45 1779.01 C 1671.04 1776.84 1674.46 1773.51 1674.6 1770.38 C 1675.48 1749.21 1674.93 1727.71 1674.81 1706.48 C 1674.77 1699.75 1671.57 1698.91 1667.32 1694.88 C 1682.05 1692.97 1690.9 1691.56 1704.76 1685.85 L 1706.62 1685.09 z" fill="rgb(20,11,123)" transform="translate(0,0)"></path>
<path d="M 1686.34 1643.57 C 1695.49 1641.01 1705.01 1646.24 1707.78 1655.33 C 1710.54 1664.43 1705.53 1674.06 1696.5 1677.03 C 1690.47 1679.01 1683.85 1677.57 1679.19 1673.27 C 1674.53 1668.97 1672.56 1662.48 1674.04 1656.32 C 1675.53 1650.15 1680.23 1645.28 1686.34 1643.57 z" fill="rgb(20,11,123)" transform="translate(0,0)"></path>
<path d="M 1498.47 1643.2 C 1507.84 1642.74 1515.9 1649.77 1516.71 1659.12 C 1517.53 1668.47 1510.8 1676.79 1501.49 1677.95 C 1495.15 1678.74 1488.88 1676 1485.15 1670.81 C 1481.42 1665.62 1480.83 1658.81 1483.61 1653.05 C 1486.38 1647.3 1492.08 1643.52 1498.47 1643.2 z" fill="rgb(20,11,123)" transform="translate(0,0)"></path>
<path d="M 1772.24 1684.66 C 1780.75 1685.86 1789.22 1688.34 1794.94 1695.55 C 1803.32 1706.17 1793.71 1720.64 1780.54 1716.79 C 1771.58 1714.17 1773.17 1707.58 1774.68 1700 C 1776.61 1690.31 1772.71 1689.47 1764.21 1686.63 C 1767.38 1685 1768.63 1685.27 1772.24 1684.66 z" fill="rgb(20,11,123)" transform="translate(0,0)"></path>
<path d="M 989.115 1687.01 L 1011.95 1686.01 L 1009.37 1688.66 C 1007.51 1690.6 1001.32 1697.36 1000.47 1699.46 C 995.61 1711.56 987.795 1730.11 983.714 1742.24 C 982.032 1740.89 981.913 1740.45 979.806 1740.75 C 981.841 1736.83 984.628 1730.81 985.892 1726.48 C 990.447 1710.9 999.9 1701.65 989.115 1687.01 z" fill="rgb(46,46,161)" transform="translate(0,0)"></path>
<path d="M 1847.03 1685.96 C 1849.42 1686.05 1865.41 1686 1865.99 1686.3 C 1876.16 1691.44 1848.76 1689.87 1847.09 1689.94 C 1847.04 1688.54 1847.02 1687.36 1847.03 1685.96 z" fill="rgb(46,46,161)" transform="translate(0,0)"></path>
<path d="M 1025.01 1479.88 C 1025.26 1487.98 1024.48 1496.86 1024.79 1504.38 C 1024.93 1507.16 1025.43 1513.73 1023.89 1516.09 L 1023.66 1516.22 C 1022.83 1515.95 1023.07 1512.4 1023.08 1512 C 1023.53 1502.22 1022.32 1492.15 1022.72 1482.61 L 1025.01 1479.88 z" fill="rgb(116,113,157)" transform="translate(0,0)"></path>
<path d="M 1023.08 1512 C 1023.52 1508.43 1023.72 1507.81 1024.79 1504.38 C 1024.93 1507.16 1025.43 1513.73 1023.89 1516.09 L 1023.66 1516.22 C 1022.83 1515.95 1023.07 1512.4 1023.08 1512 z" fill="rgb(219,217,224)" transform="translate(0,0)"></path>
<path d="M 1023.04 196.849 L 1025 197.06 C 1024.7 205.337 1025.23 213.817 1025.07 222.166 L 1022.95 222.141 C 1022.54 213.606 1023.2 205.337 1023.04 196.849 z" fill="rgb(116,113,157)" transform="translate(0,0)"></path>
<path d="M 1326.07 526.256 C 1329.78 526.214 1335.13 527.049 1339.25 527.215 C 1340.41 527.145 1344.16 526.857 1344.81 528.221 C 1344.24 529.614 1321.41 529.065 1318.8 528.883 C 1321.84 528.357 1323.03 528.227 1326.11 528.129 L 1326.07 526.256 z" fill="rgb(171,169,186)" transform="translate(0,0)"></path>
<path d="M 1326.07 526.256 C 1329.78 526.214 1335.13 527.049 1339.25 527.215 C 1333.96 528.292 1331.66 528.377 1326.11 528.129 L 1326.07 526.256 z" fill="rgb(116,113,157)" transform="translate(0,0)"></path>
<path d="M 1551.11 863.101 C 1557.45 862.362 1567.72 863.088 1574.22 863.691 L 1574.14 863.74 L 1574.31 863.861 L 1574.33 864.105 C 1572.68 865.007 1554.09 865.166 1551.17 865.022 L 1551.11 863.101 z" fill="rgb(171,169,186)" transform="translate(0,0)"></path>
<path d="M 1309.6 1199.11 C 1319.36 1198.79 1331.06 1198.97 1340.79 1199.27 C 1333.18 1200.61 1330.81 1201.03 1322.96 1201.72 C 1322.14 1199.13 1313.39 1199.85 1309.6 1199.11 z" fill="rgb(116,113,157)" transform="translate(0,0)"></path>
<path d="M 498.001 865.011 C 495.37 865.147 477.713 865.069 476.364 864.193 L 476.441 863.977 C 477.458 863.114 494.406 862.855 496.727 862.978 L 498.001 865.011 z" fill="rgb(171,169,186)" transform="translate(0,0)"></path>
<path d="M 1023.04 196.849 C 1022.93 194.175 1022.84 178.56 1023.51 176.537 C 1023.85 176.573 1024.19 176.609 1024.53 176.645 C 1024.35 183.24 1025.23 190.113 1025 197.06 L 1023.04 196.849 z" fill="rgb(171,169,186)" transform="translate(0,0)"></path>
<path d="M 706.473 528.689 L 707.556 528.503 C 714.158 527.431 716.214 526.862 723.267 526.313 C 723.686 528.68 730.266 528.287 733.232 528.906 C 725.97 529.224 713.863 528.989 706.473 528.689 z" fill="rgb(171,169,186)" transform="translate(0,0)"></path>
<path d="M 1750.69 1684.92 C 1757.44 1683.53 1765.44 1683.68 1772.24 1684.66 C 1768.63 1685.27 1767.38 1685 1764.21 1686.63 C 1761.79 1686.72 1761.82 1686.76 1759.56 1686.21 C 1756.72 1685.2 1753.73 1685.28 1750.69 1684.92 z" fill="rgb(46,46,161)" transform="translate(0,0)"></path>
<path d="M 1814.49 1686.4 C 1814.35 1687.66 1814.23 1688.92 1814.12 1690.17 C 1811.62 1690.24 1808.86 1690.62 1806.41 1689.91 C 1805.54 1689.76 1804.91 1688.45 1805.64 1687.82 C 1807.32 1686.37 1812.34 1686.59 1814.49 1686.4 z" fill="rgb(46,46,161)" transform="translate(0,0)"></path>
<path d="M 1357.4 970.078 C 1358.38 975.619 1359.22 981.153 1360.24 986.72 L 1359.41 985.246 C 1359.26 985.005 1359.12 984.763 1358.97 984.521 C 1357.56 982.07 1356.39 979.487 1355.47 976.81 C 1356.64 973.96 1356.77 973.144 1357.4 970.078 z" fill="rgb(46,46,161)" transform="translate(0,0)"></path>
<path d="M 1327.76 541.404 C 1328.89 546.578 1329.23 550.782 1329.74 556.037 C 1327.24 557.081 1327.62 559.362 1326.94 562.037 C 1326.84 554.932 1327.31 548.457 1327.76 541.404 z" fill="rgb(171,169,186)" transform="translate(0,0)"></path>
<path d="M 1022.96 667.948 L 1024.92 667.089 C 1025 669.004 1025.04 681.473 1023.71 682.077 L 1023.54 681.949 C 1022.79 679.815 1022.73 670.449 1022.96 667.948 z" fill="rgb(149,149,185)" transform="translate(0,0)"></path>
<path d="M 720.787 553.979 L 722.293 555.114 C 722.025 558.743 722.121 561.292 722.17 564.919 L 718.925 563.531 C 719.184 560.751 720.084 556.718 720.787 553.979 z" fill="rgb(72,66,138)" transform="translate(0,0)"></path>
<path d="M 1162.7 1231.87 C 1164.8 1231.9 1173.1 1232.69 1174.27 1234.32 C 1174.38 1235.88 1166.16 1233.71 1164.99 1234.06 C 1164.31 1234.27 1160.99 1233.56 1160.25 1233.44 L 1162.7 1231.87 z" fill="rgb(171,169,186)" transform="translate(0,0)"></path>
<path d="M 718.677 1161.22 L 721.99 1161.98 C 722.03 1163.95 722.103 1164.96 722.353 1166.87 L 721.014 1173.24 C 720.113 1169.26 719.453 1165.22 718.677 1161.22 z" fill="rgb(46,46,161)" transform="translate(0,0)"></path>
<path d="M 1056.83 848.578 C 1055.87 848.75 1050.24 849.827 1049.85 848.549 C 1050.41 847.383 1055.68 845.42 1057.2 844.705 L 1056.83 848.578 z" fill="rgb(46,46,161)" transform="translate(0,0)"></path>
<path d="M 879.354 1232.86 C 881.923 1232.03 884.544 1231.86 887.202 1231.45 L 890.845 1233.4 C 886.164 1234.04 883.764 1234 879.063 1234.12 L 879.354 1232.86 z" fill="rgb(116,113,157)" transform="translate(0,0)"></path>
<path d="M 1022.91 1048.44 C 1023.08 1047.97 1023.24 1047.5 1023.41 1047.03 L 1023.58 1046.95 C 1024.54 1047.32 1024.93 1052.58 1025.06 1053.53 C 1025.04 1055.11 1024.94 1056.46 1024.84 1058.03 L 1022.89 1057.92 C 1022.95 1054.76 1022.95 1051.6 1022.91 1048.44 z" fill="rgb(116,113,157)" transform="translate(0,0)"></path>
<path d="M 1022.91 1048.44 C 1023.08 1047.97 1023.24 1047.5 1023.41 1047.03 L 1023.58 1046.95 C 1024.54 1047.32 1024.93 1052.58 1025.06 1053.53 C 1024.13 1051.58 1023.57 1050.48 1022.91 1048.44 z" fill="rgb(219,217,224)" transform="translate(0,0)"></path>
<path d="M 878.131 493.784 C 881.352 493.896 884.214 493.727 887.249 494.712 L 886.533 496.653 C 883.345 496.291 880.59 495.753 877.458 495.061 L 878.131 493.784 z" fill="rgb(116,113,157)" transform="translate(0,0)"></path>
<path d="M 712.823 1199.75 C 711.797 1199.68 710.859 1199.57 709.887 1199.47 C 711.364 1198.91 719.075 1198.92 720.751 1198.93 L 721.041 1200.89 C 719.028 1200.83 717.017 1200.72 715.009 1200.58 C 713.679 1200.34 713.744 1200.48 712.823 1199.75 z" fill="rgb(116,113,157)" transform="translate(0,0)"></path>
<path d="M 720.751 1198.93 L 728.828 1199.02 L 727.542 1201.57 C 725.248 1201.31 723.392 1201.06 721.041 1200.89 L 720.751 1198.93 z" fill="rgb(46,46,161)" transform="translate(0,0)"></path>
<path d="M 1051.66 878.049 C 1050.69 877.394 1049.36 877.107 1049.73 876.16 C 1051.48 875.534 1054.16 876.181 1055.89 876.635 L 1057.09 877.077 L 1057.09 880.011 C 1055.18 879.252 1053.6 878.682 1051.66 878.049 z" fill="rgb(46,46,161)" transform="translate(0,0)"></path>
<path d="M 1051.66 878.049 C 1050.69 877.394 1049.36 877.107 1049.73 876.16 C 1051.48 875.534 1054.16 876.181 1055.89 876.635 L 1051.66 878.049 z" fill="rgb(72,66,138)" transform="translate(0,0)"></path>
<path d="M 1069.11 806.27 L 1070.56 807.59 C 1068.51 810.248 1063.79 814.613 1061.28 817.075 C 1064.11 812.646 1065.47 810.067 1069.11 806.27 z" fill="rgb(149,149,185)" transform="translate(0,0)"></path>
<path d="M 827.056 648.895 C 825.188 647.209 823.633 647.332 822.572 645.425 L 823.231 643.557 L 822.958 643.539 L 822.927 643.454 C 824.724 642.802 826.034 644.755 827.027 646.053 L 827.977 647.239 L 827.056 648.895 z" fill="rgb(219,217,224)" transform="translate(0,0)"></path>
<path d="M 691.521 738.501 C 691.212 737.051 689.094 730.393 689.812 729.529 C 689.942 729.515 690.072 729.501 690.202 729.487 C 691.412 731.016 692.686 734.759 693.519 736.749 L 691.521 738.501 z" fill="rgb(72,66,138)" transform="translate(0,0)"></path>
<path d="M 882.532 861.881 C 884.901 861.905 892.283 861.966 894.063 863.47 L 894 863.501 L 893.901 863.462 C 891.064 864.205 889.507 864.123 886.663 863.983 C 885.29 863.274 883.913 862.573 882.532 861.881 z" fill="rgb(171,169,186)" transform="translate(0,0)"></path>
<path d="M 1864.72 1766.8 L 1866.09 1764.52 C 1866.69 1763.51 1867.25 1762.22 1868.38 1761.72 C 1870.69 1761.93 1866.92 1768.19 1866.66 1768.63 L 1864.72 1766.8 z" fill="rgb(46,46,161)" transform="translate(0,0)"></path>
<path d="M 1158.52 863.623 C 1158.31 863.318 1158.09 863.013 1157.87 862.708 C 1158.78 862.075 1161.41 862.177 1162.44 862.095 L 1165.71 862.28 L 1164.99 864.318 L 1158.52 863.623 z" fill="rgb(149,149,185)" transform="translate(0,0)"></path>
<path d="M 1158.52 863.623 C 1158.31 863.318 1158.09 863.013 1157.87 862.708 C 1158.78 862.075 1161.41 862.177 1162.44 862.095 C 1160.7 863.14 1160.61 863.042 1158.52 863.623 z" fill="rgb(219,217,224)" transform="translate(0,0)"></path>
<path d="M 720.787 553.979 C 720.833 552.244 720.326 547.584 722.19 546.766 C 723.87 547.2 722.524 553.944 722.293 555.114 L 720.787 553.979 z" fill="rgb(171,169,186)" transform="translate(0,0)"></path>
<path d="M 1844.59 1661.06 C 1846.92 1651.37 1847.48 1657.89 1847.02 1662.9 L 1844.59 1661.06 z" fill="rgb(46,46,161)" transform="translate(0,0)"></path>
<path d="M 977.584 804.335 C 979.723 806.11 980.634 807.809 982.311 810.065 L 980.623 810.415 C 978.934 808.419 977.53 807.086 975.715 805.25 L 977.584 804.335 z" fill="rgb(116,113,157)" transform="translate(0,0)"></path>
<path d="M 1162.89 494.763 C 1164.82 494.379 1172 493.06 1173.46 494.762 C 1173.41 494.815 1173.37 494.868 1173.32 494.921 L 1173.41 495.184 C 1171.75 495.864 1172.2 495.729 1170.21 495.651 C 1167.76 495.411 1165.32 495.115 1162.89 494.763 z" fill="rgb(171,169,186)" transform="translate(0,0)"></path>
<path d="M 887.249 494.712 C 889.1 494.822 890.953 494.913 892.806 494.984 L 893.594 497.879 C 891.195 497.4 888.949 497.024 886.533 496.653 L 887.249 494.712 z" fill="rgb(46,46,161)" transform="translate(0,0)"></path>
<path d="M 722.353 1166.87 C 722.462 1167.79 724.007 1177.45 721.461 1177.05 C 720.591 1175.21 720.959 1175.44 721.014 1173.24 L 722.353 1166.87 z" fill="rgb(171,169,186)" transform="translate(0,0)"></path>
<path d="M 364.492 790.713 C 364.608 789.395 364.495 784.331 365.642 783.737 C 367.193 784.296 366.861 790.029 366.877 791.031 L 364.492 790.713 z" fill="rgb(219,217,224)" transform="translate(0,0)"></path>
<path d="M 855.241 735.73 L 858.241 736.77 C 857.149 737.725 853.768 741.114 852.659 741.302 C 851.627 740.284 854.643 736.634 855.241 735.73 z" fill="rgb(72,66,138)" transform="translate(0,0)"></path>
<path d="M 894.443 1660.82 C 896.324 1654.28 896.672 1654.88 897.428 1661.92 L 894.443 1660.82 z" fill="rgb(46,46,161)" transform="translate(0,0)"></path>
<path d="M 1356.77 734.268 C 1357.48 732.376 1358.07 730.098 1359.31 728.507 L 1359.53 728.437 C 1360.6 728.981 1358.71 735.739 1358.51 736.727 L 1356.77 734.268 z" fill="rgb(149,149,185)" transform="translate(0,0)"></path>
<path d="M 1143.78 668.131 C 1143.3 666.699 1141.18 661.686 1141.86 660.508 C 1143.09 660.279 1144.62 663.299 1145.22 664.361 L 1143.78 668.131 z" fill="rgb(72,66,138)" transform="translate(0,0)"></path>
<path d="M 1220.17 647.227 C 1220.97 646.374 1223.83 642.895 1225.22 642.796 C 1225.33 642.788 1225.43 642.904 1225.45 643.007 C 1225.64 644.117 1224 645.758 1223.46 646.476 C 1223.16 646.881 1222.21 647.835 1221.87 648.198 L 1221.01 649.125 L 1220.17 647.227 z" fill="rgb(149,149,185)" transform="translate(0,0)"></path>
<path d="M 1028.9 821.645 L 1032.13 822.727 C 1031.74 823.447 1029.96 827.508 1028.71 827.377 C 1028.07 826.351 1028.78 822.725 1028.9 821.645 z" fill="rgb(46,46,161)" transform="translate(0,0)"></path>
<path d="M 1121.86 702.235 C 1114.04 698.361 1117.42 697.069 1122.49 700.603 L 1121.86 702.235 z" fill="rgb(149,149,185)" transform="translate(0,0)"></path>
<path d="M 1122.49 700.603 C 1124.75 701.25 1126.8 701.822 1129.09 702.362 L 1125.97 704.158 C 1124.61 703.494 1123.24 702.853 1121.86 702.235 L 1122.49 700.603 z" fill="rgb(20,11,123)" transform="translate(0,0)"></path>
<path d="M 876.785 985.11 C 876.99 981.679 877.789 974.67 879.356 982.969 C 878.509 983.694 877.652 984.408 876.785 985.11 z" fill="rgb(72,66,138)" transform="translate(0,0)"></path>
<path d="M 887.202 1231.45 C 889.17 1231.03 890.898 1230.64 892.895 1230.36 L 893.915 1233.08 C 892.862 1233.16 891.892 1233.28 890.845 1233.4 L 887.202 1231.45 z" fill="rgb(46,46,161)" transform="translate(0,0)"></path>
<path d="M 1219.2 1076.76 C 1220.46 1078.16 1221.54 1079.63 1222.88 1080.97 L 1221.18 1082.03 C 1219.64 1080.26 1219.38 1079.99 1217.63 1078.44 L 1219.2 1076.76 z" fill="rgb(116,113,157)" transform="translate(0,0)"></path>
<path d="M 925.004 1017.95 C 931.609 1020.35 931.086 1022.44 924.538 1019.27 L 925.004 1017.95 z" fill="rgb(171,169,186)" transform="translate(0,0)"></path>
<path d="M 1170.87 979.884 C 1172.95 973.274 1173.06 983.509 1173.08 984.257 C 1172.19 982.638 1171.59 981.562 1170.87 979.884 z" fill="rgb(116,113,157)" transform="translate(0,0)"></path>
<path d="M 1222.88 1080.97 C 1223.59 1081.8 1226.22 1084.24 1225.41 1085.41 C 1224.08 1085.5 1222.01 1082.96 1221.18 1082.03 L 1222.88 1080.97 z" fill="rgb(171,169,186)" transform="translate(0,0)"></path>
<path d="M 879.063 1234.12 C 878.765 1234.17 874.206 1235.22 874.685 1233.59 C 875.487 1232.84 876.678 1232.91 877.697 1232.9 L 879.354 1232.86 L 879.063 1234.12 z" fill="rgb(171,169,186)" transform="translate(0,0)"></path>
<path d="M 982.311 810.065 C 983.176 810.807 984.403 811.733 984.7 812.905 C 984.6 813.289 984.693 813.171 984.479 813.32 C 983.332 813.241 981.43 811.162 980.623 810.415 L 982.311 810.065 z" fill="rgb(171,169,186)" transform="translate(0,0)"></path>
<path d="M 877.458 495.061 C 876.583 494.879 874.713 494.781 874.503 493.57 C 875.138 492.239 877.311 493.371 878.131 493.784 L 877.458 495.061 z" fill="rgb(171,169,186)" transform="translate(0,0)"></path>
<metadata><recraft-signature>{"signed_by": "recraft", "signature_b64": "pPivUBqTVfHHa24MXjB/XPQ9LM+tDmnCqC8anqtzXeoi7ZEoJrkgShew0tfF39v1cKQfO4df69zJl5GMqqecBg==", "signing_algo": "Ed25519", "generation_timestamp": 1772546544, "identifier": "60eae3b7-3a08-4466-93ab-04d5d933ea09"}</recraft-signature></metadata></svg>