<svg xmlns="http://www.w3.org/2000/svg" height="1024" preserveAspectRatio="none" style="display: block;" version="1.1" viewBox="0 0 2048 2048" width="1024">
<path d="M 0 0 L 2048 0 L 2048 2048 L 0 2048 L 0 0 z" fill="rgb(255,255,255)" transform="translate(0,0)"></path>
<path d="M 437.009 51.2527 C 456.711 50.7853 467.669 67.0948 463.378 85.6839 C 473.872 90.7141 477.587 93.9602 486.758 101.241 C 512.295 98.668 536.281 104.169 546.558 131.348 C 554.142 151.404 547.169 168.382 538.992 186.641 C 551.052 170.897 553.242 165.734 573.863 165.955 C 585.793 145.113 597.704 134.695 622.728 142.626 C 632.272 128.179 643.309 123.407 660.601 125.653 C 675.357 112.765 681.186 110.134 700.89 113.945 C 713.628 94.1057 728.156 95.9326 746.095 108.753 C 748.824 99.9761 750.204 93.5145 757.044 86.9338 C 761.488 82.6111 767.54 80.3472 773.73 80.6915 C 783.912 81.2378 789.505 86.6365 795.878 93.4047 C 806.379 67.1676 832.065 61.3785 847.195 87.4378 C 868.451 63.7267 886.089 69.4406 898.128 96.7005 C 900.274 98.0907 911.999 90.7162 918.656 90.6899 C 937.301 90.6165 941.027 103.232 942.429 120.807 C 952.382 117.104 965.223 115.825 973.943 123.502 C 981.19 129.883 981.191 141.598 981.531 150.655 C 983.753 153.331 994.694 154.829 999.476 157.359 C 1016.5 166.363 1013.56 182.263 1004.72 197.024 C 1019.85 199.142 1032.66 206.001 1033.39 223.044 C 1033.73 230.822 1030.75 238.377 1025.21 243.843 C 1017.75 251.306 1008.75 253.245 998.64 253.177 C 1015.83 278.901 1001.62 308.983 1019.55 337.476 C 1028.23 352.551 1041.16 363.51 1054.93 373.736 C 1060.16 377.623 1067.23 383.198 1071.1 388.585 C 1094.2 386.863 1114.2 383.65 1138.89 382.261 C 1195.61 379.62 1252.43 384.623 1307.82 397.137 C 1254.53 362.192 1202.44 313.617 1188.56 248.814 C 1166.34 145.135 1297.36 93.3296 1373.85 146.19 C 1410.48 171.499 1428.91 215.118 1401.4 254.436 C 1387.08 274.775 1365.14 288.463 1340.58 292.393 C 1297.57 299.387 1267.29 277.958 1260.84 234.929 C 1262.04 237.425 1263.26 239.912 1264.49 242.39 C 1272.99 259.34 1285.12 274.549 1303.99 280.287 C 1337.6 291.267 1383.67 270.024 1392.19 234.863 C 1404.79 182.903 1359.43 137.231 1308.37 137.807 C 1284.99 138.071 1265.86 140.262 1245.69 152.292 C 1225.75 164.177 1208.2 180.243 1202.22 203.009 C 1196.96 223.209 1199.99 244.674 1210.63 262.628 C 1249.51 329.134 1364.91 336.815 1434.08 341.129 C 1524.51 347.234 1612.22 341.392 1701.09 364.055 C 1796.35 387.989 1912.85 465.987 1887.11 579.056 C 1866.83 670.685 1704.07 654.306 1715 555.198 C 1717.64 531.352 1726.92 514.11 1748.8 502.786 L 1748.1 503.579 C 1733.89 519.868 1730.12 539.458 1731.42 560.42 C 1734.19 604.988 1765.27 628.623 1809.07 625.262 C 1854.46 621.78 1881.1 588.387 1876.24 543.355 C 1872.54 509.112 1853.31 479.3 1832.09 453.275 C 1818.99 437.489 1804.17 425.28 1787.36 413.618 C 1710.95 360.553 1612.63 360.127 1523.29 357.511 C 1456.33 355.551 1387.13 355.357 1321.62 340.344 C 1284.07 331.74 1247.69 317.646 1217.53 293.225 C 1265.95 365.878 1339.96 401.39 1415.66 438.784 C 1588.43 524.12 1710.06 666.753 1772.22 849.464 C 1831.53 1023.75 1837.55 1224.4 1756.77 1393.99 C 1708.33 1495.68 1622.07 1584.45 1513.9 1621.6 C 1542.01 1622.49 1569.95 1622.57 1598.07 1623.72 C 1647.71 1625.74 1697.73 1628.61 1747.4 1628.65 C 1760.06 1628.67 1775.94 1626.71 1789.02 1626.02 C 1716.1 1662.6 1589.18 1628.6 1508.99 1629.97 C 1488.07 1630.32 1450.23 1637.44 1430.11 1644.96 C 1494.65 1642.49 1588.03 1659.39 1623.39 1719.37 C 1649.99 1764.47 1642.12 1828.55 1595.26 1857.09 C 1598.82 1852.05 1602.23 1846.91 1605.49 1841.68 C 1621.23 1816.07 1626.04 1785.21 1618.83 1756.03 C 1604.2 1695.86 1548.5 1668.2 1492.12 1657.96 C 1435.09 1647.61 1386.67 1653.95 1331.54 1668.16 C 1368.4 1676.33 1402.64 1686.67 1432.79 1710.56 C 1454.36 1727.65 1472.4 1749.98 1475.62 1778.1 C 1478.25 1799.94 1472.01 1821.92 1458.32 1839.12 C 1440 1861.95 1412.1 1875.56 1383.19 1879.09 C 1342.79 1884.01 1302.07 1863.28 1298.27 1819.12 C 1296.5 1798.09 1303.1 1777.22 1316.63 1761.03 C 1323.71 1752.61 1355.79 1726.92 1365.58 1736.26 C 1364.21 1738.15 1352.23 1744.43 1348.53 1747.05 C 1342.37 1751.43 1336.87 1756.66 1332.19 1762.59 C 1319.57 1778.45 1313.82 1798.7 1316.22 1818.83 C 1320.88 1856.19 1353.43 1876.17 1389.22 1870.73 C 1413.75 1867.25 1435.88 1854.12 1450.69 1834.26 C 1447.75 1834.65 1444.79 1834.85 1441.82 1834.84 C 1426.47 1834.73 1414.67 1823.64 1415.59 1807.95 C 1416.04 1800.77 1419.33 1794.06 1424.74 1789.31 C 1437.35 1778.2 1450.31 1782.69 1460.2 1794.2 C 1459.17 1766.42 1452.37 1747.34 1430.81 1728.38 C 1401.13 1702.68 1357.99 1682.85 1319.17 1677.34 C 1284.2 1672.38 1246.28 1684.67 1211.44 1686.32 C 1225.41 1679.09 1252.95 1673.03 1268.64 1669.28 L 1325.75 1655.46 C 1354.46 1648.46 1394.08 1637.9 1421.01 1624.41 C 1493.07 1588.3 1563.98 1512.53 1609.2 1447.21 C 1645.85 1394.27 1664.26 1331.78 1650.75 1268.2 C 1680.27 1313.13 1668.49 1375.21 1643.85 1419.59 C 1603.85 1491.65 1541.69 1550.59 1477.75 1601.44 C 1465.59 1611.1 1450.93 1619.36 1437.87 1627.97 C 1492.54 1612.19 1546.23 1590.49 1592.55 1556.98 C 1725.69 1460.65 1792.79 1293.41 1793.25 1132.39 C 1793.28 1124.67 1785.85 1109.24 1783.2 1102.06 C 1759.12 1045.29 1715.8 997.028 1680.67 947.968 C 1717.5 973.398 1754.29 1023.67 1776.61 1062.25 C 1783.05 1073.38 1788.09 1086.49 1794.61 1097.65 L 1795.18 1098.6 C 1784.69 878.572 1697.41 659.157 1517.48 523.628 C 1383.45 422.678 1239.83 385.286 1073.59 409.252 C 1071.7 415.418 1068.02 425.149 1062.99 428.975 C 1011.54 468.072 955.222 505.14 901.459 540.529 C 785.271 611.206 665.061 675.047 541.44 731.727 C 503.486 749.461 464.358 769.115 425.343 783.915 C 412.885 788.641 395.662 792.409 382.48 795.442 C 374.095 815.057 369.262 834.865 364.045 855.476 C 338.404 956.767 339.818 1062.17 359.036 1164.49 C 366.032 1200.4 375.224 1235.85 386.562 1270.64 C 419.481 1371.25 467.406 1449.57 546.585 1520.56 C 572.258 1543.58 592.18 1561.13 621.34 1581.06 C 617.351 1574.88 613.111 1570.26 608.371 1564.68 C 560.332 1508.17 483.929 1436.54 520.008 1354.99 C 532.952 1325.74 567.491 1301.91 600.263 1310.02 C 604.305 1311.01 609.259 1314.04 611.309 1317.76 C 607.425 1318.7 604.47 1317.29 600.636 1317.01 C 560.433 1314.14 533.584 1352.25 531.175 1389.66 C 526.744 1458.47 583.655 1524.7 626.768 1573.18 C 639.823 1587.86 657.547 1601.01 671.322 1615.12 C 692.074 1634.97 717.875 1652.33 736.279 1674.24 C 767.723 1645.35 839.298 1539.13 855.338 1498.4 C 857.299 1493.42 858.251 1488.06 859.304 1482.83 C 889.778 1485.16 915.017 1470.08 933.289 1446.01 C 943.043 1433.16 946.895 1421.33 944.482 1405.22 C 972.397 1404.68 997.615 1388.16 1011.75 1364.52 C 1006.99 1367.3 999.392 1373.61 994.766 1377.06 C 972.347 1393.78 962.681 1397.53 935.362 1396.95 L 935.898 1398.82 C 947.777 1440.65 898.725 1481.71 858.853 1476.38 C 846.961 1474.79 838.514 1469.72 828.234 1463.86 L 828.915 1464.55 L 830.063 1465.68 C 838.555 1474.16 841.388 1475.59 852.436 1480.81 C 852.219 1482.91 851.944 1485.01 851.609 1487.09 C 843.387 1540.55 775.555 1561.58 728.691 1554.43 C 690.514 1548.61 662.362 1525.13 648.84 1489.4 C 645.327 1482.75 638.001 1475.23 634.887 1468.68 C 614.665 1426.1 616.547 1377.42 658.579 1348.46 C 637.017 1315.73 639.588 1288.01 670.521 1261.87 C 663.105 1263.04 644.768 1267.84 639.186 1264.66 C 639.046 1261.65 638.628 1262.94 640.284 1260.62 C 663.67 1253.26 772.628 1251.91 800.779 1251.39 C 900.357 1248.84 999.968 1247.84 1099.58 1248.42 C 1079.34 1293.55 1048.35 1332.98 996.566 1341.72 C 981.871 1344.21 966.041 1344.68 951.713 1348.28 L 949.918 1348.74 C 977.15 1351 1007.81 1350.78 1032.41 1337.63 C 1066.3 1319.53 1091.46 1284.72 1103.04 1248.69 C 1173.05 1249.76 1244.07 1249.96 1313.95 1245.79 C 1354.71 1243.36 1391.99 1238.37 1432.36 1234.35 C 1443.05 1259.08 1460.21 1272.62 1473.23 1295.17 C 1476.31 1300.52 1476.25 1310.24 1473.67 1315.87 C 1464.34 1336.2 1439.07 1341.34 1420.27 1348.91 C 1398.08 1358.33 1417.81 1376.21 1423.58 1388.55 C 1431.51 1405.49 1412.48 1414.84 1399.74 1420.57 C 1409.19 1423.93 1416.73 1431.92 1414.99 1442.6 C 1413.15 1453.88 1395.8 1457.44 1387.16 1463.39 C 1362.14 1480.4 1388.27 1505.93 1381.72 1528.87 C 1369.69 1570.93 1323.83 1580.32 1286 1571.26 C 1265.5 1566.35 1245.07 1556.92 1224.86 1552.27 L 1223.44 1551.95 C 1215.91 1560.66 1202.34 1583.32 1196.8 1595.09 C 1177.14 1636.79 1147.85 1709.48 1169.42 1753.39 C 1173.65 1762 1186.52 1778.92 1192.61 1787.36 C 1202.93 1801.74 1212.84 1816.41 1222.33 1831.35 C 1250.11 1875.59 1289.38 1956.98 1305.7 2006.39 C 1298.59 2001.78 1291.32 1996.64 1284.4 1991.73 C 1206.06 1936.18 1124.92 1884.94 1040.54 1838.95 C 986.416 1809.45 927.274 1778.56 868.201 1759.95 C 875.315 1773.27 880.243 1787.64 882.796 1802.52 C 888.724 1837.74 880.099 1873.86 858.897 1902.6 C 839.051 1929.68 812.853 1948.18 779.321 1953.44 C 726.303 1961.76 677.59 1934.01 670.163 1878.48 C 666.391 1850.28 676.689 1827.6 693 1805.07 C 712.688 1777.88 754.607 1752.87 786.287 1775.49 C 798.876 1784.59 801.831 1800.11 803.642 1815.06 C 793.667 1792.38 784.498 1773.67 755.438 1776.61 C 737.081 1778.47 719.256 1791.55 707.783 1805.27 C 692.666 1823.18 685.308 1846.38 687.336 1869.73 C 691.472 1916.23 724.922 1951.33 772.461 1944.94 C 842.05 1935.6 878.629 1856.33 869.552 1792.55 C 867.886 1780.85 865.097 1769.9 863.705 1758.36 C 819.714 1741.68 760.433 1737.1 713.957 1728.85 C 680.41 1760.4 645.122 1792.8 627.892 1837.44 C 624.604 1845.96 623.169 1855.94 621.764 1865 C 608.582 1811.6 658.775 1768.42 691.127 1732.03 C 704.401 1717.17 716.845 1701.6 728.4 1685.38 C 690.189 1667.77 650.257 1642.74 608.082 1635.17 C 570.868 1628.48 520.739 1639.76 494.451 1668.7 C 487.941 1675.86 481.831 1690.28 479.577 1691.87 C 478.939 1691.28 478.342 1690.8 477.969 1689.96 C 465.021 1660.9 513.129 1636.18 533.804 1628.46 C 583.709 1609.82 639.91 1627.61 686.287 1648.15 C 656.836 1623.5 615.357 1598.1 582.931 1573.75 C 496.946 1509.16 436.504 1437.74 391.999 1339.72 C 380.542 1314.48 371.32 1285.67 362.221 1259.33 C 346.928 1257.32 329.807 1252.02 315.401 1245.97 C 222.445 1206.91 141.035 1131.62 100.379 1038.86 C 75.4306 981.939 65.4545 913.188 88.77 854.994 C 102.516 820.115 129.858 792.328 164.512 778.021 C 217.07 756.168 278.652 770.558 300.91 826.882 C 311.46 853.21 311.036 882.666 299.732 908.68 C 290.484 929.477 269.805 951.765 248.094 959.418 C 221.255 968.879 200.691 961.84 176.543 950.515 C 199.779 954.48 221.303 953.188 242.285 941.736 C 265.041 929.196 281.738 907.962 288.56 882.891 C 300.988 838.93 279.051 790.769 233.34 779.812 C 166.378 763.761 113.953 822.278 100.207 882.365 C 85.3224 947.435 98.5286 1016.48 132.916 1072.8 C 181.116 1151.73 267.598 1223.38 358.092 1246.23 C 350.882 1219.06 343.065 1191.64 337.693 1164.03 C 313.322 1042.47 320.938 916.676 359.794 798.951 C 358.176 798.326 356.554 797.681 354.991 796.93 C 347.407 793.225 341.657 786.592 339.067 778.559 C 335.918 768.772 337.812 761.817 341.995 753.167 C 317.759 731.071 289.531 698.917 267.619 674.162 C 240.021 688.275 211.089 674.085 218.573 642.203 C 193.062 633.904 179.588 616.467 196.565 591.636 C 174.328 583.948 174.52 562.482 186.931 545.487 C 164.596 528.761 168.458 506.309 190.273 491.418 C 188.561 489.426 186.981 487.324 185.544 485.124 C 173.189 466.217 185.527 449.269 202.113 439.106 C 193.187 414.814 212.276 396.763 236.426 396.777 C 234.047 378.731 239.711 365.14 257.015 357.85 C 266.919 353.677 271.691 356.447 280.473 355.16 C 284.439 331.399 293.894 317.831 317.532 311.35 C 318.448 296.751 327.894 280.852 342.102 278.954 C 360.946 276.436 356.671 274.572 367.931 260.76 C 372.487 255.171 385.223 252.214 392.983 252.168 C 408.67 234.031 414.492 234.024 437.496 235.347 C 445.248 227.36 446.328 227.272 456.885 224.909 C 441.234 219.042 427.278 211.267 418.142 196.703 C 404.77 175.388 410.172 152.815 431.255 139.575 C 426.225 125.425 424.803 116.098 431.291 102.268 C 421.969 98.4802 413.895 94.2532 412.229 83.4297 C 409.225 63.9147 419.972 54.223 437.009 51.2527 z" fill="rgb(44,86,87)" transform="translate(0,0)"></path>
<path d="M 983.709 268.401 L 988.157 267.918 C 993.211 270.196 993.791 284.045 993.857 289.017 C 994.393 329.265 1005.75 348.35 1033.69 376.123 C 1013.85 368.393 990.089 362.231 969.15 358.234 C 983.602 342.568 989.082 327.815 992.773 306.967 C 952.894 312.633 904.466 329.722 866.95 344.493 C 860.529 347.021 845.619 352.49 841.263 357.21 C 841.556 358.463 841.792 360.671 842.614 361.187 C 858.968 371.444 899.803 375.856 916.472 376.08 C 895.336 397.868 883.913 418.524 871.953 446.021 C 856.684 432.245 812.552 431.831 792.5 432.624 C 812.468 408.532 827.684 386.099 839.161 356.844 C 811.892 366.781 779.769 383.877 753.439 396.523 C 718.737 413.19 685.117 430.231 651.516 449.066 C 684.889 459.098 712.72 459.836 747.435 454.341 C 722.301 477.527 706.636 499.023 697.138 532.722 C 665.863 526.1 638.089 521.574 605.832 526.55 C 629.573 504.277 639.822 480.412 649.34 450.508 C 643.614 452.921 638.083 456.132 632.708 459.26 C 588.628 485.003 544.284 510.645 501.529 538.568 C 489.234 546.598 474.437 556.046 463.267 565.497 C 494.645 572.116 518.917 569.631 549.793 560.775 C 522.203 586.073 511.703 611.871 504.165 647.326 C 535.756 624.337 588.512 593.922 622.835 574.346 C 691.033 535.338 760.835 499.204 832.059 466.041 C 889.192 439.079 944.674 414.004 1004.53 393.592 C 1015.96 389.694 1027.67 385.446 1038.89 380.963 C 1049.04 387.766 1058.59 394.311 1060.15 407.426 C 1053.29 425.167 1034.17 429.337 1017.55 435.218 C 947.012 460.188 879.756 491.174 812.346 523.405 C 751.427 553.025 691.41 584.464 632.374 617.679 C 542.127 667.569 451.452 718.56 370.557 783.23 C 365.205 787.508 357.696 783.4 354.31 778.575 C 351.746 774.958 350.801 770.438 351.702 766.097 C 356.406 743.559 476.966 663.862 499.991 648.465 C 465.13 643.111 452.197 643.522 418.16 649.171 C 441.048 621.653 452.541 602.072 460.039 566.99 C 419.29 594.222 344.51 649.75 317.208 689.76 C 317.014 697.828 317.146 700.868 318.221 708.854 C 309.861 700.142 294.309 684.632 288.391 674.842 C 294.095 658.719 313.226 638.459 325.994 626.502 C 436.941 522.612 571.901 446.384 706.127 376.843 C 763.904 346.909 823.161 318.215 884.391 296.047 C 917.762 283.916 948.008 272.212 983.709 268.401 z" fill="rgb(255,255,255)" transform="translate(0,0)"></path>
<path d="M 501.588 273.357 C 502.623 273.396 503.658 273.435 504.693 273.475 C 516.941 328.576 549.022 386.24 596.79 418.469 C 580.173 428.864 560.856 439.153 543.602 449.591 C 509.684 470.109 476.296 491.49 443.47 513.714 L 431.338 521.675 C 394.437 494.245 363.205 465.412 354.586 417.632 C 339.38 333.333 430.293 284.218 501.588 273.357 z" fill="rgb(255,255,255)" transform="translate(0,0)"></path>
<path d="M 494.092 287.127 C 495.264 287.127 496.306 286.814 497.045 288.979 C 501.044 300.693 504.91 316.25 509.612 327.429 C 523.116 359.536 546.813 398.844 575.327 419.042 C 528.399 445.768 488.634 471.956 443.183 499.037 L 431.913 506.19 C 406.521 492.996 377.309 452.56 370.25 425.41 C 347.625 338.397 429.572 305.733 494.092 287.127 z" fill="rgb(44,86,87)" transform="translate(0,0)"></path>
<path d="M 690.6 174.391 C 716.343 171.347 742.311 177.812 763.622 192.569 C 801.893 219.304 819.515 258.189 827.298 302.993 C 774.581 325.202 729.391 348.642 678.536 374.962 C 666.881 381.234 655.125 387.313 643.27 393.199 C 642.393 340.158 597.598 272.018 556.032 239.906 C 587.927 209.082 646.636 179.368 690.6 174.391 z" fill="rgb(255,255,255)" transform="translate(0,0)"></path>
<path d="M 693.341 186.39 C 707.433 185.055 721.63 187.413 734.534 193.231 C 761.348 205.598 785.091 235.94 796.307 262.667 C 801.617 275.32 805.41 287.756 810.121 300.649 C 767.418 320.108 726.25 338.469 683.625 358.722 C 674.143 363.416 664.969 368.096 655.157 372.097 C 641.881 331.378 627.785 300.751 600.463 267.032 C 593.393 258.306 585.664 249.112 576.64 242.364 C 609.754 217.494 651.245 190.447 693.341 186.39 z" fill="rgb(44,86,87)" transform="translate(0,0)"></path>
<path d="M 461.321 238.384 C 475.631 237.616 502.792 239.505 504.623 257.949 C 502.602 259.528 478.958 263.875 473.308 265.151 C 429.225 275.101 379.342 303.556 355.539 342.891 C 339.633 368.866 334.923 400.175 342.482 429.68 C 352.3 468.438 387.213 509.432 421.174 529.875 C 409.901 539.752 384.538 556.776 371.163 567.061 C 356.208 559.618 342.924 544.183 332.802 531.198 C 321.761 515.405 307.779 494.948 302.17 476.415 C 298.323 463.699 300.783 457.645 306.67 447.268 C 299.411 443.205 293.363 440.772 290.264 432.341 C 286.04 420.853 294.792 414.619 304.151 411.041 C 295.801 404.089 282.512 392.347 291.754 379.667 C 297.081 372.359 307.061 371.991 315.456 371.203 C 310.951 365.137 305.19 361.049 302.352 353.668 C 296.669 338.891 306.667 331.866 318.994 327.281 C 329.007 329.119 339.235 332.027 349.111 334.631 C 341.794 324.605 323.713 314.796 332.448 301.342 C 346.757 279.302 364.794 297.378 379.926 305.554 L 381.102 306.179 C 374.5 294.19 361.646 270.159 387.294 266.255 C 398.116 264.608 407.475 272.107 415.338 278.963 C 410.235 263.482 400.153 248.75 426.772 247.263 C 436.468 246.721 446.992 263.769 453.541 270.495 L 454.548 271.515 C 450.957 257.282 448.902 256.144 448.89 240.579 C 453.047 239.422 457.053 238.991 461.321 238.384 z" fill="rgb(255,255,255)" transform="translate(0,0)"></path>
<path d="M 997.352 456.943 L 998.109 457.147 L 997.765 458.413 C 862.332 557.323 702.253 640.564 550.551 712.021 C 521.111 726.076 491.484 739.736 461.678 752.997 C 443.789 760.901 426.204 768.922 407.607 775.045 L 406.297 774.613 C 410.159 768.995 460.026 736.039 468.114 730.851 C 636.076 624.072 813.184 532.41 997.352 456.943 z" fill="rgb(255,255,255)" transform="translate(0,0)"></path>
<path d="M 274.711 417.826 C 276.919 435.016 279.991 440.538 285.66 456.599 C 286.933 460.207 287.184 471.305 288.239 475.025 C 298.798 512.248 328.587 555.789 360.15 576.908 C 335.088 598.225 318.248 613.639 295.791 637.919 C 288.511 646.043 282.932 653.907 277.116 663.085 C 229.577 583.29 213.087 496.055 274.711 417.826 z" fill="rgb(255,255,255)" transform="translate(0,0)"></path>
<path d="M 267.798 458.468 C 270.763 460.112 272.535 466.49 273.634 469.759 C 287.659 511.476 304.5 549.483 331.939 584.466 C 324.43 593.695 304.601 611.888 295.117 621.36 C 289.071 627.386 283.704 634.055 279.109 641.249 C 274.598 633.564 269.598 622.672 266.155 614.358 C 240.832 553.218 243.822 517.404 267.798 458.468 z" fill="rgb(44,86,87)" transform="translate(0,0)"></path>
<path d="M 710.605 146.83 C 714.422 136.611 720.392 120.503 735.233 125.028 C 745.553 128.175 750.522 140.752 754.945 149.826 C 762.037 140.697 770.962 134.608 782.397 142.22 C 792.278 148.799 794.177 159.14 796.38 170.024 C 800.155 166.144 804.154 163.112 808.375 159.759 C 809.74 160.283 811.091 160.845 812.426 161.443 C 842.366 174.997 878.211 247.114 889.927 279.153 C 874.011 285.682 856.113 291.85 839.882 297.608 C 832.575 251.916 815.479 217.98 780.38 187.949 C 703.287 127.469 605.998 179.164 541.879 232.972 C 544.996 214.554 550.143 188.948 566.586 178.609 C 575.269 181.487 584.481 186.175 590.793 192.861 C 589.01 184.296 587.056 177.44 589.49 168.519 C 592.574 157.215 603.503 149.911 615.007 154.626 C 624.681 158.591 628.201 164.056 632.531 173.031 C 632.09 162.472 631.728 136.998 650.219 138.252 C 655.548 138.614 664.524 146.701 667.639 151.302 C 669.576 138.469 669.498 129.426 683.312 125.131 C 700.554 124.043 703.807 133.281 710.605 146.83 z" fill="rgb(255,255,255)" transform="translate(0,0)"></path>
<path d="M 820.245 128.454 C 849.7 127.284 878.924 134.094 904.828 148.163 C 948.134 171.224 972.592 208.25 986.76 254.258 C 973.124 255.411 960.609 257.798 947.237 260.354 C 934.07 263.348 916.09 269.332 902.803 273.349 C 890.406 235.386 862.101 186.091 831.692 160.541 C 819.426 150.235 804.871 142.343 793.504 132.198 L 792.29 131.102 C 801.647 129.021 810.696 128.903 820.245 128.454 z" fill="rgb(255,255,255)" transform="translate(0,0)"></path>
<path d="M 830.899 143.133 C 844.381 143.621 857.715 146.109 870.465 150.518 C 918.992 167.501 952.25 200.41 974.426 246.147 L 963.768 248.032 C 943.376 250.725 932.264 252.981 912.979 259.687 C 894.967 210.306 872.463 175.606 830.899 143.133 z" fill="rgb(44,86,87)" transform="translate(0,0)"></path>
<path d="M 524.363 241.958 C 558.763 241.92 604.909 314.706 616.779 343.554 C 623.603 360.138 639.212 393.96 619.628 406.573 C 580.424 422.45 492.414 264.584 524.363 241.958 z" fill="rgb(255,255,255)" transform="translate(0,0)"></path>
<path d="M 1026.38 1418.17 C 1048.8 1415.22 1069.45 1430.79 1072.77 1453.17 C 1076.09 1475.54 1060.85 1496.44 1038.53 1500.12 C 1023.77 1502.56 1008.84 1496.84 999.48 1485.17 C 990.117 1473.51 987.772 1457.7 993.345 1443.81 C 998.918 1429.93 1011.54 1420.13 1026.38 1418.17 z" fill="rgb(255,255,255)" transform="translate(0,0)"></path>
<path d="M 1029.1 1426.17 C 1046.9 1424.47 1062.78 1437.34 1064.82 1455.1 C 1066.85 1472.87 1054.29 1488.99 1036.56 1491.36 C 1024.8 1492.93 1013.1 1488.02 1005.98 1478.53 C 998.853 1469.04 997.41 1456.44 1002.21 1445.58 C 1007 1434.72 1017.28 1427.3 1029.1 1426.17 z" fill="rgb(44,86,87)" transform="translate(0,0)"></path>
<path d="M 499.037 114.282 C 540.854 114.952 540.536 150.027 527.459 179.88 C 524.336 179.031 515.869 173.065 511.514 171.123 C 503.687 167.635 501.774 168.11 493.733 166.497 C 488.938 160.05 492.554 126.671 493.255 116.651 C 495.253 114.401 495.38 115.041 499.037 114.282 z" fill="rgb(255,255,255)" transform="translate(0,0)"></path>
<path d="M 437.42 150.635 C 438.549 150.947 474.905 171.914 480.157 174.553 C 474.432 188.52 473.361 199.235 479.023 213.578 L 479.389 214.486 L 478.629 215.467 L 475.951 214.824 C 455.514 209.696 424.983 200.632 424.609 172.515 C 424.489 163.487 431.023 156.465 437.42 150.635 z" fill="rgb(255,255,255)" transform="translate(0,0)"></path>
<path d="M 380.479 672.979 C 381.543 673.018 380.959 672.855 382.038 673.916 C 376.76 683.144 370.731 696.638 367.022 706.538 C 362.736 717.979 360.687 729.259 354.013 739.862 L 352.077 740.102 C 345.956 737.767 343.141 731.453 339.701 725.817 C 331.839 711.614 327.458 700.492 320.915 685.935 C 346.222 684.333 356.928 681.48 380.479 672.979 z" fill="rgb(255,255,255)" transform="translate(0,0)"></path>
<path d="M 450.181 100.089 C 476.085 97.6331 482.558 121.666 479.361 142.198 C 478.711 146.378 479.797 154.243 476.935 157.546 L 474.627 156.693 C 453.26 146.455 425.462 123.012 450.181 100.089 z" fill="rgb(255,255,255)" transform="translate(0,0)"></path>
<path d="M 492.553 180.795 C 514.204 180.226 535.509 211.695 525.775 227.579 L 517.188 229.418 C 514.736 230.839 512.573 233.113 510.473 235.076 C 497.188 223.358 478.88 197.688 492.553 180.795 z" fill="rgb(255,255,255)" transform="translate(0,0)"></path>
<path d="M 1031.85 1352.52 C 1043.15 1351.48 1053.19 1359.67 1054.46 1370.94 C 1055.73 1382.21 1047.76 1392.42 1036.52 1393.93 C 1029.04 1394.93 1021.6 1391.81 1017.07 1385.76 C 1012.54 1379.72 1011.64 1371.7 1014.71 1364.8 C 1017.78 1357.9 1024.34 1353.2 1031.85 1352.52 z" fill="rgb(255,255,255)" transform="translate(0,0)"></path>
<path d="M 208.466 450.209 C 217.939 450.496 226.954 453.388 236.02 455.981 C 233.678 461.435 224.555 491.955 223.315 493.013 L 221.802 492.361 C 206.702 486.821 180.512 480.03 194.656 458.232 C 198.12 452.892 202.542 451.537 208.466 450.209 z" fill="rgb(255,255,255)" transform="translate(0,0)"></path>
<path d="M 226.041 406.19 C 239.098 404.309 245.903 410.254 257.175 416.882 C 250.105 428.07 245.728 435.959 239.619 447.636 C 230.627 452.497 188.914 425.399 226.041 406.19 z" fill="rgb(255,255,255)" transform="translate(0,0)"></path>
<path d="M 869.758 82.0096 C 896.122 82.8692 889.573 108.53 882.149 124.73 L 871.332 121.435 C 862.598 119.149 857.109 118.329 848.093 117.094 C 850.144 99.4374 850.655 88.1917 869.758 82.0096 z" fill="rgb(255,255,255)" transform="translate(0,0)"></path>
<path d="M 215.112 498.429 C 219.248 498.295 219.44 497.621 222.518 499.301 C 220.53 514.741 219.915 525.491 220.163 540.863 C 212.667 538.471 204.294 537.209 196.494 535.829 C 190.352 533.951 181.893 527.619 182.054 521.268 C 182.542 502.117 202.388 499.028 215.112 498.429 z" fill="rgb(255,255,255)" transform="translate(0,0)"></path>
<path d="M 917.715 99.1332 C 931.66 100.489 932.669 109.875 933.484 121.431 C 929.659 128.72 925.123 135.58 920.695 142.519 L 913.515 138.273 C 905.545 133.475 900.264 131.012 891.719 127.15 C 896.478 112.099 901.445 103.08 917.715 99.1332 z" fill="rgb(255,255,255)" transform="translate(0,0)"></path>
<path d="M 226.044 586.888 L 227.179 587.159 C 229 589.521 238.443 618.373 240.955 624.613 C 231.152 628.732 226.527 630.754 216.206 628.722 C 205.99 625.605 196.257 617.235 201.498 605.683 C 206.212 595.29 216.268 591.042 226.044 586.888 z" fill="rgb(255,255,255)" transform="translate(0,0)"></path>
<path d="M 953.662 126.127 C 984.338 127.771 971.387 158.253 952.989 167.598 L 951.493 166.68 C 944.262 161.284 935.277 153.117 928.268 147.102 C 935.627 136.767 941.237 129.456 953.662 126.127 z" fill="rgb(255,255,255)" transform="translate(0,0)"></path>
<path d="M 820.605 80.1505 C 842.149 82.9386 840.866 98.6279 839.226 116.015 L 820.75 115.949 C 814.556 115.861 812.021 115.939 805.8 116.666 C 801.703 100.275 801.511 85.074 820.605 80.1505 z" fill="rgb(255,255,255)" transform="translate(0,0)"></path>
<path d="M 262.316 366.157 C 271.292 365.29 276.143 367.093 284.585 369.646 C 277.302 380.221 276.324 382.416 277.41 395.015 C 272.856 398.743 268.444 402.64 264.182 406.699 L 259.373 412.659 L 254.792 405.512 C 242.913 386.769 241.681 377.904 262.316 366.157 z" fill="rgb(255,255,255)" transform="translate(0,0)"></path>
<path d="M 218.361 544.15 C 218.986 544.078 219.599 544.379 220.208 544.534 C 222.686 558.058 223.915 569.897 226.897 583.732 C 220.256 581.972 209.344 581.047 202.227 580.226 C 191.036 577.775 185.324 568.272 190.953 557.568 C 195.502 548.919 209.322 546.568 218.361 544.15 z" fill="rgb(255,255,255)" transform="translate(0,0)"></path>
<path d="M 982.992 161.947 C 993.279 162.193 1002.82 168.277 1000.2 179.517 C 997.476 191.216 989.304 197.029 980.291 203.505 L 960.177 175.112 C 969.021 167.549 972.118 166.083 982.992 161.947 z" fill="rgb(255,255,255)" transform="translate(0,0)"></path>
<path d="M 768.251 90.0366 C 786.196 89.6009 792.622 101.046 795.795 116.921 L 779.086 120.753 C 772.289 122.223 769.594 116.395 755.696 120.764 C 752.952 105.454 753.067 97.4894 768.251 90.0366 z" fill="rgb(255,255,255)" transform="translate(0,0)"></path>
<path d="M 997.357 209.305 C 1019.04 208.687 1028.98 226.674 1006.18 238.812 C 1003.68 239.934 1002.52 240.116 999.87 240.762 C 994.247 238.125 989.959 221.305 984.717 211.75 C 988.928 210.771 993.105 210.068 997.357 209.305 z" fill="rgb(255,255,255)" transform="translate(0,0)"></path>
<path d="M 1438.95 1793.09 C 1463.18 1792.28 1465.62 1808.94 1447.22 1821.69 C 1429.39 1828.36 1420.32 1804.05 1438.95 1793.09 z" fill="rgb(255,255,255)" transform="translate(0,0)"></path>
<path d="M 244.224 633.892 C 245.971 634.474 259.788 662.169 261.999 666.058 C 256.337 668.52 252.938 668.887 246.869 669.263 C 237.245 666.957 227.288 661.269 229.791 649.597 C 231.528 641.497 237.8 638.132 244.224 633.892 z" fill="rgb(255,255,255)" transform="translate(0,0)"></path>
<path d="M 435.579 64.6845 C 442.64 63.3312 449.46 67.959 450.812 75.0202 C 452.164 82.0814 447.535 88.9013 440.474 90.2518 C 433.414 91.6019 426.596 86.9743 425.245 79.9151 C 423.893 72.8559 428.52 66.0374 435.579 64.6845 z" fill="rgb(255,255,255)" transform="translate(0,0)"></path>
<path d="M 718.892 107.088 C 727.859 106.909 732.496 109.519 740.755 112.938 L 726.213 112.791 C 721.369 113.531 714.708 117.612 710.946 115.146 L 711.376 112.731 C 713.623 109.382 715.151 109.027 718.892 107.088 z" fill="rgb(255,255,255)" transform="translate(0,0)"></path>
<path d="M 1242.86 465.263 C 1259.16 465.259 1266.13 473.25 1277.37 483.565 C 1292.78 480.846 1302.91 479.639 1317.02 487.55 C 1340.46 500.689 1337.67 526.586 1347.89 543.741 C 1353.99 553.981 1376.83 556.637 1381.45 578.498 C 1385.28 596.649 1379.71 597.404 1372.36 611.208 C 1366.37 622.487 1396.2 630.388 1399.77 650.77 C 1402.84 668.311 1396.95 678.637 1388 693.155 C 1389.09 696.204 1390.24 700.649 1391.19 703.862 C 1387.53 722.163 1382.07 726.32 1368.66 738.073 C 1372.89 751.025 1371.55 760.062 1361.09 769.127 C 1345.4 766.317 1328.44 765.085 1312.54 762.971 C 1230.46 752.05 1149.87 748.556 1067.25 748.031 C 1047.47 746.729 1021.68 747.148 1001.49 746.906 C 957.904 746.192 914.312 745.923 870.721 746.098 C 880.528 723.917 892.59 732.516 906.606 719.492 C 911.98 714.498 907.867 700.091 913.96 690.933 C 922.257 678.464 933.833 681.27 942.573 672.058 C 948.186 666.142 947.271 653.529 952.357 645.638 C 960.72 632.663 971.579 633.256 985.008 629.807 C 1000.55 625.655 993.272 607.268 1000.98 594.532 C 1012.43 575.6 1031.93 587.394 1043.48 570.786 C 1045.88 567.333 1046.48 560.187 1048.88 557 C 1057.7 545.262 1075.79 543.123 1089.08 540.797 C 1113.91 493.328 1129.61 522.186 1149.51 508.368 C 1159.31 501.564 1160.89 487.799 1172.22 481.07 C 1185.22 473.347 1200.23 476.168 1213.88 479.906 C 1224.58 473.168 1230.26 467.717 1242.86 465.263 z" fill="rgb(44,86,87)" transform="translate(0,0)"></path>
<path d="M 1299.32 782.405 C 1317.33 780.679 1363.5 782.212 1381.9 783.088 C 1382.76 806.159 1384.8 831.31 1386.09 854.627 C 1372.06 840.352 1364.29 825.627 1347.38 810.584 C 1321.52 787.575 1274.53 792.276 1253.56 820.695 C 1195.58 899.285 1300.33 952.973 1351.41 994.265 C 1383.42 1020.14 1414.75 1045.92 1419.94 1089.98 C 1423.42 1120.2 1414.88 1150.59 1396.17 1174.57 C 1365.75 1213.05 1319.63 1223.59 1272.78 1221.41 C 1238.4 1219.81 1213.93 1215.76 1186.97 1193.98 C 1150.72 1161.61 1151.46 1095.27 1202.75 1078.4 C 1207.78 1076.75 1212.97 1075.89 1218.17 1074.97 C 1214.77 1078.05 1210.54 1081.75 1207.65 1085.27 C 1183.5 1115.5 1192.99 1154.48 1220.97 1178.49 C 1278.33 1227.72 1389.93 1199.67 1381.49 1112.52 C 1377.18 1068.02 1338.22 1039.8 1305 1015.32 C 1285.34 1001.09 1267.87 987.441 1248.46 972.642 C 1199.5 935.325 1182.77 867.9 1222.41 817.47 C 1239.79 795.358 1271.57 784.755 1299.32 782.405 z" fill="rgb(44,86,87)" transform="translate(0,0)"></path>
<path d="M 907.146 780.998 C 934.45 784.404 967.917 783.587 995.603 783.804 C 1022.8 784.018 1046.33 781.629 1073.15 789.084 C 1106.92 798.398 1135.55 820.84 1152.66 851.402 C 1169.48 882.139 1173.69 918.215 1164.38 951.997 C 1147.58 1010.95 1081.62 1046.39 1022.99 1034.99 C 1013.75 1033.19 1008.03 1030.44 1003.67 1022.07 L 1004.26 1020.81 C 1009.9 1020.12 1019.09 1021.84 1025.06 1022.15 C 1084.33 1025.29 1123.93 989.999 1127.81 931.51 C 1132.21 865.359 1100.31 802.152 1029.25 797.577 C 1015.51 796.432 998.765 797.91 985.212 800.229 C 985.705 815.79 985.24 832.343 985.432 848.041 C 986.011 914.49 986.185 980.941 985.953 1047.39 C 985.972 1078.33 982.425 1160.71 991.474 1186.87 C 997.83 1205.24 1013.69 1209.61 1029.51 1217.2 C 1011.75 1217.24 993.969 1215.62 976.284 1215.54 C 952.556 1215.44 928.822 1217.3 905.202 1219.28 C 916.897 1211.1 935.503 1207.8 941.485 1193.45 C 951.752 1168.82 949.237 1132.02 949.184 1105.89 L 948.989 1016.85 L 949.095 914.384 C 949.071 883.854 950.718 846.807 942.706 817.027 C 937.967 799.414 922.62 789.034 907.146 780.998 z" fill="rgb(44,86,87)" transform="translate(0,0)"></path>
<path d="M 889.808 774.035 C 892.006 776.78 896.526 830.138 897.585 838.398 C 893.112 832.105 888.846 825.881 883.441 820.437 C 856.642 793.448 793.483 797.571 755.995 798.452 C 755.049 860.601 756.033 925.409 756.1 987.742 L 756.138 1075.53 C 756.141 1108.21 753.693 1158.21 762.619 1189.23 C 767.476 1206.11 794.354 1211.66 809.269 1218.51 L 810.475 1219.08 C 793.388 1219.76 765.25 1216.59 745.523 1216.45 C 733.174 1216.38 720.826 1216.64 708.491 1217.24 C 697.031 1217.9 680.346 1220.33 669.574 1218.25 C 669.746 1216.21 672.131 1215.58 674.517 1214.75 C 694.15 1207.94 701.452 1208.54 713.203 1191.08 C 717.635 1182.18 719.703 1169.88 720.066 1159.97 C 721.554 1119.35 720.773 1077.83 720.737 1037.16 L 720.846 799.015 C 667.306 798.19 626.726 793.49 587.885 835.856 C 592.185 819.012 597.849 796.689 599.213 779.702 C 632.881 786.558 691.099 783.972 727.216 784.269 L 795.339 784.336 C 823.78 784.559 864.681 787.605 889.808 774.035 z" fill="rgb(44,86,87)" transform="translate(0,0)"></path>
<path d="M 486.641 1564.42 C 515.267 1561.81 555.652 1582.21 533.102 1616.58 C 521.004 1635.02 470.067 1620.09 502.508 1593.65 C 500.898 1599.29 498.78 1604.44 500.626 1609.96 C 503.354 1613.47 505.241 1613.61 509.335 1614.26 C 518.223 1615.68 524.749 1609.24 525.148 1600.56 C 525.915 1583.87 507.602 1572.59 492.52 1572.89 C 466.75 1573.4 441.645 1588.83 423.466 1606.16 C 403.494 1625.14 392.557 1651.2 392.471 1678.65 C 392.656 1710.35 405.504 1740.67 428.157 1762.85 C 451.415 1786.02 476.443 1795.26 508.696 1795.1 C 539.535 1791.44 561.094 1782.33 577.968 1753.37 C 580.129 1749.66 581.06 1742.73 583.673 1741.38 C 585.25 1746.96 583.937 1751.51 582.422 1756.89 C 573.649 1788.05 542.189 1804.15 512.441 1806.45 C 411.263 1814.26 326.317 1691.31 400.072 1607.95 C 422.618 1582.46 452.421 1566.59 486.641 1564.42 z" fill="rgb(44,86,87)" transform="translate(0,0)"></path>
<path d="M 505.935 1113.82 C 526.096 1132.05 538.977 1185.7 538.651 1212.48 C 538.217 1248.23 525.452 1282.16 499.988 1307.46 C 492.854 1313.89 489.047 1316.68 480.72 1321.18 C 478.1 1266.29 485.052 1204.85 496.404 1151.24 C 498.581 1140.96 502.258 1123.28 505.935 1113.82 z" fill="rgb(44,86,87)" transform="translate(0,0)"></path>
<path d="M 124.634 1300.89 C 139.483 1306.44 170.25 1312.74 186.847 1317.07 C 238.194 1330.47 290.452 1341.71 340.776 1358.85 C 335.557 1363.89 332.522 1365.93 326.42 1369.35 C 286.709 1387.01 262.559 1385.5 219.99 1374.11 C 184.535 1364.62 141.918 1333.49 124.634 1300.89 z" fill="rgb(44,86,87)" transform="translate(0,0)"></path>
<path d="M 204.767 1276.45 C 224.169 1275.01 254.909 1278.97 272.931 1286.09 C 309.791 1300.65 327.846 1314.98 344.294 1350.13 C 322.858 1343.48 301.288 1337.28 279.599 1331.51 C 226.412 1318.87 174.715 1304.98 121.092 1292.91 C 150.362 1283.16 173.992 1277.87 204.767 1276.45 z" fill="rgb(44,86,87)" transform="translate(0,0)"></path>
<path d="M 1936.44 719.713 C 1938.25 721.655 1938.63 724.223 1938.89 726.865 C 1945.05 789.867 1915.22 868.561 1849.56 887.744 C 1843.29 889.576 1835.76 890.216 1829.19 890.839 L 1827.73 890.5 C 1827.32 884.652 1925 737.164 1936.44 719.713 z" fill="rgb(44,86,87)" transform="translate(0,0)"></path>
<path d="M 1927.05 716.085 C 1927.24 716.702 1927.42 717.319 1927.61 717.936 C 1924.54 724.377 1917.52 734.114 1913.39 740.354 L 1891.75 773.501 C 1881.26 789.599 1823.89 881.757 1817.18 886.486 L 1815.52 884.66 C 1807.25 861.434 1806.45 840.513 1816.27 817.231 C 1830.7 783.053 1864.13 750.144 1895.45 730.877 C 1904.94 725.043 1916.73 720.339 1927.05 716.085 z" fill="rgb(44,86,87)" transform="translate(0,0)"></path>
<path d="M 445.349 886.335 C 459.492 886.306 477.114 890.854 486.088 902.336 C 517.54 942.576 477.648 1000.51 459.134 1038.19 C 449.133 1058.55 439.321 1076.38 431.182 1097.37 C 419.305 1127.26 421.805 1140.48 420.13 1170.39 C 418.965 1168.2 417.945 1165.93 417.077 1163.61 C 404.728 1131.26 412.655 1098.34 426.452 1067.74 C 446.715 1025.38 488.347 974.893 483.68 926.553 C 483.07 920.227 476.852 910.494 470.862 907.714 C 425.888 886.837 394.884 933.967 375.499 966.577 C 377.143 926.394 404.658 891.851 445.349 886.335 z" fill="rgb(44,86,87)" transform="translate(0,0)"></path>
<path d="M 1799.99 1404.99 C 1813.98 1404.61 1833.32 1414.44 1844.69 1422.2 C 1866.68 1437.01 1883.73 1458.67 1888.46 1485.15 C 1895.71 1525.68 1868.64 1570.76 1826.62 1576.95 C 1792.73 1581.93 1756.56 1569.05 1743 1535.83 C 1740.24 1529.07 1739.29 1524.41 1738.14 1517.2 C 1736.45 1499.07 1738.48 1491.46 1745.66 1474.91 C 1745.85 1484.27 1745.73 1499.47 1747.17 1508.26 C 1750.05 1525.64 1759.85 1541.12 1774.33 1551.14 C 1832.61 1592.08 1878.5 1541.35 1863.28 1480.92 C 1852.32 1437.41 1834.62 1427.54 1799.99 1404.99 z" fill="rgb(44,86,87)" transform="translate(0,0)"></path>
<path d="M 1973.22 1092.79 L 1974.58 1093.61 C 1974.58 1094.16 1974.58 1094.71 1974.59 1095.26 C 1968.28 1153.36 1924.18 1209.83 1864.51 1219.06 C 1856.3 1220.33 1850.55 1220.32 1842.88 1220.16 C 1842.26 1219.96 1841.8 1219.41 1841.29 1219.01 C 1851.13 1199.33 1952.28 1108.14 1973.22 1092.79 z" fill="rgb(44,86,87)" transform="translate(0,0)"></path>
<path d="M 393.936 1423.2 C 394.802 1425.31 394.906 1424.67 394.253 1426.89 C 387.94 1448.29 367.018 1472.52 348.364 1483.6 C 313.882 1504.1 278.036 1503.57 240.654 1494.41 L 230.546 1490.51 C 275.931 1467.9 346.142 1440.42 393.936 1423.2 z" fill="rgb(44,86,87)" transform="translate(0,0)"></path>
<path d="M 497.832 1112.86 C 497.309 1117.42 494.183 1128.8 493.007 1133.72 C 489.992 1146.18 487.24 1158.71 484.754 1171.28 C 475.8 1217.7 470.457 1274.47 471.893 1321.75 C 465.045 1315.08 462.554 1310.7 457.977 1302.57 C 429.559 1250.24 439.271 1191.09 471.787 1143.16 C 478.246 1133.64 490.026 1121.72 497.832 1112.86 z" fill="rgb(44,86,87)" transform="translate(0,0)"></path>
<path d="M 340.173 1399.37 C 359.116 1397.39 378.542 1401.24 393.27 1413.79 C 382.283 1418.88 367.937 1423.57 356.352 1428.14 C 326.496 1439.94 296.492 1450.76 267.211 1464.01 C 254.503 1469.67 241.84 1475.44 229.225 1481.3 C 233.548 1472.11 238.983 1463.47 245.407 1455.6 C 268.93 1426.61 302.312 1403.3 340.173 1399.37 z" fill="rgb(44,86,87)" transform="translate(0,0)"></path>
<path d="M 1882.65 915.386 C 1915.46 911.669 1954.43 930.061 1977.86 952.127 C 1959.97 954.97 1937.25 954.499 1918.78 955.825 C 1905.44 956.055 1830.68 955.129 1822.31 951.367 C 1821.96 948.112 1822.88 945.758 1825.13 943.345 C 1842.94 924.246 1858.06 918.049 1882.65 915.386 z" fill="rgb(44,86,87)" transform="translate(0,0)"></path>
<path d="M 129.802 940.795 C 139.842 944.111 169.225 967.572 178.07 975.013 C 249.296 1035.35 302.08 1114.54 330.371 1203.49 C 325.382 1200.39 280.08 1125.37 272.324 1113.29 C 231.036 1048.96 187.515 991.571 129.802 940.795 z" fill="rgb(44,86,87)" transform="translate(0,0)"></path>
<path d="M 1965.59 1084.29 L 1969.1 1084.21 L 1969.19 1085.34 C 1964.48 1089.87 1958.79 1093.82 1953.68 1098.13 C 1944.34 1106.11 1935.13 1114.25 1926.06 1122.55 C 1895.44 1150.38 1870.11 1175.95 1841.64 1205.91 L 1839.73 1207.41 L 1838.88 1206.7 C 1838.95 1191.89 1852.55 1158.37 1861.72 1145.45 C 1885.5 1111.93 1925.74 1091 1965.59 1084.29 z" fill="rgb(44,86,87)" transform="translate(0,0)"></path>
<path d="M 1822.62 960.343 C 1870.87 964.694 1920.72 963.782 1969.04 961.795 C 1961.41 967.839 1955.68 972.338 1947.49 977.699 C 1943.39 980.255 1939.19 982.641 1934.89 984.849 C 1912.38 996.573 1891.8 1001.79 1866.74 994.108 C 1851.7 989.501 1829.75 974.468 1822.62 960.343 z" fill="rgb(44,86,87)" transform="translate(0,0)"></path>
<path d="M 1629.41 750.114 C 1629.74 750.206 1630.08 750.297 1630.41 750.388 C 1690.14 773.219 1704.79 830.485 1689.13 884.438 C 1688.29 886.939 1688.42 887.4 1686.62 889.217 C 1684.71 887.127 1678.33 863.621 1676.27 857.699 C 1667.54 832.658 1657.39 809.016 1647.04 784.665 C 1643.57 776.515 1631.17 757.36 1629.41 750.114 z" fill="rgb(44,86,87)" transform="translate(0,0)"></path>
<path d="M 1775.58 457.344 L 1776.3 457.546 C 1774.31 460.075 1758.98 468.768 1754.45 472.643 C 1726.7 496.419 1708.99 517.703 1670.38 523.546 C 1641.86 527.86 1602.16 527.033 1577.07 509.52 C 1567.42 502.778 1564.33 493.581 1562.74 482.608 C 1563.94 475.135 1564.98 471.643 1567.23 464.38 C 1575.47 492.73 1587.53 503.48 1615.88 510.973 C 1648.26 519.532 1681.85 509.719 1709.63 492.505 C 1735.52 476.464 1745.14 463.702 1775.58 457.344 z" fill="rgb(44,86,87)" transform="translate(0,0)"></path>
<path d="M 1622.58 751.08 C 1632.57 774.454 1644.56 797.501 1654.14 821.241 C 1663.07 843.38 1670.13 865.555 1678.37 888.008 L 1677.34 888.646 C 1636.41 862.313 1613.4 816.889 1619.49 768.205 C 1620.2 762.593 1621.48 756.638 1622.58 751.08 z" fill="rgb(44,86,87)" transform="translate(0,0)"></path>
<path d="M 1822.46 1270.68 C 1853.45 1274.21 1908.33 1293.19 1936.6 1305.48 L 1928.26 1310.04 C 1880.29 1330.6 1844.66 1317.03 1822.46 1270.68 z" fill="rgb(44,86,87)" transform="translate(0,0)"></path>
<path d="M 1484.9 379.932 C 1487.95 380.503 1499.34 384.928 1503.51 386.275 C 1516.4 390.528 1529.58 393.846 1542.94 396.204 C 1605.31 407.05 1677.96 405.256 1736.8 435 C 1726.22 434.551 1702.65 429.075 1689.28 427.706 C 1619.2 420.524 1547.36 415.804 1484.9 379.932 z" fill="rgb(44,86,87)" transform="translate(0,0)"></path>
<path d="M 1868.74 1250.4 C 1876.51 1250 1884.3 1251.12 1891.65 1253.68 C 1911.6 1260.77 1934.53 1282.35 1943.52 1301.29 L 1914.25 1289.55 C 1882.12 1277.29 1859.48 1270.6 1825.94 1264.23 C 1842.56 1255.51 1850.28 1251.95 1868.74 1250.4 z" fill="rgb(44,86,87)" transform="translate(0,0)"></path>
<metadata><recraft-signature>{"signed_by": "recraft", "signature_b64": "rZMybGE4Dibxz26wxYDUYD0FERhFlJ3qkSKaWvGRVTKlmqNblgSiDNBFf0mO25kMVKDVxRDd1hm9C7z6WuJ8Cw==", "signing_algo": "Ed25519", "generation_timestamp": 1772546148, "identifier": "082f9a5c-bcc9-4d90-ae99-e62235f7b0bd"}</recraft-signature></metadata></svg>