<svg xmlns="http://www.w3.org/2000/svg" height="1024" preserveAspectRatio="none" style="display: block;" version="1.1" viewBox="0 0 2048 2048" width="1024">
<defs>
	<linearGradient gradientUnits="userSpaceOnUse" id="Gradient1" x1="657.176" x2="613.895" y1="1075.55" y2="1114.94">
		<stop class="stop0" offset="0" stop-color="rgb(1,0,0)" stop-opacity="1"></stop>
		<stop class="stop1" offset="1" stop-color="rgb(12,23,46)" stop-opacity="1"></stop>
	</linearGradient>
</defs>
<path d="M 0 0 L 2048 0 L 2048 2048 L 0 2048 L 0 0 z" fill="rgb(255,255,255)" transform="translate(0,0)"></path>
<path d="M 1023.05 15.747 C 1023.33 15.8617 1025.49 16.6876 1025.93 16.9885 C 1066.07 44.7953 1067.05 101.762 1056.91 144.663 C 1048.64 179.666 1035.78 189.932 1049.21 226.38 C 1063.26 264.527 1086.47 290.831 1118.43 315.493 C 1174.33 358.331 1244.13 378.922 1314.33 373.285 C 1357.04 370.098 1385.99 358.025 1428.9 379.398 C 1441.38 385.615 1457.31 396.575 1462.17 409.792 C 1479.53 457.025 1425.91 478.895 1444.61 533.657 C 1454.42 514.732 1465.4 501.754 1485.74 493.438 C 1502.02 486.347 1552.11 479.971 1558.22 502.85 C 1568.67 541.968 1553.57 589.305 1513.04 603.636 C 1527.86 606.626 1531.47 607.355 1545.89 606.49 C 1576.31 604.664 1599.88 575.875 1629.57 582.062 C 1659.1 588.217 1678.54 628.64 1680.66 656.181 C 1682.27 677.069 1678.48 696.889 1676.34 717.56 C 1673.54 744.551 1672.04 770.027 1674.36 797.054 C 1677.54 836.267 1691.01 873.946 1713.41 906.287 C 1736 939.162 1784.55 990.044 1824.48 1002.31 C 1849.47 1008.82 1876.33 995.009 1900.46 991.412 C 1952.62 983.638 2000.88 979.599 2033.36 1026.83 C 2027.36 1033.71 2020.44 1039.73 2012.8 1044.72 C 1967.23 1074.69 1902.53 1058.91 1853.52 1046.22 C 1815.25 1036.3 1783.62 1071.58 1758.2 1093.85 C 1691.78 1152.01 1665.21 1238.25 1672.9 1324.48 C 1675.3 1351.39 1679.75 1380.28 1678.54 1407.14 C 1677.64 1427.18 1662.62 1450.78 1645.55 1461.16 C 1598.25 1487.84 1571.18 1427.3 1520.5 1458.93 C 1550.25 1473.94 1564.64 1494.77 1564 1529.37 C 1563.41 1561.24 1541 1565.9 1514.44 1564.27 C 1493.58 1562.99 1477.23 1553.51 1465.35 1536.22 C 1462.18 1531.69 1461.06 1527.07 1457.39 1522.76 L 1455.54 1523.27 C 1451.98 1527.74 1452.13 1531.04 1451.14 1536.34 C 1445.05 1569.1 1474.23 1591.12 1466.44 1624.98 C 1462.99 1639.98 1455.53 1651.38 1443.78 1660.98 C 1402.78 1694.47 1362.32 1678.2 1315.4 1673.74 C 1296.89 1671.99 1270.5 1671.89 1252 1673.37 C 1213.48 1676.79 1176.43 1689.84 1144.28 1711.32 C 1113.94 1731.54 1098.59 1749.38 1077.2 1774.54 C 1005.52 1858.84 1077.89 1885.96 1059.29 1977.19 C 1054.74 1999.49 1043.08 2020.22 1023.82 2032.85 C 1017.16 2027.75 1014.47 2024.91 1009.1 2018.59 C 979.326 1980.76 981.206 1945.78 992.274 1899.91 C 999.72 1869.05 1008.19 1853.27 997.735 1820.98 C 987.786 1790.27 962.074 1761.12 938.515 1739.55 C 915.045 1717.71 887.719 1700.42 857.931 1688.56 C 831.025 1677.7 801.387 1671.68 772.311 1670.83 C 722.337 1669.35 666.506 1691.74 619.93 1667.7 C 608.054 1661.6 597.523 1653.18 588.96 1642.94 C 583.471 1636.27 578.127 1627.98 577.591 1619.16 C 575.837 1590.26 619.461 1558.81 604.058 1510.68 C 585.199 1555.42 545.474 1571.42 499.516 1559.68 C 481.656 1555.12 483.865 1498.93 491.576 1483.95 C 502.492 1462.73 514.108 1453.11 535.68 1444.46 C 503.66 1436.46 479.423 1449.55 451.195 1463.63 C 427.16 1475.62 413.893 1474.68 395.249 1454.98 C 352.895 1410.23 373.104 1353.68 375.301 1299.77 C 379.832 1221.71 347.424 1153.01 295.589 1096.39 C 286.996 1086.81 266.45 1066.34 256.333 1059.61 C 215.862 1032.7 187.486 1048.14 146.919 1056.85 C 129.086 1060.81 110.808 1062.38 92.5609 1061.54 C 58.3203 1060.18 37.7017 1052.11 14.6603 1027.02 C 44.6789 980.419 99.5544 983.464 149.222 991.127 C 184.358 996.549 207.977 1013.21 245.789 994.341 C 264.354 985.076 278.044 969.55 291.777 955.143 C 347.137 897.691 374.138 828.753 375.592 749.141 C 376.274 711.767 362.846 671.597 374.34 636.661 C 380.378 619.53 396.37 593.428 414.168 586.475 C 468.091 565.406 474.665 621.234 534.14 593.578 C 517.677 586.814 502.918 576.942 493.69 561.143 C 483.815 545.66 479.66 495.962 501.339 488.891 C 545.903 474.356 577.394 493.368 595.396 532.421 C 620.784 480.796 579.815 472.665 581.932 424.77 C 582.869 417.217 586.659 409.558 591.126 403.674 C 628.527 354.415 691.883 370.802 744.927 373.065 C 762.62 373.746 780.338 373.021 797.915 370.894 C 841.969 365.967 883.954 349.545 919.662 323.277 C 957.08 296.244 1000.79 250.477 1004.91 200.467 C 1004.85 180.146 994.795 159.264 990.378 139.695 C 980.323 95.1499 982.719 44.9006 1023.05 15.747 z" fill="rgb(19,30,59)" transform="translate(0,0)"></path>
<path d="M 1025.7 207.956 C 1054.4 242.982 1054.7 258.21 1074.55 295.841 C 1090.63 325.619 1108.44 354.431 1127.88 382.132 C 1215.98 509.13 1322.08 624.301 1435.31 729.463 C 1473.94 765.35 1513.54 797.679 1554.37 830.907 C 1508.66 862.669 1464.92 897.858 1419.62 930.238 C 1405.96 939.993 1391.3 950.842 1379.09 962.271 C 1369.56 971.059 1361.32 981.153 1354.62 992.253 C 1337.72 1020.48 1342.09 1041.29 1349.42 1070.59 C 1340.46 1094.46 1294.51 1129.25 1273.82 1146.5 L 1204.8 1204.58 C 1117.35 1276.27 1030.53 1348.74 944.366 1421.98 C 899.196 1460.52 856.275 1495.56 816.015 1539.6 C 724.284 1639.93 795.741 1690.22 892.711 1612.96 C 952.409 1564.6 999.176 1502.96 1051 1447.02 C 1133.76 1357.68 1213.15 1265.4 1299.06 1179.04 C 1320.62 1157.36 1342.86 1132.74 1367.07 1114.26 C 1371.6 1111.49 1381.8 1109.62 1386.72 1111.14 C 1454.62 1132.11 1487.26 1094.92 1528.55 1044.8 L 1567.25 997.863 C 1593.27 966.453 1620.84 935.836 1646.51 904.743 C 1670.46 920.405 1692.12 938.801 1717.64 954.096 C 1745.7 970.909 1772.41 981.829 1801.05 996.95 C 1816.11 1004.91 1823.21 1013.28 1836.77 1022.17 L 1838.05 1023.01 C 1830.2 1030.08 1816.95 1043.8 1809.08 1049.02 C 1791.11 1060.96 1768.3 1070.69 1748.77 1080.62 C 1723.59 1093.42 1702.47 1106.44 1679.05 1122.22 C 1637.03 1150.35 1596.14 1180.13 1556.48 1211.48 C 1481.03 1272.26 1394.55 1356.84 1328.73 1427.65 L 1286.7 1473.43 C 1277.4 1483.64 1265.86 1495.77 1257.92 1506.81 C 1260.63 1510.09 1263.97 1513.45 1266.91 1516.57 C 1293.77 1482.06 1318.33 1456.5 1348.34 1424.84 C 1444.35 1323.54 1543.73 1228.54 1660.43 1151.07 L 1661.17 1153.19 C 1610 1196.9 1560.4 1245.53 1511.71 1291.99 C 1452.41 1348.57 1393.54 1406.38 1338.13 1466.79 C 1319.24 1487.38 1296.71 1508.4 1279.48 1530.12 L 1288.3 1538.28 C 1320.84 1503.73 1352.32 1468.39 1385.5 1433.96 C 1458.93 1358.81 1534.28 1285.55 1611.45 1214.24 C 1629.2 1198.01 1647.25 1182.11 1665.59 1166.56 C 1678.23 1156.03 1691.91 1145.84 1704.17 1135.09 C 1672.39 1182.72 1658.6 1235.63 1657.89 1292.65 C 1657.64 1313.02 1659.72 1331.86 1660.24 1351.79 C 1628.96 1317.73 1616.98 1322.16 1577.97 1303.98 C 1583.87 1356.75 1583.95 1423.31 1649.66 1433.42 C 1643.15 1440.95 1636.62 1449.72 1625.99 1450.38 C 1612.06 1451.24 1593.58 1441.28 1580.45 1436.14 C 1529.88 1416.32 1486.37 1424.82 1449.97 1466.03 C 1432.5 1485.8 1420.82 1505.99 1421.96 1533.78 C 1423.49 1570.9 1469.29 1590.06 1439.55 1627.12 C 1433.87 1634.18 1426.27 1639.62 1418.7 1644.04 C 1408.67 1590.29 1366.02 1582.13 1317.92 1584.41 C 1315.16 1584.54 1313.25 1585.27 1311.41 1587.13 C 1309.44 1603.68 1326.35 1646.18 1334.62 1662.2 C 1318.57 1660.15 1303.43 1659.65 1287.59 1657.9 C 1337.11 1608.1 1287.84 1547.16 1249.36 1509.52 C 1211.99 1472.98 1144.39 1416.52 1091.06 1414.63 C 1087.18 1418.45 1085.07 1420.36 1081.97 1424.97 C 1080.97 1427.48 1080.47 1428.17 1077.59 1429.33 C 1074.9 1431.62 1071.92 1433.97 1069.97 1436.85 C 1068.79 1438.59 1065.1 1448.82 1064.14 1449.13 C 1058.43 1450.94 1059.57 1448.52 1055.36 1454.48 C 1045.72 1457 1045.34 1459.18 1041.38 1468.18 L 1033.89 1477.5 C 1053.27 1497.4 1078.3 1518.44 1095.77 1539.55 C 1135.53 1587.59 1182.98 1638.85 1243.33 1661.08 C 1199.33 1665.94 1151.22 1686.96 1117.12 1714.98 C 1128.09 1696.77 1142.41 1681.13 1155.8 1664.8 C 1161.26 1658.14 1174.78 1643.76 1177.21 1636.04 C 1175.92 1632.83 1175.67 1632.9 1173.11 1630.73 C 1164.21 1630.95 1153.14 1648.15 1145.71 1655.6 L 1144.99 1656.31 C 1151.65 1645.55 1157.36 1636.11 1162.24 1624.44 L 1153.4 1617.71 C 1149.17 1623.35 1145.49 1629.24 1141.79 1635.23 C 1122.82 1665.99 1103.63 1697.27 1086.84 1729.29 C 1079.79 1742.82 1072.92 1756.45 1066.23 1770.16 C 1051.85 1800.02 1048.37 1813.11 1023.27 1835.95 C 997.768 1812.04 979.364 1767.41 962.286 1735.23 C 949.398 1710.45 935.757 1686.06 921.381 1662.11 C 916.063 1653.05 904.879 1632.96 898.727 1625.93 L 887.62 1634.42 C 893.254 1643.93 899.789 1654.32 904.295 1664.3 C 898.197 1657.05 885.006 1637.97 875.327 1640.51 C 873.157 1643.04 873.24 1642.82 872.762 1646.11 C 877.306 1656.07 922.606 1704.21 933.318 1716.83 C 889.256 1685.29 845.762 1665.25 791.314 1659.14 C 761.175 1655.76 731.525 1659.45 701.567 1662.33 C 714.769 1648.83 747.863 1595.15 744.751 1578.91 C 740.05 1573.58 724.264 1579.87 717.541 1581.59 C 672.259 1593.21 627.475 1588.33 626.177 1648.61 C 613.437 1638.4 602.234 1626.4 592.915 1612.99 C 603.644 1592.26 612.951 1574.45 620.895 1551.72 C 639.661 1498.05 588.295 1441.68 540.218 1426.71 C 506.588 1416.24 461.831 1439.9 432.076 1456.98 C 415.4 1445.7 408.303 1439.57 397.238 1422.9 C 459.863 1428.94 466.75 1380.58 469.626 1332.95 C 470.073 1325.55 474.531 1310.16 471.115 1304.25 C 461.168 1303.21 411.909 1331.53 401.362 1338.48 C 398.755 1340.2 387.74 1351.85 384.687 1355.05 C 385.65 1335.9 389.225 1315.99 389.568 1296.01 C 390.821 1223.01 371.955 1179.36 332.741 1121.29 C 357.829 1142.67 383.007 1167.95 407.555 1190.35 C 516.524 1290.39 622.158 1394 724.283 1501.02 C 741.508 1518.97 758.151 1537.84 775.42 1555.98 C 777.603 1552.85 780.036 1548.19 781.955 1544.77 C 743.934 1502.32 701.897 1459.96 661.84 1419.49 C 621.123 1377.63 579.777 1336.39 537.816 1295.77 C 480.143 1240.19 420.737 1185.96 362.609 1130.99 C 431.342 1173 509.714 1232.78 566.877 1289.33 C 644.828 1366.44 727.081 1447.65 798.319 1530.57 C 801.163 1527.52 803.787 1524.37 806.485 1521.2 C 776.572 1482.23 731.948 1437.88 697.022 1402.08 C 635.817 1339.79 575.603 1276.59 508.132 1220.9 C 457.149 1178.92 402.668 1141.85 347.524 1105.71 C 312.605 1082.82 279.467 1065.26 242.021 1047.22 C 231.842 1042.31 215.959 1030 206.043 1023.18 C 221.303 1014 236.666 1001.58 252.04 993.681 C 278.465 980.878 303.297 969.464 328.329 953.914 C 510.808 840.559 666.628 691.045 806.987 529.554 C 830.965 501.966 853.597 472.133 875.592 442.87 C 912.614 393.614 948.784 342.669 976.92 287.656 C 993.158 255.907 999.376 234.565 1025.7 207.956 z" fill="rgb(255,255,255)" transform="translate(0,0)"></path>
<path d="M 815.705 1245.74 C 807.416 1250.24 796.8 1259.14 787.543 1264.43 C 775.292 1271.43 759.601 1274.68 746 1269.92 C 672.069 1244.01 591.131 1139.2 553.78 1074.01 C 524.177 1019.32 498.777 958.589 498.245 895.49 C 498.151 884.4 498.889 853.552 509.397 847.885 C 518.596 848.348 556.933 892.39 565.612 901.709 L 635.083 975.959 C 714.097 1060.01 794.059 1143.16 874.953 1225.4 C 885.224 1214.69 891.709 1217.85 899.547 1227.14 C 900.141 1227.85 904.132 1225.69 908.082 1228.78 C 920.305 1238.12 931.629 1247.93 942.439 1258.85 C 952.67 1269.18 950.238 1272.69 954.577 1285.07 L 955.032 1286.34 C 958.782 1287.21 964.102 1288.2 966.819 1290.64 C 975.13 1298.12 1018.71 1340.45 1019.25 1346.77 C 1017.65 1349.78 1015.61 1350.49 1012.61 1352.2 C 1007.97 1356.63 1003.54 1358.97 998.426 1362.86 C 993.376 1366.7 987.874 1372.68 982.968 1375.85 L 983.015 1377.39 C 981.044 1379.13 978.314 1381.68 976.322 1383.24 C 972.848 1387.48 971.955 1388.05 967.385 1391.15 L 960.037 1398.35 C 944.81 1384.68 927.889 1358.48 913.656 1346.23 C 898.014 1332.77 859.104 1314.84 846.187 1294.22 C 843.174 1289.41 850.026 1277.81 852.587 1273.01 C 839.005 1263.78 830.428 1253.45 815.705 1245.74 z" fill="rgb(19,30,59)" transform="translate(0,0)"></path>
<path d="M 956.825 1297.7 C 974.23 1310.72 997.578 1336.28 1012.61 1352.2 C 1007.97 1356.63 1003.54 1358.97 998.426 1362.86 C 993.376 1366.7 987.874 1372.68 982.968 1375.85 L 983.015 1377.39 C 966.26 1361.02 949.73 1344.42 933.429 1327.59 C 940.72 1317.34 948.176 1306.83 956.825 1297.7 z" fill="rgb(252,242,189)" transform="translate(0,0)"></path>
<path d="M 923.678 1340.89 C 925.957 1338.81 926.913 1337.5 929.926 1336.87 C 941.347 1348.53 964.529 1374.84 976.322 1383.24 C 972.848 1387.48 971.955 1388.05 967.385 1391.15 C 953.002 1374.24 938.432 1357.48 923.678 1340.89 z" fill="rgb(252,242,189)" transform="translate(0,0)"></path>
<path d="M 513.589 864.372 C 524.896 873.692 534.792 886.691 544.774 897.463 L 599.957 956.045 C 664.359 1025.35 729.606 1093.87 795.683 1161.58 C 812.082 1178.8 828.59 1195.93 845.204 1212.95 C 850.689 1218.53 856.903 1226.31 863.358 1230.67 C 871.041 1235.87 880.222 1228.43 887.329 1231.44 L 887.763 1233.06 C 880.268 1243.56 871.154 1253.26 862.732 1263.04 C 861.86 1263.87 861.041 1264.31 860.002 1264.9 C 845.31 1253.86 833.787 1241 816.22 1234.03 C 815.894 1234.15 815.566 1234.27 815.243 1234.4 C 814.705 1234.61 814.174 1234.84 813.637 1235.06 C 795.398 1242.47 778.916 1263.36 757.494 1259.83 C 702.899 1250.83 634.123 1166.68 602.14 1123.93 C 549.284 1053.27 500.689 954.161 513.589 864.372 z" fill="rgb(252,242,189)" transform="translate(0,0)"></path>
<path d="M 528.18 922.75 C 532.451 932.641 534.921 943.945 538.338 954.209 C 543.929 971.002 550.638 987.695 557.934 1003.82 C 589.51 1073.58 655.079 1162.02 715.085 1209.86 C 729.695 1221.5 745.36 1230.67 761.53 1239.91 C 737.129 1237.09 712.85 1218.71 694.889 1203.23 C 631.819 1148.85 570.473 1057.37 542.198 979.048 C 535.665 960.953 529.598 942.018 528.18 922.75 z" fill="url(#Gradient1)" transform="translate(0,0)"></path>
<path d="M 899.832 1235.75 C 918.361 1247.52 930.177 1268.08 949.656 1278.7 C 949.528 1281.33 949.522 1284.36 948.626 1286.84 C 945.678 1295.03 925.614 1324.94 919.06 1331.06 C 915.857 1331.78 914.492 1330.74 911.483 1329.56 C 895.085 1321 870.182 1302.14 857.424 1288.69 C 864.094 1271.35 885.149 1247.12 899.832 1235.75 z" fill="rgb(252,242,189)" transform="translate(0,0)"></path>
<path d="M 878.397 1276.46 C 888.499 1281.66 913.46 1300.9 918.633 1310.64 C 918.626 1313.62 918.281 1313.83 916.516 1316.28 C 905.607 1312.58 880.543 1293.52 874.429 1283.61 C 874.53 1280.56 876.554 1278.71 878.397 1276.46 z" fill="rgb(19,30,59)" transform="translate(0,0)"></path>
<path d="M 900.353 1265.62 C 901.771 1265.68 901.85 1265.63 903.472 1266 C 913.53 1268.27 926.703 1278.37 932.28 1286.9 C 934.455 1290.23 933.778 1292.14 932.904 1295.72 C 932.559 1295.77 932.216 1295.84 931.868 1295.86 C 926.944 1296.13 921.88 1291.57 918.353 1288.51 C 912.271 1283.22 900.962 1273.67 900.353 1265.62 z" fill="rgb(19,30,59)" transform="translate(0,0)"></path>
<path d="M 1023.78 431.895 C 1027.51 434.807 1031.12 438.283 1034.26 441.825 C 1051.68 461.507 1059.14 489.301 1057.47 515.196 C 1056.05 537.193 1040.7 580.38 1024.19 594.974 C 1021.79 593.818 1020.27 592.085 1018.74 589.937 C 1014.23 583.586 1010.69 576.268 1007.07 569.378 C 993.512 543.588 986.481 519.238 991.168 489.959 C 994.764 467.494 1005.07 445.539 1023.78 431.895 z" fill="rgb(19,30,59)" transform="translate(0,0)"></path>
<path d="M 1022.06 447.496 C 1023.73 447.753 1024.93 448.175 1026.41 449.079 C 1034.77 454.169 1040.55 470.927 1043.22 479.974 C 1053.92 516.138 1042.16 547.331 1024.91 578.905 L 1023.46 578.533 C 1009.63 561.555 1000.08 532.285 1000.02 510.349 C 999.957 488.301 1006.15 463.487 1022.06 447.496 z" fill="rgb(255,255,255)" transform="translate(0,0)"></path>
<path d="M 948.031 574.384 C 953.396 574.069 958.778 574.418 964.057 575.423 C 983.203 578.933 1000.14 589.979 1011.07 606.086 C 1021.73 621.915 1025.41 642.792 1021.54 661.411 C 1017.16 682.502 1002.96 701.582 984.978 713.186 C 938.964 742.886 887.658 720.487 839.444 710.366 C 808.114 703.789 767.444 702.133 739.611 721.003 C 732.728 725.67 724.936 733.042 723.57 741.673 C 723.09 744.707 723.656 748.106 725.624 750.523 C 728.385 753.913 736.132 752.928 740.135 753.11 L 740.798 754.516 C 739.784 756.275 738.961 757.804 737.289 759.054 C 735.073 760.711 732.708 761.036 730.036 760.59 C 726.283 759.963 722.515 756.606 720.457 753.563 C 717.029 748.497 716.305 742.249 717.709 736.37 C 720.35 725.311 730.716 715.852 740.191 710.109 C 787.061 681.7 848.519 702.357 897.245 714.122 C 925.182 719.612 956.244 721.298 981.215 705.042 C 996.895 694.834 1009.46 675.82 1012.92 657.449 C 1016.03 640.903 1011.89 623.907 1002.39 610.109 C 992.934 596.497 978.401 587.26 962.062 584.48 C 947.13 581.922 930.659 584.788 918.355 593.893 C 909.576 600.389 903.608 609.727 902.033 620.59 C 900.413 631.76 902.212 641.968 909.123 651.04 C 915.362 659.229 924.695 665.14 935.049 666.129 C 941.315 666.727 947.776 665.618 952.598 661.325 C 956.504 657.846 959.463 652.216 959.516 646.931 C 959.552 643.234 958.437 639.224 955.556 636.717 C 952.666 634.202 949.759 634.418 946.281 634.883 C 940.631 638.895 942.973 643.979 941.764 650.068 L 940.109 650.791 C 937.14 649.664 934.063 647.992 932.613 644.982 C 931.292 642.242 931.728 639.046 932.896 636.348 C 934.913 631.686 939.256 628.126 944.027 626.552 C 948.366 625.121 953.082 625.387 957.135 627.545 C 961.839 630.049 964.941 634.599 966.432 639.633 C 968.343 646.088 967.812 653.84 964.216 659.635 C 959.931 666.542 951.477 672.022 943.548 673.507 C 932.647 675.547 920.403 672.317 911.583 665.733 C 901.449 658.169 895.198 646.241 893.534 633.809 C 891.678 620.171 895.495 606.369 904.094 595.622 C 915.092 581.818 931.033 576.079 948.031 574.384 z" fill="rgb(19,30,59)" transform="translate(0,0)"></path>
<path d="M 1088.62 574.309 C 1102.95 572.97 1116.54 574.991 1128.96 582.556 C 1141.59 590.254 1151.18 603.036 1154.26 617.585 C 1156.87 630.097 1154.2 643.133 1146.87 653.609 C 1140.31 663.121 1128.75 671.791 1117.12 673.792 C 1108.75 675.232 1099.57 672.845 1092.71 667.917 C 1086.35 663.338 1081.73 656.352 1080.6 648.53 C 1079.84 643.339 1080.84 638.227 1084.2 634.118 C 1087.54 630.027 1092.71 626.92 1098.01 626.389 C 1102.65 625.924 1107.49 627.107 1110.98 630.32 C 1113.43 632.571 1114.79 635.591 1114.74 638.924 C 1114.69 642.873 1112.71 647.595 1109.93 650.338 L 1108.53 650.233 C 1105.09 646.948 1104.47 640.98 1102.21 636.865 C 1100.88 634.455 1099.8 633.77 1097.24 633.05 C 1096.08 633.564 1095.86 633.588 1094.75 634.496 C 1091.56 637.107 1089.03 643.362 1088.81 647.392 C 1088.59 651.458 1089.98 655.132 1092.75 658.101 C 1097.4 663.087 1104.61 665.513 1111.32 665.361 C 1120.14 665.16 1129.11 660.802 1135.17 654.473 C 1142.38 646.945 1146.69 635.976 1146.44 625.564 C 1146.16 614.065 1140.39 603.517 1131.84 596.025 C 1120.95 586.469 1106.22 582.397 1091.91 583.662 C 1075.62 585.076 1060.6 592.998 1050.23 605.635 C 1039.67 618.49 1034.71 635.967 1036.41 652.468 C 1038.38 671.462 1048.9 689.57 1063.71 701.489 C 1084.88 718.527 1112.15 719.523 1137.98 716.646 C 1188.7 710.293 1236.18 685.473 1288.27 700.865 C 1304.73 705.728 1323.53 715.057 1331.69 731.055 C 1334.8 737.141 1335.84 744.874 1333.38 751.373 C 1332.21 754.469 1330.01 756.874 1326.88 758.037 C 1323.28 759.374 1318.49 759.263 1315.07 757.546 C 1313.83 755.722 1313.56 755.994 1313.81 753.652 C 1315.78 752.536 1314.92 752.745 1317.09 752.543 C 1321.36 752.146 1324.78 752.402 1327.67 748.707 C 1329.3 746.63 1329.41 744.498 1328.98 741.993 C 1327.61 734.098 1317.98 725.694 1311.6 721.285 C 1303.04 715.374 1292.11 711.398 1282.05 708.968 C 1233.83 697.328 1190.16 718.173 1143.54 725.646 C 1115.81 730.091 1084.39 728.341 1060.96 711.218 C 1043.48 698.45 1030.22 678.136 1027.04 656.599 C 1024.3 637.542 1029.22 618.175 1040.72 602.737 C 1052.67 586.731 1068.98 577.192 1088.62 574.309 z" fill="rgb(19,30,59)" transform="translate(0,0)"></path>
<path d="M 1105.55 851.032 C 1117.78 851.491 1130.4 850.46 1142.53 852.034 C 1149.96 852.999 1157.91 855.472 1162.39 861.92 C 1166.22 867.427 1166.41 874.852 1165.11 881.218 C 1163.25 890.291 1157.86 894.984 1150.67 899.981 C 1160.32 913.626 1168.74 926.499 1182.8 936.003 C 1174.14 936.164 1163.31 937.775 1155.86 932.722 C 1148.73 924.272 1143.85 912.574 1136.35 904.872 C 1134.49 902.958 1133.15 902.742 1130.6 902.565 C 1128.83 904.236 1128.33 904.865 1127.75 907.335 C 1126.27 913.617 1127.26 926.979 1131.08 932.412 C 1132.57 934.525 1131.7 932.961 1132.86 935.42 C 1126.51 937.377 1113.99 936.318 1107.31 935.695 L 1106.41 934.563 C 1107.52 933.63 1108.62 932.731 1109.78 931.862 L 1110.85 931.071 C 1111.76 926.724 1111.8 922.477 1111.91 918.052 C 1112.2 905.602 1113.84 867.745 1110.48 857.833 C 1109.56 855.117 1107.49 853.063 1105.55 851.032 z" fill="rgb(19,30,59)" transform="translate(0,0)"></path>
<path d="M 1127.67 860.594 C 1132.15 860.682 1136.98 860.764 1140.94 863.069 C 1144.71 865.261 1148.26 868.798 1149.3 873.168 C 1150.73 879.249 1148.64 884.795 1145.33 889.818 C 1142.47 891.711 1139.16 893.271 1135.78 893.978 C 1133.14 894.528 1131.86 893.939 1129.63 892.638 C 1124.85 884.811 1127.48 869.871 1127.67 860.594 z" fill="rgb(255,255,255)" transform="translate(0,0)"></path>
<path d="M 954.081 851.324 C 971.885 851.383 998.787 847.114 1012.35 860.796 C 1016.68 865.155 1019.02 870.772 1018.87 876.936 C 1018.67 884.714 1014.79 892.315 1009.2 897.61 C 999.614 906.691 988.616 907.412 976.18 906.903 C 975.546 912.978 974.518 920.878 975.905 926.819 C 977.116 932.008 979.69 933.431 983.997 936.067 C 975.304 936.235 963.997 937.819 955.618 935.665 C 955.675 935.233 955.61 934.766 955.789 934.368 C 956.532 932.706 957.898 931.605 958.558 929.732 C 961.757 920.642 960.672 908.893 960.715 899.308 C 960.76 889.235 962.771 865.871 958.86 857.358 C 957.758 854.96 955.912 853.172 954.081 851.324 z" fill="rgb(19,30,59)" transform="translate(0,0)"></path>
<path d="M 976.641 862.219 C 984.571 862.099 992.126 861.679 998.49 867.334 C 1001.01 869.574 1002.69 872.647 1002.8 876.055 C 1003 882.224 999.499 887.58 995.636 892.037 C 991.407 894.739 984.807 897.392 979.735 897.168 C 977.812 897.083 977.601 897.025 976.292 895.564 C 975.209 885.576 974.577 872.024 976.641 862.219 z" fill="rgb(255,255,255)" transform="translate(0,0)"></path>
<path d="M 767.763 851.962 C 776.038 851.377 784.485 851.727 792.783 851.747 C 785.709 862.44 787.484 874.334 787.721 886.562 C 800.445 887.156 813.332 886.88 826.076 886.999 C 826.114 883.831 826.075 880.655 826.148 877.488 C 826.292 871.168 822.607 856.175 823.826 852.611 C 828.881 850.073 841.606 851.757 847.468 851.769 C 845.131 854.378 843.188 857.367 841.17 860.228 C 840.511 873.699 840.72 887.285 840.621 900.772 C 840.567 908.202 839.8 916.443 840.692 923.802 C 841.204 928.033 842.335 931.518 844.938 934.91 C 845.126 935.155 845.325 935.393 845.519 935.635 L 844.166 936.333 C 836.415 936.391 828.321 936.913 820.646 935.808 C 821.31 934.752 821.94 933.694 822.578 932.623 C 827.761 923.921 825.423 908.393 825.4 898.329 C 812.862 898.491 800.286 898.145 787.747 897.987 C 787.759 909.308 785.135 922.884 791.725 932.534 C 792.868 934.207 792.649 934.427 792.733 936.363 C 785.178 938.505 773.62 936.979 765.602 936.976 C 768.098 934.529 771.362 931.98 771.967 928.4 C 773.662 918.384 773.561 868.477 771.396 858.665 C 770.843 856.16 769.233 854.01 767.763 851.962 z" fill="rgb(19,30,59)" transform="translate(0,0)"></path>
<path d="M 1056.42 847.514 C 1070.21 858.269 1079.71 921.127 1104.11 935.863 C 1092.18 936.208 1080.25 936.362 1068.32 936.326 C 1072.06 933.545 1074.18 932.003 1075.14 927.272 C 1074.64 925.542 1074.65 924.585 1073.26 923.305 C 1069.24 919.581 1064.1 920.079 1058.99 919.969 L 1040.19 919.902 C 1039.02 922.676 1038.26 925.098 1037.64 928.044 C 1038.31 930.834 1039.21 932.198 1041.02 934.313 C 1041.22 934.547 1041.43 934.777 1041.63 935.009 L 1041.24 935.827 C 1031.2 936.766 1021.29 937.007 1011.23 937.104 C 1011.33 937.014 1011.44 936.924 1011.55 936.836 C 1026.75 924.598 1039.02 887.929 1046.72 868.982 C 1049.64 861.789 1052.1 854.008 1056.42 847.514 z" fill="rgb(19,30,59)" transform="translate(0,0)"></path>
<path d="M 1056.08 878.539 C 1061.05 884.283 1066.21 901.987 1069.18 909.767 L 1060.09 909.442 L 1043.8 909.175 C 1047 898.714 1051.29 888.359 1056.08 878.539 z" fill="rgb(255,255,255)" transform="translate(0,0)"></path>
<path d="M 789.779 981.072 C 803.034 980.923 827.468 977.994 838.387 986.278 C 843.838 990.414 846.966 996.736 847.689 1003.47 C 848.309 1009.24 846.871 1016.67 842.992 1021.16 C 834.955 1030.48 819.771 1030.94 808.639 1032.25 L 807.923 1033.84 C 807.809 1038.53 807.589 1043.34 807.908 1048.02 C 808.181 1052.01 811.122 1059.51 810.208 1062.95 C 810.025 1063.63 809.479 1064.16 809.115 1064.77 C 802.701 1066.88 793.456 1065.85 786.618 1065.89 C 792.437 1060.54 793.079 1058.55 793.421 1050.9 C 793.987 1038.21 795.831 995.896 793.103 985.749 C 792.527 983.607 791.246 982.664 789.779 981.072 z" fill="rgb(19,30,59)" transform="translate(0,0)"></path>
<path d="M 809.275 992.214 C 815.612 991.641 821.225 991.265 826.739 994.963 C 829.962 997.125 832.047 999.678 832.606 1003.62 C 833.321 1008.67 830.328 1013.7 827.206 1017.35 C 824.115 1018.94 820.747 1020.02 817.346 1020.72 C 814.624 1021.29 812.988 1020.82 810.624 1019.36 C 805.841 1012.4 808.71 1000.35 809.275 992.214 z" fill="rgb(255,255,255)" transform="translate(0,0)"></path>
<path d="M 291.63 992.138 C 308.175 990.475 322.927 1002.56 324.556 1019.11 C 326.185 1035.65 314.071 1050.38 297.52 1051.98 C 281.017 1053.57 266.341 1041.5 264.717 1025 C 263.093 1008.5 275.133 993.796 291.63 992.138 z" fill="rgb(19,30,59)" transform="translate(0,0)"></path>
<path d="M 1017.72 1719.2 C 1020.95 1719.03 1024.1 1718.94 1027.31 1719.42 C 1034.21 1720.45 1040.61 1723.53 1044.73 1729.31 C 1049.4 1735.88 1050.39 1744.35 1049.01 1752.14 C 1046.65 1765.54 1038.09 1778.09 1026.95 1785.67 C 1023.2 1786.72 1020.4 1787.06 1016.83 1785.2 C 1006.71 1779.93 1000.04 1767.11 997.091 1756.42 C 994.771 1748 994.707 1739.31 999.225 1731.59 C 1003.55 1724.19 1009.69 1721.24 1017.72 1719.2 z" fill="rgb(19,30,59)" transform="translate(0,0)"></path>
<path d="M 1021.14 253.927 C 1024.73 253.503 1027.39 253.724 1030.5 255.595 C 1039.23 260.861 1043.93 271.394 1046.26 280.932 C 1049.03 292.258 1050.52 307.243 1043.96 317.423 C 1040.07 323.459 1034.96 324.605 1028.25 325.878 C 1026.99 325.941 1025.76 325.998 1024.5 325.915 C 1017.87 325.477 1011.68 323.401 1007.39 318.085 C 1001.58 310.896 1001.25 300.491 1002.24 291.711 C 1003.88 277.287 1009.65 263.17 1021.14 253.927 z" fill="rgb(19,30,59)" transform="translate(0,0)"></path>
<path d="M 874.455 980.528 C 885.953 980.18 897.484 980.293 908.988 980.238 C 908.489 987.181 909.7 995.784 907.498 1002.31 L 905.798 1001.84 C 904.785 999.776 903.717 997.212 901.964 995.679 C 896.065 990.52 883.096 992.232 875.913 992.368 L 875.872 1014.58 C 879.716 1014.64 883.7 1015.13 887.526 1014.64 C 891.688 1014.1 895.685 1011.69 899.875 1012.05 C 902.262 1016.16 899.206 1028.7 898.551 1033.52 C 895.901 1031.15 892.857 1029.17 889.953 1027.12 L 875.472 1026.93 C 875.395 1034.78 874.194 1044.4 876.16 1051.94 L 877.974 1052.68 C 883.742 1052.73 890.015 1053.21 895.72 1052.42 C 905 1051.13 908.684 1045.22 913.783 1038.21 C 912.476 1047.57 910.552 1056.69 908.438 1065.89 L 856.31 1065.64 C 857.467 1063.77 858.633 1061.88 859.557 1059.88 C 863.633 1051.05 863.063 993.376 859.368 984.963 C 858.69 983.42 858.405 982.889 858.143 981.149 C 862.718 979.648 869.582 980.535 874.455 980.528 z" fill="rgb(19,30,59)" transform="translate(0,0)"></path>
<path d="M 881 851.511 L 909.921 851.178 L 909.9 874.674 L 904.24 863.054 L 877.169 862.642 L 877.222 886.88 C 882.487 887.021 888.227 887.559 893.447 886.927 C 899.181 886.233 901.864 883.101 905.345 878.806 C 905.275 887.878 904.901 896.58 903.235 905.514 L 897.732 898.44 C 891.015 897.887 884.145 898.072 877.402 898.009 C 877.354 906.064 875.693 914.312 877.817 922.168 C 880.112 924.566 881.518 923.95 884.75 924.073 C 889.87 924.031 896.151 924.787 901.08 923.494 C 909.648 921.247 913.237 913.112 917.333 906.095 C 916.303 916.549 913.202 926.338 910.249 936.361 C 894.768 936.629 875.203 938.859 860.192 936.41 L 859.643 935.294 C 861.056 932.546 862.367 929.844 862.69 926.73 C 864.754 906.79 863.067 879.545 862.954 858.933 C 860.73 856.432 858.321 854.066 855.997 851.657 L 881 851.511 z" fill="rgb(19,30,59)" transform="translate(0,0)"></path>
<path d="M 1057.62 984.461 C 1062.49 987.088 1083.8 1041.55 1086.98 1049.94 C 1088.73 1054.57 1090.93 1056.97 1094.31 1060.44 C 1095.73 1061.9 1096.32 1062.93 1096.75 1064.99 C 1093.73 1066.74 1074.62 1065.41 1069.77 1065.37 C 1070.02 1064.93 1070.26 1064.49 1070.51 1064.05 C 1072.12 1061.21 1073.85 1058.54 1073.62 1055.11 C 1073.51 1053.48 1073 1052.35 1071.77 1051.32 C 1067.55 1047.82 1060.87 1049.08 1055.75 1049.32 C 1052.9 1049.24 1048.42 1048.68 1045.83 1049.7 C 1042.5 1051 1040.71 1052.58 1039.29 1055.75 C 1039.88 1059.47 1042.08 1061.37 1044.07 1064.39 C 1039.6 1066.72 1021.65 1065.87 1015.51 1066.07 C 1017.92 1064.5 1020.71 1062.87 1022.59 1060.66 C 1035.98 1044.94 1046.79 1006.03 1056.88 985.926 L 1057.62 984.461 z" fill="rgb(19,30,59)" transform="translate(0,0)"></path>
<path d="M 1056.54 1013.49 C 1060.05 1016.18 1063.98 1026.26 1065.12 1030.61 C 1065.87 1033.45 1066.44 1035.98 1065.03 1038.57 L 1060.25 1039.02 L 1046.22 1039.02 C 1049.04 1030.17 1052.57 1021.89 1056.54 1013.49 z" fill="rgb(255,255,255)" transform="translate(0,0)"></path>
<path d="M 1750.42 995.555 C 1765.44 993.06 1779.7 1003.08 1782.44 1018.07 C 1785.18 1033.05 1775.39 1047.47 1760.45 1050.45 C 1750.57 1052.43 1740.39 1048.92 1733.82 1041.28 C 1727.25 1033.63 1725.31 1023.04 1728.75 1013.56 C 1732.19 1004.09 1740.47 997.205 1750.42 995.555 z" fill="rgb(19,30,59)" transform="translate(0,0)"></path>
<path d="M 752.146 979.213 C 761.659 978.503 769.744 981.765 778.237 985.482 C 774.863 991.431 772.83 998.282 770.528 1004.72 C 769.609 1001.24 768.888 997.676 766.022 995.228 C 762.745 992.428 757.48 990.98 753.215 991.406 C 750.034 991.724 746.854 993.012 744.973 995.734 C 743.245 998.234 743.023 1001.5 743.856 1004.36 C 746.023 1011.79 755.576 1015.88 761.684 1019.61 C 768.615 1023.84 778.225 1029.4 779.932 1038.02 C 780.988 1043.35 778.672 1048.66 775.791 1053.02 C 770.853 1060.51 763.774 1063.93 755.261 1065.84 C 743.14 1066.61 736.227 1064.56 726.207 1057.79 C 727.608 1052.75 729.434 1047.85 731.172 1042.93 C 733.56 1045.74 735.947 1048.79 738.693 1051.26 C 743.135 1055.25 748.135 1055.68 753.91 1055.07 C 757.061 1054.73 760.283 1053.86 762.109 1051.03 C 771.978 1035.77 733.074 1027.05 728.422 1008.85 C 726.836 1002.64 728.483 995.536 731.964 990.237 C 736.606 983.171 744.386 980.926 752.146 979.213 z" fill="rgb(19,30,59)" transform="translate(0,0)"></path>
<path d="M 951.656 979.199 C 961.525 978.595 970.12 981.014 979.549 983.635 C 978.469 989.547 977.536 995.495 976.535 1001.42 C 971.605 996.123 966.079 992.012 958.687 991.019 C 953.434 990.314 948.278 991.868 944.212 995.258 C 937.387 1000.95 934.209 1010.46 933.432 1019.05 C 932.576 1028.52 934.462 1038.85 940.904 1046.16 C 945.331 1051.18 952.157 1054.2 958.825 1054.4 C 966.405 1054.62 971.993 1051.14 977.47 1046.29 C 978.587 1044.49 977.817 1045.23 979.891 1044.18 C 981.919 1047.13 982.336 1050.84 983.152 1054.3 C 978.789 1059 974.571 1062.58 968.509 1064.92 C 959.576 1068.44 949.593 1068.14 940.885 1064.1 C 930.527 1059.3 922.998 1049.68 919.596 1038.92 C 915.784 1026.66 917.009 1013.38 923.001 1002.02 C 929.311 990.218 939.089 983.072 951.656 979.199 z" fill="rgb(19,30,59)" transform="translate(0,0)"></path>
<path d="M 1296.67 888.471 C 1300.81 879.947 1309.17 867.637 1312.23 859.933 C 1313.12 857.667 1311.56 854.81 1310.71 852.701 L 1310.25 851.594 C 1317.85 849.6 1327.89 850.963 1335.8 851.101 C 1325.48 859.822 1318.92 870.659 1311.85 881.966 C 1305.76 891.067 1301.85 897.972 1300.96 909.301 C 1300.17 919.294 1301.06 928.138 1307.79 935.923 C 1299.45 936.065 1289.47 937.312 1281.36 935.478 C 1286.39 925.339 1286.51 910.418 1283.45 899.541 C 1279.99 887.213 1264.45 857.073 1253.53 851.265 C 1259.92 850.887 1276.25 849.724 1281.93 851.792 C 1281.85 852.45 1281.8 853.111 1281.71 853.766 C 1281.42 855.704 1280.67 857.565 1281.15 859.555 C 1283.33 868.637 1291.9 880.177 1296.67 888.471 z" fill="rgb(19,30,59)" transform="translate(0,0)"></path>
<path d="M 832.859 754.413 C 858.749 753.354 884.868 754.094 910.781 754.117 L 1047.55 754.16 L 1164.22 754.132 C 1181.76 754.118 1199.84 752.982 1217.31 753.875 C 1221.14 754.071 1225.6 754.157 1228.24 757.117 C 1227 759.189 1226 758.848 1223.75 759.466 C 1149.39 760.714 1074.8 759.557 1000.42 759.543 L 888.236 759.456 C 871.453 759.445 854.51 760.071 837.751 759.588 C 835.361 759.519 833.677 759.337 831.477 758.29 L 830.987 756.522 L 832.859 754.413 z" fill="rgb(19,30,59)" transform="translate(0,0)"></path>
<path d="M 1246.92 849.418 L 1247.38 849.664 C 1248.92 853.671 1246.4 862.037 1245.31 866.184 C 1243.06 867.647 1242.42 866.326 1240.27 865.256 C 1233.22 861.746 1229.04 861.752 1221.22 861.992 C 1220.05 884.364 1220.65 907.206 1220.63 929.617 C 1222.56 931.937 1224.75 934.109 1226.81 936.315 L 1197.45 936.343 C 1198.79 935.101 1200.28 933.796 1201.48 932.419 C 1205.14 928.217 1204.36 922.682 1204.32 917.488 C 1204.13 898.965 1204.57 880.408 1204.77 861.884 C 1200.46 861.739 1195.81 861.331 1191.53 861.885 C 1184.02 862.859 1180.47 868.146 1176.29 873.743 C 1177.71 865.81 1179.38 857.924 1181.31 850.098 C 1195.17 853.153 1234.05 854.179 1246.92 849.418 z" fill="rgb(19,30,59)" transform="translate(0,0)"></path>
<path d="M 1220.49 979.268 C 1226.27 979.2 1232.5 980.648 1238.22 981.556 C 1236.09 987.629 1234.75 993.699 1233.45 999.993 L 1232.45 999.741 C 1229.05 994.986 1226.06 991.848 1220 991.102 C 1216.53 990.674 1212.62 991.397 1210.12 994.041 C 1208.46 995.804 1207.36 998.817 1207.52 1001.24 C 1208.14 1010.51 1225.52 1019.09 1232.2 1024.88 C 1237.64 1029.58 1242.97 1036.12 1243.29 1043.63 C 1243.56 1049.57 1240.42 1055.2 1236.32 1059.32 C 1228.77 1066.89 1218.6 1067.3 1208.58 1067.03 C 1202.39 1065.4 1197.99 1062.13 1192.9 1058.43 L 1192.94 1040.61 C 1196.04 1044.15 1199.12 1047.99 1202.63 1051.13 C 1207.13 1055.17 1212.82 1056.69 1218.78 1056.07 C 1222.37 1055.7 1226.24 1054.21 1228.17 1050.94 C 1235.81 1038.03 1197.84 1024.72 1194.62 1005.4 C 1193.67 999.716 1195.47 993.845 1198.92 989.288 C 1204.14 982.404 1212.49 980.64 1220.49 979.268 z" fill="rgb(19,30,59)" transform="translate(0,0)"></path>
<path d="M 1248.74 978.213 C 1260.8 984.714 1296.66 981.677 1310.25 978.214 C 1311 985.452 1311.84 992.68 1312.79 999.895 C 1311.72 998.811 1310.63 997.758 1309.51 996.737 C 1303.05 990.944 1294.57 992.265 1286.54 992.585 L 1286.37 1056.63 C 1286.98 1059.8 1288.52 1061.27 1290.64 1063.54 L 1291.51 1064.46 L 1291.19 1065.75 L 1263.77 1065.85 C 1266.37 1063.78 1269.05 1061.72 1270.14 1058.45 C 1272.54 1051.28 1272.96 1000.23 1269.75 993.923 C 1269.13 992.704 1267.2 991.714 1265.85 991.454 C 1257.94 989.935 1249.37 995.589 1243.52 1000.27 C 1245.76 992.912 1247.56 985.824 1248.74 978.213 z" fill="rgb(19,30,59)" transform="translate(0,0)"></path>
<path d="M 694.09 850.833 C 715.389 853.185 737.475 851.657 758.876 851.04 C 758.826 856.14 759.321 860.105 760.743 864.961 L 761.179 866.425 L 759.942 867.577 L 760.903 867.968 L 757.548 865.527 C 751.185 860.889 741.918 862.36 734.441 862.541 C 733.793 881.411 734.138 900.368 734.13 919.25 C 734.204 925.167 735.641 929.623 737.078 935.258 C 733.443 937.838 717.159 936.404 712.156 936.547 C 714.636 934.235 716.663 931.62 718.776 928.975 C 719.439 907.037 719.256 884.994 719.485 863.042 C 708.319 862.869 702.134 862.855 692.983 870.069 C 693.853 863.682 693.922 857.268 694.09 850.833 z" fill="rgb(19,30,59)" transform="translate(0,0)"></path>
<path d="M 1101.62 982.024 L 1125.7 981.981 L 1124.61 983.591 C 1120.5 989.57 1120.07 995.825 1119.86 1002.9 C 1119.63 1010.43 1117.39 1048.32 1122.73 1052.44 C 1127.06 1055.78 1134.99 1054.34 1140.06 1053.86 C 1141.07 1052.95 1142.07 1052.02 1143.12 1051.16 C 1145.04 1049.57 1145.87 1048.28 1148.51 1048.53 C 1149.87 1051.62 1149.19 1055.07 1148.95 1058.35 C 1148.32 1061.37 1148.41 1063.38 1146.19 1065.58 C 1131.55 1067.25 1115.38 1065.39 1100.56 1065.3 C 1102.42 1062.36 1104.39 1059.44 1105.02 1055.96 C 1107.35 1043.02 1107.69 1001.88 1105 989.265 C 1104.41 986.503 1103.21 984.324 1101.62 982.024 z" fill="rgb(19,30,59)" transform="translate(0,0)"></path>
<path d="M 1015.56 980.985 C 1015.39 981.251 1015.21 981.513 1015.04 981.783 C 1014.77 982.226 1014.51 982.678 1014.24 983.123 C 1006.82 995.359 1010.81 1042.58 1010.96 1059.07 C 1013.03 1061.33 1015.16 1062.69 1015.51 1065.8 L 987.872 1065.84 C 990.99 1063.03 993.664 1060.19 996.276 1056.91 C 996.43 1038.59 998.461 1006.1 994.888 989.104 C 993.982 984.795 992.54 983.444 988.928 981.041 L 1015.56 980.985 z" fill="rgb(19,30,59)" transform="translate(0,0)"></path>
<path d="M 1159.14 981.851 C 1166.21 981.326 1173.49 981.604 1180.58 981.565 C 1179.62 983.851 1178.67 986.153 1178.1 988.577 C 1175.97 997.587 1175.41 1047.25 1177.1 1056.34 C 1177.55 1058.76 1178.76 1060.58 1180.06 1062.62 C 1180.94 1064 1180.72 1064.18 1180.68 1065.75 L 1154.86 1065.88 L 1161.87 1058.6 C 1162.85 1043.4 1164.99 993.67 1159.14 981.851 z" fill="rgb(19,30,59)" transform="translate(0,0)"></path>
<path d="M 1075.35 1119.06 C 1078.56 1119.73 1082.26 1120.37 1084.52 1122.98 C 1086.33 1125.07 1087.06 1128.36 1086.95 1131.1 C 1086.84 1133.83 1086.25 1134.71 1084.32 1136.54 C 1079.03 1137.2 1075.17 1134.22 1071.04 1131.34 L 1069.82 1130.48 L 1069.07 1131.34 C 1069.71 1133.8 1069.79 1135.33 1072.02 1136.88 C 1088.59 1148.41 1147.31 1128.86 1168.59 1127.2 C 1184.55 1125.95 1199.14 1128.14 1211.74 1138.82 L 1213.89 1142.02 C 1214.03 1144.45 1214.46 1144.41 1212.89 1146.48 L 1210.23 1146.57 C 1206.85 1145.11 1205.78 1142.19 1204.13 1139.11 C 1167.58 1116.95 1106.95 1158.11 1071.3 1142.28 C 1068.16 1140.89 1065.4 1138.68 1064.21 1135.36 C 1063.12 1132.31 1062.97 1128.14 1064.82 1125.36 C 1067.21 1121.78 1071.46 1120.29 1075.35 1119.06 z" fill="rgb(19,30,59)" transform="translate(0,0)"></path>
<path d="M 972.028 1118.77 C 973.55 1118.98 975.064 1119.24 976.563 1119.58 C 979.854 1120.33 982.702 1122.38 984.348 1125.37 C 986.026 1128.42 986.998 1132.83 985.802 1136.18 C 977.384 1159.79 894.336 1132 875.136 1130.97 C 872.57 1130.83 870.649 1131.62 868.364 1132.61 C 866.321 1135.53 867.052 1136.96 867.344 1140.44 C 866.322 1142.36 865.865 1143.24 863.871 1144.2 C 861.229 1143.25 860.717 1142.03 859.028 1139.85 C 859.303 1138.95 859.606 1138.06 859.938 1137.19 C 862.853 1129.5 869.099 1126.97 876.99 1126.59 C 904.286 1125.25 950.49 1149.4 978.612 1137.06 C 979.813 1134.85 980.254 1134.39 980.083 1131.92 C 977.817 1131.59 973.903 1134.68 971.555 1135.56 C 969.194 1136.44 968.13 1136.42 965.855 1135.45 C 964.257 1132.86 963.767 1129.52 964.458 1126.52 C 965.299 1122.87 968.138 1121.11 971.107 1119.32 C 971.412 1119.13 971.721 1118.96 972.028 1118.77 z" fill="rgb(19,30,59)" transform="translate(0,0)"></path>
<path d="M 1024.6 1108.55 C 1025.99 1109.71 1025.57 1109.17 1026.5 1110.63 C 1032.31 1119.8 1037.6 1126.55 1046.2 1133.21 C 1035.44 1141.5 1031.91 1149.92 1027.32 1162.41 C 1025.86 1161 1026.22 1161.6 1025.39 1159.98 C 1020 1149.46 1014.11 1140.54 1005.87 1132.02 C 1015.2 1125.67 1020.36 1118.87 1024.6 1108.55 z" fill="rgb(19,30,59)" transform="translate(0,0)"></path>
<path d="M 666.561 720.616 C 669.903 719.147 673.776 719.587 676.703 721.767 C 679.631 723.947 681.162 727.532 680.713 731.155 C 680.263 734.777 677.903 737.879 674.531 739.278 C 669.393 741.409 663.496 739.006 661.312 733.891 C 659.127 728.775 661.468 722.854 666.561 720.616 z" fill="rgb(19,30,59)" transform="translate(0,0)"></path>
<path d="M 1371.48 717.293 C 1374.79 716.141 1378.45 716.858 1381.08 719.17 C 1383.7 721.483 1384.87 725.03 1384.15 728.451 C 1383.42 731.871 1380.9 734.634 1377.56 735.677 C 1372.52 737.254 1367.14 734.494 1365.48 729.476 C 1363.82 724.457 1366.49 719.035 1371.48 717.293 z" fill="rgb(19,30,59)" transform="translate(0,0)"></path>
<path d="M 1215.19 1123.76 C 1218.53 1124.2 1220.88 1124.47 1223.52 1126.79 C 1225 1129.74 1224.85 1131.41 1224.45 1134.55 C 1220.94 1134.19 1219.12 1133.64 1216.36 1131.37 C 1214.87 1128.05 1214.92 1127.24 1215.19 1123.76 z" fill="rgb(19,30,59)" transform="translate(0,0)"></path>
<path d="M 1138.6 346.891 C 1153.06 352.164 1166.41 361.4 1180.99 366.995 C 1216.62 380.671 1258.72 388.406 1296.99 387.801 C 1314.32 387.526 1331.62 385.404 1348.84 383.592 C 1324.11 406.958 1323.22 439.469 1309.47 468.685 L 1308.81 470.067 L 1309.43 471.71 C 1311.1 472.414 1311.99 472.405 1313.84 472.153 C 1321.65 471.084 1328.82 465.988 1336.51 464.244 C 1361.57 458.564 1390.14 459.899 1407.48 437.238 C 1416.65 425.237 1418.19 411.081 1416.02 396.573 C 1427.54 401.544 1439.55 407.741 1444.89 419.841 C 1453.77 439.993 1438.36 462.908 1431.6 481.515 C 1422.91 505.467 1420.29 535.277 1431.9 558.723 C 1438.93 572.909 1450.82 578.187 1460.9 589.098 C 1468.15 596.953 1471.57 604.422 1480.78 611.203 C 1504.32 628.523 1539.16 625.985 1565.5 617.198 C 1584.34 610.909 1605.49 595.243 1625.96 602.492 C 1638.22 606.832 1644.38 617.041 1649.56 628.164 C 1643.95 628.453 1638.35 628.858 1632.92 630.376 C 1616.45 634.82 1602.55 645.85 1594.48 660.87 C 1586.75 675.121 1586.47 689.577 1585.93 705.373 C 1585.8 709.417 1586.07 714.087 1585.17 718.007 C 1583.64 724.724 1576.33 733.993 1578.29 740.745 L 1580.03 741.464 C 1587.75 740.194 1595.28 735.952 1602.56 733.09 C 1624.9 724.318 1645.4 718.124 1663.94 702.161 C 1659.36 738.105 1657.29 772.07 1661.8 808.169 C 1667.98 843.957 1679.85 875.493 1697.07 907.369 C 1686.24 898.819 1674.32 891.308 1662.92 883.514 C 1666.01 880.169 1670.78 876.386 1671.55 871.747 C 1670.59 869.507 1670.41 869.388 1668.33 868.091 C 1661.31 867.989 1652.51 879.109 1647.43 883.747 C 1643.05 880.333 1639.29 876.477 1635.42 872.516 C 1640.94 866.342 1647.01 860.54 1652.11 854.004 C 1653.99 851.6 1656.15 848.968 1655.72 845.761 C 1653.17 844.474 1651.75 845.211 1649.02 845.643 C 1647.34 844.561 1646.19 843.944 1644.22 843.588 C 1635.74 847.796 1628.77 857.65 1620.67 863.29 C 1615.75 860.42 1611.19 857.067 1606.56 853.764 C 1613.93 844.996 1622.32 836.963 1630.32 828.766 C 1627.25 826.681 1624.89 823.882 1622.4 821.171 C 1611.81 826.766 1602.28 835.523 1592.17 842.102 C 1587.71 839.113 1583.04 836.396 1578.46 833.588 C 1589.8 823.614 1602.21 814.909 1613.17 804.506 L 1605.12 797.252 L 1587.68 808.42 C 1539.19 767.393 1494.15 722.218 1448.96 677.638 C 1378.44 608.082 1308.4 537.164 1241.55 464.073 C 1206.44 425.686 1173.11 385.79 1138.6 346.891 z" fill="rgb(255,255,255)" transform="translate(0,0)"></path>
<path d="M 905.668 348.99 L 906.432 349.649 C 898.911 360.789 888.043 371.119 879.056 381.167 L 813.331 453.308 C 729.315 545.979 642.292 635.879 552.401 722.865 C 482.2 790.336 409.399 855.778 336.789 920.652 C 382.234 850.963 394.025 787.9 388.747 706.233 L 388.298 702.872 C 390.193 702.747 403.085 713.495 406.265 715.378 C 424.647 726.265 445.955 733.24 466.017 740.413 C 461.895 713.815 467.413 676.25 453.21 653.43 C 442.565 636.327 421.944 626.074 403.013 621.417 C 406.797 615.798 410.989 610.773 416.532 606.781 C 422.813 602.257 430.259 599.45 438.073 599.785 C 457.294 600.609 487.657 619.987 511.877 623.987 C 530.909 627.131 565.458 622.358 578.406 606.687 C 583.289 600.777 584.756 592.233 590.785 587.177 C 595.055 583.596 601.41 583.028 605.867 579.505 C 613.362 573.581 618.052 562.393 621.099 553.573 C 642.252 492.349 595.519 461.238 600.396 428.479 C 602.122 416.886 609.863 409.874 618.898 403.465 C 621.494 410.132 624.553 416.611 628.051 422.853 C 647.504 457.145 668.796 459.994 704.983 466.111 C 716.427 468.045 727.587 470.975 738.76 474.062 C 731.529 440.214 724.141 409.256 698.095 384.781 C 776.419 388.648 834.534 388.858 905.668 348.99 z" fill="rgb(255,255,255)" transform="translate(0,0)"></path>
<path d="M 1077.59 1429.33 C 1080.47 1428.17 1080.97 1427.48 1081.97 1424.97 C 1090.44 1427.83 1099.31 1429.11 1107.98 1431.17 C 1121.51 1434.39 1134.22 1440.29 1146.24 1447.2 C 1125.01 1447.24 1107.99 1450.61 1109.9 1477.47 C 1112.81 1518.44 1141.06 1555.53 1171.43 1582.75 C 1189.19 1598.66 1249.15 1649.59 1275.13 1621.97 C 1277.08 1619.9 1278.62 1615.73 1278.23 1612.71 C 1268.68 1617.85 1264.52 1628.42 1249.43 1621.55 C 1201.44 1599.71 1155.94 1557.4 1129.95 1511 C 1105.65 1467.64 1121.14 1445.63 1170.01 1463.81 C 1187.65 1470.37 1205.36 1490.07 1220.01 1501.75 C 1251.92 1529.48 1334.16 1613.48 1272.32 1648.28 C 1261.92 1654.14 1231.81 1642.73 1221.98 1636.22 C 1147.99 1587.15 1080.59 1523.27 1077.59 1429.33 z" fill="rgb(252,242,189)" transform="translate(0,0)"></path>
<path d="M 1146.97 1474.94 C 1149.5 1474.81 1151.66 1475.28 1154.09 1475.91 C 1195.49 1486.7 1234.45 1522.18 1255.21 1558.75 C 1260.29 1567.69 1272.75 1593.72 1268.74 1603.5 C 1267.77 1605.85 1265.77 1607.34 1263.45 1608.17 C 1256.44 1610.68 1242.78 1604.89 1236.3 1601.96 C 1198.32 1584.79 1152.12 1537.81 1137.38 1498.43 C 1137.09 1496.59 1137.1 1495.72 1137.35 1493.93 C 1142.92 1502.38 1148.34 1510.71 1154.86 1518.48 C 1171.13 1537.85 1238.51 1605.81 1260.89 1606.18 C 1262.54 1606.2 1262.16 1606 1263.55 1604.7 C 1263.87 1602 1263.52 1599.59 1262.9 1596.96 C 1253.82 1558.56 1181.44 1495.84 1146.97 1474.94 z" fill="rgb(19,30,59)" transform="translate(0,0)"></path>
<path d="M 913.626 364.065 C 913.551 364.631 913.548 365.212 913.403 365.764 C 911.316 373.726 875.508 421.023 867.598 431.801 C 797.021 527.966 718.21 613.772 632.427 696.502 C 549.318 776.653 465.644 849.166 367.964 911.206 C 368.038 910.687 367.92 910.101 368.186 909.65 C 370.384 905.93 380.865 898.227 384.736 894.659 L 462.073 823.53 C 503.221 785.987 543.892 747.925 584.076 709.352 C 649.031 645.554 712.567 580.325 774.635 513.715 C 800.072 487.182 825.187 460.342 849.974 433.201 C 870.97 410.096 891.452 386.021 913.626 364.065 z" fill="rgb(255,255,255)" transform="translate(0,0)"></path>
<path d="M 1126.55 355.726 C 1126.83 355.889 1127.13 356.028 1127.4 356.215 C 1132.83 359.974 1153.45 386.025 1159.44 392.705 C 1188.33 424.903 1217.63 456.723 1247.34 488.157 C 1328.77 574.731 1412.39 659.213 1498.12 741.52 C 1520.23 763.031 1542.76 783.699 1565.72 804.277 C 1568.21 806.505 1574.79 811.097 1576.29 813.778 C 1576.55 814.225 1576.55 814.771 1576.68 815.268 L 1574.33 817.899 L 1565.97 822.73 C 1521.77 791.272 1480.98 755.068 1441.23 718.251 C 1371.29 653.774 1305.37 585.071 1243.83 512.528 C 1202.66 464.408 1158.08 410.656 1126.55 355.726 z" fill="rgb(255,255,255)" transform="translate(0,0)"></path>
<path d="M 84.1853 1002.4 C 104.696 1000.41 126.664 1002.27 146.885 1005.99 C 155.368 1007.55 187.337 1013.74 191.719 1021.29 C 192.495 1022.63 191.904 1023.35 191.542 1024.73 C 182.732 1033.88 152.47 1040.88 139.231 1044.01 C 129.498 1045.75 119.767 1047.28 109.884 1047.83 C 82.4436 1049.36 53.6147 1043.74 32.6774 1025.08 C 46.7286 1009.98 64.2781 1004.67 84.1853 1002.4 z" fill="rgb(255,255,255)" transform="translate(0,0)"></path>
<path d="M 1022.49 1845.47 C 1033.4 1870.8 1045.8 1909.5 1047.59 1936.92 C 1049.41 1964.77 1043.82 1992.92 1025.08 2014.19 C 1020.39 2011.23 1016.93 2007.16 1013.94 2002.52 C 996.774 1975.86 997.348 1936.77 1004.72 1907.12 C 1009.89 1886.29 1017.97 1866.6 1022.49 1845.47 z" fill="rgb(255,255,255)" transform="translate(0,0)"></path>
<path d="M 1944.32 1001.45 C 1971.75 1000.99 1995.64 1005.37 2015.92 1024.75 C 2014.42 1026.16 2012.85 1027.51 2011.23 1028.79 C 1987.99 1047.4 1953.06 1050 1924.73 1046.65 C 1898.36 1043.09 1873.58 1033.97 1848.94 1024.36 C 1879.65 1011.49 1910.95 1003.07 1944.32 1001.45 z" fill="rgb(255,255,255)" transform="translate(0,0)"></path>
<path d="M 1022.96 33.4615 C 1028.07 35.8419 1033.78 43.5456 1036.07 48.4915 C 1061.71 103.938 1040.67 146.631 1025.03 197.616 L 1023.4 197.282 C 1006.27 146.527 980.924 79.3421 1022.96 33.4615 z" fill="rgb(255,255,255)" transform="translate(0,0)"></path>
<path d="M 1513.43 501.375 C 1522.59 500.71 1532.15 500.593 1539.44 507.096 C 1545.51 512.508 1547.13 520.598 1547.32 528.377 C 1547.68 543.045 1543.08 559.337 1532.62 569.914 C 1524.73 577.904 1516.08 580.789 1505.05 580.767 C 1496.93 579.192 1489.8 576.602 1483.15 571.488 C 1474.71 565.043 1469.26 555.433 1468.07 544.879 C 1466.94 535.227 1469.36 525.522 1475.56 517.952 C 1485.08 506.335 1499.28 502.977 1513.43 501.375 z" fill="rgb(255,255,255)" transform="translate(0,0)"></path>
<path d="M 533.7 1471.3 C 541.293 1471.41 548.197 1472.52 555.002 1476.08 C 564.393 1480.99 571.886 1489.62 574.946 1499.82 C 577.909 1509.75 576.587 1520.47 571.3 1529.38 C 564.886 1540.11 554.764 1544.71 543.149 1547.65 C 532.651 1549.5 521.146 1549.92 511.869 1543.77 C 504.427 1538.84 500.882 1530.65 499.53 1522.08 C 497.584 1509.73 499.771 1496.46 507.365 1486.31 C 514.046 1477.38 522.885 1473 533.7 1471.3 z" fill="rgb(255,255,255)" transform="translate(0,0)"></path>
<path d="M 529.03 500.227 C 537.263 499.816 545.454 501.231 552.94 504.76 C 564.299 510.113 573.627 520.123 577.561 532.116 C 580.568 541.285 580.33 551.87 575.891 560.545 C 571.091 569.926 563.041 574.747 553.454 578.075 C 544.391 579.511 536.581 578.53 528.404 574.169 C 516.612 567.881 506.434 556.226 502.913 543.268 C 500.312 533.695 500.923 522.346 506.362 513.832 C 511.684 505.501 519.701 502.127 529.03 500.227 z" fill="rgb(255,255,255)" transform="translate(0,0)"></path>
<path d="M 1501.26 1473.21 C 1502.1 1473.1 1502.93 1472.99 1503.77 1472.92 C 1514.29 1472.02 1523.26 1474.81 1531.34 1481.75 C 1540.27 1489.36 1545.83 1500.2 1546.82 1511.9 C 1547.57 1521.89 1545.13 1534.81 1538.4 1542.46 C 1532.88 1548.74 1527.19 1548.9 1519.39 1549.23 C 1512.84 1548.77 1506.65 1547.77 1500.52 1545.28 C 1489.59 1540.83 1479.79 1532.47 1475.21 1521.43 C 1471.78 1513.11 1471.86 1503.76 1475.44 1495.51 C 1480.39 1483.97 1490.09 1477.7 1501.26 1473.21 z" fill="rgb(255,255,255)" transform="translate(0,0)"></path>
<path d="M 1624.06 883.851 C 1628.05 886.827 1631.62 890.318 1635.27 893.698 C 1614.72 919.97 1589.83 944.379 1566.83 968.615 L 1480.35 1061.39 C 1474.78 1059.3 1471.76 1055.17 1468.27 1050.53 C 1483.09 1033.33 1498.93 1016.96 1514.35 1000.3 C 1550.49 961.076 1587.06 922.257 1624.06 883.851 z" fill="rgb(255,255,255)" transform="translate(0,0)"></path>
<path d="M 1595.92 862.847 C 1600.73 865.937 1605.3 869.416 1609.92 872.786 C 1553.15 921.454 1500.4 975.398 1447.58 1028.29 C 1442.3 1028.25 1437.64 1022.82 1434.01 1019.43 C 1445.56 1004.46 1461.81 991.91 1475.35 978.634 C 1515.16 939.611 1555.97 901.709 1595.92 862.847 z" fill="rgb(255,255,255)" transform="translate(0,0)"></path>
<path d="M 1570.3 840.816 C 1574.34 843.766 1577.44 847.094 1580.74 850.793 C 1568.47 860.631 1556.86 871.384 1544.81 881.516 C 1519.77 902.577 1494.56 923.382 1470.01 945.02 C 1452.89 960.108 1428.83 984.043 1410.58 996.107 C 1406.4 993.555 1401.91 991.072 1400.54 986.053 C 1403.23 976.959 1549.93 858.229 1570.3 840.816 z" fill="rgb(255,255,255)" transform="translate(0,0)"></path>
<path d="M 453.964 1325.18 C 456.307 1329.2 451.524 1366.79 450.212 1373 C 447.679 1385 441.725 1395.21 431.154 1401.78 C 420.41 1408.47 407.549 1410.12 395.366 1407.18 C 394.551 1406.28 393.843 1405.37 393.25 1404.31 C 389.087 1396.85 390.03 1383.45 392.277 1375.51 C 399.741 1349.14 432.032 1337.24 453.964 1325.18 z" fill="rgb(255,255,255)" transform="translate(0,0)"></path>
<path d="M 720.511 1595.33 C 722.251 1594.94 722.398 1594.91 724.196 1595.52 C 724.196 1596.96 724.258 1597.14 723.889 1598.77 C 722.573 1604.58 718.572 1610.87 715.865 1616.13 C 708.648 1630.14 703.788 1643.27 689.809 1652.28 C 677.454 1660.25 664.442 1660.99 650.452 1658.18 C 646.23 1655.38 643.664 1652.27 642.608 1647.24 C 640.849 1638.85 642.196 1628.89 647.001 1621.7 C 660.198 1601.97 699.142 1598.97 720.511 1595.33 z" fill="rgb(255,255,255)" transform="translate(0,0)"></path>
<path d="M 1597.04 1329.12 C 1597.36 1329.19 1597.68 1329.26 1598 1329.34 C 1618.25 1334.36 1640.48 1345.82 1651.39 1364.41 C 1661.08 1380.9 1660.44 1399.85 1656.01 1417.78 C 1655.07 1418.63 1655.74 1418.18 1653.7 1418.51 C 1640.46 1408.72 1624.3 1403.4 1612.63 1391.46 C 1597.53 1376.01 1596.92 1349.37 1597.04 1329.12 z" fill="rgb(255,255,255)" transform="translate(0,0)"></path>
<path d="M 658.152 389.348 C 668.25 388.564 677.22 389.68 686.087 394.999 C 705.478 406.631 713.258 431.966 718.366 452.574 C 711.306 451.985 704.26 450.959 697.23 450.071 C 686.211 448.44 674.548 446.3 664.801 440.647 C 648.882 431.413 638.808 413.114 634.333 395.801 C 642.037 392.381 649.852 390.581 658.152 389.348 z" fill="rgb(255,255,255)" transform="translate(0,0)"></path>
<path d="M 401.865 638.758 C 413.483 638.999 427.114 647.306 434.956 655.581 C 450.416 671.895 449.048 696.124 448.886 716.968 L 439.755 714.356 C 425.958 710.237 412.942 703.917 402.714 693.578 C 394.893 685.672 387.716 674.473 388.125 662.999 C 388.491 652.738 394.639 645.328 401.865 638.758 z" fill="rgb(255,255,255)" transform="translate(0,0)"></path>
<path d="M 1645.11 642.31 C 1646.72 642.411 1648.32 642.861 1649.89 643.198 C 1653.85 646.318 1656.24 650.095 1657.8 654.897 C 1660.95 664.592 1660.11 676.671 1655.32 685.685 C 1646.96 701.424 1630.81 707.929 1614.84 713.088 C 1610.18 714.529 1605.61 716.334 1601.02 717.997 C 1600.96 699.154 1600.07 678.027 1611.58 661.926 C 1619.65 650.625 1631.67 644.484 1645.11 642.31 z" fill="rgb(255,255,255)" transform="translate(0,0)"></path>
<path d="M 1330.66 1600.13 C 1345.45 1599.1 1360.84 1599.58 1374.43 1606.15 C 1384.73 1611.14 1393.96 1619.21 1397.56 1630.38 C 1400.63 1639.89 1399.2 1649.54 1394.64 1658.25 C 1392.62 1660.09 1390.37 1661.62 1387.6 1661.95 C 1377.47 1663.14 1360.85 1656.49 1353.01 1650.35 C 1341.51 1641.33 1332.29 1614.73 1330.66 1600.13 z" fill="rgb(255,255,255)" transform="translate(0,0)"></path>
<path d="M 1377.35 388.245 C 1383.12 388.025 1390.48 388.2 1395.46 391.352 C 1399.31 393.789 1401.66 397.495 1402.43 401.977 C 1403.86 410.29 1400.77 419.709 1395.93 426.427 C 1386.48 439.555 1373.12 443.64 1357.96 445.8 C 1349.62 447.176 1341.21 448.248 1332.85 449.464 C 1336.29 434.22 1339.63 417.663 1348.96 404.759 C 1356.21 394.719 1365.45 390.234 1377.35 388.245 z" fill="rgb(255,255,255)" transform="translate(0,0)"></path>
<path d="M 1041.38 1468.18 C 1045.34 1459.18 1045.72 1457 1055.36 1454.48 C 1059.09 1460.84 1061.03 1463.11 1067.04 1467.42 C 1071.16 1480.39 1075.35 1494.62 1080.45 1507.1 C 1070.25 1496.48 1052.11 1477.11 1041.38 1468.18 z" fill="rgb(252,242,189)" transform="translate(0,0)"></path>
<path d="M 1678.37 1138.67 C 1672.52 1144.24 1667.54 1148.17 1661.17 1153.19 L 1660.43 1151.07 C 1665.29 1146.9 1672.83 1142.13 1678.37 1138.67 z" fill="rgb(166,169,182)" transform="translate(0,0)"></path>
<path d="M 1151.45 101.356 C 1170.65 98.6704 1191.3 103.931 1207 115.162 C 1222.89 126.527 1234.84 143.884 1237.82 163.372 C 1240.09 178.177 1236.55 192.821 1227.44 204.753 C 1216.7 218.816 1199.13 228.916 1181.5 230.698 C 1169.17 231.942 1154.78 229.114 1145.21 220.807 C 1138.05 214.592 1133.29 205.467 1133.03 195.895 C 1132.85 188.902 1135.66 182.651 1140.43 177.621 C 1146.37 171.347 1156.33 165.265 1165.23 165.284 C 1169.17 165.292 1171.73 166.54 1174.54 169.225 C 1175.45 176.35 1158.05 180.042 1156.42 188.254 C 1155.54 192.691 1160.8 200.126 1163.68 203.135 C 1169.06 208.762 1176.79 212.247 1184.61 212.223 C 1195.28 212.19 1205.83 205.544 1212.94 197.992 C 1221.08 189.329 1223.95 179.567 1223.22 167.879 C 1222.3 153.24 1214.22 139.345 1203.09 130.024 C 1188.39 117.723 1170.17 113.207 1151.27 115.242 C 1129.35 117.601 1107.37 129.78 1093.76 147.122 C 1080.82 163.612 1075.56 184.616 1078.07 205.343 C 1081.42 233.069 1099.83 254.778 1121.18 271.416 C 1144.8 289.83 1168.54 296.805 1198.34 293.085 C 1222.26 290.098 1244.93 280.205 1258.24 259.285 C 1266.42 246.436 1272.72 232.611 1282.24 220.584 C 1312.04 182.906 1354.6 176.011 1399.51 170.64 C 1391.92 217.72 1380.58 235.653 1344.86 266.732 L 1347.7 266.041 C 1418.14 249.02 1497.91 248.66 1561.47 287.888 C 1584.7 302.223 1614.5 325.881 1620.51 354.191 C 1622.95 365.701 1620.91 377.406 1614.12 387.084 C 1608.78 394.697 1599.94 401.328 1590.57 402.724 C 1579.61 404.357 1567.72 401.352 1559.01 394.491 C 1550.63 387.985 1545.35 378.27 1544.45 367.699 C 1543.6 357.289 1547.13 346.997 1554.18 339.294 C 1562.79 329.87 1573.07 326.636 1585.39 325.983 C 1577.76 318.65 1569.93 311.503 1561.34 305.297 C 1506.17 265.441 1425.08 261.642 1360.93 278.401 C 1314.22 290.603 1274.48 308.955 1225.41 316.944 C 1248.45 324.008 1273.77 324.324 1297.68 324.3 C 1387.93 324.208 1431.79 323.137 1508.24 380.753 C 1539.05 403.973 1566.16 432.444 1593.34 459.67 C 1654.27 520.68 1712.49 576.41 1721.58 667.661 C 1725.23 704.393 1720.93 740.973 1721.35 777.716 C 1721.54 794.416 1723.56 810.679 1725.94 827.169 C 1732.52 798.863 1743.1 772.293 1752.48 744.893 C 1766.12 705.058 1775.73 664.066 1777.65 621.905 C 1780.31 563.826 1767.9 509.439 1728.06 465.831 C 1725.19 463.074 1722.11 460.505 1719.12 457.879 C 1719.24 461.564 1719.39 465.282 1719.23 468.966 C 1718.81 478.687 1714.77 488.192 1707.35 494.618 C 1700.02 500.846 1690.46 503.791 1680.91 502.766 C 1669.98 501.697 1659.43 495.723 1652.57 487.21 C 1646.38 479.648 1643.59 469.874 1644.83 460.186 C 1646.2 449.611 1651.9 439.132 1660.39 432.614 C 1669.05 425.972 1680.16 424.127 1690.76 425.91 C 1716.95 430.313 1739.03 453.061 1754.03 473.5 C 1802.34 539.277 1794.58 621.492 1782.96 697.176 C 1809.07 670.916 1839.09 653.907 1876.27 649.578 C 1872.2 702.431 1860.58 745.612 1814.09 776.267 C 1785.19 795.321 1762.32 795.281 1759.11 834.436 C 1755.55 877.848 1751.3 902.834 1783.6 936.275 C 1813.95 967.701 1845.45 979.792 1887.08 962.272 C 1950.17 936.416 1951.1 832.591 1875.5 827.725 C 1855.8 826.387 1836.51 846.51 1838.94 866.382 C 1840.32 877.629 1850.31 893.703 1863.99 891.293 C 1874.88 889.955 1874.81 873.626 1882.77 873.967 C 1886.51 877.975 1885.77 886.202 1885.81 891.754 C 1867.86 927.072 1822.54 922.199 1816.67 881.145 C 1812.24 850.138 1839.21 818.53 1869.48 813.811 C 1885.92 811.148 1902.75 815.225 1916.15 825.121 C 1933.55 838.232 1944.06 856.507 1947.13 878.027 C 1950.81 902.673 1944.45 927.767 1929.47 947.682 C 1912.44 970.317 1890.23 980.053 1862.8 984.412 C 1799.91 994.405 1756.61 932.087 1730.43 883.443 C 1692.55 813.141 1715.46 733.637 1705.92 659.004 C 1695.14 581.924 1638.81 523.747 1585.8 471.488 C 1537.52 423.897 1483.03 366.831 1415.99 346.904 C 1365.05 331.766 1306.59 341.929 1254.21 336.565 C 1203.54 331.261 1154.92 315.07 1114.08 284.113 C 1064.7 246.683 1038.18 193.857 1080.85 139.949 C 1099.84 115.954 1121.52 105.087 1151.45 101.356 z" fill="rgb(19,30,59)" transform="translate(0,0)"></path>
<path d="M 1859.74 667.185 L 1860.49 667.776 C 1861.19 670.747 1860.42 673.72 1859.83 676.657 C 1852.83 711.592 1837.44 742.086 1807.92 763.142 C 1795.48 772.015 1781.71 779.308 1768.92 787.763 L 1768.07 786.527 C 1769.72 770.808 1776.78 736.268 1784.27 722.627 C 1800.08 693.828 1829.06 676.338 1859.74 667.185 z" fill="rgb(255,255,255)" transform="translate(0,0)"></path>
<path d="M 1380.68 187.433 L 1381.82 188.52 C 1380.99 201.486 1370.86 218.986 1362.77 229.119 C 1339.54 258.225 1302.49 273.878 1266.26 278.075 C 1265.5 277.386 1265.97 277.913 1265.41 276.144 C 1271.89 261.161 1282.26 245.052 1292.3 232.122 C 1314.61 203.358 1345.53 192.009 1380.68 187.433 z" fill="rgb(255,255,255)" transform="translate(0,0)"></path>
<path d="M 188.615 1061.29 C 202.879 1060.16 215.366 1062.17 228.436 1068.05 C 312.971 1106.14 334.929 1215.82 339.407 1299.49 C 342.092 1349.69 335.081 1389.15 353.817 1438.21 C 374.945 1493.54 419.231 1535 460.4 1575.83 C 517.493 1632.45 577.536 1697.39 662.326 1706.56 C 693.947 1709.98 726.053 1707.16 757.772 1706.91 C 802.231 1706.55 839.251 1713.12 880.264 1731.38 C 922.399 1750.14 965.501 1778.56 982.451 1823.69 C 990.835 1846.01 989.069 1868.05 979.036 1889.52 C 967.546 1914.11 947.622 1934.08 921.837 1943.34 C 899.594 1951.32 873.32 1950.48 851.971 1940.11 C 834.755 1931.75 820.703 1916.54 814.552 1898.33 C 809.307 1882.8 809.501 1864.55 817.247 1849.87 C 825.047 1835.09 840.794 1824.18 856.577 1819.4 C 869.131 1815.59 884.351 1815.73 895.976 1822.36 C 904.418 1827.17 910.129 1835.57 912.271 1844.98 C 914.406 1854.37 912.703 1864.58 907.248 1872.55 C 902.808 1879.05 896.149 1883.78 888.336 1885.12 C 882.81 1886.06 876.724 1885.36 872.033 1882.19 C 869.829 1874.9 890.008 1868.28 891.509 1859.12 C 892.314 1854.21 888.439 1848.14 885.242 1844.79 C 880.081 1839.39 872.31 1835.66 864.792 1835.56 C 855.042 1835.43 842.863 1843.51 836.526 1850.22 C 829.025 1858.15 825.018 1868.33 825.522 1879.27 C 826.197 1893.95 833.832 1908.93 844.63 1918.71 C 857.49 1930.36 875.595 1935.76 892.756 1934.91 C 915.139 1933.82 935.875 1923.05 950.786 1906.53 C 965.694 1890.01 973.179 1869.93 971.815 1847.65 C 970.105 1819.7 952.15 1796.71 931.67 1779.02 C 909.791 1760.12 886.24 1748.93 856.895 1751.12 C 825.508 1753.45 794.587 1770.04 779.179 1798.2 C 772.589 1810.25 768.836 1822.79 759.597 1833.34 C 731.116 1865.88 688.019 1872.4 647.345 1875.13 C 656.977 1840.91 671.045 1808.49 696.625 1783.11 C 680.378 1786.36 663.995 1788.88 647.525 1790.66 C 582.627 1797.28 514.839 1789.31 462.816 1746.41 C 445.93 1732.49 428.052 1712.91 426.313 1689.96 C 425.454 1678.62 428.656 1666.62 436.379 1658.09 C 443.531 1650.19 454.05 1645.69 464.624 1645.19 C 475.359 1644.75 485.828 1648.6 493.719 1655.89 C 501.123 1662.63 505.544 1672.04 506.011 1682.04 C 506.362 1690.9 503.332 1699.22 497.168 1705.63 C 486.72 1716.48 472.577 1718.51 458.308 1719.03 C 459.407 1720.46 460.559 1721.86 461.762 1723.2 C 497.244 1762.81 546.531 1775.7 597.498 1778.82 C 687.372 1780.22 743.996 1748.59 826.978 1726.87 C 797.507 1720.53 768.888 1719.89 738.906 1720.77 C 660.652 1723.08 617.846 1721.32 550.58 1675.82 C 521.367 1656.07 496.314 1629.99 471.114 1605.45 C 432.113 1567.47 388.249 1527.77 359.512 1481.19 C 344.169 1456.18 333.637 1428.52 328.459 1399.64 C 323.062 1368.84 326.248 1337.92 325.207 1306.89 C 324.141 1275.12 318.722 1244.5 312.751 1213.36 C 309.66 1244.86 303.627 1275.09 295.864 1305.78 C 280.955 1364.71 264.326 1413.06 272.378 1475.45 C 278.058 1519.45 296.439 1561.76 332.159 1589.48 C 331.376 1584.1 330.202 1578.32 330.494 1572.88 C 331.01 1563.27 335.109 1554.5 342.512 1548.28 C 349.321 1542.56 358.484 1539.32 367.4 1540.23 C 378.669 1541.38 388.877 1548.91 395.502 1557.78 C 402.162 1566.69 405.444 1577.91 403.427 1588.96 C 401.391 1599.62 395.089 1608.98 385.981 1614.89 C 376.348 1621.29 364.473 1623.37 353.237 1620.62 C 325.553 1613.6 299.592 1583.17 285.562 1559.72 C 241.971 1486.85 252.421 1413.8 271.89 1336.49 C 245.669 1374.01 216.194 1391.83 171.024 1400.83 C 169.76 1351.18 188.151 1306.01 230.189 1278.45 C 245.76 1268.24 264.277 1258.84 276.05 1244.07 C 293.047 1222.75 294.371 1196.53 291.495 1170.46 C 288.23 1140.85 272.525 1116 249.344 1097.63 C 231.35 1083.36 209.639 1074.47 186.394 1077.39 C 164.822 1080.11 143.891 1092.67 130.724 1109.89 C 118.108 1126.54 112.707 1147.56 115.735 1168.23 C 118.084 1185.03 125.467 1199.15 139.2 1209.36 C 150.616 1217.85 165.139 1222.59 179.361 1220.12 C 190.366 1218.2 200.423 1212.5 206.623 1203.05 C 211.533 1195.56 214.536 1185.54 212.4 1176.64 C 210.668 1169.43 204.127 1160.14 197.519 1156.64 C 194.621 1155.1 191.622 1154.77 188.475 1155.79 C 180.64 1158.34 176.877 1166.79 173.321 1173.52 L 171.16 1174.09 C 169.015 1173.53 167.84 1173.52 166.893 1171.21 C 164.185 1164.62 167.769 1153.22 171.348 1147.55 C 175.064 1141.65 184.351 1136.77 191.019 1135.45 C 199.187 1133.82 208.783 1135.78 215.615 1140.55 C 223.926 1146.34 228.349 1155.85 230.181 1165.57 C 233.14 1181.27 229.337 1196.92 220.428 1210.08 C 211.538 1223.2 198.397 1232.58 182.558 1235.18 C 165.132 1238.06 146.373 1232.39 132.109 1222.35 C 115.286 1210.5 105.795 1191.96 102.414 1171.96 C 98.2731 1147.18 104.397 1121.78 119.377 1101.61 C 135.759 1079.16 161.408 1065.5 188.615 1061.29 z" fill="rgb(19,30,59)" transform="translate(0,0)"></path>
<path d="M 283.255 1260.92 L 284.14 1262.1 C 282.489 1277.82 273.439 1302.25 266.399 1316.54 C 248.51 1352.87 225.793 1368.58 188.239 1381.23 C 188.104 1381.12 187.937 1381.03 187.834 1380.88 C 186.263 1378.66 186.791 1375.56 187.174 1373 C 192.381 1338.13 207.266 1309.65 237.322 1290.26 C 252.65 1280.37 268.668 1271.97 283.255 1260.92 z" fill="rgb(255,255,255)" transform="translate(0,0)"></path>
<path d="M 791.397 1760.1 L 791.882 1760.25 C 792.011 1762.1 782.004 1770.87 779.978 1773 C 773.355 1779.99 767.541 1786.95 763.134 1795.56 C 757.611 1806.35 754.119 1818.18 746.098 1827.52 C 727.43 1849.26 697.318 1857.1 669.872 1859.37 L 668.36 1858.7 C 667.485 1853.01 674.744 1840.01 677.283 1834.51 C 702.808 1779.2 740.174 1778.77 791.397 1760.1 z" fill="rgb(255,255,255)" transform="translate(0,0)"></path>
<path d="M 1838.32 1063.21 C 1847.55 1062.35 1856.85 1062.69 1865.99 1064.2 C 1890.8 1068.34 1916.3 1082.21 1930.95 1103.02 C 1945.37 1123.49 1950.57 1150.26 1946.1 1174.79 C 1942.5 1194.57 1931.66 1212.71 1914.87 1224.04 C 1901.11 1233.31 1883.27 1237.64 1866.88 1234.38 C 1851.06 1231.24 1837.79 1221.56 1828.93 1208.2 C 1820.47 1195.45 1816.12 1178.73 1819.44 1163.57 C 1821.66 1153.44 1827.62 1144.03 1836.61 1138.62 C 1844.23 1134.1 1853.38 1132.92 1861.9 1135.36 C 1870.11 1137.67 1878.48 1144.17 1882.26 1151.9 C 1885.4 1158.33 1886.6 1166.58 1884.49 1173.45 C 1882.54 1175.39 1882.65 1175.35 1879.9 1175.43 C 1875.29 1172.55 1875.29 1163.94 1871.24 1159.93 C 1868.46 1157.17 1863.95 1155.79 1860.09 1155.6 C 1854.75 1155.33 1849.81 1157.38 1845.92 1160.99 C 1839.65 1166.83 1836.57 1175.47 1836.6 1183.93 C 1836.63 1193.23 1841.34 1202.96 1847.99 1209.35 C 1856.56 1217.59 1868.7 1220.89 1880.38 1220.44 C 1894.98 1219.87 1908.37 1212.97 1917.97 1202.1 C 1930.36 1188.07 1934.72 1169.81 1933.43 1151.43 C 1931.93 1130.13 1921.95 1111.86 1905.76 1098.05 C 1889.77 1084.42 1868.25 1076.22 1847.11 1077.93 C 1819.29 1080.18 1795.19 1098.39 1777.91 1119.15 C 1758.3 1142.69 1751.69 1168.38 1754.48 1198.71 C 1759.76 1256.16 1795.72 1258.67 1833.28 1290.24 C 1857.29 1310.42 1868.63 1337.27 1875.13 1367.39 C 1876.72 1374.77 1878.63 1382.66 1879.14 1390.19 C 1879.4 1394.01 1879.06 1396.57 1876.53 1399.5 C 1875.33 1399.68 1874.31 1399.81 1873.09 1399.67 C 1865.81 1398.88 1857.64 1395.08 1850.72 1392.54 C 1812.85 1378.69 1804.05 1366.82 1778.71 1337.26 C 1796.73 1405.9 1803.19 1480.18 1770.07 1545.52 C 1754.93 1575.4 1729.47 1606.47 1696.41 1616.84 C 1685.15 1620.38 1673.55 1620.35 1663.03 1614.56 C 1654.78 1610.03 1647.98 1601.74 1645.8 1592.51 C 1643.16 1581.29 1644.69 1569.15 1651.01 1559.43 C 1656.75 1550.53 1665.86 1544.35 1676.25 1542.31 C 1686.63 1540.29 1697.55 1542.3 1706.15 1548.59 C 1717.76 1557.07 1721.95 1569.19 1723.86 1582.82 C 1732.98 1574.09 1741.54 1565.02 1748.52 1554.46 C 1790.93 1490.25 1782.66 1410.79 1764.57 1340 C 1754.72 1301.48 1742 1264.32 1734.17 1225.2 C 1729.87 1244.69 1726.35 1264.98 1725.29 1284.94 C 1724.23 1304.81 1725.92 1324.63 1725.89 1344.5 C 1725.81 1395.23 1710.82 1441.76 1683.27 1484.24 C 1654.51 1528.57 1615.19 1567.2 1578.06 1604.48 C 1551.03 1631.62 1523.86 1660.4 1491.5 1681.28 C 1459.82 1701.73 1424.62 1716.45 1386.99 1720.92 C 1364.51 1723.59 1342.07 1721.96 1319.54 1721.04 C 1288.28 1719.76 1257.25 1720.04 1226.52 1726.68 C 1244.66 1731.71 1262.93 1736.55 1280.81 1742.43 C 1342.92 1762.87 1401.43 1784.92 1468.15 1777.33 L 1469.17 1777.25 C 1511.6 1773.65 1561.35 1754.61 1589.33 1721.31 C 1586.41 1721.15 1583.46 1721.01 1580.56 1720.63 C 1568.79 1719.1 1558.15 1712.86 1551.06 1703.34 C 1545.31 1695.5 1542.77 1685.79 1544.41 1676.16 C 1546.3 1665.55 1552.49 1656.2 1561.51 1650.3 C 1570.45 1644.34 1583.04 1641.34 1593.6 1643.91 C 1603.61 1646.35 1613.16 1653.57 1618.24 1662.52 C 1624.21 1673.03 1624.76 1685.96 1621.71 1697.47 C 1614.35 1725.22 1586.09 1748.62 1562.25 1762.33 C 1493.91 1801.64 1412.52 1797.45 1338.88 1777.71 C 1340.46 1778.76 1342.03 1779.82 1343.59 1780.9 C 1380.77 1806.67 1391.72 1834.47 1399.48 1877.38 C 1398.5 1877.29 1397.53 1877.19 1396.56 1877.08 C 1351.14 1872.15 1305.2 1858.72 1277.12 1820.15 C 1268.32 1808.07 1262.65 1794.04 1253.14 1782.37 C 1231.83 1756.2 1200.79 1749.82 1168.87 1746.66 C 1162.84 1749.28 1156.89 1752.06 1151.01 1755 C 1122.07 1769.6 1090.12 1798.24 1080.2 1830.01 C 1073.91 1850.15 1077.95 1871.97 1087.87 1890.24 C 1098.7 1910.59 1117.41 1925.6 1139.63 1931.76 C 1157.32 1936.75 1176.33 1935.6 1192.51 1926.49 C 1206.18 1918.8 1218.47 1905.13 1222.46 1889.74 C 1225.26 1878.96 1223.55 1866.52 1217.77 1856.96 C 1212.41 1848.09 1201.1 1839.14 1190.76 1837.15 C 1182.77 1835.62 1175.8 1837.63 1169.28 1842.32 C 1164.58 1845.69 1157.69 1851.62 1157.44 1857.96 C 1157.07 1867.91 1170.78 1871.1 1175.51 1877.69 C 1176.75 1879.43 1176.47 1880.13 1176.22 1882.11 C 1175.27 1882.86 1175.17 1883.02 1173.88 1883.56 C 1167.93 1886.01 1159.69 1885.21 1153.95 1882.66 C 1146.68 1879.42 1141.48 1873.79 1138.67 1866.35 C 1135.22 1857.19 1134.94 1847.09 1139.1 1838.12 C 1143.42 1828.79 1152.01 1821.72 1161.75 1818.62 C 1175.79 1814.16 1190.93 1817.91 1203.49 1824.82 C 1219.1 1833.4 1231.59 1846.29 1236.27 1863.91 C 1240.57 1880.08 1237.25 1896.19 1228.88 1910.44 C 1218.46 1928.19 1201.37 1941.02 1181.43 1946.09 C 1156.77 1952.31 1130.82 1946.35 1109.43 1933.24 C 1085.55 1918.6 1069.98 1896.25 1063.7 1868.93 C 1058.17 1844.88 1063.54 1823.12 1076.55 1802.44 C 1117.56 1737.22 1207.1 1707.84 1280.85 1706.71 C 1323.13 1706.07 1365.39 1712.6 1407.09 1702.86 C 1437.04 1695.87 1464.29 1683.12 1489.61 1665.8 C 1536.72 1633.58 1639.24 1524.79 1670.68 1477.07 C 1686.14 1454.08 1697.74 1428.72 1705.01 1401.99 C 1714.29 1366.63 1710.89 1332.7 1711.08 1296.85 C 1711.37 1242.96 1726.02 1172.4 1754.75 1126.62 C 1774.19 1095.63 1802.13 1071.37 1838.32 1063.21 z" fill="rgb(19,30,59)" transform="translate(0,0)"></path>
<path d="M 1249.39 1756.79 C 1272.17 1762.17 1297.27 1773.11 1318.05 1783.87 C 1352.21 1801.57 1370.47 1824.17 1381.97 1860.6 C 1343.85 1853.9 1309.95 1841.04 1287.48 1807.89 C 1274.28 1788.41 1266.34 1774.05 1249.39 1756.79 z" fill="rgb(255,255,255)" transform="translate(0,0)"></path>
<path d="M 1767.69 1262.63 C 1772.61 1265.2 1777.21 1269.09 1781.95 1272.09 C 1792.83 1278.99 1804.13 1285.41 1814.58 1292.97 C 1845.23 1315.13 1857.1 1344.37 1863.09 1380.89 C 1852.66 1378.51 1842.5 1375.08 1833.1 1369.93 C 1792.01 1347.45 1780.15 1304.3 1767.69 1262.63 z" fill="rgb(255,255,255)" transform="translate(0,0)"></path>
<path d="M 886.69 100.412 C 906.178 100.634 920.588 103.631 937.676 113.438 C 961.323 126.939 978.52 149.41 985.373 175.763 C 990.381 194.947 989.396 216.48 979.342 234.002 C 947.779 289.006 889.206 316.492 829.506 329.5 C 762.61 344.077 693.136 335.462 626.462 350.169 C 587.926 359.148 552.089 383.809 523.881 412.144 C 457.123 479.204 368.353 546.159 345.379 642.578 C 338.263 672.443 339.85 707.436 338.839 737.51 C 336.729 800.648 325.144 872.316 291.421 926.676 C 259.308 978.445 201.323 1007.23 146.359 971.274 C 103.45 943.204 86.807 886.322 113.76 842.827 C 143.61 794.656 220.715 803.469 230.58 862.238 C 237.487 897.035 213.94 928.698 177.878 905.501 C 170.703 900.886 163.493 881.466 170.03 873.723 L 171.917 873.701 C 175.981 876.62 180.367 884.412 184.282 889.111 C 192.444 893.033 198.749 891.872 205.096 885.474 C 219.424 871.03 217.356 851.468 202.855 838.314 C 180.451 817.993 148.754 824.369 129.965 845.364 C 117.521 859.269 114.385 878.069 115.602 895.87 C 116.163 938.161 162.529 977.597 204.358 971.722 C 257.449 964.266 299.94 908.994 293.811 856.256 C 290.73 830.41 277.738 806.767 257.572 790.31 C 247.242 781.977 234.41 774.166 223.511 765.695 C 186.256 736.739 172.894 694.863 167.608 649.491 C 206.183 652.233 238.39 675.728 265.936 700.529 C 251.478 630.935 248.215 555.886 283.617 491.578 C 298.187 465.044 320.61 437.574 350.624 428.422 C 371.794 421.967 398.044 430.554 402.942 454.291 C 405.07 464.679 402.806 475.485 396.687 484.145 C 390.681 492.757 381.159 499.236 370.749 501.015 C 361.433 502.619 351.869 500.285 344.339 494.571 C 334.252 486.905 331.86 478.353 330.206 466.752 C 330.086 462.963 330.769 461.602 328.9 459.243 C 324.17 460.27 307.293 480.883 303.755 486.258 C 264.907 546.074 264.019 626.403 279.856 693.946 C 288.534 730.955 302.9 766.168 308.66 804.089 C 310.261 814.631 311.838 825.436 313.803 835.858 C 317.919 811.056 323.717 776.792 324.213 752.076 C 325.665 679.661 320.262 631.502 361.811 565.979 C 391.532 519.108 429.83 483.451 469.246 444.516 C 500.02 414.118 531.988 381.52 568.968 358.608 C 590.986 344.966 611.603 338.373 636.887 333.56 C 692.854 322.907 764.323 329.561 818.506 316.508 L 819.633 316.225 C 744.442 299.126 678.243 265.127 599.483 268.676 C 546.871 271.046 494.224 289.383 457.984 328.808 C 471.235 328.686 484.953 330.304 494.45 340.443 C 530.366 377.417 461.184 426.505 434.766 388.934 C 409.435 352.908 448.803 311.415 475.55 293.434 C 546.514 245.73 620.178 250.63 698.409 265.067 C 674.505 240.997 656.709 204.533 647.924 172.062 C 684.189 174.375 716.015 177.906 746.013 200.507 C 765.953 215.53 769.442 224.386 779.259 246.479 C 797.062 286.547 859.792 303.54 898.478 288.46 C 923.457 278.724 953.165 250.576 964.06 225.732 C 971.919 207.636 972.874 182.434 965.108 163.941 C 948.781 124.975 899.894 103.055 860.405 119.517 C 838.029 128.964 821.413 154.985 826.908 179.408 C 831.306 198.954 856.687 217.548 876.332 207.925 C 882.034 205.132 890.28 197.633 892.121 191.654 C 895.112 181.944 875.418 175.536 871.95 168.993 L 872.83 167.055 C 882.324 160.936 891.792 165.506 900.624 170.991 C 915.546 180.257 920.162 199.664 908.367 213.792 C 876.951 251.42 813.402 218.813 811.731 174.405 C 811.017 155.444 817.447 138.267 830.354 124.098 C 846.233 106.785 864.161 101.569 886.69 100.412 z" fill="rgb(19,30,59)" transform="translate(0,0)"></path>
<path d="M 668.447 187.293 C 674.39 187.912 680.317 188.669 686.223 189.567 C 710.627 193.365 738.973 203.4 752.284 225.818 C 757.704 234.945 760.83 245.382 766.171 254.544 C 770.958 262.756 777.913 270.245 783.531 277.947 C 758.243 278.515 733.446 270.908 712.826 256.257 C 695.865 244.22 671.856 207.557 668.447 187.293 z" fill="rgb(255,255,255)" transform="translate(0,0)"></path>
<path d="M 184.233 667.334 C 200.015 672.668 214.335 679.08 228.193 688.404 C 268.378 715.445 274.322 746.18 282.936 791.284 C 275.688 786.323 269.229 779.885 261.983 774.754 C 213.164 740.18 199.106 727.275 184.233 667.334 z" fill="rgb(255,255,255)" transform="translate(0,0)"></path>
<metadata><recraft-signature>{"signed_by": "recraft", "signature_b64": "ols/ZQklj/pNLIZ+MGdXtB/RUznZBREmLeIv9g8De4l6Qv+C1mUZgYtHbDZnBKk8jCXNZZkGHo241/e6q9EzAA==", "signing_algo": "Ed25519", "generation_timestamp": 1772546293, "identifier": "ad0cced8-219c-4f7e-9c6d-fb6bf25463b7"}</recraft-signature></metadata></svg>