<svg xmlns="http://www.w3.org/2000/svg" height="1024" preserveAspectRatio="none" style="display: block;" version="1.1" viewBox="0 0 2048 2048" width="1024">
<path d="M 0 0 L 2048 0 L 2048 2048 L 0 2048 L 0 0 z" fill="rgb(255,255,255)" transform="translate(0,0)"></path>
<path d="M 289.516 47.3185 C 303.89 45.31 317.481 48.953 331.12 52.9223 C 406.392 75.3194 392.084 161.349 449.201 204.658 C 489.511 235.223 534.208 236.815 566.816 194.374 C 589.015 165.481 587.245 121.587 556.326 99.3036 C 521.599 74.276 467.961 99.5687 477.719 144.838 C 479.444 152.941 484.4 161.169 491.74 165.284 C 499.161 169.457 507.977 170.38 516.101 167.835 C 526.187 164.583 532.33 156.544 527.284 145.939 C 522.744 136.399 507.62 146.333 500.446 144.133 C 496.971 143.067 497.959 135.795 499.425 133.347 C 505.337 122.886 524.893 125.991 533.188 130.996 C 540.111 135.174 542.758 145.068 544.439 152.317 C 544.029 154.007 543.584 155.688 543.105 157.36 C 536.506 180.578 511.123 190.727 491.737 181.821 C 435.887 156.161 465.178 76.2311 520.914 75.305 C 530.311 75.1489 538.499 76.8277 547.107 76.8225 C 569.992 76.8088 592.715 76.9035 615.519 76.9373 L 1038.94 77.019 L 1175.5 77.1538 C 1199.58 77.1295 1223.86 76.8865 1247.95 77.0126 C 1250.85 77.0278 1257.04 77.7556 1259.57 78.9772 C 1263.01 80.6344 1262.76 80.5375 1263.96 83.38 C 1263.13 86.9463 1263.36 86.8207 1260.88 89.4489 C 1257.66 90.9274 1254.28 91.1058 1250.76 91.1464 C 1160.18 91.4749 1069.6 91.1751 979.029 90.2473 L 569.047 90.2955 C 624.07 145.016 588.75 224.87 518.537 240.911 C 579.455 256.395 606.787 335.092 577.032 388.407 C 558.078 422.369 534.472 432.935 499.007 443.453 C 503.38 458.615 530.605 513.569 527.133 524.863 C 524.352 526.24 520.546 525.75 517.659 524.898 C 491.756 517.258 466.929 504.733 440.769 498.028 C 420.724 596.589 294.513 613.918 240.848 530.557 C 236.973 548.916 230.138 562.094 216.728 575.548 C 200.406 591.832 178.233 600.889 155.177 600.689 C 130.301 600.707 111.739 591.265 94.4346 573.862 C 93.4798 615.244 94.9298 662.315 94.9903 704.417 L 95.0236 986.836 L 95.0117 1957.72 C 159.789 1956.87 225.29 1957.51 290.108 1957.51 L 618.043 1957.25 L 1477.12 1957.9 C 1464.55 1942.48 1455.88 1930.38 1453.51 1910.16 C 1447.24 1856.56 1482.44 1812.1 1535.34 1805.33 C 1494.71 1794.5 1467.72 1771.23 1458.97 1728.72 C 1453.79 1702.94 1459.14 1676.16 1473.81 1654.34 C 1492.15 1626.88 1517.67 1614.13 1549.16 1607.74 C 1545.54 1596.6 1521.31 1537.06 1521.95 1532.2 C 1522.33 1529.35 1522.82 1529 1524.93 1527.33 C 1532.6 1525.7 1550.82 1532.86 1559.15 1535.47 C 1575.47 1540.69 1591.88 1545.6 1608.38 1550.2 C 1622.63 1493.06 1661.74 1458.45 1721.99 1462.37 C 1762.82 1465.03 1784.5 1490.44 1808.98 1518.55 C 1824.57 1450.52 1902.42 1420.67 1954.66 1474.29 L 1955.12 790.131 L 1955.12 716.253 L 1967.93 720.033 C 1968.55 777.988 1968.81 835.946 1968.69 893.904 L 1968.69 1255.84 L 1968.86 1458.53 C 1968.86 1470.9 1968.73 1483.94 1969.11 1496.27 C 1969.62 1508.93 1971.55 1521.04 1969.47 1533.69 C 1963.97 1567.05 1929.99 1592.46 1896.49 1586.35 C 1884.67 1584.26 1874.22 1577.45 1867.54 1567.47 C 1860.05 1556.45 1858.18 1547.28 1860.28 1532.56 C 1863.59 1509.44 1894.93 1487.98 1912.26 1511.34 C 1916.82 1517.49 1915.49 1527.72 1913.53 1535.4 C 1905.39 1543.82 1892.73 1549.47 1883.01 1536.34 C 1881.59 1534.42 1882.4 1531.85 1883.02 1529.75 C 1890.68 1523.41 1896.62 1532.1 1902.01 1526.9 C 1902.66 1513.94 1890.45 1511.2 1881.06 1521.56 C 1863.22 1541.26 1882.32 1575.72 1908.43 1571.42 C 1986.15 1558.61 1960.62 1457.83 1891.37 1461.15 C 1844.82 1464.02 1815.04 1511.3 1820.49 1555.18 C 1824.26 1585.53 1848.05 1612.99 1874.66 1627.04 C 1885.41 1632.85 1897.6 1636.55 1908.62 1641.87 C 1926.33 1652.77 1950.91 1663.39 1966.89 1675.67 C 1986.5 1690.74 1997.95 1717.78 2000.3 1741.83 C 2005.61 1796.12 1960.92 1848.62 1906.83 1853.52 C 1918.84 1877.81 1932.38 1915.02 1940.21 1941.44 C 1932.53 1939.49 1916.34 1933.18 1908.17 1930.27 C 1889.06 1923.39 1869.88 1916.7 1850.63 1910.2 C 1840.15 1953.28 1816.34 1987.63 1771.35 1998.42 C 1744.29 2005.12 1715.66 2000.7 1691.88 1986.16 C 1666.84 1970.68 1650.59 1945.65 1646.83 1916.59 C 1645.92 1909.53 1636.74 1900.99 1633.5 1894.7 C 1620.99 1870.45 1611.84 1844.28 1586.97 1829.68 C 1568.19 1818.76 1545.78 1815.92 1524.88 1821.81 C 1502.68 1827.96 1488.48 1839.62 1476.88 1860.07 C 1449.46 1908.43 1481.65 1973.99 1542.68 1956.63 C 1565.52 1950.13 1581.87 1921.2 1571.47 1898.68 C 1567.53 1890.14 1563.18 1883.67 1553.86 1879.68 C 1536.37 1872.12 1514.13 1880.81 1522.06 1902.93 C 1525.46 1912.42 1541.33 1898.51 1546.97 1902.58 C 1559.47 1910.52 1543.35 1923.16 1534.73 1922.97 C 1505.66 1922.36 1497.4 1891.66 1515.58 1872.73 C 1522.31 1865.65 1531.59 1861.57 1541.36 1861.4 C 1569.37 1860.89 1589.51 1889.72 1589 1915.28 C 1588.4 1945.13 1561.9 1971.85 1532.03 1972.8 C 1519.82 1973.19 1508.06 1971.88 1496.04 1971.65 C 1472.14 1971.4 1448.24 1971.35 1424.33 1971.48 L 1116.12 1971.28 L 81.0921 1971.19 L 80.7892 913.643 L 80.44 620.416 C 80.2323 589.437 76.952 558.034 77.5685 527.033 C 77.7663 517.088 80.316 506.726 84.3474 497.657 C 90.3658 484.172 101.587 473.698 115.454 468.622 C 141.978 458.818 176.768 469.879 186.814 498.317 C 197.275 527.928 168.149 561.64 138.499 544.411 C 133.083 541.295 129.165 536.114 127.64 530.055 C 124.65 518.638 130.966 501.74 143.107 499.509 C 158.666 502.724 139.764 516.603 140.507 527.244 C 141.465 529.387 142.127 530.633 144.323 531.777 C 165.757 542.945 181.515 517.185 171.58 498.754 C 168.749 493.501 167.342 492.288 162.636 488.934 C 130.103 463.929 89.4989 489.503 91.5452 528.478 C 94.2111 579.254 147.741 598.13 188.505 577.72 C 205.712 569.294 218.788 554.279 224.77 536.079 C 234.686 506.144 222.726 482.614 211.91 455.071 C 208.632 446.726 205.128 438.902 201.052 430.909 L 201.137 431.376 C 192.476 429.321 183.275 425.48 174.964 422.26 C 149.18 411.698 118.641 400.656 94.8346 386.276 C 46.0521 356.809 32.4266 289.775 64.2447 242.907 C 84.6578 212.839 107.769 203.505 141.295 196.287 C 128.535 165.839 117.292 133.558 106.129 102.4 C 136.682 114.96 162.284 125.348 194.102 136.489 C 205.975 87.7728 239.508 54.3787 289.516 47.3185 z" fill="rgb(125,105,65)" transform="translate(0,0)"></path>
<path d="M 1540.25 1544.19 C 1558.33 1550.41 1576.58 1555.84 1594.84 1561.55 C 1609.5 1566.12 1604.68 1572.71 1607.28 1585.66 C 1614.91 1623.6 1642.85 1649.44 1678.36 1662.46 C 1705.73 1672.5 1727.29 1675.33 1752.23 1657.25 C 1767.11 1646.05 1775.64 1643.34 1794.07 1642.16 C 1807.64 1641.29 1821.39 1636.12 1833.65 1630.34 C 1819.01 1656.23 1820.1 1673.59 1813.58 1700.57 C 1811.51 1709.17 1798.14 1722.09 1795.27 1735.08 C 1789.98 1759.14 1793.22 1779.77 1805.32 1800.94 C 1818.2 1823.45 1838.88 1840.46 1863.45 1848.74 C 1872.29 1851.64 1883.07 1853.51 1892.52 1856.05 L 1893.31 1857.82 C 1899.88 1872.06 1907.32 1895.34 1912.73 1910.71 C 1913.31 1912.66 1913.57 1914.07 1914 1916.06 L 1913.08 1916.79 C 1892.77 1909.43 1872.06 1900.52 1851.52 1894.15 C 1850.64 1843.04 1809.16 1797.28 1757.38 1792 C 1728.12 1789.02 1709.92 1800.77 1688.45 1819.01 C 1672.04 1818.69 1649.65 1823.69 1634.35 1829.4 C 1638.3 1811.41 1639.33 1787.4 1644 1771.41 C 1650.04 1750.72 1668.3 1734.45 1667.21 1708.57 C 1666.05 1681.06 1648.64 1653.03 1630.03 1633.8 C 1610.89 1614.01 1591.36 1605.07 1564.14 1604.94 C 1555.97 1584.04 1549.1 1565.11 1540.25 1544.19 z" fill="rgb(255,255,255)" transform="translate(0,0)"></path>
<path d="M 130.332 127.972 C 150.825 135.431 172.718 144.16 193.375 151.887 C 197.452 195.775 213.75 223.561 254.364 244.813 C 276.924 256.619 310.45 260.074 333.041 246.436 C 351.042 235.568 358.794 229.811 380.856 228.927 C 386.431 228.464 413.255 218.155 420.483 215.621 C 414.96 226.829 405.492 249.947 404.13 262.167 C 401.879 282.361 403.549 281.077 392.809 298.874 C 385.832 310.536 381.704 323.68 380.76 337.238 C 379.242 361.297 389.604 388.526 405.501 406.451 L 402.854 406.96 C 375.438 382.413 335.273 373.071 300.685 386.445 C 291.367 390.049 281.84 398.843 272.535 401.575 C 257.074 406.116 238.988 409.019 222.891 410.192 C 228.119 389.236 229.604 366.707 235.297 346.16 C 238.799 335.886 245.021 326.875 248.777 316.644 C 256.157 296.54 251.191 270.648 241.96 251.695 C 230.462 228.482 210.423 210.622 186.046 201.859 C 176.405 198.344 166.396 196.385 156.146 192.871 C 147.796 174.549 138.523 147.824 130.332 127.972 z" fill="rgb(255,255,255)" transform="translate(0,0)"></path>
<path d="M 1712.96 1475.44 C 1713.44 1475.36 1713.93 1475.27 1714.41 1475.19 C 1756.78 1477.8 1804.58 1515.32 1801.2 1561.08 C 1798.8 1593.67 1773.91 1628.08 1746.07 1644.52 C 1734.57 1651.32 1724.92 1656.58 1711.46 1655.67 C 1692.69 1653.71 1665.97 1642.68 1650.87 1630.77 C 1611.86 1600 1612.36 1545.86 1642.72 1509.04 C 1661.91 1485.77 1683.47 1478.15 1712.96 1475.44 z" fill="rgb(255,255,255)" transform="translate(0,0)"></path>
<path d="M 1709.38 1491.71 C 1743.46 1488.49 1773.67 1513.57 1776.75 1547.66 C 1779.84 1581.75 1754.63 1611.85 1720.53 1614.8 C 1686.62 1617.73 1656.73 1592.7 1653.66 1558.8 C 1650.59 1524.91 1675.5 1494.92 1709.38 1491.71 z" fill="rgb(125,105,65)" transform="translate(0,0)"></path>
<path d="M 1712.73 1506.14 C 1738.8 1504.68 1761.08 1524.7 1762.4 1550.77 C 1763.72 1576.84 1743.58 1599.01 1717.5 1600.19 C 1691.62 1601.36 1669.66 1581.41 1668.35 1555.54 C 1667.04 1529.67 1686.87 1507.6 1712.73 1506.14 z" fill="rgb(255,255,255)" transform="translate(0,0)"></path>
<path d="M 1740.46 1807.24 C 1746.4 1806.64 1754.3 1806.63 1760.2 1807.4 C 1797.33 1812.21 1829.75 1845.18 1836.1 1881.66 C 1842.11 1916.11 1824.27 1950.6 1797.1 1971.13 C 1784.7 1980.51 1771.39 1984.29 1756.26 1986.65 C 1715.29 1993.2 1669.21 1961.64 1661.66 1920.56 C 1652.68 1871.71 1692.22 1816.36 1740.46 1807.24 z" fill="rgb(255,255,255)" transform="translate(0,0)"></path>
<path d="M 1737.5 1848.15 C 1771.5 1844.32 1802.11 1868.9 1805.71 1902.92 C 1809.31 1936.94 1784.53 1967.39 1750.48 1970.76 C 1716.77 1974.1 1686.67 1949.6 1683.1 1915.9 C 1679.54 1882.21 1703.83 1851.95 1737.5 1848.15 z" fill="rgb(125,105,65)" transform="translate(0,0)"></path>
<path d="M 1740.22 1862.21 C 1766.12 1859.8 1789.1 1878.75 1791.66 1904.63 C 1794.22 1930.51 1775.4 1953.61 1749.54 1956.32 C 1723.46 1959.05 1700.13 1940.05 1697.55 1913.95 C 1694.97 1887.86 1714.11 1864.64 1740.22 1862.21 z" fill="rgb(255,255,255)" transform="translate(0,0)"></path>
<path d="M 499.562 253.48 C 500.731 253.521 501.899 253.569 503.066 253.624 C 548.523 255.725 578.099 303.874 574.932 346.339 C 571.113 397.538 524.74 432.581 474.466 429.587 C 410.313 422.328 369.232 342.744 415.247 291.543 C 438.656 265.496 465.281 256.582 499.562 253.48 z" fill="rgb(255,255,255)" transform="translate(0,0)"></path>
<path d="M 486.671 273.697 C 521.192 267.858 553.847 291.298 559.36 325.872 C 564.873 360.447 541.127 392.88 506.503 398.067 C 472.336 403.186 440.424 379.822 434.984 345.705 C 429.544 311.588 452.606 279.458 486.671 273.697 z" fill="rgb(125,105,65)" transform="translate(0,0)"></path>
<path d="M 491.32 287.549 C 517.652 284.387 541.655 302.921 545.258 329.196 C 548.86 355.471 530.732 379.782 504.521 383.825 C 487.17 386.502 469.725 379.612 458.886 365.801 C 448.046 351.991 445.499 333.409 452.221 317.191 C 458.943 300.973 473.889 289.641 491.32 287.549 z" fill="rgb(255,255,255)" transform="translate(0,0)"></path>
<path d="M 322.831 396.044 C 354.251 391.196 385.853 403.609 405.574 428.545 C 425.295 453.481 430.093 487.092 418.136 516.55 C 406.179 546.008 379.312 566.766 347.79 570.903 C 299.813 577.198 255.703 543.716 248.865 495.813 C 242.027 447.91 275.008 403.423 322.831 396.044 z" fill="rgb(255,255,255)" transform="translate(0,0)"></path>
<path d="M 329.614 434.482 C 342.138 431.739 364.103 440.697 373.875 448.947 C 385.891 459.091 392.759 471.985 394.12 487.721 C 395.593 503.59 390.66 519.389 380.419 531.6 C 368.003 546.313 353.003 552.272 334.301 553.809 C 246.544 548.718 248.449 439.346 329.614 434.482 z" fill="rgb(125,105,65)" transform="translate(0,0)"></path>
<path d="M 322.165 447.876 C 347.489 442.815 372.134 459.197 377.27 484.506 C 382.407 509.814 366.098 534.508 340.804 539.719 C 315.405 544.952 290.585 528.559 285.427 503.144 C 280.269 477.73 296.735 452.959 322.165 447.876 z" fill="rgb(255,255,255)" transform="translate(0,0)"></path>
<path d="M 292.236 62.5384 C 340.511 59.9734 381.844 96.7685 384.885 145.015 C 387.926 193.262 351.541 234.956 303.327 238.474 C 254.434 242.04 212.025 205.031 208.941 156.106 C 205.857 107.181 243.283 65.1394 292.236 62.5384 z" fill="rgb(255,255,255)" transform="translate(0,0)"></path>
<path d="M 290.931 79.1296 C 324.421 73.6369 356.053 96.242 361.703 129.705 C 367.353 163.169 344.897 194.907 311.461 200.714 C 277.801 206.561 245.805 183.922 240.117 150.235 C 234.429 116.548 257.218 84.659 290.931 79.1296 z" fill="rgb(125,105,65)" transform="translate(0,0)"></path>
<path d="M 293.201 93.3724 C 318.981 89.128 343.331 106.554 347.63 132.325 C 351.929 158.096 334.554 182.483 308.793 186.837 C 282.953 191.204 258.477 173.765 254.165 147.917 C 249.853 122.069 267.343 97.6295 293.201 93.3724 z" fill="rgb(255,255,255)" transform="translate(0,0)"></path>
<path d="M 1556.74 1620.27 C 1604.92 1613.81 1644.13 1661.23 1652.48 1705.18 C 1655.31 1720.1 1644.01 1743.26 1634.56 1754.9 C 1617.67 1775.86 1593.22 1789.34 1566.48 1792.42 C 1562.1 1792.01 1557.73 1792.85 1553.21 1792.69 C 1537.01 1792.18 1521.27 1787.21 1507.73 1778.33 C 1489.68 1766.59 1477.13 1748.07 1472.92 1726.97 C 1468.55 1704.23 1473.41 1680.69 1486.44 1661.55 C 1503.19 1637.21 1528.35 1625.33 1556.74 1620.27 z" fill="rgb(255,255,255)" transform="translate(0,0)"></path>
<path d="M 1541.32 1651.41 C 1574.71 1645.57 1606.49 1667.97 1612.22 1701.39 C 1617.94 1734.8 1595.44 1766.5 1562 1772.12 C 1528.73 1777.71 1497.21 1755.33 1491.51 1722.07 C 1485.81 1688.82 1508.09 1657.22 1541.32 1651.41 z" fill="rgb(125,105,65)" transform="translate(0,0)"></path>
<path d="M 1544.85 1665.48 C 1570.37 1661.7 1594.18 1679.19 1598.18 1704.68 C 1602.19 1730.17 1584.91 1754.13 1559.46 1758.36 C 1533.68 1762.65 1509.35 1745.1 1505.29 1719.29 C 1501.23 1693.48 1519 1669.3 1544.85 1665.48 z" fill="rgb(255,255,255)" transform="translate(0,0)"></path>
<path d="M 1901.37 1667.53 L 1902.52 1667.44 C 1977.7 1662.6 2013.59 1759.15 1962.22 1810.27 C 1941.56 1830.84 1920.48 1839.21 1891.67 1840.04 C 1847.82 1836.07 1810.36 1802.34 1807.26 1758.55 C 1804.15 1714.57 1860.78 1669.93 1901.37 1667.53 z" fill="rgb(255,255,255)" transform="translate(0,0)"></path>
<path d="M 1896.92 1687.77 C 1930.58 1681.11 1963.24 1703.03 1969.83 1736.7 C 1976.42 1770.36 1954.43 1802.98 1920.75 1809.5 C 1887.17 1816.01 1854.66 1794.09 1848.09 1760.52 C 1841.52 1726.95 1863.37 1694.4 1896.92 1687.77 z" fill="rgb(125,105,65)" transform="translate(0,0)"></path>
<path d="M 1900.9 1701.75 C 1926.88 1697.22 1951.58 1714.72 1955.91 1740.74 C 1960.25 1766.75 1942.56 1791.31 1916.52 1795.45 C 1890.75 1799.55 1866.5 1782.09 1862.21 1756.35 C 1857.92 1730.61 1875.2 1706.24 1900.9 1701.75 z" fill="rgb(255,255,255)" transform="translate(0,0)"></path>
<path d="M 149.723 210.421 C 166.643 209.607 183.404 214.018 197.731 223.057 C 231.204 243.965 250.948 295.072 227.407 329.904 C 210.649 354.7 179.689 373.942 150.832 380.553 C 128.362 385.369 110.264 381.148 92.4983 366.304 C 74.855 351.777 63.862 330.713 62.0356 307.932 C 60.0331 283.863 67.7624 259.997 83.4943 241.672 C 101.211 220.904 123.073 212.462 149.723 210.421 z" fill="rgb(255,255,255)" transform="translate(0,0)"></path>
<path d="M 126.626 239.393 C 148.413 235.195 170.775 243.033 185.174 259.914 C 199.573 276.795 203.786 300.114 196.204 320.966 C 188.623 341.818 170.417 356.986 148.538 360.677 C 115.252 366.293 83.6414 344.084 77.6396 310.865 C 71.6378 277.645 93.4783 245.78 126.626 239.393 z" fill="rgb(125,105,65)" transform="translate(0,0)"></path>
<path d="M 139.191 252.974 C 165.216 253.561 185.872 275.072 185.403 301.099 C 184.935 327.126 163.519 347.881 137.49 347.532 C 111.292 347.18 90.3737 325.595 90.8449 299.398 C 91.3162 273.202 112.997 252.383 139.191 252.974 z" fill="rgb(255,255,255)" transform="translate(0,0)"></path>
<path d="M 416.386 417.368 C 438.955 436.556 453.595 443.175 482.783 445.192 C 492.009 465.844 500.925 485.111 508.313 506.518 C 488.274 499.614 460.637 486.719 441.244 481.888 C 440.969 459.197 432.281 437.416 416.863 420.765 L 416.386 417.368 z" fill="rgb(255,255,255)" transform="translate(0,0)"></path>
<path d="M 437.351 214.253 C 440.436 215.73 450.761 222.687 454.781 225.043 C 467.587 232.547 477.134 235.44 491.135 239.74 C 475.7 241.539 468.275 243.34 453.889 248.985 C 440.603 254.239 429.946 260.247 417.671 267.3 C 420.941 252.81 423.804 244.362 430.101 230.798 C 432.374 225.903 435.948 219.061 437.351 214.253 z" fill="rgb(255,255,255)" transform="translate(0,0)"></path>
<path d="M 1849.53 1630.35 C 1863.29 1638.81 1885.36 1647.22 1900.56 1653.14 C 1886.6 1654.58 1876.32 1657.56 1863.75 1663.42 C 1851.76 1668.62 1841.46 1676.36 1831.23 1684.36 C 1835.11 1660.48 1839.16 1652.45 1849.53 1630.35 z" fill="rgb(255,255,255)" transform="translate(0,0)"></path>
<path d="M 216.89 362.046 L 217.11 362.317 C 218.561 367.539 208.446 402.902 206.228 410.192 C 192.313 409.064 176.15 405.076 162.798 401.169 L 147.746 396.766 C 176.065 388.176 194.586 382.356 216.89 362.046 z" fill="rgb(255,255,255)" transform="translate(0,0)"></path>
<path d="M 1625.81 1783.94 L 1626.67 1784.86 C 1626.86 1794.39 1620.08 1826.37 1617.18 1835.74 C 1608.73 1827.54 1603.59 1823.21 1593.72 1816.91 C 1586.55 1813.44 1578.76 1810.15 1571.44 1806.98 C 1595.97 1801.24 1604.42 1796.91 1625.81 1783.94 z" fill="rgb(255,255,255)" transform="translate(0,0)"></path>
<path d="M 1666.37 1835.14 C 1669.15 1834.73 1669.17 1834.57 1671.86 1835.13 C 1671.88 1835.99 1661.76 1851.83 1660.35 1854.29 C 1653.92 1865.55 1650.35 1875.05 1646.52 1887.4 L 1641.34 1877.31 C 1636.32 1866.95 1632.98 1860 1626.65 1850.35 C 1637.82 1842.28 1653.06 1838.82 1666.37 1835.14 z" fill="rgb(255,255,255)" transform="translate(0,0)"></path>
<path d="M 397.645 161.378 C 400.484 163.915 408.905 179.549 411.884 183.888 C 415.577 189.267 417.13 191.101 421.641 195.997 C 409.793 203.423 403.458 205.839 390.236 210.198 L 372.138 215.066 C 385.788 200.021 394.04 181.227 397.645 161.378 z" fill="rgb(255,255,255)" transform="translate(0,0)"></path>
<path d="M 1810.68 1579.62 C 1811.73 1580.45 1828.8 1608.73 1832.09 1613.61 C 1823.19 1617.49 1815 1622.07 1805.74 1625.16 C 1797.49 1627.65 1793.26 1628.53 1784.82 1629.54 C 1799.25 1612.75 1806.21 1601.05 1810.68 1579.62 z" fill="rgb(255,255,255)" transform="translate(0,0)"></path>
<path d="M 253.261 420.419 C 254.442 420.264 253.783 420.21 255.186 420.903 C 243.431 440.685 239.048 448.846 234.173 471.091 L 230.452 460.742 C 226.074 450.216 219.598 435.808 216.692 425.233 C 226.718 424.642 242.851 421.912 253.261 420.419 z" fill="rgb(255,255,255)" transform="translate(0,0)"></path>
<path d="M 405.501 406.451 C 406.766 407.812 416.384 417.365 416.386 417.368 L 416.863 420.765 C 412.222 415.758 407.821 411.629 402.854 406.96 L 405.501 406.451 z" fill="rgb(215,206,191)" transform="translate(0,0)"></path>
<path d="M 1459.75 43.3551 C 1495.29 35.63 1551.32 71.7198 1561.5 105.945 C 1564.32 115.418 1567.61 126.65 1571.96 135.289 C 1581.8 136.96 1594.82 137.047 1605.23 138.351 C 1631.45 141.637 1651.02 148.755 1674.12 160.391 C 1684.47 137.5 1693.43 113.848 1703.18 90.6917 C 1705.63 84.8759 1709.44 74.2414 1715.51 71.6474 C 1718.23 71.6915 1720.75 72.0143 1723.12 73.4383 C 1737.29 81.9309 1753.89 95.5461 1766.66 106.049 C 1827.82 156.346 1880.88 216.691 1921.61 284.645 C 1931.47 301.078 1943.01 321.447 1949.6 339.4 C 1937.17 378.562 1915.6 425.428 1900.31 464.106 C 1895.15 477.16 1876.57 522.335 1869.41 533.501 C 1869.57 554.149 1868.91 566.47 1859.43 585.398 C 1845.52 613.163 1839.42 645.064 1836.39 675.818 C 1834.36 696.922 1836.05 718.219 1841.39 738.736 C 1843.01 744.769 1850.23 758.744 1849.84 763.539 C 1848.64 778.327 1831.89 782.383 1826.16 765.67 C 1823.72 758.547 1821.98 752.314 1820.14 745.459 C 1809.62 706.167 1812.64 666.975 1822.27 627.982 C 1800.75 643.902 1780.82 656.093 1756.25 666.785 C 1760.35 678.658 1764.98 690.076 1768.75 702.17 C 1780.68 740.688 1787.27 780.66 1788.33 820.968 C 1792.95 957.905 1743.15 1068.2 1649.5 1165.65 C 1469.05 1353.41 1190.33 1368.08 976.29 1229.44 C 958.107 1217.66 933.442 1202.16 917.696 1187.32 C 920.887 1179.98 922.635 1174.98 925.079 1167.32 C 931.613 1171.44 941.356 1179.41 947.885 1184.36 C 959.06 1192.91 970.594 1200.99 982.454 1208.57 C 1062.5 1259.49 1162.97 1298.91 1258.75 1301.22 C 1301.99 1302.65 1345.24 1298.72 1387.51 1289.52 C 1517.27 1259.81 1629.96 1179.85 1700.86 1067.17 C 1813.63 888.489 1785.55 653.34 1621.87 517.223 C 1616.84 513.034 1597.42 499.682 1596.24 494.432 C 1600.22 490.82 1611.18 489.848 1616.66 488.637 C 1649.8 481.309 1678.11 481.881 1695.32 447.802 C 1718.19 402.54 1723.24 350.8 1710.76 301.897 C 1696.64 246.51 1637.03 244.903 1613.09 293.482 C 1594.36 331.599 1604.98 379.706 1617.85 418.547 C 1608.1 422.399 1589.61 428.668 1579.72 430.939 C 1572.11 428.035 1569.62 426.576 1563.83 420.904 C 1563.64 411.005 1565.72 398.306 1566.84 388.095 C 1556.53 371.163 1552.45 374.225 1536.91 365.73 C 1505.85 348.748 1501.86 317.527 1492.36 289.518 L 1492.02 288.542 C 1499.7 277.28 1505.75 263.707 1511.71 251.364 C 1518.48 256.365 1523.83 258.303 1531.58 261.054 C 1534.73 279.228 1547.72 281.225 1561 270.067 C 1574.63 258.616 1581.49 236.731 1582.96 219.497 C 1584.2 204.899 1582.69 197.513 1573.19 186.312 C 1579.41 212.029 1576.75 245.634 1557.32 265.91 C 1552.58 270.851 1542.56 272.05 1537.72 266.566 C 1534.48 247.627 1524.58 255.009 1518.85 248.463 C 1496.63 223.092 1491.64 233.052 1463.34 228.616 C 1439.4 224.864 1405.81 201.506 1383.66 187.937 C 1401.27 211.412 1436.06 229.05 1464.33 234.966 C 1482.55 238.777 1487.62 228.491 1507.78 245.146 C 1498.7 264.304 1489.9 284.208 1475.23 299.851 C 1470.11 305.315 1462.63 312.475 1454.57 312.258 C 1444.73 311.994 1416.39 294.216 1409.49 286.702 C 1405.92 282.821 1379.3 224.586 1377.9 217.753 C 1376.75 212.077 1380.06 204.286 1380.13 198.341 C 1380.15 195.811 1379.71 194.619 1377.99 192.854 L 1376.6 193.359 C 1362.98 210.669 1380.5 248.805 1393.1 262.268 C 1380.35 257.848 1367.78 250.965 1357.74 241.772 C 1335.27 221.191 1337.77 177.442 1359.54 156.632 C 1359.66 137.952 1358.86 129.751 1365.65 111.958 C 1381.29 70.9864 1417.89 49.0665 1459.75 43.3551 z" fill="rgb(0,0,0)" transform="translate(0,0)"></path>
<path d="M 1722.54 95.3247 C 1727.01 97.358 1747.34 114.136 1752.19 118.071 C 1821.71 174.45 1892.22 256.96 1928.29 338.807 C 1921.63 362.914 1899.5 415.956 1889.06 438.908 L 1884.24 448.945 C 1867.03 411.777 1849.76 379.543 1824.25 347.254 C 1814.17 334.488 1799.49 318.922 1790.46 306.809 C 1782.97 292.933 1779.43 277.716 1772.33 263.379 C 1758.04 234.53 1738.39 209.929 1714.12 188.88 C 1706.76 182.504 1698.73 176.749 1691.29 170.203 C 1701.32 149.422 1713.41 117.398 1722.54 95.3247 z" fill="rgb(255,255,255)" transform="translate(0,0)"></path>
<path d="M 1813.56 446.576 C 1819.07 450.864 1823.22 458.044 1826.74 464.036 C 1875.15 546.654 1841.56 600.951 1763.5 643.925 C 1759.7 646.128 1754.56 648.388 1750.51 650.305 C 1746.87 643.1 1743.46 635.782 1740.29 628.361 C 1803.17 576.589 1832.12 529.373 1813.56 446.576 z" fill="rgb(255,255,255)" transform="translate(0,0)"></path>
<path d="M 1799.7 348.636 C 1823.3 368.712 1860.7 445.343 1875.99 475.601 C 1874.07 480.463 1870.9 486.827 1868.62 491.7 L 1864.89 499.896 C 1855.25 472.866 1846.4 454.714 1827.69 432.052 C 1821.41 424.45 1814.09 416.98 1808.14 409.396 L 1807.33 408.341 C 1805.37 388.093 1802.25 368.762 1799.7 348.636 z" fill="rgb(255,255,255)" transform="translate(0,0)"></path>
<path d="M 395.162 1258.61 C 415.037 1241.8 431.588 1231.1 446.089 1207.96 C 461.795 1184.29 472.32 1159.03 484.234 1133.46 C 501.486 1096.43 512.109 1049.32 536.861 1016.95 C 553.058 995.767 586.169 989.094 608.587 1005.34 L 607.46 1004.56 C 622.948 1052.76 649.397 1067.58 699.625 1069.13 C 723.573 1086.04 758.555 1119.91 769.503 1146.65 C 780.682 1173.96 787.783 1194.27 805.294 1219.55 C 835.282 1197.77 878.164 1157.36 901.671 1128.8 C 913.458 1140.46 916.347 1145.52 922.96 1160.89 C 907.872 1213.21 853.108 1312.76 782.891 1295.06 C 749.196 1286.57 726.028 1263.99 705.634 1236.59 C 678.466 1275.78 638.404 1315.78 603.376 1348.45 C 617.748 1350.92 631.298 1359.12 639.925 1370.96 C 653.473 1389.77 648.607 1413.54 638.813 1432.66 C 616.304 1476.6 589.584 1518.02 562.482 1559.21 C 553.218 1573.29 543.535 1588.18 532.312 1600.73 C 531.759 1601.35 528.754 1601.21 527.026 1602.81 L 526.348 1602.73 C 523.372 1600.33 515.471 1599.42 511.267 1598.48 C 496.194 1595.09 484.41 1588.57 473.924 1577.19 C 493.083 1548.27 513.699 1492.42 522.202 1458.98 C 492.004 1504.52 455.55 1542.72 416.951 1580.9 C 411.05 1586.74 400.917 1604.15 395.881 1611.79 C 385.662 1627.48 374.695 1642.67 363.017 1657.31 C 343.582 1681.27 322.473 1703.57 301.641 1726.26 C 292.893 1735.78 280.028 1748.69 272.233 1758.38 C 254.956 1756.79 234.238 1750.07 222.551 1736.47 C 220.338 1733.89 218.422 1730.92 218.82 1727.42 C 220.765 1710.28 282.232 1608.98 297.975 1590.47 C 306.866 1580.16 316.358 1570.37 326.404 1561.18 C 332.326 1555.65 341.21 1548 346.115 1542.19 C 348.77 1522.86 350.369 1502.19 352.803 1482.67 C 362.566 1404.42 374.681 1352.8 409.212 1282.56 C 402.599 1273.73 398.672 1269.16 395.162 1258.61 z" fill="rgb(38,34,36)" transform="translate(0,0)"></path>
<path d="M 1100.31 651.179 C 1106.88 640.159 1116.52 624.721 1132.12 631.751 C 1132.96 636.933 1121.25 650.829 1118.23 658.051 C 1143.32 666.504 1149.57 694.144 1141.52 717.078 C 1136.53 731.551 1125.89 743.384 1112.03 749.874 C 1109.14 751.211 1104.54 752.713 1101.51 753.705 C 1124.81 767.028 1158.03 792.454 1181.01 801.21 C 1171.41 830.33 1154.94 858.816 1145.04 888.026 C 1143.02 893.974 1140.67 901.431 1138.02 907.051 C 1125.83 904.761 1110.33 897.825 1097.31 894.027 C 1082.86 889.812 1034.16 891.889 1026.86 882.668 L 1026.48 880.271 L 1027.73 879.254 C 1032.27 879.856 1037.53 881.552 1041.17 879.975 C 1041.98 877.362 1041.86 878.384 1041.4 875.633 C 1038.7 871.802 1038.43 867.336 1037.63 862.657 C 1045.73 839.077 1051.79 834.628 1069.57 817.884 L 1068.97 815.947 L 1058.32 822.337 C 1040.67 837.826 1038.65 857.956 1024.94 873.427 C 976.596 928.012 927.117 986.873 867.298 1029.23 C 852.417 1039.77 834.575 1046.59 819.953 1055.11 C 814.908 1056.95 802.609 1061.21 799.091 1065.03 C 796.701 1065.11 777.42 1073.07 772.679 1074.49 C 756.048 1079.46 745.514 1080.74 728.685 1082.34 C 725.018 1080.22 714.422 1073.91 711.98 1071.23 C 701.016 1059.17 705.461 1059.42 691.977 1049.71 C 697.796 1041.51 709.906 1018.28 715.359 1008.53 C 724.068 1007.81 738.63 1004.23 747.442 1001.92 C 807.172 986.264 857.518 955.792 907.905 921.19 C 933.495 904.037 960.346 888.382 981.899 866.024 C 985.552 862.234 986.124 862.225 991.409 860.784 C 992.787 857.231 990.508 851.644 989.049 848.277 C 987.608 845.267 986.214 841.548 984.94 838.414 C 987.061 835.424 986.265 830.403 987.478 828.839 C 993.715 820.795 1004.56 816.209 1012.58 809.821 C 1019.72 805.196 1024.94 792.479 1032.08 788.411 C 1051.07 777.588 1071.74 769.079 1091.51 759.866 C 1093.23 759.063 1094.82 756.571 1095.77 755.109 C 1093.85 753.793 1092.9 753.689 1090.61 753.41 C 1046.2 748 1041.72 696.41 1069.93 669.183 C 1080.03 659.443 1087.45 656.359 1100.31 651.179 z" fill="rgb(38,34,36)" transform="translate(0,0)"></path>
<path d="M 1100.31 651.179 C 1106.88 640.159 1116.52 624.721 1132.12 631.751 C 1132.96 636.933 1121.25 650.829 1118.23 658.051 C 1143.32 666.504 1149.57 694.144 1141.52 717.078 C 1136.53 731.551 1125.89 743.384 1112.03 749.874 C 1109.14 751.211 1104.54 752.713 1101.51 753.705 C 1124.81 767.028 1158.03 792.454 1181.01 801.21 C 1171.41 830.33 1154.94 858.816 1145.04 888.026 C 1143.02 893.974 1140.67 901.431 1138.02 907.051 C 1125.83 904.761 1110.33 897.825 1097.31 894.027 C 1082.86 889.812 1034.16 891.889 1026.86 882.668 L 1026.48 880.271 L 1027.73 879.254 C 1032.27 879.856 1037.53 881.552 1041.17 879.975 C 1041.98 877.362 1041.86 878.384 1041.4 875.633 C 1060.28 887.5 1115.16 876.615 1135.66 883.846 C 1143.25 863.785 1151.41 844.404 1160.57 825.006 C 1162.99 819.894 1165.29 814.695 1167.12 809.344 C 1158.82 796.547 1110.88 779.051 1095.77 755.109 C 1093.85 753.793 1092.9 753.689 1090.61 753.41 C 1046.2 748 1041.72 696.41 1069.93 669.183 C 1080.03 659.443 1087.45 656.359 1100.31 651.179 z" fill="rgb(0,0,0)" transform="translate(0,0)"></path>
<path d="M 1167.12 809.344 L 1168.79 806.205 L 1170.2 806.26 C 1172.06 813.96 1159.48 840.174 1155.97 848.375 C 1148.53 865.747 1140.28 881.106 1135.57 899.68 C 1125.14 896.451 1114.23 892.824 1103.62 890.442 C 1112.62 890.05 1123.3 889.348 1132.03 891.818 C 1134.49 889.471 1134.52 887.451 1135.66 883.846 C 1143.25 863.785 1151.41 844.404 1160.57 825.006 C 1162.99 819.894 1165.29 814.695 1167.12 809.344 z" fill="rgb(255,255,255)" transform="translate(0,0)"></path>
<path d="M 1104.18 659.878 C 1105.33 660.307 1118.48 667.774 1119.62 668.635 C 1127.86 674.841 1132.4 685.97 1133.09 696.223 C 1133.86 708.851 1129.32 721.227 1120.56 730.354 C 1112.36 739.056 1104.19 742.738 1092.53 743.26 C 1042.45 733.311 1063.4 674.732 1104.18 659.878 z" fill="rgb(255,255,255)" transform="translate(0,0)"></path>
<path d="M 1103.29 668.236 C 1105.1 669.058 1104.74 669.024 1106.28 670.441 C 1108.84 677.755 1107.5 681.065 1105.76 688.513 C 1111.29 685.149 1115.27 681.954 1121.82 682.524 C 1126.59 689.23 1107.62 702.963 1103.36 706.262 C 1101.66 707.1 1102.42 706.744 1100.16 706.635 C 1093.64 701.557 1080.72 685.42 1084.89 677.374 L 1087.11 677.11 C 1091.37 678.353 1092.94 680.586 1096.15 683.818 C 1098.02 677.607 1098.85 672.763 1103.29 668.236 z" fill="rgb(0,0,0)" transform="translate(0,0)"></path>
<path d="M 1061.16 810.152 C 1061.36 808.331 1061.53 806.507 1061.67 804.682 C 1062 800.182 1061.91 799.967 1059.42 797.019 C 1049.34 795.314 1043.4 808.798 1036.64 805.485 C 1035.4 802.252 1035.86 800.858 1036.25 797.437 C 1038.54 795.081 1037.2 795.878 1040.43 795.024 L 1042.44 797.184 C 1050.53 795.902 1055.97 787.424 1064.19 792.787 C 1066.16 798.107 1064.96 804.421 1063.95 809.945 L 1065.92 812.717 L 1069.27 811.564 L 1070.6 812.4 C 1069.89 814.599 1070.23 814.101 1068.97 815.947 L 1058.32 822.337 L 1056.62 820.777 C 1055.17 819.634 1055.8 820.425 1055.15 818.125 C 1056.17 814.602 1058.53 812.826 1061.16 810.152 z" fill="rgb(255,255,255)" transform="translate(0,0)"></path>
<path d="M 1065.92 812.717 L 1069.27 811.564 L 1070.6 812.4 C 1069.89 814.599 1070.23 814.101 1068.97 815.947 L 1058.32 822.337 L 1056.62 820.777 C 1058.71 815.677 1060.86 815.359 1065.92 812.717 z" fill="rgb(0,0,0)" transform="translate(0,0)"></path>
<path d="M 1063.95 809.945 C 1069.09 808.609 1067.9 808.132 1072.32 809.418 C 1074.54 813.319 1072.35 814.889 1069.57 817.884 L 1068.97 815.947 C 1070.23 814.101 1069.89 814.599 1070.6 812.4 L 1069.27 811.564 L 1065.92 812.717 L 1063.95 809.945 z" fill="rgb(255,255,255)" transform="translate(0,0)"></path>
<path d="M 1610.53 760.576 C 1675.95 760.219 1729.32 812.86 1729.86 878.275 C 1730.4 943.689 1677.92 997.21 1612.5 997.941 C 1546.83 998.675 1493.04 945.928 1492.49 880.248 C 1491.95 814.569 1544.85 760.934 1610.53 760.576 z" fill="rgb(0,0,0)" transform="translate(0,0)"></path>
<path d="M 1597.64 773.103 C 1656.42 765.675 1710.04 807.441 1717.23 866.25 C 1724.42 925.06 1682.43 978.509 1623.59 985.456 C 1565.09 992.363 1512.02 950.673 1504.87 892.203 C 1497.73 833.732 1539.2 780.488 1597.64 773.103 z" fill="rgb(255,255,255)" transform="translate(0,0)"></path>
<path d="M 1607.43 797.423 C 1652.25 795.489 1690.23 830.1 1692.46 874.909 C 1694.68 919.717 1660.32 957.919 1615.52 960.434 C 1570.32 962.972 1531.69 928.222 1529.44 883.001 C 1527.2 837.779 1562.2 799.374 1607.43 797.423 z" fill="rgb(0,0,0)" transform="translate(0,0)"></path>
<path d="M 1600.35 809.692 C 1638.78 803.855 1674.61 830.41 1680.21 868.874 C 1685.81 907.337 1659.04 943.009 1620.54 948.373 C 1582.38 953.69 1547.08 927.196 1541.53 889.067 C 1535.98 850.937 1562.25 815.479 1600.35 809.692 z" fill="rgb(255,255,255)" transform="translate(0,0)"></path>
<path d="M 1233.52 1047.72 C 1298.39 1039.63 1357.58 1085.56 1365.86 1150.4 C 1374.15 1215.25 1328.41 1274.58 1263.59 1283.07 C 1198.48 1291.6 1138.83 1245.61 1130.51 1180.48 C 1122.18 1115.34 1168.36 1055.84 1233.52 1047.72 z" fill="rgb(0,0,0)" transform="translate(0,0)"></path>
<path d="M 1234.52 1059.36 C 1293.41 1051.75 1347.24 1093.54 1354.46 1152.48 C 1361.69 1211.42 1319.54 1264.97 1260.55 1271.81 C 1202.12 1278.57 1149.17 1236.9 1142.02 1178.51 C 1134.86 1120.13 1176.18 1066.91 1234.52 1059.36 z" fill="rgb(255,255,255)" transform="translate(0,0)"></path>
<path d="M 1238.62 1084.24 C 1283.24 1078.95 1323.74 1110.72 1329.22 1155.32 C 1334.7 1199.91 1303.1 1240.55 1258.53 1246.22 C 1213.68 1251.92 1172.75 1220.09 1167.24 1175.23 C 1161.72 1130.36 1193.73 1089.56 1238.62 1084.24 z" fill="rgb(0,0,0)" transform="translate(0,0)"></path>
<path d="M 1240.97 1095.37 C 1279.61 1091.5 1314.05 1119.76 1317.8 1158.41 C 1321.55 1197.06 1293.2 1231.41 1254.54 1235.05 C 1216.03 1238.68 1181.86 1210.47 1178.12 1171.97 C 1174.38 1133.48 1202.49 1099.22 1240.97 1095.37 z" fill="rgb(255,255,255)" transform="translate(0,0)"></path>
<path d="M 1488.55 293.048 C 1490.91 309.207 1494.6 317.873 1500.55 332.844 C 1464.72 371.62 1416.38 387.256 1372.96 414.901 C 1358.78 423.934 1349.26 439.11 1334.53 447.004 C 1323.96 452.672 1318.27 451.505 1307.46 452.871 C 1294.47 454.511 1284.04 470.933 1276.69 481.163 C 1283.39 504.426 1288.25 519.103 1280.83 543.411 C 1274.52 563.738 1260.28 580.661 1241.34 590.355 C 1220.86 600.859 1197.03 602.743 1175.16 595.588 C 1155.63 589.316 1138.28 575.029 1129.02 556.674 C 1119.17 536.924 1117.69 514.043 1124.89 493.184 C 1131.86 473.276 1146.52 456.996 1165.6 447.992 C 1195.12 433.879 1216.98 439.52 1245.6 449.681 C 1244.6 437.632 1245.97 435.35 1251.47 424.733 C 1232.41 415.169 1210.25 410.651 1189 413.385 C 1158.9 417.451 1131.69 433.466 1113.53 457.817 C 1097.14 479.241 1090.03 506.337 1093.78 533.045 C 1098.06 561.554 1113.54 587.179 1136.78 604.241 C 1213.22 660.886 1330.49 595.789 1306.66 499.199 C 1304.51 490.477 1292.33 473.596 1299.04 465.176 L 1300.62 465.456 C 1309.22 471.965 1318.66 494.083 1320.1 504.551 C 1334.24 607.339 1220.92 669.166 1136.21 617.366 C 1110.12 601.53 1091.57 575.791 1084.8 546.032 C 1077.6 515.488 1081.3 485.822 1098 458.956 C 1114.57 431.947 1141.22 412.647 1172.05 405.319 C 1201.44 398.55 1233.59 400.995 1259.58 417.158 C 1264.47 411.726 1266.49 409.563 1272.15 404.968 C 1279.85 405.126 1291.11 404.261 1298.06 405.647 L 1300.28 408.148 C 1309.62 406.164 1313.43 410.101 1322 409.479 C 1329.27 408.951 1338.48 401.813 1345.35 398.745 C 1356.3 393.855 1367.64 390.123 1377.98 384.032 C 1408.77 365.894 1422.24 341.204 1431.06 307.419 C 1439.67 312.705 1444.51 318.062 1456.01 317.546 C 1469.51 316.939 1480.04 302.764 1488.55 293.048 z" fill="rgb(0,0,0)" transform="translate(0,0)"></path>
<path d="M 1298.06 405.647 L 1300.28 408.148 C 1289.04 417.572 1272.59 439.013 1260.65 450.937 L 1251.9 452.542 L 1251.59 451.75 C 1264.88 445.967 1286.69 417.847 1298.06 405.647 z" fill="rgb(255,255,255)" transform="translate(0,0)"></path>
<path d="M 1192.46 451.168 C 1212.89 449.599 1226.53 451.725 1243.97 463.754 C 1246.59 465.567 1251.3 469.574 1254.13 470.04 L 1256.58 468.127 C 1257.85 471.958 1254.47 469.791 1255.1 475.909 C 1257.51 478.888 1258.82 478.828 1262.72 479.55 L 1264.58 479.882 C 1283.9 517.785 1271.41 565.281 1231.26 582.464 C 1226.1 584.671 1220.46 586.089 1215.06 587.548 C 1134.99 607.057 1085.95 476.515 1192.46 451.168 z" fill="rgb(255,255,255)" transform="translate(0,0)"></path>
<path d="M 1275.89 416.948 L 1276.44 417.564 C 1274.87 421.861 1267.16 428.129 1263.47 431.284 L 1262.61 430.614 C 1263.79 427.155 1272.77 419.526 1275.89 416.948 z" fill="rgb(255,255,255)" transform="translate(0,0)"></path>
<path d="M 740.561 793.911 C 742.361 794.001 742.883 793.817 744.468 794.425 C 748.187 802.52 749.41 801.841 751.153 811.738 L 752.857 811.139 C 753.954 819.115 754.953 828.218 756.968 835.915 L 760.178 837.881 C 759.694 841.179 759.246 844.691 758.642 847.953 C 774.794 872.144 783.254 889.379 772.987 918.321 C 784.408 957.077 774.983 951.462 763.628 985.682 L 763.116 987.246 C 758.494 990.722 752.211 993.715 746.546 994.92 C 739.576 988.546 728.175 988.401 718.525 986.523 C 704.796 1009.23 699.966 1023.14 688.368 1045.75 C 670.578 1034.14 654.134 1020.43 637.917 1006.77 C 648.857 998.739 653.397 989.315 659.49 977.517 C 654.626 975.811 649.783 974.044 644.963 972.217 C 623.128 963.757 613.745 954.314 600.561 934.925 C 575.27 897.737 589.936 851.737 623.834 825.658 C 648.621 806.588 681.333 803.825 711.09 798.603 C 717.125 797.544 735.958 796.246 740.561 793.911 z" fill="rgb(38,34,36)" transform="translate(0,0)"></path>
<path d="M 751.153 811.738 L 752.857 811.139 C 753.954 819.115 754.953 828.218 756.968 835.915 L 760.178 837.881 C 759.694 841.179 759.246 844.691 758.642 847.953 L 755.62 845.451 C 751.755 839.575 751.176 819.227 751.153 811.738 z" fill="rgb(255,255,255)" transform="translate(0,0)"></path>
<path d="M 756.968 835.915 L 760.178 837.881 C 759.694 841.179 759.246 844.691 758.642 847.953 L 755.62 845.451 C 756.378 842.378 756.62 839.078 756.968 835.915 z" fill="rgb(0,0,0)" transform="translate(0,0)"></path>
<path d="M 1661.11 264.249 C 1687.23 266.129 1699.91 283.551 1705.96 307.26 C 1714.25 343.768 1712.73 382.326 1701.33 417.781 C 1685.05 468.38 1670.21 471.568 1622.06 481.938 C 1579.05 491.2 1534.5 496.237 1493.19 510.711 C 1465.77 520.318 1454.88 530.67 1424.53 525.041 C 1412.26 535.158 1403.98 545.232 1396.11 558.916 C 1392.64 564.841 1388.26 580 1382.83 582.03 L 1381.21 580.921 C 1379.62 576.903 1379.09 574.302 1380.65 569.912 C 1390.89 541.132 1411.63 519.571 1436.56 502.783 C 1446.25 496.263 1456.64 491.787 1466.53 486.01 C 1473.51 481.929 1480.51 473.485 1487.99 470.449 C 1518.86 457.918 1550.88 447.828 1582.34 436.983 C 1593.75 433.049 1614.83 426.757 1624.64 421.496 L 1625.86 420.831 C 1604.8 375.734 1592.81 275.632 1661.11 264.249 z" fill="rgb(0,0,0)" transform="translate(0,0)"></path>
<path d="M 1508.57 512.143 L 1509.72 511.865 C 1513.57 516.927 1524.86 521.101 1530.55 525.281 C 1552.94 541.736 1561.83 561.566 1562.47 589.135 C 1563.51 634.019 1533.07 668.008 1488.75 674.005 C 1473.04 676.131 1465.07 674.521 1449.63 670.276 C 1390.11 647.34 1369.88 580.6 1420.25 536.368 C 1426.77 530.64 1450 531.588 1459.9 528.412 C 1476.33 523.139 1491.73 515.838 1508.57 512.143 z" fill="rgb(0,0,0)" transform="translate(0,0)"></path>
<path d="M 1486.6 524.909 C 1503.82 524.247 1521.2 531.078 1533.48 543.494 C 1560.36 570.65 1556.27 619.096 1529.11 644.577 C 1512.92 659.774 1492.88 665.345 1470.58 664.428 C 1464.48 663.471 1459.48 662.498 1453.61 660.421 C 1434.27 653.389 1418.5 638.994 1409.73 620.376 C 1402.73 605.789 1399.64 589.018 1405.55 573.673 C 1409.59 561.798 1424.68 541.366 1437.5 538.645 C 1457.28 534.45 1467.62 534.016 1486.6 524.909 z" fill="rgb(255,255,255)" transform="translate(0,0)"></path>
<path d="M 1497.26 553.537 L 1501.72 553.515 C 1518.99 553.496 1549.47 558.242 1547.36 582.096 C 1544.56 613.843 1486.28 622.747 1461.68 620.261 C 1445.96 619.433 1412.64 614.331 1408.51 597.44 C 1401.73 569.741 1482.01 555.053 1497.26 553.537 z" fill="rgb(0,0,0)" transform="translate(0,0)"></path>
<path d="M 1515.49 564.61 C 1519.58 564.357 1525.39 564.951 1529.62 565.247 C 1535.73 568.916 1541.47 573.731 1541.54 581.396 C 1541.68 597.562 1521.91 601.877 1509.56 604.78 C 1487.29 610.01 1465.01 611.193 1442.32 611.033 C 1431.94 610.125 1409.21 602.613 1417.36 588.585 C 1428.54 579.861 1499.4 565.177 1515.49 564.61 z" fill="rgb(255,255,255)" transform="translate(0,0)"></path>
<path d="M 896.039 686.665 C 940.32 680.704 981.052 711.765 987.02 756.046 C 992.989 800.327 961.935 841.063 917.656 847.04 C 873.365 853.018 832.616 821.955 826.646 777.663 C 820.676 733.371 851.746 692.628 896.039 686.665 z" fill="rgb(0,0,0)" transform="translate(0,0)"></path>
<path d="M 904.4 697.697 C 942.441 696.23 974.526 725.756 976.218 763.787 C 977.911 801.818 948.576 834.078 910.556 835.997 C 872.215 837.932 839.623 808.295 837.916 769.943 C 836.209 731.591 866.039 699.176 904.4 697.697 z" fill="rgb(255,255,255)" transform="translate(0,0)"></path>
<path d="M 740.561 793.911 C 739.047 784.605 742.379 765.594 744.043 755.706 C 755.458 687.881 787.694 616.464 827.934 560.64 C 907.79 450.95 1027.6 377.089 1161.48 355.022 C 1224.75 344.923 1289.24 345.287 1352.39 356.099 C 1363.72 357.97 1383.3 361.268 1394.01 364.542 C 1387.47 372.637 1382.97 376.472 1373.24 380.973 C 1348.34 375.453 1320.8 373.133 1295.4 371.006 C 1187.03 361.935 1075.79 386.287 983.586 444.498 C 875.958 512.45 797.103 618.878 769.002 743.516 C 763.823 766.11 763.004 789.56 761.488 812.571 C 761.026 819.583 761.057 831.558 760.178 837.881 L 756.968 835.915 C 754.953 828.218 753.954 819.115 752.857 811.139 L 751.153 811.738 C 749.41 801.841 748.187 802.52 744.468 794.425 C 742.883 793.817 742.361 794.001 740.561 793.911 z" fill="rgb(0,0,0)" transform="translate(0,0)"></path>
<path d="M 744.468 794.425 C 751.747 799.196 751.791 802.778 752.857 811.139 L 751.153 811.738 C 749.41 801.841 748.187 802.52 744.468 794.425 z" fill="rgb(173,173,183)" transform="translate(0,0)"></path>
<path d="M 1562.77 1049.75 C 1595.97 1047.27 1624.93 1072.06 1627.62 1105.23 C 1630.3 1138.41 1605.7 1167.53 1572.55 1170.43 C 1539.09 1173.36 1509.64 1148.49 1506.93 1115.01 C 1504.22 1081.53 1529.28 1052.24 1562.77 1049.75 z" fill="rgb(0,0,0)" transform="translate(0,0)"></path>
<path d="M 1564.11 1061.02 C 1591.22 1059.34 1614.54 1079.99 1616.15 1107.1 C 1617.77 1134.22 1597.06 1157.49 1569.94 1159.03 C 1542.92 1160.57 1519.75 1139.95 1518.14 1112.93 C 1516.53 1085.92 1537.1 1062.69 1564.11 1061.02 z" fill="rgb(255,255,255)" transform="translate(0,0)"></path>
<path d="M 1559.92 1068.07 C 1582.75 1063.95 1604.64 1079.02 1608.94 1101.83 C 1613.24 1124.63 1598.34 1146.64 1575.57 1151.12 C 1552.54 1155.65 1530.23 1140.55 1525.89 1117.48 C 1521.54 1094.42 1536.82 1072.23 1559.92 1068.07 z" fill="rgb(0,0,0)" transform="translate(0,0)"></path>
<path d="M 967.742 502.962 C 989.158 499.687 1010.68 508.175 1024.1 525.187 C 1037.51 542.198 1040.75 565.108 1032.57 585.17 C 1024.39 605.233 1006.07 619.352 984.58 622.138 C 951.883 626.378 921.861 603.52 917.249 570.873 C 912.636 538.227 935.15 507.946 967.742 502.962 z" fill="rgb(0,0,0)" transform="translate(0,0)"></path>
<path d="M 970.475 513.87 C 997.407 510.305 1022.09 529.365 1025.44 556.325 C 1028.8 583.284 1009.55 607.815 982.566 610.964 C 955.875 614.078 931.668 595.082 928.347 568.416 C 925.027 541.75 943.835 517.397 970.475 513.87 z" fill="rgb(255,255,255)" transform="translate(0,0)"></path>
<path d="M 968.962 521.259 C 991.695 516.959 1013.61 531.891 1017.93 554.621 C 1022.25 577.35 1007.33 599.279 984.607 603.615 C 961.856 607.956 939.896 593.021 935.573 570.266 C 931.251 547.511 946.203 525.563 968.962 521.259 z" fill="rgb(0,0,0)" transform="translate(0,0)"></path>
<path d="M 1033.81 993.075 C 1061.04 991.59 1077.48 1032.04 1079.2 1054.7 C 1094.31 1042.5 1105.52 1034.02 1125.62 1030.59 C 1147.57 1026.84 1162.21 1043.91 1145.35 1061.67 C 1132.69 1075.01 1110.64 1075.31 1093 1075.11 C 1109.89 1085.1 1126.44 1107.68 1114.96 1127.28 C 1109.25 1131.02 1106.46 1131.62 1100.08 1133.49 C 1066.59 1125.98 1067.34 1102.31 1073.43 1074.11 C 1061.34 1086.32 1054.79 1093.18 1035.98 1097.58 C 1020.06 1101.3 989.866 1092.32 1006.21 1071.17 C 1014.42 1060.55 1035.46 1056.49 1049.14 1055.69 C 1033.72 1041.53 1013.07 1011.26 1033.81 993.075 z" fill="rgb(38,34,36)" transform="translate(0,0)"></path>
<path d="M 1444.4 1126.55 C 1473.98 1122.85 1500.94 1143.87 1504.57 1173.45 C 1508.21 1203.04 1487.13 1229.95 1457.54 1233.52 C 1428.04 1237.08 1401.22 1216.08 1397.6 1186.59 C 1393.98 1157.1 1414.91 1130.24 1444.4 1126.55 z" fill="rgb(0,0,0)" transform="translate(0,0)"></path>
<path d="M 1447.09 1137.37 C 1470.31 1135.05 1491.07 1151.85 1493.65 1175.04 C 1496.24 1198.23 1479.69 1219.18 1456.54 1222.04 C 1441.31 1223.92 1426.25 1217.47 1417.11 1205.15 C 1407.97 1192.84 1406.15 1176.56 1412.35 1162.53 C 1418.56 1148.5 1431.83 1138.89 1447.09 1137.37 z" fill="rgb(255,255,255)" transform="translate(0,0)"></path>
<path d="M 1412.11 895.349 C 1419.04 895.711 1421.84 893.652 1429.39 896.201 C 1438.76 904.353 1460.45 944.527 1460.25 959.396 C 1460 977.73 1459.9 983.092 1448.24 997.151 C 1456.14 1013.43 1464.65 1029.39 1472.8 1045.54 C 1475.85 1051.57 1479.73 1058.35 1476.53 1064.88 C 1467.23 1068.02 1465.21 1057.66 1462.18 1050.56 C 1459.05 1044.56 1443.14 1009.95 1437.08 1004.97 C 1437.03 1004.93 1419.02 1003.68 1415.15 1002.02 C 1387.11 989.963 1372.39 949.986 1364.98 924.071 C 1380.03 905.875 1389 900.664 1412.11 895.349 z" fill="rgb(0,0,0)" transform="translate(0,0)"></path>
<path d="M 1431.36 919.661 C 1460.16 952.823 1450.7 1016.69 1409.63 984.43 C 1395.98 970.898 1391.45 960.372 1382.6 943.473 C 1402.11 941.886 1419.29 935.665 1431.36 919.661 z" fill="rgb(255,255,255)" transform="translate(0,0)"></path>
<path d="M 1416.86 906.311 C 1420.38 906.237 1420.18 906.105 1423.34 907.55 L 1423.9 909.657 C 1419.25 921.58 1399.98 928.821 1388.25 930.982 C 1383.28 931.623 1382.71 932.282 1379.08 929.632 C 1377.9 918.163 1407.27 907.879 1416.86 906.311 z" fill="rgb(255,255,255)" transform="translate(0,0)"></path>
<path d="M 989.049 848.277 C 971.556 873.95 928.469 886.508 898.753 884.439 C 829.356 879.605 781.92 824.871 787.006 755.434 C 789.43 724.377 804.284 695.613 828.203 675.656 C 908.007 608.015 1034.5 670.218 1027.86 775.083 C 1026.85 791.048 1019.28 799.464 1007.59 808.85 C 1010.67 802.586 1009.23 802.542 1011.19 796.123 C 1017.86 774.357 1017.87 754.44 1010.43 732.741 C 1000.82 705.544 980.849 683.249 954.869 670.719 C 927.747 657.412 896.382 655.701 867.973 665.978 C 814.861 684.677 784.875 748.14 803.896 801.257 C 813.388 827.764 833.96 850.919 859.611 862.773 C 886.045 875.224 916.386 876.474 943.754 866.24 C 960.197 860.08 972.559 850.537 984.94 838.414 C 986.214 841.548 987.608 845.267 989.049 848.277 z" fill="rgb(0,0,0)" transform="translate(0,0)"></path>
<path d="M 1464.58 464.354 C 1466.9 463.98 1480.73 465.109 1483.97 465.325 C 1467.78 474.108 1461.44 474.017 1445.14 479.326 C 1388.41 497.806 1354.21 569.406 1373.05 625.418 C 1382.2 652.896 1402.13 675.469 1428.27 687.952 C 1466.18 706.221 1512.81 700.585 1545.23 674.389 C 1564.14 659.113 1569.87 650.019 1580.13 628.663 C 1576.05 622.607 1563.4 602.912 1566.9 596.132 C 1573.05 597.444 1595.86 628.845 1597.3 635.715 L 1595.65 638.042 L 1589.29 635.707 C 1572.67 670.438 1550.22 692.036 1513.58 703.809 C 1510.14 704.913 1510.73 703.213 1508.45 706.388 C 1513.77 710.841 1516.57 710.586 1519.32 718.57 C 1521.35 724.523 1520.75 731.056 1517.69 736.546 C 1514.69 741.961 1509.06 746.347 1503.12 748.03 C 1497.43 749.629 1491.33 748.692 1486.39 745.46 C 1481.09 741.995 1477.42 736.527 1476.24 730.309 C 1474.44 721.148 1477.08 716.2 1482.12 709.068 C 1451.92 708.355 1427.15 704.325 1402.11 685.828 C 1377.93 667.787 1361.89 640.903 1357.49 611.06 C 1352.48 575.008 1367.25 533.325 1389.06 504.899 C 1409.2 478.648 1432.81 468.732 1464.58 464.354 z" fill="rgb(0,0,0)" transform="translate(0,0)"></path>
<path d="M 1493.83 713.693 C 1508.15 715.098 1516.29 728.49 1502.38 736.891 C 1484.37 738.162 1483.13 725.464 1493.83 713.693 z" fill="rgb(255,255,255)" transform="translate(0,0)"></path>
<path d="M 985.99 996.203 C 1013.31 993.801 1009.65 1018.29 1004.84 1036.54 C 1002.01 1047.25 1000.45 1057.93 995.507 1068.07 C 989.504 1080.63 978.722 1090.26 965.567 1094.82 C 961.739 1096.12 952.77 1097.96 950.415 1100.61 C 938.695 1113.8 931.703 1134.91 925.545 1150.78 C 924.863 1152.03 925.368 1151.51 923.905 1152.2 C 918.858 1143.7 912.262 1134.99 906.98 1127.23 C 904.832 1121.55 912.987 1110.2 915.904 1105.58 C 928.506 1085.59 929.4 1056.27 937.605 1036.51 C 941.643 1026.78 964.428 1005.77 973.601 1000.19 C 975.859 998.821 982.849 996.969 985.99 996.203 z" fill="rgb(38,34,36)" transform="translate(0,0)"></path>
<path d="M 439.586 1639.76 C 446.057 1631.31 451.566 1621.66 458.014 1613.25 C 464.686 1604.55 472.59 1595.68 479.82 1587.3 C 486.166 1599.75 502.196 1613.28 516.915 1608.9 C 520.651 1605.11 521.206 1603.93 526.348 1602.73 L 527.026 1602.81 C 528.543 1605.45 531.532 1618.07 531.969 1620.32 C 537.098 1646.65 552.037 1642.48 571.568 1653.5 C 575.262 1655.59 577.822 1658.3 578.724 1662.77 C 577.2 1673.63 562.966 1677.93 554.047 1679.69 C 524.003 1685.62 510.386 1666.68 489.212 1650.82 C 485.486 1655.06 481.011 1661.03 477.354 1665.57 C 462.602 1661.2 449.794 1651 439.586 1639.76 z" fill="rgb(0,0,0)" transform="translate(0,0)"></path>
<path d="M 1574.56 586.421 C 1584.47 589.524 1597.2 604.08 1603.35 612.255 C 1616.66 629.971 1633.31 646.942 1645.98 664.881 C 1670.56 659.822 1687.3 672.834 1700.54 692.029 C 1714.31 711.994 1717.52 713.6 1697.28 726.652 C 1662.95 697.705 1660.93 680.347 1614.57 664.53 L 1621.1 675.666 C 1629.78 690.035 1640.2 703.275 1652.13 715.085 C 1661.62 724.438 1671.47 732.341 1679.5 742.986 C 1665.97 747.873 1655.11 750.808 1641.02 745.054 C 1622.14 737.343 1613.81 719.687 1613.82 700.225 C 1613.76 693.864 1614.45 688.988 1612.91 682.801 C 1610.9 674.7 1588.9 648.785 1591.91 642.765 C 1596.95 641.639 1606.8 646.468 1611.71 648.53 C 1600.8 629.49 1590.37 615.669 1577.29 598.192 C 1573.23 592.775 1573.51 592.038 1574.56 586.421 z" fill="rgb(0,0,0)" transform="translate(0,0)"></path>
<path d="M 1624.73 701.634 C 1624.65 701.579 1658.89 737.558 1659.51 738.82 C 1638.4 736.91 1627 721.764 1624.73 701.634 z" fill="rgb(255,255,255)" transform="translate(0,0)"></path>
<path d="M 1660.84 675.758 C 1678.79 677.422 1688.02 693.84 1695.54 708.318 C 1686.55 701.435 1673.29 685.629 1660.84 675.758 z" fill="rgb(255,255,255)" transform="translate(0,0)"></path>
<path d="M 221.003 1739.7 L 221.805 1740.43 C 224.047 1748.86 224.45 1751.12 228.855 1758.51 C 240.426 1763.93 242.974 1764.51 255.709 1765.89 C 258.242 1763.48 259.532 1761.57 262.913 1761.31 C 269.296 1765.25 266.499 1778.11 268.943 1785.34 C 270.561 1790.12 271.747 1791.74 274.42 1795.96 C 285.652 1801.09 312.881 1805.32 314.133 1820.85 C 309.779 1835.62 282.443 1835.69 270.029 1834.78 C 243.067 1829.5 245.889 1817.61 224.394 1806.01 C 220.059 1811.39 220.055 1811.7 214.064 1815.54 C 205.299 1812.33 179.146 1798.56 180.732 1788.13 C 183.293 1771.28 209.102 1750.77 221.003 1739.7 z" fill="rgb(0,0,0)" transform="translate(0,0)"></path>
<path d="M 719.46 1542.89 L 1182.22 1542.46 C 1186.15 1542.42 1189.94 1542.24 1192.79 1545.03 C 1193.33 1548.53 1193.1 1547.57 1191.59 1551.35 C 1169.88 1552.8 1135.89 1551.71 1113.31 1551.68 L 979.493 1551.91 L 800.812 1551.65 C 779.371 1551.61 757.946 1550.99 736.549 1552.03 C 730.932 1552.3 724.545 1552.85 719.56 1549.92 C 717.919 1546.59 718.498 1547.48 719.46 1542.89 z" fill="rgb(0,0,0)" transform="translate(0,0)"></path>
<path d="M 961.23 1113.19 C 972.769 1113.71 993.279 1121.47 1005.42 1124.14 C 1027.77 1129.17 1050.86 1131.76 1072.81 1138.44 C 1088.98 1143.37 1114.21 1157.42 1096.04 1175.79 C 1087.83 1179.94 1076.56 1181.47 1067.84 1177.97 C 1033.05 1164.02 1000.62 1142.09 968.617 1122.68 C 964.591 1120.23 961.969 1117.8 961.23 1113.19 z" fill="rgb(38,34,36)" transform="translate(0,0)"></path>
<path d="M 1386.87 442.621 C 1398.05 446.083 1415.41 501.126 1380 478.352 C 1365.21 505.327 1351.29 538.752 1338.05 566.941 C 1334.69 574.094 1335.12 582.277 1332.52 589.597 C 1325.67 608.833 1305.26 635.122 1290.5 649.181 C 1289.74 649.884 1288.97 650.578 1288.19 651.263 C 1284.94 654.12 1283.05 655.966 1278.92 655.674 C 1277.97 653.639 1278.24 652.179 1278.79 650.085 C 1283.18 633.366 1303.31 587.267 1314.49 575.107 C 1316.39 573.042 1319.38 571.392 1321.8 570.013 C 1322.48 569.623 1323.21 569.305 1323.87 568.873 C 1327.98 566.181 1372.99 481.773 1373.05 477.49 C 1373.13 471.831 1370.5 467.64 1371.81 461.433 C 1373.51 453.367 1380.1 446.766 1386.87 442.621 z" fill="rgb(0,0,0)" transform="translate(0,0)"></path>
<path d="M 1304.66 615.165 C 1307.22 614.79 1306.61 614.848 1309.18 615.03 C 1308.41 617.089 1299.85 621.293 1296.9 623.098 C 1295.4 624.448 1296.3 623.938 1294.11 624.476 C 1292.85 617.371 1299.26 616.208 1304.66 615.165 z" fill="rgb(255,255,255)" transform="translate(0,0)"></path>
<path d="M 1301.04 626.013 L 1301.64 626.727 C 1299.27 632.288 1294.08 638.619 1289.94 643.016 L 1289.29 642.436 C 1288.03 635.681 1296.35 629.564 1301.04 626.013 z" fill="rgb(255,255,255)" transform="translate(0,0)"></path>
<path d="M 1444.99 380.831 C 1448.24 381.291 1460.61 385.006 1464.34 386.12 C 1503 397.666 1536.88 415.387 1572.55 433.731 L 1549.33 441.638 C 1552.21 441.729 1494.99 418.245 1492.23 417.001 C 1469.98 406.962 1446 401.558 1423.74 392.965 L 1444.99 380.831 z" fill="rgb(0,0,0)" transform="translate(0,0)"></path>
<path d="M 819.953 1055.11 C 833.675 1073.27 846.792 1090.51 862.133 1107.47 C 870.973 1117.24 881.646 1126.45 890.227 1135.98 C 884.588 1142.03 881.278 1145.49 874.281 1150.2 C 853.74 1132.55 813.766 1088.12 799.091 1065.03 C 802.609 1061.21 814.908 1056.95 819.953 1055.11 z" fill="rgb(0,0,0)" transform="translate(0,0)"></path>
<path d="M 1026.1 1369.88 C 1038.38 1369.54 1058.39 1367.75 1066.33 1378.41 C 1074.76 1389.72 1069.79 1399.96 1060.08 1407.48 C 1063.53 1413.54 1075.31 1430.15 1076.14 1434.81 C 1071.68 1435.25 1068.53 1436.2 1065.22 1432.97 C 1059.38 1425.57 1053.86 1417.3 1048.45 1409.53 L 1036.34 1409.39 L 1036.42 1434.63 L 1024.87 1434.72 C 1026.22 1413.8 1025.95 1390.97 1026.1 1369.88 z" fill="rgb(0,0,0)" transform="translate(0,0)"></path>
<path d="M 1036.02 1378.91 C 1048.92 1378.6 1064.57 1379.78 1057.69 1397.34 C 1051.03 1399.93 1043.08 1399.69 1035.99 1399.72 L 1036.02 1378.91 z" fill="rgb(255,255,255)" transform="translate(0,0)"></path>
<path d="M 626.27 1002.81 C 632.358 1003.17 639.659 1015.01 645.701 1020.15 C 664.376 1036.03 684.711 1050.33 704.517 1064.69 C 699.535 1064.37 694.557 1063.99 689.583 1063.55 C 653.665 1061.01 624.516 1043.39 614.264 1007.81 C 619.258 1006.17 621.538 1005.15 626.27 1002.81 z" fill="rgb(38,34,36)" transform="translate(0,0)"></path>
<path d="M 913.418 1369.96 C 929.428 1369.69 939.28 1367.7 952.759 1376.85 C 961.551 1395.08 954.895 1410.85 933.25 1409.98 C 929.467 1409.86 928.294 1409.89 924.542 1410.28 C 918.987 1415.8 928.503 1431.96 919.759 1436.43 C 909.78 1434.19 913.195 1421.31 913.258 1413.19 L 913.418 1369.96 z" fill="rgb(0,0,0)" transform="translate(0,0)"></path>
<path d="M 924.587 1378.26 C 937.606 1378.19 954.031 1384.03 941.76 1399.13 C 934.505 1401.06 930.654 1400.73 923.158 1400.66 C 923.064 1395.7 922.123 1381.86 924.587 1378.26 z" fill="rgb(255,255,255)" transform="translate(0,0)"></path>
<path d="M 771.245 1448.05 L 777.597 1447.93 C 789.042 1447.76 800.563 1447.38 809.339 1456.18 C 817.032 1463.89 815.286 1475.43 807.685 1482.51 C 802.309 1487.52 797.914 1488.73 790.752 1488.47 C 788.083 1488.37 785.632 1488.41 782.97 1488.43 C 777.168 1493.99 787.689 1508.18 777.796 1513.89 C 768.109 1511.52 771.016 1497.38 771.071 1489.07 L 771.245 1448.05 z" fill="rgb(0,0,0)" transform="translate(0,0)"></path>
<path d="M 781.287 1457.3 C 794.841 1457.38 809.771 1459.36 799.255 1477.13 C 793.236 1480.25 787.818 1479.89 781.225 1479.91 C 781.207 1472.37 781.228 1464.84 781.287 1457.3 z" fill="rgb(255,255,255)" transform="translate(0,0)"></path>
<path d="M 1650.2 1032.99 C 1663.07 1031.33 1674.87 1040.37 1676.62 1053.22 C 1678.38 1066.08 1669.44 1077.95 1656.6 1079.81 C 1645.14 1081.46 1634.17 1074.57 1630.68 1063.53 C 1628.58 1056.86 1629.54 1049.6 1633.31 1043.7 C 1637.07 1037.81 1643.26 1033.89 1650.2 1032.99 z" fill="rgb(0,0,0)" transform="translate(0,0)"></path>
<path d="M 1651 1047.78 C 1655 1046.95 1658.96 1049.32 1660.13 1053.23 C 1661.3 1057.13 1659.28 1061.29 1655.48 1062.78 C 1652.72 1063.87 1649.58 1063.31 1647.37 1061.34 C 1645.16 1059.36 1644.24 1056.31 1645.01 1053.44 C 1645.78 1050.57 1648.1 1048.38 1651 1047.78 z" fill="rgb(255,255,255)" transform="translate(0,0)"></path>
<path d="M 986.083 1367.46 C 990.112 1371.01 1013.75 1423.79 1016.87 1432.33 L 1015.76 1433.79 C 1005.46 1435.39 1005.39 1430.53 1001.92 1422.16 L 983.932 1422.16 L 970.862 1422.09 L 966.239 1434.93 C 962.365 1434.59 958.493 1434.22 954.624 1433.82 C 964.66 1411.18 975.996 1390.1 986.083 1367.46 z" fill="rgb(0,0,0)" transform="translate(0,0)"></path>
<path d="M 986.153 1389.62 C 990.97 1396.71 994.357 1405.52 997.621 1413.48 L 987.531 1413.72 L 974.668 1413.55 C 978.303 1405.38 981.678 1397.38 986.153 1389.62 z" fill="rgb(255,255,255)" transform="translate(0,0)"></path>
<path d="M 1331.17 688.382 C 1341.39 690.238 1339.25 701.209 1353.23 699.694 C 1364.8 698.439 1359.95 710.403 1358.07 716.829 C 1361.41 720.093 1366.2 724.973 1363.86 729.79 C 1353.19 736.027 1349.52 726.891 1341.86 740.785 C 1340.7 743.255 1338.66 744.957 1336.4 746.337 C 1328.29 745.624 1328.48 733.976 1325.65 729.088 C 1322.91 724.362 1309.52 725.881 1309.85 717.01 C 1310.16 708.595 1320.67 710.143 1323.65 705.609 C 1327.68 699.463 1325.58 694.875 1331.17 688.382 z" fill="rgb(0,0,0)" transform="translate(0,0)"></path>
<path d="M 1335.74 708.279 C 1341.72 709.153 1347.96 708.677 1348.5 715.717 C 1346.86 719.83 1346.35 720.05 1343.08 723.239 C 1339.8 725.03 1341.51 724.636 1337.76 724.443 C 1331.68 720.021 1333.35 714.414 1335.74 708.279 z" fill="rgb(255,255,255)" transform="translate(0,0)"></path>
<path d="M 1398.7 782.313 C 1405.93 785.061 1407.31 788.499 1411.72 794.828 C 1432.67 794.29 1431.32 799.218 1421.72 815.122 C 1424.26 819.551 1428.95 825.569 1424.59 829.838 C 1415.14 831.494 1411.8 826.904 1404.66 833.102 C 1399.97 836.405 1398.61 838.417 1393.13 836.3 C 1388.93 831.229 1389.21 826.422 1388.65 819.864 C 1382.56 816.864 1375.49 814.816 1375.72 807.077 C 1379.4 801.422 1384.58 801.281 1391.3 799.687 C 1393.27 793.514 1394.9 787.556 1398.7 782.313 z" fill="rgb(0,0,0)" transform="translate(0,0)"></path>
<path d="M 1403.04 802.444 C 1406.18 803.479 1410.42 805.254 1412.17 808.09 C 1412.44 812.588 1412.11 811.568 1409.84 816.216 C 1407.81 817.026 1408.42 816.74 1406.73 817.542 L 1405.71 818.037 L 1403.01 820.114 L 1401.26 819.228 C 1399.39 816.429 1397.89 814.484 1395.8 811.845 C 1398.87 808.733 1400.59 805.991 1403.04 802.444 z" fill="rgb(255,255,255)" transform="translate(0,0)"></path>
<path d="M 1054.79 425.292 C 1066.12 424.161 1076.33 426.702 1082.18 437.394 C 1085.15 442.688 1085.7 449 1083.71 454.73 C 1080.74 463.002 1074.9 466.182 1067.49 469.557 C 1061.91 470.675 1057.97 470.866 1052.44 468.845 C 1046.68 466.758 1042.03 462.411 1039.56 456.811 C 1037.19 451.246 1037.16 444.96 1039.48 439.372 C 1042.65 431.659 1047.6 428.534 1054.79 425.292 z" fill="rgb(0,0,0)" transform="translate(0,0)"></path>
<path d="M 1057.66 442.449 C 1059.8 441.248 1062.43 441.381 1064.43 442.791 C 1066.44 444.201 1067.45 446.636 1067.04 449.05 C 1066.62 451.464 1064.86 453.426 1062.5 454.092 C 1059.41 454.967 1056.15 453.39 1054.91 450.42 C 1053.68 447.451 1054.86 444.027 1057.66 442.449 z" fill="rgb(255,255,255)" transform="translate(0,0)"></path>
<path d="M 990.208 1446.65 C 991.681 1448.33 1021.23 1511.71 1021.25 1511.52 C 1018.57 1513.06 1017.06 1512.81 1013.98 1512.91 C 1011.32 1511.38 1008.56 1505.85 1006.82 1502.93 L 992.5 1502.74 L 974.484 1502.64 C 972.313 1507.75 967.482 1518.39 960.221 1511.13 C 971.226 1488.86 980.792 1469.76 990.208 1446.65 z" fill="rgb(0,0,0)" transform="translate(0,0)"></path>
<path d="M 990.416 1469.73 C 992.755 1472.68 1001.26 1489.54 1002.85 1493.23 C 1000.02 1494.22 995.397 1493.94 992.204 1493.94 L 979.048 1493.82 C 982.847 1485.05 985.92 1478.23 990.416 1469.73 z" fill="rgb(255,255,255)" transform="translate(0,0)"></path>
<path d="M 1174.68 894.424 C 1183.57 895.553 1184.94 899.079 1190.11 905.89 C 1208.38 902.554 1209.55 906.883 1200.21 921.372 C 1202.87 926.367 1205.8 929.8 1203.72 935.423 C 1197.21 939.218 1193.03 934.427 1187.8 938.739 C 1183.5 942.474 1180.53 945.706 1174.88 946.453 C 1167.26 943.817 1170.46 933.901 1166 928.403 C 1163.78 925.662 1158.09 925.624 1154.3 921.035 C 1153.24 917.69 1153.56 917.607 1154.62 914.332 C 1157.94 911.157 1161.28 912.695 1164.06 911.785 C 1169.51 910 1170.22 900.972 1174.68 894.424 z" fill="rgb(0,0,0)" transform="translate(0,0)"></path>
<path d="M 1180.58 911.498 C 1185.27 914.295 1188.61 916.118 1188.84 921.79 C 1187.07 925.545 1185.13 926.254 1181.49 928.65 L 1179.74 928.29 C 1176.87 924.401 1175.77 922.89 1173.65 918.585 C 1176.86 915.782 1177.83 914.77 1180.58 911.498 z" fill="rgb(255,255,255)" transform="translate(0,0)"></path>
<path d="M 1288.47 953.63 C 1296.77 954.091 1296.74 956.017 1301.02 962.531 C 1306.69 962.872 1311.02 962.827 1316.19 965.126 C 1319.22 969.82 1316.32 975.423 1316.75 981.016 C 1316.97 983.826 1318.48 984.646 1318.59 987.462 C 1318.94 996.417 1308.92 994.636 1304.09 997.841 C 1302.87 998.652 1298.86 1004.18 1297.9 1005.48 C 1293.64 1007.93 1293.91 1007.58 1290.05 1006.63 C 1285.09 1002.36 1285.11 997.497 1284.22 991.098 C 1279 988.121 1269.73 986.608 1268.04 979.198 C 1266.5 972.481 1279.65 970.076 1284.03 969.19 C 1285.44 963.231 1286.28 959.362 1288.47 953.63 z" fill="rgb(0,0,0)" transform="translate(0,0)"></path>
<path d="M 1293.5 973.122 C 1296.55 972.736 1301.38 972.116 1303.63 974.601 C 1307.09 978.423 1308.19 982.754 1304.11 986.561 L 1299.85 984.999 C 1297.92 986.665 1297.77 986.759 1295.53 987.968 C 1291.3 985.93 1290.42 983.683 1289.69 979.409 C 1289.17 976.323 1291.56 975.045 1293.5 973.122 z" fill="rgb(255,255,255)" transform="translate(0,0)"></path>
<path d="M 758.573 1370.04 C 761.679 1369.89 763.855 1369.42 766.57 1370.82 C 770.181 1376.4 768.101 1389.56 768.125 1397.99 L 804.178 1397.86 C 804.338 1389.75 801.177 1375.38 808.087 1370.69 C 812.406 1370.67 811.072 1369.82 813.331 1371.92 C 814.529 1379.22 814.671 1427.73 813.361 1434.92 C 810.679 1434.77 809.085 1434.94 806.762 1433.58 C 802.559 1427.61 804.356 1415.55 804.29 1407.07 C 791.943 1406.49 781.262 1406.51 768.91 1406.66 C 768.64 1415.26 771.181 1428.09 766.629 1433.73 C 763.536 1435.22 763.683 1434.99 760.236 1434.38 C 757.252 1430.06 758.424 1378.6 758.573 1370.04 z" fill="rgb(0,0,0)" transform="translate(0,0)"></path>
<path d="M 1180.36 667.527 C 1192.24 665.24 1203.77 672.89 1206.27 684.729 C 1208.78 696.567 1201.34 708.231 1189.55 710.954 C 1181.73 712.761 1173.54 710.203 1168.14 704.266 C 1162.73 698.328 1160.96 689.935 1163.49 682.318 C 1166.02 674.7 1172.47 669.044 1180.36 667.527 z" fill="rgb(0,0,0)" transform="translate(0,0)"></path>
<path d="M 1181.06 683.31 C 1183.27 682.244 1185.89 682.46 1187.89 683.874 C 1189.9 685.289 1190.98 687.68 1190.72 690.121 C 1190.46 692.563 1188.9 694.672 1186.64 695.632 C 1183.26 697.069 1179.35 695.544 1177.83 692.197 C 1176.32 688.851 1177.75 684.905 1181.06 683.31 z" fill="rgb(255,255,255)" transform="translate(0,0)"></path>
<path d="M 1550.5 501.172 C 1561.58 499.737 1575.18 518.722 1580.22 527.441 C 1591.24 546.504 1601.89 576.649 1596.38 598.493 L 1595.5 597.799 C 1584.82 589.342 1586.37 586.983 1584.73 572.921 C 1581.74 546.823 1565.89 526.252 1547.15 509.312 C 1541.89 510.901 1534.33 514.563 1528.74 516.74 L 1517.4 510.049 C 1529.91 505.811 1537.65 503.99 1550.5 501.172 z" fill="rgb(0,0,0)" transform="translate(0,0)"></path>
<path d="M 831.154 1370.03 C 839.689 1370.02 862.737 1368.47 869.192 1370.94 C 873.322 1383.03 849.377 1378.93 841.708 1378.85 L 841.655 1396.55 C 847.783 1396.5 863.642 1395.42 867.537 1398.38 C 868.922 1402.4 868.817 1400.42 867.914 1404.54 C 862.877 1408.12 850.863 1404.71 842.33 1406.51 L 841.406 1408.23 L 841.609 1424.74 C 850.438 1424.99 862.835 1422.67 869.53 1426.29 C 871.82 1429.7 871.207 1427.85 871.267 1432.1 L 870.03 1433.34 C 860.296 1434.98 841.752 1434.17 831.172 1434.04 L 831.154 1370.03 z" fill="rgb(0,0,0)" transform="translate(0,0)"></path>
<path d="M 825.033 1447.96 C 834.425 1447.85 853.214 1447.02 861.31 1448.41 C 862.945 1451.31 862.348 1451.3 862.361 1455.17 C 858.351 1458.16 840.834 1457.04 834.884 1456.99 L 834.841 1476.01 C 843.603 1476.18 854.872 1473.77 861.491 1477.8 C 863.202 1481.13 862.962 1479.45 862.475 1482.97 C 855.027 1486.01 839.558 1482.61 834.719 1485.28 L 834.74 1504.11 C 843.144 1504.27 858.241 1501.26 863.762 1507.41 C 864.153 1511.11 864.704 1509.63 863.052 1512.28 C 854.067 1513.9 835.053 1513.1 825.002 1513 L 825.033 1447.96 z" fill="rgb(0,0,0)" transform="translate(0,0)"></path>
<path d="M 1117.87 1448.27 C 1119.9 1448.16 1121.92 1448.11 1123.95 1448.14 C 1130.91 1448.28 1136.06 1449.72 1140.79 1454.68 C 1140.34 1458.57 1141.14 1457.03 1138.7 1459.65 C 1130.77 1461.64 1123.46 1453.07 1115.69 1458.72 C 1107.32 1476.64 1140.62 1474.71 1142.82 1490.88 C 1145.05 1507.32 1135.39 1512.28 1120.66 1513.69 C 1110.6 1512.78 1107.48 1510.9 1099.69 1505.01 C 1102.3 1502.48 1104.19 1499.96 1106.44 1497.14 C 1111.39 1500.47 1126.7 1510.56 1131.56 1499.84 C 1138.88 1483.66 1107.47 1484.36 1104.3 1471.84 C 1101.23 1459.74 1106.77 1452.71 1117.87 1448.27 z" fill="rgb(0,0,0)" transform="translate(0,0)"></path>
<path d="M 904.406 1448.26 C 909.755 1448.01 919.164 1449.32 923.195 1452.97 C 925.169 1454.77 926.293 1457.31 926.293 1459.98 C 926.279 1461.89 926.187 1461.34 924.583 1462.84 C 919.591 1463.03 916.116 1458.55 911.738 1457.45 C 898.505 1454.13 886.836 1463.27 883.914 1475.76 C 878.361 1499.49 902.82 1511.31 921.507 1499.21 L 922.617 1498.08 L 924.498 1498.48 C 927.231 1501.83 926.991 1500.56 927.354 1504.28 C 920.968 1516.81 898.264 1514.74 887.98 1508.59 C 880.603 1504.12 875.436 1496.76 873.732 1488.3 C 869.067 1466.07 883.416 1451.58 904.406 1448.26 z" fill="rgb(0,0,0)" transform="translate(0,0)"></path>
<path d="M 738.704 1447.07 C 746.042 1446.7 757.096 1450.97 754.594 1459.26 C 749.454 1460.77 740.231 1456.03 736.481 1457.36 C 721.243 1462.74 736.342 1472.08 741.916 1475.06 C 752.76 1480.87 756.106 1483.9 759.57 1494.96 C 758.265 1499.26 756.804 1502.44 755.025 1506.53 C 746.996 1512.01 744.763 1512.58 735.43 1513.66 C 729.629 1512.55 716.503 1507.96 716.442 1501.03 C 724.616 1493.83 729.371 1508.18 741.478 1502.89 C 745.386 1501.18 745.606 1500.44 747.536 1496.47 C 747.453 1483.08 724.857 1483.94 720.811 1471 C 716.461 1457.09 727.852 1450.63 738.704 1447.07 z" fill="rgb(0,0,0)" transform="translate(0,0)"></path>
<path d="M 1158.66 1400.3 C 1162.8 1392.06 1169.56 1377.3 1174.99 1370.79 C 1178.49 1369.18 1180.38 1369.5 1184.21 1369.5 C 1185.07 1373.14 1175.01 1389.14 1172.57 1393.66 C 1165.65 1407.94 1162.95 1412.24 1164.08 1428.34 C 1164.29 1431.3 1164.31 1433.2 1162.46 1434.93 C 1158.99 1435.2 1157.83 1435.54 1154.51 1434.36 C 1153.45 1429.74 1154.09 1415.95 1154.19 1410.52 C 1148.64 1399.33 1133.72 1378.73 1131.79 1369.09 C 1135.85 1369.05 1136.05 1369.04 1140 1369.91 C 1147.23 1375.01 1154.13 1391.5 1158.66 1400.3 z" fill="rgb(0,0,0)" transform="translate(0,0)"></path>
<path d="M 1082.06 1369.52 C 1088.81 1369.44 1122.55 1367.83 1125.53 1371.07 C 1125.41 1374.87 1126.07 1374.96 1124.17 1377.37 C 1119.11 1378.98 1112.72 1378.36 1107.24 1378.24 L 1107.49 1422.5 C 1107.82 1429.42 1109.11 1431.16 1103.52 1435.88 C 1100.29 1436.61 1101.72 1436.86 1099.04 1435.51 C 1095.67 1429.65 1097.09 1386.94 1097.09 1378.02 C 1090.99 1378.23 1083.07 1379.46 1078.49 1376 C 1078.12 1373.02 1077.76 1372.8 1078.99 1370.19 L 1082.06 1369.52 z" fill="rgb(0,0,0)" transform="translate(0,0)"></path>
<path d="M 700.748 1370.01 C 714.622 1369.89 729.646 1369.49 743.549 1369.96 C 746.763 1370.06 747.014 1370.45 748.49 1372.29 C 748.615 1375.56 749.213 1375.84 747.744 1378.03 C 742.484 1379.67 734.807 1379.03 729.057 1378.94 L 728.947 1412.95 C 729.002 1418.27 730.622 1432.19 726.137 1434.41 C 722.076 1434.18 722.222 1434.84 719.449 1432.87 C 718.024 1422.09 718.899 1390.72 718.935 1378.97 C 713.114 1378.8 706.877 1380.27 702.126 1377.96 C 699.842 1374.5 700.639 1375.08 700.748 1370.01 z" fill="rgb(0,0,0)" transform="translate(0,0)"></path>
<path d="M 1440.51 1103.28 C 1448.66 1102.17 1472.88 1103.91 1478.19 1109.91 C 1479.41 1114.24 1479.43 1112.18 1478.46 1116.34 C 1472.44 1120.88 1459.01 1112.96 1447.74 1113.96 C 1436.9 1114.93 1437.51 1114.67 1426.8 1117.82 C 1417.85 1121.12 1404.81 1130.43 1400.2 1130.91 C 1397.42 1129.2 1397.56 1129.38 1396.11 1126.46 C 1397.65 1113.56 1429.15 1105.02 1440.51 1103.28 z" fill="rgb(0,0,0)" transform="translate(0,0)"></path>
<path d="M 1151.68 1448.07 C 1160.43 1447.99 1187.96 1445.11 1192.94 1451.41 C 1193.23 1454.86 1193.75 1453.48 1191.77 1455.86 C 1187.34 1457.65 1182.53 1457.1 1177.62 1457.03 L 1177.21 1498.73 C 1177.33 1503.59 1177.4 1506.16 1176.89 1510.94 L 1175.49 1511.86 C 1172.69 1511.79 1170.79 1512.12 1168.63 1510.45 C 1167.15 1503.48 1168 1466.67 1168.07 1457.02 C 1161.6 1456.85 1153.79 1458.68 1149.11 1455.25 C 1149 1451.37 1149.43 1452.05 1151.68 1448.07 z" fill="rgb(0,0,0)" transform="translate(0,0)"></path>
<path d="M 1029.86 1448.07 C 1033.04 1448.02 1036.25 1447.45 1038.62 1449.19 C 1040.01 1460.54 1039.1 1491.29 1039.05 1504.04 C 1048.46 1504.2 1056.18 1502.2 1064.43 1504.95 C 1066.89 1507.88 1066.03 1507.72 1066.12 1512.68 L 1029.74 1512.75 L 1029.86 1448.07 z" fill="rgb(0,0,0)" transform="translate(0,0)"></path>
<path d="M 941.445 1448.47 C 945.034 1448.37 948.053 1447.87 950.653 1449.68 C 950.385 1464.79 951.237 1499.78 949.771 1513.01 C 946.564 1512.99 944.108 1512.87 940.91 1512.63 C 939.173 1509.25 939.193 1451.37 941.445 1448.47 z" fill="rgb(0,0,0)" transform="translate(0,0)"></path>
<path d="M 1078.11 1448.09 C 1081.67 1447.99 1084.21 1447.5 1087.3 1449.15 C 1088.65 1455.79 1088.01 1503.45 1088 1512.86 C 1084.41 1512.92 1080.86 1513.4 1078.34 1511.41 C 1076.87 1497.05 1078.01 1463.81 1078.11 1448.09 z" fill="rgb(0,0,0)" transform="translate(0,0)"></path>
<path d="M 1040.83 621.587 C 1046.53 620.981 1051.68 625.052 1052.4 630.745 C 1053.11 636.438 1049.15 641.66 1043.47 642.491 C 1039.69 643.044 1035.92 641.514 1033.59 638.491 C 1031.26 635.468 1030.75 631.424 1032.25 627.917 C 1033.76 624.411 1037.04 621.989 1040.83 621.587 z" fill="rgb(0,0,0)" transform="translate(0,0)"></path>
<path d="M 993.653 817.131 C 992.907 813.828 992.53 813.364 993.25 810.026 C 997.404 804.671 1002.02 806.579 1007.59 808.85 C 1003.68 812.273 998.762 817.187 993.653 817.131 z" fill="rgb(0,0,0)" transform="translate(0,0)"></path>
<path d="M 1288.66 469.437 C 1291.31 470.689 1291.19 470.518 1292.65 473.049 C 1293.22 477.55 1291.41 481.422 1289.97 485.864 C 1287.29 483.638 1286.04 482.96 1284.55 479.774 C 1284.35 475.949 1286.7 472.87 1288.66 469.437 z" fill="rgb(0,0,0)" transform="translate(0,0)"></path>
<metadata><recraft-signature>{"signed_by": "recraft", "signature_b64": "Qm42pOBI9XULNjTUmpuB/G7TaCEJzGQ7CkiD8UarUDA8si19UIz5Rlidjod9jhAdNiodJkX1HZEW8zZDNZsgBw==", "signing_algo": "Ed25519", "generation_timestamp": 1772546703, "identifier": "2c634cf7-e5a4-476f-b706-6063825dbef9"}</recraft-signature></metadata></svg>